<?xml version="1.0" encoding="utf-8"?>
<!-- Generator: Adobe Illustrator 23.0.3, SVG Export Plug-In . SVG Version: 6.00 Build 0)  -->
<svg version="1.1" id="圖層_1" xmlns="http://www.w3.org/2000/svg" xmlns:xlink="http://www.w3.org/1999/xlink" x="0px" y="0px"
	 width="241px" height="341px" viewBox="0 0 241 341" style="enable-background:new 0 0 241 341;" xml:space="preserve">
<style type="text/css">
	.st0{fill:url(#SVGID_1_);stroke:#FFFFFF;stroke-miterlimit:10;}
	.st1{fill:url(#XMLID_2_);}
	.st2{fill:url(#XMLID_3_);}
	.st3{fill:url(#XMLID_4_);}
	.st4{fill:url(#XMLID_5_);}
	.st5{fill:url(#XMLID_6_);}
	.st6{fill:url(#XMLID_7_);}
	.st7{fill:url(#XMLID_8_);}
	.st8{fill:url(#XMLID_9_);}
	.st9{fill:url(#XMLID_10_);}
</style>
<g>
	<linearGradient id="SVGID_1_" gradientUnits="userSpaceOnUse" x1="45.3122" y1="23.4588" x2="204.8946" y2="335.5465">
		<stop  offset="0" style="stop-color:#EDEDED"/>
		<stop  offset="1" style="stop-color:#EAE7DE"/>
	</linearGradient>
	<path class="st0" d="M230.5,340.5h-220c-5.5,0-10-4.5-10-10v-320c0-5.5,4.5-10,10-10h220c5.5,0,10,4.5,10,10v320
		C240.5,336,236,340.5,230.5,340.5z"/>
	<g>
		<g>
			<g id="XMLID_2317_">
				
					<linearGradient id="XMLID_2_" gradientUnits="userSpaceOnUse" x1="29.4812" y1="8.4112" x2="48.4614" y2="8.4112" gradientTransform="matrix(1 4.994939e-03 -4.994939e-03 1 -15.1735 15.2308)">
					<stop  offset="0" style="stop-color:#333333"/>
					<stop  offset="0.279" style="stop-color:#2F2F2F"/>
					<stop  offset="0.5605" style="stop-color:#232323"/>
					<stop  offset="0.8423" style="stop-color:#0F0F0F"/>
					<stop  offset="1" style="stop-color:#000000"/>
				</linearGradient>
				<path id="XMLID_2318_" class="st1" d="M19.6,27.6l-2.2,6.4l-3.1,0l7.2-20.2l3.5,0l8.3,20.2l-3,0l-2.5-6.4L19.6,27.6z M27,25.5
					l-2.4-5.8c-0.5-1.2-0.9-2.5-1.3-3.7c-0.4,1.2-0.7,2.4-1.1,3.7l-2.1,5.8L27,25.5z"/>
			</g>
			<linearGradient id="XMLID_3_" gradientUnits="userSpaceOnUse" x1="13.8938" y1="52.1837" x2="33.5161" y2="52.1837">
				<stop  offset="0" style="stop-color:#333333"/>
				<stop  offset="0.279" style="stop-color:#2F2F2F"/>
				<stop  offset="0.5605" style="stop-color:#232323"/>
				<stop  offset="0.8423" style="stop-color:#0F0F0F"/>
				<stop  offset="1" style="stop-color:#000000"/>
			</linearGradient>
			<path id="XMLID_2323_" class="st2" d="M29.6,48.3c-1,0-2.6,0.8-4.1,1.7c1-1.7,2.1-3.7,2.1-4.8c0-2.2-1.8-3.9-3.9-3.9
				c-2.2,0-3.9,1.8-3.9,3.9c0,1.2,1.1,3.2,2.2,4.9c-1.5-0.9-3.2-1.7-4.2-1.7c-2.2,0-3.9,1.8-3.9,3.9c0,2.2,1.8,3.9,3.9,3.9
				c1.2,0,3.3-1.2,5-2.2c-0.6,1.7-1.3,4-1.3,5.2c0,2.2,1,4,2.2,4c1.2,0,2.2-1.8,2.2-4c0-1.2-0.7-3.4-1.3-5.1c1.7,1,3.8,2.2,4.9,2.2
				c2.2,0,3.9-1.8,3.9-3.9C33.5,50.1,31.8,48.3,29.6,48.3z"/>
		</g>
		<g>
			<g id="XMLID_2324_">
				
					<linearGradient id="XMLID_4_" gradientUnits="userSpaceOnUse" x1="223.0918" y1="7.4441" x2="242.0721" y2="7.4441" gradientTransform="matrix(1 4.994939e-03 -4.994939e-03 1 -15.1735 15.2308)">
					<stop  offset="0" style="stop-color:#333333"/>
					<stop  offset="0.279" style="stop-color:#2F2F2F"/>
					<stop  offset="0.5605" style="stop-color:#232323"/>
					<stop  offset="0.8423" style="stop-color:#0F0F0F"/>
					<stop  offset="1" style="stop-color:#000000"/>
				</linearGradient>
				<path id="XMLID_2325_" class="st3" d="M213.2,27.6l-2.2,6.4l-3.1,0l7.2-20.2l3.5,0l8.3,20.2l-3,0l-2.5-6.4L213.2,27.6z
					 M220.6,25.5l-2.4-5.8c-0.5-1.2-0.9-2.5-1.3-3.7c-0.4,1.2-0.7,2.4-1.1,3.7l-2.1,5.8L220.6,25.5z"/>
			</g>
			<linearGradient id="XMLID_5_" gradientUnits="userSpaceOnUse" x1="207.5069" y1="52.1837" x2="227.1293" y2="52.1837">
				<stop  offset="0" style="stop-color:#333333"/>
				<stop  offset="0.279" style="stop-color:#2F2F2F"/>
				<stop  offset="0.5605" style="stop-color:#232323"/>
				<stop  offset="0.8423" style="stop-color:#0F0F0F"/>
				<stop  offset="1" style="stop-color:#000000"/>
			</linearGradient>
			<path id="XMLID_2316_" class="st4" d="M223.2,48.3c-1,0-2.6,0.8-4.1,1.7c1-1.7,2.1-3.7,2.1-4.8c0-2.2-1.8-3.9-3.9-3.9
				c-2.2,0-3.9,1.8-3.9,3.9c0,1.2,1.1,3.2,2.2,4.9c-1.5-0.9-3.2-1.7-4.2-1.7c-2.2,0-3.9,1.8-3.9,3.9c0,2.2,1.8,3.9,3.9,3.9
				c1.2,0,3.3-1.2,5-2.2c-0.6,1.7-1.3,4-1.3,5.2c0,2.2,1,4,2.2,4c1.2,0,2.2-1.8,2.2-4c0-1.2-0.7-3.4-1.3-5.1c1.7,1,3.8,2.2,4.9,2.2
				c2.2,0,3.9-1.8,3.9-3.9C227.1,50.1,225.4,48.3,223.2,48.3z"/>
		</g>
		<g>
			<g id="XMLID_2593_">
				
					<linearGradient id="XMLID_6_" gradientUnits="userSpaceOnUse" x1="-4460.2681" y1="-6193.3223" x2="-4441.2881" y2="-6193.3223" gradientTransform="matrix(-1 -4.994939e-03 4.994939e-03 -1 -4202.522 -5898.3159)">
					<stop  offset="0" style="stop-color:#333333"/>
					<stop  offset="0.279" style="stop-color:#2F2F2F"/>
					<stop  offset="0.5605" style="stop-color:#232323"/>
					<stop  offset="0.8423" style="stop-color:#0F0F0F"/>
					<stop  offset="1" style="stop-color:#000000"/>
				</linearGradient>
				<path id="XMLID_2594_" class="st5" d="M221.4,313.4l2.2-6.4l3.1,0l-7.2,20.2l-3.5,0l-8.3-20.2l3,0l2.5,6.4L221.4,313.4z
					 M214.1,315.5l2.4,5.8c0.5,1.2,0.9,2.5,1.3,3.7c0.4-1.2,0.7-2.4,1.1-3.7l2.1-5.8L214.1,315.5z"/>
			</g>
			
				<linearGradient id="XMLID_7_" gradientUnits="userSpaceOnUse" x1="-4444.8247" y1="-6171.9014" x2="-4425.2021" y2="-6171.9014" gradientTransform="matrix(-1 0 0 -1 -4217.6953 -5883.0854)">
				<stop  offset="0" style="stop-color:#333333"/>
				<stop  offset="0.279" style="stop-color:#2F2F2F"/>
				<stop  offset="0.5605" style="stop-color:#232323"/>
				<stop  offset="0.8423" style="stop-color:#0F0F0F"/>
				<stop  offset="1" style="stop-color:#000000"/>
			</linearGradient>
			<path id="XMLID_2321_" class="st6" d="M211.4,292.7c1,0,2.6-0.8,4.1-1.7c-1,1.7-2.1,3.7-2.1,4.8c0,2.2,1.8,3.9,3.9,3.9
				c2.2,0,3.9-1.8,3.9-3.9c0-1.2-1.1-3.2-2.2-4.9c1.5,0.9,3.2,1.7,4.2,1.7c2.2,0,3.9-1.8,3.9-3.9c0-2.2-1.8-3.9-3.9-3.9
				c-1.2,0-3.3,1.2-5,2.2c0.6-1.7,1.3-4,1.3-5.2c0-2.2-1-4-2.2-4c-1.2,0-2.2,1.8-2.2,4c0,1.2,0.7,3.4,1.3,5.1
				c-1.7-1-3.8-2.2-4.9-2.2c-2.2,0-3.9,1.8-3.9,3.9C207.5,290.9,209.3,292.7,211.4,292.7z"/>
		</g>
		<g>
			<g id="XMLID_2312_">
				
					<linearGradient id="XMLID_8_" gradientUnits="userSpaceOnUse" x1="-4266.6577" y1="-6194.2896" x2="-4247.6772" y2="-6194.2896" gradientTransform="matrix(-1 -4.994939e-03 4.994939e-03 -1 -4202.522 -5898.3159)">
					<stop  offset="0" style="stop-color:#333333"/>
					<stop  offset="0.279" style="stop-color:#2F2F2F"/>
					<stop  offset="0.5605" style="stop-color:#232323"/>
					<stop  offset="0.8423" style="stop-color:#0F0F0F"/>
					<stop  offset="1" style="stop-color:#000000"/>
				</linearGradient>
				<path id="XMLID_2313_" class="st7" d="M27.8,313.4l2.2-6.4l3.1,0L26,327.3l-3.5,0l-8.3-20.2l3,0l2.5,6.4L27.8,313.4z
					 M20.4,315.5l2.4,5.8c0.5,1.2,0.9,2.5,1.3,3.7c0.4-1.2,0.7-2.4,1.1-3.7l2.1-5.8L20.4,315.5z"/>
			</g>
			
				<linearGradient id="XMLID_9_" gradientUnits="userSpaceOnUse" x1="-4251.2114" y1="-6171.9014" x2="-4231.5889" y2="-6171.9014" gradientTransform="matrix(-1 0 0 -1 -4217.6953 -5883.0854)">
				<stop  offset="0" style="stop-color:#333333"/>
				<stop  offset="0.279" style="stop-color:#2F2F2F"/>
				<stop  offset="0.5605" style="stop-color:#232323"/>
				<stop  offset="0.8423" style="stop-color:#0F0F0F"/>
				<stop  offset="1" style="stop-color:#000000"/>
			</linearGradient>
			<path id="XMLID_2311_" class="st8" d="M17.8,292.7c1,0,2.6-0.8,4.1-1.7c-1,1.7-2.1,3.7-2.1,4.8c0,2.2,1.8,3.9,3.9,3.9
				c2.2,0,3.9-1.8,3.9-3.9c0-1.2-1.1-3.2-2.2-4.9c1.5,0.9,3.2,1.7,4.2,1.7c2.2,0,3.9-1.8,3.9-3.9c0-2.2-1.8-3.9-3.9-3.9
				c-1.2,0-3.3,1.2-5,2.2c0.6-1.7,1.3-4,1.3-5.2c0-2.2-1-4-2.2-4c-1.2,0-2.2,1.8-2.2,4c0,1.2,0.7,3.4,1.3,5.1
				c-1.7-1-3.8-2.2-4.9-2.2c-2.2,0-3.9,1.8-3.9,3.9C13.9,290.9,15.6,292.7,17.8,292.7z"/>
		</g>
		<linearGradient id="XMLID_10_" gradientUnits="userSpaceOnUse" x1="80.3099" y1="172.222" x2="160.6773" y2="172.222">
			<stop  offset="0" style="stop-color:#333333"/>
			<stop  offset="0.279" style="stop-color:#2F2F2F"/>
			<stop  offset="0.5605" style="stop-color:#232323"/>
			<stop  offset="0.8423" style="stop-color:#0F0F0F"/>
			<stop  offset="1" style="stop-color:#000000"/>
		</linearGradient>
		<path id="XMLID_2322_" class="st9" d="M144.7,156.5c-4,0-10.6,3.2-16.7,6.8c4.2-6.8,8.7-15.2,8.7-19.8c0-8.8-7.2-16-16-16
			c-8.8,0-16,7.2-16,16c0,4.7,4.6,13.2,8.9,20.1c-6.2-3.7-13.1-7.1-17.2-7.1c-8.8,0-16,7.2-16,16c0,8.8,7.2,16,16,16
			c4.8,0,13.6-4.8,20.6-9.2c-2.5,7.1-5.2,16.3-5.2,21.3c0,9,4,16.3,9,16.3c5,0,9-7.3,9-16.3c0-5-2.7-14-5.2-21.1
			c6.9,4.3,15.5,8.9,20.2,8.9c8.8,0,16-7.2,16-16C160.7,163.7,153.5,156.5,144.7,156.5z"/>
	</g>
</g>
</svg>
