<svg xmlns="http://www.w3.org/2000/svg" xmlns:xlink="http://www.w3.org/1999/xlink" viewBox="0 0 170 50">
  <defs>
    <linearGradient id="linear-gradient" x1="-155.41" y1="41.61" x2="-155.41" y2="2.16" gradientTransform="matrix(1, 0, -0.15, 1, 172.53, 0)" gradientUnits="userSpaceOnUse">
      <stop offset="0" stop-color="#f3e5bf"/>
      <stop offset="0.07" stop-color="#dac8a2"/>
      <stop offset="0.21" stop-color="#aa906a"/>
      <stop offset="0.34" stop-color="#866841"/>
      <stop offset="0.43" stop-color="#714f28"/>
      <stop offset="0.49" stop-color="#69461f"/>
      <stop offset="0.53" stop-color="#6e4b23"/>
      <stop offset="0.58" stop-color="#7c5b2f"/>
      <stop offset="0.63" stop-color="#937443"/>
      <stop offset="0.69" stop-color="#b3975f"/>
      <stop offset="0.74" stop-color="#d8bf7f"/>
      <stop offset="0.78" stop-color="#e2cc98"/>
      <stop offset="0.84" stop-color="#eedcb6"/>
      <stop offset="0.9" stop-color="#f6e8cc"/>
      <stop offset="0.95" stop-color="#fbefda"/>
      <stop offset="1" stop-color="#fdf1de"/>
    </linearGradient>
    <linearGradient id="未命名漸層_9" data-name="未命名漸層 9" x1="-155.41" y1="40.93" x2="-155.41" y2="2.85" gradientTransform="matrix(1, 0, -0.15, 1, 172.53, 0)" gradientUnits="userSpaceOnUse">
      <stop offset="0.41" stop-color="#ffffc3"/>
      <stop offset="0.56" stop-color="#f8eda3"/>
      <stop offset="0.74" stop-color="#f2db85"/>
      <stop offset="0.84" stop-color="#f0d57a"/>
      <stop offset="0.88" stop-color="#eed278"/>
      <stop offset="0.92" stop-color="#e8c774"/>
      <stop offset="0.96" stop-color="#dfb66c"/>
      <stop offset="0.99" stop-color="#d29e61"/>
      <stop offset="1" stop-color="#cc945c"/>
    </linearGradient>
    <linearGradient id="linear-gradient-2" x1="-16.69" y1="41.61" x2="-16.69" y2="18.45" xlink:href="#linear-gradient"/>
    <linearGradient id="未命名漸層_9-2" x1="-16.69" y1="41.21" x2="-16.69" y2="18.85" xlink:href="#未命名漸層_9"/>
    <linearGradient id="未命名漸層_9-3" x1="104.27" y1="5.65" x2="170" y2="5.65" gradientTransform="matrix(1, 0, 0, 1, 0, 0)" xlink:href="#未命名漸層_9"/>
    <linearGradient id="linear-gradient-3" x1="-116.24" y1="41.61" x2="-116.24" y2="18.45" xlink:href="#linear-gradient"/>
    <linearGradient id="未命名漸層_9-7" x1="-116.41" y1="41.21" x2="-116.41" y2="18.86" xlink:href="#未命名漸層_9"/>
    <linearGradient id="linear-gradient-4" x1="-51.09" y1="41.61" x2="-51.09" y2="18.45" xlink:href="#linear-gradient"/>
    <linearGradient id="未命名漸層_9-8" x1="-51.09" y1="41.21" x2="-51.09" y2="18.85" xlink:href="#未命名漸層_9"/>
    <linearGradient id="未命名漸層_9-9" x1="84.19" y1="32.64" x2="67.14" y2="32.64" gradientTransform="matrix(1, 0, 0, 1, 0, 0)" xlink:href="#未命名漸層_9"/>
    <linearGradient id="未命名漸層_9-10" x1="61.12" y1="24.33" x2="87.15" y2="24.33" gradientTransform="matrix(1, 0, 0, 1, 0, 0)" xlink:href="#未命名漸層_9"/>
    <linearGradient id="未命名漸層_9-11" x1="79.59" y1="29.43" x2="98.22" y2="29.43" gradientTransform="matrix(1, 0, 0, 1, 0, 0)" xlink:href="#未命名漸層_9"/>
    <linearGradient id="未命名漸層_9-12" x1="94.95" y1="24.3" x2="67.54" y2="24.3" gradientTransform="matrix(1, 0, 0, 1, 0, 0)" xlink:href="#未命名漸層_9"/>
    <linearGradient id="未命名漸層_9-13" x1="83.84" y1="26.75" x2="106.97" y2="26.75" gradientTransform="matrix(1, 0, 0, 1, 0, 0)" xlink:href="#未命名漸層_9"/>
    <linearGradient id="未命名漸層_9-14" x1="67.76" y1="38.31" x2="93.66" y2="38.31" gradientTransform="matrix(1, 0, 0, 1, 0, 0)" xlink:href="#未命名漸層_9"/>
  </defs>
  <title>形象網站_首頁v5(O)</title>
  <g id="圖層_5" data-name="圖層 5">
    <g>
      <g>
        <polygon points="21.04 6.14 27.64 2.17 21.64 2.17 21.64 2.16 11.94 2.16 11.94 2.17 5.94 2.17 11.33 6.12 6.51 37.7 0 41.61 6.09 41.61 6.09 41.6 15.61 41.6 15.61 41.61 21.7 41.61 16.23 37.6 21.04 6.14" style="fill: url(#linear-gradient)"/>
        <polygon points="2.38 40.92 7.14 38.07 12.07 5.76 8.12 2.86 25.27 2.85 20.41 5.77 15.49 37.96 19.53 40.93 2.38 40.92" style="fill: url(#未命名漸層_9)"/>
      </g>
      <g>
        <polygon points="166.13 20.72 169.89 18.46 166.47 18.46 166.48 18.45 160.78 18.45 159.46 27.11 144.14 27.11 144.14 27.1 145.46 18.45 139.76 18.46 139.76 18.46 136.23 18.46 139.41 20.79 138.44 27.1 138.36 27.65 136.58 39.3 132.74 41.61 136.31 41.61 136.31 41.61 141.93 41.61 143.35 32.27 158.67 32.27 157.25 41.61 162.83 41.61 162.83 41.61 166.4 41.61 163.29 39.33 166.13 20.72" style="fill: url(#linear-gradient-2)"/>
        <polygon points="157.71 41.21 159.13 31.86 143.01 31.87 141.59 41.21 134.14 41.21 136.95 39.52 139.84 20.58 137.5 18.86 145 18.85 143.68 27.5 159.8 27.51 161.12 18.85 168.5 18.86 165.76 20.5 162.86 39.54 165.13 41.21 157.71 41.21" style="fill: url(#未命名漸層_9-2)"/>
      </g>
      <g>
        <g>
          <path d="M106.11,6l-1.59.22a4.76,4.76,0,0,0-.25-.9l1-.16.81-1.06a8.29,8.29,0,0,0-1.8-1.28L104.7,2l.49.27a23.58,23.58,0,0,0,1-2.24l.82.44a21.45,21.45,0,0,1-1.16,2.31l.68.54a8.45,8.45,0,0,0,.78-1.91l.91.24A9.7,9.7,0,0,1,106.42,5l1-.17-.19-.64.84-.2a16.32,16.32,0,0,1,.6,2.15l-.86.14-.12-.52-.64.11v5.27h-1Zm-1.73,4.35a27,27,0,0,0,.39-3.55l.91.12a28,28,0,0,1-.4,3.63Zm3.38-1.06A21.71,21.71,0,0,0,107.38,7l.87-.13.38,2.41Zm1.15-3.17h1.77l.5.3A9.23,9.23,0,0,1,109,10.53l-.74-.69a6.19,6.19,0,0,0,1.88-2.59c0-.11-.06-.16-.17-.16h-1Zm3.58-.85a13.88,13.88,0,0,0,.62,1.83,11.74,11.74,0,0,0,1.53-1.36l.66.75A11.88,11.88,0,0,1,113.61,8a11.52,11.52,0,0,0,1.93,2.18l-.89.56a12.34,12.34,0,0,1-2.26-3v2.42a1.1,1.1,0,0,1-1.2,1.15,5.49,5.49,0,0,1-1.42-.23l0-1a4.82,4.82,0,0,0,1.19.25c.26,0,.42-.06.42-.4V5.31h-2.5a.12.12,0,0,1-.13-.13V1.11a.12.12,0,0,1,.13-.13h2a6.44,6.44,0,0,0,.34-1l1,.34-.19.64h2.77a.12.12,0,0,1,.14.13V5.18a.12.12,0,0,1-.14.13Zm-2.78-2.59H114V1.9l0,0h-4.23s0,0,0,0Zm4.31.9h-4.31v.76l0,0H114l0,0Z" style="fill: #040000"/>
          <path d="M126.32,9.72V.12h1.13V3h5.48V4.09h-5.48V9.72h6.14v1.07h-11V9.72Z" style="fill: #040000"/>
          <path d="M145.74,7.47h-5v-1h5v-5H141.2v-1h10.13v1H146.8v5h4.9v1h-4.9v3.69h-1.06Zm-2.65-1.66a18.55,18.55,0,0,0-1.76-3.12l.9-.55A19.47,19.47,0,0,1,144,5.31Zm5.24-.44a18.57,18.57,0,0,0,1.77-3.24l.94.46a18.6,18.6,0,0,1-1.81,3.3Z" style="fill: #040000"/>
          <path d="M168.33,3.92l-9.26.75-.28-1.06,1.13-.09A26.46,26.46,0,0,0,162.3,0l.87.55a23.18,23.18,0,0,1-1.85,2.85L167.48,3A11.54,11.54,0,0,0,166,1.44l.81-.71A39.41,39.41,0,0,1,170,4.3l-.83.65Zm-7.24,6.67v.53H160V6.05a.32.32,0,0,1,.37-.37h8a.33.33,0,0,1,.37.37v5.07h-1.07v-.53Zm0-1h6.63V6.86a.14.14,0,0,0-.16-.16h-6.32c-.12,0-.17.06-.15.16Z" style="fill: #040000"/>
        </g>
        <g>
          <path d="M106.11,6l-1.59.22a4.76,4.76,0,0,0-.25-.9l1-.16.81-1.06a8.29,8.29,0,0,0-1.8-1.28L104.7,2l.49.27a23.58,23.58,0,0,0,1-2.24l.82.44a21.45,21.45,0,0,1-1.16,2.31l.68.54a8.45,8.45,0,0,0,.78-1.91l.91.24A9.7,9.7,0,0,1,106.42,5l1-.17-.19-.64.84-.2a16.32,16.32,0,0,1,.6,2.15l-.86.14-.12-.52-.64.11v5.27h-1Zm-1.73,4.35a27,27,0,0,0,.39-3.55l.91.12a28,28,0,0,1-.4,3.63Zm3.38-1.06A21.71,21.71,0,0,0,107.38,7l.87-.13.38,2.41Zm1.15-3.17h1.77l.5.3A9.23,9.23,0,0,1,109,10.53l-.74-.69a6.19,6.19,0,0,0,1.88-2.59c0-.11-.06-.16-.17-.16h-1Zm3.58-.85a13.88,13.88,0,0,0,.62,1.83,11.74,11.74,0,0,0,1.53-1.36l.66.75A11.88,11.88,0,0,1,113.61,8a11.52,11.52,0,0,0,1.93,2.18l-.89.56a12.34,12.34,0,0,1-2.26-3v2.42a1.1,1.1,0,0,1-1.2,1.15,5.49,5.49,0,0,1-1.42-.23l0-1a4.82,4.82,0,0,0,1.19.25c.26,0,.42-.06.42-.4V5.31h-2.5a.12.12,0,0,1-.13-.13V1.11a.12.12,0,0,1,.13-.13h2a6.44,6.44,0,0,0,.34-1l1,.34-.19.64h2.77a.12.12,0,0,1,.14.13V5.18a.12.12,0,0,1-.14.13Zm-2.78-2.59H114V1.9l0,0h-4.23s0,0,0,0Zm4.31.9h-4.31v.76l0,0H114l0,0Z" style="fill: url(#未命名漸層_9-3)"/>
          <path d="M126.32,9.72V.12h1.13V3h5.48V4.09h-5.48V9.72h6.14v1.07h-11V9.72Z" style="fill: url(#未命名漸層_9-3)"/>
          <path d="M145.74,7.47h-5v-1h5v-5H141.2v-1h10.13v1H146.8v5h4.9v1h-4.9v3.69h-1.06Zm-2.65-1.66a18.55,18.55,0,0,0-1.76-3.12l.9-.55A19.47,19.47,0,0,1,144,5.31Zm5.24-.44a18.57,18.57,0,0,0,1.77-3.24l.94.46a18.6,18.6,0,0,1-1.81,3.3Z" style="fill: url(#未命名漸層_9-3)"/>
          <path d="M168.33,3.92l-9.26.75-.28-1.06,1.13-.09A26.46,26.46,0,0,0,162.3,0l.87.55a23.18,23.18,0,0,1-1.85,2.85L167.48,3A11.54,11.54,0,0,0,166,1.44l.81-.71A39.41,39.41,0,0,1,170,4.3l-.83.65Zm-7.24,6.67v.53H160V6.05a.32.32,0,0,1,.37-.37h8a.33.33,0,0,1,.37.37v5.07h-1.07v-.53Zm0-1h6.63V6.86a.14.14,0,0,0-.16-.16h-6.32c-.12,0-.17.06-.15.16Z" style="fill: url(#未命名漸層_9-3)"/>
        </g>
      </g>
      <g>
        <path d="M64.13,33.68l-3.65,2.7H47.12a3.12,3.12,0,0,1-2.36-1,3,3,0,0,1-.59-2.51l1.43-9.37H62.92l2.32-5.09H46.39a6.32,6.32,0,0,0-6.52,5.09L38.28,33.91a6.82,6.82,0,0,0,1.29,5.36,6.22,6.22,0,0,0,5.29,2.34H60.57l2.34-5.23h0Z" style="fill: url(#linear-gradient-3)"/>
        <path d="M44.92,41.21a5.87,5.87,0,0,1-5-2.21,6.49,6.49,0,0,1-1.22-5.09l1.59-10.36a5.86,5.86,0,0,1,6.06-4.69h18.3l-1.95,4.28H45.26l-1.49,9.77a3.31,3.31,0,0,0,.66,2.79,3.43,3.43,0,0,0,2.62,1.07H60.42l2.79-2-2.87,6.42Z" style="fill: url(#未命名漸層_9-7)"/>
      </g>
      <g>
        <path d="M128.12,29.11A5.47,5.47,0,0,0,123.41,27H111.17c-2.2,0-2-3.55.54-3.55h14.48l.37,2.83,1.33-2.83h0l2.34-5H112.52a7.24,7.24,0,0,0-5.21,2,8.65,8.65,0,0,0-2.11,3,7.48,7.48,0,0,0-.62,3.55,6.14,6.14,0,0,0,1.2,3.44,5.34,5.34,0,0,0,4.59,2.11h12.06a1.37,1.37,0,0,1,1.19.61,1.87,1.87,0,0,1,.31,1.42,2.45,2.45,0,0,1-.77,1.42,2,2,0,0,1-1.44.61H106.86l-1.18-1.84-.88,1.84h0l-.34.73-.72,1.5h0l-1.3,2.79h18.73a7.51,7.51,0,0,0,5.37-2.21,9,9,0,0,0,2.74-5.21A6.58,6.58,0,0,0,128.12,29.11Z" style="fill: url(#linear-gradient-4)"/>
        <path d="M103.06,41.21l1.6-3.42,1-2.2.81,1.26,15.15.15a2.51,2.51,0,0,0,1.76-.74,2.89,2.89,0,0,0,.91-1.69,2.17,2.17,0,0,0-.38-1.69,1.7,1.7,0,0,0-1.46-.74H110.43a5,5,0,0,1-4.31-2A5.91,5.91,0,0,1,105,26.92a7.16,7.16,0,0,1,.59-3.36,8,8,0,0,1,2-2.83,6.72,6.72,0,0,1,4.9-1.88h17.16l-2.82,6L126.56,23H111.77a2.47,2.47,0,0,0-1.73.66,2.52,2.52,0,0,0-.75,1.44,1.83,1.83,0,0,0,1.82,2.25h12.24a5.1,5.1,0,0,1,4.43,2,6.09,6.09,0,0,1,1.1,4.81,8.52,8.52,0,0,1-2.59,5,7.1,7.1,0,0,1-5.05,2.07Z" style="fill: url(#未命名漸層_9-8)"/>
      </g>
      <g>
        <path d="M67.83,27.71c.69,10.28,10.34,14.41,14.7,7.91a4.52,4.52,0,0,1-1.22.94c-5.61,3.06-12.41-3.9-13.54-10,0,.39,0,.78.06,1.18Z" style="fill-rule: evenodd;fill: url(#未命名漸層_9-9)"/>
        <path d="M73.67,29.76c-1.62,4.15.5,8.15,5.45,7.57a6.31,6.31,0,0,0,2.19-.77c-4.82,2.59-9.08-2.67-5.25-8.65,2.38-3.73,7.25-7.71,7.78-11.28,1-1.12,1.52-2.2,0-5.36-.41,3.36-1,6.51-3.44,9.33-1.82,2.11-5.38,5.7-6.73,9.16Z" style="fill-rule: evenodd;fill: url(#未命名漸層_9-10)"/>
        <path d="M94.47,42.23c4.12-5,2.61-11.91-5.07-19.71-1.19-1.2-5.56-5.89-5.56-5.89.35,3.21,4.29,6.61,6.87,10,4.75,6.23,5.57,11.57,3.75,15.63a0,0,0,0,1,0,0Z" style="fill-rule: evenodd;fill: url(#未命名漸層_9-11)"/>
        <path d="M67.77,26.47c.35,6,5.8,11.82,11.35,10.8-4.13.48-6.62-3.15-5-7.29,1.35-3.47,4.76-7.14,6.58-9.24a12.21,12.21,0,0,0,3.14-9.53A31.58,31.58,0,0,1,68.6,16.38a49.65,49.65,0,0,0-.85,9.38c0,.24,0,.47,0,.71Z" style="fill-rule: evenodd;fill: url(#未命名漸層_9-12)"/>
        <path d="M89,23.33q11.3,11.75,5.49,18.9c5.1-6.23,6.63-14.73,4.61-25.79a31.61,31.61,0,0,1-15.24-5.17,16.34,16.34,0,0,1,0,5.36c.71,2.16,3,4.43,5.14,6.7Z" style="fill-rule: evenodd;fill: url(#未命名漸層_9-13)"/>
        <path d="M82.53,35.62c-4,5.52-13.73,1.54-14.7-7.91.7,10.48,6,17.79,16,22.29a28.87,28.87,0,0,0,10.62-7.76c2.59-4.13,1.44-9.46-3.75-15.63.34.44.65.87.92,1.3,5.05,7.88-3,11.46-6.47,7.71-.22,4.05-.54,4.9,2,7.4H80.55c2.34-2.33,2.15-4,2-7.4Z" style="fill-rule: evenodd;fill: url(#未命名漸層_9-14)"/>
      </g>
    </g>
  </g>
</svg>
