<svg xmlns="http://www.w3.org/2000/svg" xmlns:xlink="http://www.w3.org/1999/xlink" viewBox="0 0 280 229">
  <defs>
    <linearGradient id="未命名漸層_9" data-name="未命名漸層 9" x1="72.1" y1="160.22" x2="205.28" y2="160.22" gradientUnits="userSpaceOnUse">
      <stop offset="0.41" stop-color="#ffffc3"/>
      <stop offset="0.56" stop-color="#f8eda3"/>
      <stop offset="0.74" stop-color="#f2db85"/>
      <stop offset="0.84" stop-color="#f0d57a"/>
      <stop offset="0.88" stop-color="#eed278"/>
      <stop offset="0.92" stop-color="#e8c774"/>
      <stop offset="0.96" stop-color="#dfb66c"/>
      <stop offset="0.99" stop-color="#d29e61"/>
      <stop offset="1" stop-color="#cc945c"/>
    </linearGradient>
    <linearGradient id="未命名漸層_9-5" x1="97.55" y1="124.14" x2="140.34" y2="124.14" xlink:href="#未命名漸層_9"/>
    <linearGradient id="未命名漸層_9-6" x1="139.66" y1="124.14" x2="182.45" y2="124.14" xlink:href="#未命名漸層_9"/>
    <linearGradient id="未命名漸層_9-7" x1="0" y1="186.11" x2="280" y2="186.11" xlink:href="#未命名漸層_9"/>
    <linearGradient id="未命名漸層_9-8" x1="75.88" y1="193.52" x2="102.99" y2="193.52" xlink:href="#未命名漸層_9"/>
    <linearGradient id="未命名漸層_9-9" x1="71.51" y1="198.85" x2="136.36" y2="198.85" xlink:href="#未命名漸層_9"/>
    <linearGradient id="未命名漸層_9-10" x1="177.01" y1="193.52" x2="204.12" y2="193.52" xlink:href="#未命名漸層_9"/>
    <linearGradient id="未命名漸層_9-11" x1="143.64" y1="198.85" x2="208.49" y2="198.85" xlink:href="#未命名漸層_9"/>
    <linearGradient id="未命名漸層_9-12" x1="137.61" y1="219.88" x2="141.97" y2="219.88" xlink:href="#未命名漸層_9"/>
    <linearGradient id="未命名漸層_9-13" x1="133.7" y1="214.58" x2="137.89" y2="214.58" xlink:href="#未命名漸層_9"/>
    <linearGradient id="未命名漸層_9-14" x1="141.99" y1="215.03" x2="146.31" y2="215.03" xlink:href="#未命名漸層_9"/>
    <linearGradient id="未命名漸層_9-15" x1="70.83" y1="61.88" x2="209.86" y2="61.88" xlink:href="#未命名漸層_9"/>
    <linearGradient id="未命名漸層_9-16" x1="102.39" y1="4.04" x2="178.3" y2="4.04" xlink:href="#未命名漸層_9"/>
  </defs>
  <title>形象網站_首頁v5</title>
  <g id="圖層_5" data-name="圖層 5">
    <g>
      <g>
        <text transform="translate(70.42 172.22)" style="font-size: 31.62520980834961px;fill: #1c232f;font-family: AdobeFanHeitiStd-Bold-B5pc-H, Adobe Fan Heiti Std;letter-spacing: 0.10000242450296784em">電子遊藝</text>
        <g>
          <path d="M84.85,152.55H74.92a.23.23,0,0,0-.26.25v4.14H72.1v-6.35a.42.42,0,0,1,.48-.48H84.85v-1.33H74.35v-2.31H98v2.31H87.41v1.33H98.8l2.21,1.11a21.71,21.71,0,0,1-1.07,5.85l-2.47-.73a14.8,14.8,0,0,0,.66-3.32c0-.25,0-.47-.31-.47H87.41v6.67H84.85Zm-.13,17.68H74.22c-.22,0-.32-.13-.32-.35v-9.2a.28.28,0,0,1,.32-.32H97.63c.22,0,.35.1.35.32v9.2a.32.32,0,0,1-.35.35H87.28a1.42,1.42,0,0,0,1.4,1.65h8.85a1.26,1.26,0,0,0,.73-.29,9.3,9.3,0,0,0,.29-2.12l2.4.6a11.57,11.57,0,0,1-.6,3.26,2.61,2.61,0,0,1-1.77,1H87.22a2.74,2.74,0,0,1-2.5-2.53Zm-9-13.25h7.84V159H75.68Zm.12-3.23h7.72v2.09H75.8Zm8.92,10.5v-1.67H76.43q-.14,0-.09.09v1.58Zm0,3.8v-1.71H76.34v1.58l.09.13Zm2.56-5.47v1.67h8.23v-1.58l-.1-.09Zm0,3.76v1.71h8.13l.1-.13v-1.58Zm1.62-12.59h7.72v2.09H88.9Zm0,3.23h7.94V159H88.9Z" style="fill: url(#未命名漸層_9)"/>
          <path d="M123.91,161.75a26.19,26.19,0,0,1,1.23,6.71c0,5.5-4.52,6.1-6.26,6.1a16.05,16.05,0,0,1-6.74-1.89l.6-2.85a11.43,11.43,0,0,0,5.76,1.93,3.39,3.39,0,0,0,3.67-3.58,23,23,0,0,0-1.33-6.42H106.51v-2.81h13.22a33.43,33.43,0,0,0-2.15-4.27h2l7.59-5.35a.11.11,0,0,0,.07-.12.29.29,0,0,0-.29-.29H109.45v-2.82h20.81l2.38,2.76L122,156.34l1,2.6h12.37v2.81Z" style="fill: url(#未命名漸層_9)"/>
          <path d="M141,172.44c3.29-1.48,3.83-2.53,4.21-4.3v-5.88c0-.22-.13-.32-.35-.32H142v-2.69h5.25c.48,0,.7.23.7.67v7.5a4.21,4.21,0,0,0,1,2.05c1.27,1.8,3.8,2.37,6.39,2.37,4.4,0,11.61-.28,14.81-.44l-.73,3-13.73-.07q-6.6,0-8.83-3.89a9.29,9.29,0,0,1-4.42,4.37Zm5.57-15.18a26.93,26.93,0,0,0-4.84-3.16l1.42-2.31a25.08,25.08,0,0,1,5,3.23Zm.63-6.2a28.17,28.17,0,0,0-4.84-3.13l1.43-2.31a26.18,26.18,0,0,1,5,3.23Zm6.68,5.09-.26,2.41a28.41,28.41,0,0,1-2.78,10l-2.56-.56a30.92,30.92,0,0,0,3.35-14.71v-2.47h-2.18v-2.47h3.73v-2.88h2.56v2.88H159v2.47h-5v2.85h4.53c.41,0,.63.22.63.57-.16,8-.66,12.9-1.39,14.55a2.17,2.17,0,0,1-2.37,1.36,11.12,11.12,0,0,1-3.1-.54l.22-2.47a11.49,11.49,0,0,0,2.59.54c.25,0,.57,0,.76-.63.44-1.3.76-4.91.92-10.82,0-.06-.1-.1-.32-.1Zm8.44-5.82a13.1,13.1,0,0,1-2.18,3.48l-2-1.42a13.2,13.2,0,0,0,3-7l2.4.22-.38,2.25h7.25v2.43Zm5.44,12.25a10.55,10.55,0,0,1,.6,3.28c0,2.06-1.2,4.78-4.11,4.78a8.38,8.38,0,0,1-4.08-1.36l.51-2.56a6.13,6.13,0,0,0,3.29,1.33,2,2,0,0,0,2-1.81,10,10,0,0,0-.66-3.66h-5.22v-2.44H164l-.95-1.2c-.32-.35-.35-.38-.35-.51a.46.46,0,0,1,.1-.28l3-3.2v-.16l-.16-.06h-4.14v-2.34h7.21l1.24,1.33-4.05,4.36a.53.53,0,0,0-.16.41.76.76,0,0,0,.25.54l.67,1.11h3.79v2.44Z" style="fill: url(#未命名漸層_9)"/>
          <path d="M185.35,156.44h-3.22l-.38.85c-.79,1.3-2.44,2.12-4.84,2.38l-.73-2.06a5.46,5.46,0,0,0,3.7-1.17h-3.8v-2.06h6.27v-1h-4.9v-1.83h4.9v-1h2.43v1h4.56v1.83h-4.56v1h5.57v2.06l.7.25a4.57,4.57,0,0,1-.64,2.34,1.93,1.93,0,0,1-1.17.38h-3c-.6,0-.92-.35-.92-.88Zm-3.13,6.67v-1.23h-4.87v-1.8h4.87v-2h2.44v2H189v1.8h-4.33V163l5.12-.32.13,2.18-13.41.82-.32-2.15ZM194.81,149H186.4v1.11H184V149h-7.75v-2.43H184v-1h2.44v1h8.41v-1h2.44v1h7.56V149h-7.56v1.11h-2.44Zm5.79,24.8-22.9,1.14-.51-2.15,5.19-.22,1.33-1.93h-7.37V168.4h28v2.21h-3.92c1.26.92,2.37,1.77,3.35,2.62L202.09,175Zm-18.19-8.16h16.83v1.84H182.41Zm15.56,6.2-1.77-1.2h-9.93l-1.11,1.8Zm-9-14.2c.16,0,.19-.29.32-1.17h-2.12c0,.95,0,1.14.57,1.17Zm6.42,3.64a11,11,0,0,1-2.94,3.7l-1.77-1.39a9.36,9.36,0,0,0,3-3.8L191.49,158l1.45-1.61,1.46,1.2.16-.76.19-2h-2.88v-2.21h2.94v-1.77H197v1.77h3.55c.54,0,.76.28.76.82v8.38c0,.64.15.7.88,1.08.38,0,.89,0,.89-.85V159.7l2.18.38a19.8,19.8,0,0,1-.28,3.19,2.43,2.43,0,0,1-2.47,1.77h-1.05a2.54,2.54,0,0,1-2.34-2.56v-7.27c0-.26-.09-.42-.31-.42H197a19.86,19.86,0,0,1-.76,4.31l2.56,2.43L197.21,163Z" style="fill: url(#未命名漸層_9)"/>
        </g>
      </g>
      <g>
        <path d="M108.59,130.35a6,6,0,0,1-4,3.09,6.13,6.13,0,0,1-5.11-.72,4.26,4.26,0,0,1-1.57-2.18l-.22-.63c0-.23-.07-.45-.11-.68l0-.34,0-.35a4.29,4.29,0,0,1,1.35-3.09,9.35,9.35,0,0,1,2.13-1.63,18.23,18.23,0,0,1,10.22-2,45.52,45.52,0,0,1,10.14,2.3c1.64.52,3.27,1,4.92,1.49a16,16,0,0,0,5,.61,13.53,13.53,0,0,0,4.86-1,5.55,5.55,0,0,0,3.23-3.34,11.19,11.19,0,0,0,.23-1.18c0-.41,0-.82,0-1.23a4.3,4.3,0,0,0-.89-2.19,5.7,5.7,0,0,0-4.18-2.26,4.17,4.17,0,0,0-4,2.39,3.48,3.48,0,0,0-.42,2.42,2.65,2.65,0,0,0,1.62,1.83,2.71,2.71,0,0,1-1.76-1.8,3.65,3.65,0,0,1,.32-2.57,5.32,5.32,0,0,1,1.69-2,4.17,4.17,0,0,1,2.56-.74A6.27,6.27,0,0,1,139.2,117a5.07,5.07,0,0,1,1.08,2.5c0,.45.06.9.06,1.35a9,9,0,0,1-.22,1.36,6.2,6.2,0,0,1-3.62,3.91,14.08,14.08,0,0,1-5.18,1.08,16.86,16.86,0,0,1-5.24-.59c-1.68-.44-3.33-1-5-1.46a44.78,44.78,0,0,0-9.91-2.35,20.16,20.16,0,0,0-5,.18,17.22,17.22,0,0,0-4.75,1.57,8.65,8.65,0,0,0-2,1.44,4.51,4.51,0,0,0-1.18,2,5.6,5.6,0,0,0-.07.59l0,.29,0,.3c0,.2,0,.4.07.6l.19.59a3.8,3.8,0,0,0,1.34,2,5.71,5.71,0,0,0,4.74.85,6.4,6.4,0,0,0,2.33-1A5.2,5.2,0,0,0,108.59,130.35Z" style="fill: url(#未命名漸層_9-5)"/>
        <path d="M171.41,130.35a5.2,5.2,0,0,0,1.73,1.85,6.4,6.4,0,0,0,2.33,1,5.71,5.71,0,0,0,4.74-.85,3.8,3.8,0,0,0,1.34-2l.19-.59c0-.2,0-.4.07-.6l0-.3,0-.29a5.6,5.6,0,0,0-.07-.59,4.51,4.51,0,0,0-1.18-2,8.65,8.65,0,0,0-2-1.44,17.22,17.22,0,0,0-4.75-1.57,20.16,20.16,0,0,0-5-.18,44.78,44.78,0,0,0-9.91,2.35c-1.64.51-3.29,1-5,1.46a16.82,16.82,0,0,1-5.24.59,14.08,14.08,0,0,1-5.18-1.08,6.2,6.2,0,0,1-3.62-3.91,9,9,0,0,1-.22-1.36c0-.45,0-.9.06-1.35a5.07,5.07,0,0,1,1.08-2.5,6.27,6.27,0,0,1,4.68-2.36,4.17,4.17,0,0,1,2.56.74,5.32,5.32,0,0,1,1.69,2,3.65,3.65,0,0,1,.32,2.57,2.71,2.71,0,0,1-1.76,1.8,2.65,2.65,0,0,0,1.62-1.83,3.48,3.48,0,0,0-.42-2.42,4.17,4.17,0,0,0-4-2.39,5.7,5.7,0,0,0-4.18,2.26,4.3,4.3,0,0,0-.89,2.19c0,.41,0,.82,0,1.23a11.19,11.19,0,0,0,.23,1.18,5.55,5.55,0,0,0,3.23,3.34,13.53,13.53,0,0,0,4.86,1,16,16,0,0,0,5-.61c1.65-.44,3.28-1,4.92-1.49a45.52,45.52,0,0,1,10.14-2.3,18.23,18.23,0,0,1,10.22,2,9.35,9.35,0,0,1,2.13,1.63,4.29,4.29,0,0,1,1.35,3.09l0,.35,0,.34c0,.23-.06.45-.11.68l-.22.63a4.26,4.26,0,0,1-1.57,2.18,6.13,6.13,0,0,1-5.11.72A6,6,0,0,1,171.41,130.35Z" style="fill: url(#未命名漸層_9-6)"/>
      </g>
      <polygon points="0 186.11 35 185.75 70 185.54 140 185.37 210 185.54 245 185.75 280 186.11 245 186.47 210 186.68 140 186.85 70 186.68 35 186.47 0 186.11" style="fill: url(#未命名漸層_9-7)"/>
      <g>
        <g>
          <path d="M103,191.43l-1.07.16c-.7.1-1.7.26-2.92.5-2.47.45-5.83,1.24-9.54,1.9-.93.18-1.84.3-2.72.44s-1.71.21-2.52.25a39.31,39.31,0,0,1-4.34,0c-.62,0-1.18-.08-1.67-.12L77,194.42l-1.07-.18,1,.35c.33.1.75.2,1.23.32s1,.22,1.67.33a30.36,30.36,0,0,0,4.42.37,23.93,23.93,0,0,0,2.63-.14c.9-.11,1.84-.22,2.78-.4a81.35,81.35,0,0,0,9.48-2.45Z" style="fill: url(#未命名漸層_9-8)"/>
          <path d="M135.86,205.63a8.65,8.65,0,0,1-1.08,2.1,8.33,8.33,0,0,1-1.38,1.54,9.67,9.67,0,0,1-1.53,1.12l-.41.23-.21.11-.22.1a4,4,0,0,1-.43.19l-.23.09-.22.07a9.58,9.58,0,0,1-1.8.42,12,12,0,0,1-1.79.09,13.56,13.56,0,0,1-3.4-.52,12.29,12.29,0,0,1-1.58-.55c-.25-.1-.5-.22-.74-.34l-.36-.19-.36-.19-.35-.21-.33-.21-.17-.11-.16-.12-.32-.23-.31-.25-.16-.12-.14-.14-.29-.26-.28-.27a3.58,3.58,0,0,1-.26-.29l-.25-.29a6.5,6.5,0,0,1-.46-.61,8,8,0,0,1-.74-1.3c-.05-.12-.1-.23-.14-.35l-.07-.17-.06-.17-.11-.35c0-.12,0-.23-.08-.35l0-.18,0-.17-.05-.36,0-.35v-.35c0-.12,0-.23,0-.35l0-.34,0-.17,0-.16q0-.18.06-.33l.09-.33a.83.83,0,0,1,0-.15l0-.16c0-.1.08-.2.11-.3s.09-.2.13-.29a1,1,0,0,0,.07-.15l.07-.14.15-.27.17-.26.08-.12.09-.13.18-.23.2-.22a5.18,5.18,0,0,1,.4-.41,5.6,5.6,0,0,1,1.8-1.12,5.26,5.26,0,0,1,1.8-.37,5,5,0,0,1,1.51.19l.16.05.16,0,.29.11.5.25.41.25.12.09a2.09,2.09,0,1,1-1.07,0l-.15,0-.27-.06-.14,0-.15,0a4.8,4.8,0,0,0-1.32,0,4.65,4.65,0,0,0-1.5.42,5.11,5.11,0,0,0-1.44,1c-.1.12-.22.23-.31.36l-.15.19c-.05.07-.1.14-.14.21a.36.36,0,0,0-.07.1l-.06.11-.13.22c0,.07-.07.15-.11.23l-.06.11s0,.08,0,.12l-.1.24-.08.26,0,.12a.79.79,0,0,0,0,.13l-.06.26,0,.27,0,.14v1l0,.28.06.29s0,.09,0,.14l0,.14c0,.09,0,.19.08.28s.07.19.1.29l0,.14.06.14.13.27a8.68,8.68,0,0,0,3.73,3.69l.32.16.33.16.67.29a10.6,10.6,0,0,0,1.41.47,12.65,12.65,0,0,0,3,.43,10,10,0,0,0,1.54-.1,8.5,8.5,0,0,0,1.51-.35l.18-.06.18-.08a2.17,2.17,0,0,0,.35-.15l.18-.08.17-.09.35-.2a8.43,8.43,0,0,0,1.28-.94,7.36,7.36,0,0,0,1.14-1.26,6.89,6.89,0,0,0,.88-1.71,7.75,7.75,0,0,0,.42-2.1,5.42,5.42,0,0,0,0-.57c0-.2,0-.39,0-.59a10.24,10.24,0,0,0-.18-1.2,9.26,9.26,0,0,0-.34-1.22,10.5,10.5,0,0,0-.52-1.21A9.87,9.87,0,0,0,133,197c-.13-.19-.26-.38-.41-.56l-.21-.28c-.08-.09-.16-.17-.23-.26s-.16-.18-.24-.27a3.07,3.07,0,0,1-.25-.26l-.54-.51a3.45,3.45,0,0,0-.28-.26l-.28-.25-.29-.25a3.47,3.47,0,0,0-.29-.25l-.6-.48-.63-.45a6,6,0,0,0-.65-.42l-.33-.21-.34-.19-.35-.19a3.9,3.9,0,0,0-.35-.19l-.72-.34-.74-.31-.38-.14-.39-.13a25,25,0,0,0-3.23-.85l-.84-.15-.42-.08-.42-.06-.86-.13-.86-.11-.87-.1-.87-.1-.87-.07-.43,0-.44,0-.88,0h-.87c-.59,0-1.18,0-1.76,0l-.88,0c-.3,0-.59,0-.89.07-.58,0-1.17.1-1.76.17-1.17.13-2.34.3-3.5.48l-3.46.61-3.41.66-3.34.63c-2.19.41-4.32.84-6.39,1.15-1,.16-2.05.28-3,.36s-2,.12-2.92.12a20.14,20.14,0,0,1-5.22-.71,12.41,12.41,0,0,1-2.17-.85,5.66,5.66,0,0,1-1.66-1.28,3.07,3.07,0,0,1-.75-1.68c0-.08,0-.15,0-.22v-.2a2.58,2.58,0,0,1,0-.4,3.18,3.18,0,0,1,.21-.72,2.75,2.75,0,0,1,.73-1,1.56,1.56,0,0,1,.84-.36,1.48,1.48,0,0,1,.55.08l.13.06s0,0,0,0l-.18-.05a1.37,1.37,0,0,0-.53,0,1.5,1.5,0,0,0-.77.38,2.61,2.61,0,0,0-.65,1,3,3,0,0,0-.17.68c0,.12,0,.24,0,.37s0,.13,0,.19l0,.2a2.9,2.9,0,0,0,.74,1.52,5.41,5.41,0,0,0,1.6,1.16,11.49,11.49,0,0,0,2.12.76,20,20,0,0,0,5.11.57c.93,0,1.88-.08,2.86-.18s2-.25,3-.43c2-.35,4.15-.82,6.34-1.28l3.33-.7,3.4-.72c1.14-.24,2.3-.46,3.47-.68s2.35-.4,3.54-.55c.6-.09,1.2-.14,1.79-.21.3,0,.6,0,.9-.08l.91-.06c.6,0,1.2-.07,1.81-.07h.9l.91,0,.45,0,.45,0,.9.06.89.08.88.09.89.1.87.12.44.06.44.07.87.14a27.83,27.83,0,0,1,3.41.84l.41.14c.14,0,.28.09.41.15l.81.32.79.36a2.69,2.69,0,0,1,.38.19l.38.2.38.2.36.23c.24.14.48.29.71.45l.69.48.65.5a3.88,3.88,0,0,1,.31.26l.31.26.31.27c.1.08.19.18.29.27l.58.54a3.83,3.83,0,0,1,.28.29,3.83,3.83,0,0,1,.28.29l.27.3.25.32c.17.2.31.42.47.63a11.93,11.93,0,0,1,.79,1.33,12.89,12.89,0,0,1,.61,1.38,12.48,12.48,0,0,1,.41,1.41A9.79,9.79,0,0,1,135.86,205.63Z" style="fill: url(#未命名漸層_9-9)"/>
        </g>
        <g>
          <path d="M177,191.43l1.07.16c.7.1,1.7.26,2.92.5,2.47.45,5.83,1.24,9.54,1.9.93.18,1.84.3,2.72.44s1.71.21,2.52.25a39.31,39.31,0,0,0,4.34,0c.62,0,1.18-.08,1.67-.12l1.26-.15,1.07-.18-1,.35c-.33.1-.75.2-1.23.32s-1,.22-1.67.33a30.36,30.36,0,0,1-4.42.37,23.93,23.93,0,0,1-2.63-.14c-.9-.11-1.84-.22-2.78-.4a81.35,81.35,0,0,1-9.48-2.45Z" style="fill: url(#未命名漸層_9-10)"/>
          <path d="M144.14,205.63a8.65,8.65,0,0,0,1.08,2.1,8.33,8.33,0,0,0,1.38,1.54,9.67,9.67,0,0,0,1.53,1.12l.41.23.21.11.22.1a4,4,0,0,0,.43.19l.23.09.22.07a9.58,9.58,0,0,0,1.8.42,12,12,0,0,0,1.79.09,13.56,13.56,0,0,0,3.4-.52,12.29,12.29,0,0,0,1.58-.55c.25-.1.5-.22.74-.34l.36-.19.36-.19.35-.21.33-.21.17-.11.16-.12.33-.23.3-.25.16-.12.14-.14.29-.26.28-.27a3.58,3.58,0,0,0,.26-.29l.25-.29a6.5,6.5,0,0,0,.46-.61,8,8,0,0,0,.74-1.3c.05-.12.1-.23.14-.35l.07-.17.06-.17c0-.12.07-.23.11-.35s.05-.23.08-.35l0-.18,0-.17.05-.36,0-.35v-.7l0-.34,0-.17,0-.16q0-.18-.06-.33l-.09-.33a.83.83,0,0,0,0-.15l-.05-.16c0-.1-.08-.2-.11-.3l-.13-.29a1,1,0,0,1-.07-.15l-.07-.14-.15-.27-.17-.26-.08-.12-.09-.13-.18-.23-.2-.22a5.18,5.18,0,0,0-.4-.41,5.6,5.6,0,0,0-1.8-1.12,5.26,5.26,0,0,0-1.8-.37,5,5,0,0,0-1.51.19l-.16.05-.16,0-.29.11-.5.25-.41.25-.12.09a2.09,2.09,0,1,0,1.07,0l.15,0,.27-.06.14,0,.15,0a4.8,4.8,0,0,1,1.32,0,4.65,4.65,0,0,1,1.5.42,5.11,5.11,0,0,1,1.44,1c.1.12.22.23.31.36l.15.19.14.21a.36.36,0,0,1,.07.1l.06.11.13.22.11.23.06.11s0,.08,0,.12l.1.24.08.26,0,.12a.79.79,0,0,1,0,.13l.06.26,0,.27,0,.14v1l0,.28-.06.29s0,.09,0,.14l0,.14-.08.28-.1.29,0,.14-.06.14-.13.27a8.68,8.68,0,0,1-3.73,3.69l-.32.16-.33.16-.67.29a10.6,10.6,0,0,1-1.41.47,12.65,12.65,0,0,1-3,.43,10,10,0,0,1-1.54-.1,8.5,8.5,0,0,1-1.51-.35l-.18-.06-.18-.08a2.17,2.17,0,0,1-.35-.15l-.18-.08-.17-.09L149,209a8.43,8.43,0,0,1-1.28-.94,7.36,7.36,0,0,1-1.14-1.26,6.89,6.89,0,0,1-.88-1.71,7.75,7.75,0,0,1-.42-2.1,5.42,5.42,0,0,1,0-.57c0-.2,0-.39,0-.59a10.24,10.24,0,0,1,.18-1.2,9.26,9.26,0,0,1,.34-1.22,10.5,10.5,0,0,1,.52-1.21A9.87,9.87,0,0,1,147,197c.13-.19.26-.38.41-.56l.21-.28c.08-.09.16-.17.23-.26s.16-.18.24-.27a3.07,3.07,0,0,0,.25-.26l.54-.51a3.45,3.45,0,0,1,.28-.26l.28-.25.29-.25a3.47,3.47,0,0,1,.29-.25l.6-.48.63-.45a6,6,0,0,1,.65-.42l.33-.21.34-.19.35-.19a3.9,3.9,0,0,1,.35-.19l.72-.34.74-.31.38-.14.39-.13a25,25,0,0,1,3.23-.85l.84-.15.42-.08.42-.06.86-.13.86-.11.87-.1.87-.1.87-.07.43,0,.44,0,.88,0h.87c.59,0,1.18,0,1.76,0l.89,0c.29,0,.58,0,.88.07.58,0,1.17.1,1.76.17,1.17.13,2.34.3,3.5.48l3.46.61,3.41.66,3.34.63c2.19.41,4.32.84,6.39,1.15,1,.16,2,.28,3,.36s2,.12,2.92.12a20.14,20.14,0,0,0,5.22-.71,12.41,12.41,0,0,0,2.17-.85,5.66,5.66,0,0,0,1.66-1.28,3.07,3.07,0,0,0,.75-1.68l0-.22v-.2a2.58,2.58,0,0,0,0-.4,3.18,3.18,0,0,0-.21-.72,2.75,2.75,0,0,0-.73-1,1.56,1.56,0,0,0-.84-.36,1.48,1.48,0,0,0-.55.08l-.13.06s0,0,0,0l.18-.05a1.37,1.37,0,0,1,.53,0,1.5,1.5,0,0,1,.77.38,2.61,2.61,0,0,1,.65,1,3,3,0,0,1,.17.68c0,.12,0,.24,0,.37s0,.13,0,.19l0,.2a2.9,2.9,0,0,1-.74,1.52,5.41,5.41,0,0,1-1.6,1.16,11.49,11.49,0,0,1-2.12.76,20,20,0,0,1-5.11.57c-.93,0-1.88-.08-2.86-.18s-2-.25-3-.43c-2-.35-4.15-.82-6.34-1.28l-3.33-.7-3.4-.72c-1.14-.24-2.3-.46-3.47-.68s-2.35-.4-3.54-.55c-.6-.09-1.2-.14-1.79-.21-.3,0-.6,0-.9-.08l-.91-.06c-.6,0-1.2-.07-1.81-.07h-.9l-.91,0-.45,0-.45,0-.9.06-.89.08-.88.09-.89.1-.87.12-.44.06-.44.07-.87.14a27.83,27.83,0,0,0-3.41.84l-.41.14c-.14,0-.28.09-.41.15l-.81.32-.79.36a2.69,2.69,0,0,0-.38.19l-.38.2-.38.2-.36.23c-.24.14-.48.29-.71.45l-.69.48-.65.5a3.88,3.88,0,0,0-.31.26l-.31.26-.31.27c-.1.08-.19.18-.29.27l-.58.54a3.83,3.83,0,0,0-.28.29,3.83,3.83,0,0,0-.28.29l-.27.3-.25.32c-.17.2-.31.42-.47.63a11.93,11.93,0,0,0-.79,1.33,12.89,12.89,0,0,0-.61,1.38,12.48,12.48,0,0,0-.41,1.41A9.79,9.79,0,0,0,144.14,205.63Z" style="fill: url(#未命名漸層_9-11)"/>
        </g>
        <path d="M140.06,229c.41-.92.66-1.47.89-2a13.4,13.4,0,0,0,.17-9.83c-.68-2-.74-4.23-1.32-6.38-.33,1.95-.65,3.9-1,5.85a7.84,7.84,0,0,1-.52,2.41c-1.71,3.12.27,5.84.81,8.71C139.16,228.06,139.52,228.31,140.06,229Z" style="fill: url(#未命名漸層_9-12)"/>
        <path d="M134.23,221.19A19,19,0,0,0,137.77,208a15.57,15.57,0,0,1-3.58,9.73c-.64.74-.35,2.27-.49,3.44Z" style="fill: url(#未命名漸層_9-13)"/>
        <path d="M142,208.89a20.24,20.24,0,0,0,3.8,12.29l.52-.09c-.16-1.16.08-2.64-.55-3.43a15.15,15.15,0,0,1-3.38-8.12C142.36,209.37,142.19,209.22,142,208.89Z" style="fill: url(#未命名漸層_9-14)"/>
      </g>
      <g>
        <path d="M209.86,86.43S204.51,49.54,203.68,45c-3.09-16.88-12.32-28.27-27.81-29.08v-.07H104.81v.07C89.33,16.74,80.1,25.06,77,45c-.71,4.55-6.18,41.42-6.18,41.42l.07,0c0,.5-.07,1-.07,1.51a20.1,20.1,0,0,0,37,10.71l.07,0,11.28-18.52a6.17,6.17,0,0,1,5.27-3h31.78a6.16,6.16,0,0,1,5.27,3l11.28,18.52.08,0a20.1,20.1,0,0,0,37-10.71c0-.51,0-1-.08-1.51ZM169.41,28.78A6.46,6.46,0,1,1,163,35.24,6.46,6.46,0,0,1,169.41,28.78ZM121,54.62h-3.23v3.23a6.46,6.46,0,0,1-12.92,0V54.62h-3.23a6.46,6.46,0,1,1,0-12.92h3.23V38.47a6.46,6.46,0,0,1,12.92,0V41.7H121a6.46,6.46,0,1,1,0,12.92Zm35.53,0A6.46,6.46,0,1,1,163,48.16,6.47,6.47,0,0,1,156.49,54.62Zm12.92,12.92a6.46,6.46,0,1,1,6.46-6.46A6.46,6.46,0,0,1,169.41,67.54Zm12.92-12.92a6.46,6.46,0,1,1,6.46-6.46A6.47,6.47,0,0,1,182.33,54.62Z" style="fill: url(#未命名漸層_9-15)"/>
        <path d="M122.58,0H106.43a4,4,0,0,0,0,8.08h16.15a4,4,0,1,0,0-8.08Zm51.68,0H158.11a4,4,0,0,0,0,8.08h16.15a4,4,0,1,0,0-8.08Z" style="fill: url(#未命名漸層_9-16)"/>
      </g>
    </g>
  </g>
</svg>
