<?xml version="1.0" encoding="utf-8"?>
<!-- Generator: Adobe Illustrator 23.0.3, SVG Export Plug-In . SVG Version: 6.00 Build 0)  -->
<svg version="1.1" id="圖層_1" xmlns="http://www.w3.org/2000/svg" xmlns:xlink="http://www.w3.org/1999/xlink" x="0px" y="0px"
	 width="241px" height="341px" viewBox="0 0 241 341" style="enable-background:new 0 0 241 341;" xml:space="preserve">
<style type="text/css">
	.st0{fill:url(#SVGID_1_);stroke:#FFFFFF;stroke-miterlimit:10;}
	.st1{fill:#BA0000;}
</style>
<g>
	<linearGradient id="SVGID_1_" gradientUnits="userSpaceOnUse" x1="45.3122" y1="23.4588" x2="204.8946" y2="335.5465">
		<stop  offset="0" style="stop-color:#EDEDED"/>
		<stop  offset="1" style="stop-color:#EAE7DE"/>
	</linearGradient>
	<path class="st0" d="M230.5,340.5h-220c-5.5,0-10-4.5-10-10v-320c0-5.5,4.5-10,10-10h220c5.5,0,10,4.5,10,10v320
		C240.5,336,236,340.5,230.5,340.5z"/>
	<g>
		<g>
			<g id="XMLID_2296_">
				<path id="XMLID_2297_" class="st1" d="M19.6,27.6l-2.2,6.4l-3.1,0l7.2-20.2l3.5,0l8.3,20.2l-3,0l-2.5-6.4L19.6,27.6z M27,25.5
					l-2.4-5.8c-0.5-1.2-0.9-2.5-1.3-3.7c-0.4,1.2-0.7,2.4-1.1,3.7l-2.1,5.8L27,25.5z"/>
			</g>
			<path id="XMLID_2301_" class="st1" d="M23.7,62.3l-0.6-0.9c-2.5-3.3-5.2-6.3-8.3-9L14,51.8l0.8-0.7c3-2.7,5.8-5.7,8.2-9l0.6-0.9
				l0.6,0.9c2.5,3.3,5.2,6.3,8.3,9l0.8,0.7l-0.8,0.7c-3,2.7-5.8,5.7-8.2,9L23.7,62.3z"/>
		</g>
		<g>
			<g id="XMLID_2302_">
				<path id="XMLID_2303_" class="st1" d="M213.2,27.6l-2.2,6.4l-3.1,0l7.2-20.2l3.5,0l8.3,20.2l-3,0l-2.5-6.4L213.2,27.6z
					 M220.6,25.5l-2.4-5.8c-0.5-1.2-0.9-2.5-1.3-3.7c-0.4,1.2-0.7,2.4-1.1,3.7l-2.1,5.8L220.6,25.5z"/>
			</g>
			<path id="XMLID_2295_" class="st1" d="M217.3,62.3l-0.6-0.9c-2.5-3.3-5.2-6.3-8.3-9l-0.8-0.7l0.8-0.7c3-2.7,5.8-5.7,8.2-9
				l0.6-0.9l0.6,0.9c2.5,3.3,5.2,6.3,8.3,9l0.8,0.7l-0.8,0.7c-3,2.7-5.8,5.7-8.2,9L217.3,62.3z"/>
		</g>
		<g>
			<g id="XMLID_2307_">
				<path id="XMLID_2308_" class="st1" d="M221.4,313.4l2.2-6.4l3.1,0l-7.2,20.2l-3.5,0l-8.3-20.2l3,0l2.5,6.4L221.4,313.4z
					 M214.1,315.5l2.4,5.8c0.5,1.2,0.9,2.5,1.3,3.7c0.4-1.2,0.7-2.4,1.1-3.7l2.1-5.8L214.1,315.5z"/>
			</g>
			<path id="XMLID_2306_" class="st1" d="M217.3,278.7l0.6,0.9c2.5,3.3,5.2,6.3,8.3,9l0.8,0.7l-0.8,0.7c-3,2.7-5.8,5.7-8.2,9
				l-0.6,0.9l-0.6-0.9c-2.5-3.3-5.2-6.3-8.3-9l-0.8-0.7l0.8-0.7c3-2.7,5.8-5.7,8.2-9L217.3,278.7z"/>
		</g>
		<g>
			<g id="XMLID_2287_">
				<path id="XMLID_2288_" class="st1" d="M27.8,313.4l2.2-6.4l3.1,0L26,327.3l-3.5,0l-8.3-20.2l3,0l2.5,6.4L27.8,313.4z
					 M20.4,315.5l2.4,5.8c0.5,1.2,0.9,2.5,1.3,3.7c0.4-1.2,0.7-2.4,1.1-3.7l2.1-5.8L20.4,315.5z"/>
			</g>
			<path id="XMLID_2282_" class="st1" d="M23.7,278.7l0.6,0.9c2.5,3.3,5.2,6.3,8.3,9l0.8,0.7l-0.8,0.7c-3,2.7-5.8,5.7-8.2,9
				l-0.6,0.9l-0.6-0.9c-2.5-3.3-5.2-6.3-8.3-9l-0.8-0.7l0.8-0.7c3-2.7,5.8-5.7,8.2-9L23.7,278.7z"/>
		</g>
		<path id="XMLID_2300_" class="st1" d="M120.6,195l-2.3-3.1c-8.9-11.8-18.8-22.6-29.7-32.2l-2.8-2.5l2.8-2.5
			c10.8-9.7,20.7-20.5,29.5-32.4l2.3-3.1l2.3,3.1c8.9,11.8,18.8,22.6,29.7,32.2l2.8,2.5l-2.8,2.5c-10.8,9.7-20.7,20.5-29.5,32.4
			L120.6,195z"/>
	</g>
</g>
</svg>
