<svg xmlns="http://www.w3.org/2000/svg" xmlns:xlink="http://www.w3.org/1999/xlink" viewBox="0 0 66.83 44.05">
  <defs>
    <linearGradient id="未命名漸層_9" data-name="未命名漸層 9" y1="28.31" x2="66.83" y2="28.31" gradientUnits="userSpaceOnUse">
      <stop offset="0.41" stop-color="#ffffc3"/>
      <stop offset="0.56" stop-color="#f8eda3"/>
      <stop offset="0.74" stop-color="#f2db85"/>
      <stop offset="0.84" stop-color="#f0d57a"/>
      <stop offset="0.88" stop-color="#eed278"/>
      <stop offset="0.92" stop-color="#e8c774"/>
      <stop offset="0.96" stop-color="#dfb66c"/>
      <stop offset="0.99" stop-color="#d29e61"/>
      <stop offset="1" stop-color="#cc945c"/>
    </linearGradient>
    <linearGradient id="未命名漸層_9-2" x1="19.93" y1="25.68" x2="42.87" y2="25.68" xlink:href="#未命名漸層_9"/>
    <linearGradient id="未命名漸層_9-3" x1="21.05" y1="36.27" x2="44" y2="36.27" xlink:href="#未命名漸層_9"/>
    <linearGradient id="未命名漸層_9-4" x1="6.09" y1="40.91" x2="6.52" y2="40.91" xlink:href="#未命名漸層_9"/>
    <linearGradient id="未命名漸層_9-5" x1="6.91" y1="40.91" x2="7.67" y2="40.91" xlink:href="#未命名漸層_9"/>
    <linearGradient id="未命名漸層_9-6" x1="7.83" y1="40.91" x2="8.59" y2="40.91" xlink:href="#未命名漸層_9"/>
    <linearGradient id="未命名漸層_9-7" x1="8.85" y1="40.91" x2="9.29" y2="40.91" xlink:href="#未命名漸層_9"/>
    <linearGradient id="未命名漸層_9-8" x1="9.77" y1="40.91" x2="10.21" y2="40.91" xlink:href="#未命名漸層_9"/>
    <linearGradient id="未命名漸層_9-9" x1="10.6" y1="40.91" x2="11.35" y2="40.91" xlink:href="#未命名漸層_9"/>
    <linearGradient id="未命名漸層_9-10" x1="11.61" y1="40.91" x2="12.05" y2="40.91" xlink:href="#未命名漸層_9"/>
    <linearGradient id="未命名漸層_9-11" x1="12.44" y1="40.91" x2="13.19" y2="40.91" xlink:href="#未命名漸層_9"/>
    <linearGradient id="未命名漸層_9-12" x1="13.46" y1="40.91" x2="13.89" y2="40.91" xlink:href="#未命名漸層_9"/>
    <linearGradient id="未命名漸層_9-13" x1="14.28" y1="40.91" x2="15.03" y2="40.91" xlink:href="#未命名漸層_9"/>
    <linearGradient id="未命名漸層_9-14" x1="15.3" y1="40.91" x2="15.73" y2="40.91" xlink:href="#未命名漸層_9"/>
    <linearGradient id="未命名漸層_9-15" x1="16.12" y1="40.91" x2="16.87" y2="40.91" xlink:href="#未命名漸層_9"/>
    <linearGradient id="未命名漸層_9-16" x1="17.14" y1="40.91" x2="17.57" y2="40.91" xlink:href="#未命名漸層_9"/>
    <linearGradient id="未命名漸層_9-17" x1="17.96" y1="40.91" x2="18.71" y2="40.91" xlink:href="#未命名漸層_9"/>
    <linearGradient id="未命名漸層_9-18" x1="18.98" y1="40.91" x2="19.41" y2="40.91" xlink:href="#未命名漸層_9"/>
    <linearGradient id="未命名漸層_9-19" x1="19.8" y1="40.91" x2="20.55" y2="40.91" xlink:href="#未命名漸層_9"/>
    <linearGradient id="未命名漸層_9-20" x1="20.72" y1="40.91" x2="21.47" y2="40.91" xlink:href="#未命名漸層_9"/>
    <linearGradient id="未命名漸層_9-21" x1="21.74" y1="40.91" x2="22.17" y2="40.91" xlink:href="#未命名漸層_9"/>
    <linearGradient id="未命名漸層_9-22" x1="22.56" y1="40.91" x2="23.31" y2="40.91" xlink:href="#未命名漸層_9"/>
    <linearGradient id="未命名漸層_9-23" x1="23.58" y1="40.91" x2="24.01" y2="40.91" xlink:href="#未命名漸層_9"/>
    <linearGradient id="未命名漸層_9-24" x1="24.5" y1="40.91" x2="24.93" y2="40.91" xlink:href="#未命名漸層_9"/>
    <linearGradient id="未命名漸層_9-25" x1="25.32" y1="40.91" x2="26.07" y2="40.91" xlink:href="#未命名漸層_9"/>
    <linearGradient id="未命名漸層_9-26" x1="26.34" y1="40.91" x2="26.78" y2="40.91" xlink:href="#未命名漸層_9"/>
    <linearGradient id="未命名漸層_9-27" x1="27.16" y1="40.91" x2="27.92" y2="40.91" xlink:href="#未命名漸層_9"/>
    <linearGradient id="未命名漸層_9-28" x1="28.18" y1="40.91" x2="28.62" y2="40.91" xlink:href="#未命名漸層_9"/>
    <linearGradient id="未命名漸層_9-29" x1="37.59" y1="40.91" x2="38.34" y2="40.91" xlink:href="#未命名漸層_9"/>
    <linearGradient id="未命名漸層_9-30" x1="38.61" y1="40.91" x2="39.04" y2="40.91" xlink:href="#未命名漸層_9"/>
    <linearGradient id="未命名漸層_9-31" x1="39.53" y1="40.91" x2="39.97" y2="40.91" xlink:href="#未命名漸層_9"/>
    <linearGradient id="未命名漸層_9-32" x1="40.45" y1="40.91" x2="40.89" y2="40.91" xlink:href="#未命名漸層_9"/>
    <linearGradient id="未命名漸層_9-33" x1="41.27" y1="40.91" x2="42.03" y2="40.91" xlink:href="#未命名漸層_9"/>
    <linearGradient id="未命名漸層_9-34" x1="42.29" y1="40.91" x2="42.73" y2="40.91" xlink:href="#未命名漸層_9"/>
    <linearGradient id="未命名漸層_9-35" x1="43.12" y1="40.91" x2="43.87" y2="40.91" xlink:href="#未命名漸層_9"/>
    <linearGradient id="未命名漸層_9-36" x1="44.13" y1="40.91" x2="44.57" y2="40.91" xlink:href="#未命名漸層_9"/>
    <linearGradient id="未命名漸層_9-37" x1="45.05" y1="40.91" x2="45.49" y2="40.91" xlink:href="#未命名漸層_9"/>
    <linearGradient id="未命名漸層_9-38" x1="45.98" y1="40.91" x2="46.41" y2="40.91" xlink:href="#未命名漸層_9"/>
    <linearGradient id="未命名漸層_9-39" x1="46.9" y1="40.91" x2="47.33" y2="40.91" xlink:href="#未命名漸層_9"/>
    <linearGradient id="未命名漸層_9-40" x1="47.72" y1="40.91" x2="48.47" y2="40.91" xlink:href="#未命名漸層_9"/>
    <linearGradient id="未命名漸層_9-41" x1="48.74" y1="40.91" x2="49.17" y2="40.91" xlink:href="#未命名漸層_9"/>
    <linearGradient id="未命名漸層_9-42" x1="49.56" y1="40.91" x2="50.31" y2="40.91" xlink:href="#未命名漸層_9"/>
    <linearGradient id="未命名漸層_9-43" x1="50.58" y1="40.91" x2="51.01" y2="40.91" xlink:href="#未命名漸層_9"/>
    <linearGradient id="未命名漸層_9-44" x1="51.4" y1="40.91" x2="52.15" y2="40.91" xlink:href="#未命名漸層_9"/>
    <linearGradient id="未命名漸層_9-45" x1="52.42" y1="40.91" x2="52.85" y2="40.91" xlink:href="#未命名漸層_9"/>
    <linearGradient id="未命名漸層_9-46" x1="53.24" y1="40.91" x2="53.99" y2="40.91" xlink:href="#未命名漸層_9"/>
    <linearGradient id="未命名漸層_9-47" x1="54.26" y1="40.91" x2="54.69" y2="40.91" xlink:href="#未命名漸層_9"/>
    <linearGradient id="未命名漸層_9-48" x1="55.18" y1="40.91" x2="55.61" y2="40.91" xlink:href="#未命名漸層_9"/>
    <linearGradient id="未命名漸層_9-49" x1="56.1" y1="40.91" x2="56.53" y2="40.91" xlink:href="#未命名漸層_9"/>
    <linearGradient id="未命名漸層_9-50" x1="56.92" y1="40.91" x2="57.67" y2="40.91" xlink:href="#未命名漸層_9"/>
    <linearGradient id="未命名漸層_9-51" x1="57.94" y1="40.91" x2="58.37" y2="40.91" xlink:href="#未命名漸層_9"/>
    <linearGradient id="未命名漸層_9-52" x1="58.76" y1="40.91" x2="59.51" y2="40.91" xlink:href="#未命名漸層_9"/>
    <linearGradient id="未命名漸層_9-53" x1="59.68" y1="40.91" x2="60.44" y2="40.91" xlink:href="#未命名漸層_9"/>
    <linearGradient id="未命名漸層_9-54" x1="60.7" y1="40.91" x2="61.14" y2="40.91" xlink:href="#未命名漸層_9"/>
    <linearGradient id="未命名漸層_9-55" x1="4.38" y1="38.17" x2="5.13" y2="38.17" xlink:href="#未命名漸層_9"/>
    <linearGradient id="未命名漸層_9-56" x1="5.39" y1="38.17" x2="5.83" y2="38.17" xlink:href="#未命名漸層_9"/>
    <linearGradient id="未命名漸層_9-57" x1="6.22" y1="38.17" x2="6.97" y2="38.17" xlink:href="#未命名漸層_9"/>
    <linearGradient id="未命名漸層_9-58" x1="7.14" y1="38.17" x2="7.89" y2="38.17" xlink:href="#未命名漸層_9"/>
    <linearGradient id="未命名漸層_9-59" x1="8.06" y1="38.17" x2="8.81" y2="38.17" xlink:href="#未命名漸層_9"/>
    <linearGradient id="未命名漸層_9-60" x1="9.08" y1="38.17" x2="9.51" y2="38.17" xlink:href="#未命名漸層_9"/>
    <linearGradient id="未命名漸層_9-61" x1="9.9" y1="38.17" x2="10.65" y2="38.17" xlink:href="#未命名漸層_9"/>
    <linearGradient id="未命名漸層_9-62" x1="10.92" y1="38.17" x2="11.35" y2="38.17" xlink:href="#未命名漸層_9"/>
    <linearGradient id="未命名漸層_9-63" x1="11.74" y1="38.17" x2="12.49" y2="38.17" xlink:href="#未命名漸層_9"/>
    <linearGradient id="未命名漸層_9-64" x1="12.76" y1="38.17" x2="13.19" y2="38.17" xlink:href="#未命名漸層_9"/>
    <linearGradient id="未命名漸層_9-65" x1="13.58" y1="38.17" x2="14.33" y2="38.17" xlink:href="#未命名漸層_9"/>
    <linearGradient id="未命名漸層_9-66" x1="14.6" y1="38.17" x2="15.03" y2="38.17" xlink:href="#未命名漸層_9"/>
    <linearGradient id="未命名漸層_9-67" x1="15.42" y1="38.17" x2="16.17" y2="38.17" xlink:href="#未命名漸層_9"/>
    <linearGradient id="未命名漸層_9-68" x1="16.44" y1="38.17" x2="16.87" y2="38.17" xlink:href="#未命名漸層_9"/>
    <linearGradient id="未命名漸層_9-69" x1="17.36" y1="38.17" x2="17.79" y2="38.17" xlink:href="#未命名漸層_9"/>
    <linearGradient id="未命名漸層_9-70" x1="18.18" y1="38.17" x2="18.93" y2="38.17" xlink:href="#未命名漸層_9"/>
    <linearGradient id="未命名漸層_9-71" x1="19.2" y1="38.17" x2="19.63" y2="38.17" xlink:href="#未命名漸層_9"/>
    <linearGradient id="未命名漸層_9-72" x1="20.02" y1="38.17" x2="20.78" y2="38.17" xlink:href="#未命名漸層_9"/>
    <linearGradient id="未命名漸層_9-73" x1="21.04" y1="38.17" x2="21.48" y2="38.17" xlink:href="#未命名漸層_9"/>
    <linearGradient id="未命名漸層_9-74" x1="3.11" y1="33.17" x2="3.86" y2="33.17" xlink:href="#未命名漸層_9"/>
    <linearGradient id="未命名漸層_9-75" x1="4.13" y1="33.17" x2="4.56" y2="33.17" xlink:href="#未命名漸層_9"/>
    <linearGradient id="未命名漸層_9-76" x1="4.95" y1="33.17" x2="5.7" y2="33.17" xlink:href="#未命名漸層_9"/>
    <linearGradient id="未命名漸層_9-77" x1="5.87" y1="33.17" x2="6.63" y2="33.17" xlink:href="#未命名漸層_9"/>
    <linearGradient id="未命名漸層_9-78" x1="6.79" y1="33.17" x2="7.55" y2="33.17" xlink:href="#未命名漸層_9"/>
    <linearGradient id="未命名漸層_9-79" x1="7.81" y1="33.17" x2="8.25" y2="33.17" xlink:href="#未命名漸層_9"/>
    <linearGradient id="未命名漸層_9-80" x1="8.63" y1="33.17" x2="9.39" y2="33.17" xlink:href="#未命名漸層_9"/>
    <linearGradient id="未命名漸層_9-81" x1="9.65" y1="33.17" x2="10.09" y2="33.17" xlink:href="#未命名漸層_9"/>
    <linearGradient id="未命名漸層_9-82" x1="10.48" y1="33.17" x2="11.23" y2="33.17" xlink:href="#未命名漸層_9"/>
    <linearGradient id="未命名漸層_9-83" x1="11.5" y1="33.17" x2="11.93" y2="33.17" xlink:href="#未命名漸層_9"/>
    <linearGradient id="未命名漸層_9-84" x1="12.32" y1="33.17" x2="13.07" y2="33.17" xlink:href="#未命名漸層_9"/>
    <linearGradient id="未命名漸層_9-85" x1="13.34" y1="33.17" x2="13.77" y2="33.17" xlink:href="#未命名漸層_9"/>
    <linearGradient id="未命名漸層_9-86" x1="14.16" y1="33.17" x2="14.91" y2="33.17" xlink:href="#未命名漸層_9"/>
    <linearGradient id="未命名漸層_9-87" x1="15.18" y1="33.17" x2="15.61" y2="33.17" xlink:href="#未命名漸層_9"/>
    <linearGradient id="未命名漸層_9-88" x1="16.1" y1="33.17" x2="16.53" y2="33.17" xlink:href="#未命名漸層_9"/>
    <linearGradient id="未命名漸層_9-89" x1="16.92" y1="33.17" x2="17.67" y2="33.17" xlink:href="#未命名漸層_9"/>
    <linearGradient id="未命名漸層_9-90" x1="17.94" y1="33.17" x2="18.37" y2="33.17" xlink:href="#未命名漸層_9"/>
    <linearGradient id="未命名漸層_9-91" x1="18.76" y1="33.17" x2="19.51" y2="33.17" xlink:href="#未命名漸層_9"/>
    <linearGradient id="未命名漸層_9-92" x1="19.78" y1="33.17" x2="20.21" y2="33.17" xlink:href="#未命名漸層_9"/>
    <linearGradient id="未命名漸層_9-93" x1="44.57" y1="32.59" x2="45.32" y2="32.59" xlink:href="#未命名漸層_9"/>
    <linearGradient id="未命名漸層_9-94" x1="45.59" y1="32.59" x2="46.02" y2="32.59" xlink:href="#未命名漸層_9"/>
    <linearGradient id="未命名漸層_9-95" x1="46.41" y1="32.59" x2="47.16" y2="32.59" xlink:href="#未命名漸層_9"/>
    <linearGradient id="未命名漸層_9-96" x1="47.33" y1="32.59" x2="48.08" y2="32.59" xlink:href="#未命名漸層_9"/>
    <linearGradient id="未命名漸層_9-97" x1="48.25" y1="32.59" x2="49" y2="32.59" xlink:href="#未命名漸層_9"/>
    <linearGradient id="未命名漸層_9-98" x1="49.27" y1="32.59" x2="49.7" y2="32.59" xlink:href="#未命名漸層_9"/>
    <linearGradient id="未命名漸層_9-99" x1="50.09" y1="32.59" x2="50.84" y2="32.59" xlink:href="#未命名漸層_9"/>
    <linearGradient id="未命名漸層_9-100" x1="51.11" y1="32.59" x2="51.55" y2="32.59" xlink:href="#未命名漸層_9"/>
    <linearGradient id="未命名漸層_9-101" x1="51.93" y1="32.59" x2="52.69" y2="32.59" xlink:href="#未命名漸層_9"/>
    <linearGradient id="未命名漸層_9-102" x1="52.95" y1="32.59" x2="53.39" y2="32.59" xlink:href="#未命名漸層_9"/>
    <linearGradient id="未命名漸層_9-103" x1="53.77" y1="32.59" x2="54.53" y2="32.59" xlink:href="#未命名漸層_9"/>
    <linearGradient id="未命名漸層_9-104" x1="54.79" y1="32.59" x2="55.23" y2="32.59" xlink:href="#未命名漸層_9"/>
    <linearGradient id="未命名漸層_9-105" x1="55.62" y1="32.59" x2="56.37" y2="32.59" xlink:href="#未命名漸層_9"/>
    <linearGradient id="未命名漸層_9-106" x1="56.63" y1="32.59" x2="57.07" y2="32.59" xlink:href="#未命名漸層_9"/>
    <linearGradient id="未命名漸層_9-107" x1="57.56" y1="32.59" x2="57.99" y2="32.59" xlink:href="#未命名漸層_9"/>
    <linearGradient id="未命名漸層_9-108" x1="58.38" y1="32.59" x2="59.13" y2="32.59" xlink:href="#未命名漸層_9"/>
    <linearGradient id="未命名漸層_9-109" x1="59.4" y1="32.59" x2="59.83" y2="32.59" xlink:href="#未命名漸層_9"/>
    <linearGradient id="未命名漸層_9-110" x1="60.22" y1="32.59" x2="60.97" y2="32.59" xlink:href="#未命名漸層_9"/>
    <linearGradient id="未命名漸層_9-111" x1="61.24" y1="32.59" x2="61.67" y2="32.59" xlink:href="#未命名漸層_9"/>
    <linearGradient id="未命名漸層_9-112" x1="5.18" y1="30.97" x2="5.93" y2="30.97" xlink:href="#未命名漸層_9"/>
    <linearGradient id="未命名漸層_9-113" x1="6.2" y1="30.97" x2="6.63" y2="30.97" xlink:href="#未命名漸層_9"/>
    <linearGradient id="未命名漸層_9-114" x1="7.02" y1="30.97" x2="7.77" y2="30.97" xlink:href="#未命名漸層_9"/>
    <linearGradient id="未命名漸層_9-115" x1="7.94" y1="30.97" x2="8.69" y2="30.97" xlink:href="#未命名漸層_9"/>
    <linearGradient id="未命名漸層_9-116" x1="8.86" y1="30.97" x2="9.61" y2="30.97" xlink:href="#未命名漸層_9"/>
    <linearGradient id="未命名漸層_9-117" x1="9.88" y1="30.97" x2="10.31" y2="30.97" xlink:href="#未命名漸層_9"/>
    <linearGradient id="未命名漸層_9-118" x1="10.7" y1="30.97" x2="11.45" y2="30.97" xlink:href="#未命名漸層_9"/>
    <linearGradient id="未命名漸層_9-119" x1="11.72" y1="30.97" x2="12.15" y2="30.97" xlink:href="#未命名漸層_9"/>
    <linearGradient id="未命名漸層_9-120" x1="12.54" y1="30.97" x2="13.29" y2="30.97" xlink:href="#未命名漸層_9"/>
    <linearGradient id="未命名漸層_9-121" x1="13.56" y1="30.97" x2="14" y2="30.97" xlink:href="#未命名漸層_9"/>
    <linearGradient id="未命名漸層_9-122" x1="14.38" y1="30.97" x2="15.14" y2="30.97" xlink:href="#未命名漸層_9"/>
    <linearGradient id="未命名漸層_9-123" x1="15.4" y1="30.97" x2="15.84" y2="30.97" xlink:href="#未命名漸層_9"/>
    <linearGradient id="未命名漸層_9-124" x1="16.22" y1="30.97" x2="16.98" y2="30.97" xlink:href="#未命名漸層_9"/>
    <linearGradient id="未命名漸層_9-125" x1="17.24" y1="30.97" x2="17.68" y2="30.97" xlink:href="#未命名漸層_9"/>
    <linearGradient id="未命名漸層_9-126" x1="18.16" y1="30.97" x2="18.6" y2="30.97" xlink:href="#未命名漸層_9"/>
    <linearGradient id="未命名漸層_9-127" x1="19.3" y1="18.68" x2="20.06" y2="18.68" xlink:href="#未命名漸層_9"/>
    <linearGradient id="未命名漸層_9-128" x1="20.32" y1="18.68" x2="20.76" y2="18.68" xlink:href="#未命名漸層_9"/>
    <linearGradient id="未命名漸層_9-129" x1="21.15" y1="18.68" x2="21.9" y2="18.68" xlink:href="#未命名漸層_9"/>
    <linearGradient id="未命名漸層_9-130" x1="22.07" y1="18.68" x2="22.82" y2="18.68" xlink:href="#未命名漸層_9"/>
    <linearGradient id="未命名漸層_9-131" x1="22.99" y1="18.68" x2="23.74" y2="18.68" xlink:href="#未命名漸層_9"/>
    <linearGradient id="未命名漸層_9-132" x1="24.01" y1="18.68" x2="24.44" y2="18.68" xlink:href="#未命名漸層_9"/>
    <linearGradient id="未命名漸層_9-133" x1="24.83" y1="18.68" x2="25.58" y2="18.68" xlink:href="#未命名漸層_9"/>
    <linearGradient id="未命名漸層_9-134" x1="25.85" y1="18.68" x2="26.28" y2="18.68" xlink:href="#未命名漸層_9"/>
    <linearGradient id="未命名漸層_9-135" x1="26.67" y1="18.68" x2="27.42" y2="18.68" xlink:href="#未命名漸層_9"/>
    <linearGradient id="未命名漸層_9-136" x1="27.69" y1="18.68" x2="28.12" y2="18.68" xlink:href="#未命名漸層_9"/>
    <linearGradient id="未命名漸層_9-137" x1="28.51" y1="18.68" x2="29.26" y2="18.68" xlink:href="#未命名漸層_9"/>
    <linearGradient id="未命名漸層_9-138" x1="29.53" y1="18.68" x2="29.96" y2="18.68" xlink:href="#未命名漸層_9"/>
    <linearGradient id="未命名漸層_9-139" x1="30.35" y1="18.68" x2="31.1" y2="18.68" xlink:href="#未命名漸層_9"/>
    <linearGradient id="未命名漸層_9-140" x1="31.37" y1="18.68" x2="31.8" y2="18.68" xlink:href="#未命名漸層_9"/>
    <linearGradient id="未命名漸層_9-141" x1="32.29" y1="18.68" x2="32.72" y2="18.68" xlink:href="#未命名漸層_9"/>
    <linearGradient id="未命名漸層_9-142" x1="33.21" y1="18.68" x2="33.64" y2="18.68" xlink:href="#未命名漸層_9"/>
    <linearGradient id="未命名漸層_9-143" x1="34.03" y1="18.68" x2="34.78" y2="18.68" xlink:href="#未命名漸層_9"/>
    <linearGradient id="未命名漸層_9-144" x1="35.05" y1="18.68" x2="35.48" y2="18.68" xlink:href="#未命名漸層_9"/>
    <linearGradient id="未命名漸層_9-145" x1="35.87" y1="18.68" x2="36.63" y2="18.68" xlink:href="#未命名漸層_9"/>
    <linearGradient id="未命名漸層_9-146" x1="36.89" y1="18.68" x2="37.33" y2="18.68" xlink:href="#未命名漸層_9"/>
    <linearGradient id="未命名漸層_9-147" x1="41.7" y1="38.17" x2="42.45" y2="38.17" xlink:href="#未命名漸層_9"/>
    <linearGradient id="未命名漸層_9-148" x1="42.72" y1="38.17" x2="43.15" y2="38.17" xlink:href="#未命名漸層_9"/>
    <linearGradient id="未命名漸層_9-149" x1="43.54" y1="38.17" x2="44.29" y2="38.17" xlink:href="#未命名漸層_9"/>
    <linearGradient id="未命名漸層_9-150" x1="44.46" y1="38.17" x2="45.21" y2="38.17" xlink:href="#未命名漸層_9"/>
    <linearGradient id="未命名漸層_9-151" x1="45.38" y1="38.17" x2="46.13" y2="38.17" xlink:href="#未命名漸層_9"/>
    <linearGradient id="未命名漸層_9-152" x1="46.4" y1="38.17" x2="46.83" y2="38.17" xlink:href="#未命名漸層_9"/>
    <linearGradient id="未命名漸層_9-153" x1="47.22" y1="38.17" x2="47.97" y2="38.17" xlink:href="#未命名漸層_9"/>
    <linearGradient id="未命名漸層_9-154" x1="48.24" y1="38.17" x2="48.67" y2="38.17" xlink:href="#未命名漸層_9"/>
    <linearGradient id="未命名漸層_9-155" x1="49.06" y1="38.17" x2="49.81" y2="38.17" xlink:href="#未命名漸層_9"/>
    <linearGradient id="未命名漸層_9-156" x1="50.08" y1="38.17" x2="50.52" y2="38.17" xlink:href="#未命名漸層_9"/>
    <linearGradient id="未命名漸層_9-157" x1="50.9" y1="38.17" x2="51.66" y2="38.17" xlink:href="#未命名漸層_9"/>
    <linearGradient id="未命名漸層_9-158" x1="51.92" y1="38.17" x2="52.36" y2="38.17" xlink:href="#未命名漸層_9"/>
    <linearGradient id="未命名漸層_9-159" x1="52.74" y1="38.17" x2="53.5" y2="38.17" xlink:href="#未命名漸層_9"/>
    <linearGradient id="未命名漸層_9-160" x1="53.76" y1="38.17" x2="54.2" y2="38.17" xlink:href="#未命名漸層_9"/>
    <linearGradient id="未命名漸層_9-161" x1="54.68" y1="38.17" x2="55.12" y2="38.17" xlink:href="#未命名漸層_9"/>
    <linearGradient id="未命名漸層_9-162" x1="55.51" y1="38.17" x2="56.26" y2="38.17" xlink:href="#未命名漸層_9"/>
    <linearGradient id="未命名漸層_9-163" x1="56.53" y1="38.17" x2="56.96" y2="38.17" xlink:href="#未命名漸層_9"/>
    <linearGradient id="未命名漸層_9-164" x1="57.35" y1="38.17" x2="58.1" y2="38.17" xlink:href="#未命名漸層_9"/>
    <linearGradient id="未命名漸層_9-165" x1="58.37" y1="38.17" x2="58.8" y2="38.17" xlink:href="#未命名漸層_9"/>
    <linearGradient id="未命名漸層_9-166" x1="59.29" y1="38.17" x2="59.72" y2="38.17" xlink:href="#未命名漸層_9"/>
    <linearGradient id="未命名漸層_9-167" x1="60.11" y1="38.17" x2="60.86" y2="38.17" xlink:href="#未命名漸層_9"/>
    <linearGradient id="未命名漸層_9-168" x1="61.13" y1="38.17" x2="61.56" y2="38.17" xlink:href="#未命名漸層_9"/>
    <linearGradient id="未命名漸層_9-169" x1="61.95" y1="38.17" x2="62.7" y2="38.17" xlink:href="#未命名漸層_9"/>
    <linearGradient id="未命名漸層_9-170" x1="62.97" y1="38.17" x2="63.4" y2="38.17" xlink:href="#未命名漸層_9"/>
    <linearGradient id="未命名漸層_9-171" x1="63.89" y1="38.17" x2="64.32" y2="38.17" xlink:href="#未命名漸層_9"/>
    <linearGradient id="未命名漸層_9-172" x1="2.65" y1="35.63" x2="3.08" y2="35.63" xlink:href="#未命名漸層_9"/>
    <linearGradient id="未命名漸層_9-173" x1="3.47" y1="35.63" x2="4.22" y2="35.63" xlink:href="#未命名漸層_9"/>
    <linearGradient id="未命名漸層_9-174" x1="4.49" y1="35.63" x2="4.92" y2="35.63" xlink:href="#未命名漸層_9"/>
    <linearGradient id="未命名漸層_9-175" x1="5.31" y1="35.63" x2="6.06" y2="35.63" xlink:href="#未命名漸層_9"/>
    <linearGradient id="未命名漸層_9-176" x1="6.33" y1="35.63" x2="6.76" y2="35.63" xlink:href="#未命名漸層_9"/>
    <linearGradient id="未命名漸層_9-177" x1="7.25" y1="35.63" x2="7.69" y2="35.63" xlink:href="#未命名漸層_9"/>
    <linearGradient id="未命名漸層_9-178" x1="8.07" y1="35.63" x2="8.83" y2="35.63" xlink:href="#未命名漸層_9"/>
    <linearGradient id="未命名漸層_9-179" x1="9.09" y1="35.63" x2="9.53" y2="35.63" xlink:href="#未命名漸層_9"/>
    <linearGradient id="未命名漸層_9-180" x1="10.01" y1="35.63" x2="10.45" y2="35.63" xlink:href="#未命名漸層_9"/>
    <linearGradient id="未命名漸層_9-181" x1="10.84" y1="35.63" x2="11.59" y2="35.63" xlink:href="#未命名漸層_9"/>
    <linearGradient id="未命名漸層_9-182" x1="11.85" y1="35.63" x2="12.29" y2="35.63" xlink:href="#未命名漸層_9"/>
    <linearGradient id="未命名漸層_9-183" x1="12.68" y1="35.63" x2="13.43" y2="35.63" xlink:href="#未命名漸層_9"/>
    <linearGradient id="未命名漸層_9-184" x1="13.7" y1="35.63" x2="14.13" y2="35.63" xlink:href="#未命名漸層_9"/>
    <linearGradient id="未命名漸層_9-185" x1="14.52" y1="35.63" x2="15.27" y2="35.63" xlink:href="#未命名漸層_9"/>
    <linearGradient id="未命名漸層_9-186" x1="15.54" y1="35.63" x2="15.97" y2="35.63" xlink:href="#未命名漸層_9"/>
    <linearGradient id="未命名漸層_9-187" x1="16.46" y1="35.63" x2="16.89" y2="35.63" xlink:href="#未命名漸層_9"/>
    <linearGradient id="未命名漸層_9-188" x1="17.38" y1="35.63" x2="17.81" y2="35.63" xlink:href="#未命名漸層_9"/>
    <linearGradient id="未命名漸層_9-189" x1="18.2" y1="35.63" x2="18.95" y2="35.63" xlink:href="#未命名漸層_9"/>
    <linearGradient id="未命名漸層_9-190" x1="19.22" y1="35.63" x2="19.65" y2="35.63" xlink:href="#未命名漸層_9"/>
    <linearGradient id="未命名漸層_9-191" x1="20.04" y1="35.63" x2="20.79" y2="35.63" xlink:href="#未命名漸層_9"/>
    <linearGradient id="未命名漸層_9-192" x1="44.57" y1="35.28" x2="45.32" y2="35.28" xlink:href="#未命名漸層_9"/>
    <linearGradient id="未命名漸層_9-193" x1="45.59" y1="35.28" x2="46.02" y2="35.28" xlink:href="#未命名漸層_9"/>
    <linearGradient id="未命名漸層_9-194" x1="46.51" y1="35.28" x2="46.94" y2="35.28" xlink:href="#未命名漸層_9"/>
    <linearGradient id="未命名漸層_9-195" x1="47.33" y1="35.28" x2="48.08" y2="35.28" xlink:href="#未命名漸層_9"/>
    <linearGradient id="未命名漸層_9-196" x1="48.35" y1="35.28" x2="48.78" y2="35.28" xlink:href="#未命名漸層_9"/>
    <linearGradient id="未命名漸層_9-197" x1="49.17" y1="35.28" x2="49.92" y2="35.28" xlink:href="#未命名漸層_9"/>
    <linearGradient id="未命名漸層_9-198" x1="50.19" y1="35.28" x2="50.63" y2="35.28" xlink:href="#未命名漸層_9"/>
    <linearGradient id="未命名漸層_9-199" x1="51.01" y1="35.28" x2="51.77" y2="35.28" xlink:href="#未命名漸層_9"/>
    <linearGradient id="未命名漸層_9-200" x1="52.03" y1="35.28" x2="52.47" y2="35.28" xlink:href="#未命名漸層_9"/>
    <linearGradient id="未命名漸層_9-201" x1="52.95" y1="35.28" x2="53.39" y2="35.28" xlink:href="#未命名漸層_9"/>
    <linearGradient id="未命名漸層_9-202" x1="53.77" y1="35.28" x2="54.53" y2="35.28" xlink:href="#未命名漸層_9"/>
    <linearGradient id="未命名漸層_9-203" x1="54.79" y1="35.28" x2="55.23" y2="35.28" xlink:href="#未命名漸層_9"/>
    <linearGradient id="未命名漸層_9-204" x1="55.71" y1="35.28" x2="56.15" y2="35.28" xlink:href="#未命名漸層_9"/>
    <linearGradient id="未命名漸層_9-205" x1="56.63" y1="35.28" x2="57.07" y2="35.28" xlink:href="#未命名漸層_9"/>
    <linearGradient id="未命名漸層_9-206" x1="57.46" y1="35.28" x2="58.21" y2="35.28" xlink:href="#未命名漸層_9"/>
    <linearGradient id="未命名漸層_9-207" x1="58.48" y1="35.28" x2="58.91" y2="35.28" xlink:href="#未命名漸層_9"/>
    <linearGradient id="未命名漸層_9-208" x1="59.4" y1="35.28" x2="59.83" y2="35.28" xlink:href="#未命名漸層_9"/>
    <linearGradient id="未命名漸層_9-209" x1="60.22" y1="35.28" x2="60.97" y2="35.28" xlink:href="#未命名漸層_9"/>
    <linearGradient id="未命名漸層_9-210" x1="61.24" y1="35.28" x2="61.67" y2="35.28" xlink:href="#未命名漸層_9"/>
    <linearGradient id="未命名漸層_9-211" x1="62.06" y1="35.28" x2="62.81" y2="35.28" xlink:href="#未命名漸層_9"/>
    <linearGradient id="未命名漸層_9-212" x1="63.08" y1="35.28" x2="63.51" y2="35.28" xlink:href="#未命名漸層_9"/>
    <linearGradient id="未命名漸層_9-213" x1="24.93" y1="16" x2="25.36" y2="16" xlink:href="#未命名漸層_9"/>
    <linearGradient id="未命名漸層_9-214" x1="25.75" y1="16" x2="26.5" y2="16" xlink:href="#未命名漸層_9"/>
    <linearGradient id="未命名漸層_9-215" x1="26.77" y1="16" x2="27.2" y2="16" xlink:href="#未命名漸層_9"/>
    <linearGradient id="未命名漸層_9-216" x1="27.59" y1="16" x2="28.34" y2="16" xlink:href="#未命名漸層_9"/>
    <linearGradient id="未命名漸層_9-217" x1="28.61" y1="16" x2="29.04" y2="16" xlink:href="#未命名漸層_9"/>
    <linearGradient id="未命名漸層_9-218" x1="29.53" y1="16" x2="29.96" y2="16" xlink:href="#未命名漸層_9"/>
    <linearGradient id="未命名漸層_9-219" x1="30.45" y1="16" x2="30.89" y2="16" xlink:href="#未命名漸層_9"/>
    <linearGradient id="未命名漸層_9-220" x1="31.27" y1="16" x2="32.03" y2="16" xlink:href="#未命名漸層_9"/>
    <linearGradient id="未命名漸層_9-221" x1="44.11" y1="28.13" x2="44.54" y2="28.13" xlink:href="#未命名漸層_9"/>
    <linearGradient id="未命名漸層_9-222" x1="44.93" y1="28.13" x2="45.68" y2="28.13" xlink:href="#未命名漸層_9"/>
    <linearGradient id="未命名漸層_9-223" x1="45.95" y1="28.13" x2="46.38" y2="28.13" xlink:href="#未命名漸層_9"/>
    <linearGradient id="未命名漸層_9-224" x1="46.77" y1="28.13" x2="47.52" y2="28.13" xlink:href="#未命名漸層_9"/>
    <linearGradient id="未命名漸層_9-225" x1="47.79" y1="28.13" x2="48.22" y2="28.13" xlink:href="#未命名漸層_9"/>
    <linearGradient id="未命名漸層_9-226" x1="48.71" y1="28.13" x2="49.14" y2="28.13" xlink:href="#未命名漸層_9"/>
    <linearGradient id="未命名漸層_9-227" x1="49.63" y1="28.13" x2="50.06" y2="28.13" xlink:href="#未命名漸層_9"/>
    <linearGradient id="未命名漸層_9-228" x1="50.45" y1="28.13" x2="51.2" y2="28.13" xlink:href="#未命名漸層_9"/>
    <linearGradient id="未命名漸層_9-229" x1="41.8" y1="23.3" x2="42.23" y2="23.3" xlink:href="#未命名漸層_9"/>
    <linearGradient id="未命名漸層_9-230" x1="42.62" y1="23.3" x2="43.37" y2="23.3" xlink:href="#未命名漸層_9"/>
    <linearGradient id="未命名漸層_9-231" x1="43.64" y1="23.3" x2="44.07" y2="23.3" xlink:href="#未命名漸層_9"/>
    <linearGradient id="未命名漸層_9-232" x1="44.46" y1="23.3" x2="45.21" y2="23.3" xlink:href="#未命名漸層_9"/>
    <linearGradient id="未命名漸層_9-233" x1="45.48" y1="23.3" x2="45.91" y2="23.3" xlink:href="#未命名漸層_9"/>
    <linearGradient id="未命名漸層_9-234" x1="46.4" y1="23.3" x2="46.83" y2="23.3" xlink:href="#未命名漸層_9"/>
    <linearGradient id="未命名漸層_9-235" x1="47.32" y1="23.3" x2="47.75" y2="23.3" xlink:href="#未命名漸層_9"/>
    <linearGradient id="未命名漸層_9-236" x1="48.14" y1="23.3" x2="48.89" y2="23.3" xlink:href="#未命名漸層_9"/>
    <linearGradient id="未命名漸層_9-237" x1="15.41" y1="23.32" x2="16.16" y2="23.32" xlink:href="#未命名漸層_9"/>
    <linearGradient id="未命名漸層_9-238" x1="16.43" y1="23.31" x2="16.87" y2="23.31" xlink:href="#未命名漸層_9"/>
    <linearGradient id="未命名漸層_9-239" x1="17.25" y1="23.32" x2="18.01" y2="23.32" xlink:href="#未命名漸層_9"/>
    <linearGradient id="未命名漸層_9-240" x1="18.27" y1="23.31" x2="18.71" y2="23.31" xlink:href="#未命名漸層_9"/>
    <linearGradient id="未命名漸層_9-241" x1="19.09" y1="23.32" x2="19.85" y2="23.32" xlink:href="#未命名漸層_9"/>
    <linearGradient id="未命名漸層_9-242" x1="20.11" y1="23.31" x2="20.55" y2="23.31" xlink:href="#未命名漸層_9"/>
    <linearGradient id="未命名漸層_9-243" x1="21.03" y1="23.31" x2="21.47" y2="23.31" xlink:href="#未命名漸層_9"/>
    <linearGradient id="未命名漸層_9-244" x1="21.96" y1="23.31" x2="22.39" y2="23.31" xlink:href="#未命名漸層_9"/>
    <linearGradient id="未命名漸層_9-245" x1="22.78" y1="23.32" x2="23.53" y2="23.32" xlink:href="#未命名漸層_9"/>
    <linearGradient id="未命名漸層_9-246" x1="13.2" y1="26.3" x2="13.64" y2="26.3" xlink:href="#未命名漸層_9"/>
    <linearGradient id="未命名漸層_9-247" x1="14.02" y1="26.3" x2="14.78" y2="26.3" xlink:href="#未命名漸層_9"/>
    <linearGradient id="未命名漸層_9-248" x1="15.04" y1="26.3" x2="15.48" y2="26.3" xlink:href="#未命名漸層_9"/>
    <linearGradient id="未命名漸層_9-249" x1="15.86" y1="26.3" x2="16.62" y2="26.3" xlink:href="#未命名漸層_9"/>
    <linearGradient id="未命名漸層_9-250" x1="16.88" y1="26.3" x2="17.32" y2="26.3" xlink:href="#未命名漸層_9"/>
    <linearGradient id="未命名漸層_9-251" x1="17.8" y1="26.3" x2="18.24" y2="26.3" xlink:href="#未命名漸層_9"/>
    <linearGradient id="未命名漸層_9-252" x1="18.72" y1="26.3" x2="19.16" y2="26.3" xlink:href="#未命名漸層_9"/>
    <linearGradient id="未命名漸層_9-253" x1="19.55" y1="26.3" x2="20.3" y2="26.3" xlink:href="#未命名漸層_9"/>
    <linearGradient id="未命名漸層_9-254" x1="42.41" y1="25.5" x2="43.17" y2="25.5" xlink:href="#未命名漸層_9"/>
    <linearGradient id="未命名漸層_9-255" x1="43.43" y1="25.5" x2="43.87" y2="25.5" xlink:href="#未命名漸層_9"/>
    <linearGradient id="未命名漸層_9-256" x1="44.26" y1="25.5" x2="45.01" y2="25.5" xlink:href="#未命名漸層_9"/>
    <linearGradient id="未命名漸層_9-257" x1="45.27" y1="25.5" x2="45.71" y2="25.5" xlink:href="#未命名漸層_9"/>
    <linearGradient id="未命名漸層_9-258" x1="46.1" y1="25.5" x2="46.85" y2="25.5" xlink:href="#未命名漸層_9"/>
    <linearGradient id="未命名漸層_9-259" x1="47.12" y1="25.5" x2="47.55" y2="25.5" xlink:href="#未命名漸層_9"/>
    <linearGradient id="未命名漸層_9-260" x1="48.04" y1="25.5" x2="48.47" y2="25.5" xlink:href="#未命名漸層_9"/>
    <linearGradient id="未命名漸層_9-261" x1="48.96" y1="25.5" x2="49.39" y2="25.5" xlink:href="#未命名漸層_9"/>
    <linearGradient id="未命名漸層_9-262" x1="49.78" y1="25.5" x2="50.53" y2="25.5" xlink:href="#未命名漸層_9"/>
    <linearGradient id="未命名漸層_9-263" x1="45.26" y1="30.24" x2="45.69" y2="30.24" xlink:href="#未命名漸層_9"/>
    <linearGradient id="未命名漸層_9-264" x1="46.08" y1="30.24" x2="46.83" y2="30.24" xlink:href="#未命名漸層_9"/>
    <linearGradient id="未命名漸層_9-265" x1="47.1" y1="30.24" x2="47.53" y2="30.24" xlink:href="#未命名漸層_9"/>
    <linearGradient id="未命名漸層_9-266" x1="47.92" y1="30.24" x2="48.67" y2="30.24" xlink:href="#未命名漸層_9"/>
    <linearGradient id="未命名漸層_9-267" x1="48.94" y1="30.24" x2="49.37" y2="30.24" xlink:href="#未命名漸層_9"/>
    <linearGradient id="未命名漸層_9-268" x1="49.86" y1="30.24" x2="50.29" y2="30.24" xlink:href="#未命名漸層_9"/>
    <linearGradient id="未命名漸層_9-269" x1="50.78" y1="30.24" x2="51.21" y2="30.24" xlink:href="#未命名漸層_9"/>
    <linearGradient id="未命名漸層_9-270" x1="51.6" y1="30.24" x2="52.35" y2="30.24" xlink:href="#未命名漸層_9"/>
    <linearGradient id="未命名漸層_9-271" x1="8.65" y1="28.84" x2="9.08" y2="28.84" xlink:href="#未命名漸層_9"/>
    <linearGradient id="未命名漸層_9-272" x1="9.47" y1="28.84" x2="10.22" y2="28.84" xlink:href="#未命名漸層_9"/>
    <linearGradient id="未命名漸層_9-273" x1="10.49" y1="28.84" x2="10.92" y2="28.84" xlink:href="#未命名漸層_9"/>
    <linearGradient id="未命名漸層_9-274" x1="11.31" y1="28.84" x2="12.06" y2="28.84" xlink:href="#未命名漸層_9"/>
    <linearGradient id="未命名漸層_9-275" x1="12.33" y1="28.84" x2="12.76" y2="28.84" xlink:href="#未命名漸層_9"/>
    <linearGradient id="未命名漸層_9-276" x1="13.25" y1="28.84" x2="13.68" y2="28.84" xlink:href="#未命名漸層_9"/>
    <linearGradient id="未命名漸層_9-277" x1="14.17" y1="28.84" x2="14.6" y2="28.84" xlink:href="#未命名漸層_9"/>
    <linearGradient id="未命名漸層_9-278" x1="14.99" y1="28.84" x2="15.74" y2="28.84" xlink:href="#未命名漸層_9"/>
    <linearGradient id="未命名漸層_9-279" x1="16.01" y1="28.84" x2="16.44" y2="28.84" xlink:href="#未命名漸層_9"/>
    <linearGradient id="未命名漸層_9-280" x1="16.93" y1="28.84" x2="17.36" y2="28.84" xlink:href="#未命名漸層_9"/>
    <linearGradient id="未命名漸層_9-281" x1="17.75" y1="28.84" x2="18.5" y2="28.84" xlink:href="#未命名漸層_9"/>
    <linearGradient id="未命名漸層_9-282" x1="16.8" y1="21.04" x2="17.23" y2="21.04" xlink:href="#未命名漸層_9"/>
    <linearGradient id="未命名漸層_9-283" x1="17.62" y1="21.04" x2="18.37" y2="21.04" xlink:href="#未命名漸層_9"/>
    <linearGradient id="未命名漸層_9-284" x1="18.64" y1="21.04" x2="19.08" y2="21.04" xlink:href="#未命名漸層_9"/>
    <linearGradient id="未命名漸層_9-285" x1="19.46" y1="21.04" x2="20.22" y2="21.04" xlink:href="#未命名漸層_9"/>
    <linearGradient id="未命名漸層_9-286" x1="20.48" y1="21.04" x2="20.92" y2="21.04" xlink:href="#未命名漸層_9"/>
    <linearGradient id="未命名漸層_9-287" x1="21.4" y1="21.04" x2="21.84" y2="21.04" xlink:href="#未命名漸層_9"/>
    <linearGradient id="未命名漸層_9-288" x1="22.32" y1="21.04" x2="22.76" y2="21.04" xlink:href="#未命名漸層_9"/>
    <linearGradient id="未命名漸層_9-289" x1="23.15" y1="21.04" x2="23.9" y2="21.04" xlink:href="#未命名漸層_9"/>
    <linearGradient id="未命名漸層_9-290" x1="24.16" y1="21.04" x2="24.6" y2="21.04" xlink:href="#未命名漸層_9"/>
    <linearGradient id="未命名漸層_9-291" x1="25.09" y1="21.04" x2="25.52" y2="21.04" xlink:href="#未命名漸層_9"/>
    <linearGradient id="未命名漸層_9-292" x1="25.91" y1="21.04" x2="26.66" y2="21.04" xlink:href="#未命名漸層_9"/>
    <linearGradient id="未命名漸層_9-293" x1="42.72" y1="14.59" x2="46.47" y2="14.59" xlink:href="#未命名漸層_9"/>
    <linearGradient id="未命名漸層_9-294" x1="42.34" y1="12.21" x2="51.81" y2="12.21" xlink:href="#未命名漸層_9"/>
    <linearGradient id="未命名漸層_9-295" x1="41.88" y1="10.52" x2="55.64" y2="10.52" xlink:href="#未命名漸層_9"/>
    <linearGradient id="未命名漸層_9-296" x1="42.43" y1="8.21" x2="59.71" y2="8.21" xlink:href="#未命名漸層_9"/>
  </defs>
  <title>形象網站_首頁v5</title>
  <g id="圖層_5" data-name="圖層 5">
    <g>
      <g>
        <path d="M60.89,44.05H6.8A6,6,0,0,1,2,41.74,9.46,9.46,0,0,1,0,36c0-4.85,4-9.15,10.13-11a4.37,4.37,0,0,0,2.81-2.81c2-5.68,8.21-9.65,15.2-9.65a16.88,16.88,0,0,1,12.49,5.17,4.35,4.35,0,0,0,3.49,1.52c.23,0,.47,0,.71,0a10.07,10.07,0,0,1,10,8.33c6.7.3,12,4.91,12,10.55A6,6,0,0,1,60.89,44.05Zm-32.6-1.69h32.6a4.26,4.26,0,0,0,4.25-4.24c0-4.88-5-8.86-11-8.87l-.8.05-.1-.81a8.39,8.39,0,0,0-8.38-7.56l-.59,0a6,6,0,0,1-4.84-2.06,15.24,15.24,0,0,0-11.26-4.63c-6.28,0-11.88,3.5-13.61,8.52a6,6,0,0,1-3.92,3.87C5.19,28.25,1.68,31.92,1.68,36a7.65,7.65,0,0,0,1.69,4.71A4.3,4.3,0,0,0,6.8,42.36H27.51L28,42Z" style="fill: url(#未命名漸層_9)"/>
        <g>
          <path d="M22,29.13c.27-.37,6.48-8.63,15.64-3.38l-1.37,1.72,6.64,1-2.45-6.25L39,24c-8.81-5.27-16.15.12-18.86,3.82a1.12,1.12,0,0,0,.24,1.57,1.15,1.15,0,0,0,.66.21A1.11,1.11,0,0,0,22,29.13Z" style="fill: url(#未命名漸層_9-2)"/>
          <path d="M43.54,32.58a1.13,1.13,0,0,0-1.57.24c-.27.37-6.51,8.61-15.64,3.38l1.37-1.72-6.65-1,2.46,6.25L24.92,38a14.36,14.36,0,0,0,7.42,2.2,14.85,14.85,0,0,0,11.44-6A1.12,1.12,0,0,0,43.54,32.58Z" style="fill: url(#未命名漸層_9-3)"/>
        </g>
        <g>
          <path d="M6.52,41.66H6.31V40.51H6.09v-.13a1.12,1.12,0,0,0,.31-.22h.12Z" style="fill: url(#未命名漸層_9-4)"/>
          <path d="M7.67,41.18a.69.69,0,0,1-.08.36.36.36,0,0,1-.3.14.35.35,0,0,1-.3-.14.69.69,0,0,1-.08-.36v-.54A.69.69,0,0,1,7,40.28a.35.35,0,0,1,.3-.14.36.36,0,0,1,.3.14.69.69,0,0,1,.08.36Zm-.54,0a.32.32,0,0,0,0,.17.16.16,0,0,0,.26,0,.32.32,0,0,0,0-.17v-.64a.36.36,0,0,0,0-.18.16.16,0,0,0-.26,0,.36.36,0,0,0,0,.18Z" style="fill: url(#未命名漸層_9-5)"/>
          <path d="M8.59,41.18a.69.69,0,0,1-.08.36.36.36,0,0,1-.3.14.35.35,0,0,1-.3-.14.69.69,0,0,1-.08-.36v-.54a.69.69,0,0,1,.08-.36.35.35,0,0,1,.3-.14.36.36,0,0,1,.3.14.69.69,0,0,1,.08.36Zm-.54,0a.32.32,0,0,0,0,.17.16.16,0,0,0,.26,0,.32.32,0,0,0,0-.17v-.64a.36.36,0,0,0,0-.18.16.16,0,0,0-.26,0,.36.36,0,0,0,0,.18Z" style="fill: url(#未命名漸層_9-6)"/>
          <path d="M9.29,41.66H9.07V40.51H8.85v-.13a1.12,1.12,0,0,0,.31-.22h.13Z" style="fill: url(#未命名漸層_9-7)"/>
          <path d="M10.21,41.66H10V40.51H9.77v-.13a1.12,1.12,0,0,0,.31-.22h.13Z" style="fill: url(#未命名漸層_9-8)"/>
          <path d="M11.35,41.18a.69.69,0,0,1-.08.36.35.35,0,0,1-.3.14.36.36,0,0,1-.3-.14.7.7,0,0,1-.07-.36v-.54a.7.7,0,0,1,.07-.36.36.36,0,0,1,.3-.14.35.35,0,0,1,.3.14.69.69,0,0,1,.08.36Zm-.54,0a.32.32,0,0,0,0,.17.16.16,0,0,0,.26,0,.32.32,0,0,0,0-.17v-.64a.36.36,0,0,0,0-.18.16.16,0,0,0-.26,0,.36.36,0,0,0,0,.18Z" style="fill: url(#未命名漸層_9-9)"/>
          <path d="M12.05,41.66h-.22V40.51h-.22v-.13a.88.88,0,0,0,.31-.22h.13Z" style="fill: url(#未命名漸層_9-10)"/>
          <path d="M13.19,41.18a.6.6,0,0,1-.08.36.35.35,0,0,1-.3.14.36.36,0,0,1-.3-.14.7.7,0,0,1-.07-.36v-.54a.7.7,0,0,1,.07-.36.36.36,0,0,1,.3-.14.35.35,0,0,1,.3.14.6.6,0,0,1,.08.36Zm-.54,0a.32.32,0,0,0,0,.17.14.14,0,0,0,.13.07.13.13,0,0,0,.13-.07s0-.07,0-.17v-.64c0-.11,0-.13,0-.18a.14.14,0,0,0-.13-.07.16.16,0,0,0-.13.07.36.36,0,0,0,0,.18Z" style="fill: url(#未命名漸層_9-11)"/>
          <path d="M13.89,41.66h-.22V40.51h-.21v-.13a.93.93,0,0,0,.3-.22h.13Z" style="fill: url(#未命名漸層_9-12)"/>
          <path d="M15,41.18a.6.6,0,0,1-.08.36.35.35,0,0,1-.3.14.33.33,0,0,1-.29-.14.6.6,0,0,1-.08-.36v-.54a.6.6,0,0,1,.08-.36.33.33,0,0,1,.29-.14.35.35,0,0,1,.3.14.6.6,0,0,1,.08.36Zm-.54,0a.32.32,0,0,0,0,.17.14.14,0,0,0,.13.07.13.13,0,0,0,.13-.07s0-.07,0-.17v-.64c0-.11,0-.13,0-.18a.14.14,0,0,0-.13-.07.16.16,0,0,0-.13.07.36.36,0,0,0,0,.18Z" style="fill: url(#未命名漸層_9-13)"/>
          <path d="M15.73,41.66h-.22V40.51H15.3v-.13a.93.93,0,0,0,.3-.22h.13Z" style="fill: url(#未命名漸層_9-14)"/>
          <path d="M16.87,41.18a.6.6,0,0,1-.08.36.34.34,0,0,1-.29.14.34.34,0,0,1-.3-.14.6.6,0,0,1-.08-.36v-.54a.6.6,0,0,1,.08-.36.34.34,0,0,1,.3-.14.34.34,0,0,1,.29.14.6.6,0,0,1,.08.36Zm-.53,0a.35.35,0,0,0,0,.17.14.14,0,0,0,.14.07.12.12,0,0,0,.12-.07s0-.07,0-.17v-.64c0-.11,0-.13,0-.18a.14.14,0,0,0-.12-.07.16.16,0,0,0-.14.07.39.39,0,0,0,0,.18Z" style="fill: url(#未命名漸層_9-15)"/>
          <path d="M17.57,41.66h-.22V40.51h-.21v-.13a.93.93,0,0,0,.3-.22h.13Z" style="fill: url(#未命名漸層_9-16)"/>
          <path d="M18.71,41.18a.6.6,0,0,1-.08.36.34.34,0,0,1-.29.14.35.35,0,0,1-.3-.14.6.6,0,0,1-.08-.36v-.54a.6.6,0,0,1,.08-.36.35.35,0,0,1,.3-.14.34.34,0,0,1,.29.14.6.6,0,0,1,.08.36Zm-.53,0a.35.35,0,0,0,0,.17.15.15,0,0,0,.14.07.15.15,0,0,0,.13-.07.35.35,0,0,0,0-.17v-.64a.39.39,0,0,0,0-.18.17.17,0,0,0-.13-.07.17.17,0,0,0-.14.07.39.39,0,0,0,0,.18Z" style="fill: url(#未命名漸層_9-17)"/>
          <path d="M19.41,41.66h-.22V40.51H19v-.13a.93.93,0,0,0,.3-.22h.13Z" style="fill: url(#未命名漸層_9-18)"/>
          <path d="M20.55,41.18a.6.6,0,0,1-.08.36.34.34,0,0,1-.29.14.35.35,0,0,1-.3-.14.6.6,0,0,1-.08-.36v-.54a.6.6,0,0,1,.08-.36.35.35,0,0,1,.3-.14.34.34,0,0,1,.29.14.6.6,0,0,1,.08.36Zm-.53,0a.35.35,0,0,0,0,.17.15.15,0,0,0,.14.07.14.14,0,0,0,.13-.07.35.35,0,0,0,0-.17v-.64a.39.39,0,0,0,0-.18.16.16,0,0,0-.13-.07.17.17,0,0,0-.14.07.39.39,0,0,0,0,.18Z" style="fill: url(#未命名漸層_9-19)"/>
          <path d="M21.47,41.18a.6.6,0,0,1-.08.36.33.33,0,0,1-.29.14.35.35,0,0,1-.3-.14.6.6,0,0,1-.08-.36v-.54a.6.6,0,0,1,.08-.36.35.35,0,0,1,.3-.14.33.33,0,0,1,.29.14.6.6,0,0,1,.08.36Zm-.53,0c0,.1,0,.13,0,.17a.13.13,0,0,0,.13.07.14.14,0,0,0,.13-.07.35.35,0,0,0,0-.17v-.64a.39.39,0,0,0,0-.18.16.16,0,0,0-.13-.07.14.14,0,0,0-.13.07c0,.05,0,.07,0,.18Z" style="fill: url(#未命名漸層_9-20)"/>
          <path d="M22.17,41.66H22V40.51h-.22v-.13a.93.93,0,0,0,.3-.22h.13Z" style="fill: url(#未命名漸層_9-21)"/>
          <path d="M23.31,41.18a.6.6,0,0,1-.08.36.33.33,0,0,1-.29.14.35.35,0,0,1-.3-.14.6.6,0,0,1-.08-.36v-.54a.6.6,0,0,1,.08-.36.35.35,0,0,1,.3-.14.33.33,0,0,1,.29.14.6.6,0,0,1,.08.36Zm-.53,0c0,.1,0,.13,0,.17a.13.13,0,0,0,.13.07.14.14,0,0,0,.13-.07.32.32,0,0,0,0-.17v-.64a.36.36,0,0,0,0-.18.16.16,0,0,0-.13-.07.14.14,0,0,0-.13.07c0,.05,0,.07,0,.18Z" style="fill: url(#未命名漸層_9-22)"/>
          <path d="M24,41.66H23.8V40.51h-.22v-.13a1.12,1.12,0,0,0,.31-.22H24Z" style="fill: url(#未命名漸層_9-23)"/>
          <path d="M24.93,41.66h-.21V40.51H24.5v-.13a1.12,1.12,0,0,0,.31-.22h.12Z" style="fill: url(#未命名漸層_9-24)"/>
          <path d="M26.07,41.18a.7.7,0,0,1-.07.36.36.36,0,0,1-.3.14.35.35,0,0,1-.3-.14.69.69,0,0,1-.08-.36v-.54a.69.69,0,0,1,.08-.36.35.35,0,0,1,.3-.14.36.36,0,0,1,.3.14.7.7,0,0,1,.07.36Zm-.53,0c0,.1,0,.13,0,.17a.16.16,0,0,0,.26,0,.32.32,0,0,0,0-.17v-.64a.36.36,0,0,0,0-.18.16.16,0,0,0-.26,0c0,.05,0,.07,0,.18Z" style="fill: url(#未命名漸層_9-25)"/>
          <path d="M26.78,41.66h-.22V40.51h-.22v-.13a1.12,1.12,0,0,0,.31-.22h.13Z" style="fill: url(#未命名漸層_9-26)"/>
          <path d="M27.92,41.18a.69.69,0,0,1-.08.36.39.39,0,0,1-.6,0,.69.69,0,0,1-.08-.36v-.54a.69.69,0,0,1,.08-.36.39.39,0,0,1,.6,0,.69.69,0,0,1,.08.36Zm-.54,0a.32.32,0,0,0,0,.17.16.16,0,0,0,.26,0,.32.32,0,0,0,0-.17v-.64a.36.36,0,0,0,0-.18.16.16,0,0,0-.26,0,.36.36,0,0,0,0,.18Z" style="fill: url(#未命名漸層_9-27)"/>
          <path d="M28.62,41.66H28.4V40.51h-.22v-.13a1.12,1.12,0,0,0,.31-.22h.13Z" style="fill: url(#未命名漸層_9-28)"/>
          <path d="M38.34,41.18a.7.7,0,0,1-.07.36.36.36,0,0,1-.3.14.35.35,0,0,1-.3-.14.6.6,0,0,1-.08-.36v-.54a.6.6,0,0,1,.08-.36.35.35,0,0,1,.3-.14.36.36,0,0,1,.3.14.7.7,0,0,1,.07.36Zm-.53,0c0,.1,0,.13,0,.17a.13.13,0,0,0,.13.07.14.14,0,0,0,.13-.07.32.32,0,0,0,0-.17v-.64a.36.36,0,0,0,0-.18.16.16,0,0,0-.13-.07.14.14,0,0,0-.13.07c0,.05,0,.07,0,.18Z" style="fill: url(#未命名漸層_9-29)"/>
          <path d="M39,41.66h-.21V40.51h-.22v-.13a1.12,1.12,0,0,0,.31-.22H39Z" style="fill: url(#未命名漸層_9-30)"/>
          <path d="M40,41.66h-.22V40.51h-.22v-.13a1.12,1.12,0,0,0,.31-.22H40Z" style="fill: url(#未命名漸層_9-31)"/>
          <path d="M40.89,41.66h-.22V40.51h-.22v-.13a1.12,1.12,0,0,0,.31-.22h.13Z" style="fill: url(#未命名漸層_9-32)"/>
          <path d="M42,41.18a.69.69,0,0,1-.08.36.39.39,0,0,1-.6,0,.69.69,0,0,1-.08-.36v-.54a.69.69,0,0,1,.08-.36.39.39,0,0,1,.6,0,.69.69,0,0,1,.08.36Zm-.54,0a.32.32,0,0,0,0,.17.16.16,0,0,0,.26,0,.32.32,0,0,0,0-.17v-.64a.36.36,0,0,0,0-.18.16.16,0,0,0-.26,0,.36.36,0,0,0,0,.18Z" style="fill: url(#未命名漸層_9-33)"/>
          <path d="M42.73,41.66h-.22V40.51h-.22v-.13a1.12,1.12,0,0,0,.31-.22h.13Z" style="fill: url(#未命名漸層_9-34)"/>
          <path d="M43.87,41.18a.69.69,0,0,1-.08.36.35.35,0,0,1-.3.14.36.36,0,0,1-.3-.14.7.7,0,0,1-.07-.36v-.54a.7.7,0,0,1,.07-.36.36.36,0,0,1,.3-.14.35.35,0,0,1,.3.14.69.69,0,0,1,.08.36Zm-.54,0a.32.32,0,0,0,0,.17.16.16,0,0,0,.26,0,.32.32,0,0,0,0-.17v-.64a.36.36,0,0,0,0-.18.16.16,0,0,0-.26,0,.36.36,0,0,0,0,.18Z" style="fill: url(#未命名漸層_9-35)"/>
          <path d="M44.57,41.66h-.22V40.51h-.22v-.13a.88.88,0,0,0,.31-.22h.13Z" style="fill: url(#未命名漸層_9-36)"/>
          <path d="M45.49,41.66h-.22V40.51h-.22v-.13a.88.88,0,0,0,.31-.22h.13Z" style="fill: url(#未命名漸層_9-37)"/>
          <path d="M46.41,41.66h-.22V40.51H46v-.13a.93.93,0,0,0,.3-.22h.13Z" style="fill: url(#未命名漸層_9-38)"/>
          <path d="M47.33,41.66h-.22V40.51H46.9v-.13a.93.93,0,0,0,.3-.22h.13Z" style="fill: url(#未命名漸層_9-39)"/>
          <path d="M48.47,41.18a.6.6,0,0,1-.08.36.35.35,0,0,1-.3.14.33.33,0,0,1-.29-.14.6.6,0,0,1-.08-.36v-.54a.6.6,0,0,1,.08-.36.33.33,0,0,1,.29-.14.35.35,0,0,1,.3.14.6.6,0,0,1,.08.36Zm-.53,0a.35.35,0,0,0,0,.17.14.14,0,0,0,.13.07.13.13,0,0,0,.13-.07s0-.07,0-.17v-.64c0-.11,0-.13,0-.18a.14.14,0,0,0-.13-.07.16.16,0,0,0-.13.07.39.39,0,0,0,0,.18Z" style="fill: url(#未命名漸層_9-40)"/>
          <path d="M49.17,41.66H49V40.51h-.21v-.13a.93.93,0,0,0,.3-.22h.13Z" style="fill: url(#未命名漸層_9-41)"/>
          <path d="M50.31,41.18a.6.6,0,0,1-.08.36.34.34,0,0,1-.29.14.35.35,0,0,1-.3-.14.6.6,0,0,1-.08-.36v-.54a.6.6,0,0,1,.08-.36.35.35,0,0,1,.3-.14.34.34,0,0,1,.29.14.6.6,0,0,1,.08.36Zm-.53,0a.35.35,0,0,0,0,.17.14.14,0,0,0,.14.07.15.15,0,0,0,.13-.07.35.35,0,0,0,0-.17v-.64a.39.39,0,0,0,0-.18.17.17,0,0,0-.13-.07.16.16,0,0,0-.14.07.39.39,0,0,0,0,.18Z" style="fill: url(#未命名漸層_9-42)"/>
          <path d="M51,41.66h-.22V40.51h-.21v-.13a.93.93,0,0,0,.3-.22H51Z" style="fill: url(#未命名漸層_9-43)"/>
          <path d="M52.15,41.18a.6.6,0,0,1-.08.36.34.34,0,0,1-.29.14.35.35,0,0,1-.3-.14.6.6,0,0,1-.08-.36v-.54a.6.6,0,0,1,.08-.36.35.35,0,0,1,.3-.14.34.34,0,0,1,.29.14.6.6,0,0,1,.08.36Zm-.53,0a.35.35,0,0,0,0,.17.15.15,0,0,0,.14.07.15.15,0,0,0,.13-.07.35.35,0,0,0,0-.17v-.64a.39.39,0,0,0,0-.18.17.17,0,0,0-.13-.07.17.17,0,0,0-.14.07.39.39,0,0,0,0,.18Z" style="fill: url(#未命名漸層_9-44)"/>
          <path d="M52.85,41.66h-.22V40.51h-.21v-.13a.93.93,0,0,0,.3-.22h.13Z" style="fill: url(#未命名漸層_9-45)"/>
          <path d="M54,41.18a.6.6,0,0,1-.08.36.33.33,0,0,1-.29.14.35.35,0,0,1-.3-.14.6.6,0,0,1-.08-.36v-.54a.6.6,0,0,1,.08-.36.35.35,0,0,1,.3-.14.33.33,0,0,1,.29.14.6.6,0,0,1,.08.36Zm-.53,0c0,.1,0,.13,0,.17a.13.13,0,0,0,.13.07.14.14,0,0,0,.13-.07.35.35,0,0,0,0-.17v-.64a.39.39,0,0,0,0-.18.16.16,0,0,0-.13-.07.14.14,0,0,0-.13.07c0,.05,0,.07,0,.18Z" style="fill: url(#未命名漸層_9-46)"/>
          <path d="M54.69,41.66h-.22V40.51h-.21v-.13a.93.93,0,0,0,.3-.22h.13Z" style="fill: url(#未命名漸層_9-47)"/>
          <path d="M55.61,41.66H55.4V40.51h-.22v-.13a1.12,1.12,0,0,0,.31-.22h.12Z" style="fill: url(#未命名漸層_9-48)"/>
          <path d="M56.53,41.66h-.21V40.51H56.1v-.13a1.12,1.12,0,0,0,.31-.22h.12Z" style="fill: url(#未命名漸層_9-49)"/>
          <path d="M57.67,41.18a.7.7,0,0,1-.07.36.36.36,0,0,1-.3.14.35.35,0,0,1-.3-.14.6.6,0,0,1-.08-.36v-.54a.6.6,0,0,1,.08-.36.35.35,0,0,1,.3-.14.36.36,0,0,1,.3.14.7.7,0,0,1,.07.36Zm-.53,0c0,.1,0,.13,0,.17a.13.13,0,0,0,.13.07.14.14,0,0,0,.13-.07.32.32,0,0,0,0-.17v-.64a.36.36,0,0,0,0-.18.16.16,0,0,0-.13-.07.14.14,0,0,0-.13.07c0,.05,0,.07,0,.18Z" style="fill: url(#未命名漸層_9-50)"/>
          <path d="M58.37,41.66h-.21V40.51h-.22v-.13a1.12,1.12,0,0,0,.31-.22h.12Z" style="fill: url(#未命名漸層_9-51)"/>
          <path d="M59.51,41.18a.7.7,0,0,1-.07.36.36.36,0,0,1-.3.14.35.35,0,0,1-.3-.14.69.69,0,0,1-.08-.36v-.54a.69.69,0,0,1,.08-.36.35.35,0,0,1,.3-.14.36.36,0,0,1,.3.14.7.7,0,0,1,.07.36Zm-.53,0a.32.32,0,0,0,0,.17.16.16,0,0,0,.26,0,.32.32,0,0,0,0-.17v-.64a.36.36,0,0,0,0-.18.16.16,0,0,0-.26,0,.36.36,0,0,0,0,.18Z" style="fill: url(#未命名漸層_9-52)"/>
          <path d="M60.44,41.18a.69.69,0,0,1-.08.36.39.39,0,0,1-.6,0,.69.69,0,0,1-.08-.36v-.54a.69.69,0,0,1,.08-.36.39.39,0,0,1,.6,0,.69.69,0,0,1,.08.36Zm-.54,0a.32.32,0,0,0,0,.17.16.16,0,0,0,.26,0,.32.32,0,0,0,0-.17v-.64a.36.36,0,0,0,0-.18.16.16,0,0,0-.26,0,.36.36,0,0,0,0,.18Z" style="fill: url(#未命名漸層_9-53)"/>
          <path d="M61.14,41.66h-.22V40.51H60.7v-.13a1.12,1.12,0,0,0,.31-.22h.13Z" style="fill: url(#未命名漸層_9-54)"/>
        </g>
        <g>
          <path d="M5.13,38.44a.62.62,0,0,1-.08.35.36.36,0,0,1-.3.15.37.37,0,0,1-.3-.15.63.63,0,0,1-.07-.35v-.55a.63.63,0,0,1,.07-.35.37.37,0,0,1,.3-.15.36.36,0,0,1,.3.15.62.62,0,0,1,.08.35Zm-.54.05a.32.32,0,0,0,0,.17.16.16,0,0,0,.26,0,.32.32,0,0,0,0-.17v-.64a.34.34,0,0,0,0-.18.16.16,0,0,0-.26,0,.34.34,0,0,0,0,.18Z" style="fill: url(#未命名漸層_9-55)"/>
          <path d="M5.83,38.91H5.61V37.77H5.39v-.14a.76.76,0,0,0,.31-.21h.13Z" style="fill: url(#未命名漸層_9-56)"/>
          <path d="M7,38.44a.55.55,0,0,1-.08.35.36.36,0,0,1-.3.15.37.37,0,0,1-.3-.15.63.63,0,0,1-.07-.35v-.55a.63.63,0,0,1,.07-.35.37.37,0,0,1,.3-.15.36.36,0,0,1,.3.15.55.55,0,0,1,.08.35Zm-.54.05a.32.32,0,0,0,0,.17.16.16,0,0,0,.13.07.14.14,0,0,0,.13-.07s0-.07,0-.17v-.64c0-.11,0-.14,0-.18a.14.14,0,0,0-.13-.07.16.16,0,0,0-.13.07.34.34,0,0,0,0,.18Z" style="fill: url(#未命名漸層_9-57)"/>
          <path d="M7.89,38.44a.55.55,0,0,1-.08.35.36.36,0,0,1-.3.15.34.34,0,0,1-.29-.15.55.55,0,0,1-.08-.35v-.55a.55.55,0,0,1,.08-.35.34.34,0,0,1,.29-.15.36.36,0,0,1,.3.15.55.55,0,0,1,.08.35Zm-.54.05a.32.32,0,0,0,0,.17.16.16,0,0,0,.13.07.14.14,0,0,0,.13-.07s0-.07,0-.17v-.64c0-.11,0-.14,0-.18a.14.14,0,0,0-.13-.07.16.16,0,0,0-.13.07.34.34,0,0,0,0,.18Z" style="fill: url(#未命名漸層_9-58)"/>
          <path d="M8.81,38.44a.55.55,0,0,1-.08.35.36.36,0,0,1-.3.15.34.34,0,0,1-.29-.15.55.55,0,0,1-.08-.35v-.55a.55.55,0,0,1,.08-.35.34.34,0,0,1,.29-.15.36.36,0,0,1,.3.15.55.55,0,0,1,.08.35Zm-.54.05a.32.32,0,0,0,0,.17.16.16,0,0,0,.13.07.14.14,0,0,0,.13-.07s0-.07,0-.17v-.64c0-.11,0-.14,0-.18a.14.14,0,0,0-.13-.07.16.16,0,0,0-.13.07.34.34,0,0,0,0,.18Z" style="fill: url(#未命名漸層_9-59)"/>
          <path d="M9.51,38.91H9.29V37.77H9.08v-.14a.79.79,0,0,0,.3-.21h.13Z" style="fill: url(#未命名漸層_9-60)"/>
          <path d="M10.65,38.44a.55.55,0,0,1-.08.35.35.35,0,0,1-.29.15.36.36,0,0,1-.3-.15.55.55,0,0,1-.08-.35v-.55a.55.55,0,0,1,.08-.35.36.36,0,0,1,.3-.15.35.35,0,0,1,.29.15.55.55,0,0,1,.08.35Zm-.53.05a.35.35,0,0,0,0,.17.16.16,0,0,0,.14.07.17.17,0,0,0,.13-.07.35.35,0,0,0,0-.17v-.64a.37.37,0,0,0,0-.18.17.17,0,0,0-.13-.07.16.16,0,0,0-.14.07.37.37,0,0,0,0,.18Z" style="fill: url(#未命名漸層_9-61)"/>
          <path d="M11.35,38.91h-.22V37.77h-.21v-.14a.79.79,0,0,0,.3-.21h.13Z" style="fill: url(#未命名漸層_9-62)"/>
          <path d="M12.49,38.44a.55.55,0,0,1-.08.35.35.35,0,0,1-.29.15.36.36,0,0,1-.3-.15.55.55,0,0,1-.08-.35v-.55a.55.55,0,0,1,.08-.35.36.36,0,0,1,.3-.15.35.35,0,0,1,.29.15.55.55,0,0,1,.08.35Zm-.53.05a.35.35,0,0,0,0,.17.17.17,0,0,0,.14.07.17.17,0,0,0,.13-.07.35.35,0,0,0,0-.17v-.64a.37.37,0,0,0,0-.18.17.17,0,0,0-.13-.07.17.17,0,0,0-.14.07.37.37,0,0,0,0,.18Z" style="fill: url(#未命名漸層_9-63)"/>
          <path d="M13.19,38.91H13V37.77h-.21v-.14a.79.79,0,0,0,.3-.21h.13Z" style="fill: url(#未命名漸層_9-64)"/>
          <path d="M14.33,38.44a.55.55,0,0,1-.08.35.35.35,0,0,1-.29.15.36.36,0,0,1-.3-.15.55.55,0,0,1-.08-.35v-.55a.55.55,0,0,1,.08-.35.36.36,0,0,1,.3-.15.35.35,0,0,1,.29.15.55.55,0,0,1,.08.35Zm-.53.05a.35.35,0,0,0,0,.17.17.17,0,0,0,.14.07.16.16,0,0,0,.13-.07.35.35,0,0,0,0-.17v-.64a.37.37,0,0,0,0-.18A.16.16,0,0,0,14,37.6a.17.17,0,0,0-.14.07.37.37,0,0,0,0,.18Z" style="fill: url(#未命名漸層_9-65)"/>
          <path d="M15,38.91h-.22V37.77H14.6v-.14a.79.79,0,0,0,.3-.21H15Z" style="fill: url(#未命名漸層_9-66)"/>
          <path d="M16.17,38.44a.55.55,0,0,1-.08.35.34.34,0,0,1-.29.15.36.36,0,0,1-.3-.15.55.55,0,0,1-.08-.35v-.55a.55.55,0,0,1,.08-.35.36.36,0,0,1,.3-.15.34.34,0,0,1,.29.15.55.55,0,0,1,.08.35Zm-.53.05c0,.1,0,.13,0,.17a.14.14,0,0,0,.13.07.16.16,0,0,0,.13-.07.32.32,0,0,0,0-.17v-.64a.34.34,0,0,0,0-.18.16.16,0,0,0-.13-.07.14.14,0,0,0-.13.07s0,.07,0,.18Z" style="fill: url(#未命名漸層_9-67)"/>
          <path d="M16.87,38.91h-.21V37.77h-.22v-.14a.93.93,0,0,0,.31-.21h.12Z" style="fill: url(#未命名漸層_9-68)"/>
          <path d="M17.79,38.91h-.21V37.77h-.22v-.14a.93.93,0,0,0,.31-.21h.12Z" style="fill: url(#未命名漸層_9-69)"/>
          <path d="M18.93,38.44a.63.63,0,0,1-.07.35.37.37,0,0,1-.3.15.36.36,0,0,1-.3-.15.55.55,0,0,1-.08-.35v-.55a.55.55,0,0,1,.08-.35.36.36,0,0,1,.3-.15.37.37,0,0,1,.3.15.63.63,0,0,1,.07.35Zm-.53.05c0,.1,0,.13,0,.17a.14.14,0,0,0,.13.07.16.16,0,0,0,.13-.07.32.32,0,0,0,0-.17v-.64a.34.34,0,0,0,0-.18.16.16,0,0,0-.13-.07.14.14,0,0,0-.13.07s0,.07,0,.18Z" style="fill: url(#未命名漸層_9-70)"/>
          <path d="M19.63,38.91h-.21V37.77H19.2v-.14a.93.93,0,0,0,.31-.21h.12Z" style="fill: url(#未命名漸層_9-71)"/>
          <path d="M20.78,38.44a.62.62,0,0,1-.08.35.37.37,0,0,1-.3.15.36.36,0,0,1-.3-.15.62.62,0,0,1-.08-.35v-.55a.62.62,0,0,1,.08-.35.36.36,0,0,1,.3-.15.37.37,0,0,1,.3.15.62.62,0,0,1,.08.35Zm-.54.05a.32.32,0,0,0,0,.17.16.16,0,0,0,.26,0,.32.32,0,0,0,0-.17v-.64a.34.34,0,0,0,0-.18.16.16,0,0,0-.26,0,.34.34,0,0,0,0,.18Z" style="fill: url(#未命名漸層_9-72)"/>
          <path d="M21.48,38.91h-.22V37.77H21v-.14a.93.93,0,0,0,.31-.21h.13Z" style="fill: url(#未命名漸層_9-73)"/>
        </g>
        <g>
          <path d="M3.86,33.44a.67.67,0,0,1-.07.36.36.36,0,0,1-.3.14.35.35,0,0,1-.3-.14.6.6,0,0,1-.08-.36V32.9a.55.55,0,0,1,.08-.35.33.33,0,0,1,.3-.15.34.34,0,0,1,.3.15.63.63,0,0,1,.07.35Zm-.53.05a.29.29,0,0,0,0,.18.14.14,0,0,0,.13.07.16.16,0,0,0,.13-.07.36.36,0,0,0,0-.18v-.64a.32.32,0,0,0,0-.17.14.14,0,0,0-.13-.07.13.13,0,0,0-.13.07s0,.07,0,.17Z" style="fill: url(#未命名漸層_9-74)"/>
          <path d="M4.56,33.92H4.35V32.78H4.13v-.14a1,1,0,0,0,.31-.22h.12Z" style="fill: url(#未命名漸層_9-75)"/>
          <path d="M5.7,33.44a.67.67,0,0,1-.07.36.36.36,0,0,1-.3.14A.35.35,0,0,1,5,33.8.69.69,0,0,1,5,33.44V32.9A.62.62,0,0,1,5,32.55a.33.33,0,0,1,.3-.15.34.34,0,0,1,.3.15.63.63,0,0,1,.07.35Zm-.53.05a.39.39,0,0,0,0,.18.16.16,0,0,0,.26,0,.36.36,0,0,0,0-.18v-.64a.32.32,0,0,0,0-.17.16.16,0,0,0-.26,0,.32.32,0,0,0,0,.17Z" style="fill: url(#未命名漸層_9-76)"/>
          <path d="M6.63,33.44a.66.66,0,0,1-.08.36.36.36,0,0,1-.3.14A.35.35,0,0,1,6,33.8a.69.69,0,0,1-.08-.36V32.9A.62.62,0,0,1,6,32.55a.33.33,0,0,1,.3-.15.34.34,0,0,1,.3.15.62.62,0,0,1,.08.35Zm-.54.05a.39.39,0,0,0,0,.18.16.16,0,0,0,.26,0,.36.36,0,0,0,0-.18v-.64a.32.32,0,0,0,0-.17.16.16,0,0,0-.26,0,.32.32,0,0,0,0,.17Z" style="fill: url(#未命名漸層_9-77)"/>
          <path d="M7.55,33.44a.66.66,0,0,1-.08.36.39.39,0,0,1-.6,0,.69.69,0,0,1-.08-.36V32.9a.62.62,0,0,1,.08-.35.38.38,0,0,1,.6,0,.62.62,0,0,1,.08.35ZM7,33.49a.39.39,0,0,0,0,.18.16.16,0,0,0,.26,0,.36.36,0,0,0,0-.18v-.64a.32.32,0,0,0,0-.17.16.16,0,0,0-.26,0,.32.32,0,0,0,0,.17Z" style="fill: url(#未命名漸層_9-78)"/>
          <path d="M8.25,33.92H8V32.78H7.81v-.14a1,1,0,0,0,.31-.22h.13Z" style="fill: url(#未命名漸層_9-79)"/>
          <path d="M9.39,33.44a.66.66,0,0,1-.08.36.35.35,0,0,1-.3.14.36.36,0,0,1-.3-.14.69.69,0,0,1-.08-.36V32.9a.62.62,0,0,1,.08-.35A.34.34,0,0,1,9,32.4a.33.33,0,0,1,.3.15.62.62,0,0,1,.08.35Zm-.54.05a.39.39,0,0,0,0,.18.16.16,0,0,0,.26,0,.36.36,0,0,0,0-.18v-.64a.32.32,0,0,0,0-.17.16.16,0,0,0-.26,0,.32.32,0,0,0,0,.17Z" style="fill: url(#未命名漸層_9-80)"/>
          <path d="M10.09,33.92H9.87V32.78H9.65v-.14a.77.77,0,0,0,.31-.22h.13Z" style="fill: url(#未命名漸層_9-81)"/>
          <path d="M11.23,33.44a.58.58,0,0,1-.08.36.35.35,0,0,1-.3.14.36.36,0,0,1-.3-.14.7.7,0,0,1-.07-.36V32.9a.63.63,0,0,1,.07-.35.34.34,0,0,1,.3-.15.33.33,0,0,1,.3.15.55.55,0,0,1,.08.35Zm-.54.05a.39.39,0,0,0,0,.18.16.16,0,0,0,.13.07.14.14,0,0,0,.13-.07c0-.05,0-.07,0-.18v-.64c0-.1,0-.13,0-.17a.13.13,0,0,0-.13-.07.14.14,0,0,0-.13.07.32.32,0,0,0,0,.17Z" style="fill: url(#未命名漸層_9-82)"/>
          <path d="M11.93,33.92h-.22V32.78H11.5v-.14a.81.81,0,0,0,.3-.22h.13Z" style="fill: url(#未命名漸層_9-83)"/>
          <path d="M13.07,33.44a.58.58,0,0,1-.08.36.35.35,0,0,1-.3.14.33.33,0,0,1-.29-.14.6.6,0,0,1-.08-.36V32.9a.55.55,0,0,1,.08-.35.32.32,0,0,1,.29-.15.33.33,0,0,1,.3.15.55.55,0,0,1,.08.35Zm-.54.05a.39.39,0,0,0,0,.18.16.16,0,0,0,.13.07.14.14,0,0,0,.13-.07c0-.05,0-.07,0-.18v-.64c0-.1,0-.13,0-.17a.13.13,0,0,0-.13-.07.14.14,0,0,0-.13.07.32.32,0,0,0,0,.17Z" style="fill: url(#未命名漸層_9-84)"/>
          <path d="M13.77,33.92h-.22V32.78h-.21v-.14a.81.81,0,0,0,.3-.22h.13Z" style="fill: url(#未命名漸層_9-85)"/>
          <path d="M14.91,33.44a.58.58,0,0,1-.08.36.35.35,0,0,1-.3.14.33.33,0,0,1-.29-.14.6.6,0,0,1-.08-.36V32.9a.55.55,0,0,1,.08-.35.32.32,0,0,1,.29-.15.33.33,0,0,1,.3.15.55.55,0,0,1,.08.35Zm-.53.05a.42.42,0,0,0,0,.18.16.16,0,0,0,.13.07.17.17,0,0,0,.14-.07.39.39,0,0,0,0-.18v-.64a.35.35,0,0,0,0-.17.15.15,0,0,0-.14-.07.14.14,0,0,0-.13.07.35.35,0,0,0,0,.17Z" style="fill: url(#未命名漸層_9-86)"/>
          <path d="M15.61,33.92h-.22V32.78h-.21v-.14a.81.81,0,0,0,.3-.22h.13Z" style="fill: url(#未命名漸層_9-87)"/>
          <path d="M16.53,33.92h-.22V32.78H16.1v-.14a.81.81,0,0,0,.3-.22h.13Z" style="fill: url(#未命名漸層_9-88)"/>
          <path d="M17.67,33.44a.58.58,0,0,1-.08.36.34.34,0,0,1-.29.14.35.35,0,0,1-.3-.14.6.6,0,0,1-.08-.36V32.9a.55.55,0,0,1,.08-.35.33.33,0,0,1,.3-.15.33.33,0,0,1,.29.15.55.55,0,0,1,.08.35Zm-.53.05a.42.42,0,0,0,0,.18.17.17,0,0,0,.14.07.17.17,0,0,0,.13-.07.39.39,0,0,0,0-.18v-.64a.35.35,0,0,0,0-.17.15.15,0,0,0-.13-.07.15.15,0,0,0-.14.07.35.35,0,0,0,0,.17Z" style="fill: url(#未命名漸層_9-89)"/>
          <path d="M18.37,33.92h-.22V32.78h-.21v-.14a.81.81,0,0,0,.3-.22h.13Z" style="fill: url(#未命名漸層_9-90)"/>
          <path d="M19.51,33.44a.58.58,0,0,1-.08.36.33.33,0,0,1-.29.14.35.35,0,0,1-.3-.14.6.6,0,0,1-.08-.36V32.9a.55.55,0,0,1,.08-.35.33.33,0,0,1,.3-.15.32.32,0,0,1,.29.15.55.55,0,0,1,.08.35Zm-.53.05a.29.29,0,0,0,0,.18.14.14,0,0,0,.13.07.16.16,0,0,0,.13-.07.39.39,0,0,0,0-.18v-.64a.35.35,0,0,0,0-.17.14.14,0,0,0-.13-.07.13.13,0,0,0-.13.07s0,.07,0,.17Z" style="fill: url(#未命名漸層_9-91)"/>
          <path d="M20.21,33.92H20V32.78h-.21v-.14a.81.81,0,0,0,.3-.22h.13Z" style="fill: url(#未命名漸層_9-92)"/>
        </g>
        <g>
          <path d="M45.32,32.86a.55.55,0,0,1-.08.35.32.32,0,0,1-.29.15.33.33,0,0,1-.3-.15.55.55,0,0,1-.08-.35v-.55a.55.55,0,0,1,.08-.35.35.35,0,0,1,.3-.14.33.33,0,0,1,.29.14.55.55,0,0,1,.08.35Zm-.53,0a.35.35,0,0,0,0,.17.15.15,0,0,0,.14.07.14.14,0,0,0,.13-.07.35.35,0,0,0,0-.17v-.64a.37.37,0,0,0,0-.18A.16.16,0,0,0,45,32a.17.17,0,0,0-.14.07.37.37,0,0,0,0,.18Z" style="fill: url(#未命名漸層_9-93)"/>
          <path d="M46,33.33H45.8V32.19h-.21v-.14a.79.79,0,0,0,.3-.21H46Z" style="fill: url(#未命名漸層_9-94)"/>
          <path d="M47.16,32.86a.55.55,0,0,1-.08.35.32.32,0,0,1-.29.15.33.33,0,0,1-.3-.15.55.55,0,0,1-.08-.35v-.55a.55.55,0,0,1,.08-.35.35.35,0,0,1,.3-.14.33.33,0,0,1,.29.14.55.55,0,0,1,.08.35Zm-.53,0c0,.1,0,.13,0,.17a.13.13,0,0,0,.13.07.14.14,0,0,0,.13-.07.32.32,0,0,0,0-.17v-.64a.34.34,0,0,0,0-.18.16.16,0,0,0-.13-.07.14.14,0,0,0-.13.07s0,.07,0,.18Z" style="fill: url(#未命名漸層_9-95)"/>
          <path d="M48.08,32.86a.55.55,0,0,1-.08.35.32.32,0,0,1-.29.15.33.33,0,0,1-.3-.15.55.55,0,0,1-.08-.35v-.55a.55.55,0,0,1,.08-.35.35.35,0,0,1,.3-.14A.33.33,0,0,1,48,32a.55.55,0,0,1,.08.35Zm-.53,0c0,.1,0,.13,0,.17a.13.13,0,0,0,.13.07.14.14,0,0,0,.13-.07.32.32,0,0,0,0-.17v-.64a.34.34,0,0,0,0-.18.16.16,0,0,0-.13-.07.14.14,0,0,0-.13.07s0,.07,0,.18Z" style="fill: url(#未命名漸層_9-96)"/>
          <path d="M49,32.86a.63.63,0,0,1-.07.35.34.34,0,0,1-.3.15.33.33,0,0,1-.3-.15.55.55,0,0,1-.08-.35v-.55a.55.55,0,0,1,.08-.35.35.35,0,0,1,.3-.14.36.36,0,0,1,.3.14.63.63,0,0,1,.07.35Zm-.53,0c0,.1,0,.13,0,.17a.13.13,0,0,0,.13.07.14.14,0,0,0,.13-.07.32.32,0,0,0,0-.17v-.64a.34.34,0,0,0,0-.18.16.16,0,0,0-.13-.07.14.14,0,0,0-.13.07s0,.07,0,.18Z" style="fill: url(#未命名漸層_9-97)"/>
          <path d="M49.7,33.33h-.21V32.19h-.22v-.14a.93.93,0,0,0,.31-.21h.12Z" style="fill: url(#未命名漸層_9-98)"/>
          <path d="M50.84,32.86a.63.63,0,0,1-.07.35.34.34,0,0,1-.3.15.33.33,0,0,1-.3-.15.62.62,0,0,1-.08-.35v-.55a.62.62,0,0,1,.08-.35.35.35,0,0,1,.3-.14.36.36,0,0,1,.3.14.63.63,0,0,1,.07.35Zm-.53,0a.32.32,0,0,0,0,.17.16.16,0,0,0,.26,0,.32.32,0,0,0,0-.17v-.64a.34.34,0,0,0,0-.18.16.16,0,0,0-.26,0,.34.34,0,0,0,0,.18Z" style="fill: url(#未命名漸層_9-99)"/>
          <path d="M51.55,33.33h-.22V32.19h-.22v-.14a.93.93,0,0,0,.31-.21h.13Z" style="fill: url(#未命名漸層_9-100)"/>
          <path d="M52.69,32.86a.62.62,0,0,1-.08.35.38.38,0,0,1-.6,0,.62.62,0,0,1-.08-.35v-.55A.62.62,0,0,1,52,32a.39.39,0,0,1,.6,0,.62.62,0,0,1,.08.35Zm-.54,0a.32.32,0,0,0,0,.17.16.16,0,0,0,.26,0,.32.32,0,0,0,0-.17v-.64a.34.34,0,0,0,0-.18.16.16,0,0,0-.26,0,.34.34,0,0,0,0,.18Z" style="fill: url(#未命名漸層_9-101)"/>
          <path d="M53.39,33.33h-.22V32.19H53v-.14a.93.93,0,0,0,.31-.21h.13Z" style="fill: url(#未命名漸層_9-102)"/>
          <path d="M54.53,32.86a.62.62,0,0,1-.08.35.33.33,0,0,1-.3.15.34.34,0,0,1-.3-.15.62.62,0,0,1-.08-.35v-.55a.62.62,0,0,1,.08-.35.36.36,0,0,1,.3-.14.35.35,0,0,1,.3.14.62.62,0,0,1,.08.35Zm-.54,0a.32.32,0,0,0,0,.17.16.16,0,0,0,.26,0,.32.32,0,0,0,0-.17v-.64a.34.34,0,0,0,0-.18.16.16,0,0,0-.26,0,.34.34,0,0,0,0,.18Z" style="fill: url(#未命名漸層_9-103)"/>
          <path d="M55.23,33.33H55V32.19h-.22v-.14a.76.76,0,0,0,.31-.21h.13Z" style="fill: url(#未命名漸層_9-104)"/>
          <path d="M56.37,32.86a.55.55,0,0,1-.08.35.33.33,0,0,1-.3.15.34.34,0,0,1-.3-.15.63.63,0,0,1-.07-.35v-.55a.63.63,0,0,1,.07-.35.36.36,0,0,1,.3-.14.35.35,0,0,1,.3.14.55.55,0,0,1,.08.35Zm-.54,0a.32.32,0,0,0,0,.17.14.14,0,0,0,.13.07.13.13,0,0,0,.13-.07s0-.07,0-.17v-.64c0-.11,0-.14,0-.18A.14.14,0,0,0,56,32a.16.16,0,0,0-.13.07.34.34,0,0,0,0,.18Z" style="fill: url(#未命名漸層_9-105)"/>
          <path d="M57.07,33.33h-.22V32.19h-.22v-.14a.76.76,0,0,0,.31-.21h.13Z" style="fill: url(#未命名漸層_9-106)"/>
          <path d="M58,33.33h-.22V32.19h-.21v-.14a.79.79,0,0,0,.3-.21H58Z" style="fill: url(#未命名漸層_9-107)"/>
          <path d="M59.13,32.86a.55.55,0,0,1-.08.35.33.33,0,0,1-.3.15.32.32,0,0,1-.29-.15.55.55,0,0,1-.08-.35v-.55a.55.55,0,0,1,.08-.35.33.33,0,0,1,.29-.14.35.35,0,0,1,.3.14.55.55,0,0,1,.08.35Zm-.54,0a.32.32,0,0,0,0,.17.14.14,0,0,0,.13.07.13.13,0,0,0,.13-.07s0-.07,0-.17v-.64c0-.11,0-.14,0-.18a.14.14,0,0,0-.13-.07.16.16,0,0,0-.13.07.34.34,0,0,0,0,.18Z" style="fill: url(#未命名漸層_9-108)"/>
          <path d="M59.83,33.33h-.22V32.19H59.4v-.14a.79.79,0,0,0,.3-.21h.13Z" style="fill: url(#未命名漸層_9-109)"/>
          <path d="M61,32.86a.55.55,0,0,1-.08.35.33.33,0,0,1-.29.15.33.33,0,0,1-.3-.15.55.55,0,0,1-.08-.35v-.55A.55.55,0,0,1,60.3,32a.35.35,0,0,1,.3-.14.34.34,0,0,1,.29.14.55.55,0,0,1,.08.35Zm-.53,0a.35.35,0,0,0,0,.17.14.14,0,0,0,.14.07.15.15,0,0,0,.13-.07.35.35,0,0,0,0-.17v-.64a.37.37,0,0,0,0-.18A.17.17,0,0,0,60.6,32a.16.16,0,0,0-.14.07.37.37,0,0,0,0,.18Z" style="fill: url(#未命名漸層_9-110)"/>
          <path d="M61.67,33.33h-.22V32.19h-.21v-.14a.79.79,0,0,0,.3-.21h.13Z" style="fill: url(#未命名漸層_9-111)"/>
        </g>
        <g>
          <path d="M5.93,31.24a.6.6,0,0,1-.08.36.34.34,0,0,1-.29.14.35.35,0,0,1-.3-.14.6.6,0,0,1-.08-.36V30.7a.6.6,0,0,1,.08-.36.35.35,0,0,1,.3-.14.34.34,0,0,1,.29.14.58.58,0,0,1,.08.36Zm-.53.05a.35.35,0,0,0,0,.17.15.15,0,0,0,.14.07.15.15,0,0,0,.13-.07.35.35,0,0,0,0-.17v-.64a.39.39,0,0,0,0-.18.17.17,0,0,0-.13-.07.17.17,0,0,0-.14.07.39.39,0,0,0,0,.18Z" style="fill: url(#未命名漸層_9-112)"/>
          <path d="M6.63,31.72H6.41V30.57H6.2v-.14a.79.79,0,0,0,.3-.21h.13Z" style="fill: url(#未命名漸層_9-113)"/>
          <path d="M7.77,31.24a.6.6,0,0,1-.08.36.34.34,0,0,1-.29.14.35.35,0,0,1-.3-.14A.6.6,0,0,1,7,31.24V30.7a.6.6,0,0,1,.08-.36.35.35,0,0,1,.3-.14.34.34,0,0,1,.29.14.58.58,0,0,1,.08.36Zm-.53.05a.35.35,0,0,0,0,.17.15.15,0,0,0,.14.07.14.14,0,0,0,.13-.07.35.35,0,0,0,0-.17v-.64a.39.39,0,0,0,0-.18.16.16,0,0,0-.13-.07.17.17,0,0,0-.14.07.39.39,0,0,0,0,.18Z" style="fill: url(#未命名漸層_9-114)"/>
          <path d="M8.69,31.24a.6.6,0,0,1-.08.36.33.33,0,0,1-.29.14A.35.35,0,0,1,8,31.6a.6.6,0,0,1-.08-.36V30.7A.6.6,0,0,1,8,30.34a.35.35,0,0,1,.3-.14.33.33,0,0,1,.29.14.58.58,0,0,1,.08.36Zm-.53.05c0,.1,0,.13,0,.17a.13.13,0,0,0,.13.07.14.14,0,0,0,.13-.07.35.35,0,0,0,0-.17v-.64a.39.39,0,0,0,0-.18.16.16,0,0,0-.13-.07.14.14,0,0,0-.13.07c0,.05,0,.07,0,.18Z" style="fill: url(#未命名漸層_9-115)"/>
          <path d="M9.61,31.24a.6.6,0,0,1-.08.36.33.33,0,0,1-.29.14.35.35,0,0,1-.3-.14.6.6,0,0,1-.08-.36V30.7a.6.6,0,0,1,.08-.36.35.35,0,0,1,.3-.14.33.33,0,0,1,.29.14.58.58,0,0,1,.08.36Zm-.53.05c0,.1,0,.13,0,.17a.13.13,0,0,0,.13.07.14.14,0,0,0,.13-.07.35.35,0,0,0,0-.17v-.64a.39.39,0,0,0,0-.18.16.16,0,0,0-.13-.07.14.14,0,0,0-.13.07c0,.05,0,.07,0,.18Z" style="fill: url(#未命名漸層_9-116)"/>
          <path d="M10.31,31.72H10.1V30.57H9.88v-.14a.93.93,0,0,0,.31-.21h.12Z" style="fill: url(#未命名漸層_9-117)"/>
          <path d="M11.45,31.24a.7.7,0,0,1-.07.36.36.36,0,0,1-.3.14.35.35,0,0,1-.3-.14.6.6,0,0,1-.08-.36V30.7a.6.6,0,0,1,.08-.36.35.35,0,0,1,.3-.14.36.36,0,0,1,.3.14.67.67,0,0,1,.07.36Zm-.53.05c0,.1,0,.13,0,.17a.13.13,0,0,0,.13.07.14.14,0,0,0,.13-.07.32.32,0,0,0,0-.17v-.64a.36.36,0,0,0,0-.18.16.16,0,0,0-.13-.07.14.14,0,0,0-.13.07c0,.05,0,.07,0,.18Z" style="fill: url(#未命名漸層_9-118)"/>
          <path d="M12.15,31.72h-.21V30.57h-.22v-.14a.93.93,0,0,0,.31-.21h.12Z" style="fill: url(#未命名漸層_9-119)"/>
          <path d="M13.29,31.24a.7.7,0,0,1-.07.36.36.36,0,0,1-.3.14.35.35,0,0,1-.3-.14.69.69,0,0,1-.08-.36V30.7a.69.69,0,0,1,.08-.36.35.35,0,0,1,.3-.14.36.36,0,0,1,.3.14.67.67,0,0,1,.07.36Zm-.53.05a.32.32,0,0,0,0,.17.16.16,0,0,0,.26,0,.32.32,0,0,0,0-.17v-.64a.36.36,0,0,0,0-.18.16.16,0,0,0-.26,0,.36.36,0,0,0,0,.18Z" style="fill: url(#未命名漸層_9-120)"/>
          <path d="M14,31.72h-.22V30.57h-.22v-.14a.93.93,0,0,0,.31-.21H14Z" style="fill: url(#未命名漸層_9-121)"/>
          <path d="M15.14,31.24a.69.69,0,0,1-.08.36.39.39,0,0,1-.6,0,.69.69,0,0,1-.08-.36V30.7a.69.69,0,0,1,.08-.36.39.39,0,0,1,.6,0,.66.66,0,0,1,.08.36Zm-.54.05a.32.32,0,0,0,0,.17.16.16,0,0,0,.26,0,.32.32,0,0,0,0-.17v-.64a.36.36,0,0,0,0-.18.16.16,0,0,0-.26,0,.36.36,0,0,0,0,.18Z" style="fill: url(#未命名漸層_9-122)"/>
          <path d="M15.84,31.72h-.22V30.57H15.4v-.14a.93.93,0,0,0,.31-.21h.13Z" style="fill: url(#未命名漸層_9-123)"/>
          <path d="M17,31.24a.69.69,0,0,1-.08.36.35.35,0,0,1-.3.14.36.36,0,0,1-.3-.14.69.69,0,0,1-.08-.36V30.7a.69.69,0,0,1,.08-.36.36.36,0,0,1,.3-.14.35.35,0,0,1,.3.14.66.66,0,0,1,.08.36Zm-.54.05a.32.32,0,0,0,0,.17.16.16,0,0,0,.26,0,.32.32,0,0,0,0-.17v-.64a.36.36,0,0,0,0-.18.16.16,0,0,0-.26,0,.36.36,0,0,0,0,.18Z" style="fill: url(#未命名漸層_9-124)"/>
          <path d="M17.68,31.72h-.22V30.57h-.22v-.14a.76.76,0,0,0,.31-.21h.13Z" style="fill: url(#未命名漸層_9-125)"/>
          <path d="M18.6,31.72h-.22V30.57h-.22v-.14a.76.76,0,0,0,.31-.21h.13Z" style="fill: url(#未命名漸層_9-126)"/>
        </g>
        <g>
          <path d="M20.06,19a.69.69,0,0,1-.08.36.35.35,0,0,1-.3.14.36.36,0,0,1-.3-.14A.69.69,0,0,1,19.3,19v-.54a.69.69,0,0,1,.08-.36.36.36,0,0,1,.3-.14.35.35,0,0,1,.3.14.69.69,0,0,1,.08.36Zm-.54.05a.32.32,0,0,0,0,.17.16.16,0,0,0,.26,0,.32.32,0,0,0,0-.17v-.64a.36.36,0,0,0,0-.18.17.17,0,0,0-.26,0,.36.36,0,0,0,0,.18Z" style="fill: url(#未命名漸層_9-127)"/>
          <path d="M20.76,19.43h-.22V18.28h-.22v-.13a.88.88,0,0,0,.31-.22h.13Z" style="fill: url(#未命名漸層_9-128)"/>
          <path d="M21.9,19a.69.69,0,0,1-.08.36.35.35,0,0,1-.3.14.36.36,0,0,1-.3-.14.7.7,0,0,1-.07-.36v-.54a.7.7,0,0,1,.07-.36.36.36,0,0,1,.3-.14.35.35,0,0,1,.3.14.69.69,0,0,1,.08.36Zm-.54.05a.32.32,0,0,0,0,.17.14.14,0,0,0,.13.07.13.13,0,0,0,.13-.07s0-.07,0-.17v-.64c0-.11,0-.13,0-.18a.14.14,0,0,0-.13-.06.15.15,0,0,0-.13.06.36.36,0,0,0,0,.18Z" style="fill: url(#未命名漸層_9-129)"/>
          <path d="M22.82,19a.6.6,0,0,1-.08.36.35.35,0,0,1-.3.14.36.36,0,0,1-.3-.14.7.7,0,0,1-.07-.36v-.54a.7.7,0,0,1,.07-.36.36.36,0,0,1,.3-.14.35.35,0,0,1,.3.14.6.6,0,0,1,.08.36Zm-.54.05a.32.32,0,0,0,0,.17.14.14,0,0,0,.13.07.13.13,0,0,0,.13-.07s0-.07,0-.17v-.64c0-.11,0-.13,0-.18a.14.14,0,0,0-.13-.06.15.15,0,0,0-.13.06.36.36,0,0,0,0,.18Z" style="fill: url(#未命名漸層_9-130)"/>
          <path d="M23.74,19a.6.6,0,0,1-.08.36.35.35,0,0,1-.3.14.33.33,0,0,1-.29-.14A.6.6,0,0,1,23,19v-.54a.6.6,0,0,1,.08-.36.33.33,0,0,1,.29-.14.35.35,0,0,1,.3.14.6.6,0,0,1,.08.36ZM23.2,19a.32.32,0,0,0,0,.17.14.14,0,0,0,.13.07.13.13,0,0,0,.13-.07s0-.07,0-.17v-.64c0-.11,0-.13,0-.18a.14.14,0,0,0-.13-.06.15.15,0,0,0-.13.06.36.36,0,0,0,0,.18Z" style="fill: url(#未命名漸層_9-131)"/>
          <path d="M24.44,19.43h-.22V18.28H24v-.13a.93.93,0,0,0,.3-.22h.13Z" style="fill: url(#未命名漸層_9-132)"/>
          <path d="M25.58,19a.6.6,0,0,1-.08.36.35.35,0,0,1-.3.14.33.33,0,0,1-.29-.14.6.6,0,0,1-.08-.36v-.54a.6.6,0,0,1,.08-.36.33.33,0,0,1,.29-.14.35.35,0,0,1,.3.14.6.6,0,0,1,.08.36Zm-.53.05a.35.35,0,0,0,0,.17.14.14,0,0,0,.13.07.15.15,0,0,0,.14-.07.35.35,0,0,0,0-.17v-.64a.39.39,0,0,0,0-.18.17.17,0,0,0-.14-.06.15.15,0,0,0-.13.06.39.39,0,0,0,0,.18Z" style="fill: url(#未命名漸層_9-133)"/>
          <path d="M26.28,19.43h-.22V18.28h-.21v-.13a.93.93,0,0,0,.3-.22h.13Z" style="fill: url(#未命名漸層_9-134)"/>
          <path d="M27.42,19a.6.6,0,0,1-.08.36.34.34,0,0,1-.29.14.35.35,0,0,1-.3-.14.6.6,0,0,1-.08-.36v-.54a.6.6,0,0,1,.08-.36.35.35,0,0,1,.3-.14.34.34,0,0,1,.29.14.6.6,0,0,1,.08.36Zm-.53.05a.35.35,0,0,0,0,.17.15.15,0,0,0,.14.07.15.15,0,0,0,.13-.07.35.35,0,0,0,0-.17v-.64a.39.39,0,0,0,0-.18.16.16,0,0,0-.13-.06.17.17,0,0,0-.14.06.39.39,0,0,0,0,.18Z" style="fill: url(#未命名漸層_9-135)"/>
          <path d="M28.12,19.43H27.9V18.28h-.21v-.13a.93.93,0,0,0,.3-.22h.13Z" style="fill: url(#未命名漸層_9-136)"/>
          <path d="M29.26,19a.6.6,0,0,1-.08.36.34.34,0,0,1-.29.14.35.35,0,0,1-.3-.14.6.6,0,0,1-.08-.36v-.54a.6.6,0,0,1,.08-.36.35.35,0,0,1,.3-.14.34.34,0,0,1,.29.14.6.6,0,0,1,.08.36Zm-.53.05a.35.35,0,0,0,0,.17.15.15,0,0,0,.14.07.15.15,0,0,0,.13-.07A.35.35,0,0,0,29,19v-.64a.39.39,0,0,0,0-.18.16.16,0,0,0-.13-.06.17.17,0,0,0-.14.06.39.39,0,0,0,0,.18Z" style="fill: url(#未命名漸層_9-137)"/>
          <path d="M30,19.43h-.22V18.28h-.21v-.13a.93.93,0,0,0,.3-.22H30Z" style="fill: url(#未命名漸層_9-138)"/>
          <path d="M31.1,19a.6.6,0,0,1-.08.36.33.33,0,0,1-.29.14.35.35,0,0,1-.3-.14.6.6,0,0,1-.08-.36v-.54a.6.6,0,0,1,.08-.36.35.35,0,0,1,.3-.14.33.33,0,0,1,.29.14.6.6,0,0,1,.08.36Zm-.53.05c0,.1,0,.13,0,.17a.13.13,0,0,0,.13.07.14.14,0,0,0,.13-.07.35.35,0,0,0,0-.17v-.64a.39.39,0,0,0,0-.18.15.15,0,0,0-.13-.06.14.14,0,0,0-.13.06c0,.05,0,.07,0,.18Z" style="fill: url(#未命名漸層_9-139)"/>
          <path d="M31.8,19.43h-.21V18.28h-.22v-.13a.93.93,0,0,0,.3-.22h.13Z" style="fill: url(#未命名漸層_9-140)"/>
          <path d="M32.72,19.43h-.21V18.28h-.22v-.13a1.12,1.12,0,0,0,.31-.22h.12Z" style="fill: url(#未命名漸層_9-141)"/>
          <path d="M33.64,19.43h-.21V18.28h-.22v-.13a1.12,1.12,0,0,0,.31-.22h.12Z" style="fill: url(#未命名漸層_9-142)"/>
          <path d="M34.78,19a.7.7,0,0,1-.07.36.36.36,0,0,1-.3.14.35.35,0,0,1-.3-.14A.6.6,0,0,1,34,19v-.54a.6.6,0,0,1,.08-.36.35.35,0,0,1,.3-.14.36.36,0,0,1,.3.14.7.7,0,0,1,.07.36Zm-.53.05c0,.1,0,.13,0,.17a.13.13,0,0,0,.13.07.14.14,0,0,0,.13-.07.32.32,0,0,0,0-.17v-.64a.36.36,0,0,0,0-.18.15.15,0,0,0-.13-.06.14.14,0,0,0-.13.06c0,.05,0,.07,0,.18Z" style="fill: url(#未命名漸層_9-143)"/>
          <path d="M35.48,19.43h-.21V18.28h-.22v-.13a1.12,1.12,0,0,0,.31-.22h.12Z" style="fill: url(#未命名漸層_9-144)"/>
          <path d="M36.63,19a.69.69,0,0,1-.08.36.36.36,0,0,1-.3.14.35.35,0,0,1-.3-.14.69.69,0,0,1-.08-.36v-.54a.69.69,0,0,1,.08-.36.35.35,0,0,1,.3-.14.36.36,0,0,1,.3.14.69.69,0,0,1,.08.36Zm-.54.05a.32.32,0,0,0,0,.17.16.16,0,0,0,.26,0,.32.32,0,0,0,0-.17v-.64a.36.36,0,0,0,0-.18.17.17,0,0,0-.26,0,.36.36,0,0,0,0,.18Z" style="fill: url(#未命名漸層_9-145)"/>
          <path d="M37.33,19.43h-.22V18.28h-.22v-.13a1.12,1.12,0,0,0,.31-.22h.13Z" style="fill: url(#未命名漸層_9-146)"/>
        </g>
        <g>
          <path d="M42.45,38.44a.55.55,0,0,1-.08.35.35.35,0,0,1-.29.15.36.36,0,0,1-.3-.15.55.55,0,0,1-.08-.35v-.55a.55.55,0,0,1,.08-.35.36.36,0,0,1,.3-.15.35.35,0,0,1,.29.15.55.55,0,0,1,.08.35Zm-.53.05a.35.35,0,0,0,0,.17.17.17,0,0,0,.14.07.17.17,0,0,0,.13-.07.35.35,0,0,0,0-.17v-.64a.37.37,0,0,0,0-.18.17.17,0,0,0-.13-.07.17.17,0,0,0-.14.07.37.37,0,0,0,0,.18Z" style="fill: url(#未命名漸層_9-147)"/>
          <path d="M43.15,38.91h-.22V37.77h-.21v-.14a.79.79,0,0,0,.3-.21h.13Z" style="fill: url(#未命名漸層_9-148)"/>
          <path d="M44.29,38.44a.55.55,0,0,1-.08.35.35.35,0,0,1-.29.15.36.36,0,0,1-.3-.15.55.55,0,0,1-.08-.35v-.55a.55.55,0,0,1,.08-.35.36.36,0,0,1,.3-.15.35.35,0,0,1,.29.15.55.55,0,0,1,.08.35Zm-.53.05a.35.35,0,0,0,0,.17.17.17,0,0,0,.14.07.16.16,0,0,0,.13-.07.35.35,0,0,0,0-.17v-.64a.37.37,0,0,0,0-.18.16.16,0,0,0-.13-.07.17.17,0,0,0-.14.07.37.37,0,0,0,0,.18Z" style="fill: url(#未命名漸層_9-149)"/>
          <path d="M45.21,38.44a.55.55,0,0,1-.08.35.34.34,0,0,1-.29.15.36.36,0,0,1-.3-.15.55.55,0,0,1-.08-.35v-.55a.55.55,0,0,1,.08-.35.36.36,0,0,1,.3-.15.34.34,0,0,1,.29.15.55.55,0,0,1,.08.35Zm-.53.05c0,.1,0,.13,0,.17a.14.14,0,0,0,.13.07.16.16,0,0,0,.13-.07.35.35,0,0,0,0-.17v-.64a.37.37,0,0,0,0-.18.16.16,0,0,0-.13-.07.14.14,0,0,0-.13.07s0,.07,0,.18Z" style="fill: url(#未命名漸層_9-150)"/>
          <path d="M46.13,38.44a.55.55,0,0,1-.08.35.34.34,0,0,1-.29.15.36.36,0,0,1-.3-.15.55.55,0,0,1-.08-.35v-.55a.55.55,0,0,1,.08-.35.36.36,0,0,1,.3-.15.34.34,0,0,1,.29.15.55.55,0,0,1,.08.35Zm-.53.05c0,.1,0,.13,0,.17a.14.14,0,0,0,.13.07.16.16,0,0,0,.13-.07.32.32,0,0,0,0-.17v-.64a.34.34,0,0,0,0-.18.16.16,0,0,0-.13-.07.14.14,0,0,0-.13.07s0,.07,0,.18Z" style="fill: url(#未命名漸層_9-151)"/>
          <path d="M46.83,38.91h-.21V37.77H46.4v-.14a.93.93,0,0,0,.31-.21h.12Z" style="fill: url(#未命名漸層_9-152)"/>
          <path d="M48,38.44a.63.63,0,0,1-.07.35.37.37,0,0,1-.3.15.36.36,0,0,1-.3-.15.55.55,0,0,1-.08-.35v-.55a.55.55,0,0,1,.08-.35.36.36,0,0,1,.3-.15.37.37,0,0,1,.3.15.63.63,0,0,1,.07.35Zm-.53.05c0,.1,0,.13,0,.17a.14.14,0,0,0,.13.07.16.16,0,0,0,.13-.07.32.32,0,0,0,0-.17v-.64a.34.34,0,0,0,0-.18.16.16,0,0,0-.13-.07.14.14,0,0,0-.13.07s0,.07,0,.18Z" style="fill: url(#未命名漸層_9-153)"/>
          <path d="M48.67,38.91h-.21V37.77h-.22v-.14a.93.93,0,0,0,.31-.21h.12Z" style="fill: url(#未命名漸層_9-154)"/>
          <path d="M49.81,38.44a.63.63,0,0,1-.07.35.37.37,0,0,1-.3.15.36.36,0,0,1-.3-.15.62.62,0,0,1-.08-.35v-.55a.62.62,0,0,1,.08-.35.36.36,0,0,1,.3-.15.37.37,0,0,1,.3.15.63.63,0,0,1,.07.35Zm-.53.05a.32.32,0,0,0,0,.17.16.16,0,0,0,.26,0,.32.32,0,0,0,0-.17v-.64a.34.34,0,0,0,0-.18.16.16,0,0,0-.26,0,.34.34,0,0,0,0,.18Z" style="fill: url(#未命名漸層_9-155)"/>
          <path d="M50.52,38.91H50.3V37.77h-.22v-.14a.93.93,0,0,0,.31-.21h.13Z" style="fill: url(#未命名漸層_9-156)"/>
          <path d="M51.66,38.44a.62.62,0,0,1-.08.35.38.38,0,0,1-.6,0,.62.62,0,0,1-.08-.35v-.55a.62.62,0,0,1,.08-.35.38.38,0,0,1,.6,0,.62.62,0,0,1,.08.35Zm-.54.05a.32.32,0,0,0,0,.17.16.16,0,0,0,.26,0,.32.32,0,0,0,0-.17v-.64a.34.34,0,0,0,0-.18.16.16,0,0,0-.26,0,.34.34,0,0,0,0,.18Z" style="fill: url(#未命名漸層_9-157)"/>
          <path d="M52.36,38.91h-.22V37.77h-.22v-.14a.93.93,0,0,0,.31-.21h.13Z" style="fill: url(#未命名漸層_9-158)"/>
          <path d="M53.5,38.44a.62.62,0,0,1-.08.35.36.36,0,0,1-.3.15.37.37,0,0,1-.3-.15.62.62,0,0,1-.08-.35v-.55a.62.62,0,0,1,.08-.35.37.37,0,0,1,.3-.15.36.36,0,0,1,.3.15.62.62,0,0,1,.08.35Zm-.54.05a.32.32,0,0,0,0,.17.16.16,0,0,0,.26,0,.32.32,0,0,0,0-.17v-.64a.34.34,0,0,0,0-.18.16.16,0,0,0-.26,0,.34.34,0,0,0,0,.18Z" style="fill: url(#未命名漸層_9-159)"/>
          <path d="M54.2,38.91H54V37.77h-.22v-.14a.76.76,0,0,0,.31-.21h.13Z" style="fill: url(#未命名漸層_9-160)"/>
          <path d="M55.12,38.91H54.9V37.77h-.22v-.14a.76.76,0,0,0,.31-.21h.13Z" style="fill: url(#未命名漸層_9-161)"/>
          <path d="M56.26,38.44a.55.55,0,0,1-.08.35.36.36,0,0,1-.3.15.37.37,0,0,1-.3-.15.63.63,0,0,1-.07-.35v-.55a.63.63,0,0,1,.07-.35.37.37,0,0,1,.3-.15.36.36,0,0,1,.3.15.55.55,0,0,1,.08.35Zm-.54.05a.32.32,0,0,0,0,.17.16.16,0,0,0,.13.07.14.14,0,0,0,.13-.07s0-.07,0-.17v-.64c0-.11,0-.14,0-.18a.14.14,0,0,0-.13-.07.16.16,0,0,0-.13.07.34.34,0,0,0,0,.18Z" style="fill: url(#未命名漸層_9-162)"/>
          <path d="M57,38.91h-.22V37.77h-.21v-.14a.79.79,0,0,0,.3-.21H57Z" style="fill: url(#未命名漸層_9-163)"/>
          <path d="M58.1,38.44a.55.55,0,0,1-.08.35.36.36,0,0,1-.3.15.34.34,0,0,1-.29-.15.55.55,0,0,1-.08-.35v-.55a.55.55,0,0,1,.08-.35.34.34,0,0,1,.29-.15.36.36,0,0,1,.3.15.55.55,0,0,1,.08.35Zm-.54.05a.32.32,0,0,0,0,.17.16.16,0,0,0,.13.07.14.14,0,0,0,.13-.07s0-.07,0-.17v-.64c0-.11,0-.14,0-.18a.14.14,0,0,0-.13-.07.16.16,0,0,0-.13.07.34.34,0,0,0,0,.18Z" style="fill: url(#未命名漸層_9-164)"/>
          <path d="M58.8,38.91h-.22V37.77h-.21v-.14a.79.79,0,0,0,.3-.21h.13Z" style="fill: url(#未命名漸層_9-165)"/>
          <path d="M59.72,38.91H59.5V37.77h-.21v-.14a.79.79,0,0,0,.3-.21h.13Z" style="fill: url(#未命名漸層_9-166)"/>
          <path d="M60.86,38.44a.55.55,0,0,1-.08.35.35.35,0,0,1-.29.15.36.36,0,0,1-.3-.15.55.55,0,0,1-.08-.35v-.55a.55.55,0,0,1,.08-.35.36.36,0,0,1,.3-.15.35.35,0,0,1,.29.15.55.55,0,0,1,.08.35Zm-.53.05a.35.35,0,0,0,0,.17.17.17,0,0,0,.14.07.17.17,0,0,0,.13-.07.35.35,0,0,0,0-.17v-.64a.37.37,0,0,0,0-.18.17.17,0,0,0-.13-.07.17.17,0,0,0-.14.07.37.37,0,0,0,0,.18Z" style="fill: url(#未命名漸層_9-167)"/>
          <path d="M61.56,38.91h-.22V37.77h-.21v-.14a.79.79,0,0,0,.3-.21h.13Z" style="fill: url(#未命名漸層_9-168)"/>
          <path d="M62.7,38.44a.55.55,0,0,1-.08.35.35.35,0,0,1-.29.15.36.36,0,0,1-.3-.15.55.55,0,0,1-.08-.35v-.55a.55.55,0,0,1,.08-.35.36.36,0,0,1,.3-.15.35.35,0,0,1,.29.15.55.55,0,0,1,.08.35Zm-.53.05a.35.35,0,0,0,0,.17.17.17,0,0,0,.14.07.16.16,0,0,0,.13-.07.35.35,0,0,0,0-.17v-.64a.37.37,0,0,0,0-.18.16.16,0,0,0-.13-.07.17.17,0,0,0-.14.07.37.37,0,0,0,0,.18Z" style="fill: url(#未命名漸層_9-169)"/>
          <path d="M63.4,38.91h-.22V37.77H63v-.14a.79.79,0,0,0,.3-.21h.13Z" style="fill: url(#未命名漸層_9-170)"/>
          <path d="M64.32,38.91H64.1V37.77h-.21v-.14a.79.79,0,0,0,.3-.21h.13Z" style="fill: url(#未命名漸層_9-171)"/>
        </g>
        <g>
          <path d="M3.08,36.37H2.86V35.23H2.65v-.14a.79.79,0,0,0,.3-.21h.13Z" style="fill: url(#未命名漸層_9-172)"/>
          <path d="M4.22,35.9a.55.55,0,0,1-.08.35.34.34,0,0,1-.29.15.36.36,0,0,1-.3-.15.55.55,0,0,1-.08-.35v-.55A.55.55,0,0,1,3.55,35a.36.36,0,0,1,.3-.15.34.34,0,0,1,.29.15.55.55,0,0,1,.08.35ZM3.69,36c0,.1,0,.13,0,.17a.14.14,0,0,0,.13.07A.16.16,0,0,0,4,36.12.32.32,0,0,0,4,36v-.64a.34.34,0,0,0,0-.18.16.16,0,0,0-.13-.07.14.14,0,0,0-.13.07s0,.07,0,.18Z" style="fill: url(#未命名漸層_9-173)"/>
          <path d="M4.92,36.37H4.71V35.23H4.49v-.14a.93.93,0,0,0,.31-.21h.12Z" style="fill: url(#未命名漸層_9-174)"/>
          <path d="M6.06,35.9a.63.63,0,0,1-.07.35.37.37,0,0,1-.3.15.36.36,0,0,1-.3-.15.55.55,0,0,1-.08-.35v-.55A.55.55,0,0,1,5.39,35a.36.36,0,0,1,.3-.15A.37.37,0,0,1,6,35a.63.63,0,0,1,.07.35ZM5.53,36c0,.1,0,.13,0,.17a.14.14,0,0,0,.13.07.16.16,0,0,0,.13-.07.32.32,0,0,0,0-.17v-.64a.34.34,0,0,0,0-.18.16.16,0,0,0-.13-.07.14.14,0,0,0-.13.07s0,.07,0,.18Z" style="fill: url(#未命名漸層_9-175)"/>
          <path d="M6.76,36.37H6.55V35.23H6.33v-.14a.93.93,0,0,0,.31-.21h.12Z" style="fill: url(#未命名漸層_9-176)"/>
          <path d="M7.69,36.37H7.47V35.23H7.25v-.14a.93.93,0,0,0,.31-.21h.13Z" style="fill: url(#未命名漸層_9-177)"/>
          <path d="M8.83,35.9a.62.62,0,0,1-.08.35.38.38,0,0,1-.6,0,.62.62,0,0,1-.08-.35v-.55A.62.62,0,0,1,8.15,35a.38.38,0,0,1,.6,0,.62.62,0,0,1,.08.35ZM8.29,36a.32.32,0,0,0,0,.17.16.16,0,0,0,.26,0,.32.32,0,0,0,0-.17v-.64a.34.34,0,0,0,0-.18.16.16,0,0,0-.26,0,.34.34,0,0,0,0,.18Z" style="fill: url(#未命名漸層_9-178)"/>
          <path d="M9.53,36.37H9.31V35.23H9.09v-.14a.93.93,0,0,0,.31-.21h.13Z" style="fill: url(#未命名漸層_9-179)"/>
          <path d="M10.45,36.37h-.22V35.23H10v-.14a.93.93,0,0,0,.31-.21h.13Z" style="fill: url(#未命名漸層_9-180)"/>
          <path d="M11.59,35.9a.62.62,0,0,1-.08.35.36.36,0,0,1-.3.15.37.37,0,0,1-.3-.15.63.63,0,0,1-.07-.35v-.55a.63.63,0,0,1,.07-.35.37.37,0,0,1,.3-.15.36.36,0,0,1,.3.15.62.62,0,0,1,.08.35Zm-.54.05a.32.32,0,0,0,0,.17.16.16,0,0,0,.26,0,.32.32,0,0,0,0-.17v-.64a.34.34,0,0,0,0-.18.16.16,0,0,0-.26,0,.34.34,0,0,0,0,.18Z" style="fill: url(#未命名漸層_9-181)"/>
          <path d="M12.29,36.37h-.22V35.23h-.22v-.14a.76.76,0,0,0,.31-.21h.13Z" style="fill: url(#未命名漸層_9-182)"/>
          <path d="M13.43,35.9a.55.55,0,0,1-.08.35.36.36,0,0,1-.3.15.37.37,0,0,1-.3-.15.63.63,0,0,1-.07-.35v-.55a.63.63,0,0,1,.07-.35.37.37,0,0,1,.3-.15.36.36,0,0,1,.3.15.55.55,0,0,1,.08.35Zm-.54.05a.32.32,0,0,0,0,.17.16.16,0,0,0,.13.07.14.14,0,0,0,.13-.07s0-.07,0-.17v-.64c0-.11,0-.14,0-.18a.14.14,0,0,0-.13-.07.16.16,0,0,0-.13.07.34.34,0,0,0,0,.18Z" style="fill: url(#未命名漸層_9-183)"/>
          <path d="M14.13,36.37h-.22V35.23H13.7v-.14a.79.79,0,0,0,.3-.21h.13Z" style="fill: url(#未命名漸層_9-184)"/>
          <path d="M15.27,35.9a.55.55,0,0,1-.08.35.36.36,0,0,1-.3.15.34.34,0,0,1-.29-.15.55.55,0,0,1-.08-.35v-.55A.55.55,0,0,1,14.6,35a.34.34,0,0,1,.29-.15.36.36,0,0,1,.3.15.55.55,0,0,1,.08.35Zm-.54.05a.32.32,0,0,0,0,.17.16.16,0,0,0,.13.07.14.14,0,0,0,.13-.07s0-.07,0-.17v-.64c0-.11,0-.14,0-.18a.14.14,0,0,0-.13-.07.16.16,0,0,0-.13.07.34.34,0,0,0,0,.18Z" style="fill: url(#未命名漸層_9-185)"/>
          <path d="M16,36.37h-.22V35.23h-.21v-.14a.79.79,0,0,0,.3-.21H16Z" style="fill: url(#未命名漸層_9-186)"/>
          <path d="M16.89,36.37h-.22V35.23h-.21v-.14a.79.79,0,0,0,.3-.21h.13Z" style="fill: url(#未命名漸層_9-187)"/>
          <path d="M17.81,36.37h-.22V35.23h-.21v-.14a.79.79,0,0,0,.3-.21h.13Z" style="fill: url(#未命名漸層_9-188)"/>
          <path d="M19,35.9a.55.55,0,0,1-.08.35.35.35,0,0,1-.29.15.36.36,0,0,1-.3-.15.55.55,0,0,1-.08-.35v-.55a.55.55,0,0,1,.08-.35.36.36,0,0,1,.3-.15.35.35,0,0,1,.29.15.55.55,0,0,1,.08.35Zm-.53.05a.35.35,0,0,0,0,.17.17.17,0,0,0,.14.07.17.17,0,0,0,.13-.07.35.35,0,0,0,0-.17v-.64a.37.37,0,0,0,0-.18.17.17,0,0,0-.13-.07.17.17,0,0,0-.14.07.37.37,0,0,0,0,.18Z" style="fill: url(#未命名漸層_9-189)"/>
          <path d="M19.65,36.37h-.22V35.23h-.21v-.14a.79.79,0,0,0,.3-.21h.13Z" style="fill: url(#未命名漸層_9-190)"/>
          <path d="M20.79,35.9a.55.55,0,0,1-.08.35.35.35,0,0,1-.29.15.36.36,0,0,1-.3-.15A.55.55,0,0,1,20,35.9v-.55a.55.55,0,0,1,.08-.35.36.36,0,0,1,.3-.15.35.35,0,0,1,.29.15.55.55,0,0,1,.08.35Zm-.53.05a.35.35,0,0,0,0,.17.17.17,0,0,0,.14.07.16.16,0,0,0,.13-.07.35.35,0,0,0,0-.17v-.64a.37.37,0,0,0,0-.18.16.16,0,0,0-.13-.07.17.17,0,0,0-.14.07.37.37,0,0,0,0,.18Z" style="fill: url(#未命名漸層_9-191)"/>
        </g>
        <g>
          <path d="M45.32,35.55a.6.6,0,0,1-.08.36.33.33,0,0,1-.29.14.35.35,0,0,1-.3-.14.6.6,0,0,1-.08-.36V35a.6.6,0,0,1,.08-.36.35.35,0,0,1,.3-.14.33.33,0,0,1,.29.14.6.6,0,0,1,.08.36Zm-.53.05a.42.42,0,0,0,0,.18.17.17,0,0,0,.14.07.16.16,0,0,0,.13-.07.39.39,0,0,0,0-.18V35a.35.35,0,0,0,0-.17.14.14,0,0,0-.13-.07.15.15,0,0,0-.14.07.35.35,0,0,0,0,.17Z" style="fill: url(#未命名漸層_9-192)"/>
          <path d="M46,36H45.8V34.89h-.21v-.14a.81.81,0,0,0,.3-.22H46Z" style="fill: url(#未命名漸層_9-193)"/>
          <path d="M46.94,36h-.21V34.89h-.22v-.14a1,1,0,0,0,.31-.22h.12Z" style="fill: url(#未命名漸層_9-194)"/>
          <path d="M48.08,35.55a.6.6,0,0,1-.08.36.33.33,0,0,1-.29.14.35.35,0,0,1-.3-.14.6.6,0,0,1-.08-.36V35a.6.6,0,0,1,.08-.36.35.35,0,0,1,.3-.14.33.33,0,0,1,.29.14.6.6,0,0,1,.08.36Zm-.53.05a.29.29,0,0,0,0,.18.14.14,0,0,0,.13.07.16.16,0,0,0,.13-.07.36.36,0,0,0,0-.18V35a.32.32,0,0,0,0-.17.14.14,0,0,0-.13-.07.13.13,0,0,0-.13.07s0,.07,0,.17Z" style="fill: url(#未命名漸層_9-195)"/>
          <path d="M48.78,36h-.21V34.89h-.22v-.14a1,1,0,0,0,.31-.22h.12Z" style="fill: url(#未命名漸層_9-196)"/>
          <path d="M49.92,35.55a.7.7,0,0,1-.07.36.36.36,0,0,1-.3.14.35.35,0,0,1-.3-.14.69.69,0,0,1-.08-.36V35a.69.69,0,0,1,.08-.36.35.35,0,0,1,.3-.14.36.36,0,0,1,.3.14.7.7,0,0,1,.07.36Zm-.53.05a.29.29,0,0,0,0,.18.14.14,0,0,0,.13.07.16.16,0,0,0,.13-.07.36.36,0,0,0,0-.18V35a.32.32,0,0,0,0-.17.14.14,0,0,0-.13-.07.13.13,0,0,0-.13.07s0,.07,0,.17Z" style="fill: url(#未命名漸層_9-197)"/>
          <path d="M50.63,36h-.22V34.89h-.22v-.14a1,1,0,0,0,.31-.22h.13Z" style="fill: url(#未命名漸層_9-198)"/>
          <path d="M51.77,35.55a.69.69,0,0,1-.08.36.36.36,0,0,1-.3.14.35.35,0,0,1-.3-.14.69.69,0,0,1-.08-.36V35a.69.69,0,0,1,.08-.36.35.35,0,0,1,.3-.14.36.36,0,0,1,.3.14.69.69,0,0,1,.08.36Zm-.54.05a.39.39,0,0,0,0,.18.16.16,0,0,0,.26,0,.36.36,0,0,0,0-.18V35a.32.32,0,0,0,0-.17.16.16,0,0,0-.26,0,.32.32,0,0,0,0,.17Z" style="fill: url(#未命名漸層_9-199)"/>
          <path d="M52.47,36h-.22V34.89H52v-.14a1,1,0,0,0,.31-.22h.13Z" style="fill: url(#未命名漸層_9-200)"/>
          <path d="M53.39,36h-.22V34.89H53v-.14a1,1,0,0,0,.31-.22h.13Z" style="fill: url(#未命名漸層_9-201)"/>
          <path d="M54.53,35.55a.69.69,0,0,1-.08.36.35.35,0,0,1-.3.14.36.36,0,0,1-.3-.14.69.69,0,0,1-.08-.36V35a.69.69,0,0,1,.08-.36.36.36,0,0,1,.3-.14.35.35,0,0,1,.3.14.69.69,0,0,1,.08.36ZM54,35.6a.39.39,0,0,0,0,.18.16.16,0,0,0,.26,0,.36.36,0,0,0,0-.18V35a.32.32,0,0,0,0-.17.16.16,0,0,0-.26,0A.32.32,0,0,0,54,35Z" style="fill: url(#未命名漸層_9-202)"/>
          <path d="M55.23,36H55V34.89h-.22v-.14a.77.77,0,0,0,.31-.22h.13Z" style="fill: url(#未命名漸層_9-203)"/>
          <path d="M56.15,36h-.22V34.89h-.22v-.14a.77.77,0,0,0,.31-.22h.13Z" style="fill: url(#未命名漸層_9-204)"/>
          <path d="M57.07,36h-.22V34.89h-.22v-.14a.77.77,0,0,0,.31-.22h.13Z" style="fill: url(#未命名漸層_9-205)"/>
          <path d="M58.21,35.55a.6.6,0,0,1-.08.36.35.35,0,0,1-.3.14.33.33,0,0,1-.29-.14.6.6,0,0,1-.08-.36V35a.6.6,0,0,1,.08-.36.33.33,0,0,1,.29-.14.35.35,0,0,1,.3.14.6.6,0,0,1,.08.36Zm-.54.05a.39.39,0,0,0,0,.18.16.16,0,0,0,.13.07.14.14,0,0,0,.13-.07c0-.05,0-.07,0-.18V35c0-.1,0-.13,0-.17a.13.13,0,0,0-.13-.07.14.14,0,0,0-.13.07.32.32,0,0,0,0,.17Z" style="fill: url(#未命名漸層_9-206)"/>
          <path d="M58.91,36h-.22V34.89h-.21v-.14a.81.81,0,0,0,.3-.22h.13Z" style="fill: url(#未命名漸層_9-207)"/>
          <path d="M59.83,36h-.22V34.89H59.4v-.14a.81.81,0,0,0,.3-.22h.13Z" style="fill: url(#未命名漸層_9-208)"/>
          <path d="M61,35.55a.6.6,0,0,1-.08.36.34.34,0,0,1-.29.14.35.35,0,0,1-.3-.14.6.6,0,0,1-.08-.36V35a.6.6,0,0,1,.08-.36.35.35,0,0,1,.3-.14.34.34,0,0,1,.29.14A.6.6,0,0,1,61,35Zm-.53.05a.42.42,0,0,0,0,.18.16.16,0,0,0,.14.07.17.17,0,0,0,.13-.07.39.39,0,0,0,0-.18V35a.35.35,0,0,0,0-.17.15.15,0,0,0-.13-.07.14.14,0,0,0-.14.07.35.35,0,0,0,0,.17Z" style="fill: url(#未命名漸層_9-209)"/>
          <path d="M61.67,36h-.22V34.89h-.21v-.14a.81.81,0,0,0,.3-.22h.13Z" style="fill: url(#未命名漸層_9-210)"/>
          <path d="M62.81,35.55a.6.6,0,0,1-.08.36.34.34,0,0,1-.29.14.35.35,0,0,1-.3-.14.6.6,0,0,1-.08-.36V35a.6.6,0,0,1,.08-.36.35.35,0,0,1,.3-.14.34.34,0,0,1,.29.14.6.6,0,0,1,.08.36Zm-.53.05a.42.42,0,0,0,0,.18.17.17,0,0,0,.14.07.17.17,0,0,0,.13-.07.39.39,0,0,0,0-.18V35a.35.35,0,0,0,0-.17.15.15,0,0,0-.13-.07.15.15,0,0,0-.14.07.35.35,0,0,0,0,.17Z" style="fill: url(#未命名漸層_9-211)"/>
          <path d="M63.51,36h-.22V34.89h-.21v-.14a.81.81,0,0,0,.3-.22h.13Z" style="fill: url(#未命名漸層_9-212)"/>
        </g>
        <g>
          <path d="M25.36,16.75h-.22V15.6h-.21v-.13a.81.81,0,0,0,.3-.22h.13Z" style="fill: url(#未命名漸層_9-213)"/>
          <path d="M26.5,16.27a.6.6,0,0,1-.08.36.33.33,0,0,1-.29.14.35.35,0,0,1-.3-.14.6.6,0,0,1-.08-.36v-.54a.6.6,0,0,1,.08-.36.35.35,0,0,1,.3-.14.33.33,0,0,1,.29.14.6.6,0,0,1,.08.36Zm-.53.05a.29.29,0,0,0,0,.18.14.14,0,0,0,.13.06.15.15,0,0,0,.13-.06.39.39,0,0,0,0-.18v-.64a.35.35,0,0,0,0-.17.14.14,0,0,0-.13-.07.13.13,0,0,0-.13.07s0,.07,0,.17Z" style="fill: url(#未命名漸層_9-214)"/>
          <path d="M27.2,16.75H27V15.6h-.22v-.13a1,1,0,0,0,.31-.22h.12Z" style="fill: url(#未命名漸層_9-215)"/>
          <path d="M28.34,16.27a.6.6,0,0,1-.08.36.33.33,0,0,1-.29.14.35.35,0,0,1-.3-.14.6.6,0,0,1-.08-.36v-.54a.6.6,0,0,1,.08-.36.35.35,0,0,1,.3-.14.33.33,0,0,1,.29.14.6.6,0,0,1,.08.36Zm-.53.05a.29.29,0,0,0,0,.18.14.14,0,0,0,.13.06.15.15,0,0,0,.13-.06.36.36,0,0,0,0-.18v-.64a.32.32,0,0,0,0-.17.14.14,0,0,0-.13-.07.13.13,0,0,0-.13.07s0,.07,0,.17Z" style="fill: url(#未命名漸層_9-216)"/>
          <path d="M29,16.75h-.21V15.6h-.22v-.13a1,1,0,0,0,.31-.22H29Z" style="fill: url(#未命名漸層_9-217)"/>
          <path d="M30,16.75h-.21V15.6h-.22v-.13a1,1,0,0,0,.31-.22H30Z" style="fill: url(#未命名漸層_9-218)"/>
          <path d="M30.89,16.75h-.22V15.6h-.22v-.13a1,1,0,0,0,.31-.22h.13Z" style="fill: url(#未命名漸層_9-219)"/>
          <path d="M32,16.27a.69.69,0,0,1-.08.36.36.36,0,0,1-.3.14.35.35,0,0,1-.3-.14.69.69,0,0,1-.08-.36v-.54a.69.69,0,0,1,.08-.36.35.35,0,0,1,.3-.14.36.36,0,0,1,.3.14.69.69,0,0,1,.08.36Zm-.54.05a.39.39,0,0,0,0,.18.17.17,0,0,0,.26,0,.36.36,0,0,0,0-.18v-.64a.32.32,0,0,0,0-.17.16.16,0,0,0-.26,0,.32.32,0,0,0,0,.17Z" style="fill: url(#未命名漸層_9-220)"/>
        </g>
        <g>
          <path d="M44.54,28.87h-.22V27.73h-.21v-.14a.79.79,0,0,0,.3-.21h.13Z" style="fill: url(#未命名漸層_9-221)"/>
          <path d="M45.68,28.4a.55.55,0,0,1-.08.35.35.35,0,0,1-.29.15.36.36,0,0,1-.3-.15.55.55,0,0,1-.08-.35v-.55A.55.55,0,0,1,45,27.5a.36.36,0,0,1,.3-.15.35.35,0,0,1,.29.15.55.55,0,0,1,.08.35Zm-.53.05a.35.35,0,0,0,0,.17.17.17,0,0,0,.14.07.17.17,0,0,0,.13-.07.35.35,0,0,0,0-.17v-.64a.37.37,0,0,0,0-.18.17.17,0,0,0-.13-.07.17.17,0,0,0-.14.07.37.37,0,0,0,0,.18Z" style="fill: url(#未命名漸層_9-222)"/>
          <path d="M46.38,28.87h-.22V27.73H46v-.14a.79.79,0,0,0,.3-.21h.13Z" style="fill: url(#未命名漸層_9-223)"/>
          <path d="M47.52,28.4a.55.55,0,0,1-.08.35.34.34,0,0,1-.29.15.36.36,0,0,1-.3-.15.55.55,0,0,1-.08-.35v-.55a.55.55,0,0,1,.08-.35.36.36,0,0,1,.3-.15.34.34,0,0,1,.29.15.55.55,0,0,1,.08.35Zm-.53.05c0,.1,0,.13,0,.17a.14.14,0,0,0,.13.07.16.16,0,0,0,.13-.07.35.35,0,0,0,0-.17v-.64a.37.37,0,0,0,0-.18.16.16,0,0,0-.13-.07.14.14,0,0,0-.13.07s0,.07,0,.18Z" style="fill: url(#未命名漸層_9-224)"/>
          <path d="M48.22,28.87H48V27.73h-.21v-.14a.79.79,0,0,0,.3-.21h.13Z" style="fill: url(#未命名漸層_9-225)"/>
          <path d="M49.14,28.87h-.21V27.73h-.22v-.14a.93.93,0,0,0,.31-.21h.12Z" style="fill: url(#未命名漸層_9-226)"/>
          <path d="M50.06,28.87h-.21V27.73h-.22v-.14a.93.93,0,0,0,.31-.21h.12Z" style="fill: url(#未命名漸層_9-227)"/>
          <path d="M51.2,28.4a.63.63,0,0,1-.07.35.37.37,0,0,1-.3.15.36.36,0,0,1-.3-.15.55.55,0,0,1-.08-.35v-.55a.55.55,0,0,1,.08-.35.36.36,0,0,1,.3-.15.37.37,0,0,1,.3.15.63.63,0,0,1,.07.35Zm-.53.05c0,.1,0,.13,0,.17a.14.14,0,0,0,.13.07.16.16,0,0,0,.13-.07.32.32,0,0,0,0-.17v-.64a.34.34,0,0,0,0-.18.16.16,0,0,0-.13-.07.14.14,0,0,0-.13.07s0,.07,0,.18Z" style="fill: url(#未命名漸層_9-228)"/>
        </g>
        <g>
          <path d="M42.23,24.05H42V22.91H41.8v-.14a.81.81,0,0,0,.3-.22h.13Z" style="fill: url(#未命名漸層_9-229)"/>
          <path d="M43.37,23.57a.6.6,0,0,1-.08.36.34.34,0,0,1-.29.14.35.35,0,0,1-.3-.14.6.6,0,0,1-.08-.36V23a.6.6,0,0,1,.08-.36.35.35,0,0,1,.3-.14.34.34,0,0,1,.29.14.6.6,0,0,1,.08.36Zm-.53.05a.42.42,0,0,0,0,.18.17.17,0,0,0,.14.07.17.17,0,0,0,.13-.07.39.39,0,0,0,0-.18V23a.35.35,0,0,0,0-.17.15.15,0,0,0-.13-.07.15.15,0,0,0-.14.07.35.35,0,0,0,0,.17Z" style="fill: url(#未命名漸層_9-230)"/>
          <path d="M44.07,24.05h-.22V22.91h-.21v-.14a.81.81,0,0,0,.3-.22h.13Z" style="fill: url(#未命名漸層_9-231)"/>
          <path d="M45.21,23.57a.6.6,0,0,1-.08.36.33.33,0,0,1-.29.14.35.35,0,0,1-.3-.14.6.6,0,0,1-.08-.36V23a.6.6,0,0,1,.08-.36.35.35,0,0,1,.3-.14.33.33,0,0,1,.29.14.6.6,0,0,1,.08.36Zm-.53.05a.29.29,0,0,0,0,.18.14.14,0,0,0,.13.07A.16.16,0,0,0,45,23.8a.39.39,0,0,0,0-.18V23a.35.35,0,0,0,0-.17.14.14,0,0,0-.13-.07.13.13,0,0,0-.13.07s0,.07,0,.17Z" style="fill: url(#未命名漸層_9-232)"/>
          <path d="M45.91,24.05h-.22V22.91h-.21v-.14a.81.81,0,0,0,.3-.22h.13Z" style="fill: url(#未命名漸層_9-233)"/>
          <path d="M46.83,24.05h-.21V22.91H46.4v-.14a1,1,0,0,0,.31-.22h.12Z" style="fill: url(#未命名漸層_9-234)"/>
          <path d="M47.75,24.05h-.21V22.91h-.22v-.14a1,1,0,0,0,.31-.22h.12Z" style="fill: url(#未命名漸層_9-235)"/>
          <path d="M48.89,23.57a.7.7,0,0,1-.07.36.36.36,0,0,1-.3.14.35.35,0,0,1-.3-.14.6.6,0,0,1-.08-.36V23a.6.6,0,0,1,.08-.36.35.35,0,0,1,.3-.14.36.36,0,0,1,.3.14.7.7,0,0,1,.07.36Zm-.53.05a.29.29,0,0,0,0,.18.14.14,0,0,0,.13.07.16.16,0,0,0,.13-.07.36.36,0,0,0,0-.18V23a.32.32,0,0,0,0-.17.14.14,0,0,0-.13-.07.13.13,0,0,0-.13.07s0,.07,0,.17Z" style="fill: url(#未命名漸層_9-236)"/>
        </g>
        <g>
          <path d="M16.16,23.59a.63.63,0,0,1-.07.35.37.37,0,0,1-.3.15.36.36,0,0,1-.3-.15.62.62,0,0,1-.08-.35V23a.62.62,0,0,1,.08-.35.36.36,0,0,1,.3-.15.37.37,0,0,1,.3.15.63.63,0,0,1,.07.35Zm-.53,0a.34.34,0,0,0,0,.18.16.16,0,0,0,.26,0,.34.34,0,0,0,0-.18V23a.34.34,0,0,0,0-.18.16.16,0,0,0-.26,0,.34.34,0,0,0,0,.18Z" style="fill: url(#未命名漸層_9-237)"/>
          <path d="M16.87,24.06h-.22V22.92h-.22v-.14a.93.93,0,0,0,.31-.21h.13Z" style="fill: url(#未命名漸層_9-238)"/>
          <path d="M18,23.59a.62.62,0,0,1-.08.35.37.37,0,0,1-.6,0,.62.62,0,0,1-.08-.35V23a.62.62,0,0,1,.08-.35.37.37,0,0,1,.6,0A.62.62,0,0,1,18,23Zm-.54,0a.34.34,0,0,0,0,.18.16.16,0,0,0,.26,0,.34.34,0,0,0,0-.18V23a.34.34,0,0,0,0-.18.16.16,0,0,0-.26,0,.34.34,0,0,0,0,.18Z" style="fill: url(#未命名漸層_9-239)"/>
          <path d="M18.71,24.06h-.22V22.92h-.22v-.14a.93.93,0,0,0,.31-.21h.13Z" style="fill: url(#未命名漸層_9-240)"/>
          <path d="M19.85,23.59a.62.62,0,0,1-.08.35.36.36,0,0,1-.3.15.37.37,0,0,1-.3-.15.62.62,0,0,1-.08-.35V23a.62.62,0,0,1,.08-.35.37.37,0,0,1,.3-.15.36.36,0,0,1,.3.15.62.62,0,0,1,.08.35Zm-.54,0a.34.34,0,0,0,0,.18.16.16,0,0,0,.26,0,.34.34,0,0,0,0-.18V23a.34.34,0,0,0,0-.18.16.16,0,0,0-.26,0,.34.34,0,0,0,0,.18Z" style="fill: url(#未命名漸層_9-241)"/>
          <path d="M20.55,24.06h-.22V22.92h-.22v-.14a.76.76,0,0,0,.31-.21h.13Z" style="fill: url(#未命名漸層_9-242)"/>
          <path d="M21.47,24.06h-.22V22.92H21v-.14a.76.76,0,0,0,.31-.21h.13Z" style="fill: url(#未命名漸層_9-243)"/>
          <path d="M22.39,24.06h-.22V22.92H22v-.14a.79.79,0,0,0,.3-.21h.13Z" style="fill: url(#未命名漸層_9-244)"/>
          <path d="M23.53,23.59a.55.55,0,0,1-.08.35.36.36,0,0,1-.3.15.34.34,0,0,1-.29-.15.55.55,0,0,1-.08-.35V23a.55.55,0,0,1,.08-.35.34.34,0,0,1,.29-.15.36.36,0,0,1,.3.15.55.55,0,0,1,.08.35Zm-.54,0a.34.34,0,0,0,0,.18.16.16,0,0,0,.13.07.14.14,0,0,0,.13-.07s0-.07,0-.18V23c0-.11,0-.14,0-.18a.14.14,0,0,0-.13-.07.16.16,0,0,0-.13.07A.34.34,0,0,0,23,23Z" style="fill: url(#未命名漸層_9-245)"/>
        </g>
        <g>
          <path d="M13.64,27.05h-.22V25.9H13.2v-.13a1,1,0,0,0,.31-.22h.13Z" style="fill: url(#未命名漸層_9-246)"/>
          <path d="M14.78,26.57a.69.69,0,0,1-.08.36.39.39,0,0,1-.6,0,.69.69,0,0,1-.08-.36V26a.69.69,0,0,1,.08-.36.39.39,0,0,1,.6,0,.69.69,0,0,1,.08.36Zm-.54.05a.39.39,0,0,0,0,.18.17.17,0,0,0,.26,0,.36.36,0,0,0,0-.18V26a.32.32,0,0,0,0-.17.16.16,0,0,0-.26,0,.32.32,0,0,0,0,.17Z" style="fill: url(#未命名漸層_9-247)"/>
          <path d="M15.48,27.05h-.22V25.9H15v-.13a1,1,0,0,0,.31-.22h.13Z" style="fill: url(#未命名漸層_9-248)"/>
          <path d="M16.62,26.57a.69.69,0,0,1-.08.36.35.35,0,0,1-.3.14.36.36,0,0,1-.3-.14.69.69,0,0,1-.08-.36V26a.69.69,0,0,1,.08-.36.36.36,0,0,1,.3-.14.35.35,0,0,1,.3.14.69.69,0,0,1,.08.36Zm-.54.05a.39.39,0,0,0,0,.18.17.17,0,0,0,.26,0,.36.36,0,0,0,0-.18V26a.32.32,0,0,0,0-.17.16.16,0,0,0-.26,0,.32.32,0,0,0,0,.17Z" style="fill: url(#未命名漸層_9-249)"/>
          <path d="M17.32,27.05H17.1V25.9h-.22v-.13a.77.77,0,0,0,.31-.22h.13Z" style="fill: url(#未命名漸層_9-250)"/>
          <path d="M18.24,27.05H18V25.9H17.8v-.13a.77.77,0,0,0,.31-.22h.13Z" style="fill: url(#未命名漸層_9-251)"/>
          <path d="M19.16,27.05h-.22V25.9h-.22v-.13a.77.77,0,0,0,.31-.22h.13Z" style="fill: url(#未命名漸層_9-252)"/>
          <path d="M20.3,26.57a.6.6,0,0,1-.08.36.35.35,0,0,1-.3.14.33.33,0,0,1-.29-.14.6.6,0,0,1-.08-.36V26a.6.6,0,0,1,.08-.36.33.33,0,0,1,.29-.14.35.35,0,0,1,.3.14.6.6,0,0,1,.08.36Zm-.54.05a.39.39,0,0,0,0,.18.15.15,0,0,0,.13.06.14.14,0,0,0,.13-.06c0-.05,0-.07,0-.18V26c0-.1,0-.13,0-.17a.13.13,0,0,0-.13-.07.14.14,0,0,0-.13.07.32.32,0,0,0,0,.17Z" style="fill: url(#未命名漸層_9-253)"/>
        </g>
        <g>
          <path d="M43.17,25.77a.62.62,0,0,1-.08.35.37.37,0,0,1-.6,0,.62.62,0,0,1-.08-.35v-.55a.65.65,0,0,1,.08-.35.39.39,0,0,1,.6,0,.62.62,0,0,1,.08.35Zm-.54.05a.32.32,0,0,0,0,.17.16.16,0,0,0,.26,0,.32.32,0,0,0,0-.17v-.64a.34.34,0,0,0,0-.18.16.16,0,0,0-.26,0,.34.34,0,0,0,0,.18Z" style="fill: url(#未命名漸層_9-254)"/>
          <path d="M43.87,26.24h-.22V25.1h-.22V25a.93.93,0,0,0,.31-.21h.13Z" style="fill: url(#未命名漸層_9-255)"/>
          <path d="M45,25.77a.62.62,0,0,1-.08.35.33.33,0,0,1-.3.15.34.34,0,0,1-.3-.15.63.63,0,0,1-.07-.35v-.55a.66.66,0,0,1,.07-.35.36.36,0,0,1,.3-.14.35.35,0,0,1,.3.14.62.62,0,0,1,.08.35Zm-.54.05a.32.32,0,0,0,0,.17.16.16,0,0,0,.26,0,.32.32,0,0,0,0-.17v-.64a.34.34,0,0,0,0-.18.16.16,0,0,0-.26,0,.34.34,0,0,0,0,.18Z" style="fill: url(#未命名漸層_9-256)"/>
          <path d="M45.71,26.24h-.22V25.1h-.22V25a.76.76,0,0,0,.31-.21h.13Z" style="fill: url(#未命名漸層_9-257)"/>
          <path d="M46.85,25.77a.55.55,0,0,1-.08.35.33.33,0,0,1-.3.15.34.34,0,0,1-.3-.15.63.63,0,0,1-.07-.35v-.55a.66.66,0,0,1,.07-.35.36.36,0,0,1,.3-.14.35.35,0,0,1,.3.14.55.55,0,0,1,.08.35Zm-.54.05a.32.32,0,0,0,0,.17.14.14,0,0,0,.13.07A.13.13,0,0,0,46.6,26s0-.07,0-.17v-.64c0-.11,0-.14,0-.18a.14.14,0,0,0-.13-.07.16.16,0,0,0-.13.07.34.34,0,0,0,0,.18Z" style="fill: url(#未命名漸層_9-258)"/>
          <path d="M47.55,26.24h-.22V25.1h-.21V25a.79.79,0,0,0,.3-.21h.13Z" style="fill: url(#未命名漸層_9-259)"/>
          <path d="M48.47,26.24h-.22V25.1H48V25a.79.79,0,0,0,.3-.21h.13Z" style="fill: url(#未命名漸層_9-260)"/>
          <path d="M49.39,26.24h-.22V25.1H49V25a.79.79,0,0,0,.3-.21h.13Z" style="fill: url(#未命名漸層_9-261)"/>
          <path d="M50.53,25.77a.55.55,0,0,1-.08.35.33.33,0,0,1-.29.15.32.32,0,0,1-.3-.15.55.55,0,0,1-.08-.35v-.55a.57.57,0,0,1,.08-.35.34.34,0,0,1,.3-.14.34.34,0,0,1,.29.14.55.55,0,0,1,.08.35Zm-.53.05A.35.35,0,0,0,50,26a.14.14,0,0,0,.14.07.12.12,0,0,0,.12-.07s0-.07,0-.17v-.64c0-.11,0-.14,0-.18a.14.14,0,0,0-.12-.07A.16.16,0,0,0,50,25a.37.37,0,0,0,0,.18Z" style="fill: url(#未命名漸層_9-262)"/>
        </g>
        <g>
          <path d="M45.69,31h-.22V29.84h-.21v-.13a.81.81,0,0,0,.3-.22h.13Z" style="fill: url(#未命名漸層_9-263)"/>
          <path d="M46.83,30.51a.6.6,0,0,1-.08.36.34.34,0,0,1-.29.14.34.34,0,0,1-.3-.14.6.6,0,0,1-.08-.36V30a.6.6,0,0,1,.08-.36.34.34,0,0,1,.3-.14.34.34,0,0,1,.29.14.6.6,0,0,1,.08.36Zm-.53,0a.42.42,0,0,0,0,.18.16.16,0,0,0,.14.07.17.17,0,0,0,.13-.07.39.39,0,0,0,0-.18v-.64a.35.35,0,0,0,0-.17.15.15,0,0,0-.13-.07.14.14,0,0,0-.14.07.35.35,0,0,0,0,.17Z" style="fill: url(#未命名漸層_9-264)"/>
          <path d="M47.53,31h-.22V29.84H47.1v-.13a.81.81,0,0,0,.3-.22h.13Z" style="fill: url(#未命名漸層_9-265)"/>
          <path d="M48.67,30.51a.6.6,0,0,1-.08.36.34.34,0,0,1-.29.14.35.35,0,0,1-.3-.14.6.6,0,0,1-.08-.36V30a.6.6,0,0,1,.08-.36.35.35,0,0,1,.3-.14.34.34,0,0,1,.29.14.6.6,0,0,1,.08.36Zm-.53,0a.42.42,0,0,0,0,.18.17.17,0,0,0,.14.07.17.17,0,0,0,.13-.07.39.39,0,0,0,0-.18v-.64a.35.35,0,0,0,0-.17.15.15,0,0,0-.13-.07.15.15,0,0,0-.14.07.35.35,0,0,0,0,.17Z" style="fill: url(#未命名漸層_9-266)"/>
          <path d="M49.37,31h-.22V29.84h-.21v-.13a.81.81,0,0,0,.3-.22h.13Z" style="fill: url(#未命名漸層_9-267)"/>
          <path d="M50.29,31h-.22V29.84h-.21v-.13a.81.81,0,0,0,.3-.22h.13Z" style="fill: url(#未命名漸層_9-268)"/>
          <path d="M51.21,31H51V29.84h-.21v-.13a.81.81,0,0,0,.3-.22h.13Z" style="fill: url(#未命名漸層_9-269)"/>
          <path d="M52.35,30.51a.6.6,0,0,1-.08.36A.33.33,0,0,1,52,31a.35.35,0,0,1-.3-.14.6.6,0,0,1-.08-.36V30a.6.6,0,0,1,.08-.36.35.35,0,0,1,.3-.14.33.33,0,0,1,.29.14.6.6,0,0,1,.08.36Zm-.53,0a.29.29,0,0,0,0,.18.14.14,0,0,0,.13.07.16.16,0,0,0,.13-.07.39.39,0,0,0,0-.18v-.64a.35.35,0,0,0,0-.17.14.14,0,0,0-.13-.07.13.13,0,0,0-.13.07s0,.07,0,.17Z" style="fill: url(#未命名漸層_9-270)"/>
        </g>
        <g>
          <path d="M9.08,29.58H8.86V28.44H8.65V28.3a.79.79,0,0,0,.3-.21h.13Z" style="fill: url(#未命名漸層_9-271)"/>
          <path d="M10.22,29.11a.55.55,0,0,1-.08.35.33.33,0,0,1-.29.15.33.33,0,0,1-.3-.15.55.55,0,0,1-.08-.35v-.55a.57.57,0,0,1,.08-.35.35.35,0,0,1,.3-.14.34.34,0,0,1,.29.14.55.55,0,0,1,.08.35Zm-.53.05a.35.35,0,0,0,0,.17.15.15,0,0,0,.14.07.15.15,0,0,0,.13-.07.35.35,0,0,0,0-.17v-.64a.37.37,0,0,0,0-.18.17.17,0,0,0-.13-.07.17.17,0,0,0-.14.07.37.37,0,0,0,0,.18Z" style="fill: url(#未命名漸層_9-272)"/>
          <path d="M10.92,29.58H10.7V28.44h-.21V28.3a.79.79,0,0,0,.3-.21h.13Z" style="fill: url(#未命名漸層_9-273)"/>
          <path d="M12.06,29.11a.55.55,0,0,1-.08.35.33.33,0,0,1-.29.15.33.33,0,0,1-.3-.15.55.55,0,0,1-.08-.35v-.55a.57.57,0,0,1,.08-.35.35.35,0,0,1,.3-.14.34.34,0,0,1,.29.14.55.55,0,0,1,.08.35Zm-.53.05a.35.35,0,0,0,0,.17.15.15,0,0,0,.14.07.14.14,0,0,0,.13-.07.35.35,0,0,0,0-.17v-.64a.37.37,0,0,0,0-.18.16.16,0,0,0-.13-.07.17.17,0,0,0-.14.07.37.37,0,0,0,0,.18Z" style="fill: url(#未命名漸層_9-274)"/>
          <path d="M12.76,29.58h-.22V28.44h-.21V28.3a.79.79,0,0,0,.3-.21h.13Z" style="fill: url(#未命名漸層_9-275)"/>
          <path d="M13.68,29.58h-.22V28.44h-.21V28.3a.79.79,0,0,0,.3-.21h.13Z" style="fill: url(#未命名漸層_9-276)"/>
          <path d="M14.6,29.58h-.21V28.44h-.22V28.3a.93.93,0,0,0,.31-.21h.12Z" style="fill: url(#未命名漸層_9-277)"/>
          <path d="M15.74,29.11a.55.55,0,0,1-.08.35.32.32,0,0,1-.29.15.33.33,0,0,1-.3-.15.55.55,0,0,1-.08-.35v-.55a.57.57,0,0,1,.08-.35.35.35,0,0,1,.3-.14.33.33,0,0,1,.29.14.55.55,0,0,1,.08.35Zm-.53.05c0,.1,0,.13,0,.17a.13.13,0,0,0,.13.07.14.14,0,0,0,.13-.07.32.32,0,0,0,0-.17v-.64a.34.34,0,0,0,0-.18.16.16,0,0,0-.13-.07.14.14,0,0,0-.13.07s0,.07,0,.18Z" style="fill: url(#未命名漸層_9-278)"/>
          <path d="M16.44,29.58h-.21V28.44H16V28.3a.93.93,0,0,0,.31-.21h.12Z" style="fill: url(#未命名漸層_9-279)"/>
          <path d="M17.36,29.58h-.21V28.44h-.22V28.3a.93.93,0,0,0,.31-.21h.12Z" style="fill: url(#未命名漸層_9-280)"/>
          <path d="M18.5,29.11a.63.63,0,0,1-.07.35.34.34,0,0,1-.3.15.33.33,0,0,1-.3-.15.62.62,0,0,1-.08-.35v-.55a.65.65,0,0,1,.08-.35.35.35,0,0,1,.3-.14.36.36,0,0,1,.3.14.63.63,0,0,1,.07.35Zm-.53.05a.32.32,0,0,0,0,.17.16.16,0,0,0,.26,0,.32.32,0,0,0,0-.17v-.64a.34.34,0,0,0,0-.18.16.16,0,0,0-.26,0,.34.34,0,0,0,0,.18Z" style="fill: url(#未命名漸層_9-281)"/>
        </g>
        <g>
          <path d="M17.23,21.79H17V20.64H16.8v-.13a1.12,1.12,0,0,0,.31-.22h.12Z" style="fill: url(#未命名漸層_9-282)"/>
          <path d="M18.37,21.31a.7.7,0,0,1-.07.36.36.36,0,0,1-.3.14.35.35,0,0,1-.3-.14.69.69,0,0,1-.08-.36v-.54a.69.69,0,0,1,.08-.36.35.35,0,0,1,.3-.14.36.36,0,0,1,.3.14.7.7,0,0,1,.07.36Zm-.53.05a.32.32,0,0,0,0,.17.16.16,0,0,0,.26,0,.29.29,0,0,0,0-.17v-.64a.36.36,0,0,0,0-.18.17.17,0,0,0-.26,0,.36.36,0,0,0,0,.18Z" style="fill: url(#未命名漸層_9-283)"/>
          <path d="M19.08,21.79h-.22V20.64h-.22v-.13a1.12,1.12,0,0,0,.31-.22h.13Z" style="fill: url(#未命名漸層_9-284)"/>
          <path d="M20.22,21.31a.69.69,0,0,1-.08.36.39.39,0,0,1-.6,0,.69.69,0,0,1-.08-.36v-.54a.69.69,0,0,1,.08-.36.39.39,0,0,1,.6,0,.69.69,0,0,1,.08.36Zm-.54.05a.32.32,0,0,0,0,.17.16.16,0,0,0,.26,0,.29.29,0,0,0,0-.17v-.64a.36.36,0,0,0,0-.18.17.17,0,0,0-.26,0,.36.36,0,0,0,0,.18Z" style="fill: url(#未命名漸層_9-285)"/>
          <path d="M20.92,21.79H20.7V20.64h-.22v-.13a1.12,1.12,0,0,0,.31-.22h.13Z" style="fill: url(#未命名漸層_9-286)"/>
          <path d="M21.84,21.79h-.22V20.64H21.4v-.13a1.12,1.12,0,0,0,.31-.22h.13Z" style="fill: url(#未命名漸層_9-287)"/>
          <path d="M22.76,21.79h-.22V20.64h-.22v-.13a.88.88,0,0,0,.31-.22h.13Z" style="fill: url(#未命名漸層_9-288)"/>
          <path d="M23.9,21.31a.69.69,0,0,1-.08.36.35.35,0,0,1-.3.14.36.36,0,0,1-.3-.14.7.7,0,0,1-.07-.36v-.54a.7.7,0,0,1,.07-.36.36.36,0,0,1,.3-.14.35.35,0,0,1,.3.14.69.69,0,0,1,.08.36Zm-.54.05a.32.32,0,0,0,0,.17.16.16,0,0,0,.26,0s0-.06,0-.17v-.64c0-.11,0-.13,0-.18a.17.17,0,0,0-.26,0,.36.36,0,0,0,0,.18Z" style="fill: url(#未命名漸層_9-289)"/>
          <path d="M24.6,21.79h-.22V20.64h-.22v-.13a.88.88,0,0,0,.31-.22h.13Z" style="fill: url(#未命名漸層_9-290)"/>
          <path d="M25.52,21.79H25.3V20.64h-.21v-.13a.93.93,0,0,0,.3-.22h.13Z" style="fill: url(#未命名漸層_9-291)"/>
          <path d="M26.66,21.31a.6.6,0,0,1-.08.36.35.35,0,0,1-.3.14.33.33,0,0,1-.29-.14.6.6,0,0,1-.08-.36v-.54a.6.6,0,0,1,.08-.36.33.33,0,0,1,.29-.14.35.35,0,0,1,.3.14.6.6,0,0,1,.08.36Zm-.54.05a.32.32,0,0,0,0,.17.14.14,0,0,0,.13.07.13.13,0,0,0,.13-.07s0-.06,0-.17v-.64c0-.11,0-.13,0-.18a.14.14,0,0,0-.13-.06.15.15,0,0,0-.13.06.36.36,0,0,0,0,.18Z" style="fill: url(#未命名漸層_9-292)"/>
        </g>
      </g>
      <g>
        <path d="M43.27,13.26a1.87,1.87,0,1,0,2.65,0A1.88,1.88,0,0,0,43.27,13.26Z" style="fill: url(#未命名漸層_9-293)"/>
        <path d="M42.61,9.35a1,1,0,0,0,.69.27,6.5,6.5,0,0,1,6.62,6.17.94.94,0,0,0,1,.9,1,1,0,0,0,.9-1A8.35,8.35,0,0,0,50.09,11a8.44,8.44,0,0,0-6.83-3.29.94.94,0,0,0-.92,1A1,1,0,0,0,42.61,9.35Z" style="fill: url(#未命名漸層_9-294)"/>
        <path d="M42.16,5.66a.94.94,0,0,0,.68.28A10.71,10.71,0,0,1,53.75,16.1a.94.94,0,0,0,1,.9,1,1,0,0,0,.9-1,12.61,12.61,0,0,0-12.83-12,1,1,0,0,0-.93,1A1,1,0,0,0,42.16,5.66Z" style="fill: url(#未命名漸層_9-295)"/>
        <path d="M42.71,1.61a.89.89,0,0,0,.58.28A16.63,16.63,0,0,1,54.4,8.1a16,16,0,0,1,3.43,7.53.95.95,0,0,0,1.87-.29,17.85,17.85,0,0,0-3.83-8.42A18.27,18.27,0,0,0,43.46,0a1,1,0,0,0-1,.86A1,1,0,0,0,42.71,1.61Z" style="fill: url(#未命名漸層_9-296)"/>
      </g>
    </g>
  </g>
</svg>
