<svg width="120" height="120" viewBox="0 0 120 120" fill="none" xmlns="http://www.w3.org/2000/svg">
<g clip-path="url(#clip0_885_1629)">
<path d="M71.3547 60.2239C66.8987 57.652 64.6692 54.2741 64.6824 50.9007L64.7015 13.0273C64.6926 16.4008 66.9165 19.7766 71.3714 22.3517C80.2298 27.4654 94.5399 27.4654 103.337 22.3562C107.71 19.8121 109.899 16.49 109.908 13.16L109.889 51.0344C109.879 54.3622 107.69 57.6833 103.319 60.225C94.5231 65.341 80.2088 65.341 71.3547 60.2239Z" fill="url(#paint0_linear_885_1629)"/>
<path d="M71.371 22.3499C62.5182 17.2397 62.4692 8.94632 71.2663 3.83617C80.0633 -1.27872 94.38 -1.27872 103.234 3.83617C112.09 8.94632 112.136 17.2397 103.336 22.3545C94.5395 27.4636 80.2294 27.4636 71.371 22.3499Z" fill="#E8ECF7"/>
<path d="M98.8999 12.0376L82.1742 12.8881L82.6948 9.12891H78.0728L76.8175 15.9819L98.8999 14.7065V12.0376Z" fill="#1AB558"/>
<path d="M38.3171 29.7577C58.9965 41.263 75.4604 69.7812 75.021 93.3354C74.5784 116.888 57.3964 126.685 36.7178 115.178C16.033 103.668 -0.430892 75.1504 0.00859817 51.5977C0.451888 28.0435 17.6322 18.2476 38.3171 29.7577Z" fill="url(#paint1_linear_885_1629)"/>
<path d="M48.2836 23.9675C37.8752 18.1761 28.3534 17.7801 21.4059 21.8171L11.4385 27.607C18.386 23.5701 27.9078 23.9661 38.3169 29.7591C58.9963 41.2644 75.4602 69.7826 75.0208 93.3368C74.7995 105.038 70.4498 113.345 63.59 117.33L73.5567 111.54C80.4164 107.553 84.7646 99.2478 84.9859 87.5468C85.4254 63.9926 68.9623 35.473 48.2836 23.9675Z" fill="url(#paint2_linear_885_1629)"/>
<path d="M36.8601 37.0151C54.2914 47.0796 68.4261 71.5529 68.3672 91.5825C68.3105 111.611 54.084 119.717 36.6529 109.656C19.2248 99.5928 5.09617 75.1132 5.15435 55.0852C5.21026 35.0556 19.429 26.9522 36.8601 37.0151Z" fill="#F7F7FF"/>
<path d="M38.9612 72.8707C38.6327 72.3025 38.2431 71.8149 37.827 71.4283C37.5645 71.1814 37.2897 70.9764 37.0156 70.8181C36.7571 70.669 36.4963 70.5619 36.2456 70.5014C35.8163 70.3942 35.4087 70.4284 35.0671 70.6224C34.529 70.9252 34.2589 71.5758 34.2542 72.3832C34.2503 72.9778 34.3955 73.6594 34.6859 74.3489L32.8684 75.3845L16.6143 84.6447L17.5233 86.2191L33.7605 76.9605L35.6074 75.9078C36.0344 76.445 36.515 76.8658 36.9979 77.1437C37.5467 77.462 38.098 77.5909 38.5707 77.4853C38.7027 77.4558 38.8277 77.4092 38.9449 77.3424C40.0271 76.7307 40.0271 74.72 38.9612 72.8707Z" fill="url(#paint3_linear_885_1629)"/>
<path d="M54.9417 71.4057L40.1997 71.4244C39.324 70.1154 38.217 68.9974 37.0121 68.3019C36.1891 67.8268 35.4144 67.6001 34.725 67.597L18.98 37.5977L16.5369 38.624L32.4184 68.8827C32.059 69.482 31.8556 70.277 31.851 71.2428C31.8471 72.5734 32.2267 74.0221 32.8687 75.3837L34.6862 74.3481C34.3958 73.6587 34.2507 72.977 34.2545 72.3824C34.2592 71.5749 34.5293 70.9244 35.0674 70.6216C35.409 70.4276 35.8166 70.3934 36.2458 70.5006C36.4966 70.5611 36.7574 70.6683 37.0159 70.8173C37.29 70.9756 37.5649 71.1806 37.8272 71.4275C38.2433 71.8141 38.633 72.3017 38.9614 72.8699C40.0273 74.7192 40.0274 76.7299 38.9452 77.3416C38.8279 77.4084 38.7029 77.455 38.571 77.4845C38.0982 77.5901 37.5469 77.4612 36.9981 77.1445C36.5152 76.865 36.0347 76.4442 35.6077 75.907L33.7607 76.9597C34.6395 78.2826 35.759 79.4161 36.9771 80.1194C39.6345 81.6535 41.8285 80.6023 42.1079 77.7826L57.1581 77.7686L54.9417 71.4057Z" fill="#4CB1DE"/>
<path d="M68.3386 89.9868C68.3541 90.5163 68.3712 91.0535 68.3681 91.5814C68.3681 92.1078 68.3488 92.6248 68.3308 93.1356L58.7283 87.5926L58.7384 84.4453L68.3386 89.9868Z" fill="#5B8CD3"/>
<path d="M14.7938 59.0744L14.7845 62.2216L5.18351 56.6801C5.16402 56.146 5.15242 55.6118 5.15553 55.0855C5.15553 54.5592 5.16792 54.0374 5.19284 53.5312L14.7938 59.0744Z" fill="#5B8CD3"/>
<path d="M38.0582 99.3736L38.0257 110.407C37.5715 110.165 37.1142 109.921 36.6539 109.657C36.1966 109.391 35.7432 109.109 35.2852 108.825L35.3169 97.793L38.0582 99.3736Z" fill="#5B8CD3"/>
<path d="M36.8609 37.0155C37.3197 37.2811 37.777 37.559 38.2304 37.8478L38.2008 48.878L35.4587 47.2959L35.4906 36.2656C35.9494 36.5032 36.4021 36.7516 36.8609 37.0155Z" fill="#5B8CD3"/>
<path d="M116.129 38.0115C117.715 37.151 119.011 37.8382 119.018 39.5528L119.14 80.3906C119.146 82.1047 117.857 84.1957 116.27 85.0568L69.4186 110.482C67.8304 111.343 66.5402 110.651 66.534 108.938L66.4111 68.0998C66.4063 66.3857 67.6894 64.2983 69.2758 63.4359L116.129 38.0115Z" fill="#E3F1FF"/>
<path d="M115.77 36.5068C115.246 36.2208 114.52 36.2612 113.72 36.6961L66.8684 62.12C65.2811 62.9805 63.9975 65.0689 64.0028 66.7821L64.1252 107.621C64.1283 108.472 64.4493 109.072 64.9654 109.354L67.3716 110.668C66.8573 110.386 66.5358 109.788 66.5336 108.936L66.4108 68.0981C66.406 66.384 67.689 64.2965 69.2755 63.4341L116.129 38.0099C116.927 37.5758 117.654 37.5354 118.178 37.8227L115.77 36.5068Z" fill="white"/>
<path d="M107.863 69.7934C109.431 70.2696 110.298 71.6046 110.306 73.5546V73.6504L110.306 73.7408C110.311 75.6904 109.455 77.9609 107.896 80.1392C106.453 82.1478 104.553 83.8556 102.547 84.9437C100.548 86.0296 98.642 86.386 97.1921 85.9479C96.2153 85.6464 95.5073 85.0155 95.1171 84.1123L98.5639 82.2422C99.4582 82.7698 100.949 82.6678 102.58 81.782C105.206 80.3574 107.383 77.3442 107.378 75.3304V75.239L107.377 75.1433C107.371 73.1285 105.117 72.53 102.491 73.9546C100.573 74.9961 98.8934 76.876 98.1237 78.606L95.6452 79.5522L95.5246 79.5979L95.2253 79.7039L96.9221 67.7136L97.5521 67.3731L99.8981 66.0988L108 61.7031L108.009 64.8715L99.4077 69.5377L98.8318 73.6141C99.949 72.4733 101.204 71.5054 102.505 70.7999C104.511 69.711 106.415 69.3532 107.863 69.7934Z" fill="#1CD169"/>
<path d="M90.8649 80.561L82.9492 92.0121L92.6042 86.7719L92.6127 89.9358L78.4108 97.6435L78.4002 94.4494L88.8391 79.3501C89.5126 78.317 89.5981 77.585 89.5981 77.2232C89.5941 75.6205 87.6681 75.3136 85.3922 76.5489C83.1106 77.7868 81.1939 80.1793 81.1988 81.7803L78.2684 83.3698C78.2645 81.7134 79.0701 79.6805 80.4893 77.7904C81.8124 76.0297 83.5491 74.5054 85.3821 73.5114C87.2119 72.5191 88.9526 72.1546 90.2792 72.4783C91.7064 72.8241 92.5227 73.9764 92.5284 75.6329C92.532 76.8916 92.1844 78.2 91.5056 79.4814C91.4009 79.6867 90.8919 80.5179 90.8649 80.561Z" fill="#1CD169"/>
<path d="M119.018 39.5528C119.011 37.8382 117.715 37.151 116.129 38.0115L69.2758 63.4358C67.6894 64.2982 66.4063 66.3856 66.4111 68.0998L66.4395 77.6949L119.046 49.1488L119.018 39.5528Z" fill="#1BC15E"/>
</g>
<defs>
<linearGradient id="paint0_linear_885_1629" x1="94.4761" y1="38.5793" x2="59.9487" y2="38.3117" gradientUnits="userSpaceOnUse">
<stop offset="0.1883" stop-color="#BBC0E6"/>
<stop offset="0.2021" stop-color="#BBC0E6"/>
<stop offset="0.6319" stop-color="#CED3F8"/>
</linearGradient>
<linearGradient id="paint1_linear_885_1629" x1="-3.76741e-05" y1="72.467" x2="75.0296" y2="72.467" gradientUnits="userSpaceOnUse">
<stop stop-color="#A7CAEC"/>
<stop offset="1" stop-color="#5B8CD3"/>
</linearGradient>
<linearGradient id="paint2_linear_885_1629" x1="37.8792" y1="7.40133" x2="63.1796" y2="121.595" gradientUnits="userSpaceOnUse">
<stop offset="0.0479" stop-color="#39E3FF"/>
<stop offset="0.2146" stop-color="#43D0F2"/>
<stop offset="0.4091" stop-color="#52B6E0"/>
<stop offset="0.5174" stop-color="#4DA3DE"/>
<stop offset="0.6482" stop-color="#4688DD"/>
</linearGradient>
<linearGradient id="paint3_linear_885_1629" x1="16.6142" y1="78.3303" x2="39.7586" y2="78.3303" gradientUnits="userSpaceOnUse">
<stop stop-color="#E7358A"/>
<stop offset="1" stop-color="#EC6D1C"/>
</linearGradient>
<clipPath id="clip0_885_1629">
<rect width="120" height="120" fill="white"/>
</clipPath>
</defs>
</svg>
