<?xml version="1.0" encoding="utf-8"?>
<!-- Generator: Adobe Illustrator 16.0.0, SVG Export Plug-In . SVG Version: 6.00 Build 0)  -->
<!DOCTYPE svg PUBLIC "-//W3C//DTD SVG 1.1//EN" "http://www.w3.org/Graphics/SVG/1.1/DTD/svg11.dtd">
<svg version="1.1" xmlns="http://www.w3.org/2000/svg" xmlns:xlink="http://www.w3.org/1999/xlink" x="0px" y="0px" width="100px"
	 height="100px" viewBox="0 0 100 100" enable-background="new 0 0 100 100" xml:space="preserve">
<g id="bg">
</g>
<g id="info">
	<path opacity="0.3" fill="#FFFFFF" d="M0,50c0,27.6,22.4,50,50,50c27.6,0,50-22.4,50-50S77.6,0,50,0C22.4,0,0,22.4,0,50z
		 M35.8,46.9l22.1-22.3c1.7-1.7,4.6-1.8,6.3,0c1.8,1.7,1.8,4.6,0,6.3L45.2,50l19,19.2c1.7,1.7,1.7,4.6,0,6.3c-1.8,1.7-4.6,1.7-6.3,0
		L35.8,53.1C34,51.4,34,48.6,35.8,46.9z"/>
</g>
<g id="圖層_6">
</g>
<g id="圖層_1" display="none">
</g>
<g id="其他">
</g>
<g id="圖層_2">
</g>
</svg>
