<svg xmlns="http://www.w3.org/2000/svg" xml:space="preserve" id="Layer_1" x="0" y="0" style="enable-background:new 0 0 24 24" version="1.1" viewBox="0 0 24 24"><style>.st2{fill:#f5f5f5}.st3{fill:#3cc8ff}.st7{fill:#f0aa00}</style><g id="costa_rica"><g id="Group-2" transform="translate(.5 .5)"><path id="Oval" d="M11.5 0c4.8 0 9.1 3.1 10.8 7.5 1.7 4.5.2 9.7-3.5 12.8-3.7 3-9 3.5-13.1 1.1C1.5 18.9-.7 14 .3 9.2 1.3 3.9 6.1 0 11.5 0z" style="fill:#eee"/><path id="Path" d="M22.2 7.5H1.5c-.1 0-.6-.1-.7 0-.5.3-.6 2.4-.7 3-.1 1.1 0 2.2.2 3.3.1.4.2 1.5.5 1.7.1.1.3 0 .4 0 .5.1 1.2 0 1.7 0h18.6c.7 0 .7.1 1-.5.9-2.2.5-5.4-.3-7.5z" style="fill:#d80027"/><path d="M5.2 8.5c3.7 0 3.7 6.1 0 6.1-3.7-.1-3.7-6.1 0-6.1z" class="st2"/><path id="Rectangle-path" d="M3.7 10.3c.8 0 1.7-.2 2.5 0 .5.1.3-.1.5.2.1.1.1 1.2 0 1.2-.2.2-2.2.1-2.5 0-.3-.1-.3.1-.5-.1-.1-.2 0-1 0-1.3z" class="st3"/><path id="Shape" d="M4.1 11.2v.3c0-.1.1-.2.1-.3 0 .1 0 .2-.1.3.1-.1.1-.2.2-.2-.1.1-.1.2-.2.3.1-.1.2-.1.3-.2-.1.1-.2.1-.2.2.1 0 .2 0 .3-.1-.1 0-.2.1-.3.1h.3-.3c.1 0 .2.1.3.1-.1 0-.2 0-.3-.1.1.1.2.1.2.2-.1-.1-.2-.1-.3-.2.1.1.1.2.2.3.1.1 0 .1-.1 0 0 .1 0 .2.1.3 0-.1-.1-.2-.1-.3v.3-.3c-.1.1-.2.2-.2.3v-.3c0 .1-.1.1-.2.2.1-.1.1-.2.2-.3-.1.1-.2.2-.3.2.1-.1.2-.1.2-.2-.1 0-.2 0-.3.1.1 0 .2-.1.3-.1h-.3.3c-.1 0-.2-.1-.3-.1.1 0 .2 0 .3.1-.1-.1-.2-.1-.2-.2.1.1.2.1.3.2-.1-.1-.1-.2-.2-.3.1-.2.2-.1.2 0 0-.1 0-.2-.1-.3 0 .1.1.2.1.3.1-.1.1-.2.1-.3z" style="fill:#ffe15a"/><path d="M5.8 13.8c-.8 0-1.8 0-2.2-.8-.1-.1-.2-1.1 0-1.2.1-.1.6-.1.8-.1.5 0 2.4-.3 2.6.1.1.2 0 1.1-.1 1.2-.1.3-.8.6-1.1.8z" style="fill:#41479b"/><path d="M6.4 11.3c-.2 0-.1.3-.3.6-.9-1.1.1-.4-.9.2-.3-.3-.2-.9-.5-.8.3-.1-1.2 1.2-1.1 1-.3.5 1.3.3 1.7.3.4 0 1.6.2 1.7-.1.1-.4-.6-.8-.6-1.2z" style="fill:#73af00"/><g id="Group"><path d="M6.84 10.413c-.2-.1-.3-.3-.5-.4l-.8-.4c-.5 0-.8.1-1.1.3-.4.2-1.3.5-1.3 1.1 0 .4.3 0 .5-.1.7-.4 1.4-.8 2.3-.5.4.1.6.6 1 .7.1 0 .1.4.3 0 .1-.3-.2-.6-.4-.7z" class="st7"/><path d="M7.14 11.613c-.5 0-.5-.5 0-.6-.1-.1-.4-.2-.6-.2-.2.8.5 1.4.1 2.2-.2.4-1 .9-1.4.9-.4 0-1.2-.5-1.4-.9-.5-.8.2-1.4 0-2.2-.2 0-.4.1-.6.2 1.1.1-.4.7-.4.8-.5.7 1.1 2 1.7 2.3.8.5 1.2.1 1.8-.5.2-.1 2.3-2 .8-2z" class="st7"/></g><path d="M6.4 9.5c-.1 0 0-.2-.3-.1.7-.6-2.5-.6-1.8 0-.3 0-.4.1-.7.3 0 .1 1.3-.1 1.6-.1.4 0 1.5.2 1.6.1-.1-.1-.3-.2-.4-.2zm-.8-.2c-.3-.3-.9.2-1.2-.1.3-.2 1.3-.2 1.6 0-.1.1-.3.1-.4.1z" class="st3"/><path d="M5.253 10.512c.1.1 0 .2.2.1l-.1.2h-.2s0-.2-.1-.2c.1.1.2 0 .2-.1z" class="st2"/><path d="M5.053 10.512c.1.1 0 .2.2.1l-.1.2h-.2l-.1-.2c.1.1.2 0 .2-.1z" class="st2"/><path d="m4.853 10.612.2.1v.2s-.2 0-.2.1c0 0 0-.2-.1-.2 0 0 .1-.1.1-.2zM4.553 10.712l.2.1v.2l-.2.1-.1-.2c.1 0 .2-.1.1-.2zM5.453 10.512c-.1.1 0 .2-.2.1l.1.2h.2l.1-.2c-.1.1-.2 0-.2-.1z" class="st2"/><path d="m5.653 10.612-.2.1v.2s.2 0 .2.1c0 0 0-.2.1-.2 0 0-.1-.1-.1-.2zM5.953 10.712l-.2.1v.2l.2.1.1-.2c-.1 0-.2-.1-.1-.2z" class="st2"/><path d="M11.5 0C8.1 0 4.9 1.5 2.8 4h17.4c-2.2-2.5-5.4-4-8.7-4zm8.6 18.9H2.7c4.6 5.3 12.9 5.3 17.4 0z" style="fill:#0052b4"/></g><path d="M12 .5c4.8 0 9.2 3.1 10.8 7.6 1.6 4.5.2 9.7-3.5 12.7-3.7 3.2-9.2 3.6-13.3 1C1.9 19.3-.2 14.4.7 9.7 1.8 4.4 6.6.5 12 .5z" style="fill:none;stroke:#fff"/></g></svg>