<svg xmlns="http://www.w3.org/2000/svg" width="24" height="24"><g fill="none" fill-rule="evenodd"><path fill="#FF4B55" fill-rule="nonzero" d="M12 23.5a11.5 11.5 0 1 1 0-23 11.5 11.5 0 0 1 0 23Z"/><path fill="#5A8250" fill-rule="nonzero" d="m14.13 13.12 3.41-2.5h-4.23L12 6.58l-1.31 4.04H6.46l3.41 2.5-1.3 4L12 14.69l3.43 2.45-1.3-4Zm.68-1.6-.98.7-.23-.7h1.21Zm-3.88 1.27.4-1.28h1.33l.41 1.28-1.07.78-1.07-.78ZM12 9.48l.37 1.14h-.74L12 9.48ZM9.19 11.5h1.2l-.22.72-.98-.72Zm1.07 3.31.37-1.14.6.44-.97.7Zm3.1-1.14.38 1.14-.98-.7.6-.44Z"/><circle cx="12" cy="12" r="11.5" stroke="#FFF"/></g></svg>