<svg xmlns="http://www.w3.org/2000/svg" width="24" height="24"><g fill="none" fill-rule="evenodd"><g fill-rule="nonzero"><path fill="#F5F5F5" d="M1.155 15.836h21.69C21.265 20.3 17.006 23.5 12 23.5s-9.265-3.199-10.845-7.664Z"/><path fill="#FF4B55" d="M22.845 8.164H1.155C2.735 3.7 6.994.5 12 .5s9.265 3.199 10.845 7.664Z"/><path fill="#41479B" d="M1.155 8.164h21.69c.424 1.2.655 2.49.655 3.836 0 1.345-.23 2.636-.655 3.836H1.155C.731 14.636.5 13.346.5 12c0-1.345.23-2.636.655-3.836Z"/></g><path fill="#FFE15A" fill-rule="nonzero" d="M10.427 7.996H5.876l-.189-1.138h4.929z"/><path fill="#FFD350" fill-rule="nonzero" d="m5.829 7.711.047.75h4.551l.047-.75z"/><g fill="#FFE15A" fill-rule="nonzero"><path d="M8.056 4.204h.75v.758h-.75z"/><path d="M7.867 4.393h.75v.75h-.75z"/><path d="M10.441 7.237a.19.19 0 0 1-.178-.254l.402-1.108a.2.2 0 0 0-.013-.166.176.176 0 0 0-.116-.089c-.49-.104-1.44-.279-2.293-.279H8.06c-.854 0-1.803.175-2.293.28a.175.175 0 0 0-.116.088.2.2 0 0 0-.013.166l.402 1.108a.19.19 0 1 1-.357.13l-.401-1.11a.58.58 0 0 1 .037-.478.555.555 0 0 1 .369-.275c.504-.108 1.483-.288 2.372-.288h.183c.889 0 1.867.18 2.372.287.156.034.29.134.369.276a.58.58 0 0 1 .037.479l-.401 1.108a.19.19 0 0 1-.179.125Z"/><path d="M8.338 7.071c-.208 0-.375-.084-.375-.19v-1.54c0-.105.167-.19.375-.19.207 0 .375.085.375.19v1.54c0 .106-.168.19-.375.19Z"/><path d="M9.463 7.237a.19.19 0 0 1-.186-.228l.23-1.108c.03-.145-.017-.271-.044-.293-.262-.097-.79-.267-1.26-.267H8.1c-.47 0-.997.17-1.27.272a.427.427 0 0 0-.033.288l.23 1.108a.19.19 0 1 1-.371.077l-.23-1.108c-.058-.276.03-.63.272-.72.363-.135.9-.296 1.402-.296h.105c.502 0 1.04.16 1.401.295.243.09.33.445.273.72l-.23 1.11a.19.19 0 0 1-.185.15Z"/></g><path fill="#FFD350" fill-rule="nonzero" d="M5.734 7.608h4.835l.047-.75H5.687z"/><path fill="#FF4B55" fill-rule="nonzero" d="M4.549 7.996a.19.19 0 0 0-.19.19v6.62a3.8 3.8 0 0 0 3.792 3.807 3.8 3.8 0 0 0 3.792-3.806V8.185a.19.19 0 0 0-.19-.19H4.55Z"/><path fill="#F5F5F5" fill-rule="nonzero" d="m8.53 14.253.38-.948-.759.19-.758-.19.38.948-.949 3.223s.569.379 1.327.379c.759 0 1.328-.38 1.328-.38l-.948-3.222Z"/><path fill="#FFE15A" fill-rule="nonzero" d="m6.778 15.017-.334.083.736-1.324-.332-.184-.894 1.609h-.836v.379h.407l-.526.42.237.297.447-.358-.176.529.359.12.347-1.039.657-.165z"/><path fill="#F5F5F5" fill-rule="nonzero" d="m6.824 9.892-.865-.433a.38.38 0 0 1-.199-.431l.05-.196a.215.215 0 0 0-.378-.187 3.166 3.166 0 0 0-.693 1.978v4.009s.791-.159 1.507-1.199a.745.745 0 0 1 .577-.316l-.378 1.136.758.19.664-.79-1.043-3.761Z"/><path fill="#FFE15A" fill-rule="nonzero" d="m9.525 15.017.334.083-.736-1.324.332-.184.894 1.609h.836v.379h-.407l.525.42-.236.297-.447-.358.176.529-.36.12-.346-1.039-.657-.165z"/><path fill="#F5F5F5" fill-rule="nonzero" d="m9.479 9.892.865-.433a.38.38 0 0 0 .198-.431l-.049-.196a.215.215 0 0 1 .377-.187c.45.562.694 1.26.694 1.978v4.009s-.792-.159-1.507-1.199a.745.745 0 0 0-.578-.316l.379 1.136-.759.19-.663-.79 1.043-3.761Z"/><g fill="#FFE15A" fill-rule="nonzero"><path d="M7.014 8.564h-.948l.284.38.664.19-.38.19h.57zM9.289 8.564h.948l-.284.38-.664.19.379.19H9.1z"/></g><path fill="#F5F5F5" fill-rule="nonzero" d="m9.422 8.416-.891.148-.38.759-.379-.759-.892-.148a.127.127 0 0 0-.134.182l.457.914-.379.38H9.48l-.38-.38.458-.914a.127.127 0 0 0-.135-.182Z"/><circle cx="8.617" cy="7.406" r="1" fill="#FFBE50" fill-rule="nonzero"/><circle cx="8.673" cy="8.212" r="1" fill="#41479B" fill-rule="nonzero"/><circle cx="7.551" cy="8.212" r="1" fill="#FF4B55" fill-rule="nonzero"/><g fill="#41479B" fill-rule="nonzero" transform="translate(5.672 7.453)"><circle cx=".757" cy=".771" r="1"/><circle cx="5.245" cy=".771" r="1"/></g><circle cx="9.794" cy="8.212" r="1" fill="#FF4B55" fill-rule="nonzero"/><g fill="#FFBE50" fill-rule="nonzero" transform="translate(5.484 6.656)"><circle cx="4.45" cy=".75" r="1"/><circle cx="5.49" cy=".75" r="1"/><circle cx="1.816" cy=".75" r="1"/><circle cx=".776" cy=".75" r="1"/></g><path fill="#41479B" fill-rule="nonzero" d="M8.478 5.522a.618.618 0 0 0 .053-.25c0-.276-.17-.5-.38-.5s-.379.224-.379.5c0 .092.02.177.053.25h.653Z"/><path fill="#FF4B55" fill-rule="nonzero" d="M8.151 13.779a1.424 1.424 0 0 1-1.422-1.422v-2.56h2.844v2.56c0 .784-.637 1.422-1.422 1.422Z"/><path fill="#A54B50" fill-rule="nonzero" d="M9.479 9.892v2.465a1.327 1.327 0 1 1-2.655 0V9.892H9.48Zm.19-.19H6.633v2.655c0 .836.681 1.516 1.517 1.516.837 0 1.517-.68 1.517-1.516V9.702Z"/><g fill="#F5F5F5" fill-rule="nonzero"><path d="M7.867 13.652a2.29 2.29 0 0 0 .75 0v-3.76h-.75v3.76Z"/><path d="M6.824 11.456h2.655v.75H6.824z"/></g><circle cx="12" cy="12" r="11.5" stroke="#FFF"/></g></svg>