<svg xmlns="http://www.w3.org/2000/svg" width="24" height="24"><g fill="none" fill-rule="evenodd"><path fill="#FF4B55" fill-rule="nonzero" d="M1.8 18h20.5a11.89 11.89 0 0 1-9.7 5.69h-1.1a11.89 11.89 0 0 1-9.7-5.7Z"/><path fill="#FFE15A" fill-rule="nonzero" d="M11.44.21h1.12C18.87.51 23.9 5.67 23.9 12H.1C.1 5.67 5.13.5 11.44.21Z"/><path fill="#41479B" fill-rule="nonzero" d="M23.8 12a12.1 12.1 0 0 1-1.57 6H1.77A12.1 12.1 0 0 1 .2 12h23.6Z"/><path fill="#FFE15A" fill-rule="nonzero" d="m11.57 14.3 3.02-2.58v3.75a1.14 1.14 0 0 1-1.9.85l-1.12-1V14.3Z"/><path fill="#FF4B55" fill-rule="nonzero" d="M13.16 15.78 12.3 15v-1.3l1.58-1.36v3.14a.42.42 0 0 1-.7.31Z"/><path fill="#41479B" fill-rule="nonzero" d="M12.72 13.32v1.48l.72.65V12.7l.43-.37v3.14a.42.42 0 0 1-.7.31l-.88-.79v-1.3l.43-.37Z"/><path fill="#FFE15A" fill-rule="nonzero" d="m12.43 14.3-3.02-2.58v3.75a1.14 1.14 0 0 0 1.9.85l1.12-1V14.3Z"/><path fill="#FF4B55" fill-rule="nonzero" d="m10.84 15.78.87-.79v-1.3l-1.58-1.36v3.14a.42.42 0 0 0 .7.31Z"/><path fill="#41479B" fill-rule="nonzero" d="M11.28 13.32v1.48l-.72.65V12.7l-.43-.37v3.14a.42.42 0 0 0 .7.31l.88-.79v-1.3l-.43-.37Zm3.2-1.59h.76v1.24h-.75zm-5.18 0h.75v1.24H9.3z"/><g fill="#5A4646" fill-rule="nonzero"><path d="M11.57 11.14s.29-1.37-.72-1.19c-1 .18-1 .47-2.16 1.05 0 0 1.3.28 1.87.14 0 0 .43.58.86.72h.44l-.3-.72Zm.86 0s-.29-1.37.72-1.19c1 .18 1 .47 2.16 1.05 0 0-1.3.28-1.87.14 0 0-.43.58-.86.72h-.44l.3-.72Z"/><path d="M12.43 11.86h-.86v-.72c0-.24.19-.43.42-.43H12c.24 0 .43.19.43.43v.72Z"/></g><circle cx="12.46" cy="11.6" r="1" fill="#E6E1CD" fill-rule="nonzero"/><path fill="#FFD0AF" fill-rule="nonzero" d="m11.38 11.04.57.4c.05.03.1.02.15-.03a.2.2 0 0 0 0-.22l-.37-.48h-.09c-.14 0-.26.15-.26.33Z"/><path fill="#FFAF94" fill-rule="nonzero" d="M11.7 11.46h-.56l.24-.58c.05-.1.12-.17.19-.17h.32v.38c0 .2-.09.37-.19.37Z"/><path fill="#8CB400" fill-rule="nonzero" d="M13.23 11.86a.4.4 0 0 1-.07-.4.4.4 0 0 1 .46.48c.03.05.07.11.1.19l.01-.04a.34.34 0 0 1 .24-.23.33.33 0 0 1-.11.54l.1.27v-.02a.33.33 0 0 1 .27-.2.33.33 0 0 1-.18.52c.05.2.09.4.09.62h-.15c0-.19-.02-.37-.07-.55a.33.33 0 0 1-.43-.32.33.33 0 0 1 .33.01h.01a3.9 3.9 0 0 0-.1-.24.33.33 0 0 1-.46-.27.33.33 0 0 1 .33-.03 4.25 4.25 0 0 0-.1-.19.4.4 0 0 1-.27-.14Zm-2.46 0a.4.4 0 0 0 .07-.4.4.4 0 0 0-.46.48 4.23 4.23 0 0 0-.1.19l-.01-.04a.34.34 0 0 0-.24-.23.33.33 0 0 0 .11.54 4.03 4.03 0 0 0-.1.27v-.02a.33.33 0 0 0-.27-.2.33.33 0 0 0 .18.52 2.53 2.53 0 0 0-.09.62h.15c0-.19.02-.37.07-.55a.33.33 0 0 0 .43-.32.33.33 0 0 0-.33.01h-.01c.03-.08.06-.17.1-.24a.33.33 0 0 0 .46-.27.33.33 0 0 0-.33-.03l.1-.19a.4.4 0 0 0 .27-.14Z"/><path fill="#FFE15A" fill-rule="nonzero" d="m12 15.03-3.02-2.6v3.76a1.14 1.14 0 0 0 1.9.85l1.12-1v-1.01Z"/><path fill="#FF4B55" fill-rule="nonzero" d="m10.4 16.5.88-.79v-1.3L9.7 13.05v3.14a.42.42 0 0 0 .7.31Z"/><path fill="#41479B" fill-rule="nonzero" d="M10.85 14.04v1.48l-.72.65v-2.75l-.43-.37v3.14a.42.42 0 0 0 .7.31l.88-.79v-1.3l-.43-.37Z"/><path fill="#FFE15A" fill-rule="nonzero" d="m12 15.03 3.02-2.6v3.76a1.14 1.14 0 0 1-1.9.85l-1.12-1v-1.01Z"/><path fill="#FF4B55" fill-rule="nonzero" d="m13.6 16.5-.88-.79v-1.3l1.58-1.36v3.14a.42.42 0 0 1-.7.31Z"/><path fill="#41479B" fill-rule="nonzero" d="M13.15 14.04v1.48l.72.65v-2.75l.43-.37v3.14a.42.42 0 0 1-.7.31l-.88-.79v-1.3l.43-.37Z"/><ellipse cx="12" cy="14.02" fill="#69C3FF" fill-rule="nonzero" rx="1.44" ry="2.16"/><path fill="#009B64" fill-rule="nonzero" d="M10.7 14.6h2.6l.14-.58-.66.1a.45.45 0 0 1-.36-.1l-.75-.63a.37.37 0 0 0-.5.02l-.46.47v.72Z"/><path fill="#F5F5F5" fill-rule="nonzero" d="m11.86 13.95.25-.17-.44-.39a.36.36 0 0 0-.24-.09.36.36 0 0 0-.26.11l-.47.49v.15l.72-.15.13.07c.1.05.22.04.31-.02Z"/><path fill="#5AA0E6" fill-rule="nonzero" d="m10.7 14.6.15.86.72.72H12l.58-.14.57-.58.14-.87z"/><path fill="#FFC88C" fill-rule="nonzero" d="M12 16.32c-.87 0-1.58-1.03-1.58-2.3 0-1.27.7-2.3 1.58-2.3s1.58 1.03 1.58 2.3-.7 2.3-1.58 2.3ZM12 12c-.71 0-1.3.9-1.3 2.02 0 1.11.59 2.01 1.3 2.01.71 0 1.3-.9 1.3-2.01C13.3 12.9 12.7 12 12 12Z"/><g fill="#E1E1E1" fill-rule="nonzero"><path d="M10.98 16.17a.63.63 0 0 0-.5-.28.63.63 0 0 0-.5.28.7.7 0 0 1 .45.44.85.85 0 0 1 .05.29c0-.36.22-.65.5-.73Z"/><path d="M11.12 16.63s-.04.5-.37.74l-.01-.01c-.33-.24-.37-.74-.37-.74h.75Z"/></g><path fill="#966446" fill-rule="nonzero" d="M13.8 17.29h-3.6c-.04 0-.07-.17-.07-.37v-.01c0-.2.03-.37.07-.37h3.6c.04 0 .07.16.07.37s-.03.38-.07.38Z"/><path fill="#BE915A" fill-rule="nonzero" d="M12.72 17.07h-1.44c-.16 0-.29-.16-.29-.37s.13-.38.29-.38h1.44c.16 0 .29.17.29.37v.01c0 .2-.13.37-.29.37Z"/><path fill="#B9B9B9" fill-rule="nonzero" d="M10.88 16.54h-.66c-.05 0-.1.17-.1.37s.05.38.1.38h.66v-.75Z"/><path fill="#FF4B55" fill-rule="nonzero" d="M12.17 16.9v1.31l-.75-.16.38-1.15z"/><path fill="#41479B" fill-rule="nonzero" d="m11.86 16.9-.3 1-.57-.14.43-.86z"/><path fill="#FFE15A" fill-rule="nonzero" d="m11.3 16.9-.45.6.45.15.3-.75z"/><path fill="#FF4B55" fill-rule="nonzero" d="M12 16.9v1.31l.75-.16-.38-1.15z"/><path fill="#41479B" fill-rule="nonzero" d="m12.14 16.9.3 1 .57-.14-.43-.86z"/><path fill="#FFE15A" fill-rule="nonzero" d="m12.73 16.9.45.6-.45.15-.3-.75z"/><path fill="#41479B" fill-rule="nonzero" d="m9.62 13.68-.75-.21v-1.03h.75zm6.05-.21-.75.2v-1.23h.75z"/><circle cx="12" cy="12" r="11.5" stroke="#FFF"/></g></svg>