<svg xmlns="http://www.w3.org/2000/svg" width="24" height="24"><g fill="none" fill-rule="evenodd"><path fill="#73AF00" fill-rule="nonzero" d="M12 23.5C5.6 23.5.5 18.4.5 12S5.6.5 12 .5 23.5 5.6 23.5 12 18.4 23.5 12 23.5Z"/><path fill="#F5F5F5" fill-rule="nonzero" d="m6.6 7.6-.2-.1c.3-.2.1-.7-.3-.7s-.6.6-.2.7c0 .3.3.6.3.9 0 .6-.2.3-.6.4 0-.2 0-2-.5-1.8-.3.1.1 1.6.1 1.9L5 9c0-.4.2-1.7-.6-1.5.4-.2.1-.9-.4-.7-.4.2-.3.8.2.7-.4.2-.2 1-.2 1.4-.1-.3-.3-1.7-.6-.9-.2.5.5 2 1 1 0-.1 0-1.6.2-.9.1.3-.2 1.7.6 1.3 0 .3-.2 1.9.1 1.9.4 0 .2-1.9.2-2.1 1 0 1.2-.4.9-1.3.3.1.4-.2.2-.3Z"/><path fill="#F5F5F5" fill-rule="nonzero" d="m4.7 9.7-1 .6c-.1.1-.1.2-.1.3 0 .1.1.1.2.1h.1l1-.6c0-.1.1-.2 0-.3 0-.1-.2-.1-.2-.1Z"/><path fill="#F5F5F5" fill-rule="nonzero" d="M7.3 10.1c.1.4.6.4.8.1.4.2.9-.4.7-.7-.2-.6-.4.2-.5.3-.5-.7-.2.1-.6.2-.1-.2 0-.7-.4-.4 0-.2 0-2.9-.5-2.6-.3.3.1 2.6.1 2.9-.5-1.4-2 1.3-.4.7-.2.6-1 1.4-1.4.5-.1-.2-.3-1.2-.5-.4-.1.6.5 1.1 1 1.1.8 0 1.3-.8 1.4-1.5 0 .9-1 2.5-2 1.7-.2-.2-.5-1.5-.7-.7-.3.9 1.1 1.4 1.8 1.1.9-.1 1.2-1.3 1.2-2.3Zm-1.2.2c-.1-.1.4-.6.4-.1-.2.1-.3.1-.4.1ZM4.1 12.1c-.1-.1-.2-.1-.3 0-.1-.2 0-.6 0-.7 0-.1 0-.2-.1-.2s-.2 0-.2.1-.1.5 0 .9c.1.2.2.3.3.3.2 0 .3-.2.4-.3 0 0 0-.1-.1-.1Z"/><path fill="#F5F5F5" fill-rule="nonzero" d="M7.7 8.5h.1l1-.8c.1-.1.2-.3.2-.4 0-.3-.2-.5-.4-.5-.3 0-.5.2-.5.5 0 .2.1.3.2.4l-.8.5c-.1.1-.1.2 0 .3h.2Zm.9-1.3s.1 0 0 0c.1.2.1.2 0 .2s-.1-.1 0-.2c-.1 0-.1 0 0 0ZM8.3 8.3c-.1 0-.2 0-.2.1s-.1.4.1.6c.1.1.2.1.3.1h.3c.1 0 .2-.1.1-.2 0-.1-.1-.2-.2-.1h-.2v-.2c0-.1-.1-.2-.2-.3ZM9.5 7.5h.1c.1 0 .2 0 .2-.1.1-.1 0-.2-.1-.3V7c0-.1 0-.1.1-.1s.2-.1.2-.2-.2-.2-.3-.1c-.3 0-.5.2-.5.4s.1.4.3.5ZM7.9 10.7c-.1 0-.2.1-.2.2s.1.1.2.1v.2c0 .1.1.2.2.2s.2-.1.2-.2c.1-.5-.4-.5-.4-.5ZM11.2 10c.2 0 .4-.1.5-.3.1-.1.1-.3 0-.4-.1-.1-.2-.1-.3 0-.1.2-.2.2-.2.2l-.1-.1c0-.1-.2-.2-.3-.1-.1.1-.1.2-.1.3.1.1.2.4.5.4ZM14.5 8.5c0-.1-.1-.2-.2-.2s-.2.2-.1.3c0 .1.1.4.3.4.1 0 .3-.1.4-.3.1-.1 0-.3-.1-.4-.1 0-.2 0-.3.2Z"/><path fill="#F5F5F5" fill-rule="nonzero" d="M13.9 8.8c0-.4.1-1.7-.3-1.8-.5-.1-.2.8-.1 1.1-.1-.2-.3-.4-.4-.6.8-.1-.6-.9-.7-.4-.6-.4-.5.2-.5.6 0 .5 0 1.4-.5.5 0-.2.1-1.3-.3-1.2 0-.4-.5-.1-.6.1-.2.4.3.8.5.3.1.3.2 1-.1 1.2-.4.4-.5-.2-.5-.5s.1-.8-.4-.6c-.4.1-.2.8-.6 1-.2 0-.2-1.2-.6-.6-.3.8.9 1.3 1.2.3.1.7.8 1.3 1.3.5.3.4.7.4 1 .1.2.1.7 0 .6-.3-.1-.3-.3 0-.5-.1 0-.3-.2-.6-.2-1 .1.1.3.2.3 0l1 1.5c.1.6.1 1.2.1 1.9 0 .3-.2 1.1.1 1.3.5.5.3-2.2.3-2.4.1.2.8 2 1.1 1.3.2-.5-.9-1.7-1.2-2.2ZM14.4 7.7c0 .1.1.2.2.2s.2-.1.2-.2c0-.2-.2-.6-.3-.7 0 0-.1-.1-.3 0-.1 0-.2.2-.1.3.1.1.3.3.3.4Z"/><path fill="#F5F5F5" fill-rule="nonzero" d="M13.4 12c-.1 0-.2 0-.3.1l-.1.1c0-.1 0-.2.1-.4 0-.1 0-.2-.1-.2h-.2l-.4.4c-.1.1-.1.2 0 .3.1.1.2.1.3 0 0 .1 0 .1.1.2s.2.1.3.1h.1c.2 0 .4-.3.4-.4-.1 0-.1-.1-.2-.2Z"/><path fill="#F5F5F5" fill-rule="nonzero" d="M13.3 10.5H12v-.1c.4-.1 1.3-.4.9-1-.5-.7-1 .2-1.2.6-.5.1-.9.3-1.1.5 0-.2-.2-1.4-.5-1.4-.5 0 0 .6 0 .8.2.6.2 1.4-.2 2-.3.4-1 .9-1.2.1.8-.6 1.2-1.2.8-2.1.5.4.2-1-.4-.4-.2.3.2.8.2 1 0 .5-.3.8-.7 1-.2-.2-.3.1-.3.2-.2.1-1.5.6-1.3.9.1.4 1.3-.5 1.4-.5.4 1.2 1.6.4 2-.3.2.4 1 .9 1.5.8.7-.2-.1-.3-.1-.6-.1-.7 1.2-.4 1.5-.6.1-.1.4-.9 0-.9Zm-.8-1c.3-.1-.2.3-.3.3l.3-.3Zm-1.2 2.6c-.5-.2-.8-.5-.7-1V11c.3 0 1 .1 1.1.3-.3.2-.5.4-.4.8ZM15.5 7.7l-.2-.6c-.1-.1-.2-.2-.3-.1-.1 0-.2.1-.2.2.1 1.3.4 4 .4 4.3 0 .3-.5.8-1.3 1.2-.1 0-.1.2-.1.3h.4c.7-.4 1.5-1 1.5-1.5 0-.3-.2-2.4-.3-3.5 0-.1.1-.2.1-.3ZM17.1 9.4l.1.1h.1c.1 0 .1-.1.1-.2v-.4c.1 0 .2-.1.2-.2s-.1-.2-.2-.2-.2 0-.3.1c-.1 0-.1.1-.1.2l-.2-.2c-.1-.1-.2-.1-.3 0-.1.1-.1.2 0 .3l.6.5ZM17.5 9.6l-.7.5c-.1.1-.1.2 0 .3 0 .1.1.1.2.1h.1l.7-.5c.1-.1.1-.2 0-.3-.1-.1-.2-.1-.3-.1Z"/><path fill="#F5F5F5" fill-rule="nonzero" d="M20.1 11.4c-.2-.4-.5-1-.9-1.5-.1-.7-.2-1.4-.3-1.9.1 0 .2-.1.2-.2 0 .2.1 1 .4.7.6-.5-.4-1.2-.4-.8-.1-.2-.4-.8-.7-.6-.2.2.2 1.7.3 2-.1-.2-.3-.4-.4-.6 0-.3 0-.6-.1-.8.2-.1-.5-1.7-.4.2-.1-.2-.2-.3-.3-.4.3-.2-.5-.7-.6-.5-.2.3.9 1.4 1.1 1.6 0 .6.1 1.3.1 1.8-.3-.3-.8 0-.5.2.2.2.1.7.5.4 0 1.4-.5-.1-.9-.1-.5.1-.5 1.2-.8 1.5-.1-.1-.2-.4-.2-.8.1.3.3 0 .4-.1.1-.2-.1-.7-.1-.9-.1-.9-.2-1.8-.2-2.7.2-.1 0-.9-.2-.9-.5-.2-.2 1.2-.2 1.4.1 1.1.3 2.2.3 3.3 0-.3-.3-.2-.4 0-.1.2.2 1 .3 1.1.7.6 1-.7 1.2-1.2.4.6 1 .8 1.3.1.2-.6 0-1.6 0-2.3.2.2.3.5.5.7 0 .3-.1 1.7.2 1.8.5.3.3-.9.3-1.1.1.1.4.9.5.9-.1-.1.1-.1 0-.3Z"/><path fill="#F5F5F5" fill-rule="nonzero" d="M20.6 10.8c-.1-1-.3-2.2-.5-2.9.4.1 0-.8-.3-.8-.4 0-.1.9-.1 1.1.2.9 1.2 4.5-.6 4.5.1-.5-.6-.4-.7-.1-.1.2 0 .7.5.4.2.4 1.1-.2 1.2-.4.6-.6.6-1.3.5-1.8ZM17.8 16.3h-1.4v-.2c0-.1-.1-.2-.2-.2s-.2.1-.2.2v.2H5.7c.4.4 1.2.6 1.8.6h8.6v.4c0 .1.1.2.2.2h1.6c.3 0 .6-.3.6-.6-.1-.3-.4-.6-.7-.6Zm0 .8h-1.4v-.2H18v-.1.1c0 .1-.1.2-.2.2Z"/><circle cx="12" cy="12" r="11.5" stroke="#FFF"/></g></svg>