<svg xmlns="http://www.w3.org/2000/svg" width="24" height="24"><g fill="none" fill-rule="evenodd"><path fill="#0052B4" fill-rule="nonzero" d="M23.5 12c0 6.351-5.149 11.5-11.5 11.5S.5 18.351.5 12L12 .5C18.351.5 23.5 5.649 23.5 12Z"/><path fill="#EEE" fill-rule="nonzero" d="M12 0C5.373 0 0 5.373 0 12h6.263V8.475L9.787 12H12V9.787L8.475 6.262H12V0Zm5.897 4.29-.53 1.64h-1.72l1.392 1.003-.53 1.64 1.388-1.017 1.392 1.013-.539-1.632 1.392-1.007h-1.72l-.53-1.636.005-.005Zm2.873 3.397-.53 1.641h-1.72l1.393 1.003-.53 1.64 1.387-1.016 1.393 1.012-.535-1.636 1.392-1.008H21.3l-.53-1.636Zm-5.756.483-.53 1.636h-1.72l1.392 1.008-.53 1.636 1.388-1.012 1.392 1.012-.534-1.64 1.392-1.008h-1.72l-.53-1.632Zm2.77 6.08-.53 1.636h-1.72l1.393 1.008-.53 1.636 1.387-1.013 1.393 1.013-.535-1.64 1.392-1.009h-1.72l-.53-1.631Z"/><path fill="#D80027" fill-rule="nonzero" d="M6.07 1.566A12.056 12.056 0 0 0 1.566 6.07V12h3.13V4.697H12V1.566H6.07Zm11.827 3.909-.263.816h-.862l.698.506-.267.816.694-.507.698.506-.267-.815.694-.506h-.858l-.267-.816Zm-11.634.788L12 12v-1.477L7.734 6.258H6.263v.005Zm14.503 2.61-.263.816h-.862l.698.506-.267.816.694-.506.703.51-.267-.815.693-.506h-.857l-.268-.816-.004-.005Zm-5.757.479-.262.82h-.863l.699.501-.267.82.693-.505.699.506-.267-.82.693-.502h-.853l-.267-.82h-.005Zm2.77 6.08-.262.82h-.862l.698.501-.267.82.694-.506.693.506-.262-.82.694-.501h-.858l-.267-.82Z"/><circle cx="12" cy="12" r="11.5" stroke="#FFF"/></g></svg>