<svg xmlns="http://www.w3.org/2000/svg" xml:space="preserve" id="Layer_1" x="0" y="0" style="enable-background:new 0 0 24 24" version="1.1" viewBox="0 0 24 24"><style>.st1{fill:#41479b}.st2{fill:#ff4b55}.st4{fill:#f5f5f5}.st5{fill:#ffe15a}</style><g id="Flag"><g id="croatia"><path id="Path" d="M24 12c0-1.5-.3-2.9-.7-4.2L12 7.3.8 7.8c-1 2.7-1 5.6 0 8.3l11.2.5 11.2-.5c.5-1.3.8-2.7.8-4.1z" style="fill:#eee"/><path d="M12 23.9c5 0 9.5-3.1 11.2-7.8H.8C2.5 20.8 7 23.9 12 23.9z" class="st1"/><path d="M.9 7.8h22.2C21.4 3.2 17 .2 12 .2S2.6 3.2.9 7.8z" class="st2"/><circle id="Oval" cx="12" cy="12" r="11.5" style="fill:none;stroke:#fff"/><path d="M9.3 8.2h1.8v2H9.3zm-1.7 2h1.8v2H7.6zm7.1 0h1.8v2h-1.8zm-5.4 4.1H7.6c.1.7.3 1.4.7 2h1.1v-2h1.8v-2H9.3v2z" class="st4"/><path d="M12.9 14.3h1.8v-2h-1.8v-2.1h1.8v-2h-1.8v2h-1.8v2.1h1.8v2h-1.8v2h1.8zm1.8 2h1.1c.4-.6.6-1.3.7-2h-1.7v2zm-3.6 1.9v-1.9H9.3v1.1c.6.4 1.2.7 1.8.8z" class="st4"/><path d="M12.9 18.2c.7-.1 1.3-.4 1.8-.8v-1.1h-1.8v1.9z" class="st4"/><path d="M12.9 16.3h1.8v-2h-1.8v-2h1.8v-2.1h-1.8v-2h-1.8v2h1.8v2.1h-1.8v2h1.8z" class="st2"/><path d="M16.4 7.9H7.3v6a4.7 4.7 0 1 0 9.4 0v-6h-.3zm-8.1 8.4.3.3-.3-.3zm.5.6.3.3c-.1 0-.2-.1-.3-.3zm3.2 1.4zm2.8-1 .3-.3c0 .1-.1.2-.3.3zm.6-.6.3-.3c-.1 0-.2.1-.3.3zm1-8.5h-1.8v2h1.8v2h-1.8v2h1.7c-.1.7-.3 1.4-.7 2h-1.1v1.1c-.5.4-1.1.7-1.8.8v-1.9h-1.8v1.9c-.7-.1-1.3-.4-1.8-.8v-1.1h-.8c-.4-.6-.6-1.3-.7-2h1.7v2h1.8v-2H9.3v-2h1.8v-2H9.3v2H7.6v-2h1.8v-2H7.6h8.8z" class="st2"/><path d="M6.7 5.5c.3.7.6 1.4.8 2 .6-.2 1.2-.3 1.8-.5-.2-.7-.3-1.4-.5-2.1-.4-.1-.8-.1-1.2-.2-.3.3-.6.6-.9.8z" class="st1"/><path d="M12 4c-.4.1-.7.3-1.1.5l-1.1-.3c-.3.2-.7.4-1 .6.2.8.3 1.5.5 2.2l1.8-.3h1.8c.1-.7.1-1.4.2-2.2-.4-.1-.7-.3-1.1-.5z" class="st1"/><path d="M16.4 4.7c-.4 0-.8.1-1.2.1-.3-.2-.6-.4-1-.6-.4.1-.8.2-1.1.3-.1.8-.1 1.5-.2 2.2.6 0 1.2.1 1.8.3.6.1 1.2.3 1.7.6.3-.7.6-1.4.8-2-.2-.3-.5-.6-.8-.9z" class="st1"/><path d="m10.96 5.37-2 .3c0-.1-.1-.3-.1-.4l2.1-.3v.4zm.1.9-1.8.3c0-.1-.1-.3-.1-.4.6-.2 1.2-.3 1.9-.3v.4zm5.54.93-1.8-.6c0-.1.1-.3.1-.4.6.2 1.3.4 1.9.6-.1.1-.2.2-.2.4z" class="st2"/><path d="M14.3 5.3c-.2 0-.3-.1-.5-.1-.3 0-.5.1-.5.4 0 .2.2.5.4.5s.3 0 .5.1c.3 0 .5-.1.6-.3-.1-.3-.3-.5-.5-.6zm1.9-.1c-.2-.1-.4 0-.5.2-.1.2.1.4.3.5.2.1.4 0 .5-.2 0-.2-.1-.5-.3-.5zm-8.4 0c-.2 0-.3.3-.2.5 0 .2.2.2.4.2.2-.1.3-.3.3-.5s-.3-.3-.5-.2zm4.2 0c0-.2-.2-.4-.4-.4s-.4.2-.4.4.2.4.4.4c.3 0 .4-.2.4-.4zm.5-.4c-.2 0-.4.2-.4.4s.2.4.4.4.4-.1.4-.4c0-.2-.2-.4-.4-.4z" class="st5"/><path d="M12.1 5.5c-.2 0-.4.2-.4.4s.2.4.4.4.4-.2.4-.4-.2-.4-.4-.4z" class="st5"/></g></g></svg>