<svg xmlns="http://www.w3.org/2000/svg" width="24" height="24"><g fill="none" fill-rule="evenodd"><path fill="#41479B" fill-rule="nonzero" d="M23.9 12c0 6.572-5.328 11.9-11.9 11.9S.1 18.572.1 12L12 .1C18.572.1 23.9 5.428 23.9 12Z"/><g fill="#EEE" fill-rule="nonzero"><path d="M12.235 12.585h.35v-.35z"/><path d="M12.6 6.671V.2C5.752.2.2 5.752.2 12.6h6.471V8.957l3.643 3.643h2.252l.034-.034v-2.252L8.957 6.67H12.6Z"/></g><g fill="#D80027" fill-rule="nonzero"><path d="M6.443 1.766a12.518 12.518 0 0 0-4.677 4.677V12.6h3.25V5.017H12.6V1.766H6.443Z"/><path d="M12.6 11.02 8.037 6.459H6.463L12.6 12.6z"/></g><path fill="#EEE" fill-rule="nonzero" d="m7.237 14.086.657 1.378 1.49-.342-.665 1.373 1.195.947-1.49.338.004 1.523-1.19-.951-1.191.951V17.78l-1.481-.343 1.195-.946-.666-1.374 1.486.342.656-1.373Zm10.73 2.61.328.69.746-.174-.333.685.595.478-.745.164v.764l-.59-.478-.596.478v-.764l-.745-.164.6-.478-.333-.684.745.173.328-.69ZM14.902 9.39l.328.69.75-.17-.338.685.6.473-.75.169.005.764-.595-.478-.596.478v-.764l-.74-.169.595-.469-.328-.689.74.17.329-.69Zm3.065-4.172.328.69.746-.174-.338.689.595.469-.745.173v.764l-.59-.478-.596.478v-.764l-.745-.169.6-.473-.333-.69.745.174.333-.689Zm2.672 3.131.328.69.75-.174-.333.69.596.468-.746.173v.76l-.59-.474-.596.474v-.76l-.745-.168.6-.474-.333-.689.74.173.33-.689ZM18.731 12l.263.797h.834l-.68.492.258.797-.68-.492-.674.492.257-.797-.68-.492h.844l.258-.797Z"/><circle cx="12" cy="12" r="11.5" stroke="#FFF"/></g></svg>