<svg xmlns="http://www.w3.org/2000/svg" width="24" height="24"><g fill="none" fill-rule="evenodd"><circle cx="12" cy="12" r="12" fill="#FFF"/><g fill-rule="nonzero"><path fill="#73AF00" d="M22.4 7.8h-21C2.852 3.2 7.11 0 11.948 0c4.84 0 9 3.2 10.452 7.8z"/><path fill="#FF4B55" d="M.7 15.4h21.8c-1.6 4.5-5.8 7.8-10.9 7.8-5.1 0-9.4-3.3-10.9-7.8z"/><path fill="#F5F5F5" d="M1.123 16.594a.663.663 0 0 1 0-.608c-.789.203-.986-2.94-1.084-3.447-.099-1.318.464-2.283.661-3.601.197-.203.125-.834.322-1.138.493-.507.2-.229.692-.229.099 0 .789-.608.789-.71-.099 0-.493.102-.493.102s.098.405-.099.405-.098-.71-.098-.81c.197-.406.295-.406.788-.406.394-.102 1.774-.203 1.774.405.099 0 .197-.405.296-.304.296.101 0 .608.197.71.197.101.099-.71.197-.71.099-.101.099.811.197.71 0-.102 0-.71.197-.71.296 0 0 .913-.295.913-.296.1-.395-.203-.592-.305h-.69c0 .203.395 0 .395.203 0 .304-.592-.203-.789-.203-.197.203.197.507-.591.507 0 .304.985.304 1.183.203.197 0 .394-.203.59-.203.395 0 .592.304.986.304 0 0 .493-.71.789-.608 0-.608-.887.304-.69.304-.197 0-.099-.71-.099-.81.198-.406.296-.406.789-.406.394-.102 1.873-.102 1.873.507.788-.406 0-.102.492.405l.099-.811c.296-.101.098.71.197.811.099.102.099-.811.296-.71.394.203 0 .913-.296 1.014-.296 0-.788-.507-1.183-.507 0 .203.395 0 .395.203 0 .507-.592-.203-.592-.203-.295 0-.197.507-.788.507 0 .203.69.304.887.304-.099 0 .591-.202.69-.202.394 0 .788.304 1.084.202-.296 0 .788-.71.788-.81-.098 0-.591.202-.591.202s.098.304-.099.304-.098-.71-.098-.81c.197-.406.295-.406.69-.406.394-.102 1.872-.102 1.872.507.395-.203.099-.305.395-.102 0 0 0 .71.098.507.099-.203.197-.912.197-.811.197.203 0 .608.099.811.098.102.098-.811.295-.71.395.203 0 .913-.295 1.014-.296 0-.789-.507-1.183-.507 0 .203.394 0 .394.203 0 .507-.492-.203-.591-.203-.296 0-.099.406-.789.406 0 .304.986.304 1.183.203.197 0 .394-.203.592-.203.394 0 .59.304.985.304-.197 0 .69-.608.69-.71-.197 0-.493.102-.591.102-.099 0 .098.304-.099.304s-.098-.71-.098-.811c.197-.406.295-.406.69-.406.394-.101 1.872-.101 1.872.507.394-.203.099-.304.394-.101 0 0 0 .71.099.507.098-.102.197-.811.197-.811.197.202 0 .608.099.81.098.102.098-.81.295-.709.394.203 0 .913-.295 1.014-.296.101-.789-.406-1.183-.406 0 .203.394 0 .394.203 0 .304-.591-.203-.788-.203-.296.102.098.406-.592.406 0 .304.986.304 1.183.203.197 0 .394-.203.591-.203.395 0 .592.304.986.304 0 0 .493-.71.788-.608 0-.609-.887.304-.69.304-.197 0-.098-.71-.098-.811.197-.406.296-.406.69-.406.394-.101 1.872-.101 1.872.507.395-.203.099-.304.395-.101 0 0 0 .71.098.507.197-.203 0-.609.099-.811 0 0 .197.81.295.81.099 0 .099-.81.198-.81.69.304-.198 1.014-.592.912-.197 0-.295-.203-.394-.304h-.493c0 .203.394 0 .394.203 0 .405-.69-.203-.788-.203.098 0-.69.811-.69.507.296 0 .591.203.887.203.197 0 .591-.203.986-.203.295 0 .788.203.985.203.197 0 .493-.507.789-.406.295.102.394 1.014.492 1.217.69 2.839.493 5.677-.788 8.313 0 0 0-.912-.197-.608 0 0 0 .811-.197.608-.296-.304.197-1.013-.099-1.318.197.203-.098 1.014-.394 1.116-.591.202-.887-.71-1.281-.406.098-.101.493.811 0 .507-.099-.101-.395-1.115-.296-1.115-.197.101-.197.81-.296.912.099-.101-.788.507-.69.507-.295 0 .099-.81-.197-.81-.098 0-.098 1.013-.295.81 0-.101 0-.912-.197-.81-.198.1.098.607-.099.81-.099 0-.099-1.52-.197-1.42-.296.305.493 1.826-.789 1.217-.197-.1-.197-.506-.492-.608-.493-.101.197.608.197.507 0 .304-.592-.304-.592-.405 0 0 0-.812-.098-.812-.296.102 0 .812-.296 1.014.099-.101-.788.203-.591.203 0 .101-.099.101-.099.203 0 0-.197-.71-.197-.811 0 0-.098.81-.197.81 0 0-.197-.81-.197-.709-.099.507-.099-.405-.394-.405-.197 0-.789.81-.986 1.216-.197.406-.493-1.014-.887-1.216-.098 0-.098.71-.197.81-.197.305-.591.203-.789.508.099-.203-.394-.609-.197-.71-.098.203-.098.405-.098.71 0-.102-.394-.609-.197-.71-.296.203 0 .507-.197.71.098-.203-.395-1.318-.198-1.42-.492.304.395 1.014-.295 1.217-.394.101-1.084-.913-1.281-.608-.099.1-1.282.71-1.282.81-.098 0 .099-.81-.098-.81s0 .912-.197.81c-.296-.1-.198-.81-.296-.912-.099 0 0 .811-.197.811l-.296-1.42c-.493.406.394 1.015-.493 1.217-.394.102-1.577-.912-1.774-1.115.197.406-.492 1.217-.788 1.217-.394 0 0-.608-.296-.71-.098 0-.098.71-.197.71s-.197-1.318-.591-1.318c-.099 0 .197 1.42-.69 1.216z"/></g><path fill="#FF4B55" fill-rule="nonzero" d="M10.7 13.9c0 .1.1.1.1.2-.8-.4-1.2-1.4-1.1-2.3 0-.3 1-2.4 1.4-2-.1-.1-.9 1.6-.9 1.8-.1.8 0 1.6.5 2.3zm1.4-4c.1.1.2 0 .3 0 0-.1.1-.1.1-.2.1.1.2.2.3.1.3-.1.6-.4.4-.7-.1.2-.2.2-.4.3h-.5c-.2 0-.5 0-.5-.3 0 .3 0 .7.3.8zm2 3c.2-.5.3-1.2.1-1.7 0-.2-.3-1.2-.7-1.2.5 0 .5 1.7.5 2-.1.7-.5 1.4-1.1 1.9 0-.6.5-4-.3-4-.9 0-.4 3.4-.4 4-.6-.5-1-1.2-1.1-1.9v-1c.1-.3.4-.6.4-.9 0 .2-.5.6-.6.9-.2.4-.2.8-.2 1.2.1.9.5 1.8 1.3 2.1-.3.1-.6.2-1 .2v.1c.5.1.9-.1 1.3 0 .1 0 .1.3.2.3s.1-.3.2-.3c.4-.1.9.1 1.3 0v-.1c-.3 0-.7-.1-1-.2.5-.5 1-.9 1.1-1.4zm.9-2.1c-.1-.1-1-1.3-1.2-1.1.2-.2 1 1.9 1 2.1 0 .4 0 .8-.2 1.2-.1.3-.5.7-.5.9 1.2-.6 1.4-2 .9-3.1z"/><circle cx="12" cy="12" r="11.5" stroke="#FFF"/></g></svg>