<svg width="24" height="24" viewBox="0 0 24 24" fill="none" xmlns="http://www.w3.org/2000/svg">
<g id="cameroon">
<path id="Vector" d="M12 24C18.6274 24 24 18.6274 24 12C24 5.37258 18.6274 0 12 0C5.37258 0 0 5.37258 0 12C0 18.6274 5.37258 24 12 24Z" fill="#008835"/>
<path id="Vector_2" fill-rule="evenodd" clip-rule="evenodd" d="M9 8H15V16H9V8Z" fill="#FCD116"/>
<path id="Vector_3" fill-rule="evenodd" clip-rule="evenodd" d="M16 1V23H8V1H16ZM12 9L11.302 11.04L9.147 11.073L10.871 12.367L10.237 14.427L12 13.187L13.763 14.427L13.129 12.367L14.853 11.073L12.698 11.04L12 9Z" fill="#CE1126"/>
<path id="Vector_4" d="M23.11 11.85C23.11 7.16399 20.194 2.97299 15.8 1.34399V22.356C17.9453 21.5605 19.7957 20.1274 21.1025 18.2493C22.4093 16.3712 23.1099 14.138 23.11 11.85Z" fill="#FCD116"/>
<path id="Vector_5" d="M12 23.5C18.3513 23.5 23.5 18.3513 23.5 12C23.5 5.64873 18.3513 0.5 12 0.5C5.64873 0.5 0.5 5.64873 0.5 12C0.5 18.3513 5.64873 23.5 12 23.5Z" stroke="white"/>
</g>
</svg>
