<svg xmlns="http://www.w3.org/2000/svg" width="24" height="24" fill="none"><path fill="#BD1F34" d="M12 24a12 12 0 1 0 0-24 12 12 0 0 0 0 24Z"/><path fill="#008835" fill-rule="evenodd" d="M12 24a12 12 0 0 0 12-12H0a12 12 0 0 0 12 12Z" clip-rule="evenodd"/><path fill="#F4D130" fill-rule="evenodd" d="M24 12c0 1.4-.24 2.75-.68 4H.68a11.98 11.98 0 0 1 0-8h22.64c.45 1.28.68 2.64.68 4Z" clip-rule="evenodd"/><path fill="#010101" d="M9 11.29h2.4L12.14 9l.74 2.29h2.4l-1.94 1.41.74 2.29-1.94-1.41-1.94 1.41.74-2.29L9 11.3Z"/><path stroke="#fff" d="M12 23.5a11.5 11.5 0 1 0 0-23 11.5 11.5 0 0 0 0 23Z"/></svg>