<?xml version="1.0" encoding="UTF-8"?>
<svg width="24px" height="24px" viewBox="0 0 24 24" version="1.1" xmlns="http://www.w3.org/2000/svg" xmlns:xlink="http://www.w3.org/1999/xlink">
    <!-- Generator: Sketch 54.1 (76490) - https://sketchapp.com -->
    <title>SVG/albania</title>
    <desc>Created with Sketch.</desc>
    <g id="Flag" stroke="none" stroke-width="1" fill="none" fill-rule="evenodd">
        <g id="albania">
            <g>
                <circle id="Oval" fill="#D80027" fill-rule="nonzero" cx="12" cy="12" r="11.9"></circle>
                <path d="M18.7828125,8.90625 L14.4375,8.90625 C14.8730495,8.45404031 14.9952692,7.78488781 14.7476996,7.20790749 C14.50013,6.63092718 13.9309629,6.25843353 13.303125,6.2625 C12.7790437,6.26178926 12.2895823,6.52412649 12,6.9609375 C11.6732106,6.46608752 11.0948831,6.19834222 10.5061312,6.26932881 C9.91737939,6.3403154 9.41926539,6.73784869 9.21946076,7.29619082 C9.01965613,7.85453294 9.15245831,8.47784174 9.5625,8.90625 L5.2171875,8.90625 C5.25026866,10.0717224 6.20750892,10.9977483 7.3734375,10.9921875 L7.303125,10.9921875 C7.303125,12.1453125 8.240625,13.0828125 9.3890625,13.0828125 C9.3890625,13.4578125 9.4875,13.8046875 9.6609375,14.1046875 L7.9265625,15.8390625 L9.2578125,17.165625 L11.1421875,15.28125 C11.2167853,15.3094941 11.2936159,15.3314457 11.371875,15.346875 L10.2328125,17.915625 L12,19.828125 L13.7671875,17.915625 L12.628125,15.346875 C12.7063893,15.3314671 12.7832217,15.309515 12.8578125,15.28125 L14.7421875,17.165625 L16.06875,15.8390625 L14.334375,14.1046875 C14.5134977,13.793759 14.608796,13.4416396 14.6109375,13.0828125 C15.759375,13.0828125 16.696875,12.1453125 16.696875,10.9921875 L16.6265625,10.9921875 C17.7796875,10.9921875 18.7828125,10.059375 18.7828125,8.90625 L18.7828125,8.90625 Z" id="Path" fill="#000000" fill-rule="nonzero"></path>
                <circle id="Oval" stroke="#FFFFFF" cx="12" cy="12" r="11.5"></circle>
            </g>
        </g>
    </g>
</svg>