<svg xmlns="http://www.w3.org/2000/svg" width="24" height="24"><g fill="none" fill-rule="evenodd"><circle cx="12" cy="12" r="11.75" fill="#6DA544" fill-rule="nonzero"/><circle cx="12" cy="12" r="11.5" stroke="#FFF"/><path fill="#FFDA44" fill-rule="nonzero" d="m12 4.7 9.91 7.3L12 19.3 2.09 12z"/><circle cx="12" cy="12" r="4.17" fill="#EEE" fill-rule="nonzero"/><path fill="#0052B4" fill-rule="nonzero" d="M9.91 11.74c-.7 0-1.4.1-2.08.32a4.17 4.17 0 0 0 7.6 2.33 7.03 7.03 0 0 0-5.52-2.66Zm6.19 1.06a4.2 4.2 0 0 0-3.26-4.89c-1.94-.4-3.9.62-4.67 2.44a8.61 8.61 0 0 1 7.93 2.45Z"/></g></svg>