<svg xmlns="http://www.w3.org/2000/svg" width="24" height="24"><g fill="none" fill-rule="evenodd"><circle cx="11.98" cy="12.02" r="11.98" fill="#EEE" fill-rule="nonzero"/><path fill="#338AF3" fill-rule="nonzero" d="M11.98 8.9h11.56c-.3-1.1-.75-2.16-1.35-3.13H11.98V8.9ZM4.52 21.4h14.91c1.1-.88 2.03-1.93 2.76-3.13H1.76c.73 1.2 1.66 2.25 2.76 3.12ZM11.98.04v2.6h7.45a11.93 11.93 0 0 0-7.45-2.6Z"/><path fill="#338AF3" fill-rule="nonzero" d="M11.98 8.9h11.56c-.3-1.1-.75-2.16-1.35-3.13H11.98V8.9ZM0 12.02c0 1.08.14 2.13.41 3.13h23.13c.27-1 .41-2.05.41-3.13H0Z"/><path fill="#FFDA44" fill-rule="nonzero" d="m10.41 7.05-1.46.69.78 1.42-1.59-.3-.2 1.6-1.1-1.18-1.11 1.18-.2-1.6-1.59.3.78-1.42-1.46-.69 1.46-.68-.78-1.42 1.59.3.2-1.6 1.11 1.18 1.1-1.18.2 1.6 1.59-.3-.78 1.42z"/><circle cx="12" cy="12" r="11.5" stroke="#FFF"/></g></svg>