<?xml version="1.0" encoding="UTF-8"?>
<svg width="24px" height="24px" viewBox="0 0 24 24" version="1.1" xmlns="http://www.w3.org/2000/svg" xmlns:xlink="http://www.w3.org/1999/xlink">
    <!-- Generator: Sketch 57.1 (83088) - https://sketch.com -->
    <title>wales</title>
    <desc>Created with Sketch.</desc>
    <g id="Flag" stroke="none" stroke-width="1" fill="none" fill-rule="evenodd">
        <g id="wales">
            <g>
                <g id="Group-2" transform="translate(0.500000, 0.500000)" fill-rule="nonzero">
                    <path d="M23,11.5 L0,11.5 C0,5.1 5.1,0 11.5,0 C17.9,0 23,5.1 23,11.5 Z" id="Combined-Shape" fill="#F5F5F5"></path>
                    <path d="M23,11.5 C23,17.9 17.9,23 11.5,23 C5.1,23 0,17.9 0,11.5 L23,11.5 Z" id="Path" fill="#73AF00"></path>
                </g>
                <g id="Group" transform="translate(4.921875, 6.515625)" fill="#FF4B55" fill-rule="nonzero">
                    <path d="M13.3,2.2 C13.4,2.5 13.5,2.8 13.6,3 C13.9,2.3 14,1.7 14.3,1 C13.7,1.1 12.5,1.7 12.3,2.3 C12.4,2.3 13.2,2.2 13.3,2.2 Z" id="Shape"></path>
                    <path d="M13.8,9.7 C13.6,9.7 13.3,9.8 13.2,9.7 C13,9.5 13,9.1 13,9 C13,8.7 12.7,7.5 13.4,8 C13.6,7.3 13.2,7.5 12.8,7.2 C12.4,7 12.2,6.6 12,6.3 C13.3,5.5 13.9,4.4 13,3 C12.7,3 12.4,2.7 12,2.8 C11.6,2.9 11.2,3.3 11.3,3.8 C11.4,4.2 11.8,4.4 12.2,4.3 C12.5,4.3 13,3.9 12.8,4.5 C12.5,5.5 10,4.4 9.4,4.3 C9.7,4.1 10.3,4.2 10.5,4 C10.7,3.8 10.5,3.4 10.7,3.2 C10.8,3 11.1,2.9 11.2,2.8 C11.4,2.7 11.5,2.8 11.6,2.6 C11.7,2.4 11.4,1.9 11.4,1.7 C11.4,1.3 11.6,0.8 11.8,0.4 C11,0.5 10.2,0.7 9.4,0.9 C8.6,1 7.9,0.8 7.2,1.1 C6.5,1.5 6.2,2.1 6.1,2.8 C6,3.5 6.1,4.2 5.4,4.6 C5.3,4.5 5.3,4.3 5.2,4.2 C5.3,4.2 5.5,4.1 5.6,4.1 C5.5,3.7 5.1,3.7 5.3,3.3 C5.4,3.4 5.6,3.5 5.7,3.5 C5.9,3 5.3,2.9 5.5,2.4 C5.6,2.5 5.8,2.6 5.9,2.6 C5.9,2.4 5.9,2.1 5.8,2 C5.7,1.8 5.3,1.9 5.5,1.5 C5.6,1.6 5.8,1.6 5.9,1.6 C6,1.2 5.5,1.3 5.4,1 C5.4,0.8 5.7,0.4 5.8,0.3 C5.6,0.3 5.4,0.4 5.3,0.3 C5.2,0.3 5.3,0 5.1,0 C4.9,0 4.6,0.2 4.4,0.3 C4.2,0.3 4,0.3 3.7,0.3 C3.5,0.3 3.3,0.4 3.2,0.4 C3.1,0.4 3.2,0.6 3.1,0.6 C3,0.6 2.9,0.5 2.7,0.5 C2.3,0.5 1.9,0.2 1.7,0.7 C2.2,0.7 2,1.2 2,1.5 C2,1.7 2.2,1.7 2.1,1.9 C2.2,2 2,2.3 1.9,2.4 C2.3,2.5 2.6,2.4 3,2.4 C3,2.5 3,2.5 3,2.6 C3.3,2.6 3.6,2.5 3.8,2.5 C3.5,2.6 3.1,3.8 2.9,4.1 C2.6,4.7 2.6,5.3 2.4,5.9 C1.8,5.3 1.7,4.4 1.4,3.6 C1.4,3.5 1.3,3.2 1.2,3.1 C1,2.9 1,3.1 0.8,3.2 C0.5,3.3 -0.1,3.3 0.4,3.8 C0.2,3.8 0,3.9 0,4.1 C0.1,4.4 0.2,4.1 0.4,4.2 C0.7,4.4 0.9,4.4 1,4.8 C1,5 0.7,5.3 0.7,5.5 C0.8,5.9 1.1,5.9 1.3,5.5 C1.4,5.7 2.5,8.3 1.7,8.3 C2.3,8.3 2.4,8 2.9,7.7 C3.3,7.5 3.8,7.6 3.9,8.1 C4,8.6 3.5,9.2 3.3,9.6 C2.8,10.3 2.9,9.8 2.4,9.5 C2.2,9.3 2.2,9.3 2,9.5 C2,9.4 1.8,10 1.8,10 C1.8,10.4 1.9,10.8 2.3,10.9 C2.4,10.9 2.9,10.8 3,10.8 C3.2,10.8 3.3,10.8 3.5,10.8 C4,10.6 4.4,10.5 5,10.6 C4.8,10.1 4.1,10.3 4,9.8 C4,9.6 4.6,8.9 4.8,8.8 C5,8.7 5,8.5 5.3,8.6 C5.5,8.6 5.4,8.9 5.5,8.9 C6.1,8.9 5.8,8.4 5.8,8 C6.2,8 6.7,7.4 7.1,7.5 C7.3,7.5 7.7,8 8,8.1 C7.8,8.5 7.5,9.4 7,9.5 C6.8,9.5 5.6,8.5 6,9.5 C5.5,9.3 5.7,10 5.8,10.2 C6,10.6 5.7,10.4 6.2,10.5 C6.4,10.5 6.6,10.4 6.8,10.4 C7.2,10.4 7.6,10.2 8,10.1 C8.2,10.1 8.5,10.2 8.6,10.1 C8.7,10.1 8.9,9.6 8.8,9.6 C8.6,9.6 8.5,9.6 8.3,9.6 C8.3,9.1 9.5,7.9 9.8,8.5 C10.6,8.2 9.4,7.5 9.7,7 C10.1,7.2 10.3,7.4 10.7,7.6 C11.1,7.8 11.5,7.8 11.9,8 C12.6,8.3 12.4,9 12.3,9.7 C11.8,9.6 11.9,9.3 11.6,9.1 C11.3,9 11.1,9.2 11.3,9.5 C11.1,9.5 11,9.6 10.9,9.8 C10.9,9.8 11,10.3 11,10.4 C11.3,10.8 11.8,10.5 12.2,10.4 C12.6,10.4 13.1,10.3 13.5,10.2 C13.6,10.2 13.8,10.3 14,10.2 C14.1,10.1 14.1,9.8 13.8,9.7 Z M12.2,3.8 C11.3,3.9 12.3,2.7 12.6,3.7 C12.4,3.8 12.3,3.8 12.2,3.8 Z" id="Shape"></path>
                    <path d="M1,1.8 L1.1,1.3 L1.5,1.2 L0.5,0.6 C0.5,0.6 0.7,1.4 0.7,1.5 C0.7,1.6 1,1.8 1,1.8 Z" id="Path"></path>
                </g>
                <circle id="Oval" stroke="#FFFFFF" cx="12" cy="12" r="11.5"></circle>
            </g>
        </g>
    </g>
</svg>