<svg xmlns="http://www.w3.org/2000/svg" width="24" height="24"><g fill="none" fill-rule="evenodd"><path fill="#FF4B55" fill-rule="nonzero" d="M12 23.5C5.649 23.5.5 18.351.5 12S5.649.5 12 .5 23.5 5.649 23.5 12 18.351 23.5 12 23.5Z"/><circle cx="12" cy="12" r="11.5" stroke="#FFF"/><path fill="#F5F5F5" fill-rule="nonzero" d="M12.072 5.684A6.316 6.316 0 0 1 18.382 12a6.31 6.31 0 0 1-6.31 6.316A6.314 6.314 0 0 1 5.75 12a6.32 6.32 0 0 1 6.32-6.316"/><path fill="#FF4B55" fill-rule="nonzero" d="M13.22 15.54A3.541 3.541 0 0 1 9.677 12a3.54 3.54 0 0 1 3.541-3.534c.665 0 1.287.187 1.818.509.08.048.163-.057.097-.122a4.394 4.394 0 0 0-3.093-1.271A4.424 4.424 0 0 0 7.612 12a4.425 4.425 0 0 0 4.429 4.424 4.392 4.392 0 0 0 3.092-1.271c.066-.065-.018-.17-.097-.121a3.494 3.494 0 0 1-1.817.507Z"/><path fill="#FF4B55" fill-rule="nonzero" d="m12.896 9.524.976 1.325 1.57-.495a.222.222 0 0 1 .247.341l-.959 1.338.956 1.34a.222.222 0 0 1-.248.34l-1.569-.498-.98 1.323a.222.222 0 0 1-.4-.13l-.01-1.646-1.561-.523a.222.222 0 0 1 0-.421l1.563-.519.014-1.646a.222.222 0 0 1 .4-.13Z"/></g></svg>