<svg xmlns="http://www.w3.org/2000/svg" width="24" height="24"><g fill="none" fill-rule="nonzero"><circle cx="12" cy="12" r="12" fill="#EEE"/><path fill="#F09146" d="M16 11.8h-2.9c.1 0 .1-.1.1-.1.1-.1.1-.1.3-.2.1-.1.2-.1.3-.1.1 0 .3 0 .5-.1s.3-.2.4-.3c.1-.1.1-.1.3-.2.1-.1.2-.1.3-.1.1 0 .3 0 .5-.1l-.2-.4c-.1.1-.2.1-.3.1-.1 0-.3 0-.5.1s-.3.2-.4.3c-.1.1-.1.1-.3.2-.1.1-.2.1-.2.1-.1 0-.3 0-.5.1s-.3.2-.4.3c-.1.1-.1.1-.3.2L15 9.3l-.3-.3-2 2v-.2c0-.1 0-.2.1-.3.1-.1.1-.2.2-.3.1-.1.2-.2.3-.4.1-.2.1-.4.1-.5 0-.1 0-.2.1-.3.1-.1.1-.2.2-.3.1-.1.2-.2.3-.4l-.4-.2c-.1.1-.1.2-.2.3-.1.1-.2.2-.3.4-.1.2-.1.4-.1.5 0 .1 0 .2-.1.3-.1.1-.1.2-.2.3-.1.1-.2.2-.3.4-.1.2-.1.4-.1.5 0 .1 0 .2-.1.3V8h-.4v2.9c0-.1-.1-.1-.1-.1-.1-.1-.1-.1-.2-.3-.1-.1-.1-.2-.1-.3 0-.1 0-.3-.1-.5s-.2-.3-.3-.4c0-.1-.1-.2-.1-.3-.1-.1-.1-.2-.1-.3 0-.1 0-.3-.1-.5l-.4.2c.1.1.1.2.1.3 0 .1 0 .3.1.5s.2.3.3.4c.1.1.1.1.2.3v.2c0 .1 0 .3.1.5s.2.3.3.4c.1.1.1.1.2.3L9.3 9l-.3.3 2.3 2.3c-.1-.1-.2-.1-.2-.2-.1-.1-.2-.2-.4-.3-.3-.1-.4-.1-.5-.1-.1 0-.2 0-.3-.1-.2-.1-.2-.1-.3-.2-.1-.1-.2-.2-.4-.3-.2-.1-.4-.1-.5-.1-.1 0-.2 0-.3-.1l-.2.4c.2.1.4.1.5.1.1 0 .2 0 .3.1.2.1.2.1.3.2.1.1.2.2.4.3.2.1.4.1.5.1.1 0 .2 0 .3.1.1.1.2.1.3.2l.1.1H8v.4h3.2c-.1 0-.2.1-.3.1-.1 0-.3 0-.5.1s-.3.2-.4.3c-.1.1-.1.1-.3.2-.2.1-.2.1-.3.1-.1 0-.3 0-.5.1s-.3.2-.4.3c-.1.1-.1.1-.3.2l.2.4c.2-.1.3-.2.4-.3.1-.1.1-.1.3-.2.2-.1.2-.1.3-.1.1 0 .3 0 .5-.1s.3-.2.4-.3c.1-.1.1-.1.3-.2.1-.1.2-.1.3-.1h.2l-2 2 .2.3 2.3-2.3c-.1.1-.1.2-.2.2-.1.1-.2.2-.3.4-.1.3-.1.4-.1.5 0 .1 0 .2-.1.3-.1.2-.1.2-.2.3-.1.1-.2.2-.3.4-.1.2-.1.4-.1.5 0 .1 0 .2-.1.3l.4.2c.1-.2.1-.4.1-.5 0-.1 0-.2.1-.3.1-.2.1-.2.2-.3.1-.1.2-.2.3-.4.1-.2.1-.4.1-.5 0-.1 0-.2.1-.3.1-.2.1-.2.2-.3l.1-.1V16h.4v-3.2c0 .1.1.2.1.3 0 .1 0 .3.1.5s.2.3.3.4c.1.1.1.1.2.3.1.2.1.2.1.3 0 .1 0 .3.1.5s.2.3.3.4c.1.1.1.1.2.3l.4-.2c-.1-.2-.2-.3-.3-.4-.1-.1-.1-.1-.2-.3-.1-.2-.1-.2-.1-.3 0-.1 0-.3-.1-.5s-.2-.3-.3-.4c-.1-.1-.1-.1-.2-.3-.1-.1-.1-.2-.1-.3v-.2l2 2 .3-.3-2-2h.2c.1 0 .2 0 .3.1.1.1.2.1.3.2.1.1.2.2.4.3.2.1.4.1.5.1.1 0 .2 0 .3.1.1.1.2.1.3.2.1.1.2.2.4.3l.2-.4c-.1-.1-.2-.1-.3-.2-.1-.1-.2-.2-.4-.3-.2-.1-.4-.1-.5-.1-.1 0-.2 0-.3-.1-.1-.1-.2-.1-.3-.2-.1-.1-.2-.2-.4-.3-.2-.1-.4-.1-.5-.1-.1 0-.2 0-.3-.1H16v-.3Z"/><circle cx="12" cy="12" r="2" fill="#FFE15A"/><path fill="#82AFFF" d="M12 .1C7.4.1 3.3 2.7 1.3 6.8h21.4C20.7 2.7 16.6.1 12 .1Zm0 23.8c4.6 0 8.7-2.6 10.7-6.7H1.3c2 4.1 6.1 6.7 10.7 6.7Z"/><path fill="#FFF" d="M12 23c6.1 0 11-4.9 11-11S18.1 1 12 1 1 5.9 1 12s4.9 11 11 11Zm0 1C5.4 24 0 18.6 0 12S5.4 0 12 0s12 5.4 12 12-5.4 12-12 12Z"/></g></svg>