<svg xmlns="http://www.w3.org/2000/svg" width="24" height="24"><g fill="none" fill-rule="evenodd"><path fill="#F5F5F5" fill-rule="nonzero" d="M12 24C5.373 24 0 18.627 0 12S5.373 0 12 0s12 5.373 12 12-5.373 12-12 12Z"/><circle cx="12" cy="12" r="11.5" stroke="#FFF"/><path fill="#FF4B55" fill-rule="nonzero" d="M14.297 8.556a4.139 4.139 0 0 0-5.736 1.149 2.067 2.067 0 1 0 3.44 2.294 2.067 2.067 0 1 1 3.44 2.294 4.137 4.137 0 0 0-1.144-5.737"/><path fill="#41479B" fill-rule="nonzero" d="M8.561 9.705a2.067 2.067 0 1 0 3.44 2.294 2.067 2.067 0 1 1 3.44 2.294 4.13 4.13 0 0 1-5.734 1.15 4.138 4.138 0 0 1-1.146-5.738"/><g fill="#464655" fill-rule="nonzero"><path d="m16.402 6.993.752 1.13a.207.207 0 0 1-.057.286l-.19.128a.207.207 0 0 1-.288-.057l-.752-1.13a.207.207 0 0 1 .057-.286l.191-.128a.207.207 0 0 1 .288.057ZM17.562 8.735l.754 1.13a.207.207 0 0 1-.058.287l-.191.126a.207.207 0 0 1-.286-.057l-.754-1.128a.207.207 0 0 1 .057-.287l.191-.128a.207.207 0 0 1 .287.057ZM17.207 6.456l1.914 2.872a.207.207 0 0 1-.057.287l-.193.129a.207.207 0 0 1-.287-.058L16.67 6.814a.207.207 0 0 1 .057-.287l.193-.128a.207.207 0 0 1 .287.057ZM18.01 5.92l.753 1.132a.207.207 0 0 1-.058.287l-.192.127a.207.207 0 0 1-.286-.058l-.754-1.13a.207.207 0 0 1 .058-.288l.192-.128a.207.207 0 0 1 .287.058ZM19.17 7.666l.752 1.13a.207.207 0 0 1-.057.286l-.19.128a.207.207 0 0 1-.288-.058l-.752-1.13a.207.207 0 0 1 .057-.286l.191-.128a.207.207 0 0 1 .287.058ZM6.221 13.78l1.914 2.87a.207.207 0 0 1-.057.286l-.192.128a.207.207 0 0 1-.287-.057l-1.914-2.869a.207.207 0 0 1 .058-.287l.191-.128a.207.207 0 0 1 .287.057ZM5.418 14.317l.751 1.127a.207.207 0 0 1-.057.287l-.19.127a.207.207 0 0 1-.288-.057l-.752-1.126a.207.207 0 0 1 .057-.287l.192-.128a.207.207 0 0 1 .287.057ZM6.579 16.06l.752 1.13a.207.207 0 0 1-.057.286l-.191.128a.207.207 0 0 1-.287-.057l-.753-1.13a.207.207 0 0 1 .057-.287l.192-.128a.207.207 0 0 1 .287.058ZM4.614 14.854l1.913 2.869a.207.207 0 0 1-.057.287l-.191.127a.207.207 0 0 1-.288-.057l-1.913-2.869a.207.207 0 0 1 .057-.287l.193-.128a.207.207 0 0 1 .286.058ZM5.686 9.864l1.913-2.871a.207.207 0 0 1 .287-.057l.192.128c.095.063.12.191.057.287L6.22 10.22a.207.207 0 0 1-.286.057l-.191-.126a.207.207 0 0 1-.058-.288ZM4.882 9.329l1.914-2.872a.207.207 0 0 1 .287-.058l.19.128c.096.063.121.192.058.287L5.418 9.686a.207.207 0 0 1-.287.057l-.192-.128a.207.207 0 0 1-.057-.286ZM4.078 8.795 5.992 5.92a.207.207 0 0 1 .287-.057l.19.128c.096.063.121.191.058.286L4.614 9.152a.207.207 0 0 1-.287.058l-.192-.128a.207.207 0 0 1-.057-.287ZM15.867 16.65l.752-1.127a.207.207 0 0 1 .287-.057l.19.127c.096.064.121.192.058.287l-.751 1.127a.207.207 0 0 1-.287.057l-.192-.128a.207.207 0 0 1-.057-.287ZM17.027 14.913l.753-1.132a.207.207 0 0 1 .287-.058l.192.128c.096.063.121.192.058.287l-.755 1.13a.207.207 0 0 1-.287.058l-.19-.126a.207.207 0 0 1-.058-.287ZM16.67 17.189l.753-1.13a.207.207 0 0 1 .287-.057l.192.128c.095.064.12.192.057.287l-.752 1.13a.207.207 0 0 1-.287.057l-.193-.128a.207.207 0 0 1-.057-.287ZM17.831 15.444l.753-1.127a.207.207 0 0 1 .287-.058l.192.129c.096.063.121.192.058.287l-.753 1.127a.207.207 0 0 1-.287.057l-.192-.128a.207.207 0 0 1-.058-.287ZM17.474 17.723l.753-1.128a.207.207 0 0 1 .286-.058l.192.127a.207.207 0 0 1 .058.287l-.753 1.13a.207.207 0 0 1-.287.057l-.192-.128a.207.207 0 0 1-.057-.287ZM18.635 15.983l.752-1.13a.207.207 0 0 1 .287-.056l.191.127c.095.064.12.192.057.287l-.752 1.128a.207.207 0 0 1-.287.057l-.19-.126a.207.207 0 0 1-.058-.287Z"/></g></g></svg>