<svg xmlns="http://www.w3.org/2000/svg" width="24" height="24"><g fill="none" fill-rule="evenodd"><circle cx="12" cy="12" r="12" fill="#EEE" fill-rule="nonzero"/><path fill="#D80027" fill-rule="nonzero" d="M23.8 12c0-4.6-2.6-8.8-6.67-10.8v21.6c4.08-2 6.67-6.2 6.67-10.8ZM.2 12c0 4.6 2.6 8.8 6.67 10.8V1.2C2.79 3.2.2 7.4.2 12Zm13.85 1.57 2.05-1.05-1.02-.52v-1.05L13.03 12l1.02-2.09h-1.02L12 8.34l-1.03 1.57H9.95L10.97 12l-2.05-1.05V12l-1.02.52 2.05 1.05-.52 1.04h2.06v1.56h1.02v-1.56h2.05l-.5-1.04Z"/><circle cx="12" cy="12" r="11.5" stroke="#FFF"/></g></svg>