<svg xmlns="http://www.w3.org/2000/svg" width="24" height="24"><g fill="none" fill-rule="evenodd"><g fill-rule="nonzero" transform="translate(.5 .5)"><circle cx="11.5" cy="11.5" r="11.5" fill="#EEE"/><path fill="#D80027" d="M11.001 11.5H23c0-1.038-.135-2.044-.395-3H11v3Zm0-6.002h10.31a11.563 11.563 0 0 0-2.65-2.996H11v2.996ZM11.5 23a11.45 11.45 0 0 0 7.16-2.502H4.34A11.45 11.45 0 0 0 11.5 23Zm-9.81-5.498h19.62a11.433 11.433 0 0 0 1.295-3.001H.395a11.433 11.433 0 0 0 1.294 3Z"/><path fill="#0052B4" d="M5.328 1.797h1.046l-.974.705.372 1.15-.974-.71-.975.71.323-.988a11.563 11.563 0 0 0-2.232 2.484h.337l-.62.45c-.097.162-.19.326-.279.493L1.65 7l-.553-.404c-.138.293-.264.593-.377.898l.328 1.002h1.2l-.971.714.373 1.145-.975-.714-.584.427c-.06.475-.09.954-.09 1.433h11.5V0C9.227 0 7.111.66 5.328 1.797Zm.444 8.553-.974-.71-.975.71.373-1.146-.975-.714h1.204l.373-1.145.373 1.145h1.203L5.4 9.21l.372 1.145v-.004ZM5.4 5.858l.372 1.14-.974-.704-.975.705.373-1.146-.975-.705h1.204l.373-1.15.373 1.15h1.203l-.974.705v.005Zm4.496 4.492-.975-.71-.974.71.373-1.146-.975-.71h1.204L8.92 7.35l.373 1.146h1.204l-.975.714.373 1.145v-.004Zm-.373-4.492.373 1.14-.975-.704-.974.705.373-1.146-.975-.705h1.204l.372-1.15.373 1.15h1.204l-.975.705v.005Zm0-3.356.373 1.15-.975-.71-.97.71.373-1.15-.98-.705H8.55L8.92.65 9.3 1.797h1.204l-.98.705Z"/></g><circle cx="12" cy="12" r="11.5" stroke="#FFF"/></g></svg>