<?xml version="1.0" encoding="UTF-8"?>
<svg width="24px" height="24px" viewBox="0 0 24 24" version="1.1" xmlns="http://www.w3.org/2000/svg" xmlns:xlink="http://www.w3.org/1999/xlink">
    <!-- Generator: Sketch 57.1 (83088) - https://sketch.com -->
    <title>kazakhstan</title>
    <desc>Created with Sketch.</desc>
    <g id="Flag" stroke="none" stroke-width="1" fill="none" fill-rule="evenodd">
        <g id="kazakhstan">
            <g>
                <g id="Group" fill-rule="nonzero">
                    <path d="M12,23.5 C5.6,23.5 0.5,18.4 0.5,12 C0.5,5.6 5.6,0.5 12,0.5 C18.4,0.5 23.5,5.6 23.5,12 C23.5,18.4 18.4,23.5 12,23.5 Z" id="Combined-Shape" fill="#82C3D2"></path>
                    <path d="M1.2,8.3 C1.2,8.2 1.3,8.1 1.3,8 C1.3,8.3 1.6,8.5 1.9,8.3 C2.1,8.1 2.1,7.7 1.8,7.9 C1.9,7.9 1.9,8.4 1.6,8.2 C1.4,7.8 1.7,7.4 2,7.6 C2,7.5 2,7.4 2,7.3 C2,7.6 1.8,7.3 1.8,7.2 C1.8,7.2 2.1,6.7 2.1,6.7 C2.2,6.7 2.4,7.1 2.4,7.1 C2.4,7.2 2.4,7.7 2.3,7.3 C2.3,7.4 2.3,7.5 2.3,7.6 C2.5,7.5 2.8,7.6 2.8,7.9 C2.7,8.4 2.5,8 2.5,7.9 C2.6,7.9 2.4,7.5 2.3,7.8 C2.2,8.2 2.5,8.4 2.8,8.3 C3.5,7.9 2.1,6.5 2.5,6 C2.7,6.5 3.2,7.2 3.2,7.8 C3.2,8.1 3,8.3 3,8.5 C3,8.8 3.2,8.9 3.1,9.3 C3,9.6 2.9,9.9 2.7,10.1 C2.6,10.4 1.7,12 2.6,11.9 C2.8,11.9 3,11.6 2.8,11.4 C2.6,11.1 2.5,11.6 2.6,11.6 C2.5,11.6 2.5,11.9 2.3,11.6 C2.2,11.3 2.4,11.1 2.7,11.2 C2.7,11 2.6,10.7 2.8,10.6 C3.1,10.4 2.9,10.8 2.9,10.9 C3,11.2 3.1,11.7 2.9,12 C3,12.2 3,12.1 2.9,12.2 C3.1,12.4 3,13.1 3,13.4 C3,13.5 3.1,13.7 2.9,13.6 C2.6,13.5 2.7,13.1 2.8,13 C2.3,13.2 2.2,12.3 2.7,12.5 C2.7,12.5 2.6,13 2.8,12.7 C3,12.5 3,12.2 2.8,12.2 C1.8,11.8 2.7,13.7 2.8,13.9 C2.9,14.1 3,14.4 3.1,14.6 C3.2,14.9 3.1,15.1 3.1,15.4 C3.1,15.4 3,15.5 3,15.5 C3,15.5 3.1,15.6 3.1,15.6 C3.1,15.7 3.2,15.8 3.2,16 C3.2,16.6 2.7,17.4 2.5,17.9 C2.2,17.5 2.6,17.1 2.8,16.7 C2.9,16.4 3.3,15.8 2.8,15.6 C2.5,15.5 2.3,15.8 2.4,16 C2.5,16.4 2.7,15.9 2.6,15.9 C2.6,15.9 2.8,15.4 2.9,16 C2.9,16.3 2.6,16.4 2.4,16.3 C2.4,16.4 2.4,16.5 2.4,16.6 C2.4,16.3 2.6,16.6 2.6,16.7 C2.6,16.7 2.3,17.2 2.3,17.2 C2.2,17.2 2,16.8 2,16.8 C2,16.7 2,16.2 2.1,16.6 C2.1,16.5 2.1,16.4 2.1,16.3 C1.9,16.4 1.6,16.3 1.6,16 C1.7,15.4 1.9,16 1.9,16 C1.9,16 2.2,16.3 2.1,15.8 C2,15.4 1.5,15.5 1.4,15.8 C1.2,15.6 1.2,15.5 1.4,15.4 C1.4,15.4 1.3,15.3 1.3,15.3 C1.2,15.1 1.2,14.9 1.2,14.7 C1.2,14.5 1.3,14.3 1.4,14.1 C1.6,13.6 1.9,13.2 2,12.7 C2.1,12.5 2.2,12.1 1.8,12 C1.5,11.9 1.1,12.4 1.5,12.5 C1.8,12.6 1.5,12.2 1.7,12.1 C1.9,12.1 2.1,12.9 1.5,12.7 C1.5,12.9 1.6,13.2 1.4,13.3 C1.2,13.4 1.3,13.2 1.3,13.1 C1.1,13 1,12.4 1.2,12.1 C1.1,11.9 1.1,12 1.2,11.9 C1,11.6 1.1,11.1 1.2,10.8 C1.2,10.8 1,10.3 1.3,10.5 C1.5,10.6 1.4,10.9 1.4,11.1 C1.9,10.9 2,11.6 1.7,11.7 C1.4,11.8 1.8,11.2 1.5,11.3 C1.2,11.4 1.5,11.9 1.8,11.8 C2.2,11.8 2.1,11.3 2,11.1 C1.9,10.7 1.6,10.2 1.4,9.8 C1.3,9.7 1.2,9.6 1.2,9.4 C1.1,9.2 1.1,9 1.1,8.8 C1.2,8.5 1.4,8.6 1.2,8.3 Z M3.2,18.8 C3,18.6 2.9,18.4 2.7,18.2 C3.1,18.1 2.7,18.2 2.9,17.8 C3.1,17.5 3.1,17.6 3.2,17.8 C3.2,17.9 3.2,18.6 3.2,18.8 Z M3,5.4 C3,5.3 3.1,5.2 3.2,5.1 C3.2,5.2 3.2,6.2 3.2,6.3 C3.1,6.4 3.1,6.5 3,6.3 C2.9,6.2 2.9,6.1 2.9,6 C3,5.8 2.9,5.7 2.7,5.8 C2.7,5.7 3,5.5 3,5.4 Z M2.2,8.3 C2,8.4 2,8.5 2.2,8.6 C2.3,8.5 2.3,8.4 2.2,8.3 Z M2.2,15.4 C2,15.5 2,15.6 2.2,15.6 C2.3,15.6 2.3,15.5 2.2,15.4 Z M2.9,14.7 C2.6,14.1 2.4,13.6 2.1,13 C2,13.4 1,14.8 1.4,15.3 C1.6,15.5 2,15.5 2,15.2 C2,15.1 2,15 1.9,14.9 C1.7,14.8 1.8,15 1.8,15 C1.8,15 1.8,15.5 1.6,15.1 C1.5,14.8 1.8,14.5 2.1,14.7 C2.1,14.6 2.1,14.5 2.1,14.4 C1.9,14.6 1.9,14.4 1.9,14.3 C1.9,14.3 2.2,13.8 2.2,13.8 C2.3,13.8 2.5,14.2 2.5,14.2 C2.5,14.4 2.6,14.7 2.4,14.4 C2.4,14.5 2.4,14.6 2.4,14.7 C2.7,14.5 3.1,14.9 2.8,15.2 C2.5,15.5 2.7,14.9 2.6,14.9 C2.3,14.7 2.2,15.4 2.6,15.4 C3,15.5 3,15 2.9,14.7 Z M2.3,12 C2.3,12 2.2,11.9 2.2,11.9 C2,12 2,12 2.2,12.1 C2.2,12.1 2.2,12 2.3,12 Z M2.9,9.3 C3,9 3,8.5 2.6,8.6 C2.3,8.7 2.2,9.3 2.6,9.1 C2.6,9.1 2.5,8.5 2.8,8.8 C3.1,9.1 2.7,9.5 2.4,9.3 C2.4,9.4 2.4,9.5 2.4,9.6 C2.6,9.4 2.6,9.6 2.6,9.7 C2.6,9.7 2.3,10.2 2.3,10.2 C2.2,10.2 2,9.8 2,9.8 C2,9.6 1.9,9.3 2.1,9.6 C2.1,9.5 2.1,9.4 2.1,9.3 C1.8,9.4 1.5,9.3 1.5,9 C1.6,8.5 1.8,8.9 1.8,8.9 C1.7,8.9 2,9.4 2,8.9 C2,8.5 1.5,8.5 1.4,8.7 C1,9.2 2,10.6 2.2,11 C2.4,10.4 2.7,9.9 2.9,9.3 Z" id="Shape" fill="#FFE15A"></path>
                    <path d="M14.9,7.9 C14.8,8 14.7,8 14.5,8 C14.4,7.9 14.3,7.8 14.4,7.7 C14.5,7.6 15.1,7.3 15.1,7.3 C15.1,7.3 15,7.8 14.9,7.9 Z" id="Path" fill="#FFE15A"></path>
                    <g transform="translate(6.000000, 6.000000)" fill="#FFE15A">
                        <path d="M3.9,4.7 C3.9,8.2 9.4,8.2 9.4,4.7 C9.4,1.2 3.9,1.1 3.9,4.7 Z" id="Path"></path>
                        <path d="M9.3,2.5 C9.5,2.3 9.6,2 9.6,1.8 C9.4,1.9 9.1,2 9,2.1 C8.9,2.3 9,2.8 9.3,2.5 Z" id="Path"></path>
                        <path d="M4.4,7 C4.1,6.7 3.8,7.5 3.7,7.7 C3.9,7.6 4.8,7.3 4.4,7 Z" id="Path"></path>
                        <path d="M9.3,7 C9,6.7 8.9,7.2 9,7.4 C9.1,7.5 9.5,7.6 9.6,7.7 C9.6,7.5 9.5,7.2 9.3,7 Z" id="Path"></path>
                        <path d="M4.4,2.5 C4.7,2.2 3.9,1.9 3.7,1.8 C3.8,2 4.1,2.8 4.4,2.5 Z" id="Path"></path>
                        <path d="M5.6,1.6 C6.2,1.5 5.2,0.9 5.1,0.8 C5.1,1.3 5.1,1.8 5.6,1.6 Z" id="Path"></path>
                        <path d="M8.5,7.8 C8.3,7.6 7.7,7.7 7.9,8 C7.6,7.8 7.4,8.1 7.2,8.1 C7,8.1 6.7,8.1 6.5,8 C5.9,8 5.7,8 6,8.7 C6.2,8.5 6.4,8.4 6.5,8.2 C6.6,8.4 6.7,8.6 6.9,8.8 C7,8.6 7.2,8.4 7.3,8.2 C7.5,8.4 7.7,8.5 7.8,8.7 C7.9,8.5 8.1,8.1 7.9,8 C8.1,8.2 8.4,8.3 8.6,8.5 C8.5,8.3 8.6,8 8.5,7.8 Z" id="Path"></path>
                        <path d="M9.7,3.6 C9.8,4.2 10.4,3.2 10.5,3.1 C10.1,3.1 9.6,3.1 9.7,3.6 Z" id="Path"></path>
                        <path d="M3.1,5.2 C2.9,5.4 2.8,5.6 2.6,5.7 C2.8,5.8 3.2,6 3.3,5.8 C3.2,6 3,6.3 2.9,6.6 C3,6.6 3.4,6.6 3.5,6.5 C3.7,6.3 3.6,5.7 3.3,5.9 C3.5,5.6 3.2,5.4 3.2,5.2 C3.2,5 3.2,4.7 3.3,4.5 C3.3,3.9 3.3,3.7 2.6,4 C2.8,4.2 2.9,4.4 3.1,4.5 C2.9,4.6 2.7,4.7 2.5,4.9 C2.7,5 2.9,5.2 3.1,5.2 Z" id="Path"></path>
                        <path d="M5.6,7.7 C5.1,7.6 5.1,8.1 5.1,8.5 C5.3,8.4 6.2,7.9 5.6,7.7 Z" id="Path"></path>
                        <path d="M3.6,3.6 C3.7,3.1 3.2,3.1 2.8,3.1 C3,3.3 3.5,4.3 3.6,3.6 Z" id="Path"></path>
                        <path d="M6.2,1.5 C6.5,1.5 6.6,1.3 7,1.4 C7.2,1.4 7.6,1.6 7.8,1.4 C7.6,1.7 8.3,1.7 8.4,1.6 C8.5,1.5 8.5,1.1 8.5,1 C8.3,1 8,1.2 7.8,1.4 C8,1.3 7.8,0.8 7.7,0.7 C7.5,0.9 7.3,1 7.2,1.2 C7.1,1 7,0.7 6.8,0.6 C6.7,0.8 6.5,1 6.4,1.2 C6.2,1 6,0.9 5.9,0.7 C5.8,1 5.6,1.5 6.2,1.5 Z" id="Path"></path>
                        <path d="M5,7.4 C4.6,7.2 4.4,7.8 4.4,8.1 C4.5,8.1 5.5,7.6 5,7.4 Z" id="Path"></path>
                        <path d="M9.7,6.5 C9.4,6.3 9.4,6.8 9.5,7 C9.6,7.1 9.9,7.2 10.1,7.2 C10,6.9 9.9,6.6 9.7,6.5 Z" id="Path"></path>
                        <path d="M4,3 C4.2,2.6 3.6,2.4 3.3,2.4 C3.3,2.5 3.7,3.5 4,3 Z" id="Path"></path>
                        <path d="M5,2 C5.5,1.8 4.5,1.4 4.4,1.3 C4.5,1.5 4.6,2.2 5,2 Z" id="Path"></path>
                        <path d="M8.9,7.5 C8.6,7.2 8.3,7.5 8.5,7.8 C8.6,8 9,8.1 9.1,8.2 C9.1,7.9 9.1,7.6 8.9,7.5 Z" id="Path"></path>
                        <path d="M9.4,3 C9.6,3.5 10,2.5 10.1,2.4 C9.9,2.5 9.2,2.6 9.4,3 Z" id="Path"></path>
                        <path d="M4,6.5 C3.8,6 3.4,7 3.3,7.1 C3.5,7.1 4.2,7 4,6.5 Z" id="Path"></path>
                        <path d="M10.7,4 C10,3.7 10,3.8 10,4.5 C10,4.6 10,5 10,5.1 C10,5.3 9.8,5.6 10,5.8 C9.7,5.6 9.7,6.3 9.8,6.4 C9.9,6.5 10.3,6.5 10.4,6.5 C10.3,6.3 10.1,6 9.9,5.8 C10,6 10.5,5.8 10.6,5.7 C10.4,5.5 10.3,5.3 10.1,5.2 C10.3,5.1 10.5,5 10.7,4.8 C10.5,4.7 10.3,4.5 10.1,4.4 C10.4,4.3 10.5,4.1 10.7,4 Z" id="Path"></path>
                        <path d="M13.1,5.4 C12.8,5.3 12.4,6.4 12.3,6.6 C12.4,6.3 12.9,5.2 12.7,4.9 C12.5,4.6 12,6.1 11.9,6.3 C11.9,6.2 12.1,5.3 11.9,5.2 C11.5,5 11.6,5.8 11.5,6 C11.3,6.8 10.9,7.5 10.3,8.2 C9.4,9.2 8.6,9.4 7.3,9.7 C5.5,10.1 3.7,9.2 2.7,7.7 C2.4,7.2 2.1,6.7 2,6.2 C1.9,6 1.9,5.5 1.7,5.3 C1.1,4.7 1.7,6.5 1.8,6.6 C1.6,6.3 1.2,4.7 0.9,4.8 C0.4,4.9 1.3,6.5 1.3,6.6 C1.2,6.5 0.6,5.3 0.4,5.4 C6.66133815e-16,5.7 1,7 1.2,7.3 C1.1,7.2 0.7,6.6 0.4,6.8 C0.1,7 1.1,7.8 1.1,7.8 C0.9,7.7 0.5,7.5 0.6,7.9 C0.7,8.2 1.5,8.5 1.7,8.6 C1.1,8.6 1.5,8.9 1.8,9 C1.4,9.2 3.5,10.3 3.7,10.4 C3.9,10.5 5.3,10.8 5,10.2 C5,10.1 4.1,10.1 3.9,10.1 C3.5,10 3.2,9.9 2.9,9.7 C3.6,9.5 2.4,9.2 2.3,9.2 C2.7,9 2.4,8.9 2.1,8.8 C2.4,8.6 2.2,8.5 2,8.4 C2.2,8.2 1.7,8 1.7,7.9 C1.7,7.9 1.8,7.7 1.8,7.7 C1.7,7.6 1.6,7.4 1.5,7.3 C1.8,7.5 1.9,7.4 2.2,7.6 C2.6,7.9 2.8,8.5 3.2,8.9 C4,9.7 5.1,10.1 6.3,10.2 C5.9,10.4 4.8,10.7 4.8,11.2 C4.8,11.6 5.7,11.3 6.1,11.4 C5.5,12.1 6.2,11.9 6.7,12 C7.1,12 7.5,12.1 7.9,12 C8.4,11.9 9.1,11.8 9.5,11.6 C9.6,11.5 9.7,11.4 9.7,11.3 C9.9,11.3 10,11.3 10.2,11.2 C10.3,11.1 10.5,11 10.5,10.9 C10.4,10.6 8.9,10.5 8.6,10.6 C8.3,10.7 8.2,11.1 7.7,11.2 C7.7,11.1 7.7,11.1 7.6,11.1 C7.5,11.1 7.3,11.1 7.2,11.2 C6.8,11.2 6.4,11.3 6,11.2 C6.1,11.2 6.5,10.9 6.2,10.8 C6.8,10.5 7.4,10.2 8.1,10.1 C8.4,10 8.6,10 8.8,9.9 C10,9.1 11,8 11.5,7 C11.5,7.1 11.4,7.6 11.7,7.3 C11.7,7.4 11.4,7.8 11.6,7.9 C11.5,8.1 10.7,9.2 10.8,9.2 C10.5,9.3 10.1,9.4 10.6,9.6 C10.3,9.7 9,9.8 8.9,10 C8.5,10.5 9.4,10.3 9.7,10.2 C9.7,10.2 11.6,9.7 11.1,9.4 C11.3,9.4 11.8,9.2 11.9,9 C12,8.8 11.9,8.7 11.7,8.7 C11.9,8.6 12.7,8.1 12.7,7.9 C12.7,7.5 12.3,7.9 12.1,8 C12.3,7.8 13.2,6.9 13.1,6.7 C12.9,6.4 12.5,7.1 12.4,7.2 C12.5,7.1 13.4,5.5 13.1,5.4 Z M5.7,10.9 C5.6,10.9 5.6,10.9 5.5,10.9 C5.6,10.8 5.7,10.7 5.8,10.8 C5.8,10.7 5.7,10.8 5.7,10.9 Z" id="Shape"></path>
                    </g>
                </g>
                <circle id="Oval" stroke="#FFFFFF" cx="12" cy="12" r="11.5"></circle>
            </g>
        </g>
    </g>
</svg>