<?xml version="1.0" encoding="UTF-8"?>
<svg width="24px" height="24px" viewBox="0 0 24 24" version="1.1" xmlns="http://www.w3.org/2000/svg" xmlns:xlink="http://www.w3.org/1999/xlink">
    <!-- Generator: Sketch 54.1 (76490) - https://sketchapp.com -->
    <title>SVG/turkey</title>
    <desc>Created with Sketch.</desc>
    <g id="Flag" stroke="none" stroke-width="1" fill="none" fill-rule="evenodd">
        <g id="turkey">
            <g>
                <path d="M12,23.5 C5.64872538,23.5 0.5,18.3512746 0.5,12 C0.5,5.64872538 5.64872538,0.5 12,0.5 C18.3512746,0.5 23.5,5.64872538 23.5,12 C23.5,18.3512746 18.3512746,23.5 12,23.5 Z" id="Combined-Shape" fill="#FF4B55" fill-rule="nonzero"></path>
                <circle id="Oval" stroke="#FFFFFF" cx="12" cy="12" r="11.5"></circle>
                <g id="Group" transform="translate(3.093750, 6.843750)" fill="#F5F5F5" fill-rule="nonzero">
                    <path d="M9.937125,3.0789375 L10.6713281,4.03935938 L11.8177031,3.65564063 C11.8818281,3.63417188 11.9363438,3.7066875 11.8979531,3.76232813 L11.211375,4.75734375 L11.9305781,5.7290625 C11.9707969,5.78339063 11.9187188,5.85764063 11.8539375,5.83832813 L10.6954219,5.49285938 L9.99351563,6.47714063 C9.95428125,6.53217188 9.8675625,6.50559375 9.86592188,6.438 L9.83648438,5.22946875 L8.6835,4.86609375 C8.61904688,4.84579688 8.6175,4.75509375 8.68129688,4.73264063 L9.82157813,4.33120313 L9.81089063,3.12234375 C9.81028125,3.05470313 9.8960625,3.02526563 9.937125,3.0789375 Z" id="Shape"></path>
                    <path d="M5.87714063,8.43309375 C3.808125,8.43309375 2.12971875,6.7546875 2.12971875,4.68379688 C2.12971875,2.61670313 3.808125,0.934546875 5.87714063,0.934546875 C6.64692188,0.934546875 7.35684375,1.1713125 7.94840625,1.572 C8.03901563,1.63335938 8.14242188,1.51429688 8.06653125,1.43545313 C7.182375,0.5161875 5.93095313,-0.044578125 4.5435,0.002765625 C2.15976563,0.08409375 0.186375,1.99528125 0.034078125,4.37554688 C-0.140390625,7.1019375 2.01839063,9.3676875 4.70620313,9.3676875 C6.0301875,9.3676875 7.2200625,8.8141875 8.0698125,7.9291875 C8.14490625,7.851 8.04126563,7.73376563 7.95154688,7.7945625 C7.35932813,8.19604688 6.64828125,8.43309375 5.87714063,8.43309375 Z" id="Shape"></path>
                </g>
            </g>
        </g>
    </g>
</svg>