<svg xmlns="http://www.w3.org/2000/svg" width="24" height="24"><g fill="none" fill-rule="evenodd"><g fill-rule="nonzero"><path fill="#FF4B55" d="M12 23.5a11.5 11.5 0 1 1 0-23 11.5 11.5 0 0 1 0 23Z"/><path fill="#73AF00" d="M8.83.94v22.12a11.5 11.5 0 0 1 0-22.12Z"/></g><circle cx="8.69" cy="12" r="5.27" fill="#FFE15A" fill-rule="nonzero"/><path fill="#FF4B55" fill-rule="nonzero" d="M10.45 10.24v2.35a1.76 1.76 0 0 1-3.51 0v-2.35h3.51Zm.59-1.17H6.35a.59.59 0 0 0-.59.59v2.93a2.93 2.93 0 0 0 5.86 0V9.66a.59.59 0 0 0-.58-.59Z"/><path fill="#F5F5F5" fill-rule="nonzero" d="M9.93 10.76v1.65a1.24 1.24 0 0 1-2.48 0v-1.65h2.48"/><g fill="#FFE15A" fill-rule="nonzero" transform="translate(6.05 9.33)"><circle cx=".76" cy=".79" r="1"/><circle cx="5.44" cy=".79" r="1"/><circle cx=".76" cy="3.13" r="1"/><circle cx="5.44" cy="3.13" r="1"/><circle cx="3.1" cy=".79" r="1"/><circle cx="4.86" cy="5.29" r="1"/><circle cx="1.37" cy="5.29" r="1"/></g><g fill="#41479B" fill-rule="nonzero"><path d="M9.07 11.85v.5a.38.38 0 0 1-.76 0v-.5h.76M9.07 10.66v.5a.38.38 0 0 1-.76 0v-.5h.76M9.07 13.06v.5a.38.38 0 0 1-.76 0v-.5h.76M10.09 11.85v.5a.38.38 0 0 1-.76 0v-.5h.76M8.05 11.85v.5a.38.38 0 0 1-.75 0v-.5h.75"/></g><circle cx="12" cy="12" r="11.5" stroke="#FFF"/></g></svg>