<svg xmlns="http://www.w3.org/2000/svg" width="24" height="24"><g fill="none" fill-rule="evenodd"><path fill="#FFF" fill-rule="nonzero" d="M12 0a12 12 0 1 1 0 24 12 12 0 0 1 0-24Zm0 1a11 11 0 1 0 0 22 11 11 0 0 0 0-22Z"/><path fill="#503F32" fill-rule="nonzero" d="M12 1a11 11 0 1 0 0 22 11 11 0 0 0 0-22Z"/><path fill="#DEBB69" d="m13.05 8.63 2.2 1.68.2-.3.23-1.39-.79-.6.01.13c-.62-.16-1.08.35-1.64.24l-.21.24m-2.5 6.86-2.32-2.31c-.17.13-.25.35-.3.61-.06.22-.2.42-.3.62-.12.23-.29.45-.19.7l.8.81h1.11l1.2-.43M7.28 8.3c.04.1.04.15.06.17l3.15 3.28c1.02 1.06 2.05 2.12 3.06 3.2.26.27.49.58.68.82h1.64c.2-.72.58-1.4.62-2.19-.3-.23-.56-.48-.86-.68L10.1 9.25c-.19-.13-.41-.2-.62-.31-.27-.4-.78-.57-1.12-.93-.1 0-.21-.03-.3 0l-.79.3m10.58 9.28-1.22-.3-.06.35c-.03.02-.07.05-.1.04-.28-.04-.59.11-.83-.12-.31.19-.68-.2-.99.1-.07.07-.24.02-.36.02h-1.67l-.2.26-1.05-.29-.2.35-.44-.54c-.24.15-.52.14-.8.04-.05-.02-.1-.06-.15-.06-.15 0-.34-.05-.42.03-.18.15-.27-.1-.42-.05-.13.05-.3 0-.44.02-.05 0-.1.07-.13.1-.32-.22-.68-.07-1.02-.1-.33-.03-.67 0-1 0l-.18-.2c-.03-.66.07-1.34-.16-1.98.48-.43.4-.98.4-1.49l-.37-.55v-.9l.36-.24v-.43c-.12-.35-.4-.58-.13-.94.07-.1.04-.3-.05-.46-.26-.51-.28-1.1-.16-1.61.14-.56.06-1.1.1-1.65 0-.13-.08-.26-.12-.38l.17-.34h2.8c.34.33.78.21 1.19.23l.55-.38c.33 0 .67.02 1 0 .31-.02.62-.07.98-.12l-.18.22.48.05.1.22h.69l.02-.37c.61 0 1.23-.01 1.85.01.16.01.32.14.5.23.33-.2.72-.08.99-.1.4.1.56.29.6.6.02.1 0 .12-.03.18a.35.35 0 0 0-.02.24c.26.83.03 1.68.15 2.54l-.34.27-.2.67.26.5c-.05.45.1.98-.1 1.5l.17.04c.02.03.05.07.05.1 0 .38-.07.77.02 1.13.14.57.1 1.14.1 1.7.02.6 0 1.18 0 1.86"/></g></svg>