<?xml version="1.0" encoding="UTF-8"?>
<svg width="24px" height="24px" viewBox="0 0 24 24" version="1.1" xmlns="http://www.w3.org/2000/svg" xmlns:xlink="http://www.w3.org/1999/xlink">
    <!-- Generator: Sketch 63.1 (92452) - https://sketch.com -->
    <title>esports_aov</title>
    <desc>Created with Sketch.</desc>
    <g id="Classifier" stroke="none" stroke-width="1" fill="none" fill-rule="evenodd">
        <g id="esports_aov">
            <g>
                <path d="M12,0 C18.627417,0 24,5.372583 24,12 C24,18.627417 18.627417,24 12,24 C5.372583,24 0,18.627417 0,12 C0,5.372583 5.372583,0 12,0 Z M12,1 C5.92486775,1 1,5.92486775 1,12 C1,18.0751322 5.92486775,23 12,23 C18.0751322,23 23,18.0751322 23,12 C23,5.92486775 18.0751322,1 12,1 Z" id="Oval" fill="#FFFFFF" fill-rule="nonzero"></path>
                <path d="M12,1 C5.92486775,1 1,5.92486775 1,12 C1,18.0751322 5.92486775,23 12,23 C18.0751322,23 23,18.0751322 23,12 C23,5.92486775 18.0751322,1 12,1 Z" id="Path-Copy" fill="#503F32" fill-rule="nonzero"></path>
                <path d="M16.930974,9.04619166 C16.8755694,9.13923181 16.8400315,9.19870841 16.7481019,9.35332288 C17.211822,10.4404366 17.7046633,11.5938137 18.1955303,12.748178 C18.3376819,13.0822094 18.4713191,13.4198193 18.6132239,13.7539741 C18.729339,14.0271716 18.7594475,14.2818598 18.5841026,14.5560444 C18.4384959,14.7838324 18.3468131,15.0459243 18.2002194,15.3589785 C17.6328472,14.0507401 17.0889201,12.7844562 16.5338875,11.5232315 C16.3264598,11.0522312 16.0203157,10.642435 15.9085194,10.1056648 C15.832878,9.74201849 15.4550412,9.44130383 15.1633344,9.04619166 L16.930974,9.04619166 Z M13.6026907,9.4311854 C14.3306004,9.84406651 14.8069067,10.5274304 15.1619154,11.3945301 C15.2039932,13.4018036 15.231387,14.0670283 12.9600473,15.280499 C11.0273047,15.5205031 9.58036984,14.9606581 8.87504156,12.8952653 C8.89157655,12.2196753 8.70956829,11.3429508 9.26089907,10.5807372 C9.76867127,9.87898742 10.3667689,9.3070496 11.2494164,9.09345211 C12.0860375,8.89071341 12.8853931,9.02435066 13.6026907,9.4311854 Z M5.82402783,9.04527853 C6.87696104,11.0852518 7.60092204,13.2937832 8.83586351,15.2847685 L7.18100739,15.2847685 C7.2158049,15.0880762 7.36005416,14.81093 7.27700903,14.6548348 C6.74801282,13.6606378 6.44853211,12.5751282 5.98814376,11.5557586 C5.96297109,11.5001072 5.89843528,11.4621014 5.78565185,11.3494414 C5.60549452,11.878561 5.4386639,12.3684409 5.25023908,12.921746 L5.83624398,12.921746 C5.99690483,13.1734727 6.14695368,13.4081708 6.33759962,13.7067877 L5.07908962,13.7067877 C4.54762549,14.16841 4.50505407,14.6969127 4.54972322,15.2793391 L3,15.2793391 C3.25888361,14.8447404 3.50481071,14.4317359 3.76233697,13.9993583 C3.62536804,13.6262105 3.51394197,13.3222876 3.39079333,12.986652 L4.09538124,12.986652 C4.80774306,11.732831 5.27541175,10.3858465 5.82402783,9.04527853 Z M10.0323673,11.6680978 C9.80408576,13.7481746 10.8063034,14.5469132 12.5291505,14.347753 C14.1790708,13.7362052 14.0343279,12.4854691 13.9625118,11.3766378 C13.6163876,10.6461368 13.09788,10.2433741 12.3223397,10.0005319 C11.2926048,9.92143545 10.4695573,10.3672631 10.0323673,11.6680978 Z M21,9.05547099 C20.3548887,10.4970998 19.7177981,11.9207129 19.0449228,13.4244096 C18.8518089,12.9571111 18.697688,12.5839633 18.53604,12.19317 C18.9133833,11.2892985 19.3080019,10.3439661 19.6959571,9.41467509 C19.6227836,9.2821484 19.5631836,9.17442419 19.4975372,9.05547099 L21,9.05547099 Z M12.0650356,11.3848559 C12.2252028,11.4659267 12.3826554,11.5524269 12.5677485,11.65139 C12.6519042,11.8718977 12.7479059,12.1235009 12.8637742,12.4273005 C12.6443771,12.5899357 12.4405279,12.7410951 12.1159979,12.9817162 C11.7856683,13.0598255 11.4600278,12.8085924 11.1976891,12.3644922 C11.2751814,12.1460823 11.3553884,11.9197751 11.4412717,11.6780434 C11.6056344,11.5878414 11.788383,11.4875209 11.9786588,11.383005 C12.0012401,11.383005 12.0392459,11.371776 12.0650356,11.3848559 Z" id="Combined-Shape" fill="#DEBB69"></path>
            </g>
        </g>
    </g>
</svg>