<svg fill="none" xmlns="http://www.w3.org/2000/svg" viewBox="0 0 24 24">
  <g id="classifier/cycling" clip-path="url(#clip0_448_34)">
    <g id="Group">
      <path id="Vector" d="M12.02 24c6.627 0 12-5.373 12-12s-5.373-12-12-12c-6.628 0-12 5.373-12 12s5.372 12 12 12Z" fill="#503F32"/>
      <path id="Vector_2" d="M12.02 1c6.07 0 11 4.93 11 11s-4.93 11-11 11-11-4.93-11-11 4.94-11 11-11Zm0-1c-6.63 0-12 5.37-12 12s5.37 12 12 12 12-5.37 12-12-5.37-12-12-12Z" fill="#fff"/>
    </g>
    <path id="Vector_3" d="M12.867 14.561c0 .578.003 1.155 0 1.733 0 .328-.157.567-.45.628-.363.079-.698.017-.852-.369a.796.796 0 0 1-.044-.297c-.004-.861-.004-1.726 0-2.587 0-.099-.031-.167-.106-.232a71.672 71.672 0 0 1-1.083-.943c-.195-.175-.383-.356-.578-.53-.099-.089-.212-.164-.307-.26a1.572 1.572 0 0 1-.465-.84c-.089-.475.068-.875.4-1.206.639-.646 1.278-1.285 1.92-1.924.468-.465 1.288-.455 1.76.01.502.495 1.001.99 1.514 1.473.458.43 1.011.687 1.63.806.116.024.239.038.348.079.236.089.359.273.376.523.02.249-.014.478-.229.645a.573.573 0 0 1-.44.127c-1.087-.144-2.027-.585-2.792-1.384-.134-.14-.277-.273-.41-.417-.059-.058-.1-.061-.158 0-.485.499-.974.998-1.462 1.493-.069.069-.065.11.003.171.198.185.397.376.588.567.26.264.52.527.772.797.041.04.062.12.062.18.006.588.003 1.173.003 1.757ZM7.294 19a3.423 3.423 0 0 0 3.52-3.339c.02-.963-.318-1.8-1.005-2.48-.813-.807-1.804-1.125-2.936-.967-1.281.177-2.86 1.353-2.877 3.383C3.98 17.4 5.5 18.959 7.294 19Zm-2.29-3.414c.017-1.35 1.077-2.405 2.403-2.399 1.353.01 2.412 1.073 2.402 2.42a2.394 2.394 0 0 1-2.413 2.388c-1.336-.01-2.405-1.09-2.392-2.409Zm14.041-2.713c-.779-.605-1.678-.806-2.641-.65-1.36.22-2.853 1.43-2.833 3.432.02 1.869 1.586 3.39 3.5 3.342a3.413 3.413 0 0 0 3.314-3.404 3.385 3.385 0 0 0-1.34-2.72Zm-2.06 5.122a2.39 2.39 0 0 1-2.406-2.395 2.386 2.386 0 0 1 2.41-2.413 2.38 2.38 0 0 1 2.391 2.403 2.392 2.392 0 0 1-2.395 2.405ZM15.943 6.37c0-.758-.598-1.37-1.343-1.37a1.356 1.356 0 0 0-1.37 1.363 1.35 1.35 0 0 0 1.352 1.347 1.35 1.35 0 0 0 1.36-1.34ZM7.44 14.794a.77.77 0 0 0 0 1.537.77.77 0 0 0 0-1.537Zm1.63-1.637-.591-.342-1.275 2.218.591.341 1.275-2.217Zm1.032 2.204-2.556-.096-.024.683 2.556.096.024-.683Zm6.813-.393a.77.77 0 0 0 0 1.538.77.77 0 0 0 0-1.538Zm1.627-1.637-.591-.342-1.275 2.221.591.342 1.275-2.221Zm1.032 2.204-2.556-.096-.024.684 2.556.095.024-.683Z" fill="#DEBB69"/>
  </g>
  <defs>
    <clipPath id="clip0_448_34">
      <path fill="#fff" d="M0 0h24v24H0z"/>
    </clipPath>
  </defs>
</svg>