<svg width="24" height="24" viewBox="0 0 24 24" fill="none" xmlns="http://www.w3.org/2000/svg">
<circle cx="12" cy="12" r="12" fill="white"/>
<circle cx="12" cy="12" r="11" fill="#503F32"/>
<path d="M11.784 20.568C16.6353 20.568 20.568 16.6353 20.568 11.784C20.568 6.93273 16.6353 3 11.784 3C6.93273 3 3 6.93273 3 11.784C3 16.6353 6.93273 20.568 11.784 20.568Z" fill="#DEBB69"/>
<path d="M11.748 19.14C15.8172 19.14 19.116 15.8412 19.116 11.772C19.116 7.70277 15.8172 4.404 11.748 4.404C7.67877 4.404 4.38 7.70277 4.38 11.772C4.38 15.8412 7.67877 19.14 11.748 19.14Z" fill="#503F32"/>
<path d="M14.016 10.296C13.32 9.408 12.504 9.036 11.592 9.144C10.68 9.252 9.948 9.804 9.528 10.584C9.072 11.46 9.156 12.288 9.72 13.08C10.128 13.644 10.728 14.064 11.412 14.172C12.312 14.316 13.212 13.956 14.124 12.972C14.184 12.912 14.256 12.876 14.34 12.876H15.528C15.228 13.968 14.484 14.688 13.464 15.18L13.5 16.884L12.108 16.788L12.144 15.516L11.532 15.492L11.484 16.8L10.08 16.74L10.176 15.192C9.276 14.832 8.664 14.184 8.268 13.332C7.812 12.336 7.74 11.196 8.136 10.176C8.496 9.264 9.156 8.58 10.164 8.16L10.14 6.528L11.508 6.456L11.544 7.824L12.156 7.788L12.132 6.42L13.452 6.36L13.488 8.064C14.496 8.628 15.252 9.336 15.516 10.32L14.244 10.392C14.148 10.392 14.064 10.356 14.004 10.284L14.016 10.296Z" fill="#DEBB69"/>
</svg>
