<svg xmlns="http://www.w3.org/2000/svg" width="24" height="24" fill="none"><path fill="#503F32" d="M12 23.8A11.8 11.8 0 1 0 12 .2a11.8 11.8 0 0 0 0 23.6Z"/><mask id="a" width="24" height="24" x="0" y="0" mask-type="alpha" maskUnits="userSpaceOnUse"><path fill="#fff" d="M12 23.8A11.8 11.8 0 1 0 12 .2a11.8 11.8 0 0 0 0 23.6Z"/></mask><g mask="url(#a)"><path fill="url(#b)" d="m5.05 12.14-.6 1.14 1.22 2.66.57 1.2.47.65.56.44 1.06.45.88-.17 1.5.17.6-.4-.41-1.32 1.13-.07 1.1-.53 1.5.42 1.5-.61 1.9-.04.77-1.12.95-2.34-6.15-2.93-8.55 2.4Z"/><path fill="#DEBB69" d="M9.1 17.67 9 18.5l1.92.02-.4-.8-1.13-.14-.3.08Z"/><mask id="c" width="17" height="14" x="4" y="5" mask-type="alpha" maskUnits="userSpaceOnUse"><path fill="#fff" d="M4.25 5.5h15.8v13.38H4.25V5.5Z"/></mask><g mask="url(#c)"><path fill="url(#d)" d="m19.3 13.58-.03.1c-.5 1.3-.32 1.2-1.74 1.4l.64.2-.72.12v.07l.96-.05.04.06c-.19.12-.36.27-.57.35a3.88 3.88 0 0 1-.78.18c-.51.08-.58 0-.5-.53l.11-1.04.12-.97c-.12-.14-.23-.23-.28-.34-.26-.57-.5-1.15-.74-1.72-.12-.28-.8-.7-1.09-.65-.06 0-.13.08-.18.13-.28.33-.59.65-.84 1a1.93 1.93 0 0 0-.29.7 51.56 51.56 0 0 0-.47 2.46c-.05.3-.2.42-.47.46a6.68 6.68 0 0 0-1.1.2l.74.17.02.06-1.23.18c.6.18 1.16.12 1.72 0l.05.07c-.1.1-.17.23-.29.31-.65.45-1.61.34-2.15-.25a.57.57 0 0 1-.12-.36c0-.84.03-1.68.06-2.52a2.3 2.3 0 0 0-.13-1.01c-.25-.59-.42-1.2-.63-1.8l-.14-.36c-.79.17-1.45.53-2.08.99a4.24 4.24 0 0 1 2.38-1.25 9.56 9.56 0 0 1 5.08.51c.53.19 1.06.4 1.63.55-.61-.36-1.21-.75-1.84-1.08-1.3-.68-2.74-.88-4.16-1.12-.45-.08-.91-.11-1.36-.2-.75-.17-1.4.08-2.01.44-.28.15-.54.33-.8.5C7 8.7 8.01 8.12 9.32 8.4c1.2.25 2.4.45 3.59.7 1.02.22 1.93.69 2.77 1.31l3.45 2.61c.2.15.29.33.16.57Zm-3.03 1.07c-.16.59-.48.88-1.1.94-.34.04-.68.05-1.03.08l-.02.09c.29.05.58.17.86.15.29-.01.57-.15.88-.25-.1.4-.3.68-.7.76a4.12 4.12 0 0 1-.94.08.86.86 0 0 1-.81-.8c-.02-.79.03-1.57.06-2.35 0-.05.07-.11.12-.14l2.28-1.26.06.07-.71.5c.75.88 1.32 1.4 1.46 1.34-.1-.02-.1-.02-.17-.06-.08-.04-.01.23-.08.19l-.16.66Zm-6.36-1.9c.05.68-.1 1.4-.15 2.1-.01.22-.08.3-.33.35-.64.1-1.28.17-1.93 0 .61.57 1.39.4 2.14.46-.03.1-.05.18-.09.24-.33.5-1.42.63-1.85.2-.66-.65-1.12-1.38-.96-2.38.08-.58.1-1.16.16-1.74.01-.13.1-.24.15-.36l.12.04a.46.46 0 0 1 .22-.06l.06.01c.52-.08.99 0 1.45.17.2.08.96.4 1 .97Zm1.14 5.49c-.04-.04-.12-.08-.13-.12-.06-.48-.4-.57-.8-.6a6.77 6.77 0 0 1-.86-.11c-.25-.05-.36.05-.38.29a36.3 36.3 0 0 1-.05.57c-.02.19-.14.3-.32.24-.41-.14-.88-.25-1.2-.51-.23-.18-.25-.6-.35-.88l-.23.5c-.33-.5-.12-.94-.08-1.37l-.08-.02-.33.91v-1.42c-.31.24-.5.08-.6-.13-.32-.71-.6-1.43-.9-2.15l-.08-.29c.58-.3 1.2-.53 1.89-.47 0 .29 0 .29-.83.3l.51.57-.07.07-.47.19c.12.12.24.24.35.38.08.1.17.22.22.34.21.55.4 1.1.63 1.65.18.43.56.68 1.01.74.49.06.98.11 1.47.1.59-.03 1.12.07 1.55.47.15.13.18.38.25.59.01.03-.08.1-.12.16Zm-.4.28-1.21-.1c-.31-.03-.21-.26-.21-.43 0-.2.05-.34.28-.32.18.01.36 0 .54.02.53.05.63.17.6.82Zm-4.07-6.58-1.25-1.32c.73.25 1.25.83 1.25 1.32Zm12.46-1.69c-.85-.48-1.68-1.01-2.55-1.44-.88-.42-1.82-.74-2.68-1.1 1.94.35 3.73 1.15 5.22 2.54Zm-1.81-2.73c-.1-.02-.25-.07-.3-.16-.47-.78-1.19-1.07-2.06-1.07-.16 0-.32-.02-.47.01-.24.04-.4-.06-.6-.18-.4-.25-.85-.42-1.28-.62h-.6c-.46.2-.92.4-1.39.57-.1.04-.23 0-.34-.02-1.01-.26-2.06-.38-2.85.41-.7.71-1.27 1.57-1.8 2.42-.22.34-.18.84-.29 1.26-.16.65-.32 1.3-.51 1.94-.14.46-.33.9-.49 1.36v.2l1.74 3.38c.07.13.17.23.25.35.2.28.27.7.75.65.25.6.87.64 1.36.86h.14c.33-.14.66-.26 1.04-.14.29.08.6.1.9.14h.41c.02-.03.04-.08.07-.1.16-.1.42-.16.46-.3.11-.36.18-.76-.1-1.12l-.1-.15c.25-.02.48-.03.7-.08.27-.05.57-.09.8-.23.24-.15.42-.14.66-.03.97.43 1.84.1 2.67-.4a.96.96 0 0 1 .75-.12c.34.06.69.05 1.03.02.37-.02.63-.21.83-.54.68-1.1 1.04-2.32 1.38-3.55l.06-.26v-.74a5.06 5.06 0 0 1-.68-1.86c-.16-.89-1.2-1.74-2.14-1.9Z"/></g><path fill="#DEBB69" d="m7.13 7.72-1.62 2.35-.77 2.01 1.84.34.4-1.14h1.83l1.35 1.53.12-.28 1.18-.72s.16-.08.44-.05c.29.03.83-.1.83-.1l.5 1.37.03.3 1.96-.82 1.46 1.11.15-.15v-.33l1.26-.92 1.55.23-.4-2.95-4.37-2.28-7.74.5Z"/><path fill="url(#e)" d="m10.29 12.53.16-.31c.36-.65.74-1.3 1.09-1.96.09-.17.18-.21.34-.18l.1.02c.66-.04.97.24 1.1.94.13.66.29 1.3.14 2-.28-.57-.62-1.07-1.32-1.28l.94-.64c-.95.3-1.68.95-2.55 1.41Z"/><path fill="url(#f)" d="m10.28 11.99.53-1.94h.7l-1.3 2.23-.73-2.13 1.19-.15-.53 1.97.14.02Z"/><path fill="url(#g)" d="m15.88 11.14 2.14 1.1-1.2.9-1-1.93.06-.07Z"/><path fill="url(#h)" d="M13.53 11.7v-.83h-.04l-.07.45-.06.01-.43-1.1 1.7.46-1.1 1Z"/><mask id="i" width="17" height="9" x="4" y="5" mask-type="alpha" maskUnits="userSpaceOnUse"><path fill="#fff" d="M4.25 5.5h15.8v8.13H4.25V5.5Z"/></mask><g mask="url(#i)"><path fill="url(#j)" d="M5.32 10.62c.73.25 1.26.83 1.26 1.32l-1.26-1.32Zm13.71-.37c-.84-.48-1.67-1.01-2.55-1.44-.88-.42-1.8-.74-2.67-1.1 1.94.35 3.73 1.14 5.22 2.54ZM10.29 8.8c-.45-.08-.91-.11-1.36-.2-.75-.17-1.39.08-2.01.44-.28.15-.54.33-.8.5C7 8.7 8.01 8.12 9.32 8.4c1.2.25 2.4.45 3.59.7a7 7 0 0 1 2.77 1.31l3.37 2.55c.23.12.41.32.57.56.13-.4.24-.82.36-1.23l.06-.26v-.74a5.04 5.04 0 0 1-.68-1.86c-.16-.88-1.2-1.74-2.14-1.9-.1-.02-.25-.07-.3-.16-.47-.78-1.19-1.07-2.06-1.07-.16 0-.32-.02-.47.01-.24.04-.4-.06-.6-.18-.4-.25-.85-.42-1.28-.62h-.6c-.46.2-.92.4-1.39.57-.1.04-.23.01-.34-.02-1.01-.26-2.06-.38-2.85.42-.7.7-1.27 1.56-1.8 2.4-.22.35-.18.85-.29 1.28a38.08 38.08 0 0 1-.51 1.93c-.14.46-.33.9-.49 1.36v.19a.65.65 0 0 1 .42-.48 3.46 3.46 0 0 1 1.67-.47.75.75 0 0 1 .5.01l.06-.71c.01-.13.04-.1.14-.22a.61.61 0 0 1 .22-.1l.2-.05c.6-.03.92-.03 1.44.17a.47.47 0 0 1 .2.13l.12.08.39.32c0-.02 0 .02 0 0 .15.08.18.1.32.3l.22.2a1.68 1.68 0 0 0-.1-.45c-.26-.59-.43-1.2-.64-1.8l-.14-.36a5.5 5.5 0 0 0-2.08.98 4.24 4.24 0 0 1 2.37-1.24 9.56 9.56 0 0 1 5.09.51c.53.19 1.06.4 1.63.55-.61-.36-1.21-.75-1.84-1.08-1.3-.68-2.74-.88-4.16-1.12"/></g><path fill="#DEBB69" d="M6.83 11.88V9.74c-.17.38-.2 1.1-.12 2.14.08 1.05.12 1.05.12 0Z"/><path fill="url(#k)" d="m13.6 13.21 2.27-1.26.06.07-.71.5c.75.88 1.32 1.4 1.46 1.34v.03l.1.01.05-.43c-.12-.14-.23-.23-.28-.34-.26-.57-.5-1.15-.74-1.73-.12-.27-.8-.7-1.09-.64-.06 0-.13.08-.18.13-.28.33-.59.65-.84 1a1.94 1.94 0 0 0-.29.7l-.15.74a.67.67 0 0 1 .3-.1l.03-.02Z"/></g><mask id="l" width="24" height="24" x="0" y="0" mask-type="alpha" maskUnits="userSpaceOnUse"><path fill="#fff" d="M12 23.8A11.8 11.8 0 1 0 12 .2a11.8 11.8 0 0 0 0 23.6Z"/></mask><g mask="url(#l)"><path stroke="#fff" d="M12 23.5a11.5 11.5 0 1 0 0-23 11.5 11.5 0 0 0 0 23Z"/></g><defs><linearGradient id="b" x1="12.1" x2="12.1" y1="9.74" y2="15.55" gradientUnits="userSpaceOnUse"><stop stop-color="#fff"/><stop offset="1" stop-color="#fff"/></linearGradient><linearGradient id="e" x1="10.96" x2="13.12" y1="11.72" y2="11.9" gradientUnits="userSpaceOnUse"><stop offset="0" stop-color="#DEBB69"/><stop offset="1" stop-color="#BD9332"/></linearGradient><linearGradient id="f" x1="10.04" x2="11.21" y1="11.27" y2="11.38" gradientUnits="userSpaceOnUse"><stop offset="0" stop-color="#DEBB69"/><stop offset="1" stop-color="#BB9845"/></linearGradient><linearGradient id="g" x1="16.31" x2="17.91" y1="12.24" y2="12.36" gradientUnits="userSpaceOnUse"><stop offset="0" stop-color="#DEBB69"/><stop offset="1" stop-color="#E9C36A"/></linearGradient><linearGradient id="h" x1="13.31" x2="14.54" y1="11.02" y2="11.11" gradientUnits="userSpaceOnUse"><stop offset="0" stop-color="#DEBB69"/><stop offset="1" stop-color="#DEBB69"/></linearGradient><linearGradient id="j" x1="4.8" x2="16.04" y1="9.93" y2="6.83" gradientUnits="userSpaceOnUse"><stop offset="0" stop-color="#DEBB69"/><stop offset="1" stop-color="#CAA652"/></linearGradient><linearGradient id="k" x1="14.06" x2="16.64" y1="12.47" y2="12.66" gradientUnits="userSpaceOnUse"><stop offset="0" stop-color="#DEBB69"/><stop offset="1" stop-color="#CEA441"/></linearGradient><radialGradient id="d" cx="0" cy="0" r="1" gradientTransform="matrix(-4.66 14.006 -10.442 -3.475 1.8 12.21)" gradientUnits="userSpaceOnUse"><stop stop-color="#ECECEC"/><stop offset=".24" stop-color="#656565"/><stop offset=".6" stop-color="#545351"/><stop offset="1" stop-color="#5F5F5F"/></radialGradient></defs></svg>