<?xml version="1.0" encoding="UTF-8"?>
<svg width="24px" height="24px" viewBox="0 0 24 24" version="1.1" xmlns="http://www.w3.org/2000/svg" xmlns:xlink="http://www.w3.org/1999/xlink">
    <!-- Generator: Sketch 55.1 (78136) - https://sketchapp.com -->
    <title>Flags/jordan</title>
    <desc>Created with Sketch.</desc>
    <g id="Icons" stroke="none" stroke-width="1" fill="none" fill-rule="evenodd">
        <g id="Flags/jordan">
            <g id="jordan">
                <g id="Group" transform="translate(0.500000, 0.500000)" fill-rule="nonzero">
                    <circle id="Oval" fill="#EEEEEE" cx="11.4552529" cy="11.4564433" r="11.4552529"></circle>
                    <path d="M6.97159533,7.47395306 L22.1990272,7.47395306 C20.8424788,3.814342 17.7159895,1.09723108 13.9029844,0.26418318 C10.0899793,-0.568864716 6.11520027,0.596793614 3.35603113,3.35722154 L6.97159533,7.47395306 L6.97159533,7.47395306 Z" id="Path" fill="#464655"></path>
                    <path d="M6.97159533,15.4389336 L22.1990272,15.4389336 C20.8424788,19.0985447 17.7159895,21.8156556 13.9029844,22.6487035 C10.0899793,23.4817514 6.11520027,22.316093 3.35603113,19.5556651 L6.97159533,15.4389336 Z" id="Path" fill="#73AF00"></path>
                    <path d="M3.35603113,3.35722154 C-1.11636989,7.83057807 -1.11636989,15.0823086 3.35603113,19.5556651 L11.4552529,11.4564433 L3.35603113,3.35722154 Z" id="Path" fill="#FF4B55"></path>
                    <polygon id="Path" fill="#EEEEEE" points="4.5463035 8.96403088 5.17276265 10.2795951 6.59571984 9.95294138 5.96031128 11.2640309 7.10136187 12.1679219 5.67840467 12.4901009 5.68287938 13.9488558 4.5463035 13.0360153 3.40972763 13.9488558 3.40972763 12.4856262 1.99124514 12.1634472 3.13229572 11.2640309 2.49688716 9.95294138 3.91984436 10.2795951"></polygon>
                </g>
                <circle id="Oval" stroke="#FFFFFF" cx="12" cy="12" r="11.5"></circle>
            </g>
        </g>
    </g>
</svg>