<?xml version="1.0" encoding="UTF-8"?>
<svg width="24px" height="24px" viewBox="0 0 24 24" version="1.1" xmlns="http://www.w3.org/2000/svg" xmlns:xlink="http://www.w3.org/1999/xlink">
    <!-- Generator: Sketch 55.1 (78136) - https://sketchapp.com -->
    <title>Flags/lebanon</title>
    <desc>Created with Sketch.</desc>
    <g id="Icons" stroke="none" stroke-width="1" fill="none" fill-rule="evenodd">
        <g id="Flags/lebanon">
            <g id="lebanon">
                <g id="Group" transform="translate(2.000000, 0.000000)" fill="#FF4B55" fill-rule="nonzero">
                    <path d="M19.7855702,5.05265625 L0.214429806,5.05265625 C2.38934331,1.9947419 5.96172319,0 10,0 C14.0382768,0 17.6106567,1.9947419 19.7855702,5.05265625 Z" id="Combined-Shape"></path>
                    <path d="M0.214429806,18.9473438 L19.7855702,18.9473438 C17.6106567,22.0052581 14.0382768,24 10,24 C5.96172319,24 2.38934331,22.0052581 0.214429806,18.9473438 Z" id="Combined-Shape"></path>
                </g>
                <path d="M2.21442981,5.05265625 L21.7855702,5.05265625 C23.1800154,7.01323728 24,9.41085982 24,12 C24,14.5891402 23.1800154,16.9867627 21.7855702,18.9473438 L2.21442981,18.9473437 C0.81998455,16.9867627 0,14.5891402 0,12 C0,9.41085982 0.81998455,7.01323728 2.21442981,5.05265625 Z" id="Combined-Shape" fill="#F5F5F5" fill-rule="nonzero"></path>
                <path d="M13.3495313,16.2483281 L19.1863594,15.0809531 C19.6075781,14.9967187 19.7956406,14.5009219 19.5362812,14.1585 L19.5362812,14.1585 C19.4452031,14.0382656 19.3109531,13.9580625 19.1618906,13.9348125 L12.9437344,12.9652969 C12.7718906,12.9384844 12.6501094,12.7771406 12.6790313,12.5986406 C12.7070156,12.4259062 12.8820469,12.3158906 13.0555313,12.3387187 L17.3668594,12.906 C17.71725,12.952125 17.9321719,12.5333906 17.6904844,12.2755781 L17.3444062,11.9063906 C17.2148437,11.7681562 17.0449219,11.6743594 16.8589219,11.6383594 L13.257375,10.9409062 L16.3282031,11.1621094 C16.5636094,11.1790781 16.6999687,10.9008281 16.5423281,10.7251406 L16.3848281,10.5496406 C16.2896719,10.4436094 16.1631094,10.3706719 16.0236562,10.3415156 L12.9748594,9.70439062 L15.1416094,9.64167187 C15.3331875,9.63614062 15.4306406,9.40898437 15.302625,9.26634375 L15.2054531,9.15810937 C15.129375,9.0733125 15.0309375,9.01167187 14.9213906,8.98021875 L12.9889687,8.42540625 L14.507625,8.42540625 C14.6578594,8.42540625 14.7589219,8.27146875 14.6991562,8.13365625 L14.6479687,8.01548437 C14.5865156,7.8736875 14.4680625,7.76442187 14.3217187,7.71464062 L12.9172969,7.23689062 L13.608,7.23464062 C13.8132656,7.23398437 13.9509375,7.0235625 13.8693281,6.83521875 L13.8693281,6.83521875 C13.8035625,6.68348437 13.6875,6.55907812 13.5407344,6.483 L12,5.68420312 L10.4593594,6.48295312 C10.3125469,6.55907812 10.1964844,6.68348437 10.1307656,6.83517187 L10.1307656,6.83517187 C10.0491563,7.02351562 10.1867813,7.2339375 10.3920938,7.23459375 L11.0827969,7.23684375 L9.678375,7.71459375 C9.53207813,7.764375 9.41357813,7.87364062 9.352125,8.0154375 L9.3009375,8.13360937 C9.24121875,8.27146875 9.34223438,8.42535937 9.49246875,8.42535937 L11.011125,8.42535937 L9.07870313,8.98017187 C8.96920312,9.011625 8.87076563,9.07326562 8.79464063,9.1580625 L8.69746875,9.26629687 C8.56945313,9.4089375 8.66690625,9.63609375 8.85848438,9.641625 L11.0252344,9.70434375 L7.9764375,10.3414687 C7.8369375,10.370625 7.71042188,10.4435156 7.61526563,10.5495937 L7.45776563,10.7250937 C7.300125,10.9007344 7.43648438,11.1789844 7.67189063,11.1620625 L10.7427187,10.9408594 L7.14117188,11.6383125 C6.95517188,11.6743125 6.78529688,11.7681562 6.6556875,11.9063437 L6.30960938,12.2755312 C6.067875,12.5333906 6.28279688,12.9520781 6.63323438,12.9059531 L10.9445625,12.3386719 C11.1180469,12.3158437 11.2930781,12.4258594 11.3210625,12.5985937 C11.3499844,12.7770937 11.2282031,12.9384375 11.0563594,12.96525 L4.83825,13.9347656 C4.6891875,13.9580156 4.55498438,14.0382187 4.46385938,14.1584531 L4.46385938,14.1584531 C4.20445313,14.500875 4.39251563,14.9966719 4.81378125,15.0809062 L10.6506094,16.2482812 L10.6506094,16.9767187 C10.6506094,17.3744062 10.4926406,17.7557812 10.2114375,18.0369844 L9.301125,18.9472969 L12,18.9472969 L14.6990156,18.9472969 L13.7887031,18.0369844 C13.5075,17.7557812 13.3495312,17.3744062 13.3495312,16.9767187 L13.3495312,16.2483281 L13.3495313,16.2483281 Z" id="Shape" fill="#73AF00" fill-rule="nonzero"></path>
                <circle id="Oval" stroke="#FFFFFF" cx="12" cy="12" r="11.5"></circle>
            </g>
        </g>
    </g>
</svg>