<svg width="24" height="24" viewBox="0 0 24 24" fill="none" xmlns="http://www.w3.org/2000/svg">
<path fill-rule="evenodd" clip-rule="evenodd" d="M24 12C24 5.37258 18.6274 0 12 0C5.37258 0 0 5.37258 0 12C0 18.6274 5.37258 24 12 24C18.6274 24 24 18.6274 24 12ZM1 12C1 5.92487 5.92487 1 12 1C18.0751 1 23 5.92487 23 12C23 18.0751 18.0751 23 12 23C5.92487 23 1 18.0751 1 12Z" fill="white"/>
<path d="M12 1C5.92487 1 1 5.92487 1 12C1 18.0751 5.92487 23 12 23C18.0751 23 23 18.0751 23 12C23 5.92487 18.0751 1 12 1Z" fill="#503F32"/>
<path fill-rule="evenodd" clip-rule="evenodd" d="M4 12.4401V10.2003C4 9.67014 4.42958 9.24056 4.95973 9.24056H11.68L11.0399 10.8403H9.01414L8.42653 11.6607L10.4997 13.4006L12.1843 9.09402C12.3761 8.60338 12.8495 8.28012 13.376 8.28012H18.0791L20 7L18.4002 10.2003H14.2402L13.9205 11.16H17.4405L16.8004 12.7605H13.6016L11.8129 17.2402L5.43959 11.3849C5.37709 11.3288 5.31603 11.3008 5.25641 11.3008C5.19679 11.3008 5.13716 11.3288 5.07826 11.3849L4 12.4401Z" fill="#DEBB69"/>
</svg>
