<svg fill="none" xmlns="http://www.w3.org/2000/svg" viewBox="0 0 24 24">
  <g id="classifier/winter sports" clip-path="url(#clip0_448_206)">
    <path id="Vector" d="M12.02 24c6.627 0 12-5.373 12-12s-5.373-12-12-12c-6.628 0-12 5.373-12 12s5.372 12 12 12Z" fill="#503F32"/>
    <path id="Vector_2" d="M12.02 1c6.07 0 11 4.93 11 11s-4.93 11-11 11-11-4.93-11-11 4.94-11 11-11Zm0-1c-6.63 0-12 5.37-12 12s5.37 12 12 12 12-5.37 12-12-5.37-12-12-12Z" fill="#fff"/>
    <g id="Frame" clip-path="url(#clip1_448_206)">
      <g id="Group">
        <path id="Vector_3" d="M10.283 11.974c-.77-.457-1.487-.874-2.192-1.278-.834.221-1.708.456-2.595.704L5 9.56c.587-.156 1.148-.325 1.709-.456.26-.065.3-.156.234-.404-.156-.548-.3-1.109-.456-1.709l1.84-.495c.182.691.377 1.343.534 2.008.065.261.17.47.417.6.652.353 1.292.744 2.009 1.161v-.417l.04-2.126c0-.065-.066-.144-.118-.209-.548-.587-1.096-1.16-1.644-1.722.392-.391.822-.821 1.279-1.291.313.3.639.626.965.952.508.509.508.509.991 0 .313-.313.626-.626.94-.952.43.47.86.926 1.356 1.448-.496.47-1.07 1.004-1.63 1.565a.807.807 0 0 0-.196.444c-.013.73-.013 1.473-.013 2.282.352-.196.652-.352.939-.522.234-.13.47-.26.704-.404.378-.248.613-.483.704-.913.118-.574.3-1.148.47-1.76.652.169 1.265.338 1.917.508-.13.509-.247.991-.378 1.474-.117.443-.091.482.365.6.47.117.94.26 1.435.391-.17.64-.34 1.252-.509 1.904-.534-.143-.978-.234-1.578-.417-.782-.248-1.304-.104-2.035.287-.326.17-.626.378-.978.574.091.065.143.13.209.17.6.352 1.2.704 1.8 1.03.104.065.274.065.391.039a84 84 0 0 0 1.722-.457c.143-.039.287-.065.456-.117.17.652.34 1.278.509 1.904-.574.157-1.096.314-1.63.444-.235.052-.3.143-.222.378.156.535.287 1.083.43 1.644-.652.17-1.265.326-1.917.508-.209-.756-.418-1.474-.587-2.204a.913.913 0 0 0-.47-.6c-.456-.235-.913-.47-1.33-.756-.117-.079-.222-.118-.43-.222 0 .535-.027.913-.014 1.474.027.808.235 1.33.822 1.8.378.3.705.678 1.03 1.004-.482.483-.939.952-1.447 1.46-.43-.443-.874-.912-1.357-1.42-.456.495-.9.964-1.37 1.46L9.488 18c.496-.483 1.043-1.004 1.552-1.526a.903.903 0 0 0 .222-.509c.026-.626.013-1.252.013-1.878 0-.091-.013-.183-.013-.34-.235.118-.235.118-.548.314-.365.222-.678.365-1.096.639-.39.248-.639.378-.73.757-.17.73-.378 1.434-.587 2.19-.613-.156-1.2-.312-1.826-.482l.522-2.008c-.653-.183-1.279-.366-1.957-.561.13-.561.248-1.096.391-1.63.027-.105.144-.17.248-.144.679.156 1.344.352 2.009.522.091.026.209.026.274-.014.77-.456 1.513-.886 2.322-1.356Z" fill="#DEBB69"/>
      </g>
    </g>
  </g>
  <defs>
    <clipPath id="clip0_448_206">
      <path fill="#fff" d="M0 0h24v24H0z"/>
    </clipPath>
    <clipPath id="clip1_448_206">
      <path fill="#fff" transform="translate(5 4.5)" d="M0 0h14.426v15H0z"/>
    </clipPath>
  </defs>
</svg>