<svg width="24" height="24" viewBox="0 0 24 24" fill="none" xmlns="http://www.w3.org/2000/svg">
<path fill-rule="evenodd" clip-rule="evenodd" d="M24 12C24 5.37258 18.6274 0 12 0C5.37258 0 0 5.37258 0 12C0 18.6274 5.37258 24 12 24C18.6274 24 24 18.6274 24 12ZM1 12C1 5.92487 5.92487 1 12 1C18.0751 1 23 5.92487 23 12C23 18.0751 18.0751 23 12 23C5.92487 23 1 18.0751 1 12Z" fill="white"/>
<path d="M12 1C5.92487 1 1 5.92487 1 12C1 18.0751 5.92487 23 12 23C18.0751 23 23 18.0751 23 12C23 5.92487 18.0751 1 12 1Z" fill="#503F32"/>
<path fill-rule="evenodd" clip-rule="evenodd" d="M8.62114 12.1318C8.62114 12.1318 8.72671 11.8642 8.84087 11.8022C8.95504 11.7402 9.54242 11.4892 9.54242 11.4892L9.79591 12.0305C9.79591 12.0305 10.905 10.0891 13.1607 10.6692C13.3386 10.5759 13.4313 10.5341 13.4313 10.5341L14.2685 10.9147L14.5981 10.7539L13.8628 10.323L15.0971 9.70615C15.0971 9.70615 14.6558 9.352 14.2096 9.30044C14.4852 9.25134 14.9032 9.28878 15.1567 9.53736C15.2598 9.35875 14.3409 8.44729 12.7727 8.86957C12.8225 8.79837 13.5344 8.53874 14.379 8.5903C14.2538 8.51235 13.0919 8.56821 12.5868 8.70876C12.5908 8.67804 12.591 8.65353 12.5911 8.63352C12.5915 8.57518 12.5916 8.55514 12.688 8.53138C11.6043 8.47899 11.0554 8.72166 10.4106 9.00674C10.0734 9.15583 9.70991 9.31651 9.23001 9.45266C9.67132 9.23047 13.4988 7 13.4988 7C13.4988 7 11.0689 7.80651 10.5146 7.79484C10.0107 7.95381 8.62912 8.5725 8.62912 8.5725L9.71121 7.55793C9.71121 7.55793 6.77796 9.19978 5.71305 10.7281C6.68483 10.9647 7.27313 10.7319 7.91806 10.4767C8.68373 10.1738 9.52923 9.83931 11.191 10.2211C11.1654 10.2288 11.1249 10.2393 11.0714 10.2531C10.3858 10.43 7.58023 11.1539 7.00629 13.5607L8.28295 12.9352L8.62114 12.1318ZM8.09698 16.4602C8.09698 16.4602 8.93847 16.0557 9.10296 15.9532C9.55777 17.1476 13.8904 17.5527 13.9217 13.6791C14.4011 13.4367 15.3844 12.9518 15.3844 12.9518C15.3844 12.9518 16.1571 12.8868 16.9992 12.8505C17.2857 12.8234 17.6431 12.6649 17.9371 12.4151C17.8173 12.5178 17.6516 12.6454 17.4608 12.7922C16.8975 13.2258 16.1152 13.828 15.6465 14.4568C15.4553 14.7521 15.3256 15.0037 15.2111 15.2257C15.008 15.6195 14.8529 15.9201 14.4883 16.2067C14.7117 16.2098 15.5047 16.0968 15.7735 15.987L15.7492 15.9989C15.1103 16.3129 10.5426 18.5578 8.09698 16.4602ZM9.81556 12.4043L9.46764 11.6809C9.45413 11.6861 9.17941 11.7915 8.99985 11.8777C8.8151 11.9667 8.79607 12.079 8.79607 12.079C8.79607 12.079 8.64263 12.5124 8.53951 12.7744C8.49286 13.1519 8.26822 13.1863 8.26822 13.1863L5.57128 14.4832L6.13104 15.1989L5.99662 15.5825L4.11478 16.4872L4 16.8143L6.68958 15.5211L7.28311 15.5266L7.39665 15.7629L5.75848 16.5504L5.62836 16.9039L6.50299 17.0648L9.48228 15.6322C9.63818 15.5573 9.81924 15.6107 9.81924 15.6107C9.81924 15.6107 10.43 15.8317 10.6012 15.9102C10.7724 15.9894 10.9412 15.9158 10.9412 15.9158L11.3758 15.669L11.013 14.9147C11.013 14.9147 17.4264 11.8231 17.5117 11.7893C17.5971 11.7549 17.7714 11.6267 17.7714 11.6267C17.7714 11.6267 19.4378 10.2739 20 9.80436C18.4005 8.67746 16.2296 9.35691 16.2296 9.35691L14.1114 10.3752L14.8805 10.7649L14.271 11.0583L13.4375 10.69L13.2239 10.7925L13.9696 11.2124L13.4461 11.464L12.5954 11.1037L12.2983 11.2467L13.071 11.6445L12.4542 11.9415L11.6514 11.5395L11.377 11.6715L12.1645 12.0809L11.6238 12.3411L10.6871 12.0127L10.4662 12.1189L11.2199 12.5351L10.6104 12.8284L9.81556 12.4043Z" fill="#DEBB69"/>
</svg>
