<svg width="24" height="24" viewBox="0 0 24 24" fill="none" xmlns="http://www.w3.org/2000/svg">
<path d="M12 24C18.6274 24 24 18.6274 24 12C24 5.37258 18.6274 0 12 0C5.37258 0 0 5.37258 0 12C0 18.6274 5.37258 24 12 24Z" fill="white"/>
<path d="M12 0C18.6274 0 24 5.37258 24 12C24 18.6274 18.6274 24 12 24C5.37258 24 0 18.6274 0 12C0 5.37258 5.37258 0 12 0ZM12 1C5.92487 1 1 5.92487 1 12C1 18.0751 5.92487 23 12 23C18.0751 23 23 18.0751 23 12C23 5.92487 18.0751 1 12 1Z" fill="white"/>
<path d="M12 1C5.92487 1 1 5.92487 1 12C1 18.0751 5.92487 23 12 23C18.0751 23 23 18.0751 23 12C23 5.92487 18.0751 1 12 1Z" fill="#503F32"/>
<path fill-rule="evenodd" clip-rule="evenodd" d="M12.0001 5.5C12.3331 5.5 12.634 5.68683 12.7849 5.98817L17.9038 16.2035C18.0435 16.4822 18.0301 16.8084 17.8696 17.0744C17.7083 17.341 17.4274 17.5 17.1198 17.5H6.88049C6.57208 17.5 6.29191 17.3403 6.13064 17.0744C5.96938 16.8077 5.95674 16.4822 6.09646 16.2035L11.2154 5.98817C11.367 5.68683 11.6672 5.5 12.0001 5.5ZM14.9155 13.9668C14.2965 13.9668 13.7919 14.4776 13.7919 15.1051C13.7919 15.7334 14.2965 16.2442 14.9155 16.2442C15.5353 16.2442 16.0392 15.7334 16.0392 15.1051C16.0392 14.4776 15.5353 13.9668 14.9155 13.9668ZM12.009 13.9668C11.3892 13.9668 10.8854 14.4776 10.8854 15.1051C10.8854 15.7334 11.3892 16.2442 12.009 16.2442C12.6281 16.2442 13.1327 15.7334 13.1327 15.1051C13.1327 14.4776 12.6281 13.9668 12.009 13.9668ZM9.14044 13.9668C8.52065 13.9668 8.01679 14.4776 8.01679 15.1051C8.01679 15.7334 8.52065 16.2442 9.14044 16.2442C9.7595 16.2442 10.2634 15.7334 10.2634 15.1051C10.2634 14.4776 9.7595 13.9668 9.14044 13.9668ZM13.4894 11.2209C12.8696 11.2209 12.3658 11.7317 12.3658 12.3592C12.3658 12.9875 12.8696 13.4982 13.4894 13.4982C14.1092 13.4982 14.6131 12.9875 14.6131 12.3592C14.6131 11.7317 14.1092 11.2209 13.4894 11.2209ZM10.519 11.2209C9.89921 11.2209 9.39535 11.7317 9.39535 12.3592C9.39535 12.9875 9.89921 13.4982 10.519 13.4982C11.1381 13.4982 11.6427 12.9875 11.6427 12.3592C11.6427 11.7317 11.1381 11.2209 10.519 11.2209ZM12.0001 8.35668C11.3803 8.35668 10.8765 8.86744 10.8765 9.49573C10.8765 10.1233 11.3803 10.634 12.0001 10.634C12.6192 10.634 13.1238 10.1233 13.1238 9.49573C13.1238 8.86744 12.6192 8.35668 12.0001 8.35668Z" fill="#DEBB69"/>
</svg>
