<svg width="24" height="24" viewBox="0 0 24 24" fill="none" xmlns="http://www.w3.org/2000/svg">
<path d="M12 24C18.6274 24 24 18.6274 24 12C24 5.37258 18.6274 0 12 0C5.37258 0 0 5.37258 0 12C0 18.6274 5.37258 24 12 24Z" fill="white"/>
<path d="M12 0C18.6274 0 24 5.37258 24 12C24 18.6274 18.6274 24 12 24C5.37258 24 0 18.6274 0 12C0 5.37258 5.37258 0 12 0ZM12 1C5.92487 1 1 5.92487 1 12C1 18.0751 5.92487 23 12 23C18.0751 23 23 18.0751 23 12C23 5.92487 18.0751 1 12 1Z" fill="white"/>
<path d="M12 1C5.92487 1 1 5.92487 1 12C1 18.0751 5.92487 23 12 23C18.0751 23 23 18.0751 23 12C23 5.92487 18.0751 1 12 1Z" fill="#503F32"/>
<path fill-rule="evenodd" clip-rule="evenodd" d="M11.9996 6C15.3083 6 18 8.6912 18 12C18 15.3088 15.3083 18 11.9996 18C8.69175 18 6 15.3088 6 12C6 8.6912 8.69175 6 11.9996 6ZM15.7401 15.8395C15.5753 15.9383 15.0692 16.1661 13.8362 16.2937C13.1612 16.9632 12.3719 17.1812 11.9828 17.2464C12.0228 17.3228 12.095 17.402 12.2043 17.4637C13.6035 17.4118 14.8694 16.837 15.8102 15.9236L15.7401 15.8395ZM11.0807 14.1661L9.31702 14.9996C9.31702 14.9996 9.30019 14.9898 9.29459 14.9863C9.34225 15.3684 9.46282 16.0715 9.7376 16.375C9.97944 16.5159 10.7477 16.9057 11.8321 17.0894C12.1041 17.0557 12.9404 16.8938 13.654 16.225C13.6392 16.1767 13.621 16.108 13.5972 16.0063C13.5067 15.62 13.3315 15.0333 13.2789 14.8601L11.0807 14.1661ZM7.71318 13.238C7.31783 13.2499 7.08301 13.2569 6.94351 13.2604V14.0939C7.31082 14.9779 7.90665 15.7434 8.65389 16.3225C8.84386 16.3694 9.13126 16.4003 9.50558 16.3456C9.2343 15.9089 9.13336 15.1623 9.10462 14.8665C8.72329 14.6127 7.94521 14.0126 7.71318 13.238ZM17.3123 12.4171C16.945 13.1847 16.6233 13.6565 16.4235 13.9047C16.4165 14.1535 16.3485 14.9324 15.8599 15.7091L15.9342 15.7981C16.7544 14.9492 17.3032 13.8381 17.4399 12.6029L17.3123 12.4171ZM12.3726 10.244L10.6832 11.7939C10.7148 11.9839 10.979 13.5296 11.1662 14.0091L13.3729 14.7073L14.9977 13.2296L14.5021 10.9821L12.3726 10.244ZM15.5571 9.47143L14.6599 10.8826L15.1793 13.2359L16.3113 13.7624C16.5146 13.503 16.8406 13.0172 17.2065 12.232C17.2177 12.1255 17.25 11.6944 17.1308 11.0536C17.0207 10.4634 16.8518 10.122 16.7747 9.98808C16.359 9.69856 15.8578 9.54294 15.5571 9.47143ZM8.14218 9.33333C7.64589 9.34665 7.28769 9.39642 7.17554 9.41465C6.76126 10.1844 6.52503 11.0648 6.52503 11.9986C6.52503 12.1479 6.53555 12.2951 6.54746 12.4409C6.66102 12.7382 6.83136 12.9863 6.90496 13.0859C7.03744 13.0824 7.27718 13.0761 7.69776 13.0634C7.71318 12.802 7.82184 12.1703 8.40575 11.3467C8.1569 10.5272 8.12816 9.77007 8.14218 9.33333ZM10.1126 7.77147C8.99597 8.18437 8.32163 9.32983 8.32163 9.32983C8.30551 9.75324 8.33285 10.5026 8.57609 11.3011L10.4933 11.7315L12.2443 10.1241L11.9506 8.31265C11.4003 7.96565 10.5893 7.82545 10.1126 7.77147ZM14.1839 6.98072L14.0865 7.71258C14.9802 8.36663 15.3587 8.98423 15.4961 9.27585C15.7751 9.33474 16.3331 9.48686 16.8118 9.80091L16.9254 9.62426C16.3562 8.44865 15.384 7.50508 14.1839 6.98072ZM11.9996 6.52366C11.3421 6.52366 10.7141 6.64634 10.1294 6.86015L10.1603 7.59902C10.6419 7.6544 11.4248 7.7925 11.9954 8.13459C12.7588 7.66351 13.649 7.64038 13.9182 7.64739L14.0157 6.91272C13.3911 6.66456 12.7125 6.52366 11.9996 6.52366Z" fill="#DEBB69"/>
</svg>
