<svg xmlns="http://www.w3.org/2000/svg" width="24" height="24"><g fill="none" fill-rule="evenodd"><path fill="#FFF" fill-rule="nonzero" d="M12 0a12 12 0 1 1 0 24 12 12 0 0 1 0-24Zm0 1a11 11 0 1 0 0 22 11 11 0 0 0 0-22Z"/><path fill="#503F32" fill-rule="nonzero" d="M12 1a11 11 0 1 0 0 22 11 11 0 0 0 0-22Z"/><path fill="#DEBB69" d="M7.11 14.28c.24.32.63.53.97.77.08.05.34.03.35 0 .23-.77.92-.74 1.5-.77 1.17-.05 2.36-.01 3.54-.01.22 0 1.07.24 1.4.43l.03.01a.37.37 0 0 0-.12.05c-.01.01.03.09.04.13.04-.03.08-.06.13-.14.13.05.25.16.4.24.14.07.3.1.46.14-.01.28.04.53-.22.78-.91.88-1.88 1.6-3.23 1.6-.18 0-.36.13-.55.2-.03-.24-.08-.47-.1-.71v-.97c0-.62 0-.62.68-.68.48-.05.84-.37 1.26-.57.02-.01 0-.14-.02-.2-.01-.03-.12-.05-.14-.03-.23.27-.53.14-.8.14-.76.02-1.51 0-2.27.01-.27 0-.55.05-.83.07l.74.38c.15.07.3.16.46.19.2.04.53-.05.6.06.12.17.1.46.1.7v2.91c0 .06-.05.13-.07.19-.05-.03-.14-.06-.13-.1.01-.71-.5-1.1-.93-1.55-.06-.06-.09-.13-.01-.24l.03-.04-.17-.08h-.16a3.04 3.04 0 0 1-1.93-.84c-.4-.33-1.02-.6-.94-1.32-.52-.08-.58-.61-.9-.9-.04-.04-1-.14-1.1-.13-.83.06-1.66.2-2.45-.2-.05-.02-.06-.12-.08-.18.9 0 1.79.03 2.68-.01.71-.04 1.31.05 1.78.67Zm3.46 2.86-.1.04a1 1 0 0 0-.07.07l-.02.02.03.02c.14.07.28.16.43.2.06.02.2-.07.21-.13.02-.08-.02-.22-.09-.26-.06-.05-.16-.03-.39.04Zm2.44-.71a3.6 3.6 0 0 0-.66.22c-.09.04-.14.18-.2.27.1.05.25.17.33.14.22-.11.43-.26.63-.49l.1-.12h-.04c-.08-.02-.12-.03-.16-.02Zm-4.43-.86c-.1 0-.19.04-.29.06.05.08.09.18.16.23l.48.3c.4.25.8.48 1.28.62.25.07.45.15.65-.05.07-.07.12-.15.17-.23-.1-.02-.2-.08-.29-.07-.1.01-.2.08-.3.13.04-.12.05-.26.12-.34.05-.07.18-.07.27-.1-.08-.04-.15-.1-.24-.12-.12-.05-.26-.06-.38-.1-.46-.17-.12.22-.23.3-.44-.07-.88-.15-1.08-.64h-.32Zm5.7-.32c-.2.19-.42.35-.63.53l-.05-.38c-.12.08-.29.14-.35.26-.08.14-.07.33.19.33v.22l.21-.22h.43c-.05.12-.11.23-.17.4l-.01.04h.09c.38 0 .52-.38.78-.59.07-.06.27-.15.05-.27-.08-.04-.2 0-.3 0 .07-.12.22-.28.19-.33-.12-.18-.28-.13-.43.01Zm-1.83.57c-.14.06-.22.24-.3.39-.02.04.06.13.07.16.17-.07.28-.13.4-.16.16-.03.38.07.38-.21 0-.06-.03-.17-.06-.17-.17-.03-.36-.08-.5-.01Zm-3.7-.86c-.02.09-.08.2-.05.28.04.11.13.21.2.32.11 0 .22 0 .41.05l.05.02.02-.02-.04-.05-.44-.54c-.03-.03-.1-.04-.14-.06Zm8.92-1.35c1.18.04 2.36.01 3.53.01a.89.89 0 0 1-.82.43h-2.54c-.1 0-.22-.03-.28-.1-.2-.2-.34-.12-.52.05-.4.39-.82.75-1.23 1.13.02-.13 0-.3.08-.39.18-.22.42-.4.6-.62.3-.39.67-.53 1.18-.51Zm-5.9-9.01c.13.17.35.34.35.52.02.7.5.94 1.01 1.19l1.26.62c.64.32 1.09.87 1.59 1.36-.08.47.45.54.57.82.16.39.37.42.7.41.64-.01 1.3.03 1.94 0 .44-.03.87-.15 1.31-.2.09-.02.23.04.26.1.03.08-.01.22-.08.28-.17.17-.37.31-.56.47 0-.12 0-.23.04-.4l.02-.08-.06-.05-.9.05c-1.3.05-2.55.05-3.81.05-.15 0-.3.08-.44.12.14.08.28.19.44.22.19.04.42.08.57 0 .28-.15.5-.2.75.02.06.06.21.08.28.04.7-.4 1.45-.1 2.17-.19.23-.03.31.08.3.3V11c0 .26-.2.32-.34.21-.28-.2-.51-.4-.74.04.23-.04.4.16.56.18.3.05.43.12.6.4.25.4.13.47-.22.54-.01 0 0 .1 0 .14.43-.12.27.67.77.48.09-.03.27.17.41.27-.13.05-.27.13-.4.14h-2.05c-.22.01-.29-.05-.33-.28-.07-.36-.22-.7-.35-1.04-.03-.07-.15-.1-.22-.14-.02.1-.08.26-.05.28.42.24-.02.8.38 1.04-.1.05-.2.14-.3.13-.1 0-.22-.09-.3-.17l-.06-.06-.08-.17-.01.06c-.02.09-.03.18-.08.21a.9.9 0 0 1-.47.13c-.06 0-.16-.2-.17-.3-.04-.48.11-.99-.22-1.42.21-.36.15-.65-.22-.86-.1-.08.23-.47-.22-.31-.06.02-.11.1-.17.1H12.2c-.29 0-.43-.18-.5-.43-.34-.06-.1.56-.56.45-.29-.07-.62.04-.93.06.3.3.65.1.98.12.23.02.3.1.3.32-.01.19 0 .35-.26.34a58.78 58.78 0 0 0-1.73 0c-.05 0-.11.07-.17.1.05.04.1.11.16.11h1.4c.58.01.82.25.56.75-.17.32-.18.46.02.7.02.03-.12.27-.2.27-.5.03-1 .01-1.5.01-.4 0-.83-.1-1.16.04-.24.1-.32.55-.48.84-.1.15-.22.25-.38.03-.11-.14-.25-.26-.38-.38-.24-.21-.24-.28.11-.33.13-.02.3-.32.3-.5 0-.47.34-.8.46-1.2.05-.18.44-.52-.18-.44-.27.03-.24-.18-.25-.35-.01-.24.09-.3.31-.3h1.08c.03 0 .07-.09.1-.14 0 0-.05-.07-.08-.07-.22 0-.44.03-.64-.01a1.07 1.07 0 0 1-.44-.22c-.07-.06-.12-.2-.1-.27.02-.07.15-.12.24-.15.36-.09.75.13 1.12-.15.4-.3.77.13 1.17.15h.54c.03-.01.09-.17.07-.18-.18-.16-.3-.42-.7-.47l-.12-.01-.02.02a.38.38 0 0 1-.06.03l-.04.01.04.03c.08.05.06.1.05.1-.73-.03-1.43.23-2.15.25-1.17.03-2.35.01-3.53 0h-.23a.95.95 0 0 1-.57-.15c-.37-.24-.34.13-.35.37-.11-.14-.23-.28-.32-.44-.03-.05 0-.2.02-.2.28 0 .62-.1.83.02.74.4 1.51.12 2.26.16.28.02.58-.26.88-.4.08-.43.13-.87.46-1.21.47-.51 1.04-.94 1.68-1.13.6-.19 1.18-.57 1.86-.48.22.03.34.07.31.3a.91.91 0 0 0 0 .22c.06.4-.13.82.13 1.2.03-.38.08-.77.09-1.15V5.1c0-.17.04-.34.06-.51ZM22 13.34c0 .09-.3.2-.48.27-.1.04-.21.01-.31.01.02-.06.04-.17.07-.17.54-.01.19-.3.14-.48h.1c.28-.02.48.13.48.37Zm-19.78-.15.26.22c.07.06.11.14.17.21-.14 0-.29.02-.43 0-.08-.02-.15-.1-.22-.16l.22-.27Zm8.15-.37-.78.01c.03.05.04.13.09.15.06.02.13 0 .2 0h.43c.02 0 .04-.1.06-.16Zm-6.43-1.36c-.05.8-.08.82-1.08 1.08.13-.16.22-.39.39-.47.3-.15.4-.47.7-.6Zm6.43.71-.78.01c.03.05.04.13.09.15.06.02.13 0 .2 0h.43c.02 0 .04-.1.06-.16Zm9.76-2c-.16.62-.14.87-.01 1.4.04.17.02.29.26.34.15.04.26.27.4.41-.32 0-.72.08-.82-.29-.11-.45-.36-.87-.27-1.37.04-.28.18-.42.43-.5Zm-3.01.56c-.07.1 0 .28-.03.42-.01.1-.12.28-.1.29.14.08.3.13.74.01-.29-.12-.1-.25.24-.2 0-.3-.24-.18-.38-.23-.1-.03-.23-.12-.26-.22-.05-.16-.1-.27-.21-.07Zm-13.4-.56.44.21c0 .28.02.55-.01.82-.01.1-.14.18-.2.26.14-.47-.22-.85-.22-1.3Zm8.58-.7c-.1.13-.25.25-.37.37.18.04.35.1.53.1l.05.01h.1H12.51c.98 0 1.38.02 1.77-.01.08 0 .15-.17.23-.25-.08-.06-.15-.16-.22-.16-.54-.02-1.08 0-1.61-.02-.12-.01-.2-.3-.39-.05Zm-4.88-.52-.24.14.05.37.28-.15c.03-.02.07 0 .1 0 .46.28.55.28.8-.06.05-.07.03-.2.04-.3-.12 0-.25-.03-.36 0-.1.01-.18.09-.26.14-.06-.3-.22-.26-.41-.14Zm5.17-2.01c-.14-.02-.42.08-.42.15-.01.1-.08.25.17.42l.05.02c.04-.07.08-.15.13-.16.62-.16.93.35 1.35.64h-.21c-.07.01-.13.05-.19.07.06.05.12.11.19.14.06.02.14 0 .2 0l.22.22.87.86.07.18.14-.18.19.08c.12.04.29.16.36.11.19-.12.1-.27-.03-.43-.2-.24-.33-.53-.54-.74a3.2 3.2 0 0 0-.83-.6c-.56-.28-1.07-.7-1.72-.78Zm-.24 1.5h-.2v.04h.02a65 65 0 0 0 1.25.84l.4-.07c-.1-.12-.17-.26-.28-.37a1.41 1.41 0 0 0-1.19-.44Zm-3.12.66c-.04.02-.05.1-.06.14 0 .02.05.06.08.06H10.09a1.68 1.68 0 0 1 .28-.01l.04-.03c.15-.13.33-.39.53-.59.04-.04.06-.1.1-.15-.06-.02-.12-.07-.18-.08-.65-.05-1.14.33-1.64.66Zm.15-1.79-.04.05c-.44-.03-.64.25-.82.64h.39l-.2.28a2.38 2.38 0 0 0-.1.14c-.04.06-.03.14-.05.22.1-.01.22 0 .29-.04l.7-.59c0 .25.22.28.33.18.18-.14.2-.34-.11-.4v-.21h-.43c0-.06 0-.11.05-.25V7.3Zm1.21.16-.39.32c.09.08.18.2.27.2.15.03.4.09.37-.2-.01-.1-.13-.17-.25-.32Zm-.46-.2-.08.05h-.01l.03.03h.02c.3-.06.59-.13.87-.23.06-.02.11-.18.1-.26-.02-.07-.13-.11-.93.4Zm.67-.6c-.28.12-.55.24-.81.38-.03.01-.02.14 0 .2a.18.18 0 0 0 .04.07h.02l.04-.03.71-.63Zm1.43-.36c-.02.03-.09.09-.08.13 0 .1.06.26.1.26.16.01.33-.03.5-.05 0 0 .01-.07 0-.07-.17-.1-.34-.18-.52-.27Zm8.97 6.45.22.21-.22-.21m-7.37-1.24c.4.25 1.03.14 1.65.16.04 0 .11.11.1.16 0 .1-.06.25-.1.26-.43.03-.4.2-.19.46.28.35.2.98.82 1.06.04.01.1.12.1.13-.22.23-.45.46-.69.68-.02.02-.17-.07-.21-.13a5.43 5.43 0 0 1-.36-.6c-.12-.24-.2-.5-.34-.73-.12-.22-.3-.41-.45-.62-.02.24-.08.49-.07.72.03.33-.14.35-.38.33-.23-.01-.53.1-.5-.33.02-.24-.04-.48-.07-.72-.3.13-.32.37-.37.66-.05.33-.68.54-.95.38-.03-.02 0-.15.02-.22.07-.22.13-.45.23-.66.14-.26.1-.38-.2-.41-.06 0-.15-.15-.15-.22s.1-.19.18-.2c.58-.06 1.16-.1 1.93-.16ZM7.56 9.95c.26 0 .27.14.27.34 0 .22-.06.33-.3.31-.14-.01-.29.03-.42 0-.46-.13-.57.24-.74.5-.1.15-.11.34.16.36h.22c.21.07.6-.18.62.17.04.5-.42.18-.64.26-.13.05-.32.02-.38.1-.12.15-.19.35-.24.54-.01.06.09.21.15.22.29.02.57.02.86 0 .25 0 .28.13.28.33 0 .22-.04.33-.29.33H5.28l-1.72-.01c-.1 0-.26-.1-.25-.12a.76.76 0 0 1 .16-.36.61.61 0 0 1 .35-.16c.29-.02.58 0 .86 0 .35 0 .5-.2.55-.5.03-.17.05-.38-.23-.37h-.32c-.17-.02-.34-.06-.5-.09.14-.2.28-.33.57-.35.58-.05.69-.16.7-.56 0-.1-.12-.26-.2-.28-.27-.05-.56-.02-.83-.1-.1-.02-.36-.1-.25-.34.04-.1.17-.2.27-.2 1.04-.02 2.08-.01 3.12-.02Zm8.05 1.19c0 .33-.18.37-.4.32a5.29 5.29 0 0 0-1.96-.2c-.4.04-.8.13-1.2.2-.31.06-.35-.12-.35-.37s.13-.28.34-.28h1.72c.5 0 1 .02 1.51 0 .27-.01.34.05.34.33Zm-.88-2.48-.65-.22v-.21h.3c.4-.07.36.19.35.43ZM8.9 8"/></g></svg>