<svg fill="none" xmlns="http://www.w3.org/2000/svg" viewBox="0 0 24 24">
  <g id="classifier/cricket" clip-path="url(#clip0_448_12)">
    <path id="Vector" d="M12.02 24c6.627 0 12-5.373 12-12s-5.373-12-12-12c-6.628 0-12 5.373-12 12s5.372 12 12 12Z" fill="#503F32"/>
    <path id="Vector_2" d="M12.02 1c6.07 0 11 4.93 11 11s-4.93 11-11 11-11-4.93-11-11 4.94-11 11-11Zm0-1c-6.63 0-12 5.37-12 12s5.37 12 12 12 12-5.37 12-12-5.37-12-12-12Z" fill="#fff"/>
    <g id="Group 1">
      <g id="Mask group">
        <path id="Subtract" fill-rule="evenodd" clip-rule="evenodd" d="M17.66 16.12a7 7 0 0 0-9.847-9.73c.015.018.027.039.035.062.05.139.1.277.154.413a.218.218 0 0 1-.406.158c-.046-.117-.09-.235-.133-.354a7.04 7.04 0 0 0-1.225 1.355 14.912 14.912 0 0 0 6.626 7.88l3.175 1.814c.248-.176.485-.367.708-.573l-.22-.117a.218.218 0 0 1 .205-.385l.34.181a7.05 7.05 0 0 0 .317-.356l-.26-.146a.218.218 0 0 1 .214-.38l.317.178Zm-2.03 1.866-2.982-1.704a15.348 15.348 0 0 1-6.703-7.797 6.959 6.959 0 0 0-.702 1.68c.019.019.034.042.044.068.055.136.111.271.17.405a.218.218 0 0 1-.366.23 7 7 0 0 0 8.01 8.047l-.014-.008a.218.218 0 1 1 .205-.385l.474.253a6.96 6.96 0 0 0 1.864-.789Zm.693-2.116a.218.218 0 1 0 .213-.38l-.806-.451a.218.218 0 0 0-.213.38l.806.451Zm-1.612-.903a.218.218 0 1 0 .213-.38l-.403-.226a14.367 14.367 0 0 1-.381-.221.218.218 0 0 0-.224.373c.129.078.26.154.392.228l.403.226Zm-6.365-7.29a.218.218 0 0 0-.395.181c.126.276.26.546.403.813a.218.218 0 0 0 .385-.206c-.139-.259-.27-.522-.393-.789Zm4.806 6.347a.218.218 0 0 0 .247-.36c-.243-.166-.48-.34-.712-.52a.218.218 0 0 0-.268.345c.239.185.483.363.733.534ZM9.177 9.229a.218.218 0 1 0-.371.228c.159.258.325.51.498.758a.218.218 0 1 0 .357-.25c-.168-.24-.33-.486-.484-.736Zm2.543 3.682a.218.218 0 1 0 .288-.327 14.703 14.703 0 0 1-.645-.601.218.218 0 1 0-.306.31c.214.212.436.418.663.618Zm-1.532-2.24a.218.218 0 1 0-.342.271c.188.237.383.468.585.694a.218.218 0 0 0 .325-.291 14.762 14.762 0 0 1-.568-.674Zm5.869 5.86a.218.218 0 0 1-.295.09l-.765-.408a.218.218 0 1 1 .204-.385l.766.407a.218.218 0 0 1 .09.295Zm-1.53-.816a.218.218 0 0 1-.295.09l-.383-.203c-.133-.071-.265-.144-.396-.219a.218.218 0 0 1 .216-.378c.127.072.255.143.385.212l.382.204a.218.218 0 0 1 .09.294ZM6.88 7.412a.218.218 0 0 1 .283.122c.054.136.11.271.169.405a.218.218 0 1 1-.4.174c-.06-.138-.118-.277-.174-.417a.218.218 0 0 1 .122-.284Zm.532 1.225a.218.218 0 0 1 .293.097c.132.261.272.518.419.771a.218.218 0 0 1-.377.219c-.151-.26-.295-.525-.431-.794a.218.218 0 0 1 .096-.293Zm5.57 6.213c-.065.1-.2.129-.3.063-.254-.164-.501-.336-.743-.514a.218.218 0 1 1 .258-.351c.236.173.476.34.722.5.1.066.13.2.064.302Zm-4.697-4.66a.218.218 0 0 1 .302.06 15 15 0 0 0 .505.718.218.218 0 1 1-.348.261c-.18-.24-.354-.486-.52-.738a.218.218 0 0 1 .06-.302Zm3.25 3.624a.218.218 0 0 1-.307.028 15.506 15.506 0 0 1-.677-.598.218.218 0 1 1 .297-.318c.214.2.433.393.659.58a.218.218 0 0 1 .028.308Zm-2.203-2.185a.218.218 0 0 1 .307.026c.19.223.385.44.586.653a.218.218 0 1 1-.316.3 15.438 15.438 0 0 1-.603-.672.218.218 0 0 1 .026-.307Zm4.911 6.845a.218.218 0 1 0 .214-.38l-.85-.478a.218.218 0 1 0-.214.38l.85.478ZM5.967 9.525a.218.218 0 0 0-.407.156c.05.133.104.265.158.396a.218.218 0 0 0 .403-.168 14.362 14.362 0 0 1-.154-.384Zm6.576 7.991a.218.218 0 1 0 .214-.38l-.425-.239a14.44 14.44 0 0 1-.358-.208.218.218 0 1 0-.225.373c.122.073.245.145.369.215l.425.24Zm-6.082-6.852a.218.218 0 1 0-.392.19c.125.257.257.509.396.757a.218.218 0 1 0 .38-.213c-.135-.24-.263-.485-.384-.734Zm4.57 5.938a.218.218 0 0 0 .246-.36 14.367 14.367 0 0 1-.67-.487.218.218 0 1 0-.266.345c.225.174.455.34.69.502ZM7.27 12.108a.218.218 0 1 0-.367.235c.153.24.313.475.48.705a.218.218 0 1 0 .352-.255 14.419 14.419 0 0 1-.465-.685Zm2.41 3.452a.218.218 0 0 0 .286-.329 14.447 14.447 0 0 1-.61-.56.218.218 0 1 0-.303.312c.203.198.413.39.628.577Zm-1.44-2.11a.218.218 0 0 0-.338.275c.18.22.365.436.557.645a.218.218 0 1 0 .322-.294 14.313 14.313 0 0 1-.542-.627Zm4.396 4.969a.218.218 0 0 1-.295.089l-.373-.2a15.3 15.3 0 0 1-.395-.218.218.218 0 1 1 .216-.378c.127.072.255.143.384.212l.373.2a.218.218 0 0 1 .09.295Zm-7.1-7.082a.218.218 0 0 1 .293.096c.133.262.272.52.419.772a.218.218 0 1 1-.377.219c-.15-.26-.295-.525-.43-.794a.218.218 0 0 1 .096-.293Zm5.568 6.218c-.066.1-.201.13-.302.064a15.43 15.43 0 0 1-.742-.516.218.218 0 1 1 .26-.35c.234.173.475.34.72.5.101.066.13.201.064.302ZM6.409 12.89a.218.218 0 0 1 .302.061c.162.244.33.484.505.718a.218.218 0 1 1-.348.26c-.18-.24-.354-.486-.52-.738a.218.218 0 0 1 .06-.302Zm3.248 3.627a.218.218 0 0 1-.307.028 15.516 15.516 0 0 1-.677-.598.218.218 0 0 1 .298-.318c.214.2.433.394.658.581a.218.218 0 0 1 .028.307ZM7.456 14.33a.218.218 0 0 1 .307.026c.189.223.384.442.586.654a.218.218 0 1 1-.316.3 15.509 15.509 0 0 1-.603-.673.218.218 0 0 1 .026-.307Z" fill="#DEBB69"/>
      </g>
      <path id="Union" fill-rule="evenodd" clip-rule="evenodd" d="M14.28 8.414c.403.056.766-.164.812-.491.046-.328-.242-.64-.645-.696-.402-.057-.765.163-.811.49-.046.329.242.64.645.697Zm3.233 2.99c.439-.33.366-1.166-.162-1.867-.528-.7-1.312-1-1.75-.67-.44.33-.367 1.167.161 1.868.528.7 1.312 1 1.75.67Z" fill="#F0E4C8"/>
    </g>
  </g>
  <defs>
    <clipPath id="clip0_448_12">
      <path fill="#fff" d="M0 0h24v24H0z"/>
    </clipPath>
  </defs>
</svg>