<?xml version="1.0" encoding="UTF-8"?>
<svg width="24px" height="24px" viewBox="0 0 24 24" version="1.1" xmlns="http://www.w3.org/2000/svg" xmlns:xlink="http://www.w3.org/1999/xlink">
    <!-- Generator: Sketch 55.1 (78136) - https://sketchapp.com -->
    <title>Flags/new_caledonia</title>
    <desc>Created with Sketch.</desc>
    <g id="Icons" stroke="none" stroke-width="1" fill="none" fill-rule="evenodd">
        <g id="Flags/new_caledonia">
            <g id="new_caledonia">
                <path d="M12,23 C5.92486775,23 1,18.0751322 1,12 C1,5.92486775 5.92486775,1 12,1 C18.0751322,1 23,5.92486775 23,12 C23,18.0751322 18.0751322,23 12,23 Z" id="Path" fill="#009048"></path>
                <path d="M1.94656467,7.52911919 L22.0534353,7.52911919 C22.6618403,8.89515506 23,10.4080868 23,12 C23,13.7730228 22.5805195,15.4480707 21.8353898,16.9313125 L2.16461022,16.9313125 C1.41948046,15.4480707 1,13.7730228 1,12 C1,10.4080868 1.33815971,8.89515506 1.94656467,7.52911919 Z" id="Path" fill="#DD3C42"></path>
                <path d="M22.0534353,7.52911919 L1.94656467,7.52911919 C3.65998267,3.68202622 7.51678094,1 12,1 C16.4832191,1 20.3400173,3.68202622 22.0534353,7.52911919 L22.0534353,7.52911919 Z" id="Path" fill="#2C3A82"></path>
                <path d="M19.7163195,11.857719 C19.7163195,16.1969555 16.1986597,19.715438 11.8586005,19.715438 C7.51854128,19.715438 4,16.1969555 4,11.857719 C4,7.51765982 7.51854128,4 11.8586005,4 C16.1986597,4 19.7163195,7.51765982 19.7163195,11.857719" id="Fill-6" fill="#0F0E11"></path>
                <path d="M19.3803668,11.857719 C19.3803668,16.0122609 16.0131424,19.3794854 11.8586005,19.3794854 C7.70405859,19.3794854 4.3368341,16.0122609 4.3368341,11.857719 C4.3368341,7.70317713 7.70405859,4.33595264 11.8586005,4.33595264 C16.0131424,4.33595264 19.3803668,7.70317713 19.3803668,11.857719" id="Fill-7" fill="#ECD430"></path>
                <path d="M12.0190844,16.8799334 C12.3114266,16.9025818 12.9382378,16.9916484 13.3470875,17.3419094 C13.8117329,17.740563 14.8748288,18.8053043 14.8748288,18.8053043 C14.8748288,18.8053043 14.6792629,18.9097863 13.63456,19.1839195 C12.5898572,19.4580526 11.8586005,19.3794854 11.8586005,19.3794854 C11.8586005,19.3794854 11.127285,19.4580526 10.0826409,19.1839195 C9.03793808,18.9097863 8.84237216,18.8053043 8.84237216,18.8053043 C8.84237216,18.8053043 9.90546806,17.740563 10.3701134,17.3419094 C10.8051045,16.969253 11.4868208,16.8922599 11.7499462,16.8763527 L11.7499462,16.5963423 C11.3520932,16.5053683 11.0478951,16.0151407 11.0478951,15.4230363 C11.0478951,14.8309319 11.3520932,14.3407043 11.7499462,14.2497303 L11.7499462,13.8533036 C11.253731,13.9122528 10.8728974,14.3613572 10.7754661,14.7268615 C10.6709841,15.1188161 10.1218951,16.0356489 10.1218951,16.0356489 C10.1218951,16.0356489 10.2656314,14.7820407 10.2656314,14.521247 C10.2656314,14.260512 10.3701134,13.5291965 10.762068,13.3721209 C11.0592182,13.253635 11.5364007,13.1899151 11.7499462,13.1660144 L11.7499462,12.7007357 C11.2510184,12.6611405 10.8657273,12.4043784 10.8657273,12.0925392 C10.8657273,11.780754 11.2510184,11.5239962 11.7499462,11.4844013 L11.7499462,11.1050594 C11.5368265,11.1125623 11.0589296,11.1138357 10.762068,10.9952427 C10.3701134,10.8381083 10.2656314,10.1067928 10.2656314,9.84523516 C10.2656314,9.58450018 10.1218951,9.16657204 10.1218951,9.16657204 C10.1218951,9.16657204 10.5264251,9.42736578 10.6308484,9.81932033 C10.7306674,10.1937818 10.9975611,10.5918967 11.7499462,10.6266867 L11.7499462,10.1255942 C11.2510184,10.0596938 10.8657273,9.63243992 10.8657273,9.11562383 C10.8657273,8.59875374 11.2510184,8.17154509 11.7499462,8.10565237 L11.7499462,7.14174192 C11.2153867,7.48904753 10.762068,7.67896645 10.762068,7.67896645 C10.762068,7.67896645 10.6576447,6.94765096 10.86655,6.63426362 C11.0274264,6.3929943 11.3893753,6.1670501 11.7499462,6.02818697 L11.7499462,4.34265172 L12.0190844,4.34265172 L12.0190844,5.940932 C12.0353469,5.93669514 12.0514943,5.93268926 12.0675058,5.92892173 C12.5121715,5.82443969 13.1130313,5.1716914 13.1130313,5.1716914 C13.1130313,5.1716914 13.0345229,6.13782704 12.3032074,6.73874565 C12.2091701,6.81602184 12.1138326,6.88897165 12.0190844,6.95742986 L12.0190844,8.10565396 C12.5179688,8.17155198 12.9033033,8.59875791 12.9033033,9.11562383 C12.9033033,9.63243575 12.5179688,10.0596869 12.0190844,10.1255926 L12.0190844,10.6253819 C12.7523332,10.5829839 13.0143856,10.1895888 13.1130313,9.81932033 C13.2175133,9.42736578 13.6220433,9.16657204 13.6220433,9.16657204 C13.6220433,9.16657204 13.4783071,9.58450018 13.4783071,9.84523516 C13.4783071,10.1067928 13.373825,10.8381083 12.9818705,10.9952427 C12.6961508,11.1093847 12.2427303,11.1124891 12.0190844,11.1058719 L12.0190844,11.4844023 C12.5179688,11.5240003 12.9033033,11.7807565 12.9033033,12.0925392 C12.9033033,12.4043758 12.5179688,12.6611364 12.0190844,12.7007348 L12.0190844,13.1715046 C12.2534171,13.1989219 12.6925857,13.261769 12.9692951,13.3721209 C13.3604269,13.5291965 13.4783071,14.260512 13.4783071,14.521247 C13.4783071,14.7820407 13.6153443,16.0356489 13.6153443,16.0356489 C13.6153443,16.0356489 13.0737771,15.100423 12.9692951,14.7092912 C12.874945,14.3553458 12.5032377,13.9373322 12.0190844,13.8595883 L12.0190844,14.2501126 C12.4160797,14.3420696 12.7194314,14.8317563 12.7194314,15.4230363 C12.7194314,16.0143163 12.4160797,16.504003 12.0190844,16.59596 L12.0190844,16.8799334 Z" id="Combined-Shape" fill="#0F0E11"></path>
                <path d="M12,24 C18.627417,24 24,18.627417 24,12 C24,5.372583 18.627417,0 12,0 C5.372583,0 0,5.372583 0,12 C0,18.627417 5.372583,24 12,24 Z M12,23 C5.92486775,23 1,18.0751322 1,12 C1,5.92486775 5.92486775,1 12,1 C18.0751322,1 23,5.92486775 23,12 C23,18.0751322 18.0751322,23 12,23 Z" id="Oval" fill="#FFFFFF" fill-rule="nonzero"></path>
            </g>
        </g>
    </g>
</svg>