<?xml version="1.0" encoding="UTF-8"?>
<svg width="24px" height="24px" viewBox="0 0 24 24" version="1.1" xmlns="http://www.w3.org/2000/svg" xmlns:xlink="http://www.w3.org/1999/xlink">
    <!-- Generator: Sketch 63.1 (92452) - https://sketch.com -->
    <title>esports_starcraft</title>
    <desc>Created with Sketch.</desc>
    <g id="Classifier" stroke="none" stroke-width="1" fill="none" fill-rule="evenodd">
        <g id="esports_starcraft">
            <path d="M12,0 C18.627417,0 24,5.372583 24,12 C24,18.627417 18.627417,24 12,24 C5.372583,24 0,18.627417 0,12 C0,5.372583 5.372583,0 12,0 Z M12,1 C5.92486775,1 1,5.92486775 1,12 C1,18.0751322 5.92486775,23 12,23 C18.0751322,23 23,18.0751322 23,12 C23,5.92486775 18.0751322,1 12,1 Z" id="Oval" fill="#FFFFFF" fill-rule="nonzero"></path>
            <path d="M12,1 C5.92486775,1 1,5.92486775 1,12 C1,18.0751322 5.92486775,23 12,23 C18.0751322,23 23,18.0751322 23,12 C23,5.92486775 18.0751322,1 12,1 Z" id="Path-Copy" fill="#503F32" fill-rule="nonzero"></path>
            <path d="M14.4925139,10.1976007 C14.5004346,10.3614453 14.5883539,10.6031387 14.5064316,10.750463 C14.073624,11.5297431 14.4395586,12.276209 14.5901644,13.0116992 C14.7294549,13.6915184 15.2725861,14.1624584 15.7952367,14.5653939 C16.1086687,14.8070873 16.4842213,15.0362207 16.9429408,15.0490069 C17.2108855,15.0565881 17.4749831,15.1996127 17.7737052,15.2918318 C17.4561998,15.6361544 17.1269265,15.7568879 16.7271593,15.7667322 C16.4807135,15.7728424 16.2365308,15.8753584 15.9920086,15.9374791 C15.6001621,16.03694 15.2646654,15.7870996 14.896694,15.7632245 C14.5267991,15.739123 14.2777508,15.5294517 13.9900044,15.3341508 C13.2605113,14.8392225 12.6356841,14.2743661 12.2872881,13.4390756 C11.9650303,12.6663583 11.9008729,11.6428954 12.1362298,10.8304617 C12.1915612,10.6394606 12.1809249,10.4292235 12.2036685,10.1976007 L14.4925139,10.1976007 Z M8.12881544,10.1669269 C9.35074748,11.7114884 10.5681534,13.2503601 11.8147527,14.8261195 L11.814979,15.3056591 L11.814979,15.3056591 C11.6665231,15.4540018 11.5179541,15.6021182 11.3855659,15.7340538 L4,15.7340538 C4.62584555,15.1047005 5.14453584,14.496733 5.88274165,14.1331746 C6.83571059,14.963147 7.98081219,14.5866891 9.01570342,14.6790214 L9.25207864,14.4426462 L9.25207864,14.4426462 C8.05843469,13.0495147 6.86433813,11.6558174 5.6666207,10.2579335 C5.74763777,10.1999995 5.77072084,10.1691089 5.79391707,10.1689958 C6.57206566,10.1665064 7.35010109,10.1669269 8.12881544,10.1669269 Z M11.8574337,8.00313569 C11.3367067,8.65987183 10.6915121,9.08962439 10.25316,9.77736426 C10.0958782,9.62008252 9.92660233,9.45080663 9.73265923,9.25686353 L5.02054351,9.25686353 C4.99734729,8.45087947 5.34314081,8.01365886 6.05475583,8.00822755 C7.96250415,7.99340459 9.87047877,8.00313569 11.8574337,8.00313569 Z M20,8.19801795 C19.607022,8.52299145 19.3094313,8.80010151 18.980158,9.0325164 C18.6729494,9.24931627 18.3320215,9.41836586 17.9939223,9.61559037 C17.9654079,9.49859086 17.9454931,9.41712118 17.9115474,9.27805696 L12.4519474,9.27805696 C12.938163,8.87184009 13.3225414,8.55071377 13.7448259,8.19801795 L20,8.19801795 Z" id="Combined-Shape" fill="#DEBB69"></path>
        </g>
    </g>
</svg>