
<svg fill="none" xmlns="http://www.w3.org/2000/svg" viewBox="0 0 24 24">
  <g id="classifier/swimming" clip-path="url(#clip0_448_141)">
    <path id="Vector" d="M12.02 24c6.627 0 12-5.373 12-12s-5.373-12-12-12c-6.628 0-12 5.373-12 12s5.372 12 12 12Z" fill="#503F32"/>
    <g id="Frame" clip-path="url(#clip1_448_141)">
      <g id="nfefh2.tif_1_">
        <g id="Group">
          <path id="Vector_2" d="M16.766 11.65a.17.17 0 0 1 .013.246 1.083 1.083 0 0 1-.156.104c-1.298.48-2.623.61-3.935.052-.104-.039-.207-.117-.298-.182-.013 0-.013-.013-.026-.013-.364-.208-.494-.299-.87-.065-.935.572-1.923.818-3.026.598-.663-.13-1.286-.3-1.87-.65-.221-.143-.442-.156-.74.052a.872.872 0 0 1-.144.091c-.532.286-.558.312-.857-.195a14.721 14.721 0 0 1-.779-1.571c-.182-.403-.169-.831-.039-1.26.169-.545.753-.78 1.208-.402.234.194.402.493.545.779.208.402.338.857.559 1.26.272.506.727.792 1.324.753.546-.04 1.091-.091 1.624-.195.623-.117 1-.598 1.376-1.065.754-.935 1.494-1.896 2.286-2.805a3.554 3.554 0 0 1 1.675-1.052c.767-.234 1.507-.13 2.221.169.442.182.883.415 1.273.688l.013.013c.35.078 1.675 2.078-.91 1.584a.48.48 0 0 1-.142-.065c-.39-.168-.766-.39-1.156-.558-.377-.156-.78-.13-1.104.13-.415.325-.779.701-1.156 1.065-.039.039-.026.234.026.273.52.376 1.065.74 1.585 1.117.48.35.96.714 1.48 1.103Z" fill="#DEBB69"/>
          <path id="Vector_3" d="M3 13.104c.558-.065 1.039-.091 1.494-.195.57-.143 1.116-.364 1.675-.545.13-.04.299-.052.402 0 .481.26.948.506 1.494.571.974.13 1.935.13 2.87-.208.234-.078.429-.26.65-.35a.68.68 0 0 1 .48 0c1.013.454 2.039.779 3.182.623a4.646 4.646 0 0 0 1.792-.597c.208-.13.377-.117.623 0 .948.441 1.948.714 3.026.61.078-.013.156 0 .221 0 .013 0 .039.013.104.052-.117.442-.22.896-.364 1.35-.026.079-.195.156-.311.156-.935.026-1.832-.155-2.637-.636-.195-.104-.311-.09-.493 0-1.247.623-2.559.844-3.922.429a7.033 7.033 0 0 1-1.13-.442c-.234-.117-.416-.104-.636.013-.974.532-2.014.74-3.091.572-.559-.091-1.143-.221-1.624-.507-.441-.26-.727-.104-1.078.078-.675.35-1.402.467-2.156.48-.077 0-.207-.078-.22-.142-.13-.416-.234-.87-.351-1.312Z" fill="#EED69E"/>
          <path id="Vector_4" d="M3.78 15.597c.74-.233 1.428-.415 2.077-.675.338-.143.572-.169.91 0 1.623.805 3.246.753 4.843-.09.182-.092.312-.105.507-.014 1.688.896 3.377.896 5.078 0 .104-.052.299-.078.402-.026A5.816 5.816 0 0 0 20 15.48c.065 0 .117.027.247.053-.273.454-.52.883-.805 1.285-.052.078-.247.104-.338.078a17.275 17.275 0 0 1-1.442-.532c-.181-.078-.298-.091-.48 0-1.675.883-3.364.883-5.052.013-.182-.091-.325-.104-.507-.013-1.688.883-3.39.883-5.077-.013-.117-.065-.312-.04-.442 0-.429.143-.831.337-1.26.493-.09.026-.272-.013-.324-.09-.286-.377-.52-.793-.74-1.157Z" fill="#fff"/>
          <path id="Vector_5" d="M9.065 9.766c-.987-.013-1.805-.83-1.78-1.805 0-1 .806-1.78 1.832-1.766a1.786 1.786 0 1 1-.052 3.571Z" fill="#DEBB69"/>
        </g>
      </g>
    </g>
    <path id="Vector_6" d="M12.02 1c6.07 0 11 4.93 11 11s-4.93 11-11 11-11-4.93-11-11 4.94-11 11-11Zm0-1c-6.63 0-12 5.37-12 12s5.37 12 12 12 12-5.37 12-12-5.37-12-12-12Z" fill="#fff"/>
  </g>
  <defs>
    <clipPath id="clip0_448_141">
      <path fill="#fff" d="M0 0h24v24H0z"/>
    </clipPath>
    <clipPath id="clip1_448_141">
      <path fill="#fff" transform="translate(3 6)" d="M0 0h18v11.026H0z"/>
    </clipPath>
  </defs>
</svg>