<svg width="24" height="24" viewBox="0 0 24 24" fill="none" xmlns="http://www.w3.org/2000/svg">
<path d="M12 23.8C18.517 23.8 23.8 18.517 23.8 12C23.8 5.48304 18.517 0.199997 12 0.199997C5.48305 0.199997 0.200012 5.48304 0.200012 12C0.200012 18.517 5.48305 23.8 12 23.8Z" fill="#503F32"/>
<mask id="mask0" mask-type="alpha" maskUnits="userSpaceOnUse" x="0" y="0" width="24" height="24">
<path d="M12 23.8C18.517 23.8 23.8 18.517 23.8 12C23.8 5.48304 18.517 0.199997 12 0.199997C5.48305 0.199997 0.200012 5.48304 0.200012 12C0.200012 18.517 5.48305 23.8 12 23.8Z" fill="white"/>
</mask>
<g mask="url(#mask0)">
<path d="M14.08 24.686H9.17C9.077 24.686 9 24.611 9 24.52V14.004H14.25V24.52C14.25 24.611 14.173 24.686 14.08 24.686Z" fill="white"/>
<path d="M9 19.003V21.187L12.192 21.539C12.619 21.586 12.943 21.94 12.943 22.36V24.685H14.081C14.174 24.685 14.25 24.61 14.25 24.519V19.003H9Z" fill="#F8F2F0"/>
<path d="M15.607 9.879V13.728C15.607 14.788 14.747 15.65 13.687 15.65H10.297C9.033 15.65 8.008 14.624 8.008 13.36V9.879H15.608H15.607Z" fill="#D78878"/>
<path d="M14.68 11.273C14.68 11.273 11.863 11.358 11.266 13.021C10.446 15.303 12.906 15.949 14.731 14.563L14.681 11.273H14.68Z" fill="#CA6E59"/>
<path d="M10.859 11.383C11.383 11.383 11.809 10.958 11.809 10.433V8.11C11.809 7.585 11.383 7.159 10.859 7.159C10.334 7.159 9.909 7.585 9.909 8.109V10.434C9.909 10.958 10.334 11.383 10.859 11.383Z" fill="#D78878"/>
<path d="M10.859 7.15999C10.667 7.15999 10.489 7.21599 10.339 7.31299C10.599 7.48299 10.771 7.77599 10.771 8.10899V10.433C10.771 10.766 10.599 11.058 10.34 11.228C10.489 11.326 10.667 11.383 10.859 11.383C11.383 11.383 11.809 10.958 11.809 10.433V8.10999C11.809 7.58599 11.383 7.15999 10.859 7.15999Z" fill="#CA6E59"/>
<path d="M12.758 11.48C13.283 11.48 13.708 11.053 13.708 10.53V7.74199C13.708 7.21699 13.283 6.79199 12.758 6.79199C12.234 6.79199 11.808 7.21699 11.808 7.74199V10.53C11.808 11.054 12.234 11.48 12.758 11.48Z" fill="#D78878"/>
<path d="M12.758 6.794C12.55 6.794 12.358 6.86 12.202 6.974C12.442 7.146 12.597 7.427 12.597 7.743V10.529C12.597 10.847 12.442 11.127 12.202 11.299C12.359 11.412 12.55 11.479 12.758 11.479C13.283 11.479 13.708 11.054 13.708 10.529V7.743C13.708 7.219 13.283 6.793 12.758 6.793" fill="#CA6E59"/>
<path d="M14.657 11.48C15.181 11.48 15.607 11.053 15.607 10.53V7.74199C15.607 7.21699 15.182 6.79199 14.657 6.79199C14.133 6.79199 13.707 7.21699 13.707 7.74199V10.53C13.707 11.054 14.133 11.48 14.657 11.48Z" fill="#D78878"/>
<path d="M14.657 6.794C14.467 6.794 14.288 6.851 14.139 6.947C14.4 7.116 14.572 7.41 14.572 7.743V10.529C14.572 10.863 14.401 11.156 14.139 11.326C14.289 11.423 14.466 11.48 14.657 11.48C15.181 11.48 15.607 11.054 15.607 10.529V7.743C15.607 7.219 15.182 6.793 14.657 6.793" fill="#CA6E59"/>
<path d="M8.959 11.885C9.483 11.885 9.909 11.46 9.909 10.935V8.61299C9.909 8.08799 9.483 7.66199 8.959 7.66199C8.434 7.66199 8.009 8.08799 8.009 8.61199V10.937C8.009 11.461 8.434 11.886 8.959 11.886" fill="#D78878"/>
<path d="M8.959 7.661C8.834 7.661 8.716 7.685 8.607 7.728C8.771 7.899 8.871 8.13 8.871 8.385V10.71C8.871 11.11 8.623 11.452 8.271 11.593C8.445 11.773 8.689 11.886 8.959 11.886C9.483 11.886 9.909 11.461 9.909 10.936V8.611C9.909 8.087 9.483 7.661 8.959 7.661Z" fill="#CA6E59"/>
<path d="M12.03 13.854C12.129 13.29 12.556 12.57 12.556 12.57C13.068 11.894 13.625 11.508 14.412 11.535C14.654 11.542 15.135 11.376 15.2 11.087C15.214 11.027 15.183 10.964 15.127 10.938L14.674 10.726C13.869 10.351 13.643 9.37299 13.744 8.94099C13.854 8.48099 14.097 8.26599 14.272 8.34699C14.272 8.34699 16.281 9.25799 16.861 9.54699C17.061 9.64699 17.188 9.85299 17.1851 10.078L17.16 11.75C17.15 12.361 16.948 12.952 16.58 13.437L15.722 14.571C14.548 16.121 13.502 15.792 12.109 15.649C12.109 15.649 11.879 14.735 12.031 13.854" fill="#B99E60"/>
<path d="M16.86 9.54699C16.28 9.25899 14.272 8.34899 14.272 8.34899C14.128 8.27899 13.937 8.41499 13.814 8.72299C14.439 9.00899 15.247 9.38099 15.582 9.54699C15.782 9.64699 15.908 9.85399 15.905 10.077L15.88 11.753C15.87 12.362 15.667 12.953 15.299 13.44L14.442 14.572C13.882 15.31 13.354 15.621 12.802 15.731C13.867 15.851 14.75 15.854 15.721 14.571L16.58 13.44C16.948 12.953 17.15 12.362 17.16 11.753L17.185 10.079C17.188 9.85499 17.062 9.64799 16.861 9.54799" fill="#DEBB69"/>
<path d="M16.304 8.62299C17.372 8.07099 18 7.95999 18 10.029C18 13.777 14.767 16.78 14.767 16.78L11.822 17.315L8.61 16.78C7.536 14.82 7.037 10.678 7 8.95399C6.975 7.80499 10.076 7.69399 16.304 8.62299Z" fill="url(#paint0_linear)"/>
<path d="M14.767 16.78V19.993C14.767 20.288 14.527 20.527 14.231 20.528H9.14501C8.85001 20.528 8.61001 20.288 8.60901 19.993V16.78H14.767Z" fill="url(#paint1_linear)"/>
<path d="M10.751 17.851H14.767V19.456H10.751C10.603 19.456 10.483 19.338 10.483 19.19V18.12C10.483 17.97 10.603 17.852 10.751 17.852" fill="url(#paint2_linear)"/>
<path d="M16.493 8.66499C16.468 9.07399 16.398 9.48199 16.285 9.87699C15.024 14.497 8.661 13.447 7.272 10.24V10.235C7.107 9.86499 7.017 9.46899 7.003 9.06499C6.853 4.73499 11.767 5.00299 11.767 5.00299C11.767 5.00299 16.714 4.77799 16.493 8.66399" fill="#D3B15F"/>
</g>
<mask id="mask1" mask-type="alpha" maskUnits="userSpaceOnUse" x="0" y="0" width="24" height="24">
<path d="M12 23.8C18.517 23.8 23.8 18.517 23.8 12C23.8 5.48304 18.517 0.199997 12 0.199997C5.48305 0.199997 0.200012 5.48304 0.200012 12C0.200012 18.517 5.48305 23.8 12 23.8Z" fill="white"/>
</mask>
<g mask="url(#mask1)">
<path d="M12 23.5C18.3513 23.5 23.5 18.3513 23.5 12C23.5 5.64873 18.3513 0.5 12 0.5C5.64873 0.5 0.5 5.64873 0.5 12C0.5 18.3513 5.64873 23.5 12 23.5Z" stroke="white"/>
</g>
<defs>
<linearGradient id="paint0_linear" x1="11.6619" y1="11.3844" x2="13.8684" y2="15.1686" gradientUnits="userSpaceOnUse">
<stop stop-color="#DEBB69"/>
<stop offset="0.9375" stop-color="#DEBB69"/>
</linearGradient>
<linearGradient id="paint1_linear" x1="11.688" y1="17.5592" x2="11.688" y2="21.3072" gradientUnits="userSpaceOnUse">
<stop stop-color="#DEBB69"/>
<stop offset="1" stop-color="#DEBB69"/>
</linearGradient>
<linearGradient id="paint2_linear" x1="12.625" y1="17.851" x2="12.625" y2="19.456" gradientUnits="userSpaceOnUse">
<stop stop-color="white"/>
<stop offset="1" stop-color="white"/>
</linearGradient>
</defs>
</svg>
