<svg width="24" height="24" viewBox="0 0 24 24" fill="none" xmlns="http://www.w3.org/2000/svg">
<circle cx="12" cy="12" r="12" fill="white"/>
<circle cx="12" cy="12" r="11" fill="#503F32"/>
<path d="M18 11.1546V19.6819L10.5385 19.9053V11.378L18 11.1546Z" fill="#D3B15F"/>
<path d="M10.5385 11.378L6 10.8624V19.4933L10.5385 19.9053V11.378Z" fill="#DEBB69"/>
<path d="M6 10.8624L13.6161 10.6561L18 11.1546L10.5385 11.378L6 10.8624Z" fill="#DEBB69"/>
<path d="M15.3698 12.8225V14.3868L17.6561 14.318V12.8225H15.3698Z" fill="white"/>
<path d="M10.1005 10.983L13.8654 10.9053C13.9121 10.9457 13.9102 10.983 13.8654 11.017L10.1005 11.1199C10.0261 11.0656 10.0374 11.0214 10.1005 10.9823V10.983Z" fill="white"/>
<path d="M12.939 5.47266L10.0993 5.5162V9.88242L13.8275 9.78271L13.7897 5.47266H12.939Z" fill="white"/>
<path fill-rule="evenodd" clip-rule="evenodd" d="M14.7722 6.43122C14.5873 6.55175 14.3595 6.50568 14.0888 6.29365C14.1727 5.95667 14.2661 5.64114 14.48 5.58435C14.6637 5.66008 14.8208 5.75915 14.9053 5.92385C14.9741 6.1687 14.9129 6.32646 14.7722 6.43122ZM14.6605 7.1058C14.8019 6.82877 14.5671 6.58077 14.0547 6.35359H14.0541L13.8035 7.10075L14.196 7.35065C14.3551 7.40492 14.5109 7.35885 14.6605 7.1058Z" fill="#DEBB69" fill-opacity="0.9"/>
<path d="M15.5932 4.15756C15.5149 4.7072 15.2259 5.23917 14.3595 5.72192L13.7164 7.31721C13.6786 7.41124 13.6136 7.49264 13.529 7.54817C13.1542 7.79617 12.8784 7.72802 12.7175 7.29197C12.6803 7.19163 12.6784 7.08057 12.7087 6.97771L13.0785 5.72129C13.0703 5.61212 13.0267 5.5263 12.939 5.47203L11.3809 5.49601C11.4321 4.98675 11.5911 4.56458 11.918 4.27745C12.6538 3.81111 13.6622 3.21982 13.7789 3.03555L15.5926 4.15756H15.5932Z" fill="#DEBB69"/>
<path d="M12.9415 6.82688L13.6508 7.07614L13.5732 7.29449C13.5505 7.35822 13.5044 7.41186 13.4419 7.43836C13.1876 7.5488 12.9958 7.48569 12.8715 7.23454C12.8418 7.17522 12.8406 7.10517 12.8633 7.0427L12.9415 6.82625V6.82688Z" fill="#DEBB69" fill-opacity="0.9"/>
<path d="M13.9727 2L13.6161 2.99705L15.6746 4.26483L16.4956 3.49558L13.9727 2Z" fill="white"/>
</svg>
