<svg width="24" height="24" viewBox="0 0 24 24" fill="none" xmlns="http://www.w3.org/2000/svg">
<circle cx="12" cy="12" r="12" fill="white"/>
<circle cx="12" cy="12" r="11" fill="#503F32"/>
<path fill-rule="evenodd" clip-rule="evenodd" d="M8.87962 7.43981C8.87962 8.23499 8.23499 8.87962 7.43981 8.87962C6.64462 8.87962 6 8.23499 6 7.43981C6 6.64462 6.64462 6 7.43981 6C8.23499 6 8.87962 6.64462 8.87962 7.43981ZM7.83408 13.4545C7.62513 13.1289 7.97365 13.013 8.27564 13.013C10.8067 13.106 13.4774 14.4764 13.9647 15.6836C14.0577 15.9391 14.1043 16.3341 13.7092 16.5896C13.0539 17.0416 12.5084 17.2957 12.1584 17.4587C12.1487 17.4632 12.1392 17.4676 12.1299 17.472C12.0783 17.447 12.0221 17.4205 11.9615 17.3921C11.1203 16.9967 9.43673 16.2053 7.83408 13.4545ZM14.847 10.4819C14.847 10.4819 14.9164 10.4582 14.963 10.4353H14.9598C14.9598 10.3888 13.6359 9.1114 13.6359 9.1114C13.6359 9.1114 13.6824 9.0184 13.6824 8.97187C13.6824 8.97187 13.6824 8.94901 13.6596 8.94901C13.6492 8.94901 13.5964 8.91576 13.535 8.87718C13.4604 8.83027 13.3732 8.77547 13.3347 8.76292C13.2645 8.74005 13.0563 8.69353 13.0327 8.69353C13.009 8.69353 12.9862 8.7164 12.9862 8.74005C12.9862 8.76371 12.9633 8.87962 12.9633 8.87962L13.1494 8.94901L13.1265 9.0184L13.0106 8.99553C12.9412 8.9498 12.5927 8.81023 12.2213 8.76371C11.8499 8.71719 11.432 8.69432 11.3855 8.69432C11.3551 8.69432 11.3248 8.70407 11.2428 8.73037C11.1992 8.74435 11.1411 8.76301 11.0606 8.78736C10.9849 8.81029 10.9166 8.83312 10.8557 8.85349C10.7301 8.89547 10.636 8.92693 10.5733 8.92693C10.4803 8.9498 10.1554 8.9498 10.1554 8.9498C10.1554 8.9498 10.1546 8.92614 10.0159 8.85675L10.0113 8.85446C9.87006 8.78384 9.55019 8.6239 9.43553 8.60128C9.41267 8.60128 9.41267 8.62414 9.41267 8.62414C9.41267 8.62414 9.34328 8.62414 9.34328 8.74005C9.32041 8.71719 9.27389 8.71719 9.27389 8.71719L9.22737 8.8331C9.11146 8.81023 9.01841 8.78657 8.94903 8.76371C9.25023 8.41519 9.43632 7.95076 9.43632 7.43981C9.43632 7.06842 9.34407 6.7199 9.15798 6.41791C9.94806 6.25547 10.9463 6.13956 12.1306 6.13956C15.5441 6.13956 17.2622 7.0219 17.9593 7.5092C18.0294 8.2291 18.1217 9.8313 17.17 12.0604C17.17 12.0485 17.1642 12.0308 17.1584 12.0132C17.1527 11.9959 17.1471 11.9787 17.1471 11.9674C17.0075 11.4336 16.357 10.8067 15.4053 10.6206C15.1262 10.5741 14.7548 10.6435 14.5458 10.8296L14.3597 10.7831V10.7602C14.3597 10.7602 14.7075 10.5284 14.847 10.4819ZM14.6147 10.9001C14.6148 10.9002 14.6146 10.9 14.6147 10.9001ZM14.6147 10.9001C14.6259 10.9111 14.6372 10.9168 14.6485 10.9224C14.6604 10.9284 14.6722 10.9343 14.6838 10.9463C14.8234 11.0393 14.8928 11.0859 14.9156 11.2948C14.9385 11.4572 14.8928 11.6898 14.7761 11.8988C15.1193 12.1318 15.5334 12.1448 15.8993 12.1563C16.2268 12.1666 16.5157 12.1757 16.6803 12.3404C16.611 11.4585 15.3112 10.5766 14.6147 10.9001ZM14.661 12.0612C15.0095 12.4791 15.4976 12.6416 15.9849 12.6416C16.4493 12.6416 16.7284 12.968 16.4264 13.4553C15.6836 14.7327 14.9401 15.5922 14.2438 16.1725C14.4299 14.8715 11.7821 12.7591 9.0192 12.3175C7.76548 12.1085 6.92967 11.8065 6.67419 10.8777C6.48889 10.2043 6.34933 9.6003 6.3028 9.0894C6.62767 9.2983 7.02271 9.4379 7.44062 9.4379C7.812 9.4379 8.16052 9.3448 8.46252 9.1359V9.2053H8.48539C8.48539 9.2053 8.48539 9.2983 8.53191 9.4607C8.50825 9.4836 8.43886 9.6934 8.48539 9.9252C8.55477 10.157 8.81025 10.4125 9.11225 10.5055C9.41424 10.5978 9.69259 10.3659 9.69259 10.3659L9.78563 10.4819L10.0174 10.5284C10.0174 10.5284 9.87788 10.8761 10.0174 11.2018C10.157 11.5274 10.6214 11.7592 10.8304 11.7592C11.0394 11.7592 11.3185 11.5976 11.4573 11.4809C11.596 11.3642 11.7127 11.1324 11.7356 11.0393C11.9446 11.2018 12.1764 11.2719 12.3625 11.1789L12.4555 11.2018L13.0358 11.5266L13.5003 11.6891C13.5003 11.6891 13.5003 11.9445 13.6162 12.0841C13.7321 12.2229 14.0349 12.3624 14.1271 12.3624C14.2194 12.3624 14.452 12.3624 14.661 12.0841V12.0612Z" fill="#DEBB69"/>
</svg>
