<svg width="24" height="24" viewBox="0 0 24 24" fill="none" xmlns="http://www.w3.org/2000/svg">
<circle cx="12" cy="12" r="11.5" stroke="white"/>
<path d="M1 12.0001C1 13.9057 1.48483 15.6982 2.33746 17.261L12 18.2175L21.6625 17.261C22.5152 15.6982 23 13.9058 23 12.0001C23 10.0944 22.5152 8.30206 21.6625 6.73923L12 5.78271L2.33746 6.7393C1.48483 8.30206 1 10.0945 1 12.0001Z" fill="#D80027"/>
<path d="M2.3374 6.73918H21.6624C19.7968 3.31983 16.1694 1 11.9999 1C7.83053 1 4.20307 3.31983 2.3374 6.73918Z" fill="#0052B4"/>
<path d="M11.9999 22.9999C16.1694 22.9999 19.7968 20.68 21.6625 17.2607H2.3374C4.20307 20.68 7.83039 22.9999 11.9999 22.9999Z" fill="#0052B4"/>
<path d="M15.826 14.1524V12.7176H14.8695V10.8045L13.9129 9.84803L12.9563 10.8045V8.89151L11.9999 7.93506L11.0433 8.89151V10.8045L10.0868 9.84803L9.13025 10.8045V12.7176H8.1738V14.1524H7.21729V15.5871H16.7825V14.1524H15.826Z" fill="#F0F0F0"/>
</svg>
