<svg width="24" height="24" viewBox="0 0 24 24" fill="none" xmlns="http://www.w3.org/2000/svg">
<circle cx="12" cy="12" r="12" fill="white"/>
<circle cx="12" cy="12" r="11" fill="#503F32"/>
<path fill-rule="evenodd" clip-rule="evenodd" d="M14.67 9L12.02 16.68L9.3 9.06C9.96 9.06 10.47 9.28 10.72 9.91L12.02 13.44L13.28 9.88C13.41 9.32 13.87 9.02 14.67 9ZM2 9.02C2 9.02 3.36 8.91 4.55 9.98C5.74 11.05 7.95 13.06 7.95 13.06L6.58 9.02C6.58 9.02 7.58 8.74 8.18 10.55C8.78 12.36 10.29 16.54 10.29 16.54L2 9.02ZM22 9.02C22 9.02 20.64 8.91 19.45 9.98C18.26 11.05 16.05 13.06 16.05 13.06L17.42 9.02C17.42 9.02 16.42 8.74 15.82 10.55C15.22 12.36 13.71 16.54 13.71 16.54L22 9.02Z" fill="#DEBB69"/>
</svg>
