<svg xmlns="http://www.w3.org/2000/svg" xmlns:xlink="http://www.w3.org/1999/xlink" width="24" height="24"><defs><linearGradient id="c" x1="50%" x2="50%" y1="0%" y2="100%"><stop offset="0%" stop-color="#FFD666"/><stop offset="100%" stop-color="#FFAD35"/></linearGradient><linearGradient id="d" x1="50%" x2="50%" y1="0%" y2="100%"><stop offset="0%" stop-color="#FFD666"/><stop offset="100%" stop-color="#FFAD35"/></linearGradient><linearGradient id="e" x1="66.33%" x2="45.59%" y1="23.79%" y2="63.17%"><stop offset="0%" stop-color="#FFC200" stop-opacity="0"/><stop offset="20.3%" stop-color="#FB0" stop-opacity=".2"/><stop offset="65.75%" stop-color="#FFA700" stop-opacity=".5"/><stop offset="100%" stop-color="#F80" stop-opacity=".85"/></linearGradient><linearGradient id="f" x1="54.15%" x2="48.88%" y1="-40.17%" y2="95.31%"><stop offset="0%" stop-color="#FFC200" stop-opacity="0"/><stop offset="20.3%" stop-color="#FB0" stop-opacity=".2"/><stop offset="49.9%" stop-color="#FFA700" stop-opacity=".5"/><stop offset="85.2%" stop-color="#F80" stop-opacity=".85"/><stop offset="100%" stop-color="#FF7800"/></linearGradient><linearGradient id="g" x1="50%" x2="50%" y1="0%" y2="100%"><stop offset="0%" stop-color="#FFD666"/><stop offset="100%" stop-color="#FFAD35"/></linearGradient><linearGradient id="h" x1="50%" x2="50%" y1="0%" y2="100%"><stop offset="0%" stop-color="#FFD666"/><stop offset="100%" stop-color="#FFAD35"/></linearGradient><linearGradient id="i" x1="54.7%" x2="48.73%" y1="-40.17%" y2="95.31%"><stop offset="0%" stop-color="#FFC200" stop-opacity="0"/><stop offset="20.3%" stop-color="#FB0" stop-opacity=".2"/><stop offset="49.9%" stop-color="#FFA700" stop-opacity=".5"/><stop offset="85.2%" stop-color="#F80" stop-opacity=".85"/><stop offset="100%" stop-color="#FF7800"/></linearGradient><linearGradient id="j" x1="50%" x2="50%" y1="0%" y2="100%"><stop offset="0%" stop-color="#FFD666"/><stop offset="100%" stop-color="#FFAD35"/></linearGradient><linearGradient id="k" x1="66.33%" x2="45.59%" y1="-1.39%" y2="75.83%"><stop offset="0%" stop-color="#FFC200" stop-opacity="0"/><stop offset="20.3%" stop-color="#FB0" stop-opacity=".2"/><stop offset="49.9%" stop-color="#FFA700" stop-opacity=".5"/><stop offset="85.2%" stop-color="#F80" stop-opacity=".85"/><stop offset="100%" stop-color="#FF7800"/></linearGradient><linearGradient id="l" x1="50%" x2="50%" y1="0%" y2="100%"><stop offset="0%" stop-color="#FFD666"/><stop offset="100%" stop-color="#FFAD35"/></linearGradient><linearGradient id="m" x1="66.33%" x2="45.59%" y1="-9.77%" y2="80.03%"><stop offset="0%" stop-color="#FFC200" stop-opacity="0"/><stop offset="20.3%" stop-color="#FB0" stop-opacity=".2"/><stop offset="49.9%" stop-color="#FFA700" stop-opacity=".5"/><stop offset="85.2%" stop-color="#F80" stop-opacity=".85"/><stop offset="100%" stop-color="#FF7800"/></linearGradient><circle id="a" cx="12" cy="12" r="11.8"/><circle id="n" cx="12" cy="12" r="11.8"/></defs><g fill="none" fill-rule="evenodd"><circle cx="12" cy="12" r="11.8" fill="#3D3D3D" fill-rule="nonzero"/><mask id="b" fill="#fff"><use xlink:href="#a"/></mask><g fill-rule="nonzero" mask="url(#b)"><g transform="translate(5.9 2.7)"><path fill="#FFC450" d="M4.2 10.6A4.19 4.19 0 0 1 0 6.4V5.22a.5.5 0 0 1 .15-.35.5.5 0 0 1 .35-.15l3.03.01a.34.34 0 0 1 0 .68H.68v.97a3.53 3.53 0 0 0 4.08 3.49l.1-.02a.34.34 0 0 1 .12.67l-.11.02c-.23.04-.45.06-.67.06m3.89 0a4.2 4.2 0 0 1-.67-.06l-.12-.02a.34.34 0 0 1 .12-.67l.1.02a3.5 3.5 0 0 0 4.08-3.49v-.97H8.76a.34.34 0 0 1 0-.68h3.02a.5.5 0 0 1 .5.5v1.15a4.21 4.21 0 0 1-4.2 4.22"/><path fill="url(#c)" d="m3.04 3.13 3.1-1.63 3.03 1.63z"/><path fill="url(#d)" d="M3.9 15.56h4.5C6.52 13.2 6.71 9.8 6.71 9.8H5.56s.2 3.41-1.67 5.77"/><path fill="url(#e)" d="M7.38 3.13h1.79L6.14 1.5z"/><path fill="url(#f)" d="M6.14 9.8h-.58s.03.52-.04 1.3a6.2 6.2 0 0 0 1.26 4.46H8.4C6.53 13.2 6.72 9.8 6.72 9.8h-.58Z"/><path fill="url(#g)" d="M2.75 3.75v2.99c0 1.77.84 3.43 2.26 4.47.67.5 1.6.5 2.27 0a5.56 5.56 0 0 0 2.26-4.47V3.75h-6.8Z"/><rect width="1" height="1" x="5.6" y=".75" fill="url(#h)" rx=".5"/><path fill="url(#i)" d="M7.92 3.75v2.99a5.56 5.56 0 0 1-2.58 4.67c.62.29 1.37.22 1.94-.2a5.56 5.56 0 0 0 2.26-4.47V3.75H7.92Z"/><path fill="url(#j)" d="M2.5 4.22a.2.2 0 0 1-.2-.2V3.2c0-.11.1-.2.2-.2h7.28c.1 0 .2.09.2.2v.82c0 .11-.1.2-.2.2H2.51Z"/><path fill="url(#k)" d="M9.78 3H8.36v1.22h1.42c.1 0 .2-.09.2-.2V3.2a.2.2 0 0 0-.2-.2"/><path fill="url(#l)" d="M2.31 17a.16.16 0 0 1-.15-.2l.57-1.56c.03-.06.09-.1.15-.1h6.55c.07 0 .13.04.15.1l.57 1.55c.04.1-.04.22-.15.22H2.31Z"/><path fill="url(#m)" d="m10.15 16.8-.57-1.56a.16.16 0 0 0-.15-.1H7.87L8.56 17H10c.11 0 .2-.11.15-.22"/></g></g><mask id="o" fill="#fff"><use xlink:href="#n"/></mask><circle cx="12" cy="12" r="11.5" stroke="#FFF" mask="url(#o)"/></g></svg>