<?xml version="1.0" encoding="UTF-8"?>
<svg width="24px" height="24px" viewBox="0 0 24 24" version="1.1" xmlns="http://www.w3.org/2000/svg" xmlns:xlink="http://www.w3.org/1999/xlink">
    <!-- Generator: Sketch 63.1 (92452) - https://sketch.com -->
    <title>esports_starcraft2</title>
    <desc>Created with Sketch.</desc>
    <g id="Classifier" stroke="none" stroke-width="1" fill="none" fill-rule="evenodd">
        <g id="esports_starcraft2">
            <path d="M12,0 C18.627417,0 24,5.372583 24,12 C24,18.627417 18.627417,24 12,24 C5.372583,24 0,18.627417 0,12 C0,5.372583 5.372583,0 12,0 Z M12,1 C5.92486775,1 1,5.92486775 1,12 C1,18.0751322 5.92486775,23 12,23 C18.0751322,23 23,18.0751322 23,12 C23,5.92486775 18.0751322,1 12,1 Z" id="Oval" fill="#FFFFFF" fill-rule="nonzero"></path>
            <path d="M12,1 C5.92486775,1 1,5.92486775 1,12 C1,18.0751322 5.92486775,23 12,23 C18.0751322,23 23,18.0751322 23,12 C23,5.92486775 18.0751322,1 12,1 Z" id="Path-Copy" fill="#503F32" fill-rule="nonzero"></path>
            <path d="M11.3575948,15.3580133 L11.3575948,18.5311719 C10.4719668,17.9566625 9.6426145,17.4295242 9.11120213,16.5519102 L9.11120213,15.3580133 L11.3575948,15.3580133 Z M12.6586913,14.4563575 C13.4975713,15.2028993 13.9760027,15.4569407 15.0376699,15.6403706 L15.0376699,16.586103 C14.3803499,17.2257033 13.7444893,17.986225 12.8006269,18.4708894 C12.8006269,17.7208749 12.8116683,16.994457 12.7962637,16.2685734 C12.7875375,15.8605755 12.878451,15.4457212 12.6706232,15.0449359 C12.5964498,14.9020208 12.6586913,14.6883161 12.6586913,14.4563575 Z M14.1838217,9.97951997 C14.1153471,10.2267051 14.0562221,10.4550129 13.9889052,10.6809166 C13.7616658,11.4422396 13.7343294,12.3293813 14.0921958,12.957406 C14.5739218,13.8029643 15.2238512,14.4864631 16.3175741,14.5023129 C16.5082165,14.5050733 16.6975233,14.6011513 16.9473797,14.6708725 C16.6797145,14.9684563 16.3635206,15.0373761 16.0455458,15.0568766 C15.6450276,15.0813636 15.239701,15.0888433 14.8403403,15.0562533 C14.3239763,15.0140466 13.8430517,14.8153903 13.4482323,14.4903811 C12.9549306,14.084075 12.557885,13.5845402 12.3389268,12.9683583 C12.1340374,12.391979 11.9420593,11.8130173 12.194498,11.1983491 C12.2111492,11.1578343 12.2375951,11.1111754 12.2303826,11.0727976 C12.1593258,10.6963212 12.3317142,10.3590239 12.4099836,9.97951997 L14.1838217,9.97951997 Z M9.0319355,9.95665356 C9.09818396,10.0660882 9.15009639,10.1919959 9.23620158,10.2869164 C9.57643728,10.6625024 9.9428518,11.0072793 10.2481824,11.4227569 C10.6437142,11.9611146 11.1479682,12.4183537 11.5812545,12.9309778 C11.7795547,13.1656968 11.966012,13.4312249 12.0767823,13.7145617 C12.268048,14.2036784 11.6833876,14.8979516 11.0876857,14.9182535 C10.6869003,14.9319662 10.2851355,14.9208358 9.88390492,14.9208358 L6,14.9208358 L7.2197196,13.7012052 L7.2197196,13.7012052 C7.36886768,13.8016464 7.56672262,13.9347666 7.73189854,14.0459821 L10.2527236,14.0459821 C10.233134,13.7284526 10.0572729,13.5346936 9.87197307,13.3366606 C9.33263582,12.7601922 8.76631836,12.2035804 8.28058537,11.5843711 C7.96456954,11.1815377 7.61400478,10.8205548 7.27020734,10.4477292 C7.1554301,10.3232462 7.08366094,10.1592278 6.95659568,9.95665356 L9.0319355,9.95665356 Z M13.9527891,8.53130551 C15.2460587,8.54457301 16.5397736,8.53513439 17.8332213,8.53655909 C17.8982231,8.53664813 17.9634031,8.55258694 18,8.5573953 C17.6104341,8.94696116 17.2194436,9.33795173 16.7961302,9.76126513 C16.6655032,9.67685177 16.4687167,9.54987556 16.1765646,9.36128116 L14.8871687,9.36122132 C14.2228441,9.36106745 13.5344265,9.36058662 12.8459768,9.35914411 C12.8308394,9.35914411 12.815702,9.32682128 12.7741186,9.27936102 C13.050421,8.85177353 13.3746288,8.52542863 13.9527891,8.53130551 Z M11.9194957,8.52341625 L11.0317404,9.41109634 C10.9389695,9.50385893 10.8483231,9.59449978 10.7599695,9.68285331 C10.6810769,9.60387162 10.542525,9.46531973 10.4417276,9.36452235 L8.01766234,9.36417615 C7.49497482,9.3639026 6.97939085,9.36341821 6.46379264,9.36256339 C6.44634008,9.36256339 6.42906562,9.33326803 6.3957633,9.30343842 C6.47340935,9.01618368 6.74891033,8.88938555 6.9029558,8.67737268 C8.09240057,8.67737268 9.26866688,8.68200295 10.4448442,8.67514659 C10.9380568,8.67229719 11.4386601,8.75582011 11.9194957,8.52341625 Z M14.3563615,6.05272273 C14.5111193,6.05405839 14.6684594,6.08655931 14.8196555,6.12520424 C15.3719931,6.26607126 15.9223718,6.41513029 16.6077406,6.59669025 C15.8022519,6.86693766 15.5298675,6.99079734 15.0221407,8.10971956 L13.302263,8.10971956 L12.8928141,8.38584055 C12.8234161,8.43262143 12.7525671,8.48037849 12.6789577,8.53000548 L12.6789577,6.54914095 C12.8856279,6.46410429 13.1199907,6.32448388 13.3714499,6.27782502 C13.5705515,6.24096096 13.7628857,6.2222618 13.9502335,6.12947834 C14.0699082,6.07035337 14.2202138,6.05147612 14.3563615,6.05272273 Z M9.83444118,6 C10.3278319,6.17051855 10.8411684,6.34789345 11.3586009,6.52669305 L11.3586009,8.09795689 L9.0078492,8.09795689 C8.89859267,7.31757855 8.35498132,6.91919736 7.61814531,6.58902359 C8.39603044,6.38235333 9.11016032,6.19251232 9.83444118,6 Z" id="Combined-Shape" fill="#DEBB69"></path>
        </g>
    </g>
</svg>