<svg xmlns="http://www.w3.org/2000/svg" width="24" height="24"><g fill="none" fill-rule="evenodd"><g fill-rule="nonzero"><path fill="#FF4B55" d="M22.85 8.17H1.15a11.5 11.5 0 0 1 21.7 0Z"/><path fill="#464655" d="M1.16 15.85h21.68a11.5 11.5 0 0 1-21.68 0Z"/><path fill="#F5F5F5" d="M1.15 8.17h21.7a11.48 11.48 0 0 1 0 7.68H1.14a11.48 11.48 0 0 1 0-7.68Z"/><g fill="#73AF00"><path d="M14.34 11.25c-.04-.04-.1-.17-.08-.22.02-.06 0-.06.08-.02.15.07.25.04.35-.1l.09-.12.1.09.13.07c.05-.02.14-.22.14-.28 0-.1.03-.07.05.03.05.18-.03.5-.14.54-.05.02-.1.02-.17-.03-.1-.06-.11-.06-.16 0-.1.14-.26.16-.4.04"/><path d="M15.01 10.81c-.2-.1-.43-.5-.36-.59.07-.09.14-.1.32-.08.34.05.42.14.38.45-.06.24-.14.32-.34.22M11.33 11.67c-.21.12-.52.14-.52.47-.46.02-1 .04-1.48.03.13-.17.96-.94 1.3-1.24a.2.2 0 0 0 .05-.22v-.02a.17.17 0 0 0-.28-.04l-.74.68-.64.66a.27.27 0 0 0 .19.46h1.95c.1 0-.03-.39.11-.39.1 0 .11.14.1.28 0 .12-.09.2-.2.2l-2.54.01a.12.12 0 0 1-.13-.12v-.15c0-.12-.14-.2-.24-.13h-.01a.14.14 0 0 0-.06.17l.02.14c0 .07-.06.12-.12.12-.27.01-.57.01-.66-.15-.04-.09-.14-.13-.24-.08a.19.19 0 0 0-.1.26c.11.18.2.39.15.68a.46.46 0 0 1-.19.2c-.09.06-.03.2.07.17a.6.6 0 0 0 .48-.48h3.88c.14 0 .26-.11.26-.25v-.85c-.04-.25-.3-.24-.41-.4ZM16.25 10.56l.18.1c.07.04.1.12.05.19a.19.19 0 0 0-.02.06v1.67c.11.02.18 0 .23-.03a.1.1 0 0 1 .16.05l.14.42a.13.13 0 0 1-.13.16h-.65a.1.1 0 0 1-.1-.1v-2.44a.1.1 0 0 1 .14-.08ZM15.46 10.97v1.45c0 .06-.05.12-.11.12a.12.12 0 0 1-.12-.12v-1.17c0-.07-.08-.1-.13-.06l-.15.14a.14.14 0 0 0-.05.1v1c0 .05-.06.1-.12.1h-.01a.12.12 0 0 1-.12-.1v-.7c0-.06-.08-.1-.13-.05-.15.14-.2.17-.27.26 0 .04.04 0 .06.03v.23c-.58-.11-.63.35-.6.85 0 .07.06.13.13.13h1.82c.07 0 .13-.05.13-.12V10.8a.09.09 0 0 0-.15-.07l-.13.12a.16.16 0 0 0-.05.12Zm-1.34 1.55c-.04-.1.16-.14.19-.05 0 .11-.15.12-.2.05Z"/><path d="M8.34 13.36c.2 0 .35.17.35.36 0 .2-.15.36-.35.36a.36.36 0 0 1-.36-.36c0-.19.16-.36.36-.36M12.24 10.61l.11.06c.07.03.1.11.05.18a.2.2 0 0 0-.03.06v1.67c.13.03.2 0 .24-.04a.1.1 0 0 1 .15.05l.11.33a.2.2 0 0 1-.2.27h-.5a.15.15 0 0 1-.15-.15v-2.3c0-.12.13-.19.22-.13Z"/></g></g><circle cx="12" cy="12" r="11.5" stroke="#FFF"/></g></svg>