<svg xmlns="http://www.w3.org/2000/svg" width="24" height="24"><g fill="none" fill-rule="evenodd"><path fill="#FFD250" fill-rule="nonzero" d="M12 24a12 12 0 1 1 0-24 12 12 0 0 1 0 24Z"/><path fill="#963C3C" fill-rule="nonzero" d="M18.47 1.9a12.05 12.05 0 0 1 4.29 4.78v10.64a12.05 12.05 0 0 1-4.29 4.78H9.1c-.23 0-.41-.28-.41-.63V2.53c0-.35.19-.64.41-.64h9.37Z"/><path fill="#5AA587" fill-rule="nonzero" d="M4.34 2.76v18.48a12.05 12.05 0 0 1-3.1-3.92V6.68a12.05 12.05 0 0 1 3.1-3.92Z"/><path fill="#FF7350" fill-rule="nonzero" d="M5.53 22.1a12.04 12.04 0 0 1-1.19-.86V2.76c.38-.31.77-.6 1.18-.87h1.42c.28 0 .5.23.5.52v19.18a.51.51 0 0 1-.5.51H5.52Z"/><g fill="#FFD250" fill-rule="nonzero"><path d="M18.43 15.09c-.02-.1.06-.2.18-.37l.12-.19h-.03c-.07 0-.17.01-.26-.09a.19.19 0 0 1-.05-.13c0-.11.1-.21.15-.27a2.9 2.9 0 0 1-.4-.32c-.23-.24-.5-.35-.8-.34-.02.3.13.48.3.69l.13.18c.21.3.17.9.14.96-.03.07-.2.23-.42.2a.4.4 0 0 0-.31.09.2.2 0 0 0-.07.14v.02c.03.02.15-.02.23-.06a.06.06 0 0 1 .07 0c.17.16.33.03.35.01a.06.06 0 0 1 .08 0c.16.14.34-.01.34-.02a.06.06 0 0 1 .08 0c.07.05.13.06.2.04a.15.15 0 0 0 .07-.07 1.93 1.93 0 0 0-.05-.23 2.73 2.73 0 0 1-.05-.24Z"/><path d="M20.23 9.47c-.05 0-.09.01-.11.04-.05.04-.05.12-.05.12a.06.06 0 0 1-.07.07c-.09-.01-.22-.11-.47-.3-.39-.28-.98-.71-1.55-.79-.66-.08-1.24.13-1.4.5-.16.42.2.8.2.8a.06.06 0 0 1 0 .07.3.3 0 0 0 .05.37.21.21 0 0 1 .09-.12c.1-.06.23 0 .4.06l.37.12c.36.09.8 0 1.18-.06l.39-.06c.3-.04.61.1.7.3.04.1.06.32-.25.54-.57.41-3.14.22-3.29.21h-.01a.55.55 0 0 0 .15.14.06.06 0 0 1-.02.12h-.26l.02.25a.06.06 0 0 1-.07.07 1.4 1.4 0 0 1-.4-.13l-.29.2a.06.06 0 0 1-.09-.04l-.11-.3-.14.26a.06.06 0 0 1-.05.03.06.06 0 0 1-.05-.02l-.12-.19a1.18 1.18 0 0 1-.22.22.06.06 0 0 1-.1-.03l-.05-.19c-.06.07-.13.16-.22.23a.06.06 0 0 1-.1-.05l-.01-.3-.22.1a.06.06 0 0 1-.07-.1c.1-.16.18-.36.18-.46-.06.07-.14.14-.24.22-.2.17-.47.38-.65.75-.14.25-.23.7-.06 1.12.14.35.45.62.9.79a.98.98 0 0 1-.02-.2c0-.31.06-.6.06-.61a.06.06 0 0 1 .12.02s-.07.29-.06.59c0 .15.07.33.13.5.08.24.16.48.13.68-.05.27-.4.34-.71.3a.27.27 0 0 0-.24.05.28.28 0 0 0-.08.23c0 .04.02.05.02.06.04.01.13-.01.18-.04a.06.06 0 0 1 .08.02c.12.14.3 0 .3-.01a.06.06 0 0 1 .09 0 .22.22 0 0 0 .15.08c.1 0 .2-.08.2-.08a.06.06 0 0 1 .07-.02c.2.1.3.04.31.04.18-.15.08-.5.07-.5a.06.06 0 0 1 .05-.08.71.71 0 0 0 .44-.32c-.12 0-.21-.04-.27-.13-.09-.14-.04-.35.11-.54.27-.33.44-.98.41-1.25a.06.06 0 0 1 .13 0c.02.23-.09.71-.28 1.07a4.67 4.67 0 0 0 .7-.27c.23-.1.47-.21.75-.3.49-.15.91-.05 1.27.31.17.18.36.3.58.45l.3.2c.29.21.28.38.28.56v.17c.03.3-.2.34-.31.36a1.26 1.26 0 0 1-.1.02c-.12.03-.29.06-.33.2v.04c.01 0 .1-.01.18-.05a.06.06 0 0 1 .08.04c.03.06.06.07.07.08.08.02.2-.05.24-.08a.06.06 0 0 1 .08 0c.06.07.12.09.17.08a.18.18 0 0 0 .11-.07.06.06 0 0 1 .05-.03.06.06 0 0 1 .05.02s.05.05.16.09c.07.02.09 0 .1-.01.02-.05.01-.16-.05-.23a.5.5 0 0 1-.09-.38.4.4 0 0 1 .2-.28c.18-.12.22-.25.2-.27a.33.33 0 0 0-.03 0c-.09-.02-.23-.04-.37-.3-.13-.24 0-.6.14-1.04.07-.22.15-.44.2-.66.12-.62-.28-1.1-.28-1.1a.06.06 0 0 1 0-.09c.28-.26.4-.5.36-.73-.04-.22-.27-.38-.44-.45a2.58 2.58 0 0 0-1 0c-.33.05-.63.08-.83.04a.32.32 0 0 1-.22-.14.34.34 0 0 1-.04-.18.41.41 0 0 0-.17.13.06.06 0 0 1-.05.02c-.02 0-.03 0-.05-.02a.27.27 0 0 1-.06-.2.45.45 0 0 1 .13-.25c-.22-.08-.4.11-.4.12a.06.06 0 0 1-.08.01.38.38 0 0 1-.17-.33.34.34 0 0 1 .18-.3.26.26 0 0 1 .22-.02.3.3 0 0 1 .14.12.48.48 0 0 0 .09-.26.06.06 0 0 1 .01-.04.06.06 0 0 1 .05-.02.42.42 0 0 1 .33.15c.1.14.11.32.1.43.24-.11.2-.39.2-.4a.06.06 0 0 1 .09-.06c.24.08.33.3.35.46a.23.23 0 0 0 .07-.15.06.06 0 0 1 .12-.03.9.9 0 0 0 .34.34l-.07-.17a.06.06 0 0 1 .08-.08c.12.06.22.14.32.21.12.1.24.2.42.28.17.08.3.06.36.04a.22.22 0 0 0 .12-.11c.03-.07.03-.16 0-.22-.03-.04-.07-.06-.13-.07Zm-7.17.99s.46.23.87.27c.02 0 .04.03.05.06a.15.15 0 0 1 0 .1l-.02.03.28-.04-.14-.28a1.5 1.5 0 0 1-.85-.3c-.08-.06-.21-.17-.28-.11 0 0-.03.05-.03.1 0 .08.05.13.12.17Zm1.54-.99a.21.21 0 0 0-.06.01c-.1.03-.16.17-.17.27-.02.13.01.3.15.4.17.14.36.05.47-.07.04-.04.2-.24.08-.45-.19-.1-.35-.16-.46-.16Z"/><path d="M13.83 10.93c.03.07.07.13.11.16a.22.22 0 0 1 .07-.08.2.2 0 0 1 .17-.03h.03a.13.13 0 0 1 .07.08c.05.1-.03.31-.1.46l.12-.07a.06.06 0 0 1 .09.06l.02.27c.1-.1.17-.21.17-.21a.06.06 0 0 1 .1.01l.08.22c.1-.09.18-.2.18-.2a.06.06 0 0 1 .05-.04c.02 0 .04.01.05.03l.1.17.15-.3a.06.06 0 0 1 .06-.03.06.06 0 0 1 .05.04l.14.37.27-.17a.06.06 0 0 1 .06 0 1 1 0 0 0 .3.11l-.02-.24a.06.06 0 0 1 .06-.06h.15a1.35 1.35 0 0 1-.08-.1.06.06 0 0 1-.01-.04 1.2 1.2 0 0 1-.42-.09l-.1.14a.06.06 0 0 1-.08.02l-.35-.23-.07.17a.06.06 0 0 1-.1.02 7.42 7.42 0 0 0-.21-.23c-.05.05-.14.13-.24.18a.06.06 0 0 1-.08-.03l-.1-.26a.06.06 0 1 1 .12-.04l.07.18c.1-.07.18-.16.18-.16a.06.06 0 0 1 .09 0l.2.2.05-.15a.06.06 0 0 1 .09-.03l.36.25.1-.14a.06.06 0 0 1 .07-.02c.16.08.34.1.45.1a.78.78 0 0 1-.08-.32c-.09-.04-.2-.1-.31-.2l-.05.11a.06.06 0 0 1-.09.03l-.17-.13-.02.13a.06.06 0 0 1-.1.05 1.22 1.22 0 0 1-.23-.2.06.06 0 1 1 .1-.07l.12.11.02-.14a.06.06 0 0 1 .1-.04l.19.15.05-.12a.06.06 0 0 1 .1-.02c.15.14.31.22.41.26a3.01 3.01 0 0 1-.05-.38 1.19 1.19 0 0 1-.34-.29.64.64 0 0 1-.02.2.06.06 0 0 1-.1.03 1.05 1.05 0 0 1-.23-.19.8.8 0 0 1-.05.16.06.06 0 0 1-.08.02.97.97 0 0 1-.18-.12c-.01.08-.02.17-.04.21a.06.06 0 0 1-.09.03 1.99 1.99 0 0 1-.2-.13l-.03.1a.06.06 0 0 1-.09.04.89.89 0 0 1-.28-.2.06.06 0 1 1 .1-.08c.04.06.12.1.17.14l.03-.12a.06.06 0 0 1 .1-.03l.19.14.03-.26a.06.06 0 0 1 .1-.02.53.53 0 0 0 .18.16l.06-.2a.06.06 0 0 1 .05-.04.06.06 0 0 1 .06.03.6.6 0 0 0 .2.2l-.01-.28a.06.06 0 0 1 .11-.04c.13.25.34.39.45.45.07-.67-.13-.93-.13-.93a.06.06 0 0 1 .01-.1.54.54 0 0 0 .22-.29c-.25.24-.64.34-.83.37l.1.11a.06.06 0 0 1-.05.1 1.23 1.23 0 0 1-.52-.05l.04.08a.06.06 0 0 1 0 .06.06.06 0 0 1-.05.03c-.2-.01-.36-.09-.5-.16a.22.22 0 0 1-.06.12.23.23 0 0 1-.16.07.2.2 0 0 1-.11-.03.21.21 0 0 1-.1-.22.19.19 0 0 1 .13-.16c.1-.02.2.03.33.1.1.05.23.11.36.14l-.07-.14a.06.06 0 0 1 .09-.07s.15.12.5.12l-.1-.1a.06.06 0 0 1 .05-.1s.5-.06.81-.3l-.18.02A.06.06 0 0 1 16.1 9a.66.66 0 0 0-.35-.25.69.69 0 0 1-.15.23.06.06 0 0 1-.1 0 .48.48 0 0 0-.35-.24c.01.13-.08.24-.14.28a.06.06 0 0 1-.07 0c-.26-.24-.46-.17-.55-.12a.18.18 0 0 1 0 .15c-.12.25-.9.3-1.05.31a.06.06 0 0 1-.06-.07.16.16 0 0 0-.02-.13.17.17 0 0 0-.1-.08c-.05-.01-.12 0-.17.04-.05.06-.06.17-.01.31.08.26.33.51.49.65a.68.68 0 0 1 0-.06.06.06 0 0 1 .1-.03.6.6 0 0 0 .17.15l.03-.19a.06.06 0 0 1 .05-.05.06.06 0 0 1 .07.04c.05.13.4.55.53.7a.06.06 0 0 1-.06.1c-.22-.03-.54.04-.55.04a.06.06 0 0 1-.06-.1l.05-.05a4.4 4.4 0 0 1-.73-.15l-.1.28.27-.03a.06.06 0 0 1 .05.02.06.06 0 0 1 .01.06l-.05.13.23-.06a.06.06 0 0 1 .07.04.5.5 0 0 0 .1.15l.06-.14a.06.06 0 0 1 .05-.03c.03 0 .05.01.06.03Zm-.79 3.11c.24.16.44-.02.54-.16a1.36 1.36 0 0 1-.48-.6 1.32 1.32 0 0 1-.06-.23 5.82 5.82 0 0 1-.64-.6.35.35 0 0 1-.05.1c.02.08 0 .14-.02.18a.22.22 0 0 1-.02.16c.04.06.05.12.03.18a.24.24 0 0 1-.03.04c.04.04.1.14.1.33 0 .13.04.21.08.25a.12.12 0 0 1 .07-.03c.07-.01.13.06.22.15.07.07.15.16.26.23Zm-1.18-1.65h-.01c-.1 0-.18 0-.25-.02-.01.02 0 .08.02.1a.06.06 0 0 1 .03.04.06.06 0 0 1-.03.05s-.04.04-.04.06c0 .03.03.06.05.07a.06.06 0 0 1 0 .09l-.02.07s0 .03.04.05a.06.06 0 0 1 .01.08s-.01.03 0 .05c0 .03.04.05.06.06a.59.59 0 0 0 .21.05h.01a.55.55 0 0 0 .2-.03c.05-.02.1-.05.11-.09 0 0 .02-.03-.03-.09a.06.06 0 0 1 0-.08s.04-.05.01-.1a.06.06 0 0 1 .01-.07s.05-.05.01-.13a.06.06 0 0 1 .02-.06.21.21 0 0 0 .06-.15l-.02-.03c-.13.05-.28.08-.45.08Zm.55-4.23c-.25.13-.77.55-.79 1.68l.02 1.91c.03.07.02.15 0 .2a.82.82 0 0 0 .42.01.23.23 0 0 1 .03-.2c-.01-2.29.2-3.26.32-3.6Z"/><path d="M12.43 12.1c0-.15-.07-.27-.14-.3-.02-.01-.07-.04-.1.01-.04.1-.02.15 0 .21a.26.26 0 0 1 0 .11c0 .05-.03.07-.04.08-.09.06-.4.13-.62-.04-.03-.02-.04-.08-.02-.12a.5.5 0 0 0 .02-.22l-.02-.01a.23.23 0 0 0-.05 0 .2.2 0 0 0-.18.09.28.28 0 0 0-.02.19c.03.27.25.43.58.43.23 0 .43-.08.53-.23a.36.36 0 0 0 .06-.2Zm-.52 1.33a.06.06 0 0 1 .06-.02c.04 0 .15.03.2-.02.03-.02.03-.06.02-.09-.01 0-.03-.04-.09-.01-.06.02-.15.04-.2 0a.1.1 0 0 1-.02-.04h-.05a.1.1 0 0 1-.02.04c-.06.05-.14.02-.2 0-.07-.03-.08 0-.1.01 0 .03 0 .07.02.1.06.04.16.02.2 0a.07.07 0 0 1 .06.03c.02.02.02.04.01.06a1.42 1.42 0 0 1-.13.22c.08.11.14.3-.01.48a.06.06 0 0 1-.05.03.06.06 0 0 1-.05-.03c0-.02-.04-.05-.07-.06l-.05.01c-.02.01-.03.05-.01.1.02.06.1.1.2.1a.06.06 0 0 1 .04.1l-.1.09.16.04a.06.06 0 0 1 .05.04s.02.09.07.16a.64.64 0 0 0 .07-.16.06.06 0 0 1 .05-.04l.16-.04-.1-.09a.06.06 0 0 1 .04-.1c.1 0 .18-.04.2-.1.02-.05.01-.08 0-.1h-.05c-.04 0-.07.04-.08.05a.06.06 0 0 1-.1 0c-.15-.17-.08-.37 0-.48a1.42 1.42 0 0 1-.14-.22.06.06 0 0 1 0-.06Z"/></g><path fill="#464655" fill-rule="nonzero" d="M20.46 9.47a.27.27 0 0 0-.23-.12.25.25 0 0 0-.2.07.26.26 0 0 0-.07.13 3.67 3.67 0 0 1-.35-.24c-.4-.3-1.02-.74-1.61-.82-.49-.06-1.04.04-1.34.32a.96.96 0 0 0 0-.07.06.06 0 0 0 0-.03h-.01a.06.06 0 0 0-.03-.03.06.06 0 0 0-.03 0 .06.06 0 0 0-.03.02.47.47 0 0 1-.37.2c-.23-.27-.47-.28-.48-.28-.03 0-.05.02-.06.05a.42.42 0 0 1-.08.17c-.2-.25-.48-.22-.5-.22a.06.06 0 0 0-.04.09c.03.07 0 .14-.04.18-.4-.31-.7-.06-.7-.05a.06.06 0 0 0-.02.08c.03.04.03.06.02.08-.06.13-.53.21-.87.24a.3.3 0 0 0-.05-.15.3.3 0 0 0-.18-.13.3.3 0 0 0-.28.08c-.08.1-.1.24-.04.43.1.3.38.58.54.72a1.55 1.55 0 0 1-.11-.05c-.1-.05-.26-.13-.38-.06-.06.03-.1.1-.1.18 0 .04.03.13.14.18l-.13.37a.06.06 0 0 0 .06.08l.27-.03-.06.15a.06.06 0 0 0 .07.08l.3-.08c.07.16.17.21.18.21a.06.06 0 0 0 .08-.02l.05-.1a.65.65 0 0 0 .13.13l-.06.05c-.2.17-.48.4-.68.78-.1.2-.18.5-.16.81a5.06 5.06 0 0 1-.62-.61l.07-.06a.3.3 0 0 0 .1-.21.34.34 0 0 0-.23-.31.24.24 0 0 0-.12-.01c0-2.65.3-3.46.36-3.6A.06.06 0 0 0 12.5 8c-.04.01-.98.3-1 1.85l.01 1.84c-.12 0-.24.03-.31.1a.25.25 0 0 0-.06.23c.03.16.15.27.34.33a.2.2 0 0 0 0 .07.27.27 0 0 0 .02.1.19.19 0 0 0-.04.11.18.18 0 0 0 .05.13.2.2 0 0 0-.02.12.17.17 0 0 0 .05.1.17.17 0 0 0 0 .1.19.19 0 0 0 .06.1c-.1-.02-.16.02-.19.07-.04.09-.02.2.05.25a.28.28 0 0 0 .18.05.52.52 0 0 1-.09.12.06.06 0 0 0 0 .09s.14.15.06.3a.22.22 0 0 0-.1-.04.18.18 0 0 0-.14.03c-.06.05-.09.14-.06.23.03.07.08.14.18.17l-.08.07a.06.06 0 0 0 .02.1l.24.07a.63.63 0 0 0 .14.23.08.08 0 0 0 .05.01.06.06 0 0 0 .04-.01.63.63 0 0 0 .13-.23l.25-.06a.06.06 0 0 0 .02-.1l-.08-.08a.27.27 0 0 0 .17-.17c.03-.09 0-.18-.05-.23a.18.18 0 0 0-.15-.03.22.22 0 0 0-.1.05c-.07-.16.06-.3.07-.31a.06.06 0 0 0 0-.1.53.53 0 0 1-.1-.1c.07 0 .13-.02.19-.06a.17.17 0 0 0 .03-.04c0 .27.17.37.18.38a.06.06 0 0 0 .08-.02l.03-.03c.02 0 .08.06.12.11.07.08.16.17.29.25a.45.45 0 0 0 .25.08c.22 0 .38-.18.45-.28.14.09.29.16.47.22a.06.06 0 0 0 .01 0l.07.21c.08.22.16.45.13.62-.04.22-.4.22-.58.2a.39.39 0 0 0-.33.08.4.4 0 0 0-.12.33c0 .1.05.13.09.15.08.05.19.01.25-.01.13.12.3.07.4 0 .06.06.13.08.2.08a.43.43 0 0 0 .26-.09c.23.1.37.02.39.01.2-.16.16-.45.14-.58a.83.83 0 0 0 .52-.47.06.06 0 0 0-.07-.08c-.12.03-.22 0-.27-.06-.06-.1-.02-.26.1-.4l.08-.1c.3-.07.56-.2.84-.32.22-.1.46-.2.74-.3a1.32 1.32 0 0 1 .23-.04c-.02.33.14.54.3.75.06.06.1.12.14.18.18.25.15.8.13.84a.33.33 0 0 1-.3.13.53.53 0 0 0-.4.12.31.31 0 0 0-.11.23c0 .07.03.1.06.13.09.05.24 0 .31-.04a.35.35 0 0 0 .22.07.4.4 0 0 0 .22-.07c.16.1.33.05.43-.02.12.07.21.05.27.03a.29.29 0 0 0 .06-.03c.07.06.19.04.27 0a.21.21 0 0 0 .11.1c.12.04.24-.02.3-.06a.31.31 0 0 0 .25.07.28.28 0 0 0 .15-.08.58.58 0 0 0 .16.09h.09a.17.17 0 0 0 .15-.06c.07-.1.03-.28-.05-.38a.37.37 0 0 1-.07-.27.28.28 0 0 1 .14-.2c.16-.11.27-.25.27-.37a.13.13 0 0 0-.05-.1.2.2 0 0 0-.1-.04c-.07 0-.16-.02-.27-.23-.1-.19.02-.55.15-.94.07-.22.15-.45.2-.68a1.51 1.51 0 0 0-.28-1.16c.29-.28.4-.55.36-.8-.05-.28-.31-.47-.52-.54-.24-.1-.66-.05-1.06 0-.31.04-.6.07-.78.03-.07-.01-.12-.04-.14-.08-.05-.08-.03-.18-.02-.18a.06.06 0 0 0-.07-.08.43.43 0 0 0-.26.13.15.15 0 0 1 0-.05c.01-.12.15-.22.15-.22a.06.06 0 0 0 0-.1c-.25-.15-.49-.04-.6.06a.27.27 0 0 1-.08-.2.22.22 0 0 1 .12-.19c.04-.02.08-.03.11-.02.06.03.1.1.11.12a.06.06 0 0 0 .09.03c.13-.07.18-.24.2-.33.07.01.13.04.18.1.12.16.07.43.07.43a.06.06 0 0 0 .07.07.5.5 0 0 0 .38-.46c.21.13.2.4.2.42a.06.06 0 0 0 .08.06c.1-.04.16-.11.19-.17.19.25.45.34.47.34a.06.06 0 0 0 .07-.08l-.06-.14.14.1c.13.1.26.2.45.29.21.1.37.08.46.04a.34.34 0 0 0 .19-.18c.03-.09.04-.22-.02-.33Zm-.1.29a.22.22 0 0 1-.12.1c-.07.04-.18.05-.36-.03a2.2 2.2 0 0 1-.42-.27 2.26 2.26 0 0 0-.32-.22.06.06 0 0 0-.08.08l.07.17a.9.9 0 0 1-.34-.34.06.06 0 0 0-.12.03.23.23 0 0 1-.07.15.55.55 0 0 0-.35-.46.06.06 0 0 0-.08.06c0 .02.03.29-.2.4 0-.11 0-.3-.1-.43a.42.42 0 0 0-.34-.15.06.06 0 0 0-.04.02.06.06 0 0 0-.02.04.48.48 0 0 1-.1.26.3.3 0 0 0-.13-.12.26.26 0 0 0-.22.02.34.34 0 0 0-.18.3.38.38 0 0 0 .17.34c.02.01.06 0 .08-.02 0 0 .18-.2.4-.12a.45.45 0 0 0-.12.24c-.01.08 0 .15.06.21 0 .02.02.02.04.03a.06.06 0 0 0 .05-.03.41.41 0 0 1 .17-.13c0 .05 0 .12.04.18.05.07.12.12.22.14.2.04.5 0 .83-.03.38-.05.78-.1 1-.01.17.07.4.23.44.45.04.22-.08.47-.36.73a.06.06 0 0 0 0 .08s.4.5.27 1.1c-.04.23-.12.45-.19.67-.14.43-.27.8-.14 1.04.15.26.29.28.37.3h.04c.01.02-.03.15-.22.27a.4.4 0 0 0-.19.29.5.5 0 0 0 .1.37c.05.07.07.18.04.23-.01 0-.03.03-.1.01a.4.4 0 0 1-.16-.1.06.06 0 0 0-.1.02s-.04.06-.11.07c-.05.01-.11-.01-.17-.07a.06.06 0 0 0-.08 0c-.04.02-.16.1-.24.07-.01 0-.04-.02-.07-.08a.06.06 0 0 0-.08-.04c-.07.04-.17.06-.18.05v-.03c.04-.15.21-.18.33-.2a1.26 1.26 0 0 0 .1-.03c.1-.02.34-.07.3-.36v-.17c.01-.18.02-.35-.27-.55-.1-.08-.2-.14-.3-.2-.22-.16-.4-.28-.58-.46a1.18 1.18 0 0 0-1.27-.3c-.28.08-.52.19-.75.3a4.67 4.67 0 0 1-.7.27c.2-.37.3-.85.28-1.09a.06.06 0 0 0-.13.01c.03.27-.14.93-.4 1.25-.16.19-.2.4-.12.54.06.1.15.13.27.14a.71.71 0 0 1-.44.31.06.06 0 0 0-.05.08s.1.35-.07.5c0 0-.1.06-.3-.04a.06.06 0 0 0-.08.02s-.1.09-.2.08a.22.22 0 0 1-.15-.07.06.06 0 0 0-.09-.01s-.18.15-.3 0a.06.06 0 0 0-.08 0c-.05.02-.14.05-.17.03-.01 0-.02-.01-.03-.06a.28.28 0 0 1 .08-.23.27.27 0 0 1 .23-.06c.32.05.67-.02.72-.3.03-.2-.05-.43-.13-.67-.06-.17-.13-.35-.13-.5 0-.3.06-.58.06-.59a.06.06 0 1 0-.12-.02s-.07.3-.06.61a.98.98 0 0 0 .03.2c-.46-.17-.77-.44-.91-.8-.17-.41-.08-.86.06-1.11.19-.37.44-.58.65-.75l.25-.22c-.01.1-.1.3-.2.47a.06.06 0 0 0 .08.08c.05-.01.15-.06.22-.1l.02.31a.06.06 0 0 0 .1.05c.08-.07.15-.16.2-.23l.07.2a.06.06 0 0 0 .09.02c.09-.06.17-.15.22-.22l.12.19c.01.02.03.03.05.02a.06.06 0 0 0 .05-.03l.14-.27.11.31a.06.06 0 0 0 .1.03l.29-.19c.16.1.38.13.4.13a.06.06 0 0 0 .06-.07l-.02-.25h.26a.06.06 0 0 0 .02-.12.55.55 0 0 1-.15-.14h.01c.15.01 2.72.2 3.29-.2.3-.23.29-.44.25-.54-.09-.22-.4-.35-.7-.31a8.08 8.08 0 0 0-.4.06 3 3 0 0 1-1.17.06 3.13 3.13 0 0 1-.36-.12c-.18-.07-.31-.12-.41-.06a.21.21 0 0 0-.1.12.3.3 0 0 1-.03-.37.06.06 0 0 0-.01-.07s-.36-.38-.2-.8c.16-.37.74-.58 1.4-.5.57.08 1.16.51 1.56.8.24.18.38.28.47.29a.06.06 0 0 0 .06-.07s0-.08.05-.12c.02-.03.06-.04.1-.04.07 0 .1.03.13.07.04.06.04.15.01.22Zm-1.9 5.87c-.07.02-.13 0-.2-.04a.06.06 0 0 0-.08 0c0 .01-.18.16-.35.02a.06.06 0 0 0-.07 0c-.02.02-.19.15-.35 0a.06.06 0 0 0-.07-.01c-.08.04-.2.08-.23.06v-.02c0-.06.04-.11.07-.14a.4.4 0 0 1 .3-.1c.23.04.4-.12.43-.19.03-.06.07-.66-.14-.96a3.37 3.37 0 0 0-.14-.18c-.16-.2-.3-.4-.28-.7.3 0 .56.11.8.35.12.12.25.22.39.32-.06.06-.14.16-.15.27 0 .05.01.1.05.14.09.1.19.09.25.09a.34.34 0 0 1 .04 0 1.37 1.37 0 0 1-.12.18c-.12.16-.2.28-.19.37l.06.24.05.23a.15.15 0 0 1-.08.07Zm.25-.84c.11-.16.17-.24.14-.31-.04-.07-.1-.07-.16-.07s-.11 0-.16-.05a.06.06 0 0 1-.02-.05c0-.07.09-.16.13-.2l.1.07.3.2c.23.17.23.28.22.46v.18c.03.17-.07.2-.2.23l-.06.01-.05.01c-.08.02-.22.05-.32.14a7.7 7.7 0 0 0-.03-.11c-.02-.09-.05-.18-.05-.23-.01-.05.1-.2.16-.28Zm-6.16-1.13a.12.12 0 0 0-.07.03.36.36 0 0 1-.08-.25c0-.2-.05-.29-.09-.33a.25.25 0 0 0 .03-.04c.02-.06.02-.12-.03-.18a.22.22 0 0 0 .02-.16.25.25 0 0 0 .02-.18.35.35 0 0 0 .05-.1c.28.32.61.58.64.6.01.08.03.16.06.23.1.24.26.44.48.6-.1.14-.3.32-.54.16a1.53 1.53 0 0 1-.26-.23c-.09-.1-.15-.16-.23-.15Zm-.5.53a.06.06 0 0 0 .1 0c0-.01.03-.05.07-.06l.05.01c.01.01.02.05 0 .1-.02.06-.1.1-.2.1a.06.06 0 0 0-.04.1l.1.09-.16.04a.06.06 0 0 0-.04.04.64.64 0 0 1-.08.16.64.64 0 0 1-.07-.16.06.06 0 0 0-.04-.04l-.17-.04.1-.09a.06.06 0 0 0-.04-.1c-.1 0-.18-.04-.2-.1-.02-.05 0-.08 0-.1h.06c.03 0 .06.03.07.05a.06.06 0 0 0 .05.03.06.06 0 0 0 .05-.02c.15-.18.09-.38.01-.49.06-.07.12-.19.13-.22v-.06a.07.07 0 0 0-.07-.02c-.04 0-.14.03-.2-.02-.02-.01-.03-.06-.01-.09 0 0 .02-.04.09-.01.06.02.14.05.2 0a.1.1 0 0 0 .02-.04h.05a.1.1 0 0 0 .02.04c.05.05.14.02.2 0 .06-.03.08 0 .09.01.01.03 0 .08-.01.1-.06.04-.17.02-.21 0a.06.06 0 0 0-.07.1l.13.2c-.07.12-.14.32.02.5Zm.2-1.7a.06.06 0 0 0-.02.06c.03.08-.01.13-.01.13a.06.06 0 0 0-.01.07c.02.05-.02.1-.02.1a.06.06 0 0 0 0 .08c.05.06.04.08.03.1-.01.03-.05.06-.1.08a.51.51 0 0 1-.2.03.55.55 0 0 1-.2-.05c-.03 0-.06-.03-.07-.06l.01-.05a.06.06 0 0 0-.01-.08c-.04-.02-.04-.04-.04-.05 0-.03.02-.06.03-.07a.06.06 0 0 0-.01-.09c-.02-.01-.05-.04-.05-.07 0-.02.03-.05.04-.06a.06.06 0 0 0 .03-.05.07.07 0 0 0-.03-.05c-.02-.01-.03-.07-.02-.1.07.02.15.03.24.03h.01c.17 0 .31-.03.43-.08l.02.03a.22.22 0 0 1-.06.15Zm-.41-.22c-.33 0-.55-.1-.58-.28-.01-.05 0-.1.02-.12.04-.04.11-.07.18-.07h.05c.02 0 .02.01.02.02.02.02 0 .09-.02.14a.06.06 0 0 0 .02.07c.22.12.53.07.62.03 0 0 .04-.02.04-.05.01-.03 0-.05 0-.07-.02-.04-.04-.08 0-.14.03-.03.08-.01.1 0 .07.02.14.1.14.19 0 .04-.02.09-.06.13-.1.1-.3.15-.53.15Zm.22-.3a.82.82 0 0 1-.42-.02c.02-.05.03-.13 0-.2l-.02-1.91c.02-1.13.54-1.55.79-1.68-.11.34-.33 1.31-.32 3.59a.23.23 0 0 0-.03.21Zm1.66-1.04-.07.14a.48.48 0 0 1-.1-.15.06.06 0 0 0-.06-.04l-.23.06.05-.13a.06.06 0 0 0 0-.06.06.06 0 0 0-.06-.02l-.28.03.1-.28c.13.04.43.12.74.15l-.05.06a.06.06 0 0 0 .06.1s.33-.08.55-.05a.06.06 0 0 0 .06-.1 5.27 5.27 0 0 1-.54-.7.06.06 0 0 0-.06-.04.06.06 0 0 0-.05.05l-.03.2a.6.6 0 0 1-.16-.16.06.06 0 0 0-.11.03v.06a1.7 1.7 0 0 1-.5-.65c-.04-.14-.03-.25.02-.3.04-.05.12-.06.16-.05.04 0 .08.04.1.08.03.04.04.09.03.13a.06.06 0 0 0 .06.07c.16 0 .93-.05 1.05-.3a.18.18 0 0 0 0-.16c.09-.04.29-.11.55.12a.06.06 0 0 0 .07 0c.06-.04.15-.15.14-.28.1.01.25.06.36.24a.06.06 0 0 0 .1 0 .69.69 0 0 0 .14-.23.66.66 0 0 1 .35.25.06.06 0 0 0 .05.02s.08 0 .18-.03c-.3.25-.8.3-.81.3a.06.06 0 0 0-.04.1l.08.1c-.34.01-.5-.11-.5-.11a.06.06 0 0 0-.08.07l.07.14a1.48 1.48 0 0 1-.36-.14c-.13-.07-.24-.12-.33-.1a.19.19 0 0 0-.13.17.21.21 0 0 0 .1.2.2.2 0 0 0 .1.04.23.23 0 0 0 .17-.06.22.22 0 0 0 .06-.13c.14.07.3.15.5.16a.06.06 0 0 0 .05-.03.06.06 0 0 0 0-.06l-.04-.08c.12.04.29.07.52.05a.06.06 0 0 0 .04-.1l-.09-.11c.19-.03.58-.13.83-.37a.54.54 0 0 1-.22.3.06.06 0 0 0-.01.09s.2.26.13.93a1.03 1.03 0 0 1-.45-.45.06.06 0 0 0-.11.04v.29a.6.6 0 0 1-.19-.2.06.06 0 0 0-.06-.04.06.06 0 0 0-.05.04 2.74 2.74 0 0 1-.06.2.53.53 0 0 1-.17-.16.06.06 0 0 0-.11.02l-.03.26a1.39 1.39 0 0 1-.2-.14.06.06 0 0 0-.1.03l-.02.12a.66.66 0 0 1-.17-.14.06.06 0 1 0-.1.08c.1.12.27.2.28.2a.06.06 0 0 0 .09-.04l.02-.1.21.13a.06.06 0 0 0 .09-.03c.01-.04.03-.13.03-.21.09.07.18.12.19.12a.06.06 0 0 0 .08-.02.8.8 0 0 0 .05-.16 1 1 0 0 0 .24.2h.05a.06.06 0 0 0 .04-.04.64.64 0 0 0 .02-.2c.12.14.25.23.34.29l.05.38a1.25 1.25 0 0 1-.41-.26.06.06 0 0 0-.1.02l-.05.12-.2-.15a.06.06 0 0 0-.1.05v.13a.84.84 0 0 1-.14-.11.06.06 0 1 0-.09.08c.09.1.23.18.24.19a.06.06 0 0 0 .09-.04l.02-.14.17.13h.05a.06.06 0 0 0 .04-.03l.05-.1c.1.09.22.15.31.19 0 .04 0 .2.08.32a1.09 1.09 0 0 1-.45-.1.06.06 0 0 0-.08.02l-.09.14-.36-.25a.06.06 0 0 0-.1.03l-.05.16a2.93 2.93 0 0 0-.2-.21.06.06 0 0 0-.08 0 1.33 1.33 0 0 1-.19.17l-.07-.2a.06.06 0 0 0-.11.05l.1.26a.06.06 0 0 0 .08.03c.1-.05.19-.13.24-.18l.2.23a.06.06 0 0 0 .11-.02l.07-.17.35.23a.06.06 0 0 0 .04.01.06.06 0 0 0 .04-.02l.1-.15c.15.07.3.09.42.1l.01.04.08.09h-.15a.06.06 0 0 0-.06.07l.02.23a1.01 1.01 0 0 1-.3-.1.06.06 0 0 0-.06 0l-.27.16-.14-.37a.06.06 0 0 0-.05-.04.06.06 0 0 0-.06.03l-.15.3-.1-.17a.06.06 0 0 0-.05-.02.06.06 0 0 0-.05.02l-.18.21-.07-.22a.06.06 0 0 0-.11-.01l-.17.2-.02-.26a.06.06 0 0 0-.09-.05l-.12.06c.07-.15.15-.36.1-.46a.13.13 0 0 0-.07-.07h-.01v-.01h-.01A.2.2 0 0 0 14 11a.22.22 0 0 0-.07.09.5.5 0 0 1-.11-.16.06.06 0 0 0-.06-.04.06.06 0 0 0-.05.03Zm-.46-.67c.32.15.73.17.84.17l.14.18-.28.02.01-.01a.06.06 0 0 0-.04-.1 4.2 4.2 0 0 1-.87-.17c-.07-.02-.11-.06-.11-.1l.02-.07c.07-.03.2.04.29.08Zm.57.03a.06.06 0 0 0 .03-.04l.01-.11.13.17a2.53 2.53 0 0 1-.17-.02Zm-.06.06a2.41 2.41 0 0 1-.13-.04.18.18 0 0 0-.01-.08.5.5 0 0 1 0-.03c.05.07.1.12.14.15Zm.75-.74c-.02.03-.07.05-.12.02a.1.1 0 0 1-.04-.1c0-.02.02-.05.05-.06a.06.06 0 0 1 .02 0l.11.04c.03.05 0 .09-.02.1Zm2.31.9c.02.02.04.02.06.01a.06.06 0 0 0 .04-.05c0-.07.02-.12.05-.13.05-.03.17.01.3.06.1.04.23.09.38.13.38.09.83 0 1.23-.06l.38-.06c.25-.04.5.07.57.23.05.12-.02.26-.2.4-.51.36-2.95.2-3.2.18-.06-.06-.08-.19-.1-.27a.94.94 0 0 0 .09.02.06.06 0 0 0 .06-.08 1.9 1.9 0 0 1-.07-.4.06.06 0 0 0 .07-.05c.08-.6-.05-.93-.11-1.04a.52.52 0 0 0 .04-.04c0 .29.17.52.24.6a.44.44 0 0 0 .17.56Z"/><path fill="#FFD250" fill-rule="nonzero" d="M10.74 7.39c-.02-.49-.14-1.28-.51-1.3a.38.38 0 0 0-.32.13.06.06 0 0 1-.05.02h-.14l.02.09a.06.06 0 0 1-.02.06s-.2.18-.08.4c.1.17.4.25.61.3l.24.08a.75.75 0 0 1 .25.22Z"/><path fill="#464655" fill-rule="nonzero" d="M10.23 5.97a.52.52 0 0 0-.4.15l-.19-.02a.06.06 0 0 0-.06.08l.04.14c-.1.1-.21.3-.09.53.12.21.45.3.69.37l.22.06c.14.07.25.23.31.36a.06.06 0 0 0 .12-.03c0-.07 0-1.6-.63-1.64Zm.02 1.13c-.22-.06-.52-.14-.61-.3-.12-.23.08-.4.08-.41a.06.06 0 0 0 .02-.06l-.02-.1.14.01c.02 0 .04 0 .05-.02a.38.38 0 0 1 .32-.13c.37.02.49.81.51 1.3a.76.76 0 0 0-.25-.22 1.4 1.4 0 0 0-.24-.07Z"/><path fill="#FFD250" fill-rule="nonzero" d="M20.9 7.39c.02-.49.13-1.28.5-1.3.21 0 .32.12.32.13a.06.06 0 0 0 .05.02h.14l-.02.09a.06.06 0 0 0 .02.06s.2.18.09.4c-.1.17-.4.25-.62.3l-.23.08a.75.75 0 0 0-.26.22Z"/><path fill="#464655" fill-rule="nonzero" d="M20.77 7.61a.06.06 0 0 0 .11.03.78.78 0 0 1 .32-.36l.21-.06c.24-.07.57-.16.7-.37.12-.22 0-.43-.1-.53l.04-.14a.06.06 0 0 0-.06-.07h-.2a.52.52 0 0 0-.4-.14c-.63.03-.62 1.58-.62 1.64Zm.37-.44a.76.76 0 0 0-.25.22c.03-.49.14-1.28.51-1.3.21 0 .32.12.32.13a.06.06 0 0 0 .05.02h.14l-.02.09a.06.06 0 0 0 .02.06s.2.18.09.4c-.1.17-.4.25-.62.3a1.48 1.48 0 0 0-.23.08Z"/><path fill="#FFD250" fill-rule="nonzero" d="M20.9 16.44c.02.48.13 1.28.5 1.3.21 0 .32-.12.32-.13a.06.06 0 0 1 .05-.02h.14l-.02-.09a.06.06 0 0 1 .02-.06s.2-.18.09-.4c-.1-.17-.4-.25-.62-.31-.1-.03-.18-.05-.23-.08a.76.76 0 0 1-.26-.21Z"/><path fill="#464655" fill-rule="nonzero" d="M21.4 17.86a.52.52 0 0 0 .4-.15l.2.01a.06.06 0 0 0 .05-.08l-.03-.14c.1-.1.2-.3.08-.52-.12-.22-.45-.3-.69-.37a1.44 1.44 0 0 1-.21-.07.78.78 0 0 1-.32-.35.06.06 0 0 0-.11.03c0 .06-.01 1.6.63 1.64Zm-.02-1.13c.22.06.52.14.62.3.12.23-.08.4-.1.4a.06.06 0 0 0-.01.07l.02.1-.14-.01a.06.06 0 0 0-.05.02.38.38 0 0 1-.32.12c-.37-.01-.48-.8-.5-1.3a.75.75 0 0 0 .25.22c.05.03.14.05.23.08Z"/><path fill="#FFD250" fill-rule="nonzero" d="M10.74 16.44c-.02.48-.14 1.28-.51 1.3a.38.38 0 0 1-.32-.13.06.06 0 0 0-.05-.02h-.14l.02-.09a.06.06 0 0 0-.02-.06s-.2-.18-.08-.4c.1-.17.4-.25.61-.31l.24-.08a.76.76 0 0 0 .25-.21Z"/><path fill="#464655" fill-rule="nonzero" d="M10.87 16.21a.06.06 0 0 0-.12-.02.78.78 0 0 1-.31.35 1.44 1.44 0 0 1-.22.07c-.24.06-.57.15-.69.37s0 .43.09.52l-.04.14a.06.06 0 0 0 .06.08l.2-.01c.05.05.18.16.4.15.63-.03.63-1.58.63-1.64Zm-.38.44a.76.76 0 0 0 .25-.21c-.02.48-.14 1.28-.51 1.3a.38.38 0 0 1-.32-.13.06.06 0 0 0-.05-.02h-.14l.02-.09a.06.06 0 0 0-.02-.06s-.2-.18-.08-.4c.1-.17.4-.25.61-.31l.24-.08Z"/><circle cx="12" cy="12" r="11.5" stroke="#FFF"/></g></svg>