<svg width="24" height="24" viewBox="0 0 24 24" fill="none" xmlns="http://www.w3.org/2000/svg">
<path d="M12 24C18.6274 24 24 18.6274 24 12C24 5.37258 18.6274 0 12 0C5.37258 0 0 5.37258 0 12C0 18.6274 5.37258 24 12 24Z" fill="white"/>
<path d="M12 0C18.6274 0 24 5.37258 24 12C24 18.6274 18.6274 24 12 24C5.37258 24 0 18.6274 0 12C0 5.37258 5.37258 0 12 0ZM12 1C5.92487 1 1 5.92487 1 12C1 18.0751 5.92487 23 12 23C18.0751 23 23 18.0751 23 12C23 5.92487 18.0751 1 12 1Z" fill="white"/>
<path d="M12 1C5.92487 1 1 5.92487 1 12C1 18.0751 5.92487 23 12 23C18.0751 23 23 18.0751 23 12C23 5.92487 18.0751 1 12 1Z" fill="#503F32"/>
<path d="M11.004 10.6338L10.3887 12.5256L11.9997 13.6947L13.6107 12.5256L12.9954 10.6338H11.004Z" fill="#DEBB69"/>
<path d="M17.1779 15.0451C17.6164 14.304 17.889 13.4765 17.976 12.6091L16.6911 13.537L17.1779 15.0451Z" fill="#DEBB69"/>
<path d="M13.642 10.3442L14.3048 12.3821L16.2166 13.0113L18 11.7232C17.9512 10.6435 17.6175 9.61553 17.0351 8.72578L14.8301 8.72203L13.642 10.3442Z" fill="#DEBB69"/>
<path d="M11.6474 14.309L9.91214 13.0497L7.99747 13.6691L7.31665 15.758C7.45226 15.926 7.5973 16.0879 7.75223 16.2427C8.36297 16.8527 9.08219 17.3149 9.8663 17.612L11.6474 16.3194V14.309Z" fill="#DEBB69"/>
<path d="M9.59678 6.4978C8.91723 6.7941 8.29228 7.21789 7.75221 7.75735C7.67044 7.83903 7.59162 7.92288 7.5152 8.00834L9.10263 8.01014L9.59678 6.4978Z" fill="#DEBB69"/>
<path d="M6.02161 12.5921C6.10615 13.46 6.37657 14.2881 6.81283 15.0303L7.30386 13.5238L6.02161 12.5921Z" fill="#DEBB69"/>
<path d="M10.9282 9.93002H13.0724L14.261 8.30709L13.5823 6.20956C13.0728 6.0715 12.5418 6 11.9997 6C11.4634 6 10.938 6.0701 10.4335 6.20524L9.74866 8.30122L10.9282 9.93002Z" fill="#DEBB69"/>
<path d="M9.69513 12.3801L10.3578 10.343L9.17808 8.714L6.97361 8.71149C6.3885 9.59981 6.05176 10.6268 6 11.7061L7.78025 12.9996L9.69513 12.3801Z" fill="#DEBB69"/>
<path d="M14.0855 13.0509L12.352 14.309V16.3194L14.1331 17.612C14.9172 17.3149 15.6364 16.8527 16.2471 16.2427C16.398 16.092 16.5395 15.9346 16.672 15.7714L15.997 13.68L14.0855 13.0509Z" fill="#DEBB69"/>
<path d="M16.4954 8.02107C16.4154 7.93118 16.3329 7.84307 16.2471 7.75735C15.7111 7.22202 15.0917 6.80046 14.4182 6.50448L14.908 8.01838L16.4954 8.02107Z" fill="#DEBB69"/>
<path d="M10.7182 17.8636C11.1346 17.9535 11.5635 18 11.9997 18C12.4358 18 12.8648 17.9535 13.2811 17.8636L11.9997 16.9336L10.7182 17.8636Z" fill="#DEBB69"/>
</svg>
