<svg fill="none" xmlns="http://www.w3.org/2000/svg" viewBox="0 0 24 24">
  <g id="classifier/gymnastics" clip-path="url(#clip0_448_56)">
    <g id="Group">
      <path id="Vector" d="M12.02 24c6.627 0 12-5.373 12-12s-5.373-12-12-12c-6.628 0-12 5.373-12 12s5.372 12 12 12Z" fill="#503F32"/>
      <path id="Vector_2" d="M12.02 1c6.07 0 11 4.93 11 11s-4.93 11-11 11-11-4.93-11-11 4.94-11 11-11Zm0-1c-6.63 0-12 5.37-12 12s5.37 12 12 12 12-5.37 12-12-5.37-12-12-12Z" fill="#fff"/>
    </g>
    <g id="Frame" clip-path="url(#clip1_448_56)">
      <g id="Group_2">
        <g id="Group_3">
          <path id="Vector_3" fill-rule="evenodd" clip-rule="evenodd" d="M19.291 11.508v.142a.39.39 0 0 1 .213.354.484.484 0 0 1-.496.496h-.212c-1.488 0-2.763-.283-3.967-.708l-2.196 2.904v3.117c1.063-.071 2.054-.425 2.975-.992.213-.142.425-.071.567.141.142.213.07.425-.142.567-.992.709-2.196 1.063-3.4 1.134v1.912a.484.484 0 0 1-.496.496.484.484 0 0 1-.495-.496v-1.912c-2.48-.213-4.605-1.63-5.809-3.825-.283-.496-.425-.921-.354-.85.425.212.992.283.992.283l.07.07a6.2 6.2 0 0 0 5.1 3.4v-2.974l-1.77-.78h-.992c-1.487 0-2.975-.354-4.25-1.133l-1.346-.779c-.212-.142-.354-.425-.212-.708a.461.461 0 0 1 .637-.142l1.417.78a7.62 7.62 0 0 0 3.754.99h.85l1.913-2.55c-1.559-.707-2.834-1.062-3.967-.424-.283.212-.567.07-.708-.142-.142-.212-.071-.566.212-.708 1.77-.992 3.542-.213 5.596.708h.07c.638.284 1.276.567 1.984.85 1.133.425 2.337.709 3.754.78V11.366c0-3.613-2.833-6.517-6.375-6.517-3.47 0-6.304 2.833-6.375 6.375v.567c-.708-.284-.779-.496-.779-.496C5.054 7.258 8.242 4 12.137 4c3.967 0 7.154 3.258 7.154 7.296v.212Zm-8.57 1.771 1.275.567 1.841-2.409c-.425-.212-.85-.354-1.275-.566l-1.841 2.408Zm5.666-4.816c0-.992-.779-1.771-1.7-1.771-.92 0-1.7.779-1.7 1.77 0 .992.78 1.771 1.7 1.771.921-.07 1.7-.85 1.7-1.77Zm-1.77-.78c-.426 0-.709.354-.709.78 0 .425.354.779.709.779.424 0 .708-.355.708-.78 0-.425-.284-.779-.708-.779Z" fill="#DEBB69"/>
        </g>
      </g>
      <path id="Vector_4" d="M14.617 10.02a1.63 1.63 0 1 0 0-3.257 1.63 1.63 0 0 0 0 3.258Z" fill="#DEBB69"/>
      <path id="Vector_5" d="m14.134 11.581-1.82-1.229-1.942 2.877 1.82 1.229 1.942-2.877Z" fill="#DEBB69"/>
    </g>
  </g>
  <defs>
    <clipPath id="clip0_448_56">
      <path fill="#fff" d="M0 0h24v24H0z"/>
    </clipPath>
    <clipPath id="clip1_448_56">
      <path fill="#fff" transform="translate(3 4)" d="M0 0h17v17H0z"/>
    </clipPath>
  </defs>
</svg>