<svg width="24" height="24" viewBox="0 0 24 24" fill="none" xmlns="http://www.w3.org/2000/svg">
<circle cx="12" cy="12" r="12" fill="white"/>
<circle cx="12" cy="12" r="11" fill="#503F32"/>
<path d="M5.69618 4L9.69047 6.77544C9.5341 8.54909 9.51053 10.2292 9.74259 11.7294C9.89254 12.7047 10.1753 13.6408 10.6116 14.5305C11.1171 15.8686 11.4591 17.2117 11.5191 18.5641H11.3377C11.05 17.1367 10.4459 15.895 9.65191 14.764C8.60443 13.0218 7.79686 11.3974 7.74545 10.1471L7.4734 7.4759C7.09925 5.97929 6.50875 4.81899 5.69618 4Z" fill="white"/>
<path d="M18.2824 4L14.2881 6.77544C14.4445 8.54909 14.468 10.2292 14.236 11.7294C14.086 12.7047 13.8033 13.6408 13.367 14.5305C12.8615 15.8686 12.5195 17.2117 12.4595 18.5641H12.6408C12.9286 17.1367 13.5327 15.895 14.3267 14.764C15.3742 13.0218 16.1817 11.3974 16.2331 10.1471L16.5052 7.4759C16.8786 5.97929 17.4698 4.81899 18.2824 4Z" fill="white"/>
<path d="M10.1053 6.9825L11 6.48982C10.4302 8.65191 9.92752 10.8476 11 13.8172C9.95109 12.0336 9.89825 9.593 10.1053 6.9825Z" fill="#DEBB69"/>
<path d="M13.9389 6.9825L13.0443 6.48982C13.6141 8.65191 14.1167 10.8476 13.0443 13.8172C14.0932 12.0336 14.146 9.593 13.9389 6.9825Z" fill="#DEBB69"/>
<path d="M11.9561 8.34059L12.3974 9.23456L13.3841 9.37808L12.6701 10.0735L12.8386 11.0568L11.9561 10.5926L11.0735 11.0568L11.2421 10.0735L10.528 9.37808L11.5148 9.23456L11.9561 8.34059Z" fill="white"/>
<path d="M10.663 19.5752H13.3734C13.3706 19.5694 13.3677 19.563 13.3649 19.5573C12.8586 18.4813 11.3456 18.4234 10.7358 19.4445C10.7101 19.4866 10.6858 19.5309 10.663 19.5752Z" fill="#DEBB69"/>
<path d="M10.5987 19.7829H13.4484C13.5162 19.7829 13.5812 19.8144 13.6205 19.8686C13.6883 19.9629 13.6883 20.0564 13.6205 20.1507C13.5812 20.2056 13.5155 20.2364 13.4484 20.2364H10.5987C10.5295 20.2364 10.463 20.2042 10.4245 20.1471C10.3624 20.055 10.3624 19.9636 10.4245 19.8715C10.463 19.8144 10.5302 19.7822 10.5987 19.7822V19.7829Z" fill="#DEBB69"/>
<path d="M10.0525 20.5155C9.99464 20.6105 9.99464 20.7062 10.0525 20.8011C10.0903 20.8633 10.1603 20.8983 10.2324 20.8983H13.8133C13.8875 20.8983 13.9589 20.8618 13.9954 20.7976C14.0482 20.7048 14.0482 20.6119 13.9954 20.5191C13.9589 20.4548 13.8868 20.4184 13.8133 20.4184H10.2324C10.1603 20.4184 10.0896 20.4534 10.0525 20.5155Z" fill="#DEBB69"/>
<path d="M19 4.28918L14.8765 6.86826C14.9472 8.64691 14.8893 10.3263 14.5859 11.8144C14.3895 12.7812 14.0618 13.7023 13.5826 14.5705C13.0136 15.8822 12.6066 17.2074 12.4816 18.5555L12.663 18.5641C13.0193 17.1524 13.6826 15.9407 14.5302 14.8504C15.6605 13.161 16.5459 11.5773 16.6573 10.3306L17.0585 7.67512C17.5034 6.1985 18.1496 5.06819 19.0007 4.28918H19Z" fill="#DEBB69"/>
<path d="M5 4.28918L9.12353 6.86826C9.05284 8.64691 9.11067 10.3263 9.41414 11.8144C9.6105 12.7812 9.93824 13.7023 10.4174 14.5705C10.9864 15.8822 11.3934 17.2074 11.5184 18.5555L11.337 18.5641C10.9807 17.1524 10.3174 15.9407 9.46983 14.8504C8.33952 13.161 7.45412 11.5773 7.34273 10.3306L6.94145 7.67512C6.49732 6.1985 5.85112 5.06819 5 4.28918Z" fill="#DEBB69"/>
</svg>
