<?xml version="1.0" encoding="UTF-8"?>
<svg width="24px" height="24px" viewBox="0 0 24 24" version="1.1" xmlns="http://www.w3.org/2000/svg" xmlns:xlink="http://www.w3.org/1999/xlink">
    <!-- Generator: Sketch 55.1 (78136) - https://sketchapp.com -->
    <title>Flags/pakistan</title>
    <desc>Created with Sketch.</desc>
    <g id="Icons" stroke="none" stroke-width="1" fill="none" fill-rule="evenodd">
        <g id="Flags/pakistan">
            <g id="pakistan">
                <g id="Group" transform="translate(0.500000, 0.500000)" fill="#EEEEEE" fill-rule="nonzero">
                    <circle id="Oval" cx="11.5" cy="11.5" r="11.5"></circle>
                    <path d="M-2.18090931e-06,11.5 C-2.18090931e-06,15.8574219 2.42578125,19.6533203 6.0015625,21.6029297 L6.0015625,1.39257813 C2.30017183,3.4075423 -0.00258905104,7.28569498 -2.18090931e-06,11.5 Z" id="Path"></path>
                </g>
                <path d="M11.9766082,0 C9.8994152,0 7.95321637,0.528654971 6.2502924,1.45497076 L6.2502924,22.502924 C10.6402063,24.8853832 16.0477361,24.2933363 19.8181413,21.0174393 C23.5885464,17.7415423 24.9300688,12.4697099 23.1841094,7.79006442 C21.4381501,3.11041892 16.9713478,0.00565218421 11.9766082,0 Z" id="Path" fill="#496E2D" fill-rule="nonzero"></path>
                <path d="M17.0994152,13.9555556 C15.9564398,14.7805023 14.4216961,14.8101497 13.2477135,14.0299607 C12.0737309,13.2497718 11.5066563,11.8233275 11.8245429,10.4500547 C12.1424294,9.0767819 13.2786263,8.04461254 14.6760234,7.85964912 C12.4141172,7.52310907 10.3040991,9.07376163 9.94979674,11.3329537 C9.59549437,13.5921457 11.1295198,15.7142828 13.3858582,16.0863256 C15.6421966,16.4583684 17.7763216,14.9410647 18.1660819,12.6877193 C17.922281,13.1942529 17.5555847,13.6317152 17.0994152,13.9602339 L17.0994152,13.9555556 Z M17.0292398,7.8128655 L17.8807018,8.72982456 L19.0175439,8.20116959 L18.4093567,9.3005848 L19.2608187,10.2175439 L18.0304094,9.97894737 L17.4222222,11.0736842 L17.2678363,9.8245614 L16.0467836,9.59064327 L17.1883041,9.0619883 L17.0292398,7.8128655 Z" id="Shape" fill="#EEEEEE" fill-rule="nonzero"></path>
                <circle id="Oval" stroke="#FFFFFF" cx="12" cy="12" r="11.5"></circle>
            </g>
        </g>
    </g>
</svg>