<?xml version="1.0" encoding="UTF-8"?>
<svg width="24px" height="24px" viewBox="0 0 24 24" version="1.1" xmlns="http://www.w3.org/2000/svg" xmlns:xlink="http://www.w3.org/1999/xlink">
    <!-- Generator: Sketch 63.1 (92452) - https://sketch.com -->
    <title>esports_warcraft3</title>
    <desc>Created with Sketch.</desc>
    <g id="Classifier" stroke="none" stroke-width="1" fill="none" fill-rule="evenodd">
        <g id="esports_warcraft3">
            <path d="M12,0 C18.627417,0 24,5.372583 24,12 C24,18.627417 18.627417,24 12,24 C5.372583,24 0,18.627417 0,12 C0,5.372583 5.372583,0 12,0 Z M12,1 C5.92486775,1 1,5.92486775 1,12 C1,18.0751322 5.92486775,23 12,23 C18.0751322,23 23,18.0751322 23,12 C23,5.92486775 18.0751322,1 12,1 Z" id="Oval" fill="#FFFFFF" fill-rule="nonzero"></path>
            <path d="M12,1 C5.92486775,1 1,5.92486775 1,12 C1,18.0751322 5.92486775,23 12,23 C18.0751322,23 23,18.0751322 23,12 C23,5.92486775 18.0751322,1 12,1 Z" id="Path-Copy" fill="#503F32" fill-rule="nonzero"></path>
            <path d="M12.0596198,15.4289689 C12.3440163,15.714135 12.7057111,15.47215 13.068603,15.5926294 C13.322388,15.9340591 13.6054163,16.3149075 13.8915229,16.6998603 C13.4282457,16.8110194 11.2459347,16.8323962 10.183595,16.7338921 C10.4959523,16.3502219 10.7900111,15.9890401 11.1445233,15.5537237 C11.3720576,15.4492341 11.7639364,15.7138784 12.0596198,15.4289689 Z M18,7.00495941 C17.7678484,7.29209209 17.5372358,7.54023356 17.351942,7.81855902 C17.2098293,8.03207013 17.1546773,8.27935653 17.1562164,8.55486026 C17.1687859,10.9121187 17.163399,13.2695482 17.163399,15.6356138 C17.4342853,15.9912377 17.709276,16.3521629 17.9870029,16.7166795 C17.9668233,16.734807 17.951945,16.7524215 17.933219,16.7637939 C17.91569,16.7744823 17.8941423,16.7846576 17.8743046,16.7846576 C16.6987537,16.7855147 15.5231172,16.7855147 14.3172112,16.7855147 C14.453424,16.3123166 14.8429086,16.079994 15.1194384,15.7567773 L15.1196094,10.6606425 L15.1196094,10.6606425 C15.1196949,10.2284898 15.278909,9.64191142 15.5309838,9.19958344 C15.6158068,9.05071566 15.7426993,8.92604637 15.8306861,8.77863221 C15.8943888,8.67191941 15.9255989,8.54588202 15.9946031,8.36879691 C15.7039646,8.35246506 15.466084,8.33921147 15.2271773,8.32578686 C14.8869447,7.89457479 14.5411542,7.45626564 14.1849318,7.00495941 L18,7.00495941 Z M9.80232764,7.00353144 C9.52220654,7.35735963 9.25670714,7.69263278 8.97769762,8.04509286 L8.97769762,8.31315747 L8.20214865,8.31315747 C8.15084442,8.60884086 8.15443571,8.80037666 8.33229038,8.99644433 C8.4645698,9.14231936 8.53827688,9.36959711 8.57145361,9.57165028 C8.65807226,10.0984592 8.80377628,10.6065421 8.96307592,11.113941 C9.00839465,11.2580204 8.98667586,11.4248446 8.98684688,11.581237 C8.98821499,12.9665368 8.98770195,14.3519221 8.98770195,15.7279871 C9.25730569,16.0683052 9.52271958,16.4031508 9.80224214,16.7558674 L6,16.7558674 C6.32475579,16.3684349 6.63548842,15.9979329 6.94339932,15.6306801 L6.94339932,8.24783008 C6.64113189,7.84714403 6.32903114,7.43354641 6.00453187,7.00353144 L9.80232764,7.00353144 Z M10.1825519,8.63462124 C10.3008936,9.06626084 10.1404824,9.55578872 10.3342414,10.025308 C10.5022627,10.4323215 10.5738321,10.892777 10.6114552,11.3361311 C10.6521566,11.8147141 10.894056,12.2289102 10.9145777,12.6954367 L11.1009831,12.6954367 C11.3986332,11.5134727 11.6973093,10.3274044 12.0244593,9.02829571 C12.3687107,10.3221884 12.6788448,11.4878206 13.0073629,12.7227135 C13.0845757,12.5859877 13.1840204,12.4797024 13.2051407,12.359565 C13.2690145,11.9959035 13.2963767,11.6260855 13.3498186,11.2603718 C13.403346,10.8943161 13.4175402,10.5035489 13.5133936,10.1677627 C13.6591831,9.65702907 13.5597384,9.15587223 13.6383194,8.63410819 L15.4888631,8.63410819 C15.3172504,8.80401071 15.1470059,8.97263062 15.0255858,9.09293904 C14.8599587,9.93817626 14.694588,10.6895267 14.5525608,11.4466917 C14.4791103,11.8387415 14.3698323,12.2391711 14.3198106,12.6333586 C14.2678223,13.0435359 14.1640168,13.4467872 14.1352009,13.8657717 C14.1151923,14.1552986 14.0251533,14.4595327 14.033875,14.7641943 C14.0372953,14.8805694 14.0920198,14.9954054 14.1280183,15.1282834 L12.444812,15.1282834 C12.4709771,15.014046 12.5194596,14.8851868 12.5258727,14.7542755 C12.5343379,14.5827484 12.5524653,14.4186603 12.4094976,14.2537172 C12.3307456,14.1629943 12.4228367,13.9417875 12.3865817,13.7918081 C12.3472484,13.6287462 12.2161661,13.4967233 12.2525066,13.3009121 C12.2800399,13.1529849 12.2579791,12.995823 12.2579791,12.8526842 C12.160501,12.8423378 12.1170634,12.8378059 12.0371998,12.8292552 C11.7345049,13.4676509 11.7811062,14.1955724 11.584098,14.8646651 C11.566569,14.9239215 11.6531877,15.0137894 11.7067151,15.1194762 C11.43352,15.1830934 11.1444207,15.1416225 10.8601953,15.1487196 C10.5686162,15.1559877 10.2766096,15.1503442 9.93235822,15.1503442 C10.0384725,14.95402 10.1229534,14.7975421 10.2089735,14.6384135 C10.1212433,14.3425591 9.99742909,14.0449945 9.947835,13.73563 C9.79956577,12.8095886 9.52782435,11.916553 9.2919959,11.0125724 C9.14235856,10.4389056 9.0507805,9.84959096 8.85129255,9.2876386 C8.77578982,9.07498256 8.69874796,8.86283956 8.6167467,8.63462124 L10.1825519,8.63462124 Z M13.9190818,7 C13.6369085,7.3952136 13.3798743,7.7552838 13.0593084,8.20436685 L13.0593084,11.0583358 C13.0222839,11.0632097 12.9853448,11.0680836 12.9484058,11.0729575 C12.842377,10.6258411 12.7490888,10.1753044 12.6268137,9.73263441 C12.5096691,9.30869044 12.3625114,8.89304065 12.2299755,8.47816043 L11.8576778,8.47816043 C11.4125281,9.30330349 11.3253109,10.2632912 11.1035056,11.2267847 C11.0537405,11.1458095 11.0330478,11.1277675 11.0329623,11.10964 C11.0314231,10.1352871 11.0315941,9.16093425 11.0315941,8.1613568 C10.7294122,7.7916243 10.4144897,7.40650053 10.0822948,7 L13.9190818,7 Z" id="Combined-Shape" fill="#DEBB69"></path>
        </g>
    </g>
</svg>