<?xml version="1.0" encoding="UTF-8"?>
<svg width="24px" height="24px" viewBox="0 0 24 24" version="1.1" xmlns="http://www.w3.org/2000/svg" xmlns:xlink="http://www.w3.org/1999/xlink">
    <!-- Generator: Sketch 63.1 (92452) - https://sketch.com -->
    <title>esports_others</title>
    <desc>Created with Sketch.</desc>
    <g id="Classifier" stroke="none" stroke-width="1" fill="none" fill-rule="evenodd">
        <g id="esports_others">
            <path d="M12,0 C18.627417,0 24,5.372583 24,12 C24,18.627417 18.627417,24 12,24 C5.372583,24 0,18.627417 0,12 C0,5.372583 5.372583,0 12,0 Z M12,1 C5.92486775,1 1,5.92486775 1,12 C1,18.0751322 5.92486775,23 12,23 C18.0751322,23 23,18.0751322 23,12 C23,5.92486775 18.0751322,1 12,1 Z" id="Oval" fill="#FFFFFF" fill-rule="nonzero"></path>
            <path d="M12,1 C5.92486775,1 1,5.92486775 1,12 C1,18.0751322 5.92486775,23 12,23 C18.0751322,23 23,18.0751322 23,12 C23,5.92486775 18.0751322,1 12,1 Z" id="Path-Copy" fill="#503F32" fill-rule="nonzero"></path>
            <g id="Group-4" transform="translate(6.000000, 5.000000)" fill="#DEBB69">
                <path d="M5.61253352,0.356387172 C5.8045794,0.170745761 6.10861554,0.16880616 6.30301429,0.351982244 L6.30301429,0.351982244 C6.93530396,0.947848635 7.66893128,1.43723512 8.50385687,1.82018349 C9.37735343,2.22082288 10.3588997,2.50366749 11.4484958,2.66871732 C11.7085231,2.70810573 11.8935728,2.94222114 11.8718438,3.20431558 L11.8718438,3.20431558 L11.8265987,3.67836506 C11.6056493,5.71493558 11.0649925,7.52245304 10.2046282,9.10091743 C9.26466729,10.8254137 7.94221675,12.2781478 6.23727665,13.4591199 C6.06605215,13.5777231 5.83924064,13.5777637 5.66797371,13.4592218 L5.66797371,13.4592218 L5.30869618,13.202285 C3.77705832,12.0708705 2.57441672,10.703748 1.70077137,9.10091743 C0.77433035,7.40122549 0.218713583,5.43805977 0.0339210735,3.21142029 C0.0119968212,2.94724613 0.200071167,2.71188202 0.462573368,2.67498686 L0.462573368,2.67498686 L0.902269429,2.60412262 C1.77505902,2.44539532 2.60815013,2.18408227 3.40154275,1.82018349 C4.2853677,1.41480686 5.02236462,0.926874756 5.61253352,0.356387172 Z M6.22441318,4.45732376 C6.09921069,4.202178 5.8995268,4.20475082 5.77558682,4.45732376 L5.77558682,4.45732376 L5.2973622,5.43188094 C5.17215971,5.6870267 4.8482841,5.92203802 4.57114588,5.96253997 L4.57114588,5.96253997 L3.50180313,6.11881749 C3.22184186,6.15973201 3.16256906,6.35152905 3.36310816,6.54812966 L3.36310816,6.54812966 L4.13689184,7.30671663 C4.33947372,7.50531991 4.46162265,7.88773647 4.41428179,8.16534099 L4.41428179,8.16534099 L4.23161624,9.23648298 C4.18379315,9.51691531 4.34684444,9.63287958 4.5947244,9.5018125 L4.5947244,9.5018125 L5.55117363,8.99608785 C5.80157861,8.86368567 6.20094641,8.86502078 6.44882637,8.99608785 L6.44882637,8.99608785 L7.4052756,9.5018125 C7.65568058,9.63421469 7.81572462,9.51408751 7.76838376,9.23648298 L7.76838376,9.23648298 L7.58571821,8.16534099 C7.53789511,7.88490866 7.66256906,7.50331725 7.86310816,7.30671663 L7.86310816,7.30671663 L8.63689184,6.54812966 C8.83947372,6.34952638 8.77533508,6.15931944 8.49819687,6.11881749 L8.49819687,6.11881749 L7.42885412,5.96253997 C7.14889284,5.92162545 6.82657778,5.68445388 6.7026378,5.43188094 L6.7026378,5.43188094 Z" id="Combined-Shape"></path>
            </g>
        </g>
    </g>
</svg>