<svg xmlns="http://www.w3.org/2000/svg" viewBox="0 0 24 24">
  <g fill="none">
    <path fill="#503F32" d="M12 24c6.627 0 12-5.373 12-12S18.627 0 12 0C5.372 0 0 5.373 0 12s5.372 12 12 12Z"/>
    <path fill="#FFF" d="M12 1c6.07 0 11 4.93 11 11s-4.93 11-11 11S1 18.07 1 12 5.94 1 12 1Zm0-1C5.37 0 0 5.37 0 12s5.37 12 12 12 12-5.37 12-12S18.63 0 12 0Z"/>
    <path fill="#DEBB69" d="M12.222 18.436a6.248 6.248 0 0 0 5.007-9.983c-.06.066-.12.13-.182.193a5.986 5.986 0 1 1-.796-.887c.07-.054.144-.107.208-.16a6.216 6.216 0 0 0-4.243-1.663 6.253 6.253 0 0 0-4.41 10.67 6.243 6.243 0 0 0 4.416 1.831v-.001Zm0-5.505a.741.741 0 0 1-.743-.742.74.74 0 0 1 1.036-.679c-.261.305-.454.604-.336.732.117.128.427-.032.753-.256a.847.847 0 0 1 .027.203.733.733 0 0 1-.737.742Zm0 2.501a3.24 3.24 0 0 1-3.239-3.238 3.24 3.24 0 0 1 5.125-2.634l-.289.272c-.026.027-.042.043-.053.059-.128.128-.385.374-.465.55a.311.311 0 0 0-.027.075 1.982 1.982 0 1 0 .743.828.7.7 0 0 0 .15-.048c.165-.074.422-.288.556-.395.01-.01.02-.016.048-.037.085-.07.181-.15.283-.241.262.47.411 1.005.411 1.582 0 1.774-1.453 3.227-3.243 3.227Zm0 2.464a5.706 5.706 0 0 1-5.708-5.707 5.706 5.706 0 0 1 9.518-4.249l-.112.091c-.273.225-.567.465-.85.722a4.463 4.463 0 1 0 1.619 3.441c0-.908-.273-1.747-.737-2.453.299-.278.577-.55.828-.801.027-.027.053-.054.075-.08a5.705 5.705 0 0 1-4.633 9.036Z"/>
    <path fill="#F9F9FA" d="M13.621 11.061c-.63.572-1.17 1.005-1.202.967-.032-.037.454-.529 1.085-1.1.033.05.073.094.117.133Zm3.554-2.965a21.808 21.808 0 0 1-1.72 1.72l-.043.037-.519-.571c.016-.011.027-.027.043-.038a21.944 21.944 0 0 1 1.865-1.528c.198-.144.411-.273.62-.406-.112.048-.246.096-.406.165.048-.705.352-2.089.945-2.399.37-.192.717.005.893.31-.481.214-1.165 1.053-1.368 1.817.267-.502.79-1.202 1.208-1.507.486-.353.684-.112.518.24l-1.785 1.636 1.796-1.475c.497.053.978.588.652 1.09-.358.545-1.705.716-2.426.705.074-.133.133-.25.181-.347-.155.176-.299.374-.454.55v.001Zm-1.833 1.886-.524-.577-.026-.032-.027-.027-.005-.006-.166.15.09.102.134.15.358.395c.054-.054.107-.107.166-.155Zm-.24.213-.444-.491-.048-.054-.09-.101-.14.123.225.25.005.006.353.39c.048-.037.09-.08.139-.123Zm-.209.193-.582-.647a3.252 3.252 0 0 0-.14.129l.161.176.07.08.347.385c.048-.043.096-.08.144-.123Zm-.214.187a1.494 1.494 0 0 1-.144.118l-.465-.513-.005-.006-.096-.107a2.73 2.73 0 0 1 .133-.128l.577.636Zm-.219.182-.331-.364-.016-.016-.22-.24c-.117.117-.277.272-.341.411-.053.118-.043.235.085.374.145.16.278.171.417.112.14-.064.283-.181.406-.277Z"/>
  </g>
</svg>