<svg fill="none" xmlns="http://www.w3.org/2000/svg" viewBox="0 0 24 24">
  <g id="classifier/track and field" clip-path="url(#clip0_448_170)">
    <path id="Vector" d="M12.02 24c6.627 0 12-5.373 12-12s-5.373-12-12-12c-6.628 0-12 5.373-12 12s5.372 12 12 12Z" fill="#503F32"/>
    <g id="kkTe4t.tif_1_">
      <g id="Group">
        <path id="Union" fill-rule="evenodd" clip-rule="evenodd" d="M7.554 12.515h1.567c.29 0 .477.159.477.391 0 .22-.184.385-.456.389-1.07.003-2.142.003-3.212 0-.279 0-.451-.166-.451-.392.003-.233.187-.385.48-.388h1.595Zm-1.39 2.75h-.45c-.302 0-.604.002-.908 0-.296-.004-.427-.114-.427-.347.003-.233.141-.35.427-.35.91-.003 1.825-.003 2.735 0 .286 0 .431.125.431.35 0 .23-.141.346-.43.346-.304.003-.61.002-.917.001h-.46Zm11.157-1.585h.692c.23.001.46.002.691 0 .195-.004.293-.135.297-.375.003-.24-.11-.391-.304-.391a203.02 203.02 0 0 0-2.064 0c-.198 0-.311.137-.315.377-.003.237.11.385.307.388.234.003.465.002.696.001Z" fill="#fff"/>
        <path id="Vector_2" d="M7.348 9.769c-.345 0-.691.003-1.04 0-.199-.004-.311-.152-.308-.389.004-.24.117-.377.314-.377.689-.004 1.377-.004 2.065 0 .194 0 .307.151.304.391-.004.24-.103.371-.297.375-.346.003-.692 0-1.038 0Z" fill="#fff"/>
        <path id="Vector_3" d="M5.165 17.264c-.452 0-.904.004-1.359 0-.296-.003-.427-.113-.427-.346.003-.233.141-.35.427-.35.91-.003 1.825-.003 2.735 0 .286 0 .431.124.431.35 0 .23-.141.346-.43.346-.456.004-.918 0-1.377 0Z" fill="#fff"/>
        <path id="Union_2" fill-rule="evenodd" clip-rule="evenodd" d="M15.966 7.7a1.323 1.323 0 0 0 1.359-1.341A1.342 1.342 0 0 0 16.005 5a1.352 1.352 0 0 0-1.366 1.348A1.34 1.34 0 0 0 15.966 7.7Zm-1.56 7.208-.85-.475c-.462-.259-.91-.509-1.359-.754-.483-.26-.78-.649-.89-1.189-.077-.392 0-.752.191-1.087.212-.369.43-.733.647-1.097l.36-.604c.158-.265.112-.34-.202-.346-.48-.01-.72-.014-.912.08-.191.095-.334.288-.62.674l-.007.008-.201.273c-.238.323-.476.646-.734.952-.117.141-.311.279-.48.296-.163.018-.385-.084-.509-.208-.183-.183-.144-.445 0-.642.565-.777 1.137-1.546 1.723-2.305.19-.237.47-.343.78-.343h1.32c.88-.001 1.76-.002 2.64 0 .452 0 .773.233 1.006.607.136.22.274.439.412.658.223.354.445.707.661 1.065.106.177.226.247.434.24.48-.014.96-.014 1.44 0 .16.003.329.042.466.11a.51.51 0 0 1 .258.589c-.085.332-.307.543-.625.547-.342.007-.685.006-1.028.006l-.617.001c-.059 0-.118 0-.178-.002-.138-.002-.276-.004-.415.006-.356.024-.6-.138-.787-.431-.131-.21-.27-.416-.409-.622a30.508 30.508 0 0 1-.286-.43c-.12-.183-.208-.166-.31.01-.407.696-.813 1.391-1.225 2.08-.092.151-.043.222.088.31.273.184.545.37.817.555.315.215.63.43.948.642.377.25.585.596.522 1.041-.067.48-.367.78-.847.921a90.04 90.04 0 0 0-1.74.54c-.39.125-.782.25-1.176.371-.338.106-.631-.025-.737-.318-.12-.324-.007-.6.332-.759.437-.203.876-.402 1.314-.6l.553-.25c.045-.016.089-.04.158-.079l.075-.041Zm-3.472-2.009c.247.548.575.943 1.062 1.19.162.085.088.187.007.293-.71.91-1.419 1.825-2.128 2.739l-.796 1.024-.796 1.023c-.152.198-.346.307-.6.258-.244-.046-.413-.201-.438-.441a.788.788 0 0 1 .102-.456c.966-1.542 1.937-3.077 2.909-4.613l.473-.748c.028-.045.06-.085.1-.135.03-.038.065-.08.105-.134Z" fill="#DEBB69"/>
      </g>
    </g>
    <path id="Vector_4" d="M12.02 1c6.07 0 11 4.93 11 11s-4.93 11-11 11-11-4.93-11-11 4.94-11 11-11Zm0-1c-6.63 0-12 5.37-12 12s5.37 12 12 12 12-5.37 12-12-5.37-12-12-12Z" fill="#fff"/>
  </g>
  <defs>
    <clipPath id="clip0_448_170">
      <path fill="#fff" d="M0 0h24v24H0z"/>
    </clipPath>
  </defs>
</svg>