<?xml version="1.0" encoding="UTF-8"?>
<svg width="24px" height="24px" viewBox="0 0 24 24" version="1.1" xmlns="http://www.w3.org/2000/svg" xmlns:xlink="http://www.w3.org/1999/xlink">
    <!-- Generator: Sketch 63.1 (92452) - https://sketch.com -->
    <title>esports_overwatch</title>
    <desc>Created with Sketch.</desc>
    <g id="Classifier" stroke="none" stroke-width="1" fill="none" fill-rule="evenodd">
        <g id="esports_overwatch">
            <path d="M12,0 C18.627417,0 24,5.372583 24,12 C24,18.627417 18.627417,24 12,24 C5.372583,24 0,18.627417 0,12 C0,5.372583 5.372583,0 12,0 Z M12,1 C5.92486775,1 1,5.92486775 1,12 C1,18.0751322 5.92486775,23 12,23 C18.0751322,23 23,18.0751322 23,12 C23,5.92486775 18.0751322,1 12,1 Z" id="Oval" fill="#FFFFFF" fill-rule="nonzero"></path>
            <path d="M12,1 C5.92486775,1 1,5.92486775 1,12 C1,18.0751322 5.92486775,23 12,23 C18.0751322,23 23,18.0751322 23,12 C23,5.92486775 18.0751322,1 12,1 Z" id="Path-Copy" fill="#503F32" fill-rule="nonzero"></path>
            <path d="M7.12071124,7.06218066 C7.54842315,7.55138968 7.96772499,8.03106985 8.41327363,8.54072425 C7.44537674,9.73913831 6.89206836,11.108794 7.07921542,12.6740223 C7.16729007,13.4114439 7.36543491,14.1553413 7.92197793,14.7905359 C8.05053179,14.6762823 8.15514931,14.585897 8.25699428,14.4923664 C8.86168724,13.937103 9.45187053,13.3649098 10.0756017,12.8321271 C10.3958311,12.5584735 10.6150473,12.1998004 10.7211435,11.845568 C10.9313027,11.1440415 11.3010684,10.5080143 11.4839642,9.80102954 C11.490988,9.7738307 11.5444058,9.75875107 11.6033686,9.72026564 L11.6033686,14.1329531 C10.9135584,14.759174 10.1786481,15.4261006 9.41656673,16.1177281 C9.7461304,16.5084108 10.1735651,16.6630001 10.6423107,16.8072279 C11.4312857,17.0499822 12.2297799,16.9553413 13.0126553,16.9116751 C13.4337131,16.8881768 13.9204803,16.7682799 14.2781392,16.4330126 C14.3570644,16.3590947 14.4761916,16.3282878 14.6869053,16.2222679 C13.9415517,15.5038115 13.2671753,14.8539999 12.5449263,14.1580242 L12.5449263,9.7972365 C12.9527683,10.718944 13.1922241,11.6236292 13.6712282,12.4253473 C13.7538501,12.5636543 13.8125358,12.7492354 13.936099,12.8248186 C14.5671312,13.2111531 14.9953976,13.8116553 15.5371537,14.2900403 C15.7117319,14.4441671 15.9087677,14.5727602 16.1178179,14.7297548 C16.8488467,14.0718945 16.8146519,13.1177149 17.0462522,12.2616917 C17.0105787,12.0608458 16.9170514,11.8289156 16.9395091,11.6088271 C17.0235173,10.7889764 16.6205735,10.1260279 16.2797348,9.44679707 C16.1456358,9.17943435 15.9262348,8.9550902 15.7389953,8.70225203 C15.8327999,7.98018767 16.4816688,7.6869213 16.8868306,7.15737659 C17.3787732,7.48875834 17.6899457,7.92708518 17.9587905,8.39843917 C18.1620184,8.75452191 18.388166,9.10653406 18.5258692,9.48861297 C18.6644967,9.87318972 18.8245652,10.2593392 18.850812,10.6828639 C18.8663383,10.934777 18.9612519,11.1810467 18.9865745,11.4331448 C19.0110653,11.6762691 18.9953542,11.9239265 18.9912878,12.1693636 C18.9658728,13.7318166 18.4426003,15.0908333 17.4881041,16.3414247 C16.808922,17.2312152 15.9583963,17.8437441 15.002329,18.3404467 C14.4772082,18.6132677 13.9051389,18.7687821 13.3100574,18.8889566 C12.8050838,18.9909985 12.3154517,19.0018225 11.8192578,18.9997872 C10.3376075,18.9940514 8.9957862,18.4675596 7.84138917,17.6082059 C6.79521398,16.8295236 5.97453944,15.7852362 5.49692165,14.5439886 C5.29156818,14.0105584 5.11514164,13.4459512 5.14037183,12.8460041 C5.14998334,12.6192546 5.23574752,12.3680817 5.02429445,12.1553942 C4.97041457,12.1011815 5.01995078,11.9313276 5.04102216,11.8181841 C5.06588268,11.6838552 5.14554726,11.5524866 5.14240504,11.4212106 C5.12373654,10.6577929 5.36614975,9.96672041 5.65467969,9.27352012 C6.00115591,8.4411802 6.50945658,7.73030992 7.12071124,7.06218066 Z M12.217248,5 C12.2434023,5.24673231 12.4368339,5.14237759 12.5544824,5.14237759 C13.5274623,5.14237759 14.4162491,5.44193484 15.2651112,5.88636754 C15.4879317,6.00293399 15.7060389,6.13143461 15.9131483,6.2738122 C16.0294106,6.35365096 16.1185942,6.47280777 16.2355034,6.58992929 C15.8362563,7.06507632 15.4576185,7.51561488 15.0542126,7.99557259 C14.8946986,7.92665037 14.7355543,7.88427939 14.6062611,7.79750215 C14.0864082,7.44891297 13.4987202,7.22392123 12.9055795,7.11817881 C12.3513469,7.01937488 11.7604243,7.10855746 11.1870611,7.14065949 C10.4064037,7.18423313 9.7826726,7.65401441 9.12835101,7.93839952 C8.6879778,7.49748232 8.25906445,7.06822177 7.78523581,6.59390735 C7.89733921,6.47817353 8.01535738,6.27177691 8.19122942,6.18981035 C8.76588643,5.92235512 9.29877036,5.58144453 9.93229783,5.41103549 C10.4343141,5.27596643 10.9166452,5.13784445 11.4380693,5.14182251 C11.5555329,5.14274764 11.7491493,5.24673231 11.7753961,5 L12.217248,5 Z" id="Combined-Shape" fill="#DEBB69"></path>
        </g>
    </g>
</svg>