<svg width="24" height="24" viewBox="0 0 24 24" fill="none" xmlns="http://www.w3.org/2000/svg">
<circle cx="12" cy="12" r="12" fill="white"/>
<circle cx="12" cy="12" r="11" fill="#503F32"/>
<path fill-rule="evenodd" clip-rule="evenodd" d="M16.0015 9.0039C16.64 8.95898 21.0074 13.3325 19.7851 13.9858L19.7535 14.0078C19.1446 14.4373 18.5634 14.8384 17.9971 15.2291C17.9802 15.2408 17.9633 15.2524 17.9464 15.2641L12.5724 19L5.2296 14.6287L5.2032 14.6133C5.20325 14.6133 5.2033 14.6132 5.20335 14.6131L4.22256 14.0292C4.20331 14.0194 4.1854 14.0087 4.16879 13.9972L4.10951 13.9619L4.1159 13.9536C3.32456 13.1743 6.79571 9.69694 8.32794 8.97863C8.05045 8.94728 7.36045 8.62438 7.36045 8.62438C8.3929 8.48306 9.49821 6.80402 9.2648 6.53915L8.53443 5.30935C9.48893 5.73613 11.0151 4.84233 12.1993 4C13.2359 4.72581 14.6614 5.5424 15.7676 5.26724L15.0683 6.55834C14.8349 6.80308 15.8159 8.20884 16.9059 8.60707L16.0015 9.0039ZM4.4745 13.4933C5.01018 12.4959 5.94164 11.501 6.69829 10.9413C8.46668 12.3391 9.05414 15.7912 7.27368 15.093C7.19398 15.0617 7.1181 15.0311 7.0458 15.0012L4.4745 13.4933ZM8.92291 16.1019C9.82805 15.3398 10.2237 12.8548 7.17994 10.536C7.47228 10.0465 8.7799 9.16394 9.06063 9.34738C8.22632 9.93233 10.3673 13.5155 10.636 13.6653C11.7984 14.0167 12.9023 14.0677 13.9621 13.6653C13.996 13.6133 16.1013 9.75825 15.3333 9.33615C15.6433 9.18687 16.6409 10.0133 16.8818 10.5042C14.7135 12.1822 14.5387 15.357 15.4505 16.2145L12.5427 18.2246L8.92291 16.1019ZM18.383 14.1873C16.6744 15.0617 14.0528 15.6023 17.4084 10.7382C18.3063 11.5632 18.9536 12.3704 19.5281 13.3957L18.383 14.1873ZM9.31379 5.79278C9.3137 5.79277 9.31361 5.79276 9.31353 5.79276V5.79229L9.31379 5.79278ZM9.31379 5.79278L9.80725 6.70855C11.4151 7.4718 12.9547 7.46759 14.435 6.80355L15.0424 5.79229C14.6266 5.86155 14.2633 5.77263 13.9403 5.55971C14.1199 6.315 12.7125 5.79837 13.4907 5.31544C13.0642 5.16943 12.6211 4.94247 12.1687 4.67012C11.7919 4.92235 11.3524 5.13246 10.8332 5.28642C11.5974 5.89337 10.3325 6.25884 10.3845 5.57422C10.1367 5.75295 9.79206 5.83858 9.31379 5.79278ZM8.97754 8.70418C8.97708 8.70425 8.97663 8.70433 8.97618 8.7044V8.70487C8.97663 8.70464 8.97708 8.70441 8.97754 8.70418ZM10.2982 7.69642C10.1123 8.34098 9.3617 8.63959 8.97754 8.70418C9.79677 8.28377 9.55013 7.91278 8.61703 8.21398C9.11585 7.91589 9.27965 7.59955 9.35065 7.28461C9.40911 7.02583 10.3724 7.43951 10.2982 7.69642ZM13.3134 10.9352C13.196 10.638 12.8243 10.4237 12.5032 10.2491V10.2487C12.5275 10.1912 12.6702 10.1291 12.8671 10.0434C13.3438 9.83576 14.1379 9.48993 14.3357 8.7381C15.5143 9.24256 13.6559 12.6638 12.2494 12.8496C11.0183 12.6821 8.41889 9.39324 9.9975 8.73669C9.99483 9.29997 10.9237 9.74639 11.4875 10.0173C11.7078 10.1232 11.8723 10.2022 11.9037 10.251C11.5464 10.4532 11.2531 10.6296 11.0764 10.9469C11.2917 10.6843 13.0206 10.668 13.3134 10.9352ZM15.3672 8.7044C14.9134 8.64123 14.4628 8.40725 14.0452 7.69642L14.0447 7.69595C14.0517 7.44419 14.8725 7.04455 14.9922 7.28415C15.0146 7.32887 15.0356 7.37481 15.057 7.42161C15.1745 7.67843 15.3039 7.96137 15.7259 8.21351C14.9468 7.97439 14.6605 8.30336 15.3672 8.7044ZM11.7394 9.33951C11.7396 9.33902 11.7397 9.33852 11.7399 9.33802H11.7404C11.7401 9.33852 11.7397 9.33902 11.7394 9.33951ZM12.5974 9.33615C12.8089 10.0025 11.5223 10.0035 11.7394 9.33951C11.0835 10.3622 9.79647 8.22401 10.5399 7.68144C10.6448 7.47788 13.6753 7.47741 13.8252 7.68098C14.5742 7.69735 13.4359 10.5093 12.5974 9.33615ZM11.9784 8.45966C11.9705 8.21539 10.6485 7.75117 10.5775 8.34174L10.5771 8.34221C10.6805 8.24721 10.7984 8.20416 10.9297 8.21164C10.9576 8.4255 11.5511 8.70347 11.7599 8.725C11.7738 8.90937 11.8193 9.0872 11.8944 9.25754L11.9784 8.45966ZM13.7584 8.34174C13.6549 8.24674 13.5371 8.20369 13.4058 8.21117C13.3779 8.42503 12.7844 8.703 12.5756 8.72453C12.5617 8.9089 12.5162 9.08673 12.4411 9.25707L12.3571 8.45919C12.3005 8.25048 13.5974 7.76006 13.758 8.34127L13.7584 8.34174Z" fill="#DEBB69"/>
</svg>
