<svg xmlns="http://www.w3.org/2000/svg" width="24" height="24" viewBox="0 0 24 24">
  <g fill="none">
    <path fill="#FFF" d="M12,24 C18.6274,24 24,18.6274 24,12 C24,5.37258 18.6274,0 12,0 C5.37258,0 0,5.37258 0,12 C0,18.6274 5.37258,24 12,24 Z"/>
    <path fill="#FFF" d="M12,0 C18.6274,0 24,5.37258 24,12 C24,18.6274 18.6274,24 12,24 C5.37258,24 0,18.6274 0,12 C0,5.37258 5.37258,0 12,0 Z M12,1 C5.92487,1 1,5.92487 1,12 C1,18.0751 5.92487,23 12,23 C18.0751,23 23,18.0751 23,12 C23,5.92487 18.0751,1 12,1 Z"/>
    <path fill="#503F32" d="M12,1 C5.92487,1 1,5.92487 1,12 C1,18.0751 5.92487,23 12,23 C18.0751,23 23,18.0751 23,12 C23,5.92487 18.0751,1 12,1 Z"/>
    <g transform="translate(4 8)">
      <path fill="#FF7373" d="M13.2718437,5.45625 C11.7675625,5.45625 10.54375,4.2324375 10.54375,2.72815625 C10.54375,1.22384375 11.7675625,0 13.2718437,0 C14.7761562,0 16,1.22384375 16,2.72815625 C16,4.2324375 14.7761562,5.45625 13.2718437,5.45625 Z M13.2718437,0.93753125 C12.2845,0.93753125 11.48125,1.7408125 11.48125,2.7281875 C11.48125,3.71553125 12.2845,4.51878125 13.2718437,4.51878125 C14.2592187,4.51878125 15.0625,3.71553125 15.0625,2.7281875 C15.0625,1.7408125 14.2592187,0.93753125 13.2718437,0.93753125 Z"/>
      <path fill="#FD0F0F" d="M13.2719062,3.125e-05 C13.2719062,3.125e-05 13.2719062,3.125e-05 13.271875,3.125e-05 L13.271875,0.93753125 C13.2719062,0.93753125 13.2719062,0.93753125 13.2719062,0.93753125 C14.25925,0.93753125 15.0625,1.7408125 15.0625,2.7281875 C15.0625,3.71553125 14.25925,4.51878125 13.2719062,4.51878125 C13.2719062,4.51878125 13.2719062,4.51878125 13.271875,4.51878125 L13.271875,5.45628125 C13.2719062,5.45628125 13.2719062,5.45628125 13.2719062,5.45628125 C14.7761875,5.45628125 16,4.23246875 16,2.7281875 C16,1.223875 14.7761875,3.125e-05 13.2719062,3.125e-05 Z"/>
      <path fill="#91DC5A" d="M10.6359375,8.21771875 C9.13165625,8.21771875 7.90784375,6.99390625 7.90784375,5.489625 C7.90784375,3.9853125 9.13165625,2.76146875 10.6359375,2.76146875 C12.14025,2.76146875 13.3640937,3.9853125 13.3640937,5.489625 C13.3640937,6.99390625 12.1402187,8.21771875 10.6359375,8.21771875 Z M10.6359375,3.699 C9.64859375,3.699 8.84534375,4.50228125 8.84534375,5.48965625 C8.84534375,6.477 9.64859375,7.28025 10.6359375,7.28025 C11.6233125,7.28025 12.4265937,6.477 12.4265937,5.48965625 C12.4265937,4.50228125 11.6232812,3.699 10.6359375,3.699 Z"/>
      <path fill="#4CBA68" d="M10.636,2.7615 C10.636,2.7615 10.636,2.7615 10.6359687,2.7615 L10.6359687,3.699 C10.636,3.699 10.636,3.699 10.636,3.699 C11.6233437,3.699 12.4265937,4.50228125 12.4265937,5.48965625 C12.4265937,6.477 11.6233437,7.28025 10.636,7.28025 C10.636,7.28025 10.636,7.28025 10.6359687,7.28025 L10.6359687,8.21775 C10.636,8.21775 10.636,8.21775 10.636,8.21775 C12.1402812,8.21775 13.3640937,6.9939375 13.3640937,5.48965625 C13.3640625,3.98534375 12.14025,2.7615 10.636,2.7615 Z"/>
      <path fill="#A4A4A4" d="M8,5.45625 C6.4956875,5.45625 5.27184375,4.2324375 5.27184375,2.72815625 C5.27184375,1.22384375 6.4956875,0 8,0 C9.5043125,0 10.7281563,1.22384375 10.7281563,2.72815625 C10.7281563,4.2324375 9.5043125,5.45625 8,5.45625 Z M8,0.93753125 C7.012625,0.93753125 6.20934375,1.7408125 6.20934375,2.7281875 C6.20934375,3.71553125 7.012625,4.51878125 8,4.51878125 C8.987375,4.51878125 9.79065625,3.71553125 9.79065625,2.7281875 C9.79065625,1.7408125 8.987375,0.93753125 8,0.93753125 Z"/>
      <path fill="#7A7A7A" d="M8.0000625,3.125e-05 C8.0000625,3.125e-05 8.0000625,3.125e-05 8.00003125,3.125e-05 L8.00003125,0.93753125 C8.0000625,0.93753125 8.0000625,0.93753125 8.0000625,0.93753125 C8.98740625,0.93753125 9.79065625,1.7408125 9.79065625,2.7281875 C9.79065625,3.71553125 8.98740625,4.51878125 8.0000625,4.51878125 C8.0000625,4.51878125 8.0000625,4.51878125 8.00003125,4.51878125 L8.00003125,5.45628125 C8.0000625,5.45628125 8.0000625,5.45628125 8.0000625,5.45628125 C9.50434375,5.45628125 10.7281563,4.23246875 10.7281563,2.7281875 C10.7281563,1.223875 9.50434375,3.125e-05 8.0000625,3.125e-05 Z"/>
      <path fill="#FFCD00" d="M5.3640625,8.21771875 C3.85975,8.21771875 2.63590625,6.99390625 2.63590625,5.489625 C2.63590625,3.9853125 3.85975,2.76146875 5.3640625,2.76146875 C6.86834375,2.76146875 8.09215625,3.9853125 8.09215625,5.489625 C8.09215625,6.99390625 6.86834375,8.21771875 5.3640625,8.21771875 Z M5.3640625,3.699 C4.3766875,3.699 3.57340625,4.50228125 3.57340625,5.48965625 C3.57340625,6.477 4.3766875,7.28025 5.3640625,7.28025 C6.35140625,7.28025 7.15465625,6.477 7.15465625,5.48965625 C7.15465625,4.50228125 6.35140625,3.699 5.3640625,3.699 Z"/>
      <path fill="#FF9811" d="M5.3640625,2.7615 L5.3640625,2.7615 L5.36403125,3.699 C5.3640625,3.699 5.3640625,3.699 5.3640625,3.699 C6.35140625,3.699 7.15465625,4.50228125 7.15465625,5.48965625 C7.15465625,6.477 6.35140625,7.28025 5.3640625,7.28025 C5.3640625,7.28025 5.3640625,7.28025 5.36403125,7.28025 L5.36403125,8.21775 C5.3640625,8.21775 5.3640625,8.21775 5.3640625,8.21775 C6.86834375,8.21775 8.09215625,6.9939375 8.09215625,5.48965625 C8.09215625,3.98534375 6.86834375,2.7615 5.3640625,2.7615 Z"/>
      <path fill="#00DBCD" d="M2.72815625,5.45625 C1.22384375,5.45625 0,4.2324375 0,2.72815625 C0,1.22384375 1.22384375,0 2.72815625,0 C4.2324375,0 5.45625,1.22384375 5.45625,2.72815625 C5.45625,4.2324375 4.23240625,5.45625 2.72815625,5.45625 Z M2.72815625,0.93753125 C1.74078125,0.93753125 0.9375,1.7408125 0.9375,2.72815625 C0.9375,3.7155 1.74078125,4.51875 2.72815625,4.51875 C3.7155,4.51875 4.51875,3.7155 4.51875,2.72815625 C4.51875,1.7408125 3.71546875,0.93753125 2.72815625,0.93753125 Z"/>
      <path fill="#00B6BD" d="M2.72815625,3.125e-05 L2.72815625,3.125e-05 L2.728125,0.93753125 C2.72815625,0.93753125 2.72815625,0.93753125 2.72815625,0.93753125 C3.7155,0.93753125 4.51875,1.7408125 4.51875,2.7281875 C4.51875,3.71553125 3.7155,4.51878125 2.72815625,4.51878125 C2.72815625,4.51878125 2.72815625,4.51878125 2.728125,4.51878125 L2.728125,5.45628125 C2.72815625,5.45628125 2.72815625,5.45628125 2.72815625,5.45628125 C4.2324375,5.45628125 5.45625,4.23246875 5.45625,2.7281875 C5.45625,1.223875 4.23240625,3.125e-05 2.72815625,3.125e-05 Z"/>
    </g>
  </g>
</svg>
