<svg width="24" height="24" viewBox="0 0 24 24" fill="none" xmlns="http://www.w3.org/2000/svg">
<path d="M12 24C18.6274 24 24 18.6274 24 12C24 5.37258 18.6274 0 12 0C5.37258 0 0 5.37258 0 12C0 18.6274 5.37258 24 12 24Z" fill="white"/>
<path d="M12 0C18.6274 0 24 5.37258 24 12C24 18.6274 18.6274 24 12 24C5.37258 24 0 18.6274 0 12C0 5.37258 5.37258 0 12 0ZM12 1C5.92487 1 1 5.92487 1 12C1 18.0751 5.92487 23 12 23C18.0751 23 23 18.0751 23 12C23 5.92487 18.0751 1 12 1Z" fill="white"/>
<path d="M12 1C5.92487 1 1 5.92487 1 12C1 18.0751 5.92487 23 12 23C18.0751 23 23 18.0751 23 12C23 5.92487 18.0751 1 12 1Z" fill="#503F32"/>
<path fill-rule="evenodd" clip-rule="evenodd" d="M6.60755 13.6437C7.29013 14.6176 8.52835 16.1463 10.2552 17.3878L10.0658 17.474C9.99073 17.5354 9.61997 17.7743 9.11219 17.9083C8.88248 17.9693 8.65025 18 8.42256 18C7.78229 18 7.19996 17.7602 6.73903 17.3052C6.10985 16.687 5.8756 15.8828 6.06249 14.9819C6.16878 14.4735 6.38389 14.0881 6.47103 13.9465L6.60755 13.6437ZM13.7411 13.0953L14.7546 13.5362C14.7597 13.5382 15.2528 13.7725 15.3541 14.2385C15.4151 14.5156 15.3314 14.8331 15.1058 15.1848L11.4299 16.854C10.9725 16.5613 10.5352 16.2509 10.1418 15.9184L13.7411 13.0953ZM11.4004 10.6318L12.6004 10.7903C12.619 10.7933 13.0553 10.8669 13.1233 11.2649C13.1727 11.5521 13.3102 12.2726 13.3802 12.6405L9.72299 15.5089C9.71443 15.5149 9.7109 15.5245 9.70334 15.5316C9.31042 15.1693 8.95477 14.8035 8.64094 14.4503L11.3995 10.6321C11.4005 10.6316 11.4005 10.6321 11.401 10.6316L11.4004 10.6318ZM16.3873 11.0198L17.1868 11.4435C17.7414 11.7725 18.0502 12.363 17.9933 12.9853C17.9364 13.605 17.5359 14.127 16.9475 14.3482L15.8846 14.8314C15.9501 14.5825 15.9718 14.3397 15.9194 14.1074C15.7521 13.3576 15.0257 13.0216 14.9915 13.0059L14.26 12.6875L16.3873 11.0198ZM9.59908 8.66121L9.72641 8.67406C10.0473 8.73301 10.3239 8.99955 10.5485 9.46763C10.7248 9.83393 10.8478 10.0869 10.9465 10.2683L8.25194 13.9963C7.72854 13.3614 7.35275 12.8102 7.14067 12.4797L8.74511 8.98091C8.9582 8.82723 9.34407 8.60453 9.72641 8.67406L9.59908 8.66121ZM13.3631 7.91551L14.2618 8.04752C15.1152 8.07775 15.8441 8.81035 15.8824 9.71125L16.0159 10.5728L13.8941 12.2371C13.8231 11.8632 13.7334 11.3866 13.6956 11.1674C13.5731 10.4505 12.9175 10.2637 12.7299 10.2245L12.6811 10.2156L11.7864 10.0972L13.3631 7.91551ZM10.8821 6.00872C11.5133 5.94423 12.1087 6.241 12.4381 6.77761L12.8814 7.59083L11.3284 9.73976C11.2629 9.60876 11.1803 9.44199 11.0715 9.21576C10.7622 8.57183 10.3451 8.19747 9.83124 8.10325C9.58138 8.05639 9.34261 8.08813 9.12549 8.15162L9.127 8.14759L9.51086 7.07337C9.72244 6.48033 10.2478 6.07221 10.8821 6.00872Z" fill="#DEBB69"/>
</svg>
