<svg xmlns="http://www.w3.org/2000/svg" xmlns:xlink="http://www.w3.org/1999/xlink" width="24" height="24"><defs><path id="c" d="M.87 12a12 12 0 1 0 24 0 12 12 0 0 0-24 0"/><path id="e" d="M.87 12a12 12 0 1 0 24 0 12 12 0 0 0-24 0"/><path id="g" d="M.87 12a12 12 0 1 0 24 0 12 12 0 0 0-24 0"/><path id="i" d="M.87 12a12 12 0 1 0 24 0 12 12 0 0 0-24 0"/><path id="k" d="M.87 12a12 12 0 1 0 24 0 12 12 0 0 0-24 0"/><path id="m" d="M.87 12a12 12 0 1 0 24 0 12 12 0 0 0-24 0"/><path id="o" d="M.87 12a12 12 0 1 0 24 0 12 12 0 0 0-24 0"/><path id="q" d="M.87 12a12 12 0 1 0 24 0 12 12 0 0 0-24 0Z"/><path id="s" d="M.87 12a12 12 0 1 0 24 0 12 12 0 0 0-24 0"/><path id="u" d="M.87 12a12 12 0 1 0 24 0 12 12 0 0 0-24 0"/><path id="w" d="M.87 12a12 12 0 1 0 24 0 12 12 0 0 0-24 0"/><path id="y" d="M.87 12a12 12 0 1 0 24 0 12 12 0 0 0-24 0"/><path id="A" d="M.87 12a12 12 0 1 0 24 0 12 12 0 0 0-24 0Z"/><path id="C" d="M.87 12a12 12 0 1 0 24 0 12 12 0 0 0-24 0Z"/><path id="E" d="M.87 12a12 12 0 1 0 24 0 12 12 0 0 0-24 0Z"/><path id="G" d="M.87 12a12 12 0 1 0 24 0 12 12 0 0 0-24 0"/><path id="I" d="M.87 12a12 12 0 1 0 24 0 12 12 0 0 0-24 0"/><path id="K" d="M.87 12a12 12 0 1 0 24 0 12 12 0 0 0-24 0Z"/><path id="M" d="M.87 12a12 12 0 1 0 24 0 12 12 0 0 0-24 0Z"/><path id="O" d="M.87 12a12 12 0 1 0 24 0 12 12 0 0 0-24 0Z"/><path id="Q" d="M.87 12a12 12 0 1 0 24 0 12 12 0 0 0-24 0Z"/><path id="S" d="M.87 12a12 12 0 1 0 24 0 12 12 0 0 0-24 0"/><path id="U" d="M.87 12a12 12 0 1 0 24 0 12 12 0 0 0-24 0"/><path id="W" d="M.87 12a12 12 0 1 0 24 0 12 12 0 0 0-24 0Z"/><path id="Y" d="M.87 12a12 12 0 1 0 24 0 12 12 0 0 0-24 0"/><path id="aa" d="M.87 12a12 12 0 1 0 24 0 12 12 0 0 0-24 0"/><path id="ac" d="M.87 12a12 12 0 1 0 24 0 12 12 0 0 0-24 0"/><path id="ae" d="M.87 12a12 12 0 1 0 24 0 12 12 0 0 0-24 0"/><path id="ag" d="M.87 12a12 12 0 1 0 24 0 12 12 0 0 0-24 0"/><path id="ai" d="M.87 12a12 12 0 1 0 24 0 12 12 0 0 0-24 0"/><path id="ak" d="M.87 12a12 12 0 1 0 24 0 12 12 0 0 0-24 0Z"/><path id="am" d="M.87 12a12 12 0 1 0 24 0 12 12 0 0 0-24 0"/><path id="ao" d="M.87 12a12 12 0 1 0 24 0 12 12 0 0 0-24 0"/><path id="aq" d="M.87 12a12 12 0 1 0 24 0 12 12 0 0 0-24 0"/><path id="as" d="M.87 12a12 12 0 1 0 24 0 12 12 0 0 0-24 0Z"/><path id="au" d="M.87 12a12 12 0 1 0 24 0 12 12 0 0 0-24 0"/><path id="aw" d="M.87 12a12 12 0 1 0 24 0 12 12 0 0 0-24 0Z"/><path id="ay" d="M.87 12a12 12 0 1 0 24 0 12 12 0 0 0-24 0Z"/><path id="aA" d="M.87 12a12 12 0 1 0 24 0 12 12 0 0 0-24 0"/><path id="aC" d="M.87 12a12 12 0 1 0 24 0 12 12 0 0 0-24 0Z"/><path id="aE" d="M.87 12a12 12 0 1 0 24 0 12 12 0 0 0-24 0"/><path id="aG" d="M.87 12a12 12 0 1 0 24 0 12 12 0 0 0-24 0"/><path id="aI" d="M.87 12a12 12 0 1 0 24 0 12 12 0 0 0-24 0"/><path id="aK" d="M.87 12a12 12 0 1 0 24 0 12 12 0 0 0-24 0"/><path id="aM" d="M.87 12a12 12 0 1 0 24 0 12 12 0 0 0-24 0Z"/><path id="aO" d="M.87 12a12 12 0 1 0 24 0 12 12 0 0 0-24 0"/><path id="aQ" d="M.87 12a12 12 0 1 0 24 0 12 12 0 0 0-24 0"/><path id="aS" d="M.87 12a12 12 0 1 0 24 0 12 12 0 0 0-24 0"/><path id="aU" d="M.87 12a12 12 0 1 0 24 0 12 12 0 0 0-24 0Z"/><path id="aW" d="M.87 12a12 12 0 1 0 24 0 12 12 0 0 0-24 0"/><circle id="a" cx="12" cy="12" r="11.8"/><circle id="aY" cx="12" cy="12" r="11.8"/></defs><g fill="none" fill-rule="evenodd"><circle cx="12" cy="12" r="11.8" fill="#3D3D3D" fill-rule="nonzero"/><mask id="b" fill="#fff"><use xlink:href="#a"/></mask><g mask="url(#b)"><mask id="d" fill="#fff"><use xlink:href="#c"/></mask><path fill="#FFF" fill-rule="nonzero" d="m8.13 18.81.37 1.69 2.09-1.4.43 1.92L13 19.45c.05-.04.08-.15.07-.22l-.36-1.63-2.13 1.49-.37-1.64-2.1 1.33-.45-2.04-.35.14-1.89.46.38 2.31 2.32-.84" mask="url(#d)"/><mask id="f" fill="#fff"><use xlink:href="#e"/></mask><path fill="#FFF" fill-rule="nonzero" d="m14.52 14.78-2.13 1.19-.38-1.7-2.2 1.28c.15.6.3 1.21.44 1.85l2.14-1.4.35 1.54c.7-.43 1.4-.83 2.11-1.26l.37 1.64 2.24-.85-.26-1.51-2.35.66-.33-1.44" mask="url(#f)"/><mask id="h" fill="#fff"><use xlink:href="#g"/></mask><path fill="#FFF" fill-rule="nonzero" d="M17.2 15.56v-.01" mask="url(#h)"/><mask id="j" fill="#fff"><use xlink:href="#i"/></mask><path fill="#FFF" fill-rule="nonzero" d="m9.09 12.05.4 1.83 2.2-1.2.33 1.52 2.15-1.04-.32-1.56-2.17 1.07-.37-1.7-2.23 1.05-.34-1.54-2.23.71.37 1.75 2.2-.9" mask="url(#j)"/><mask id="l" fill="#fff"><use xlink:href="#k"/></mask><path fill="#FFF" fill-rule="nonzero" d="M6.51 11.19" mask="url(#l)"/><mask id="n" fill="#fff"><use xlink:href="#m"/></mask><path fill="#FFF" fill-rule="nonzero" d="M4.46 13.22v.01h.01-.01" mask="url(#n)"/><mask id="p" fill="#fff"><use xlink:href="#o"/></mask><path fill="#FFF" fill-rule="nonzero" d="M6.5 11.18 6.04 9.1H3.6l.49 2.34-2.45-.36.34 1.85 2.48.3-.37-1.76 2.41-.28" mask="url(#p)"/><mask id="r" fill="#fff"><use xlink:href="#q"/></mask><path fill="#FFF" fill-rule="nonzero" d="M1.98 12.93v-.01h-.01z" mask="url(#r)"/><mask id="t" fill="#fff"><use xlink:href="#s"/></mask><path fill="#FFF" fill-rule="nonzero" d="M9.8 15.55h.02-.01" mask="url(#t)"/><mask id="v" fill="#fff"><use xlink:href="#u"/></mask><path fill="#FFF" fill-rule="nonzero" d="m7.31 15-.44-2.02-2.4.25.5 2.24 2.35-.44.38 1.7 2.1-1.18-.32-1.62L7.32 15" mask="url(#v)"/><mask id="x" fill="#fff"><use xlink:href="#w"/></mask><path fill="#FFF" fill-rule="nonzero" d="m2.98 17.5-1.86-.24.5 2.3c.02.08.16.17.26.18.53.04 1.06.06 1.6.09L3 17.58l2.43-.24c-.04-.05-.1-.09-.11-.14-.13-.57-.24-1.14-.36-1.72h-2.4l.42 2.03" mask="url(#x)"/><mask id="z" fill="#fff"><use xlink:href="#y"/></mask><path fill="#FFF" fill-rule="nonzero" d="M4.96 15.48" mask="url(#z)"/><mask id="B" fill="#fff"><use xlink:href="#A"/></mask><path fill="#FFF" fill-rule="nonzero" d="M6.2 21.43h-.01z" mask="url(#B)"/><mask id="D" fill="#fff"><use xlink:href="#C"/></mask><path fill="#FFF" fill-rule="nonzero" d="M3.49 19.84v-.01h-.02.02v.01Z" mask="url(#D)"/><mask id="F" fill="#fff"><use xlink:href="#E"/></mask><path fill="#FFF" fill-rule="nonzero" d="M2.07 21.64c.16.73.3 1.45.48 2.16.01.08.12.18.2.19h1.6l-.47-2.3.7-.07 1.61-.19-.34-1.75-2.36.16.38 1.8h-1.8Z" mask="url(#F)"/><mask id="H" fill="#fff"><use xlink:href="#G"/></mask><path fill="#FFF" fill-rule="nonzero" d="m10.98 9.41.35 1.51 2.16-.97-.32-1.47-2.19.92-.37-1.71-2.27.85.4 1.86 2.24-.99" mask="url(#H)"/><mask id="J" fill="#fff"><use xlink:href="#I"/></mask><path fill="#FFF" fill-rule="nonzero" d="m18.57 10.85 2.51.32-.3-1.47c-.31-.06-.62-.12-.93-.16l-1.61-.25.33 1.62H16.2l.3 1.61 2.37-.07-.3-1.6" mask="url(#J)"/><mask id="L" fill="#fff"><use xlink:href="#K"/></mask><path fill="#FFF" fill-rule="nonzero" d="M16.5 12.52h-.01v.01Z" mask="url(#L)"/><mask id="N" fill="#fff"><use xlink:href="#M"/></mask><path fill="#FFF" fill-rule="nonzero" d="M20.77 9.69Z" mask="url(#N)"/><mask id="P" fill="#fff"><use xlink:href="#O"/></mask><path fill="#FFF" fill-rule="nonzero" d="M15.5 7.9h-.01.01Z" mask="url(#P)"/><mask id="R" fill="#fff"><use xlink:href="#Q"/></mask><path fill="#FFF" fill-rule="nonzero" d="m18.2 9.27-.28-1.48 2.54.48-.3-1.4c-.02-.06-.08-.14-.13-.15l-2.45-.56.32 1.63h-.77l-1.63.12.35 1.36h2.35Z" mask="url(#R)"/><mask id="T" fill="#fff"><use xlink:href="#S"/></mask><path fill="#FFF" fill-rule="nonzero" d="M14.18 13.16h-.02.02" mask="url(#T)"/><mask id="V" fill="#fff"><use xlink:href="#U"/></mask><path fill="#FFF" fill-rule="nonzero" d="m16.85 14.06-.36-1.53-2.31.63.36 1.57 1.92-.57c.28-.08.44-.04.48.31.05.37.17.72.26 1.08l2.3-.21-.26-1.4-2.39.12" mask="url(#V)"/><mask id="X" fill="#fff"><use xlink:href="#W"/></mask><path fill="#FFF" fill-rule="nonzero" d="M19.24 13.94v-.01z" mask="url(#X)"/><mask id="Z" fill="#fff"><use xlink:href="#Y"/></mask><path fill="#FFF" fill-rule="nonzero" d="M6.2 21.43" mask="url(#Z)"/><mask id="ab" fill="#fff"><use xlink:href="#aa"/></mask><path fill="#FFF" fill-rule="nonzero" d="M8.42 22.87c.52-.25.51-.27.4-.82-.1-.5-.23-1-.34-1.5l-1.44.58-.84.3.52 2.19c.6-.27 1.16-.5 1.7-.75" mask="url(#ab)"/><mask id="ad" fill="#fff"><use xlink:href="#ac"/></mask><path fill="#FFF" fill-rule="nonzero" d="M1.07 8.55c-.02-.08-.07-.19-.14-.22C.3 8.03-.34 7.75-1 7.45l.58 2.69c.02.08.08.19.14.21l1.88.7-.53-2.5" mask="url(#ad)"/><mask id="af" fill="#fff"><use xlink:href="#ae"/></mask><path fill="#FFF" fill-rule="nonzero" d="M1.98 12.93v-.01.01" mask="url(#af)"/><mask id="ah" fill="#fff"><use xlink:href="#ag"/></mask><path fill="#FFF" fill-rule="nonzero" d="M.63 14.95c0 .05.08.12.14.13l1.79.39-.59-2.54-1.88-.46c.18.84.35 1.66.54 2.48" mask="url(#ah)"/><mask id="aj" fill="#fff"><use xlink:href="#ai"/></mask><path fill="#FFF" fill-rule="nonzero" d="m13.56 8.34 1.93-.44-.32-1.7-2.33.62.35 1.65.37-.13" mask="url(#aj)"/><mask id="al" fill="#fff"><use xlink:href="#ak"/></mask><path fill="#FFF" fill-rule="nonzero" d="M15.5 7.9h-.01z" mask="url(#al)"/><mask id="an" fill="#fff"><use xlink:href="#am"/></mask><path fill="#FFF" fill-rule="nonzero" d="m13.5 9.93.35 1.62 2.3-.66-.33-1.6-2.31.64" mask="url(#an)"/><mask id="ap" fill="#fff"><use xlink:href="#ao"/></mask><path fill="#FFF" fill-rule="nonzero" d="m21.7 14.1-.27-1.34-2.54-.3.35 1.47 2.46.17" mask="url(#ap)"/><mask id="ar" fill="#fff"><use xlink:href="#aq"/></mask><path fill="#FFF" fill-rule="nonzero" d="m18.9 12.46-.01-.01h-.02a.03.03 0 0 1 0 .01h.02" mask="url(#ar)"/><mask id="at" fill="#fff"><use xlink:href="#as"/></mask><path fill="#FFF" fill-rule="nonzero" d="M19.51 15.34h-.01v.01h.02v-.01Z" mask="url(#at)"/><mask id="av" fill="#fff"><use xlink:href="#au"/></mask><path fill="#FFF" fill-rule="nonzero" d="M19.52 15.35c.07.34.16.67.21 1.01.05.33.16.5.54.43.28-.05.58-.02.87-.02h1.16l-.35-1.38-.4.02-2.03-.06" mask="url(#av)"/><mask id="ax" fill="#fff"><use xlink:href="#aw"/></mask><path fill="#FFF" fill-rule="nonzero" d="M21.95 15.38v.01h.01-.01z" mask="url(#ax)"/><mask id="az" fill="#fff"><use xlink:href="#ay"/></mask><path fill="#FFF" fill-rule="nonzero" d="M23.52 11.32v.01h.01z" mask="url(#az)"/><mask id="aB" fill="#fff"><use xlink:href="#aA"/></mask><path fill="#FFF" fill-rule="nonzero" d="M21.44 12.75h-.01l.01.01v-.01" mask="url(#aB)"/><mask id="aD" fill="#fff"><use xlink:href="#aC"/></mask><path fill="#FFF" fill-rule="nonzero" d="M23.83 12.64Z" mask="url(#aD)"/><mask id="aF" fill="#fff"><use xlink:href="#aE"/></mask><path fill="#FFF" fill-rule="nonzero" d="m23.82 12.64-.3-1.3h-2.38l.3 1.4.47.03c.65.04 1.29.09 1.91-.13" mask="url(#aF)"/><mask id="aH" fill="#fff"><use xlink:href="#aG"/></mask><path fill="#FFF" fill-rule="nonzero" d="M20.77 9.69" mask="url(#aH)"/><mask id="aJ" fill="#fff"><use xlink:href="#aI"/></mask><path fill="#FFF" fill-rule="nonzero" d="m22.95 8.79-2.44-.4.27 1.3c.8.23 1.6.4 2.48.39l-.31-1.29" mask="url(#aJ)"/><mask id="aL" fill="#fff"><use xlink:href="#aK"/></mask><path fill="#FFF" fill-rule="nonzero" d="m21.77 14.2.19 1.18c.8.08 1.57.02 2.36-.28l-.24-1.15-2.31.25" mask="url(#aL)"/><mask id="aN" fill="#fff"><use xlink:href="#aM"/></mask><path fill="#FFF" fill-rule="nonzero" d="M22.96 8.78h-.01v.01z" mask="url(#aN)"/><mask id="aP" fill="#fff"><use xlink:href="#aO"/></mask><path fill="#FFF" fill-rule="nonzero" d="m24.78 8.48-.2-.98h-1.84l.22 1.28a4 4 0 0 0 1.82-.3" mask="url(#aP)"/><mask id="aR" fill="#fff"><use xlink:href="#aQ"/></mask><path fill="#FFF" fill-rule="nonzero" d="m23.52 11.32.01.01v-.01h-.01" mask="url(#aR)"/><mask id="aT" fill="#fff"><use xlink:href="#aS"/></mask><path fill="#FFF" fill-rule="nonzero" d="M25.2 10.59c-.04-.29-.11-.57-.17-.84l-1.74.42.24 1.15c.51-.17 1.03-.34 1.54-.53.06-.02.14-.14.13-.2" mask="url(#aT)"/><mask id="aV" fill="#fff"><use xlink:href="#aU"/></mask><path fill="#FFF" fill-rule="nonzero" d="M23.83 12.64Z" mask="url(#aV)"/><mask id="aX" fill="#fff"><use xlink:href="#aW"/></mask><path fill="#FFF" fill-rule="nonzero" d="M25.58 12.93c.05-.04.06-.15.05-.22-.04-.26-.1-.52-.15-.72l-1.65.65.23 1.2a4.65 4.65 0 0 0 1.52-.9" mask="url(#aX)"/></g><mask id="aZ" fill="#fff"><use xlink:href="#aY"/></mask><circle cx="12" cy="12" r="11.5" stroke="#FFF" mask="url(#aZ)"/></g></svg>