<?xml version="1.0" encoding="UTF-8"?>
<svg width="24px" height="24px" viewBox="0 0 24 24" version="1.1" xmlns="http://www.w3.org/2000/svg" xmlns:xlink="http://www.w3.org/1999/xlink">
    <!-- Generator: Sketch 55.1 (78136) - https://sketchapp.com -->
    <title>Flags/canada</title>
    <desc>Created with Sketch.</desc>
    <g id="Icons" stroke="none" stroke-width="1" fill="none" fill-rule="evenodd">
        <g id="Flags/canada">
            <g id="canada">
                <circle id="Oval" fill="#EEEEEE" fill-rule="nonzero" cx="12" cy="12" r="12"></circle>
                <path d="M23.800001,12 C23.8010769,7.39369122 21.2092809,3.19328964 17.1302349,1.190625 L17.1302349,22.809375 C21.2092809,20.8067104 23.8010769,16.6063088 23.800001,12 Z M0.2,12 C0.198924143,16.6063088 2.7907201,20.8067104 6.86976605,22.809375 L6.86976605,1.190625 C2.7907201,3.19328964 0.198924143,7.39369122 0.2,12 L0.2,12 Z M14.0511724,13.565625 L16.1023443,12.515625 L15.079063,12 L15.079063,10.9546875 L13.0278911,12 L14.0511724,9.9140625 L13.0278911,9.9140625 L12.0000005,8.34375 L10.9721099,9.909375 L9.9488286,9.909375 L10.9721099,11.9953125 L8.92093796,10.95 L8.92093796,12 L7.89765669,12.5203125 L9.9488286,13.565625 L9.43257859,14.6109375 L11.4929692,14.6109375 L11.4929692,16.171875 L12.5070318,16.171875 L12.5070318,14.6109375 L14.562813,14.6109375 L14.0511724,13.565625 Z" id="Shape" fill="#D80027" fill-rule="nonzero"></path>
                <circle id="Oval" stroke="#FFFFFF" cx="12" cy="12" r="11.5"></circle>
            </g>
        </g>
    </g>
</svg>