<svg width="24" height="24" viewBox="0 0 24 24" fill="none" xmlns="http://www.w3.org/2000/svg">
<path d="M12 24C18.6274 24 24 18.6274 24 12C24 5.37258 18.6274 0 12 0C5.37258 0 0 5.37258 0 12C0 18.6274 5.37258 24 12 24Z" fill="white"/>
<path d="M12 0C18.6274 0 24 5.37258 24 12C24 18.6274 18.6274 24 12 24C5.37258 24 0 18.6274 0 12C0 5.37258 5.37258 0 12 0ZM12 1C5.92487 1 1 5.92487 1 12C1 18.0751 5.92487 23 12 23C18.0751 23 23 18.0751 23 12C23 5.92487 18.0751 1 12 1Z" fill="white"/>
<path d="M12 1C5.92487 1 1 5.92487 1 12C1 18.0751 5.92487 23 12 23C18.0751 23 23 18.0751 23 12C23 5.92487 18.0751 1 12 1Z" fill="#503F32"/>
<path fill-rule="evenodd" clip-rule="evenodd" d="M9.07566 13.2466L10.5122 14.4997L8.17086 17.8629C8.06071 18.0198 7.83963 18.0464 7.69681 17.92L6.10829 16.5146C5.96699 16.3896 5.96319 16.1695 6.10146 16.04L9.07566 13.2466ZM16.5064 15.0453C17.3315 15.0453 18 15.705 18 16.5184C18 17.3325 17.3315 17.9922 16.5064 17.9922C15.6814 17.9922 15.0129 17.3325 15.0129 16.5184C15.0129 15.705 15.6814 15.0453 16.5064 15.0453ZM10.9346 14.8622L12.1357 15.8891L10.3443 15.7238L10.9346 14.8622ZM9.07383 7.36742C10.9921 5.41048 14.0354 5.73727 15.7166 7.19451C17.4069 8.65936 17.9995 11.4139 16.9063 13.1819C15.7508 15.0505 14.2094 15.6004 13.3387 15.7612C13.2423 15.7787 13.1549 15.7909 13.0759 15.8008L7.57876 11.0254C7.578 10.988 7.57648 10.9553 7.57724 10.9126C7.58407 10.157 7.78539 8.68373 9.07383 7.36742ZM7.58894 11.9173L8.65934 12.8809L7.80469 13.651L7.58894 11.9173Z" fill="#DEBB69"/>
</svg>
