<svg xmlns="http://www.w3.org/2000/svg" width="24" height="24"><g fill="none" fill-rule="evenodd"><path fill="#73AF00" fill-rule="nonzero" d="M20.4 3.43H3.6a11.96 11.96 0 0 1 16.8 0Z"/><path fill="#FFE15A" fill-rule="nonzero" d="M3.6 3.43h16.8c1 .98 1.83 2.14 2.45 3.43H1.15A12.03 12.03 0 0 1 3.6 3.43Z"/><path fill="#FF4B55" fill-rule="nonzero" d="M1.15 6.86h21.7c.5 1.06.86 2.22 1.03 3.43H.12C.3 9.08.65 7.92 1.15 6.86Z"/><path fill="#73AF00" fill-rule="nonzero" d="M3.6 20.57h16.8a11.96 11.96 0 0 1-16.8 0Z"/><path fill="#FFE15A" fill-rule="nonzero" d="M1.15 17.14h21.7a12.03 12.03 0 0 1-2.45 3.43H3.6c-1-.98-1.83-2.14-2.45-3.43Z"/><path fill="#FF4B55" fill-rule="nonzero" d="M.12 13.71h23.76a11.92 11.92 0 0 1-1.03 3.43H1.15C.65 16.08.3 14.92.12 13.71Z"/><path fill="#464655" fill-rule="nonzero" d="M23.88 13.71H10.82l-6.94 7.12a11.97 11.97 0 0 1 0-17.66l6.94 7.12h13.06a12.1 12.1 0 0 1 0 3.42Z"/><path fill="#F5F5F5" fill-rule="nonzero" d="m3.47 3.56 7.96 8.16a.4.4 0 0 1 0 .56l-7.96 8.16a11.96 11.96 0 0 1 0-16.88Z"/><path fill="#FF4B55" fill-rule="nonzero" d="m4.63 7.9 1.16 2.35 2.6.38-1.88 1.84.44 2.59-2.32-1.22-2.33 1.22.44-2.59-1.88-1.84 2.6-.38z"/><path fill="#FFE15A" fill-rule="nonzero" d="M7.64 12.23 4.55 9.84c-.36-.85-.87-1.4-1.31-1.4-.37 0-.55.35-.6.56a.61.61 0 0 0-.34.38.06.06 0 0 0 .06.07h.06c.24 0 .66-.02.76.77.07.5-.03 1.38-.34 2.04-.22.47-.14.84-.14.86 0 .03.03.05.06.05h.03l.25 1.4c0 .04.03.06.06.06h3.73c.03 0 .06-.02.06-.05l.42-1.7v-.01l.13-.55.16.02c.03 0 .05-.01.06-.04a.06.06 0 0 0-.02-.07Z"/><g fill="#464655" fill-rule="nonzero"><path d="M7.64 12.23 4.55 9.84c-.36-.85-.87-1.4-1.31-1.4-.37 0-.55.35-.6.56a.61.61 0 0 0-.34.38.06.06 0 0 0 .06.07h.06c.24 0 .66-.02.76.77.07.5-.03 1.38-.34 2.04-.22.47-.14.84-.14.86 0 .03.03.05.06.05h.03l.25 1.4c0 .04.03.06.06.06h3.73c.03 0 .06-.02.06-.05l.42-1.7v-.01l.13-.55.16.02c.03 0 .05-.01.06-.04a.06.06 0 0 0-.02-.07Zm-4.7.08c.29-.6.44-1.5.36-2.1-.11-.86-.6-.88-.85-.88a.5.5 0 0 1 .26-.24c.02 0 .03-.02.04-.04 0-.02.1-.48.49-.48s.87.53 1.2 1.33l.03.03L7.4 12.2a13.1 13.1 0 0 1-2.67-.57c-.42-.16-.51-.41-.6-.63a.06.06 0 0 0-.11.04c.09.22.2.52.67.7l.3.11c-.01.06-.13.35-.66.54-.43.16-.74.42-.78.65h-.42v-.17c0-.13.13-.32.26-.52.18-.27.4-.59.4-.91a.06.06 0 0 0-.13 0c0 .28-.2.58-.37.85-.15.22-.28.42-.28.58v.17h-.2c-.01-.1-.02-.4.14-.73Zm2.36-.37c-.07.19-.27.25-.42.27a.77.77 0 0 0 .23-.32l.19.05Zm.11.03.2.04c-.06.13-.22.19-.4.21a.47.47 0 0 0 .2-.25Zm1.68 1.31c-.6-.18-2.34-.23-3.42-.24.03-.13.2-.3.5-.45 1.62 0 2.75.25 3.01.3l-.1.4ZM7 13.6l-.24-.27c.12.02.21.04.29.07l-.05.2Zm-3.06.04.15.15h-.14l-.01-.15Zm2.99.25-.3-.33a.06.06 0 0 0-.08-.01l-.35.23-.27-.29a.06.06 0 0 0-.08 0l-.32.24-.29-.29a.06.06 0 0 0-.08 0l-.3.26-.3-.27a.06.06 0 0 0-.08 0l-.3.27-.26-.24v-.21l.22.22c.02.02.05.02.08 0l.31-.27.29.28c.02.02.05.02.08 0l.31-.26.3.29c.03.02.06.02.08 0l.32-.24.26.3c.02.02.06.03.08.01l.35-.25.35.39.02.01-.04.16Zm-.18-.02a9.1 9.1 0 0 0-.4-.04l.23-.16.17.2Zm-.7-.06-.4-.03.23-.17.18.2Zm-.64-.04-.44-.01.23-.2.2.21Zm-.68-.02h-.43l.22-.2.21.2Zm-.73-.59.38.01-.2.17-.18-.18Zm.68.02.38.01-.2.17-.18-.18Zm.69.02.4.03-.21.16-.2-.19Zm.68.05c.14 0 .28.02.4.04l-.22.16-.18-.2Zm-3.15-.09h.89c.02.57.07 1.02.15 1.35h-.8l-.24-1.35Zm3.88 1.35H4.07c-.04-.18-.08-.4-.1-.65a21.5 21.5 0 0 1 2.94.16l-.12.49Zm.42-1.73c-.25-.06-1.29-.28-2.78-.3l.27-.14.27.02c.27 0 .65-.05.76-.32.61.14 1.24.22 1.6.27l-.12.47Z"/><path d="M3.76 9.15a.38.38 0 1 0-.75 0 .38.38 0 0 0 .75 0Zm-.37.15a.15.15 0 1 1 0-.3.15.15 0 0 1 0 .3ZM5.05 12.64a.38.38 0 1 0 0 .75.38.38 0 0 0 0-.75Zm0 .52a.15.15 0 1 1 0-.29.15.15 0 0 1 0 .3Z"/><path d="M5.63 12.68a.38.38 0 1 0 0 .75.38.38 0 0 0 0-.75Zm0 .52a.15.15 0 1 1 0-.3.15.15 0 0 1 0 .3Z"/></g><circle cx="12" cy="12" r="11.5" stroke="#FFF"/></g></svg>