<svg width="24" height="24" viewBox="0 0 24 24" fill="none" xmlns="http://www.w3.org/2000/svg">
<path d="M12 24C18.6274 24 24 18.6274 24 12C24 5.37258 18.6274 0 12 0C5.37258 0 0 5.37258 0 12C0 18.6274 5.37258 24 12 24Z" fill="white"/>
<path d="M12 0C18.6274 0 24 5.37258 24 12C24 18.6274 18.6274 24 12 24C5.37258 24 0 18.6274 0 12C0 5.37258 5.37258 0 12 0ZM12 1C5.92487 1 1 5.92487 1 12C1 18.0751 5.92487 23 12 23C18.0751 23 23 18.0751 23 12C23 5.92487 18.0751 1 12 1Z" fill="white"/>
<path d="M12 1C5.92487 1 1 5.92487 1 12C1 18.0751 5.92487 23 12 23C18.0751 23 23 18.0751 23 12C23 5.92487 18.0751 1 12 1Z" fill="#503F32"/>
<path fill-rule="evenodd" clip-rule="evenodd" d="M6.95091 13.3856C6.85214 13.3856 6.74867 13.3784 6.64651 13.3869C6.30239 13.4157 6.03559 13.6379 6.01814 13.9686C5.99341 14.4375 5.9949 14.9095 6.01694 15.3787C6.03136 15.6854 6.21742 15.8975 6.51147 16.0023C6.75194 16.0881 7.00091 16.1103 7.26303 16.0999C7.15851 15.191 7.05536 14.2939 6.95091 13.3856ZM11.1762 15.1968C11.1732 15.1902 11.1702 15.1836 11.1673 15.1769C11.0024 15.2236 10.8368 15.2682 10.6734 15.3196C10.6487 15.3273 10.6239 15.3655 10.619 15.3931C10.6164 15.4082 10.6529 15.4425 10.6763 15.4478C10.934 15.5062 11.1817 15.475 11.4155 15.3512C11.4366 15.34 11.4596 15.3024 11.4557 15.2819C11.4517 15.261 11.4181 15.236 11.3935 15.2304C11.3221 15.2145 11.2488 15.2074 11.1762 15.1968ZM12.3089 14.916C12.9993 14.9359 13.5361 14.9557 14.059 15.0971C14.1618 15.1249 14.2623 15.1659 14.3585 15.212C14.4461 15.254 14.5297 15.3122 14.5304 15.4247C14.5312 15.5423 14.4459 15.61 14.3528 15.6445C14.1664 15.7135 13.9769 15.7866 13.7822 15.8189C12.8424 15.9749 11.9017 15.9777 10.966 15.7836C10.8194 15.7532 10.6733 15.6987 10.5403 15.6296C10.3292 15.5199 10.3308 15.3454 10.5355 15.2247C10.7602 15.0921 11.0132 15.0421 11.2663 15.0123C11.6631 14.9655 12.0621 14.9381 12.3089 14.916ZM11.7272 16.245C11.3053 16.2095 10.907 16.0952 10.5146 15.9089C10.5028 16.0396 10.4925 16.1543 10.4821 16.269C10.4882 16.2714 10.4944 16.2738 10.5005 16.2762C10.5339 16.2257 10.5672 16.1752 10.6043 16.1191C10.9693 16.2619 11.3465 16.2785 11.7272 16.245ZM10.3844 15.706C11.0751 16.0521 11.8103 16.0546 12.5421 16.06C13.0462 16.0636 13.5499 16.0308 14.0397 15.8978C14.205 15.8528 14.3628 15.78 14.5307 15.7174C14.5307 15.9992 14.541 16.2908 14.5231 16.5807C14.5188 16.6487 14.4311 16.7403 14.3604 16.7697C14.1776 16.846 13.9865 16.9158 13.7921 16.9491C12.8489 17.1107 11.9046 17.1094 10.9652 16.9171C10.8152 16.8864 10.6708 16.8204 10.5296 16.758C10.4275 16.7129 10.3806 16.625 10.3828 16.5064C10.3879 16.241 10.3844 15.9754 10.3844 15.706ZM9.3638 13.7186H7.33916C7.37887 14.0028 7.41522 14.2629 7.45158 14.5231C7.48167 14.4214 7.49339 14.3222 7.50025 14.2226C7.5227 13.8967 7.5225 13.9018 7.8432 13.8718C8.37358 13.8222 8.9033 13.7653 9.3638 13.7186ZM10.1067 15.9396H7.43971C7.34796 15.1456 7.25641 14.3533 7.16313 13.5459H7.28407C8.48122 13.546 9.6784 13.5472 10.8755 13.5439C10.9735 13.5436 11.0065 13.5707 11.0205 13.6691C11.0706 14.0208 11.1325 14.3708 11.1924 14.7363C11.1245 14.7522 11.0564 14.7624 10.9922 14.7843C10.7968 14.8507 10.5941 14.9038 10.4108 14.9953C10.196 15.1025 10.0834 15.2803 10.1251 15.5423C10.1449 15.6665 10.1149 15.7987 10.1067 15.9396ZM16.9241 6.36006C16.8747 6.31206 16.8309 6.24509 16.7691 6.21514C16.6789 6.17139 16.6044 6.22503 16.5555 6.3045C16.3923 6.56943 16.2301 6.835 16.0695 7.10151C15.9992 7.21821 16.0193 7.32418 16.1169 7.38101C16.2133 7.4371 16.3133 7.40331 16.3855 7.286C16.5448 7.02734 16.703 6.76801 16.8599 6.50792C16.8823 6.47073 16.8951 6.42772 16.9241 6.36006ZM11.3831 14.703C11.3113 14.2643 11.2387 13.8207 11.1658 13.3754C11.9444 13.2378 12.4753 12.7757 12.857 12.1167C13.9651 10.2037 15.0716 8.28995 16.1795 6.377C16.2496 6.25603 16.3018 6.09592 16.4087 6.03329C16.5118 5.97288 16.6751 6.01324 16.8119 6.01277C17.1604 6.01159 17.5089 6.01208 17.8574 6.01248C18.0159 6.01266 18.033 6.04192 17.9541 6.17712C17.0186 7.78006 16.0825 9.38274 15.1473 10.9859C14.5118 12.0754 13.8781 13.1659 13.242 14.2549C13.1711 14.3764 13.0926 14.4938 13.0104 14.6078C12.9891 14.6373 12.9406 14.6618 12.9036 14.6632C12.408 14.682 11.9121 14.6963 11.4163 14.7115C11.4092 14.7117 11.4021 14.708 11.3831 14.703Z" fill="#DEBB69"/>
</svg>
