<svg width="24" height="24" viewBox="0 0 24 24" fill="none" xmlns="http://www.w3.org/2000/svg">
<path d="M12.02 24C18.6474 24 24.02 18.6274 24.02 12C24.02 5.37258 18.6474 0 12.02 0C5.39257 0 0.019989 5.37258 0.019989 12C0.019989 18.6274 5.39257 24 12.02 24Z" fill="#503F32"/>
<path d="M12.02 1C18.09 1 23.02 5.93 23.02 12C23.02 18.07 18.09 23 12.02 23C5.94999 23 1.01999 18.07 1.01999 12C1.01999 5.93 5.95999 1 12.02 1ZM12.02 0C5.38999 0 0.019989 5.37 0.019989 12C0.019989 18.63 5.38999 24 12.02 24C18.65 24 24.02 18.63 24.02 12C24.02 5.37 18.65 0 12.02 0Z" fill="white"/>
<path fill-rule="evenodd" clip-rule="evenodd" d="M7.60813 13.1913C7.60805 13.5134 7.54427 13.7845 7.41564 14.0047C7.28809 14.225 7.11763 14.4013 6.90659 14.5346C6.69555 14.668 6.45436 14.7642 6.18418 14.8222C5.914 14.8802 5.63686 14.9103 5.35393 14.9103H3V9H5.35393C5.58236 9 5.81544 9.02319 6.05547 9.07073C6.29434 9.11828 6.51234 9.19829 6.70714 9.31308C6.90195 9.42672 7.06081 9.5821 7.18257 9.77691C7.30548 9.97172 7.36578 10.2199 7.36578 10.5202C7.36578 10.8484 7.27649 11.1197 7.09908 11.3342C6.9205 11.5487 6.68743 11.703 6.39754 11.798V11.8143C6.56452 11.8421 6.72222 11.8931 6.86948 11.9685C7.01675 12.0439 7.14546 12.1401 7.2533 12.2561C7.36114 12.372 7.44811 12.5089 7.51189 12.6654C7.5756 12.8206 7.60807 12.9967 7.60813 13.1913ZM5.98821 10.7115C5.98821 10.5109 5.91168 10.3648 5.75862 10.2732C5.60555 10.1816 5.37828 10.1352 5.07795 10.1352H4.37641V11.3539H5.14404C5.41075 11.3539 5.61831 11.2994 5.76557 11.1916C5.91284 11.0826 5.98705 10.9237 5.98705 10.7115H5.98821ZM6.1807 13.0573C6.1807 12.8127 6.08909 12.6422 5.90472 12.5483C5.72151 12.4532 5.47568 12.4068 5.16955 12.4068H4.37641V13.7589H5.17767C5.28899 13.7589 5.40495 13.7496 5.52438 13.7299C5.64382 13.7102 5.75282 13.6754 5.85022 13.6255C5.94763 13.5757 6.02648 13.5049 6.08793 13.4122C6.14939 13.3206 6.17954 13.2023 6.17954 13.0573H6.1807ZM14.8137 14.9115H13.4025L12.2337 10.9121H12.2081L11.0393 14.9115H9.61998L7.94209 9H9.47852L10.4131 12.9321H10.4386L11.4904 9H12.9769L14.0368 12.9321H14.0623L15.0143 9H16.5009L14.8149 14.9115H14.8137ZM18.5208 11.4374V10.2187H21V9H17.1096V14.9103H18.5208V12.6144H20.8087V11.4374H18.5208Z" fill="#DEBB69"/>
</svg>
