<?xml version="1.0" encoding="UTF-8"?>
<svg width="24px" height="24px" viewBox="0 0 24 24" version="1.1" xmlns="http://www.w3.org/2000/svg" xmlns:xlink="http://www.w3.org/1999/xlink">
    <!-- Generator: Sketch 63.1 (92452) - https://sketch.com -->
    <title>esports_smite</title>
    <desc>Created with Sketch.</desc>
    <g id="Classifier" stroke="none" stroke-width="1" fill="none" fill-rule="evenodd">
        <g id="esports_smite">
            <path d="M12,0 C18.627417,0 24,5.372583 24,12 C24,18.627417 18.627417,24 12,24 C5.372583,24 0,18.627417 0,12 C0,5.372583 5.372583,0 12,0 Z M12,1 C5.92486775,1 1,5.92486775 1,12 C1,18.0751322 5.92486775,23 12,23 C18.0751322,23 23,18.0751322 23,12 C23,5.92486775 18.0751322,1 12,1 Z" id="Oval" fill="#FFFFFF" fill-rule="nonzero"></path>
            <path d="M12,1 C5.92486775,1 1,5.92486775 1,12 C1,18.0751322 5.92486775,23 12,23 C18.0751322,23 23,18.0751322 23,12 C23,5.92486775 18.0751322,1 12,1 Z" id="Path-Copy" fill="#503F32" fill-rule="nonzero"></path>
            <path d="M20,7.4 C19.4862581,8.42486046 18.9848678,9.42490828 18.4604139,10.4710836 L19.8974702,10.4710836 C19.2391154,11.4840296 18.642519,12.4020973 17.9900667,13.4060802 C18.3814944,13.4475075 18.6723597,13.4784413 18.9845399,13.5114519 C18.1643018,14.4001161 17.3639575,15.2511788 16.5826325,16.1196213 C16.1280256,16.6247279 15.7042432,17.1574892 15.1992458,17.7578021 C15.0955136,17.2718241 15.4760106,17.0346284 15.3157668,16.654678 L15.5033373,16.6304119 L15.5033373,16.6304119 C15.3341304,16.5628603 15.1653607,16.4374854 14.9958258,16.4363923 C12.912657,16.4229476 10.8293789,16.4276478 8.67242805,16.4276478 C8.74172855,16.7979792 8.80272174,17.1237134 8.89486736,17.6151568 C7.53388852,16.1642184 6.29872179,14.8473995 5.0318561,13.4968048 C5.30446723,13.4796437 5.57784351,13.4625918 5.93855592,13.4399653 C5.53914891,12.4443991 4.81750548,11.6912753 4.29195844,10.7663212 C4.63878888,10.5995191 4.98561933,10.7283918 5.30654406,10.6677265 L5.52996714,10.4441941 L5.52996714,10.4441941 C5.02212779,9.43365283 4.51866072,8.4318561 4,7.4 L20,7.4 Z M15.9356456,8.9375081 C13.2641877,8.9375081 10.5989602,8.9374 7.93384207,8.93925822 C7.91077833,8.93925822 7.8844354,8.96286848 7.86563463,8.98145064 C7.84672455,9.00003279 7.83524734,9.02626642 7.81218361,9.06222836 C8.20011341,9.98641727 8.5912131,10.9185856 9.00242524,11.8983023 L7.74506924,11.8983023 C8.03156234,12.7622632 8.42441094,13.4913395 8.72500461,14.3344228 L7.92903257,14.3344228 C8.04008827,14.7985394 8.13223389,15.1834086 8.22066308,15.5528655 L15.5766821,15.5528655 C15.8159547,15.2345642 15.9670167,14.7425743 15.942532,14.3310342 L15.135192,14.3310342 C15.5367852,13.4926512 16.0117232,12.7815012 16.1901118,11.8845297 L14.9702481,11.8845297 C15.268437,11.1637607 15.5260731,10.4692254 15.8445931,9.80387493 C15.986364,9.50765352 16.0718419,9.25012673 15.9356456,8.9375081 Z M14.0913887,9.63741162 L14.0913887,10.8518101 C13.6999611,10.8523566 13.304817,10.853231 12.9095637,10.8534497 L11.6790971,10.853559 L11.6790971,10.853559 L11.6790971,11.5329007 L14.1880159,11.5329007 C13.980333,12.5361184 14.16845,13.5020625 14.0607828,14.4816699 L9.95434529,14.4816699 L9.95434529,13.3135083 L12.3284888,13.3135083 C12.3374519,13.1287798 12.3451034,12.9714873 12.3542852,12.7817307 L9.94527282,12.7817307 L9.94527282,9.63358588 C11.3402461,9.63631855 12.7164186,9.63052529 14.0913887,9.63741162 Z" id="Combined-Shape" fill="#DEBB69"></path>
        </g>
    </g>
</svg>