<svg xmlns="http://www.w3.org/2000/svg" width="24" height="24" viewBox="0 0 24 24">
  <g fill="none">
    <path fill="#0089E9" d="M11.8,23.8 C18.3,23.8 23.6,18.5 23.6,12 C23.6,5.5 18.3,0.2 11.8,0.2 C5.3,0.2 0,5.5 0,12 C0,18.5 5.3,23.8 11.8,23.8 Z"/>
    <path fill="#A8EF84" d="M8.6,5.8 C8.8,6 9.2,5.7 9.2,5.9 C9,6.1 9.3,6 9.4,6.1 C9.3,6.1 9.4,6.3 9.5,6.3 C9.7,6 9.8,6.5 9.9,6.3 C10,6.4 10,6.6 10.1,6.5 C10.4,6.5 10.4,6.5 10.7,6.6 C10.9,6.4 11.2,6.4 11.3,6.2 C11.6,6.3 12,6.3 11.8,6.8 C11.9,7 12.2,6.9 12.2,7.2 L12.2,7.1 C12.4,7.4 12.6,7.7 13,7.6 C13.1,7.4 13.3,7.4 13.4,7.2 C13.6,7.2 13.6,7.4 13.6,7.5 C13.4,7.6 13.6,7.8 13.8,7.8 C13.7,7.9 13.9,8.1 13.8,8.2 C13.9,8.4 14,8.2 14.1,8.3 C14.3,8.5 14.9,8.8 15.3,8.5 C15.5,8.5 15.1,8.6 15.3,8.6 C15.5,8.6 15.5,8.4 15.8,8.4 C15.8,8 16.2,8.2 16.4,8.1 C16.6,7.8 16.8,8.2 17.1,8.1 C17.4,8.2 17.8,8.6 18,8.5 C18.3,8.6 18.1,9.1 18.1,9.3 C18.1,9.5 17.7,9.7 17.9,9.8 C18,9.8 17.8,10.2 18,10.4 C18.1,10.7 17.9,10.9 18.3,10.9 C18.7,11 17.9,11.4 18.2,11.6 C18.3,11.9 18.6,12.1 18.9,12.2 C18.8,12.8 19.3,12.4 19.2,12.8 C19.1,13 18.9,12.8 18.8,13 C18.7,13.2 18.5,13.2 18.5,13.3 C18.4,13.4 18.5,13.5 18.3,13.7 C17.9,13.6 17.6,13.7 17.2,13.5 C16.7,13.5 16.5,13.4 16.5,12.9 C16.3,12.7 15.9,12.9 15.7,13.1 C15.4,13.1 14.5,12.8 14.7,12.6 C14.6,12.5 14.3,12.5 14.2,12.4 C14.1,12.3 14.2,12.1 14,12 C14.1,11.9 14.1,11.9 14,11.9 C13.9,11.8 14,11.6 13.8,11.6 C13.8,11.3 13.6,11.5 13.5,11.5 C13.5,11.4 13.4,11.4 13.4,11.4 C13.4,11.3 13.5,11.3 13.3,11.3 C13.3,11.8 13.2,11.3 13,11.3 C13.3,11.5 13.1,11.6 12.9,11.4 C12.8,11.5 13.1,11.6 13,11.7 C13,11.6 12.8,11.7 12.9,11.8 C13.1,11.8 12.9,11.9 13.1,12 C13.2,12.2 13.3,12.4 13.3,12.6 C13.3,12.7 13.7,12.7 13.5,12.8 C13.8,13 13.7,13.1 13.8,13.2 C13.8,13.3 13.6,13.3 13.8,13.4 C13.7,13.6 14,13.7 14,13.9 C14.1,13.8 14,13.6 14.1,13.5 C14.2,13.6 14.1,13.3 14.3,13.2 C14.4,13.2 14.4,13.4 14.4,13.4 C14.3,13.5 14.5,13.8 14.2,13.9 C14.5,14.1 14.9,14 15.3,14 C15,14.2 15.7,14 15.6,13.9 C15.9,13.9 16.1,13.3 16.4,13.3 C16.4,13.4 16.3,13.9 16.2,13.8 C16.4,13.9 16.7,14 16.8,14.2 C17,14.2 17.2,14.2 17.3,14.2 C17.4,14.4 17.6,14.6 17.7,14.6 C17.7,15 17.4,15.1 17.3,15.5 C17.2,15.7 17.2,15.6 17.2,15.5 C16.9,15.6 16.9,16 16.9,16.3 C16.6,16.1 16.4,16.6 16.4,16.8 C15.9,16.6 16,17 15.8,17.2 C15.5,17.2 14.7,17.3 14.6,17.7 C14.5,17.9 13.8,18.1 13.5,18.2 C13.2,18.1 13.1,18.6 12.8,18.4 C12.6,18.4 12.6,18.7 12.4,18.7 C12.1,18.8 11.9,18.7 11.7,18.8 C11.5,19.1 11.3,19 11,19.1 C10.6,19 10.8,18.7 10.6,18.3 C10.6,18.2 10.4,18.2 10.5,18.1 C10.6,18.2 10.6,18.1 10.6,18.1 C10.3,18 10.6,17.9 10.5,17.6 C10.6,17.5 10.5,17.2 10.4,17.1 C10.4,17.2 10.3,16.8 10.1,16.8 C10,16.6 9.8,16.1 9.8,16 C9.5,15.3 9.1,15.4 9,15 C9,14.9 8.8,14.5 8.9,14.5 C9,14.3 8.9,14.2 8.9,14 C9,13.8 8.4,13.7 8.3,13.5 C8.1,13.4 8.4,13.3 8.3,13.1 C8,12.9 8,12.7 7.9,12.4 C7.6,12.3 7.8,11.7 7.4,11.8 C7.4,11 8,11.5 8.3,11.3 C7.7,11.7 7.4,10.7 7.6,10.3 C7.8,10 8,9.7 8.3,9.4 C8.5,9.4 8.3,9.3 8.4,9.2 C8.5,9.1 8.6,9 8.6,8.8 C8.6,8.7 8.6,8.6 8.7,8.4 C8.7,8.3 8.6,8.2 8.8,8.2 C9.1,8 8.7,8.1 8.6,8.2 C8.5,8.1 8.3,7.9 8.2,8.1 C7.8,8.6 7.4,8.1 7,7.9 C6.8,7.8 6.8,7.9 6.7,8.1 C6.6,8.1 6.3,8.1 6.3,8 C6.2,8 6.4,7.8 6.2,7.9 C6.2,8.1 6.1,7.7 6.1,7.8 C6,7.8 5.6,8 5.9,7.7 C5.7,7.7 5.5,7.7 5.9,7.6 C6,7.7 6.1,7.5 5.9,7.6 C5.8,7.5 5.7,7.6 5.6,7.5 C5.8,7.5 5.8,7.3 5.7,7.3 C6,7.2 5.5,7 5.4,7 C5.4,6.9 5.6,7 5.5,6.8 C5.5,6.8 5.6,6.9 5.5,6.9 C5.5,6.9 5.8,7 5.7,6.9 C5.6,6.9 5.6,6.9 5.7,6.8 C5.9,6.6 5.7,6.7 5.7,6.6 C5.6,6.5 5.7,6.5 5.8,6.4 C5.4,6.3 5.6,6.3 5.8,6.1 C6,6.1 6.3,6.1 6.3,6.2 C6.4,6.2 6.8,6.3 6.6,6.2 C6.6,6.1 7,6.2 7,6.1 C6.9,6.1 6.8,6.1 6.8,6 C7,5.8 7.3,6.1 7.6,6 C7.9,5.8 8.3,5.9 8.6,5.8 Z M7.5,8.5 C7.6,8.8 8.3,8.4 7.9,8.6 C7.9,8.6 7.7,8.7 7.8,8.7 C7.6,8.7 7.2,9 7.2,8.6 C7.4,8.7 7.4,8.7 7.5,8.5 Z"/>
    <path fill="#FFF" d="M12,0 C5.4,0 0,5.4 0,12 C0,18.6 5.4,24 12,24 C18.6,24 24,18.6 24,12 C24,5.4 18.6,0 12,0 Z M12,1 C18.1,1 23,5.9 23,12 C23,18.1 18.1,23 12,23 C5.9,23 1,18.1 1,12 C1,5.9 5.9,1 12,1 Z"/>
  </g>
</svg>
