<?xml version="1.0" encoding="UTF-8"?>
<svg width="24px" height="24px" viewBox="0 0 24 24" version="1.1" xmlns="http://www.w3.org/2000/svg" xmlns:xlink="http://www.w3.org/1999/xlink">
    <!-- Generator: Sketch 55.1 (78136) - https://sketchapp.com -->
    <title>Flags/puerto_rico</title>
    <desc>Created with Sketch.</desc>
    <g id="Icons" stroke="none" stroke-width="1" fill="none" fill-rule="evenodd">
        <g id="Flags/puerto_rico">
            <g id="puerto_rico">
                <g id="Group" transform="translate(0.500000, 0.500000)" fill-rule="nonzero">
                    <circle id="Oval" fill="#EEEEEE" cx="11.4553002" cy="11.4552564" r="11.4552529"></circle>
                    <path d="M11.4553002,6.39488462e-14 C7.84900996,-0.00281886389 4.45261405,1.69537909 2.29109783,4.58210468 L20.6195025,4.58210468 C18.4579863,1.69537909 15.0615904,-0.00281886389 11.4553002,6.39488462e-14 L11.4553002,6.39488462e-14 Z M11.4553002,22.9105129 C15.2051056,22.9105129 18.5298138,21.1116767 20.6195025,18.3284082 L2.29109783,18.3284082 C4.45261405,21.2151338 7.84900996,22.9133317 11.4553002,22.9105129 Z M0,11.4552564 C-0.000684277424,12.2246497 0.0757685243,12.9921759 0.228257362,13.746307 L22.6868177,13.746307 C22.9940611,12.2343911 22.9940611,10.6761217 22.6868177,9.16420585 L0.223782654,9.16420585 C0.0727962495,9.91848876 -0.00215733384,10.6860135 0,11.4552564 L0,11.4552564 Z" id="Shape" fill="#D80027"></path>
                    <path d="M3.35607837,3.35603464 C-1.11632264,7.82939117 -1.11632264,15.0811217 3.35607837,19.5544782 L11.4553002,11.4552564 L3.35607837,3.35603464 Z" id="Path" fill="#0052B4"></path>
                </g>
                <polygon id="Path" fill="#EEEEEE" fill-rule="nonzero" points="4.88404669 8.83424125 5.65914397 11.2155642 8.1618677 11.2155642 6.13540856 12.6910506 6.91050584 15.0723735 4.88404669 13.6015564 2.85758755 15.0723735 3.63268482 12.6910506 1.60622568 11.2155642 4.10894942 11.2155642"></polygon>
                <circle id="Oval" stroke="#FFFFFF" cx="12" cy="12" r="11.5"></circle>
            </g>
        </g>
    </g>
</svg>