<svg xmlns="http://www.w3.org/2000/svg" width="24" height="24"><g fill="none" fill-rule="evenodd"><circle cx="12" cy="12" r="12" fill="#DA121A"/><path fill="#002488" d="M22.82 10H1.18a11 11 0 0 1 21.64 0Z"/><path fill="#FCDD09" d="M12.4 8.23v.05a5.3 5.3 0 0 1-1.01 0 .07.07 0 0 1 0-.05c.17 0 .35.02.5 0h.24c.07.02.18 0 .27 0m5.45-.03c.32.02.7-.02 1 .02v.03c-.02.06-.14.03-.22.03h-.79l.01-.02V8.2Zm-12.78.63h-.1c.17-.1.33-.24.4-.45h.57c.06.22.2.36.38.45-.18.03-.4 0-.54-.05.05.22.04.57-.1.71-.21-.09-.19-.45-.16-.71-.1.02-.17.06-.3.05h-.15Zm13.15-.7a6.43 6.43 0 0 0-.16-.9c-.09-.34-.24-.65-.2-1.08.01-.25.15-.52.29-.7.04-.05.12-.14.18-.14.11 0 .25.22.31.32.11.17.16.32.18.52v.18c-.09.63-.3 1.13-.34 1.8h-.26Zm-12.7.02c-.04-.29-.1-.65-.18-.97-.08-.3-.2-.6-.2-.93.01-.22.09-.4.17-.55.06-.13.2-.37.33-.37.12.01.25.26.3.34.12.2.2.4.18.72-.02.3-.13.58-.2.86a6.5 6.5 0 0 0-.14.9h-.26Zm13.11.21c.07.22.2.36.39.45a1.26 1.26 0 0 1-.53-.05c.03.23.04.58-.12.7-.2-.1-.17-.43-.15-.7a1.43 1.43 0 0 1-.54.05c.16-.12.33-.23.4-.45h.55Zm-7.31.47h-.1c.17-.12.34-.23.4-.45h.56c.06.22.2.36.38.45a1.23 1.23 0 0 1-.53-.05c.05.25.03.58-.11.71-.2-.1-.18-.44-.16-.7-.07 0-.17.06-.3.04h-.14Zm6.62-.7c-.03-.2-.14-.49-.28-.6-.2-.17-.37-.01-.3.25.03.07.09.11.08.15-.32-.14-.72-.33-.68-.82.02-.34.35-.55.7-.37.43.22.6.83.67 1.38a.33.33 0 0 1-.19 0m.63 0c.06-.6.32-1.4.92-1.45a.43.43 0 0 1 .4.24c.21.45-.22.92-.63 1.02-.01-.04.06-.09.08-.17.06-.26-.1-.38-.3-.24-.15.13-.24.37-.28.6-.04.01-.17.03-.19 0m-13.32.03c-.04-.2-.2-.7-.48-.68-.17.02-.15.38-.02.47-.34-.06-.8-.44-.68-.92.04-.14.16-.3.36-.32h.1c.65.13.8.77.9 1.45h-.18Zm.61 0c.04-.33.11-.67.27-.95.13-.24.35-.5.68-.5.26 0 .4.19.42.38.07.53-.34.73-.69.87.12-.09.16-.45 0-.48-.14-.02-.29.15-.34.24-.09.14-.11.3-.15.44h-.19Zm5.63 0a1.15 1.15 0 0 0-.25-.58c-.06-.05-.16-.11-.24-.1-.18.04-.1.41 0 .48-.29-.08-.65-.32-.7-.69-.03-.33.18-.64.54-.56.57.12.75.83.83 1.45h-.18m.63-.02c.03-.46.22-1 .47-1.24.19-.17.59-.3.78-.06.07.09.1.17.12.3.02.44-.35.7-.68.82-.02-.04.06-.09.08-.17.05-.27-.12-.37-.3-.24-.15.12-.25.37-.3.6-.03.01-.15.03-.17 0m-.36.01a7.31 7.31 0 0 0-.16-.89c-.09-.36-.24-.65-.2-1.1a1.34 1.34 0 0 1 .3-.68c.04-.06.12-.15.17-.15.1 0 .24.19.3.3.13.18.18.34.2.57v.15c-.1.63-.3 1.13-.34 1.8h-.27Zm-6.14.07h.35c.03.04.18-.03.18.04v.04h-.77c-.08 0-.2.03-.23-.03v-.04c.15 0 .33.02.47 0"/><path fill="green" d="M3.95 11.49a15.7 15.7 0 0 1 1.8 1.66c-.73-.42-1.46-.85-1.8-1.66m5.04 2.14-.18.04c-.21-.05-.3-.22-.58-.2.15.09.36.11.5.22-.16.03-.33.05-.48.01a.83.83 0 0 1-.34-.25h-.17a1.46 1.46 0 0 1-.17-.16h.1a2.82 2.82 0 0 1-.6-1.04c.33.33.63.69.92 1.06l.25.02a3.5 3.5 0 0 1-.56-.99c-.05-.11-.13-.27-.04-.39.12.07.1.22.15.34l.15.32c.14.29.27.58.53.75.06.02.16.01.21.06.01.03-.03.02-.05.02.09.1.25.12.36.2m-1.81 1.84.13.08c-.18.17-.24.46-.29.75H7c-.02-.35 0-.67.18-.83m.49.21.16.04c-.16.14-.25.34-.4.49-.03-.23.13-.39.24-.53m8.9 1.36-.74-.17c.3-.07.57.05.74.16v.01Zm-.9-.14c1.42.43 2.9.8 4.4 1.17 0 .08-.05.12-.05.2-1.52-.43-3.06-.83-4.54-1.3a.44.44 0 0 1 .19-.07m.88 0c1.2.31 2.46.57 3.72.82-.01.08-.06.13-.06.22-1.18-.29-2.35-.59-3.53-.87l-.13-.16Zm-1.16.1c1.44.53 2.93 1 4.44 1.44-.02.07-.07.1-.07.19-1.45-.45-2.83-.96-4.26-1.43-.04-.01-.06-.04-.1-.04-.05-.04-.12-.04-.15-.1l.14-.05m-.16.65c1.26.68 2.58 1.3 3.92 1.9-.01.08-.08.11-.1.19-1.36-.67-2.7-1.36-4.05-2.04a.59.59 0 0 1 .23-.05m.97.2c1.05.45 2.13.88 3.21 1.3-.03.07-.08.12-.1.2-1.02-.43-2-.9-3.02-1.33l-.09-.18"/><path fill="#FCDD09" d="M8.99 13.63h.02c0-.06-.08-.07-.13-.1a1.5 1.5 0 0 1-.74-1.11c.22.44.65.72 1.36.64-.3-.3-.64-.66-.6-1.35.16.55.58.84 1.21.91-.25-.3-.5-.88-.32-1.46.06.66.46.96 1 1.15-.06-.17-.17-.39-.19-.64a1.8 1.8 0 0 1 .18-.86c-.08.73.3 1.08.74 1.33-.17-.53.02-1.16.3-1.46 0 .13-.08.26-.09.4-.04.5.3.81.54 1.06-.05-.6.2-.99.5-1.27.03-.03.05-.09.1-.07-.08.15-.19.29-.2.48-.06.43.17.75.31 1 .12-.57.41-.98.87-1.21-.11.19-.31.38-.34.7-.03.3.09.56.17.81.2-.5.54-.86 1.1-1.01-.25.2-.53.48-.54.93-.01.17.03.32.04.5.28-.35.64-.72 1.3-.74-.51.2-.79.61-.8 1.3.3-.27.74-.57 1.41-.48-.29.1-.52.18-.69.39-.17.2-.25.44-.33.73a1.63 1.63 0 0 1 1.49-.16c-.73-.02-1.02.4-1.26.87.16-.03.33-.1.53-.12.39-.03.73.12.96.26-.15.01-.3-.05-.46-.03-.45.03-.72.37-.94.64a1.57 1.57 0 0 1 1.43.44c-.18-.03-.35-.14-.56-.14-.4 0-.71.26-.94.44.51.03.88.22 1.13.51v.01l.13.16.04.05c-.04 0-.1-.06-.15-.08a.96.96 0 0 0-.74-.17.35.35 0 0 0-.16.03.45.45 0 0 0-.2.07.12.12 0 0 0-.08.04c-.05.01-.1.04-.14.06l-.06.02.2.07c.05 0 .07.03.11.04a4 4 0 0 1 .33.2l.25.25c.04.07.09.13.12.2l.09.18c0 .01 0 .04.02.04-.02.05-.08-.07-.12-.08a.97.97 0 0 0-.79-.35c-.06 0-.13 0-.17.02a.6.6 0 0 0-.23.05c-.07 0-.1.03-.17.03.44.26.8.6.88 1.21-.22-.44-.63-.72-1.37-.65.3.3.66.66.61 1.36-.16-.55-.56-.85-1.2-.91.23.29.51.91.3 1.44-.03-.68-.47-.94-.98-1.13.06.18.17.4.19.67.02.31-.09.6-.18.82.08-.73-.32-1.07-.75-1.34.18.55-.01 1.16-.29 1.47 0-.15.08-.3.09-.46 0-.45-.31-.76-.54-1 .05.61-.21 1-.5 1.28-.03.03-.05.09-.1.07.36-.41.16-1.16-.13-1.49-.1.6-.41.98-.87 1.22.13-.19.34-.4.36-.74.02-.28-.1-.53-.17-.77-.21.49-.54.86-1.1 1 .41-.25.65-.77.5-1.43-.27.36-.65.73-1.3.75.5-.2.78-.62.8-1.3-.31.26-.77.59-1.43.46.62-.1.9-.53 1.04-1.1-.31.23-1 .39-1.49.16.72 0 1.03-.4 1.25-.88a1.6 1.6 0 0 1-1.47-.13L7 16.3h.02c.6.19.99-.17 1.27-.5.02-.02.07-.05.06-.1a1.82 1.82 0 0 1-.52.02l-.16-.04c-.14-.02-.24-.08-.36-.13l-.13-.08a1.45 1.45 0 0 0-.24-.2c.1 0 .23.09.36.1.06.03.15.03.25.03a.84.84 0 0 0 .4-.11.29.29 0 0 0 .13-.07.12.12 0 0 0 .08-.05l.21-.15c.02-.02.05-.02.06-.05-.3-.03-.56-.1-.78-.22-.04-.04-.1-.07-.16-.11l-.2-.2c-.04-.08-.1-.13-.15-.2.22.15.68.38 1.07.2a.5.5 0 0 0 .2-.07c.04-.01.09-.03.13-.06.04-.01.1-.03.13-.06a1.89 1.89 0 0 1-.7-.34 1.74 1.74 0 0 1-.42-.63c0-.02 0 0 .02 0 .05.06.1.11.17.16v.02a.9.9 0 0 0 .51.23c.15.04.32.02.48 0 .01-.03.06-.01.08-.03.07 0 .12-.03.18-.04"/><path fill="green" d="M7.65 14.29c-.07-.02-.1-.08-.17-.11-.03.02-.07.03-.09.06.09 0 .2.06.26.05m-.45-.11c.02-.03.06-.03.07-.06-.1-.02-.22-.08-.3-.07.08.04.15.1.23.13m-.4-.06c-.17-.09-.35-.24-.6-.23.19.08.34.27.6.23m-.97-.19c0-.1-.2-.16-.32-.13.11.04.19.11.32.13m1.79-.01c.06-.04.13-.06.18-.11-.27-.08-.57-.2-.79-.29.16.18.4.27.6.4m-1-.16c-.1-.12-.3-.2-.45-.24.15.07.26.25.45.24m.88-.25c-.05-.07-.2-.11-.32-.07.1.03.22.1.32.07m-2.28-.1c-.1 0-.17.03-.27.03a.37.37 0 0 0 .42.1c-.05-.04-.11-.08-.15-.13m.87.26a1.4 1.4 0 0 1-.32-.32c-.1-.05-.25-.02-.34.03.18.14.44.25.66.29m-1.36-.35c.06.02.09.07.14.09.07-.06.16-.08.23-.12-.07-.14-.26 0-.37.03m.47-.1c.05.05.2.06.3.03-.12-.01-.21-.1-.3-.04m2.36.08c.1.24.23.46.41.63a.35.35 0 0 0-.19.07c.25.12.53.2.77.33-.04.03-.09.05-.13.06-.21-.06-.43-.18-.62-.27-.05-.03-.15-.1-.2-.03.2.14.38.29.62.37-.4.18-.85-.05-1.07-.2.05.07.1.12.14.2-.29-.01-.38.19-.5.36.24-.05.47-.12.7-.16.06.04.13.06.17.11-.3.09-.65.11-.94.2 0 .06-.02.08-.01.14.27-.16.62-.14.94-.06.07.02.14.07.2.07.17 0 .34-.13.53-.08-.06.06-.14.1-.22.15-.02.01-.1.02-.07.05a.29.29 0 0 1-.13.07c-.15-.05-.28.06-.4.1-.1.01-.19.01-.25-.02a1.26 1.26 0 0 1 .28-.16c-.24-.13-.7-.11-.88.05 0 .14.02.27.04.4-.05-.1-.08-.21-.12-.32-.12.08-.21.19-.31.28.06-.2.32-.33.26-.63-.41.09-.75.24-.7.78-.07-.12-.14-.3-.11-.45.06-.3.57-.34.82-.46a1.57 1.57 0 0 1 .29-.43l-.2-.04c-.3.18-.71.22-1.05.35-.12.05-.2.13-.31.16.01-.22.32-.28.52-.36.22-.08.46-.18.7-.19-.36-.14-1.19-.2-1.37.15-.03.07-.01.18-.12.23-.03-.17.09-.3.1-.46-.1-.06-.23-.01-.35.02a1.1 1.1 0 0 0-.44.21c.06-.37.65-.37 1.07-.4.12-.01.33-.02.48-.01-.08-.06-.2-.1-.33-.17-.1-.05-.21-.15-.32-.18-.25-.07-.78-.06-.93.05-.1.07-.13.2-.17.36-.12-.53.42-.5.81-.55-.17-.13-.36-.32-.67-.35l.13-.05c.01-.05-.17-.13-.13-.17l.22.14c.14-.03.25-.09.41-.1-.1-.06-.26-.08-.38-.13-.11.06-.37.03-.52.05-.31.04-.38.31-.59.5-.01-.44.31-.7.83-.62-.4-.13-.83-.22-1.27-.3.57-.06 1.07.17 1.58.27-.37-.24-.75-.45-1.14-.66.2-.03.44.12.62.18a3.18 3.18 0 0 0-.4-.4c-.15-.11-.35-.2-.45-.36a4.51 4.51 0 0 1 1.57 1.13c.09.03.15.08.23.13.07.04.13.12.2.15.11.06.25.05.4.11.03.04 0-.03.04-.02.3.21.71.2 1 .39.13.09.24.21.37.3.13.1.27.16.4.25a.77.77 0 0 1 .12-.05c-.27-.19-.6-.32-.77-.6-.69-.1-1.07-.59-1.47-.98-.4-.4-.8-.85-1.03-1.4.2.22.35.48.55.72.18.23.37.47.61.64-.16-.35-.48-.64-.56-1.12.54.63.94 1.4 1.59 1.93-.28-.52-.87-.9-.95-1.62.04-.02.06.04.08.07.07.1.14.25.21.37.3.46.67.93 1.04 1.31l.11-.02c-.17-.24-.43-.5-.55-.82.1 0 .13.1.18.16.15.2.33.4.44.65l.33-.02c-.38-.27-.58-.73-.8-1.16l.44.51c.16.2.34.38.42.65.05.01.12 0 .15.02m7.85 4.36c.38 0 .62.14.8.35l-.8-.35m.43-.24c1.22.52 2.5.97 3.77 1.42-.02.08-.07.13-.1.22-.02-.08-.12-.08-.18-.1-.5-.18-1.01-.4-1.5-.6l-1.74-.69a5.9 5.9 0 0 0-.25-.25"/><path fill="#FFF" fill-rule="nonzero" d="M12 24a12 12 0 1 0 0-24 12 12 0 0 0 0 24Zm0-1a11 11 0 1 1 0-22 11 11 0 0 1 0 22Z"/></g></svg>