<svg xmlns="http://www.w3.org/2000/svg" width="24" height="24" fill="none"><g clip-path="url(#a)"><path fill="#503F32" d="M12 23.97a12 12 0 1 0 0-24 12 12 0 0 0 0 24Z"/><path fill="#DEBB69" d="M17.04 15.84a9.34 9.34 0 0 1-.4-1.96c-.05-.5-.06-1-.08-1.49a8.12 8.12 0 0 0-.25-1.77c-.04-.16-.11-.31-.16-.46a2.83 2.83 0 1 0-3.35-3.99c-.14-.08-.27-.18-.42-.25-.49-.25-1-.44-1.53-.56a5.58 5.58 0 0 0-2.39 0 4 4 0 0 0-1.2.47 5.85 5.85 0 0 0-2.68 3.03c-.1.33-.18.67-.25 1.01-.13.67-.07 1.33.07 1.99.1.47.25.94.49 1.37.21.39.43.79.69 1.15.3.41.65.8 1 1.17.38.4.81.73 1.29 1 .37.2.77.37 1.15.55.42.19.88.29 1.33.36.41.06.84.09 1.26.1.83.02 1.65.09 2.46.26.2.04.4.1.59.16.23.07.47.14.68.24.31.14.62.31.91.48.18.11.33.26.49.4.13.11.32.1.44-.03.11-.11.1-.31-.01-.42a3.87 3.87 0 0 0-1.26-.86c-.31-.13-.63-.27-.95-.37-.33-.1-.68-.16-1.02-.24a.45.45 0 0 1-.1-.05L14 17c.2-.11.4-.2.59-.33.64-.41 1.1-.97 1.4-1.66.03-.06.08-.11.12-.16l.04.01.03.14c.05.22.08.44.14.65.15.52.32 1.03.58 1.5.2.37.43.72.74 1.01.07.06.18.09.28.09.12 0 .2-.09.24-.2.04-.12.01-.23-.08-.33a5.2 5.2 0 0 1-1.04-1.88Zm-1.28-1.96a3.73 3.73 0 0 1-2.11 2.59c-.76.36-1.57.44-2.55.44-.25-.04-.67-.08-1.07-.16-.29-.06-.57-.16-.85-.26-.26-.1-.51-.22-.76-.35a5.17 5.17 0 0 1-1.24-.88c-.46-.43-.87-.9-1.22-1.42a6.4 6.4 0 0 1-.79-1.54 4.77 4.77 0 0 1-.01-3.18c.3-.82.81-1.49 1.46-2.07a4.47 4.47 0 0 1 4.66-.93c.46.16.9.37 1.31.63a2.72 2.72 0 0 0 .22 1.98l-.63.63-1.58-1.58.55-.55c.1-.1.1-.26 0-.35-.1-.09-.26-.1-.35 0l-.55.55-.64-.64a.24.24 0 0 0-.35 0c-.09.1-.1.26 0 .35l.64.64-1.37 1.36-1.35-1.35a.24.24 0 0 0-.35 0c-.09.1-.1.26 0 .35L8.18 9.5 6.8 10.87l-.72-.71a.24.24 0 0 0-.35 0c-.09.1-.1.26 0 .35l.72.71-.54.54c-.1.1-.1.26 0 .35.05.05.11.07.18.07.07 0 .13-.02.18-.07l.54-.54 1.57 1.57-.91.91c-.1.1-.1.26 0 .35.05.05.11.07.18.07.06 0 .13-.02.18-.07l.91-.91 1.57 1.57-.51.51c-.1.1-.1.26 0 .35.03.05.1.08.16.08s.13-.02.18-.07l.51-.51.51.51c.04.04.11.07.17.07.06 0 .13-.02.18-.07.1-.1.1-.26 0-.35l-.51-.52 1.38-1.37 1.47 1.46c.05.05.11.07.18.07.06 0 .13-.02.18-.07.1-.1.1-.26 0-.35l-1.46-1.46 1.37-1.36.58.58c.05.05.11.07.18.07.06 0 .13-.02.18-.07.1-.1.1-.26 0-.35l-.58-.58.48-.48c.1-.1.1-.26 0-.35a.24.24 0 0 0-.35 0l-.48.48-1.56-1.56.55-.54a2.83 2.83 0 0 0 2.25 1.13l.21-.02.16.46c.15.55.22 1.11.23 1.68-.03.47-.08.97-.21 1.45Zm-5.66-2.46-1.38 1.37-1.57-1.57 1.37-1.37 1.58 1.57ZM8.88 9.5l1.37-1.37 1.58 1.58-1.37 1.36L8.88 9.5Zm1.58 2.27 1.57 1.57-1.38 1.37-1.57-1.57 1.38-1.37Zm.35-.35 1.37-1.36 1.56 1.56-1.37 1.36-1.56-1.56Z"/><path fill="#fff" d="M12-.03a12 12 0 1 0 0 24 12 12 0 0 0 0-24Zm7.9 19.64-.9-.9c-.21-.21-.41-.21-.62 0l-.58.57c-.29.28-.3.45 0 .75l.75.76a11 11 0 1 1 1.35-1.18Z"/><path fill="#fff" fill-rule="evenodd" d="m17.12 5.25.13.11c.77.7 1.07 1.73.87 2.68a2.65 2.65 0 0 0-1.76.75 1.44 1.44 0 0 1-1.31.37 1.4 1.4 0 0 1-1-.89 1.72 1.72 0 0 1-.09-.71 1.58 1.58 0 0 1 .77-1.24c.24-.14.51-.23.8-.24.36-.02.7-.12.99-.3a2 2 0 0 0 .6-.53Zm-1.74-.64c.37.01.73.08 1.06.22l.01.01c.13.05.25.13.37.2-.13.18-.3.33-.49.44-.24.14-.53.23-.82.24a2.04 2.04 0 0 0-1.67 1 1.9 1.9 0 0 0-.24.8c-.02.28.02.57.11.85s.26.53.48.72a1.81 1.81 0 0 0 1.66.38c.28-.08.55-.23.76-.44A2.21 2.21 0 0 1 18 8.4l-.05.15-.01.03a3.2 3.2 0 0 1-.24.45l-.04.05a2.6 2.6 0 0 1-.63.64A2.84 2.84 0 0 1 13.2 5.6l.05-.06c.09-.1.19-.19.3-.27l.1-.09c.09-.07.19-.12.28-.18.06-.03.11-.07.17-.09l.27-.11.23-.07.25-.06.33-.03a.8.8 0 0 1 .2-.03Z" clip-rule="evenodd"/></g><defs><clipPath id="a"><path fill="#fff" d="M0 0h24v24H0z"/></clipPath></defs></svg>