<svg xmlns="http://www.w3.org/2000/svg" width="24" height="24"><g fill="none" fill-rule="evenodd"><path fill="#FFF" fill-rule="nonzero" d="M12 0a12 12 0 1 1 0 24 12 12 0 0 1 0-24Zm0 1a11 11 0 1 0 0 22 11 11 0 0 0 0-22Z"/><path fill="#503F32" fill-rule="nonzero" d="M12 1a11 11 0 1 0 0 22 11 11 0 0 0 0-22Z"/><path fill="#DEBB69" d="M8.38 8.58c.75-.5 1.52-.7 2.37-.33.17.07.4 0 .6 0h5.08l.75 2.28c.49-.9-.26-1.64.18-2.4h2.15l.56.74-.47.58c.83.49.84.51.45 1.37L22 12.06l-.05.22-1.28.15-.5.94c.29.77 1.06 1.6 0 2.38-.56.42-1.69.07-2.15-.59-1.16.56-2.38.16-3.57.29l-.8-.88-.06.78-1.51.09c-1 .05-1.99-.18-3-.03-.32.04-.68-.13-.9-.17l-5 .66c-.13-1.32.51-2.41.51-3.64l-.65-.1L2 12.02c.18-.2.23-.3.3-.33a2.15 2.15 0 0 0 1.3-1.96c.03-.53.26-1.05.41-1.63h1.5l.38 1.3.81-1.3c.62-.12 1.26-.24 1.68.49Zm10.4 3.8c-.22.04-.54.19-.6.35-.07.24-.01.59.13.8.14.21.45.32.68.49.22.15.42.32.8.62l-1.45.24c.6.52.97.63 1.39.47.5-.2.69-.7.35-1.13-.2-.27-.55-.44-.84-.64-.23-.16-.57-.22-.4-.74.25.02.52.07.78.03.14-.02.26-.2.4-.3a2.2 2.2 0 0 0-1.24-.18Zm-14.05-.3c-.8.5-.9.82-1.01 3.11.46 0 .92.03 1.37-.01.15-.02.27-.21.53-.43l-1.21-.3.32-2.38Zm10.7.33.35 2.58c.51 0 .92.06 1.3-.03.27-.06.6-.29.72-.53.4-.77-.15-1.86-1.02-2.02-.4-.07-.82 0-1.35 0Zm-.8-.05c-.42.5 0 1.01-.18 1.61-.32-.4-.57-.68-.8-.99-.23-.3-.36-.74-.95-.5 0 .74-.17 1.49.13 2.2l.1.2.06-.13c.08-.19.1-.37.12-.56.02-.27 0-.55 0-.86.91.28.88 1.48 1.9 1.64.02-.92.25-1.78-.37-2.61Zm-2.54.06h-1.4l.01 1.46c0 .31.03.63.06 1.05.56-.01 1.02.17 1.48-.2l-1-.45c-.09-.88.81-.2.9-.81l-.47-.2-.44-.14c-.01-.66.64-.36.86-.7Zm-4.55-.15H6.2c-.08.92-.5 1.74-.16 2.64l.35.03c.36.03.74.02 1.24-.28l-1.03-.48c-.06-.6.41-.42.66-.56.05-.02.06-.1.1-.2l-.88-.45.65-.36.46-.22-.05-.12Zm.8.24c-.48.37-.65 1.39-.3 1.88.43.6 1.23.7 2.12.24v-1.14H9.13l-.13.2c.21.1.43.2.67.33-.32.58-.63.5-.92.29-.3-.23-.45-.53-.3-.94.28-.75.86-.87 1.66-.65-.55-.6-1.2-.63-1.76-.21Zm9.05 1.46c-.23.48-.57.7-1.17.47l-.16-1.5c.86-.16.97-.08 1.33 1.03ZM15.6 8.71c.14 1.05.27 2.06.4 3.18.7 0 1.3.18 1.9-.14-.22-.74-.95-.23-1.25-.62-.44-2.27-.44-2.27-1.05-2.42ZM9.86 8.5c-1.13.04-1.76.72-1.76 1.78 0 .93.63 1.62 1.5 1.65 1.05.02 1.75-.68 1.76-1.78 0-.9-.66-1.68-1.5-1.65Zm1.96.16v3.25c.58 0 1.08.04 1.57-.02.69-.08 1.02-.73.71-1.36-.08-.18-.28-.31-.43-.47.49-1 .3-1.35-.82-1.4h-1.03Zm3.24.03h-.7l.32 3.23c.27 0 .58-.02.84-.04l-.26-1.62-.2-1.57Zm2.64.14.56 3.05h2.61c-.52-.77-1.35-.47-2.04-.68l-.04-.66 1.09-.3c-1.26-.59-1.26-.59-1.35-1.11l.54-.04.52-.12c-.4-.42-.78-.44-1.89-.14ZM5.2 8.52h-.88c-.6 1.02-.11 2.4-1.37 3.13h1.27l.49-2.38.33 1.31.31 1.25c1.12-.47 1.02-1.62 1.7-2.22v2.03l.85.2.08-.1c-.41-.4-.33-.9-.26-1.4.06-.5.1-1 .14-1.5 0-.1-.08-.2-.13-.3h-.84l-1.14 2.14-.56-2.16Zm7.98 2c.16.1.34.43.28.59-.14.4-.49.46-.98.25v-.87c.26 0 .54-.08.7.03Zm-2.89-1.4c.55.31.47.85.43 1.34a1.1 1.1 0 0 1-.86 1c-.61.11-1.14-.48-1.13-1.3-.05-.5.26-.84.66-1.12.32-.23.62-.1.9.08Zm-.53.9c-.1 0-.27.1-.3.2-.02.09.11.31.15.3.14-.02.27-.1.5-.21-.17-.15-.26-.28-.35-.29Zm2.71-1.11 1 .56-1 .57V8.9Z"/></g></svg>