<svg xmlns="http://www.w3.org/2000/svg" width="24" height="24"><g fill="none" fill-rule="evenodd"><path fill="#41479B" fill-rule="nonzero" d="M11.9.2h.4A11.9 11.9 0 0 1 24 11.87v.23H.2v-.3A11.9 11.9 0 0 1 11.9.2Z"/><path fill="#F5F5F5" fill-rule="nonzero" d="M24 12.22A12 12 0 0 1 12.2 24h-.4A12 12 0 0 1 0 12.3V12h24v.22ZM20.06 3.1l-2.64 1.32h3.89a12 12 0 0 1 1.85 3.16h-5.74l6.52 3.26c.03.3.05.62.06.94V12h-2.9l-7.66-3.83V12h-2.88V8.17L2.9 12H0v-.31c.01-.29.03-.57.06-.85l6.52-3.26H.84a12 12 0 0 1 1.85-3.16h3.89L3.95 3.1c.64-.58 1.34-1.09 2.1-1.52l4.51 2.25V.1c.41-.05.82-.08 1.24-.09h.4c.42 0 .83.04 1.24.09v3.74l4.51-2.25c.76.43 1.46.94 2.1 1.53Z"/><path fill="#41479B" fill-rule="nonzero" d="M23.4 15.44c-.73-.13-.89-.52-1.89-.52-1.19 0-1.19.55-2.38.55s-1.19-.55-2.38-.55-1.19.55-2.38.55-1.19-.55-2.38-.55-1.19.55-2.38.55c-1.18 0-1.18-.55-2.37-.55-1.2 0-1.2.55-2.38.55-1.2 0-1.2-.55-2.38-.55-1 0-1.16.39-1.88.51-.16-.52-.28-1.06-.36-1.62 1.05-.04 1.1-.55 2.24-.55 1.19 0 1.19.56 2.38.56s1.19-.56 2.38-.56 1.19.56 2.37.56c1.2 0 1.2-.56 2.38-.56 1.2 0 1.2.56 2.38.56 1.2 0 1.2-.56 2.38-.56 1.2 0 1.2.56 2.38.56 1.2 0 1.2-.56 2.38-.56 1.15 0 1.2.51 2.25.55-.08.56-.2 1.1-.36 1.63Zm-1.27 2.86a2.7 2.7 0 0 0-.62-.06c-1.19 0-1.19.55-2.38.55s-1.19-.55-2.38-.55-1.19.55-2.38.55-1.19-.55-2.38-.55-1.19.55-2.38.55c-1.18 0-1.18-.55-2.37-.55-1.2 0-1.2.55-2.38.55-1.2 0-1.2-.55-2.38-.55-.25 0-.44.02-.61.06a12 12 0 0 1-.73-1.38c.36-.15.65-.34 1.34-.34 1.19 0 1.19.55 2.38.55s1.19-.55 2.38-.55 1.19.55 2.37.55c1.2 0 1.2-.55 2.38-.55 1.2 0 1.2.55 2.38.55 1.2 0 1.2-.55 2.38-.55 1.2 0 1.2.55 2.38.55 1.2 0 1.2-.55 2.38-.55.7 0 .99.19 1.34.34a12 12 0 0 1-.72 1.38Zm-3.61 3.74c-.63-.14-.83-.49-1.77-.49-1.19 0-1.19.55-2.38.55s-1.19-.55-2.38-.55-1.19.55-2.38.55c-1.18 0-1.18-.55-2.37-.55-.94 0-1.14.34-1.76.49a12 12 0 0 1-2.39-2.08c.63.14.83.49 1.77.49 1.19 0 1.19-.56 2.38-.56s1.19.56 2.37.56c1.2 0 1.2-.56 2.38-.56 1.2 0 1.2.56 2.38.56 1.2 0 1.2-.56 2.38-.56 1.2 0 1.2.56 2.38.56.95 0 1.14-.35 1.78-.5a12 12 0 0 1-2.4 2.1Z"/><path fill="#FF4B55" fill-rule="nonzero" d="M2.3 5.05h19.4c.41.6.78 1.23 1.09 1.9H1.2c.3-.67.68-1.3 1.1-1.9Z"/><path fill="#FF4B55" fill-rule="nonzero" d="M11.38 0h1.24v12h-1.24zM8.31 7.58 0 11.64v.26h.98l8.83-4.32zM23.9 11.9v-.56l-7.68-3.76h-1.5l8.82 4.32zM4.3 2.8l.59-.47 4.22 2.1H7.59L4.3 2.78ZM18.77 2.1l.62.44-3.8 1.88h-1.52l4.7-2.33Z"/><path fill="#FFE15A" fill-rule="nonzero" d="M12.2 24h-.4c-2.43-.04-4.68-.8-6.55-2.08l-2.43-2.94 3.78 3.13.35-.3c-.57-1-.63-2.04-1.38-2.62-.82-.63-.82-1.8-.82-1.8s.36.95.8 1.15c.3.14 1.1.5 1.63 1.54.27.53.56.86.76 1.05l.53-.28-1.44-4.68 2.3 4.33.44-.14c-.15-1.15.2-2.13-.28-2.95-.51-.89-.07-1.97-.07-1.97s-.03 1.01.3 1.37c.23.24.82.88.92 2.04.05.6.2 1.01.3 1.27l.6-.06.46-4.88.47 4.88.46.04c.3-1.11.99-1.9.87-2.83-.14-1.02.69-1.85.69-1.85s-.42.92-.24 1.38c.1.3.41 1.13.06 2.23a3.92 3.92 0 0 0-.2 1.3c.19.05.38.1.56.17l2.3-4.33-1.44 4.68.41.22c.7-.92 1.64-1.37 1.89-2.29.27-.99 1.35-1.44 1.35-1.44s-.74.7-.76 1.19c0 .32-.05 1.2-.8 2.08-.38.46-.58.86-.68 1.12.16.12.31.24.46.38l3.78-3.13-2.42 2.94A11.94 11.94 0 0 1 12.2 24ZM15.24 4.9l-.93.48-.37-.85c-.04-.1-.19-.1-.26-.03l-.76.88-.79-1.23c-.05-.08-.2-.08-.26 0l-.8 1.23-.75-.88c-.07-.08-.22-.06-.26.03l-.36.85-.94-.48c-.12-.06-.27.04-.2.14l.9 1.42h-.03c-.11 0-.2.06-.2.14v.42c0 .08.09.15.2.15h5.15c.1 0 .19-.07.19-.15V6.6c0-.08-.09-.14-.2-.14h-.03l.9-1.42c.07-.1-.08-.2-.2-.14Z"/><circle cx="12" cy="12" r="11.5" stroke="#FFF"/></g></svg>