<svg xmlns="http://www.w3.org/2000/svg" xml:space="preserve" id="Layer_1" x="0" y="0" style="enable-background:new 0 0 24 24" version="1.1" viewBox="0 0 24 24"><style>.st0{fill:#003576}.st2{fill:#fff}</style><circle cx="12" cy="12" r="12" class="st0"/><path d="M3.55 4.97v.01c.44 1.61.97 3.18 1.52 4.76.07.21.16.41.26.61.26.5.57.98.91 1.44.29.39.61.76.98 1.08.33.29.7.5 1.09.69a37.15 37.15 0 0 0 5.8 2.16c.43.12.87.22 1.3.32.42.09.84.15 1.26.17.28.02.57.04.85.02a3.06 3.06 0 0 0 1.82-.71 4.97 4.97 0 0 0 1.39-1.76 5.92 5.92 0 0 0 .55-2.9c-.02-.32-.12-.62-.21-.93a2.79 2.79 0 0 0-2.38-1.92c-.45-.04-.9-.06-1.35-.04l-1.52.07c-.79.06-1.56.17-2.34.28-1.27.19-2.53.44-3.78.75-.42.1-.84.2-1.27.26-.25.03-.52.03-.79-.05-.35-.1-.61-.32-.78-.64-.1-.2-.18-.4-.24-.61L5.58 4.78l-.45-1.37c-.57.47-1.1.99-1.58 1.56z" style="fill-rule:evenodd;clip-rule:evenodd;fill:#f90029"/><ellipse cx="11.53" cy="15.81" class="st2" rx="4.87" ry="4.99"/><path d="M11.43 10.62a5.13 5.13 0 0 0-5.12 5.04 5.14 5.14 0 1 0 10.29.24 5.13 5.13 0 0 0-5.17-5.28zM7.14 14.8c.07-.05.11-.03.13.06l.05.29c.04.18.11.34.21.5.03.05.09.1.05.16-.03.04-.1.05-.15.05a.55.55 0 0 1-.44-.29c-.05-.1-.1-.2-.08-.3-.01-.22.07-.37.23-.47zm.4 2.27a.56.56 0 0 1-.39-.17.66.66 0 0 1-.19-.39c-.02-.16 0-.33.18-.45l.01.14c-.01.29.11.52.33.71l.09.05c.02.02.04.05.04.08 0 0-.04.03-.07.03zm.25-2.46c-.31.03-.59-.24-.57-.52-.02-.18.14-.45.34-.51.08-.02.14 0 .15.08l.08.46a13.04 13.04 0 0 1 .08.4c.01.05-.02.09-.08.09zm.15 2.49c.01-.11.06-.2.14-.28.05-.05.09-.04.12.03a1.64 1.64 0 0 0 .55.73c.05.04.04.12-.03.14l-.19.04a.54.54 0 0 1-.38-.15.6.6 0 0 1-.21-.51zm.01-1.28c.04-.12.11-.22.23-.26.02-.01.07.01.08.03l.16.29.23.41c.07.11.05.18-.08.2l-.15.03c-.17-.03-.32-.08-.42-.23a.52.52 0 0 1-.05-.47zm1.12 3.09-.08.01a.65.65 0 0 1-.59-.36.62.62 0 0 1-.05-.4c0-.03.03-.05.04-.08.02.02.05.04.06.07.06.17.14.32.27.44.11.1.23.16.37.19l.07.02c0 .07-.04.1-.09.11zm.04-1.32c.01-.12.06-.21.1-.3.03-.06.11-.06.16-.01l.19.19.27.27.11.12c.06.07.06.11-.02.16-.1.07-.18.1-.31.1-.21.02-.51-.19-.5-.53zm.39 1.27a.61.61 0 0 1 .02-.33c.02-.08.07-.09.13-.03l.1.12c.17.17.35.31.58.4.04.02.1.06.1.09s-.05.09-.09.11l-.26.09c-.29-.03-.52-.2-.58-.45zm1.62 1.33c-.22.17-.58.1-.78-.09a.73.73 0 0 1-.17-.34c-.01-.05.01-.1.01-.16l.03-.01.1.12c.08.15.22.22.36.3a.8.8 0 0 0 .4.08h.04l.07.04-.06.06zm.14-.86c-.3.02-.51-.23-.54-.47a.52.52 0 0 1 .05-.24c.02-.05.07-.07.12-.04l.38.2a2.44 2.44 0 0 0 .31.15c.11.05.13.12.05.22a.47.47 0 0 1-.37.18zm1.11.85c-.28.27-.65.17-.86-.08-.07-.08-.13-.19-.11-.29v-.06c.01-.12.04-.14.15-.08.15.08.3.17.46.23.09.04.2.03.29.05.06.01.15.01.16.08 0 .05-.05.11-.09.15zm.77-.16a.52.52 0 0 1-.44-.25.53.53 0 0 1-.09-.3c.01-.07.05-.11.12-.1l.27.07.28.04.31.06c.05.01.07.04.06.1-.03.23-.29.39-.51.38zm2.87-3.06-.07.25a4.3 4.3 0 0 1-.35.83l-.11.16-.18-.14a.32.32 0 0 0-.44.02l-.12.13v.06l.05-.02c.14-.08.29-.11.45-.08l.11.03c.07.02.09.04.05.11a2.4 2.4 0 0 1-.13.21l-.46.55c-.18.19-.36.37-.58.51-.2.13-.32.11-.46-.08l-.19-.28c-.19-.26-.45-.34-.75-.16-.11.07-.22.15-.34.21a.48.48 0 0 1-.65-.22c-.07-.14-.1-.29-.14-.43-.05-.16-.23-.35-.42-.34a.96.96 0 0 0-.33.06c-.17.06-.33.13-.52.05-.16-.06-.31-.28-.31-.43v-.42c0-.19-.11-.32-.26-.41-.01-.02-.06-.03-.1-.03l-.42-.01a.51.51 0 0 1-.47-.3c-.08-.15-.06-.28-.01-.43.04-.11.08-.22.1-.33.05-.26-.14-.47-.36-.54a5.94 5.94 0 0 1-.39-.13c-.17-.07-.26-.2-.29-.4-.02-.22.09-.38.22-.54a.6.6 0 0 0 .12-.48c-.03-.15-.13-.24-.24-.32l-.27-.19c-.09-.06-.13-.15-.18-.25-.03-.08.01-.14.05-.19.13-.16.25-.32.39-.46.2-.2.41-.38.62-.56.08-.07.17-.14.26-.18a.57.57 0 0 0 .23-.15c.09-.08.22-.13.34-.18a4.92 4.92 0 0 1 3.22-.28 6.35 6.35 0 0 1 .96.37c.2.12.41.23.59.37a4.81 4.81 0 0 1 1.01.99c.11.14.19.29.28.44l.21.39c.06.14.13.28.17.42.08.29.16.59.22.88.03.16.03.33.04.5 0 .23.01.46-.02.69-.02.27-.08.5-.13.73z" class="st0"/><path d="M14.22 18.63a.5.5 0 0 0-.44.3c-.04.1-.02.12.08.11l.24-.02.47.05c.06.01.08-.02.07-.07a.91.91 0 0 0-.07-.14c-.08-.16-.22-.21-.35-.23zM8.6 13l-.02-.12a.48.48 0 0 0-.27-.29c-.03-.02-.07-.02-.11-.03l-.02.11.02.49v.23c0 .05.02.07.07.05.17-.07.33-.2.33-.44zM12.33 18.28a.5.5 0 0 0-.34.18c-.02.02-.02.06-.02.09 0 .02.04.03.06.04l.15.02a4.5 4.5 0 0 1 .5.21c.05.03.08.01.08-.04v-.06l.02-.01-.1-.23a.34.34 0 0 0-.35-.2zM8.77 14.52c-.07-.05-.16-.06-.24-.09-.03-.01-.08 0-.09.02a.12.12 0 0 0 .01.1c.1.21.18.42.22.65.01.06.05.08.1.04.11-.1.19-.22.2-.36a.49.49 0 0 0-.2-.36zM9.76 16.28c-.09-.16-.34-.24-.52-.17-.07.03-.08.07-.02.12.15.16.29.34.39.54.03.05.09.06.11.01.05-.09.12-.17.09-.29l.02-.01a.6.6 0 0 0-.07-.2zM10.71 17.4c-.12.01-.23.03-.33.14l.11.09.11.07.4.32c.04.04.07.03.08-.02.01-.08.03-.15.02-.23-.01-.07-.02-.15-.06-.2a.33.33 0 0 0-.33-.17zM9.1 12.43c.11-.07.22-.27.16-.38-.03-.07-.08-.14-.12-.2-.01-.02-.04-.03-.06-.04l-.02.08.02.23a.54.54 0 0 1-.12.36c.07.03.1-.03.14-.05zM13.6 18.01c-.16-.15-.41-.13-.5.09l.1.01c.05 0 .1-.02.14-.01.09.01.18.01.25.08.02.02.06.01.09.02 0-.03 0-.07-.02-.1-.01-.04-.04-.07-.06-.09zM9.32 13.79a.38.38 0 0 0-.33-.29c.18.18.17.41.15.65.12-.08.2-.25.18-.36zM9.47 15.09c.2.13.27.33.31.56.12-.17.12-.37.01-.48-.08-.08-.25-.13-.32-.08zM11.93 17.36c-.12-.05-.24.01-.35.1.24 0 .4.14.56.28.01-.17-.06-.31-.21-.38zM10.81 16.86c.06-.09.04-.26-.04-.36-.09-.11-.27-.14-.42-.07.09.06.19.11.27.18.08.06.13.16.19.25z" class="st0"/><path d="M12 1a11 11 0 1 1-.01 22.01A11 11 0 0 1 12 1m0-1a12 12 0 1 0 0 24 12 12 0 0 0 0-24z" class="st2"/></svg>