<svg width="24" height="24" viewBox="0 0 24 24" fill="none" xmlns="http://www.w3.org/2000/svg">
<path d="M12.02 24C18.6474 24 24.02 18.6274 24.02 12C24.02 5.37258 18.6474 0 12.02 0C5.39257 0 0.019989 5.37258 0.019989 12C0.019989 18.6274 5.39257 24 12.02 24Z" fill="#503F32"/>
<path fill-rule="evenodd" clip-rule="evenodd" d="M12.9989 6.99646L12.9761 7.04634L12.9773 7.04509C13.0257 7.13937 13.0771 7.2315 13.1313 7.32149L12.9238 7.05504L12.9989 6.99646ZM13.2646 6.41694L13.1117 6.75048L12.8471 6.95666L12.369 6.34294L12.8904 5.9366L13.2646 6.41694ZM13.4389 6.03672L13.3232 6.2892L12.9888 5.85994L13.0637 5.80158C13.1909 5.87635 13.3161 5.95484 13.4389 6.03672ZM13.6882 5.49294C11.6265 4.15326 8.98541 3.71748 6.92 5.32703C4.06673 7.54929 4.72767 11.793 6.73294 14.3657C8.27215 16.3426 10.9612 17.7914 13.418 17.3502C14.9847 17.5558 16.0788 18.28 16.9762 19.3876C17.0523 19.4811 17.1882 19.4999 17.2842 19.425L17.3628 19.3639C17.4601 19.2891 17.4788 19.1469 17.4015 19.0522C16.6098 18.0746 15.6682 17.3838 14.4135 17.0579C14.8032 16.8956 15.1815 16.677 15.5421 16.3959C15.904 16.1141 16.2094 15.7997 16.4627 15.4603C16.471 16.7575 16.91 17.8406 17.6646 18.8476C17.7382 18.9462 17.8791 18.9624 17.9763 18.8863L18.0549 18.8252C18.1497 18.7504 18.1659 18.6144 18.0936 18.5172C17.2387 17.3753 16.805 16.1368 16.989 14.5662C17.8546 12.6495 17.4597 10.2456 16.3928 8.3543L17.8895 7.67486L18.1551 5.65712L16.2982 3.8414L14.3104 4.13571L13.6882 5.49294ZM15.3135 8.84426L15.8523 8.59969C15.9307 8.73657 16.0054 8.87661 16.0761 9.01932L15.6865 9.323L15.3135 8.84426ZM14.8462 8.99102C14.867 9.00341 14.8879 9.01571 14.909 9.02792L15.1968 8.89727L15.5881 9.39966L15.0669 9.80587L14.5885 9.19184L14.8462 8.99102ZM14.0815 8.44285C14.2812 8.61511 14.4983 8.77464 14.7325 8.92152L14.5119 9.09346L14.0339 8.47997L14.0815 8.44285ZM13.8008 8.18078C13.8608 8.24149 13.9228 8.30082 13.9866 8.35877L13.9573 8.3816L13.8008 8.18078ZM13.3574 16.7607C13.1014 16.8097 12.8422 16.8353 12.5819 16.8396L11.8523 15.9031L12.3733 15.4973L13.3574 16.7607ZM13.4934 16.7324C13.7209 16.6811 13.9456 16.6109 14.1663 16.5203L12.9931 15.0143L12.4716 15.4206L13.4934 16.7324ZM14.2848 16.4695C14.4844 16.3802 14.6803 16.2738 14.8716 16.1492L13.6121 14.532L13.0914 14.9377L14.2848 16.4695ZM14.9754 16.0794C15.044 16.0319 15.112 15.9819 15.1792 15.9295C15.2885 15.8444 15.3919 15.7559 15.4896 15.6643L14.2317 14.0493L13.7104 14.4554L14.9754 16.0794ZM15.5799 15.5773C15.7429 15.4154 15.889 15.2444 16.019 15.0659L14.8511 13.5666L14.33 13.9726L15.5799 15.5773ZM16.094 14.9593C16.2301 14.7595 16.3469 14.5507 16.4455 14.3348L15.4709 13.0837L14.9495 13.49L16.094 14.9593ZM16.7448 13.4415C16.6857 13.7029 16.6054 13.9582 16.5023 14.2048L15.5693 13.0071L16.0902 12.6012L16.7448 13.4415ZM16.7782 13.2815C16.8381 12.9696 16.8687 12.65 16.873 12.327L16.7102 12.1181L16.1886 12.5245L16.7782 13.2815ZM16.8722 12.123C16.8713 12.0804 16.8699 12.0378 16.8682 11.9951L16.8086 12.0415L16.8722 12.123ZM16.86 11.8433C16.8405 11.5452 16.7998 11.246 16.7403 10.949L16.2532 11.3286L16.732 11.9431L16.86 11.8433ZM16.6517 10.5621C16.6033 10.374 16.5476 10.1873 16.4851 10.003L16.3178 10.1334L16.6517 10.5621ZM16.4417 9.87872C16.3508 9.62484 16.247 9.37583 16.1319 9.13399L15.7631 9.42138L16.2411 10.035L16.4417 9.87872ZM12.947 5.73438C12.9142 5.71588 12.8813 5.69763 12.8483 5.67963L12.9121 5.76156L12.947 5.73438ZM12.1693 5.35356C12.3087 5.41167 12.4467 5.47454 12.5829 5.5418L12.8138 5.83822L12.2923 6.24457L11.8139 5.63053L12.1693 5.35356ZM12.0357 5.29953C11.8224 5.21582 11.606 5.14336 11.3877 5.08342L11.7373 5.53215L12.0357 5.29953ZM11.1303 5.0188C11.1503 5.02334 11.1702 5.02798 11.1901 5.03273L11.6389 5.60881L11.1181 6.01477L10.64 5.40097L11.1303 5.0188ZM10.971 4.9849C10.7291 4.93702 10.4858 4.90519 10.2428 4.89108L10.5633 5.30258L10.971 4.9849ZM10.0795 4.88429C9.99723 4.88223 9.91508 4.88224 9.83305 4.88439L9.46544 5.17094L9.94399 5.7853L10.465 5.37924L10.0795 4.88429ZM9.61646 4.89511C9.5038 4.90333 9.39149 4.91572 9.27967 4.93245L9.38881 5.07256L9.61646 4.89511ZM9.13972 4.95571C8.90612 4.99846 8.675 5.06059 8.44785 5.14366L8.7689 5.5558L9.29046 5.14923L9.13972 4.95571ZM8.32614 5.19034C8.12139 5.27256 7.92012 5.37224 7.72342 5.49054L8.15001 6.03823L8.67054 5.63246L8.32614 5.19034ZM7.6169 5.55673C7.50389 5.62922 7.39248 5.70805 7.28289 5.79343C7.21591 5.84561 7.15114 5.89905 7.08853 5.95368L7.53052 6.52113L8.05165 6.1149L7.6169 5.55673ZM6.99552 6.0372C6.8275 6.19242 6.6761 6.35666 6.54049 6.52863L6.91092 7.00412L7.43216 6.5978L6.99552 6.0372ZM6.46223 6.63109C6.32053 6.82266 6.19757 7.02319 6.09229 7.23099L6.29161 7.48688L6.81256 7.08079L6.46223 6.63109ZM6.03152 7.35591C5.95808 7.51328 5.89439 7.67452 5.83999 7.83893L6.19326 7.56355L6.03152 7.35591ZM5.76474 8.08992L5.77671 8.04637L6.26989 7.66193L6.74823 8.27601L6.22653 8.68261L5.76474 8.08992ZM5.72611 8.24324C5.65661 8.53944 5.61454 8.84359 5.59748 9.15192L5.60764 9.16496L6.12817 8.75927L5.72611 8.24324ZM5.59005 9.3453C5.5833 9.6559 5.60118 9.96989 5.64125 10.2834L6.06413 9.95384L5.59005 9.3453ZM5.67808 10.5346C5.6721 10.4985 5.66641 10.4623 5.66101 10.4261L6.14077 10.0522L6.61876 10.6658L6.09702 11.0724L5.67808 10.5346ZM5.72729 10.8007C5.75963 10.9588 5.79732 11.1163 5.84006 11.2726L5.99866 11.149L5.72729 10.8007ZM5.87671 11.4022C5.95355 11.665 6.04452 11.9241 6.14809 12.1771L6.55351 11.8612L6.0753 11.2474L5.87671 11.4022ZM6.19801 12.2963C6.30298 12.5415 6.41975 12.7805 6.54688 13.0112L7.10846 12.5735L6.63015 11.9596L6.19801 12.2963ZM6.60865 13.1211C6.73969 13.3501 6.88096 13.5703 7.03104 13.7794L7.66377 13.2863L7.1851 12.6719L6.60865 13.1211ZM7.10467 13.8801C7.13546 13.9215 7.16661 13.9624 7.19809 14.0028C7.32441 14.1649 7.45959 14.3236 7.60266 14.4779L8.21835 13.9981L7.74041 13.3846L7.10467 13.8801ZM7.68855 14.5691C7.86841 14.7569 8.05991 14.9377 8.26124 15.1098L8.77344 14.7106L8.29499 14.0965L7.68855 14.5691ZM8.35883 15.1918C8.56513 15.3625 8.78115 15.5239 9.00503 15.6741L9.32799 15.4224L8.85009 14.809L8.35883 15.1918ZM9.11498 15.7465C9.35102 15.8991 9.59528 16.0392 9.84565 16.1644L9.88327 16.1351L9.40463 15.5208L9.11498 15.7465ZM10.1896 16.3254C10.3925 16.4138 10.5986 16.4922 10.8069 16.5596L11.0579 16.364L10.5798 15.7503L10.0583 16.1568L10.1896 16.3254ZM10.9521 16.6046C11.0744 16.6409 11.1974 16.6733 11.3209 16.7017L11.1345 16.4624L10.9521 16.6046ZM11.5103 16.7418L11.2329 16.3858L11.754 15.9798L12.4238 16.8395C12.1193 16.8345 11.8137 16.8008 11.5103 16.7418ZM11.1563 16.2874L11.6773 15.8814L11.1991 15.2677L10.6782 15.6737L11.1563 16.2874ZM11.7757 15.8048L12.2966 15.3989L11.8184 14.785L11.2975 15.191L11.7757 15.8048ZM12.395 15.3222L12.9164 14.916L12.4381 14.302L11.9168 14.7083L12.395 15.3222ZM13.0148 14.8393L13.5354 14.4337L13.0571 13.8196L12.5365 14.2253L13.0148 14.8393ZM13.6338 14.357L14.155 13.9509L13.6766 13.3367L13.1555 13.7429L13.6338 14.357ZM14.2534 13.8743L14.7745 13.4683L14.296 12.854L13.775 13.26L14.2534 13.8743ZM14.8729 13.3916L15.3943 12.9853L14.9157 12.371L14.3943 12.7773L14.8729 13.3916ZM15.4927 12.9087L16.0136 12.5028L15.535 11.8883L15.0141 12.2943L15.4927 12.9087ZM16.112 12.4262L16.6336 12.0197L16.1548 11.4052L15.6333 11.8117L16.112 12.4262ZM16.2194 10.2101L16.6977 10.824L16.1766 11.2302L15.6982 10.6162L16.2194 10.2101ZM15.5999 10.6929L16.0782 11.3068L15.5567 11.7133L15.0784 11.0992L15.5999 10.6929ZM14.9801 11.1759L15.4584 11.7899L14.9375 12.1959L14.4591 11.5818L14.9801 11.1759ZM14.3608 11.6585L14.8391 12.2726L14.3177 12.679L13.8393 12.0648L14.3608 11.6585ZM13.741 12.1415L14.2193 12.7556L13.6984 13.1617L13.22 12.5475L13.741 12.1415ZM13.1216 12.6241L13.6 13.2383L13.0788 13.6445L12.6004 13.0303L13.1216 12.6241ZM12.5021 13.1069L12.9805 13.7212L12.4598 14.127L11.9814 13.5127L12.5021 13.1069ZM11.883 13.5894L12.3615 14.2036L11.8401 14.6099L11.3617 13.9957L11.883 13.5894ZM11.2633 14.0723L11.7418 14.6866L11.2208 15.0926L10.7422 14.4784L11.2633 14.0723ZM10.6439 14.555L11.1225 15.1693L10.6015 15.5753L10.1229 14.961L10.6439 14.555ZM10.0246 15.0376L10.5032 15.652L9.98163 16.0585L9.503 15.4441L10.0246 15.0376ZM9.42635 15.3457L9.94794 14.9393L9.47005 14.3258L8.94845 14.7323L9.42635 15.3457ZM10.0463 14.8626L10.5672 14.4566L10.0893 13.8432L9.56841 14.2492L10.0463 14.8626ZM10.6656 14.38L11.1867 13.9739L10.7088 13.3604L10.1876 13.7666L10.6656 14.38ZM11.285 13.8973L11.8064 13.491L11.3284 12.8775L10.8071 13.2838L11.285 13.8973ZM11.9047 13.4144L12.4254 13.0086L11.9475 12.395L11.4268 12.8009L11.9047 13.4144ZM12.5238 12.9319L13.045 12.5257L12.5671 11.9122L12.0459 12.3183L12.5238 12.9319ZM13.1434 12.4491L13.6643 12.0431L13.1864 11.4295L12.6654 11.8355L13.1434 12.4491ZM13.7627 11.9665L14.2841 11.5601L13.8062 10.9465L13.2847 11.3529L13.7627 11.9665ZM14.3825 11.4834L14.9034 11.0775L14.4255 10.4639L13.9045 10.8698L14.3825 11.4834ZM15.0018 11.0008L15.5232 10.5945L15.0452 9.9809L14.5238 10.3872L15.0018 11.0008ZM15.6216 10.5178L16.1428 10.1117L15.6648 9.49804L15.1435 9.90424L15.6216 10.5178ZM14.4901 9.26849L14.9685 9.88252L14.4472 10.2888L13.9689 9.67473L14.4901 9.26849ZM13.8705 9.75139L14.3488 10.3655L13.8279 10.7715L13.3496 10.1574L13.8705 9.75139ZM13.2512 10.234L13.7295 10.8481L13.2081 11.2545L12.7297 10.6404L13.2512 10.234ZM12.6314 10.7171L13.1097 11.3312L12.5888 11.7371L12.1105 11.123L12.6314 10.7171ZM12.0121 11.1997L12.4905 11.8138L11.9693 12.22L11.4909 11.6058L12.0121 11.1997ZM11.3926 11.6825L11.8709 12.2966L11.3501 12.7025L10.8717 12.0884L11.3926 11.6825ZM10.7734 12.165L11.2518 12.7791L10.7305 13.1854L10.2521 12.5713L10.7734 12.165ZM10.1537 12.6479L10.6321 13.262L10.111 13.6682L9.63254 13.0541L10.1537 12.6479ZM9.53418 13.1308L10.0126 13.7448L9.49177 14.1508L9.01334 13.5367L9.53418 13.1308ZM8.91498 13.6133L9.39341 14.2274L8.87181 14.6339L8.39335 14.0198L8.91498 13.6133ZM8.31671 13.9214L8.83834 13.5149L8.36042 12.9015L7.83877 13.308L8.31671 13.9214ZM8.93671 13.4383L9.45753 13.0324L8.97957 12.4189L8.45878 12.8248L8.93671 13.4383ZM9.5559 12.9557L10.0771 12.5495L9.59922 11.936L9.07793 12.3423L9.5559 12.9557ZM10.1755 12.4729L10.6967 12.0667L10.2188 11.4532L9.69758 11.8594L10.1755 12.4729ZM10.7951 11.99L11.3159 11.5841L10.8381 10.9706L10.3172 11.3765L10.7951 11.99ZM11.4143 11.5074L11.9355 11.1013L11.4576 10.4877L10.9364 10.8939L11.4143 11.5074ZM12.0339 11.0246L12.5547 10.6187L12.0768 10.0052L11.556 10.4111L12.0339 11.0246ZM12.6531 10.542L13.1746 10.1356L12.6967 9.52211L12.1752 9.92853L12.6531 10.542ZM13.2729 10.059L13.7939 9.65301L13.316 9.03947L12.795 9.44546L13.2729 10.059ZM13.8922 9.57635L14.4135 9.17012L13.9355 8.55663L13.4143 8.96281L13.8922 9.57635ZM13.3802 7.84379L13.8589 8.45826L13.3377 8.86443L12.8591 8.24992L13.3802 7.84379ZM12.7607 8.32658L13.2393 8.94109L12.7184 9.34707L12.2397 8.73258L12.7607 8.32658ZM12.1414 8.80924L12.62 9.42373L12.0985 9.83015L11.6199 9.21567L12.1414 8.80924ZM11.5215 9.29233L12.0002 9.90681L11.4793 10.3127L11.0007 9.6982L11.5215 9.29233ZM10.9024 9.77486L11.381 10.3894L10.8598 10.7955L10.3812 10.181L10.9024 9.77486ZM10.2828 10.2577L10.7614 10.8722L10.2405 11.2781L9.76186 10.6637L10.2828 10.2577ZM9.6635 10.7404L10.1422 11.3548L9.62095 11.761L9.14232 11.1465L9.6635 10.7404ZM9.04396 11.2232L9.52259 11.8376L9.00129 12.2439L8.52259 11.6295L9.04396 11.2232ZM8.42423 11.7062L8.90292 12.3206L8.38215 12.7264L7.90349 12.112L8.42423 11.7062ZM7.80513 12.1887L8.28378 12.8031L7.76213 13.2096L7.28346 12.5952L7.80513 12.1887ZM7.20682 12.4968L7.72849 12.0903L7.25023 11.4764L6.72852 11.8829L7.20682 12.4968ZM7.82685 12.0136L8.34758 11.6078L7.86929 10.9939L7.34859 11.3997L7.82685 12.0136ZM8.44594 11.5311L8.96732 11.1248L8.48912 10.5109L7.96765 10.9173L8.44594 11.5311ZM9.06568 11.0482L9.58686 10.642L9.10864 10.0281L8.58748 10.4343L9.06568 11.0482ZM9.68522 10.5653L10.2062 10.1593L9.72804 9.54543L9.207 9.95147L9.68522 10.5653ZM10.3046 10.0827L10.8257 9.67648L10.3476 9.06261L9.8264 9.46877L10.3046 10.0827ZM10.9241 9.59982L11.4449 9.19395L10.9667 8.58013L10.446 8.98596L10.9241 9.59982ZM11.5432 9.11729L12.0648 8.71086L11.5866 8.09704L11.0651 8.50348L11.5432 9.11729ZM12.1631 8.6342L12.6841 8.2282L12.206 7.6144L11.685 8.02039L12.1631 8.6342ZM12.7824 8.15154L13.3035 7.74542L12.8254 7.13169L12.3043 7.53774L12.7824 8.15154ZM12.2706 6.41959L12.7487 7.03332L12.2277 7.43936L11.7496 6.82558L12.2706 6.41959ZM11.6513 6.90223L12.1293 7.51602L11.6084 7.92201L11.1303 7.30822L11.6513 6.90223ZM11.0319 7.38488L11.51 7.99866L10.9884 8.4051L10.5103 7.79132L11.0319 7.38488ZM10.412 7.86797L10.8901 8.48175L10.3693 8.88757L9.89124 8.27376L10.412 7.86797ZM9.79287 8.35041L10.271 8.96423L9.74977 9.37039L9.27167 8.75656L9.79287 8.35041ZM9.17331 8.83322L9.65141 9.44704L9.13036 9.85309L8.6522 9.2393L9.17331 8.83322ZM8.55383 9.31595L9.032 9.92974L8.51085 10.3359L8.03271 9.72205L8.55383 9.31595ZM7.93434 9.7987L8.41248 10.4125L7.89101 10.8189L7.41279 10.2051L7.93434 9.7987ZM7.31443 10.2818L7.79264 10.8956L7.27195 11.3013L6.79377 10.6875L7.31443 10.2818ZM6.6954 10.7642L7.17359 11.378L6.65187 11.7845L6.17366 11.1707L6.6954 10.7642ZM6.71713 10.5891L7.23778 10.1834L6.7597 9.56982L6.23913 9.97556L6.71713 10.5891ZM7.33615 10.1068L7.85771 9.70032L7.37966 9.08662L6.85806 9.49316L7.33615 10.1068ZM7.95607 9.62367L8.47719 9.21758L7.99908 8.60384L7.47802 9.00996L7.95607 9.62367ZM8.57556 9.14092L9.09668 8.73483L8.61857 8.12101L8.09744 8.52718L8.57556 9.14092ZM9.19504 8.65818L9.71624 8.25203L9.2381 7.63814L8.71693 8.04434L9.19504 8.65818ZM9.81461 8.17537L10.3353 7.76959L9.8571 7.15569L9.33645 7.56148L9.81461 8.17537ZM10.4337 7.69294L10.9553 7.2865L10.477 6.67253L9.95546 7.07903L10.4337 7.69294ZM11.0536 7.20984L11.5746 6.80385L11.0963 6.18982L10.5754 6.59586L11.0536 7.20984ZM11.673 6.72719L12.194 6.32122L11.7156 5.70719L11.1947 6.11315L11.673 6.72719ZM10.5416 5.47763L11.0197 6.09143L10.4987 6.49748L10.0206 5.88368L10.5416 5.47763ZM9.92226 5.96034L10.4004 6.57414L9.87883 6.98065L9.40069 6.36684L9.92226 5.96034ZM9.30233 6.4435L9.78047 7.05731L9.25982 7.4631L8.78171 6.84926L9.30233 6.4435ZM8.68335 6.92592L9.16147 7.53976L8.6403 7.94596L8.16218 7.33211L8.68335 6.92592ZM8.06382 7.40877L8.54194 8.02262L8.0208 8.4288L7.54261 7.81499L8.06382 7.40877ZM7.44425 7.89165L7.92244 8.50547L7.40139 8.91158L6.92323 8.29773L7.44425 7.89165ZM6.82487 8.37439L7.30303 8.98824L6.78142 9.39478L6.30318 8.78098L6.82487 8.37439ZM6.20482 8.85764L6.68306 9.47145L6.16249 9.87718L5.68428 9.26334L6.20482 8.85764ZM6.84659 8.19935L7.36761 7.79327L6.8892 7.17917L6.36825 7.58526L6.84659 8.19935ZM7.46597 7.71661L7.98719 7.31039L7.50879 6.69618L6.98756 7.1025L7.46597 7.71661ZM8.08555 7.23373L8.60672 6.82754L8.12828 6.21328L7.60715 6.61952L8.08555 7.23373ZM8.70508 6.75088L9.22569 6.34512L8.74718 5.73084L8.22664 6.13661L8.70508 6.75088ZM9.32405 6.26846L9.84563 5.86196L9.36709 5.24761L8.84553 5.65418L9.32405 6.26846ZM18.8406 19.1594C18.0724 19.0921 17.5811 19.4275 17.4626 20.2593L18.5007 21.5001C19.4198 21.5263 20.0094 21.2671 20.0007 20.5001L18.8406 19.1594Z" fill="#DEBB69"/>
<path fill-rule="evenodd" clip-rule="evenodd" d="M12.9761 7.04634C12.4136 8.64008 13.0072 9.5205 14.9077 9.02916C15.0985 9.20749 12.8339 6.92912 12.9761 7.04634ZM16.7534 6.75578L17.2896 6.98898C17.2896 6.98898 17.554 7.11368 17.6076 7.3606C17.64 7.50775 17.5951 7.67486 17.4767 7.86192L15.53 8.74608C15.2881 8.59145 15.0561 8.42683 14.8479 8.251L16.7534 6.75578ZM15.5138 5.45135L16.1486 5.53491C16.1585 5.53615 16.3892 5.57606 16.4254 5.78681C16.4516 5.93895 16.5239 6.32055 16.5613 6.51509L14.6247 8.03401C14.6247 8.03401 14.6184 8.04274 14.6147 8.04648C14.4064 7.85443 14.2181 7.66114 14.0523 7.47408L15.5126 5.4526L15.5138 5.45135ZM18.1538 5.65712L18.5766 5.88159C18.8696 6.05618 19.0342 6.36794 19.0031 6.69841C18.9731 7.02639 18.7611 7.30323 18.4494 7.42046L17.887 7.6761C17.9219 7.54392 17.9331 7.41547 17.9057 7.29326C17.8171 6.89669 17.433 6.71836 17.4143 6.70963L17.0265 6.54128L18.1526 5.65836L18.1538 5.65712ZM14.5598 4.40881L14.6272 4.41505C14.7968 4.44622 14.9439 4.58714 15.0624 4.83531C15.1559 5.02985 15.2208 5.16328 15.2731 5.25931L13.8465 7.2334C13.5697 6.89669 13.3701 6.60488 13.2579 6.43029L14.1071 4.57841C14.2194 4.49735 14.4239 4.37888 14.6272 4.41629L14.5598 4.41006V4.40881ZM16.5526 4.01349L17.029 4.08333C17.4804 4.09954 17.867 4.48738 17.887 4.96375L17.958 5.42018L16.8344 6.30185C16.797 6.10356 16.7496 5.85166 16.7297 5.73568C16.6648 5.35658 16.3182 5.25681 16.2184 5.23686L16.1922 5.23187L15.7183 5.16952L16.5526 4.01474V4.01349ZM15.2395 3.00462C15.5737 2.97095 15.8892 3.12808 16.0638 3.41117L16.2982 3.8414L15.4764 4.97872C15.4415 4.90888 15.3978 4.82159 15.3405 4.70187C15.1771 4.36142 14.9564 4.16314 14.6833 4.11326C14.5511 4.08832 14.4251 4.10578 14.3092 4.13945V4.13695L14.5137 3.56829C14.6259 3.25404 14.904 3.03829 15.2395 3.00462Z" fill="white"/>
<path d="M12.02 1C18.09 1 23.02 5.93 23.02 12C23.02 18.07 18.09 23 12.02 23C5.94999 23 1.01999 18.07 1.01999 12C1.01999 5.93 5.95999 1 12.02 1ZM12.02 0C5.38999 0 0.019989 5.37 0.019989 12C0.019989 18.63 5.38999 24 12.02 24C18.65 24 24.02 18.63 24.02 12C24.02 5.37 18.65 0 12.02 0Z" fill="white"/>
</svg>
