<svg fill="none" xmlns="http://www.w3.org/2000/svg" viewBox="0 0 24 24">
  <g id="classifier/lottery" clip-path="url(#clip0_448_90)">
    <g id="Group">
      <path id="Vector" d="M12.02 24c6.627 0 12-5.373 12-12s-5.373-12-12-12c-6.628 0-12 5.373-12 12s5.372 12 12 12Z" fill="#503F32"/>
      <path id="Vector_2" d="M12.02 1c6.07 0 11 4.93 11 11s-4.93 11-11 11-11-4.93-11-11 4.94-11 11-11Zm0-1c-6.63 0-12 5.37-12 12s5.37 12 12 12 12-5.37 12-12-5.37-12-12-12Z" fill="#fff"/>
    </g>
    <g id="Frame" fill-rule="evenodd" clip-rule="evenodd" fill="#DEBB69">
      <path id="Subtract" d="M16.453 16.557c-1.506 0-2.732-1.24-2.732-2.765 0-1.523 1.226-2.764 2.732-2.764 1.506 0 2.732 1.24 2.732 2.764 0 1.524-1.226 2.765-2.732 2.765Zm.719-2.92a.813.813 0 0 1 .4.412c.04.1.06.21.06.33a.926.926 0 0 1-.128.479.888.888 0 0 1-.376.338c-.164.08-.36.12-.578.12-.228 0-.426-.04-.59-.12a.847.847 0 0 1-.377-.335.926.926 0 0 1-.128-.479c0-.347.155-.595.458-.744a.655.655 0 0 1-.359-.605.794.794 0 0 1 .455-.7c.147-.073.319-.111.514-.111.167 0 .313.023.435.064.126.044.231.105.316.181a.773.773 0 0 1 .19.263.79.79 0 0 1 .06.31.666.666 0 0 1-.352.598Zm-.958.377a.422.422 0 0 1 .316-.125c.09 0 .172.02.245.058.07.038.125.094.163.164a.543.543 0 0 1 .059.253.521.521 0 0 1-.059.257.443.443 0 0 1-.163.173.485.485 0 0 1-.464 0 .416.416 0 0 1-.164-.17.523.523 0 0 1-.061-.257c0-.151.044-.271.128-.353Zm.678-.805a.336.336 0 0 1-.196.187.435.435 0 0 1-.157.026.386.386 0 0 1-.278-.103.337.337 0 0 1-.105-.254c0-.113.035-.2.105-.274a.376.376 0 0 1 .278-.105.37.37 0 0 1 .336.184c.032.055.046.12.046.193a.466.466 0 0 1-.03.146Z"/>
      <path id="Subtract_2" d="M14.69 18.177a.5.5 0 0 0 .358-.152l.063-.065c.276-.284.129-.777-.225-.953a3.593 3.593 0 0 1-1.982-3.218c0-1.71 1.196-3.13 2.784-3.485.252-.056.45-.268.45-.527V7.28a.5.5 0 0 0-.147-.354l-.975-.971a.5.5 0 0 0-.354-.146l-6.399.014a.5.5 0 0 0-.357.15l-.963.989a.5.5 0 0 0-.142.35l.014 9.408a.5.5 0 0 0 .147.354l.976.971a.5.5 0 0 0 .354.146l6.398-.014Zm-6.174-3.973h2.802a.41.41 0 0 0 .409-.412.41.41 0 0 0-.409-.411H8.516a.41.41 0 0 0-.409.411.41.41 0 0 0 .409.412Zm3.304 1.048H8.516a.41.41 0 0 0-.409.412.41.41 0 0 0 .409.411h3.301a.41.41 0 0 0 .409-.411.41.41 0 0 0-.406-.412ZM8.287 9.189a.323.323 0 0 0 .462 0l.286-.292.286.292a.323.323 0 0 0 .461 0 .331.331 0 0 0 0-.467l-.286-.292.286-.289a.331.331 0 0 0 0-.467.324.324 0 0 0-.461 0l-.286.292-.286-.292a.324.324 0 0 0-.462 0 .331.331 0 0 0 0 .467l.286.289-.286.292a.331.331 0 0 0 0 .467Zm3.945-1.512a.324.324 0 0 0-.461 0l-.289.292-.286-.292a.324.324 0 0 0-.461 0 .331.331 0 0 0 0 .467l.286.292-.286.289a.331.331 0 0 0 .23.563.322.322 0 0 0 .23-.096l.287-.292.289.292a.322.322 0 0 0 .461 0 .331.331 0 0 0 0-.467l-.289-.29.29-.291a.337.337 0 0 0 0-.467Zm.995 1.471a.322.322 0 0 0 .461 0l.286-.292.286.292a.323.323 0 0 0 .461 0 .331.331 0 0 0 0-.467l-.289-.292.29-.289a.331.331 0 0 0 0-.467.324.324 0 0 0-.462 0l-.286.292-.286-.292a.324.324 0 0 0-.461 0 .331.331 0 0 0 0 .467l.289.29-.29.291a.331.331 0 0 0 0 .467Zm-4.94 2.75a.322.322 0 0 0 .462 0l.286-.292.286.292a.322.322 0 0 0 .461 0 .331.331 0 0 0 0-.467l-.286-.292.286-.29a.331.331 0 0 0 0-.466.324.324 0 0 0-.461 0l-.286.292-.286-.292a.324.324 0 0 0-.462 0 .331.331 0 0 0 0 .467l.286.289-.286.292a.331.331 0 0 0 0 .467Zm3.945-1.048a.331.331 0 0 0 0-.467.324.324 0 0 0-.461 0l-.289.292-.286-.292a.324.324 0 0 0-.461 0 .331.331 0 0 0 0 .467l.286.292-.286.289a.331.331 0 0 0 .23.563.322.322 0 0 0 .23-.096l.287-.292.289.292a.322.322 0 0 0 .461 0 .331.331 0 0 0 0-.467l-.289-.29.29-.291Z"/>
    </g>
  </g>
  <defs>
    <clipPath id="clip0_448_90">
      <path fill="#fff" d="M0 0h24v24H0z"/>
    </clipPath>
  </defs>
</svg>