<svg width="24" height="24" viewBox="0 0 24 24" fill="none" xmlns="http://www.w3.org/2000/svg">
<path fill-rule="evenodd" clip-rule="evenodd" d="M24 12C24 5.37258 18.6274 0 12 0C5.37258 0 0 5.37258 0 12C0 18.6274 5.37258 24 12 24C18.6274 24 24 18.6274 24 12ZM1 12C1 5.92487 5.92487 1 12 1C18.0751 1 23 5.92487 23 12C23 18.0751 18.0751 23 12 23C5.92487 23 1 18.0751 1 12Z" fill="white"/>
<path d="M12 1C5.92487 1 1 5.92487 1 12C1 18.0751 5.92487 23 12 23C18.0751 23 23 18.0751 23 12C23 5.92487 18.0751 1 12 1Z" fill="#503F32"/>
<path fill-rule="evenodd" clip-rule="evenodd" d="M6.40526 12.146C6.40526 12.146 6.82871 15.7519 5.90979 16.7699C5.8708 16.7634 5.82748 16.7699 5.82748 16.7699C5.82748 16.7699 5.90437 15.1172 5.62117 14.0862C5.60602 14.0043 5.56951 13.8679 5.52135 13.6879C5.17524 12.3942 4.22731 8.85099 6.2818 7.15016C7.15524 6.24478 10.3241 4.85583 14.7037 7.68733C14.6943 7.69161 14.6809 7.69736 14.664 7.7046C14.3502 7.83948 12.8357 8.49033 12.9699 9.71037C12.6244 9.49594 11.7726 8.92574 11.7726 8.92574C11.7726 8.92574 9.78638 7.36676 7.47851 9.0909C7.46013 9.10679 7.43879 9.12456 7.41493 9.14444C7.05991 9.44015 6.14812 10.1996 6.15725 12.1049L6.40526 12.146ZM10.204 12.2289C12.3754 12.791 12.7127 10.7934 12.7127 10.7934C11.5225 8.01174 8.8031 8.94469 8.42893 9.09089C6.38054 9.8705 6.68322 12.4398 6.73594 12.8873L6.7362 12.8895C7.9811 13.0812 9.23955 12.5473 9.50218 12.394C9.69224 12.3014 9.86661 12.2527 10.204 12.2289ZM6.6528 14.7891C7.57389 14.0857 6.94196 13.0135 6.94196 13.0135C8.38909 13.1135 9.33729 12.6075 9.55123 12.4935C9.56524 12.486 9.57633 12.4802 9.58394 12.4763C9.79621 12.3431 9.99981 12.3247 10.2857 12.3112C12.2779 12.8234 12.7214 11.1139 12.7214 11.1139C12.7214 11.1139 12.7571 11.5737 12.8037 11.7746C12.8503 11.9755 13.5466 14.0868 13.5466 14.0868V14.2519H13.3403L12.6385 12.394C12.6385 12.394 12.3261 12.6583 12.0608 13.0547C12.2026 13.3157 12.7625 13.3438 12.7625 13.3438C12.7625 13.3438 13.0647 16.2522 13.1752 17.1424C13.0628 16.8703 12.1958 16.0235 11.6093 15.4508C11.379 15.2259 11.192 15.0433 11.111 14.9542C10.8229 14.6386 10.7974 13.9568 10.8218 13.3438C10.7487 12.6123 10.4238 12.4899 10.244 12.4769C9.65542 12.5099 9.80433 13.189 9.8314 13.3027C10.0312 13.5978 10.2543 14.3169 10.2857 14.4999C10.1835 15.358 8.03413 15.2948 7.69597 15.2849L7.6849 15.2846C7.03727 15.2629 6.72428 14.9158 6.6528 14.7891ZM16.8805 12.1152V12.0995L16.881 12.1141H16.9032L16.9043 12.1148L16.8805 12.1152ZM16.9043 12.1148L16.881 12.1439V15.7757C16.881 16.0069 16.6883 16.1959 16.4522 16.1959H15.8803C15.6448 16.1959 15.4515 16.0069 15.4515 15.7757V11.6663C15.4547 11.662 15.4563 11.656 15.4563 11.65V10.0472C15.4563 10.0434 15.4553 10.0396 15.4542 10.0363C15.478 9.8268 15.6605 9.66271 15.8803 9.66271H16.4522C16.6682 9.66271 16.8485 9.8214 16.8772 10.0261V12.0821C16.8772 12.0881 16.8789 12.0935 16.881 12.0984L16.8805 12.0995L16.9032 12.1141L16.9043 12.1148ZM18.0144 12.1152H17.9857L18.0144 12.0827V11.6603V10.0271V10.0012C18.0144 9.842 18.2115 9.71145 18.453 9.71145H18.9999V9.67138C18.9999 9.53384 18.8851 9.42175 18.7449 9.42175H13.5876C13.4474 9.42175 13.3326 9.53438 13.3326 9.67138V9.6952H13.3407H13.899C14.1291 9.6952 14.3181 9.8257 14.3181 9.9849V15.9387C14.3181 16.0979 14.1297 16.2284 13.899 16.2284H13.3358C13.3559 16.3464 13.4615 16.4374 13.5876 16.4374H18.7449C18.871 16.4374 18.9766 16.3464 18.9967 16.2284H18.453C18.2115 16.2284 18.0144 16.0979 18.0144 15.9387V12.1152Z" fill="#DEBB69"/>
</svg>
