<svg xmlns="http://www.w3.org/2000/svg" width="24" height="24"><g fill="none" fill-rule="evenodd"><path fill="#F5F5F5" fill-rule="nonzero" d="M12 24a12 12 0 1 1 0-24 12 12 0 0 1 0 24Z"/><path fill="#41479B" fill-rule="nonzero" d="M9.67.47v9.1H.47c.98-4.55 4.6-8.13 9.2-9.1Zm13.86 14.06a11.76 11.76 0 0 1-9 9v-9h9Z"/><path fill="#FF4B55" fill-rule="nonzero" d="M23.53 9.47h-9v-9c4.5.96 8.04 4.5 9 9ZM.47 14.53h9.1v9.1a11.88 11.88 0 0 1-9.1-9.1Z"/><circle cx="12" cy="12" r="11.5" stroke="#FFF"/><g fill="#64B496" fill-rule="nonzero"><path d="M11.64 13.8s.59.17.5.72h.25s-.15-.64-.28-.72c-.12-.08-.47 0-.47 0Z"/><path d="M12.02 13.73c-.16 0-.44 0-.74-.08.07-.07.16-.2.16-.45 0-.37-.26-.13-.26-.13s-.17.14-.07.52c-.1-.04-.2-.08-.3-.15.07-.07.18-.24.25-.52 0 0-.43-.08-.55.24a1.49 1.49 0 0 1-.18-.3c.1 0 .26-.08.26-.5 0 0-.28 0-.35.24a2.4 2.4 0 0 1-.07-.33c.11.04.4.06.4-.57 0 0-.35 0-.43.31a3.77 3.77 0 0 1 0-.25.68.68 0 0 0 .38-.68s-.17.04-.31.16a.55.55 0 0 0-.22-.56s-.21.38.1.69a.64.64 0 0 0-.07.13.67.67 0 0 0-.37-.27s-.08.5.4.72c0 .3.05.56.13.79-.13-.12-.24-.29-.24-.29 0-.56-.47-.58-.47-.58-.08.65.4.67.4.67l.25.29c-.56-.1-.56.37-.56.37.38.1.56-.1.56-.1l.2.11c-.35.01-.48.37-.48.37.46.07.79-.03.9-.08.45.32 1.02.32 1.28.32v-.1Z"/><path d="M11.98 13.73c.16 0 .44 0 .74-.08a.62.62 0 0 1-.16-.45c0-.37.26-.13.26-.13s.17.14.07.52c.1-.04.2-.08.3-.15a1.38 1.38 0 0 1-.25-.52s.43-.08.55.24l.18-.3c-.1 0-.26-.08-.26-.5 0 0 .28 0 .35.24.03-.1.06-.2.07-.33-.11.04-.4.06-.4-.57 0 0 .35 0 .43.31v-.25a.68.68 0 0 1-.37-.68s.16.04.3.16a.55.55 0 0 1 .22-.56s.21.38-.1.69a.64.64 0 0 1 .07.13.67.67 0 0 1 .36-.27s.09.5-.38.72a2.69 2.69 0 0 1-.14.79c.13-.12.24-.29.24-.29 0-.56.46-.58.46-.58.1.65-.38.67-.38.67l-.26.29c.56-.1.56.37.56.37-.38.1-.56-.1-.56-.1l-.2.11c.35.01.48.37.48.37a1.71 1.71 0 0 1-.9-.08c-.46.32-1.02.32-1.28.32v-.1Z"/></g><path fill="#41479B" fill-rule="nonzero" d="M10.42 9.64a3.22 3.22 0 0 0-.86.8l.3.22c.21-.28.47-.52.76-.7l-.2-.32Z"/><path fill="#FF6B71" fill-rule="nonzero" d="M12 12.08h1.31v.75a.38.38 0 0 1-.37.37h-.56a.47.47 0 0 0-.38.2v-1.32Z"/><path fill="#5F64B9" fill-rule="nonzero" d="M12.28 11.23V10.2h1.41l-.38.37v1.04h-1.03z"/><path fill="#F5F5F5" fill-rule="nonzero" d="M12.85 11.6h.75v.76h-.75z"/><path fill="#FF6B71" fill-rule="nonzero" d="M12 12.08H10.7v.75c0 .2.16.37.37.37h.57c.15 0 .29.08.37.2v-1.32Z"/><path fill="#F5F5F5" fill-rule="nonzero" d="M11.77 13.22c.15.03.28.1.37.17a.84.84 0 0 1 .38-.17v-.77h-.75v.78Z"/><path fill="#5F64B9" fill-rule="nonzero" d="M11.72 11.23V10.2h-1.4l.37.37v1.04h1.03z"/><path fill="#F5F5F5" fill-rule="nonzero" d="M10.69 11.6h.75v.76h-.75z"/><path fill="#41479B" fill-rule="nonzero" d="M11.16 10.67v.45l.75.3v-.3z"/><path fill="#F5F5F5" fill-rule="nonzero" d="M11.44 10.95v.45l.75.3v-.15z"/><path fill="#41479B" fill-rule="nonzero" d="M13.31 10.67v.45l-.75.3v-.3z"/><path fill="#F5F5F5" fill-rule="nonzero" d="M12.94 10.95v.45l-.75.3v-.15z"/><path fill="#FF4B55" fill-rule="nonzero" d="M12.57 12.73h-1.14a.47.47 0 0 1-.46-.47v-1.45l1.04.7 1.02-.7v1.45c0 .26-.2.47-.46.47Z"/><g fill="#41479B" fill-rule="nonzero"><path d="m11.72 11.04-.75-.28v1.03l.75.2zm.94 0 .75-.28v1.03l-.75.2z"/><path d="M11.44 11.98h1.13v.75h-1.13z"/></g><path fill="#FF4B55" fill-rule="nonzero" d="m11.44 11.14.56.28.56-.28v.84h-1.12z"/><g fill="#F5F5F5" fill-rule="nonzero"><path d="M12.42 11.23v.94c0 .08-.06.14-.14.14h-.56a.14.14 0 0 1-.14-.14v-.94l-.28-.19v1.13c0 .23.19.42.42.42h.56c.24 0 .43-.19.43-.42v-1.13l-.29.19Z"/><path d="M12.52 11.98c-.16.03-.33.05-.52.15-.18-.1-.36-.12-.52-.15-.26-.03-.42-.07-.51-.3v.4c.14.13.31.16.5.18.16.03.32.05.5.15l.03.01.03-.01c.18-.1.34-.12.5-.15.2-.02.37-.05.5-.18v-.4c-.09.23-.24.27-.5.3Z"/></g><path fill="#FFE15A" fill-rule="nonzero" d="M12.56 11.02h-.28v-.16h-.18v.16h-.29v.1h.29v.49h.18v-.49h.28z"/><path fill="#464655" fill-rule="nonzero" d="m11.09 10.65.53-.53.82.82-.53.53z"/><path fill="#FFE15A" fill-rule="nonzero" d="m10.95 10.44.37.75.38-.37z"/><path fill="#464655" fill-rule="nonzero" d="m11.27 10.5.6-.44.69.94-.6.44z"/><path fill="#FFE15A" fill-rule="nonzero" d="m11.16 10.28.28.75.47-.3z"/><path fill="#464655" fill-rule="nonzero" d="m10.94 10.84.43-.62.95.67-.43.61z"/><path fill="#FFE15A" fill-rule="nonzero" d="m10.76 10.65.47.75.28-.49z"/><path fill="#464655" fill-rule="nonzero" d="m12.17 11.47-.53-.53.82-.82.53.53z"/><path fill="#FFE15A" fill-rule="nonzero" d="m13.6 10.44-.38.75-.37-.37z"/><path fill="#464655" fill-rule="nonzero" d="m12.13 11.45-.61-.45.69-.94.6.44z"/><path fill="#FFE15A" fill-rule="nonzero" d="m13.4 10.28-.27.75-.47-.3z"/><path fill="#464655" fill-rule="nonzero" d="m12.19 11.5-.43-.61.95-.67.43.61z"/><path fill="#FFE15A" fill-rule="nonzero" d="m13.77 10.65-.47.75-.28-.49z"/><path fill="#F5F5F5" fill-rule="nonzero" d="M12.09 13.18s-.53-.4-.42-.75c.08-.29.32-.6.52-.68 0 0 .27-.02.2.15-.07.17-.15.2-.13.37.05.28.11.62-.17.9Z"/><path fill="#41479B" fill-rule="nonzero" d="M12.4 11.75h-.07c-.25.07-.56.39-.66.68-.06.16.04.33.18.47-.09-.6.23-.8.55-1.15Z"/><path fill="#FF4B55" fill-rule="nonzero" d="M12.38 12.27c-.05-.16.13-.2.28-.37.1-.12-.15-.14-.32-.15 0 0-.38.28-.4.46-.02.17.1.84.06.97.62-.3.47-.63.38-.91Z"/><path fill="#F5F0F0" fill-rule="nonzero" d="M11.94 12.07a.7.7 0 0 1 .5-.12l-.26-.63a.7.7 0 0 0-.5.12l.26.63Z"/><path fill="#F5F5F5" fill-rule="nonzero" d="M12.22 11.98a.7.7 0 0 1 .5-.12l-.26-.63a.7.7 0 0 0-.5.12l.26.63Z"/><path fill="#5F64B9" fill-rule="nonzero" d="M11.57 9.74a2.81 2.81 0 0 0-1.46.37l-.18-.33a3.18 3.18 0 0 1 1.65-.42v.38Z"/><path fill="#41479B" fill-rule="nonzero" d="M13.59 9.64c.33.2.62.48.85.8l-.3.22a2.84 2.84 0 0 0-.76-.7l.2-.32Z"/><path fill="#5F64B9" fill-rule="nonzero" d="M12.43 9.74a2.81 2.81 0 0 1 1.46.37l.18-.33a3.18 3.18 0 0 0-1.65-.42l.01.38Z"/><path fill="#41479B" fill-rule="nonzero" d="M12.75 9.91a1.85 1.85 0 0 0-1.5 0l-.1-.57a2.1 2.1 0 0 1 1.7 0l-.1.57Z"/><path fill="#FF6B71" fill-rule="nonzero" d="M10.74 13.84a6.81 6.81 0 0 0-1.18.43l.16.34a6.43 6.43 0 0 1 1.14-.41l-.12-.36Zm2.52 0a6.81 6.81 0 0 1 1.18.43l-.16.34a6.43 6.43 0 0 0-1.14-.41l.12-.36Z"/><g fill="#FF4B55" fill-rule="nonzero"><path d="M13.51 14.33a4.8 4.8 0 0 0-3 0l-.09-.5a5.08 5.08 0 0 1 3.18 0l-.09.5Z"/><path d="m12.38 14.57-.52.15c-.12.04-.23-.07-.23-.2v-.32c0-.14.11-.25.23-.21l.52.15v.43Z"/><path d="m12 14.14.52-.15c.12-.04.23.07.23.2v.32c0 .14-.11.25-.23.21l-.52-.15v-.43Z"/></g><path fill="#FF6B71" fill-rule="nonzero" d="M12.36 14.8h-.16a.3.3 0 0 1-.3-.3v-.16c0-.16.14-.3.3-.3h.16c.17 0 .3.14.3.3v.16a.3.3 0 0 1-.3.3Z"/></g></svg>