<svg width="24" height="24" viewBox="0 0 24 24" fill="none" xmlns="http://www.w3.org/2000/svg">
<circle cx="12" cy="12" r="12" fill="white"/>
<circle cx="12" cy="12" r="11" fill="#503F32"/>
<path fill-rule="evenodd" clip-rule="evenodd" d="M9.2271 6H14.7551L17.1559 7.05216L14.8142 8.11959H9.2271L6.81107 7.0598L9.2271 6ZM6.38422 7.29771L8.93702 8.42685L7.99427 10.9497L5 9.23219L6.38422 7.29771ZM8.35751 11.0681L9.29008 8.49554H14.7093L15.652 11.0681H8.35751ZM15.0725 8.42685L17.5763 7.29771L19 9.21247L16.0248 10.9497L15.0725 8.42685ZM18.6069 9.87022L16.0445 11.3919L13.07 17.9109L18.6069 9.87022ZM8.35751 11.4211H15.652L11.9892 19.3244L8.35751 11.4211ZM7.94529 11.3721L5.38295 9.87022L10.9103 17.8518L7.94529 11.3721Z" fill="#DEBB68"/>
</svg>
