<svg width="24" height="24" viewBox="0 0 24 24" fill="none" xmlns="http://www.w3.org/2000/svg">
<path d="M12 24C18.6274 24 24 18.6274 24 12C24 5.37258 18.6274 0 12 0C5.37258 0 0 5.37258 0 12C0 18.6274 5.37258 24 12 24Z" fill="#503F32"/>
<path fill-rule="evenodd" clip-rule="evenodd" d="M19.0974 5.84084C19.5934 6.26649 19.871 6.81977 19.9878 7.47265L19.9902 7.47187C20.0486 8.18155 19.8878 8.84844 19.567 9.48731C19.0854 10.3962 18.3702 11.1051 17.495 11.6732C17.495 11.6732 16.619 12.1556 16.4734 12.2833C16.327 12.4109 16.1814 12.5813 16.1814 12.5813C16.079 12.7377 16.0646 12.8793 16.1518 12.9929C16.283 12.9501 16.4142 12.9641 16.5166 13.0638C16.6622 13.2482 16.6622 13.4326 16.4582 13.589C16.2246 13.6458 16.0494 13.589 15.9182 13.4046L15.8598 13.3478L15.867 13.2956C15.6726 13.8341 15.3038 14.2489 14.8094 14.5827C14.2366 15.0372 13.4862 15.392 12.6262 15.6901H12.635C12.7374 16.7826 13.0878 17.6339 13.6566 18.216H14.5318C14.6342 18.3016 14.6342 18.4004 14.5318 18.5H9.43981C9.32301 18.4152 9.32301 18.3296 9.43981 18.2448H10.3446C10.811 17.7763 11.1758 17.0098 11.3366 15.7041V15.6955C10.4302 15.3601 9.62621 14.8987 8.89981 14.3423C8.54221 14.0497 8.28221 13.7034 8.13421 13.2855L8.14141 13.3346L8.08301 13.3914C7.95181 13.5758 7.77661 13.6326 7.54301 13.5758C7.33901 13.4194 7.33901 13.2349 7.48461 13.0505C7.58701 12.9517 7.71821 12.9369 7.84941 12.9797C7.93741 12.8661 7.92301 12.7245 7.82061 12.5681C7.82061 12.5681 7.67421 12.3976 7.52861 12.27C7.38221 12.1424 6.50701 11.6599 6.50701 11.6599C5.63181 11.0919 4.91661 10.3822 4.43501 9.47408C4.11421 8.83521 3.95341 8.16832 4.01181 7.45864C4.12861 6.80576 4.40541 6.25249 4.89981 5.84006C5.39661 5.4572 5.97981 5.4004 6.65101 5.65563C6.94301 5.80815 7.21341 5.99725 7.41821 6.31085C10.4574 5.33814 13.4966 5.32025 16.5358 6.3801C16.7454 6.02448 17.0326 5.81983 17.3462 5.65641C18.0174 5.40118 18.6014 5.45798 19.0974 5.84084ZM7.59261 6.64779C7.60541 6.68048 7.61821 6.71394 7.63021 6.74895C7.71741 7.40183 7.49901 7.81348 7.07581 8.06872C7.36781 8.0835 7.64461 8.14031 7.92221 8.22513H7.93021C7.92781 8.18077 7.92541 8.13798 7.92221 8.09751C7.88701 7.59482 7.83261 7.10224 7.59261 6.64779ZM7.16301 11.5035C7.49821 11.688 7.79021 11.8864 7.96541 12.0996L7.96621 12.0988L7.98861 12.256L7.95181 10.8219C7.95181 10.7132 7.95222 10.6046 7.95262 10.4964C7.95302 10.3892 7.95341 10.2825 7.95341 10.1768C7.9535 10.1271 7.95359 10.0777 7.95368 10.0285C7.95447 9.61317 7.95522 9.21736 7.95021 8.86945C7.85101 8.5006 7.47981 8.43212 7.26621 8.39555C7.04701 8.36753 6.84301 8.31073 6.66781 8.21112C6.55101 8.18233 6.46301 8.12553 6.39021 8.04071C6.30221 7.91309 6.30221 7.79947 6.40461 7.65785C6.57981 7.50144 6.75501 7.51622 6.94461 7.65785C7.16301 7.43063 7.26541 7.1606 7.13421 6.79175C6.90061 6.45092 6.60861 6.26649 6.22941 6.25249C5.82141 6.18167 5.48541 6.43691 5.16461 6.80576C4.88701 7.2034 4.81421 7.77146 4.88701 8.45235C5.03261 9.16204 5.36861 9.78613 5.82061 10.3542C6.06861 10.737 6.57901 11.1207 7.16301 11.5035ZM16.1318 7.61816C16.119 7.68353 16.1054 7.74889 16.0918 7.81348L16.0854 8.22202C16.3598 8.13875 16.635 8.08273 16.9238 8.06872C16.5006 7.81348 16.2822 7.40183 16.3694 6.74895L16.3734 6.7365C16.2606 6.98162 16.1958 7.30067 16.1318 7.61816ZM18.1782 10.3682C18.6302 9.80013 18.9662 9.17605 19.1118 8.46636H19.1126C19.1854 7.78469 19.1126 7.21741 18.835 6.81977C18.5142 6.45092 18.179 6.19568 17.7702 6.26649C17.391 6.2805 17.099 6.46492 16.8654 6.80576C16.7342 7.17539 16.8358 7.44463 17.055 7.67186C17.2446 7.53023 17.4198 7.51545 17.595 7.67186C17.6974 7.81348 17.6974 7.92709 17.6094 8.05471C17.5366 8.14031 17.4494 8.19712 17.3326 8.22513C17.1574 8.32474 16.9534 8.38154 16.7342 8.40956C16.4862 8.45158 16.267 8.57919 16.0774 8.79241V8.71382L16.063 9.61571L16.0238 12.1829L16.0334 12.1136C16.2086 11.9004 16.5006 11.702 16.8358 11.5175C17.4198 11.1347 17.9302 10.751 18.1782 10.3682ZM10.7999 9.11271C10.801 8.98459 10.8021 8.85764 10.7534 8.72394H10.7542C10.6894 8.54651 10.5406 8.3761 10.359 8.23447C10.6206 7.98779 10.9214 7.86951 11.183 7.78002C11.9222 7.5279 12.9254 7.65163 13.6326 8.35275V8.35431C13.415 8.43913 13.1966 8.68503 13.1094 8.87023C13.0374 9.02344 13.0129 9.1712 12.9879 9.32183C12.9801 9.36859 12.9723 9.41563 12.963 9.46319C12.9158 9.70286 12.835 9.92853 12.7166 10.1674C12.6038 10.3947 12.375 10.6406 12.1198 10.7184C11.9774 10.7619 11.8286 10.7619 11.6878 10.7386C11.5774 10.7199 11.4678 10.6966 11.3574 10.6452C11.1206 10.5355 10.9662 10.2803 10.9038 10.0772C10.8387 9.86427 10.8266 9.66227 10.8142 9.45616C10.811 9.40386 10.8079 9.3513 10.8038 9.29822C10.7989 9.23553 10.7994 9.17399 10.7999 9.11271ZM14.0206 8.85622C14.1278 9.05543 14.2086 9.2383 14.2534 9.43206H14.2542C14.3974 10.0538 14.3262 10.6258 13.9574 11.2327C13.851 11.4078 13.6446 11.6716 13.423 11.8179C13.3878 11.8412 13.3541 11.8653 13.3207 11.8891C13.2593 11.933 13.1993 11.9758 13.135 12.0101C12.7406 12.2226 12.379 12.2973 11.995 12.3253C11.3478 12.3727 10.3398 12.0109 9.85741 11.1689C9.67181 10.8452 9.57581 10.5316 9.54141 10.2133C9.49661 9.80247 9.57501 9.37604 9.77101 8.97373C9.82381 8.86478 9.89341 8.75973 9.96541 8.65312L10.0654 8.52473C10.0758 8.52395 10.0814 8.52317 10.091 8.52161L10.1982 8.60099C10.4225 8.76631 10.4145 9.00379 10.4079 9.20071C10.4061 9.2559 10.4043 9.30791 10.4078 9.35425C10.4112 9.39961 10.4142 9.44471 10.4172 9.48963C10.4379 9.80073 10.458 10.1032 10.6174 10.4234C10.6926 10.5752 10.8398 10.7798 11.0134 10.8919C11.1262 10.9643 11.2366 11.0203 11.3502 11.0576C11.515 11.1106 11.7014 11.1479 11.8686 11.1355C12.111 11.1176 12.2926 11.0911 12.5446 10.9433C12.711 10.8452 12.871 10.6592 12.9598 10.5238C13.1886 10.1729 13.295 9.82971 13.3638 9.47486C13.3701 9.43417 13.3765 9.39332 13.3829 9.35238C13.3905 9.30406 13.3981 9.25562 13.4054 9.20718C13.4614 8.99396 13.6326 8.75662 13.8926 8.65701C13.9418 8.71038 13.9776 8.77671 14.0092 8.8351C14.013 8.84228 14.0169 8.84933 14.0206 8.85622Z" fill="#DEBB68"/>
<path d="M12.02 1C18.09 1 23.02 5.93 23.02 12C23.02 18.07 18.09 23 12.02 23C5.94999 23 1.01999 18.07 1.01999 12C1.01999 5.93 5.95999 1 12.02 1ZM12.02 0C5.38999 0 0.019989 5.37 0.019989 12C0.019989 18.63 5.38999 24 12.02 24C18.65 24 24.02 18.63 24.02 12C24.02 5.37 18.65 0 12.02 0Z" fill="white"/>
</svg>
