<?xml version="1.0" encoding="UTF-8"?>
<svg width="24px" height="24px" viewBox="0 0 24 24" version="1.1" xmlns="http://www.w3.org/2000/svg" xmlns:xlink="http://www.w3.org/1999/xlink">
    <!-- Generator: Sketch 63.1 (92452) - https://sketch.com -->
    <title>esports_hearthstone</title>
    <desc>Created with Sketch.</desc>
    <g id="Classifier" stroke="none" stroke-width="1" fill="none" fill-rule="evenodd">
        <g id="esports_hearthstone">
            <path d="M12,0 C18.627417,0 24,5.372583 24,12 C24,18.627417 18.627417,24 12,24 C5.372583,24 0,18.627417 0,12 C0,5.372583 5.372583,0 12,0 Z M12,1 C5.92486775,1 1,5.92486775 1,12 C1,18.0751322 5.92486775,23 12,23 C18.0751322,23 23,18.0751322 23,12 C23,5.92486775 18.0751322,1 12,1 Z" id="Oval" fill="#FFFFFF" fill-rule="nonzero"></path>
            <path d="M12,1 C5.92486775,1 1,5.92486775 1,12 C1,18.0751322 5.92486775,23 12,23 C18.0751322,23 23,18.0751322 23,12 C23,5.92486775 18.0751322,1 12,1 Z" id="Path-Copy" fill="#503F32" fill-rule="nonzero"></path>
            <path d="M14.6678275,12.1768546 C14.6118076,11.7388288 14.5403966,11.1803507 14.4692724,10.6235934 C14.375874,10.5137523 14.2549437,10.4132798 14.1873566,10.2847017 C13.8635693,9.66905659 13.3541325,9.38570687 12.6691795,9.322804 C12.2977849,9.28867584 11.9361412,9.14891292 11.5822408,9.05991205 C10.713359,9.23896537 10.3380449,10.1024937 9.63473724,10.4866984 C9.43838086,11.6826177 10.1320332,12.436305 10.9095242,13.1291926 C11.4305282,13.2217306 11.8800257,13.0086447 12.2966377,12.7892494 C12.4941413,12.6852398 12.581517,12.372255 12.6953731,12.1910029 C12.5621108,11.8535453 12.4591527,11.5927565 12.3557167,11.3310117 L11.5214411,11.3310117 C11.4341609,11.4069158 11.3591172,11.4722086 11.2836911,11.5376926 C11.4603545,11.7068038 11.5747842,11.8570824 11.20425,11.9467524 C11.1177346,11.7415055 11.0368595,11.5493554 10.9730963,11.3980252 C11.0743336,10.9095242 11.2409592,10.5330629 11.6571889,10.4167213 L12.771564,10.4167213 C13.3147465,10.9936496 13.0486043,11.6887359 13.124604,12.2958729 C12.8905823,12.5298946 12.7114334,12.7510106 12.4914645,12.9182099 C12.2282858,13.1182945 11.9366191,13.4029826 11.6459084,13.4172266 C11.1474653,13.4416038 10.8387824,13.8226538 10.3933956,13.9142358 C10.2579346,13.9420545 10.1490495,14.0992161 10.0104337,14.2114471 C10.4325904,14.7114198 11.0454632,14.5510079 11.3996504,14.7863679 C11.8150197,14.6832186 12.1566836,14.5382935 12.5024582,14.5277778 C12.9384765,14.5144898 13.2378865,14.3223397 13.5230526,14.0355485 C13.7099448,13.8476046 13.9226483,13.6851852 14.1679504,13.4732465 C14.1093494,13.0529062 14.4350486,12.7017781 14.6678275,12.1768546 M8.97091118,15.703813 C8.44914236,15.8878373 8.00585873,16.0442341 7.48265596,16.2287365 C7.51812247,16.0750164 7.52777778,15.9700508 7.5663034,15.877226 C7.70138206,15.5518136 7.71581722,15.1904567 7.91972577,14.8772807 C7.99763739,14.7575931 7.97717961,14.5130558 7.83818147,14.316795 C7.69402109,14.1132689 7.64679613,13.8411996 7.5432645,13.5617694 C6.72132088,13.0540533 5.87270567,12.529799 5,11.9908227 C5.26145799,11.418961 5.89813449,11.4434338 6.28434666,11.0953649 C6.64264449,10.772438 7.13296187,10.5958702 7.61926418,10.3247569 C7.54163935,9.80738556 8.1018382,9.53598547 8.22620999,9.00484814 C8.08080684,8.54942369 7.79267726,8.07765214 7.79392003,7.49384082 C8.46893095,7.6511936 9.02788703,8.05164973 9.52604337,7.9776576 C10.4736971,7.5663034 10.7776958,6.82427892 11.1423031,6.12030209 C11.3369387,5.74460559 11.5931389,5.40083852 11.8487654,5 C12.3231181,5.36001857 12.4462471,5.89889927 12.7482383,6.30901071 C13.0442068,6.7108052 13.2911341,7.14863979 13.5478122,7.55234623 C13.8182563,7.6838878 14.0723533,7.80749481 14.3852425,7.95987654 C14.858926,7.81934885 15.4001011,7.65884136 16.0222468,7.47433901 C15.9608735,7.79927346 15.9918469,8.13596635 15.8394652,8.32467497 C15.6194963,8.59683983 15.7877472,8.85954059 15.7082104,9.04719764 C15.9606823,9.54114771 16.1860046,9.98185021 16.406547,10.413471 C17.2055474,10.8905004 17.9958484,11.3622719 18.8679804,11.8830848 C18.5782257,12.1125178 18.3710669,12.3018956 18.1394352,12.4537993 C17.8432754,12.6480526 17.5396591,12.8399159 17.2171146,12.9828335 C16.727084,13.20003 16.3793975,13.5398776 16.1642085,14.0232164 C16.0592429,14.2588632 15.8885065,14.4944144 15.8788512,14.7352234 C15.8690047,14.9835846 16.0200481,15.2299383 16.0321889,15.5065006 C16.0415574,15.7192997 16.2014913,15.9253114 16.3322681,16.2195592 C15.8390828,16.0556102 15.4049765,15.911163 14.9246012,15.7514203 C14.8499399,15.7807686 14.7119933,15.8194854 14.5892467,15.8862122 C14.2156533,16.0892604 13.7965558,16.2474735 13.4916967,16.5280509 C13.1612176,16.8322408 12.9163935,17.2403447 12.6764449,17.629138 C12.4174724,18.0486179 12.2074456,18.498211 11.9414946,19 C11.8602371,18.8870043 11.7893997,18.8140637 11.7478149,18.727166 C11.3905687,17.9789277 10.8357233,17.3435895 10.5182454,16.5711652 C10.4777122,16.4727958 10.3456927,16.3806402 10.2370944,16.3470857 C9.78128756,16.20608 9.39316344,15.9320988 8.97091118,15.703813" id="Fill-1" fill="#DEBB69"></path>
        </g>
    </g>
</svg>