<?xml version="1.0" encoding="UTF-8"?>
<svg width="24px" height="24px" viewBox="0 0 24 24" version="1.1" xmlns="http://www.w3.org/2000/svg" xmlns:xlink="http://www.w3.org/1999/xlink">
    <!-- Generator: Sketch 55.1 (78136) - https://sketchapp.com -->
    <title>Flags/north_korea</title>
    <desc>Created with Sketch.</desc>
    <g id="Icons" stroke="none" stroke-width="1" fill="none" fill-rule="evenodd">
        <g id="Flags/north_korea">
            <g id="north_korea">
                <path d="M12,24 C5.372583,24 0,18.627417 0,12 C0,5.372583 5.372583,0 12,0 C18.627417,0 24,5.372583 24,12 C24,18.627417 18.627417,24 12,24 Z" id="Combined-Shape" fill="#41479B" fill-rule="nonzero"></path>
                <g id="Group" transform="translate(2.000000, 3.140625)" fill="#F5F5F5" fill-rule="nonzero">
                    <path d="M1.88703921,0.01734375 L18.1129608,0.01734375 C18.5396488,0.409057339 18.9379018,0.831254756 19.3042683,1.28048437 L0.695731652,1.28048438 C1.06209816,0.831254756 1.46035122,0.409057339 1.88703921,0.01734375 Z" id="Combined-Shape"></path>
                    <path d="M0.695616968,16.438125 L19.304383,16.438125 C18.9380288,16.8873534 18.5397886,17.3095507 18.113114,17.7012656 L1.88688603,17.7012656 C1.46021138,17.3095507 1.0619712,16.8873534 0.695616968,16.438125 Z" id="Combined-Shape"></path>
                </g>
                <path d="M2.69561697,4.42125 L21.304383,4.42125 C22.9894995,6.48756196 24,9.12577346 24,12 C24,14.8744439 22.9893467,17.512837 21.3040007,19.5792188 L2.69599926,19.5792187 C1.01065332,17.512837 0,14.8744439 0,12 C0,9.12577346 1.01050049,6.48756196 2.69561697,4.42125 Z" id="Combined-Shape" fill="#FF4B55" fill-rule="nonzero"></path>
                <circle id="Oval" fill="#F5F5F5" fill-rule="nonzero" cx="7.65046875" cy="12" r="5.05265625"></circle>
                <path d="M7.78504688,7.39996875 L8.798625,10.4391094 L12.00225,10.4639531 C12.1385156,10.4650313 12.1950469,10.6389375 12.0854063,10.7198906 L9.50821875,12.6230156 L10.4745938,15.6775313 C10.5157031,15.8074688 10.3677656,15.9149531 10.2569063,15.8356875 L7.65051563,13.9727344 L5.044125,15.8356875 C4.93326563,15.9149531 4.78532813,15.8074688 4.8264375,15.6775313 L5.7928125,12.6230156 L3.215625,10.7198906 C3.10598438,10.6389375 3.16251563,10.4650313 3.29878125,10.4639531 L6.50240625,10.4391094 L7.51598438,7.39996875 C7.5590625,7.2706875 7.74192188,7.2706875 7.78504688,7.39996875 Z" id="Shape" fill="#FF4B55" fill-rule="nonzero"></path>
                <circle id="Oval" stroke="#FFFFFF" cx="12" cy="12" r="11.5"></circle>
            </g>
        </g>
    </g>
</svg>