<?xml version="1.0" encoding="UTF-8"?>
<svg width="24px" height="24px" viewBox="0 0 24 24" version="1.1" xmlns="http://www.w3.org/2000/svg" xmlns:xlink="http://www.w3.org/1999/xlink">
    <!-- Generator: Sketch 55.1 (78136) - https://sketchapp.com -->
    <title>Flags/philippines</title>
    <desc>Created with Sketch.</desc>
    <g id="Icons" stroke="none" stroke-width="1" fill="none" fill-rule="evenodd">
        <g id="Flags/philippines">
            <g id="philippines">
                <g id="Group" transform="translate(0.500000, 0.500000)" fill-rule="nonzero">
                    <circle id="Oval" fill="#EEEEEE" cx="11.5" cy="11.5000076" r="11.5"></circle>
                    <path d="M11.5,7.56102675e-06 L11.5,11.5000076 L3.36914062,19.6308669 C6.65808717,22.9191111 11.6038283,23.9026625 15.9006245,22.1229826 C20.1974208,20.3433026 22.9992975,16.1507837 23,11.5000076 C23,5.14805444 11.5,7.56102675e-06 11.5,7.56102675e-06 Z" id="Path" fill="#D80027"></path>
                    <path d="M11.5,-6.21724894e-15 C8.44939939,-0.00349354724 5.52320833,1.20901656 3.36914062,3.36914819 L11.5,11.5 L23,11.5 C23,5.14873294 17.8512746,-6.21724894e-15 11.5,-6.21724894e-15 Z" id="Path" fill="#0052B4"></path>
                </g>
                <path d="M8.2171875,12 L6.75,11.3109375 L7.5328125,9.890625 L5.9390625,10.1953125 L5.7375,8.5875 L4.63125,9.76875 L3.515625,8.5875 L3.3140625,10.1953125 L1.7203125,9.890625 L2.503125,11.3109375 L1.0453125,12 L2.5078125,12.6890625 L1.734375,14.109375 L3.328125,13.8046875 L3.525,15.4125 L4.6359375,14.23125 L5.7421875,15.4125 L5.94375,13.8046875 L7.5375,14.109375 L6.7546875,12.6890625 L8.2171875,12 Z M3.2015625,4.696875 L3.6890625,5.3765625 L4.4859375,5.1234375 L3.9890625,5.7984375 L4.4765625,6.478125 L3.6796875,6.215625 L3.1875,6.890625 L3.196875,6.0515625 L2.4,5.7890625 L3.196875,5.5359375 L3.2015625,4.696875 Z M3.2015625,17.109375 L3.6890625,17.79375 L4.4859375,17.540625 L3.9890625,18.2109375 L4.4765625,18.8953125 L3.6796875,18.628125 L3.1875,19.303125 L3.196875,18.4640625 L2.4,18.2015625 L3.196875,17.9484375 L3.2015625,17.109375 Z M10.1578125,10.903125 L9.6703125,11.578125 L8.8734375,11.325 L9.365625,12 L8.878125,12.684375 L9.675,12.4171875 L10.171875,13.0921875 L10.1671875,12.253125 L10.9640625,11.990625 L10.1625,11.7375 L10.1578125,10.903125 Z" id="Shape" fill="#FFDA44" fill-rule="nonzero"></path>
                <circle id="Oval" stroke="#FFFFFF" cx="12" cy="12" r="11.5"></circle>
            </g>
        </g>
    </g>
</svg>