<svg width="24" height="24" viewBox="0 0 24 24" fill="none" xmlns="http://www.w3.org/2000/svg">
<path fill-rule="evenodd" clip-rule="evenodd" d="M24 12C24 5.37258 18.6274 0 12 0C5.37258 0 0 5.37258 0 12C0 18.6274 5.37258 24 12 24C18.6274 24 24 18.6274 24 12ZM1 12C1 5.92487 5.92487 1 12 1C18.0751 1 23 5.92487 23 12C23 18.0751 18.0751 23 12 23C5.92487 23 1 18.0751 1 12Z" fill="white"/>
<path d="M12 1C5.92487 1 1 5.92487 1 12C1 18.0751 5.92487 23 12 23C18.0751 23 23 18.0751 23 12C23 5.92487 18.0751 1 12 1Z" fill="#503F32"/>
<path fill-rule="evenodd" clip-rule="evenodd" d="M14.243 8.52631C12.4707 8.20001 10.4568 7.34257 7.94201 6C7.98441 6.51964 10.0392 8.64346 10.7996 9.21628C9.60513 8.93454 8.91803 8.62549 8.39121 8.27979C8.48967 8.56224 9.72444 9.95153 9.72444 9.95153C9.72444 9.95153 7.89601 9.29534 6.92214 8.03542C7.13991 8.92592 8.23309 11.2064 8.51411 11.7002C7.81911 11.2718 4.97297 8.56224 4.02281 6.28533C3.87835 6.81 4.18309 13.7924 12.2019 17.7511C9.27524 15.7437 8.98775 9.70429 14.243 8.52631ZM16.282 11.9891C16.8858 11.9891 17.3752 12.4786 17.3752 13.0823C17.3752 13.686 16.8858 14.1755 16.282 14.1755C15.6783 14.1755 15.1889 13.686 15.1889 13.0823C15.1889 12.4786 15.6783 11.9891 16.282 11.9891ZM14.8971 13.52C12.9723 13.5243 11.0339 14.3156 11.0339 14.3156C12.4196 19.2985 18.7861 18.2808 19.3431 14.243C18.9719 14.0073 17.7451 13.7174 17.5346 13.6677L17.5211 13.6645C17.2566 14.3882 15.6503 15.0573 14.8971 13.52ZM10.9973 13.5372C10.9973 13.5372 13.0959 12.5806 14.9697 12.6669C15.3592 11.3825 17.2933 11.3157 17.6304 12.848C17.8546 12.9163 19.2187 13.3425 19.4523 13.5013C19.185 8.07855 11.1583 7.92761 10.9973 13.5372ZM17.9588 10.8866C17.869 11.003 17.6117 10.9556 17.3846 10.7802C17.1574 10.6049 17.0468 10.3677 17.1373 10.2512C17.2272 10.1348 17.4845 10.1822 17.7116 10.3576C17.9387 10.533 18.0494 10.7702 17.9588 10.8866ZM10.3777 13.4632C10.3777 10.7953 12.5317 8.67293 15.1889 8.67293C17.846 8.67293 20 10.7953 20 13.4632C20 16.1311 17.846 18.2937 15.1889 18.2937C12.5317 18.2937 10.3777 16.1311 10.3777 13.4632ZM10.6925 13.4539C10.6925 15.9421 12.7057 17.9595 15.1889 17.9595C17.672 17.9595 19.6852 15.9428 19.6852 13.4539C19.6852 10.9649 17.672 8.98557 15.1889 8.98557C12.7057 8.98557 10.6925 10.9657 10.6925 13.4539Z" fill="#DEBB69"/>
</svg>
