<svg xmlns="http://www.w3.org/2000/svg" width="24" height="24"><g fill="none" fill-rule="evenodd"><g fill-rule="nonzero"><path fill="#F5F5F5" d="M23.5 12H.5a11.5 11.5 0 0 1 23 0Z"/><path fill="#82AFFF" d="M23.5 12a11.5 11.5 0 0 1-23 0h23Z"/></g><path fill="#B46446" fill-rule="nonzero" d="M12.06 17.15c-.1 0-2.63-.13-3.9-1.87-.74-1.01-.89-2.36-.44-4l.18.05c-.43 1.58-.3 2.87.41 3.84 1.21 1.66 3.73 1.8 3.76 1.8l-.01.18Z"/><g fill="#41AA5A" fill-rule="nonzero"><path d="M7.72 10.55c-.13.33-.1.67.05.92.28-.1.52-.33.65-.65a1.1 1.1 0 0 0-.05-.92c-.28.1-.53.33-.65.65Zm1.58 4.48a.99.99 0 0 0-.07.84.99.99 0 0 0 .52.58.99.99 0 0 0-.78-.05.99.99 0 0 0-.61.57.99.99 0 0 0 .83.07.99.99 0 0 0 .6-.57.99.99 0 0 0 .08-.83.99.99 0 0 0-.57-.6Zm-.54-.82a.99.99 0 0 0-.38.74.99.99 0 0 0 .27.74.99.99 0 0 0-.7-.34.99.99 0 0 0-.78.3c.16.21.43.36.74.38a.99.99 0 0 0 .78-.3.99.99 0 0 0 .37-.74.99.99 0 0 0-.3-.78Zm-.23-.94a.99.99 0 0 0-.63.55.99.99 0 0 0-.04.78.99.99 0 0 0-.52-.58.99.99 0 0 0-.84-.01.99.99 0 0 0 .55.63.99.99 0 0 0 .83.01.99.99 0 0 0 .63-.54.99.99 0 0 0 .02-.84Zm.13-.92a.99.99 0 0 0-.78.3.99.99 0 0 0-.3.71.99.99 0 0 0-.3-.72.99.99 0 0 0-.77-.3.99.99 0 0 0 .3.77c.21.23.5.33.77.3a.99.99 0 0 0 .77-.29.99.99 0 0 0 .3-.77Z"/><path d="M8.85 11.47a.99.99 0 0 0-.82.16.99.99 0 0 0-.42.66.99.99 0 0 0-.17-.76.99.99 0 0 0-.71-.43.99.99 0 0 0 .16.81c.18.26.45.41.71.43a1 1 0 0 0 .82-.16.99.99 0 0 0 .43-.71Z"/></g><path fill="#FFE15A" fill-rule="nonzero" d="M9.4 16.27c.24.38-.16.78-.54.54a.21.21 0 0 1-.06-.06c-.24-.38.16-.79.54-.54a.21.21 0 0 1 .06.06Zm.9.11c.24.38-.16.78-.54.54a.21.21 0 0 1-.06-.06c-.24-.38.16-.79.54-.54a.21.21 0 0 1 .06.06Zm-1.41-1.59c.24.38-.16.79-.54.54a.21.21 0 0 1-.07-.06c-.24-.38.16-.78.54-.54a.21.21 0 0 1 .07.06Zm-1.25-1.46c.25.37-.16.78-.53.53a.21.21 0 0 1-.07-.06c-.24-.38.16-.78.54-.54a.21.21 0 0 1 .06.06Zm.87-1c.24.38-.16.78-.54.54a.21.21 0 0 1-.06-.06c-.25-.38.16-.79.54-.54a.21.21 0 0 1 .06.06Zm-.33-1.02c.25.38-.16.78-.54.54a.21.21 0 0 1-.06-.06c-.24-.38.16-.79.54-.54a.21.21 0 0 1 .06.06Z"/><path fill="#B46446" fill-rule="nonzero" d="m12.07 17.15-.01-.19c.02 0 2.54-.13 3.76-1.8.7-.96.84-2.25.4-3.83l.18-.05c.45 1.64.3 2.99-.43 4-1.27 1.74-3.8 1.86-3.9 1.87Z"/><g fill="#41AA5A" fill-rule="nonzero"><path d="M16.4 10.55c.13.33.1.67-.04.92a1.1 1.1 0 0 1-.65-.65 1.1 1.1 0 0 1 .04-.92c.28.1.53.33.66.65Zm-1.58 4.48a.99.99 0 0 1 .08.84.99.99 0 0 1-.53.58.99.99 0 0 1 .79-.05c.3.1.51.32.6.57a.99.99 0 0 1-.82.07.99.99 0 0 1-.61-.57.99.99 0 0 1-.07-.83.99.99 0 0 1 .56-.6Zm.54-.82c.22.16.37.43.38.74a.99.99 0 0 1-.26.74.99.99 0 0 1 .7-.34.99.99 0 0 1 .78.3.99.99 0 0 1-.74.38.99.99 0 0 1-.78-.3.99.99 0 0 1-.37-.74.99.99 0 0 1 .3-.78Zm.24-.94a.99.99 0 0 1 .63.55.99.99 0 0 1 .03.78.99.99 0 0 1 .53-.58.99.99 0 0 1 .83-.01.99.99 0 0 1-.55.63.99.99 0 0 1-.83.01.99.99 0 0 1-.63-.54.99.99 0 0 1-.01-.84Zm-.13-.92a.99.99 0 0 1 .78.3.99.99 0 0 1 .3.71.99.99 0 0 1 .3-.72.99.99 0 0 1 .77-.3.99.99 0 0 1-.3.77.99.99 0 0 1-.77.3.99.99 0 0 1-.78-.29.99.99 0 0 1-.3-.77Z"/><path d="M15.28 11.47a.99.99 0 0 1 .82.16.99.99 0 0 1 .41.66.99.99 0 0 1 .17-.76.99.99 0 0 1 .72-.43c.07.25.02.56-.16.81a.99.99 0 0 1-.72.43.99.99 0 0 1-.81-.16.99.99 0 0 1-.43-.71Z"/></g><path fill="#FFE15A" fill-rule="nonzero" d="M15.08 16.27c-.24.38.16.78.54.54a.21.21 0 0 0 .07-.06c.24-.38-.16-.79-.54-.54a.21.21 0 0 0-.07.06Zm-.9.11c-.24.38.16.78.54.54a.21.21 0 0 0 .07-.06c.24-.38-.16-.79-.54-.54a.21.21 0 0 0-.07.06Zm1.42-1.59c-.24.38.16.79.54.54a.21.21 0 0 0 .06-.06c.24-.38-.16-.78-.54-.54a.21.21 0 0 0-.06.06Zm1.24-1.46c-.24.37.16.78.54.53a.21.21 0 0 0 .06-.06c.25-.38-.16-.78-.53-.54a.21.21 0 0 0-.07.06Zm-.87-1c-.24.38.16.78.54.54a.21.21 0 0 0 .07-.06c.24-.38-.16-.79-.54-.54a.21.21 0 0 0-.07.06Zm.33-1.02c-.24.38.16.78.54.54a.21.21 0 0 0 .06-.06c.25-.38-.15-.79-.53-.54a.21.21 0 0 0-.07.06Z"/><path fill="#8CD7FF" fill-rule="nonzero" d="M13.16 10.59h-2.24c-.7 0-1.26.56-1.26 1.26v1.97c0 .7.56 1.27 1.26 1.27h2.24c.7 0 1.27-.57 1.27-1.27v-1.97c0-.7-.57-1.26-1.27-1.26Z"/><path fill="#F5F5F5" fill-rule="nonzero" d="M12.41 12.3v.25h-.25v-.25h-.2v.25h-.24v-.25h-.16v.5l.13.16v1.84h.75v-1.84l.12-.16v-.5zm-.26-.79c.14-.06.18.2.18.2.3-.13.22-.35.15-.45-.1-.13-.48-.18-.65.1-.16.28.28.83.28.83.03-.17-.15-.6.04-.68Zm1.55 1.26v.25h-.25v-.25h-.2v.25h-.24v-.25h-.16v.5l.12.16v1.84h.75v-1.84l.13-.16v-.5zm-.27-.79c.15-.06.19.2.19.2.3-.14.22-.35.15-.45-.1-.14-.49-.19-.65.1-.16.27.28.83.28.83.02-.17-.15-.6.03-.68Zm-2.3.8v.24h-.25v-.25h-.2v.25h-.25v-.25h-.15v.5l.12.16v1.84h.75v-1.84l.13-.16v-.5zm-.27-.8c.15-.06.18.2.18.2.3-.14.23-.35.16-.45-.1-.14-.49-.19-.65.1-.17.27.28.83.28.83.02-.17-.15-.6.03-.68Z"/><path fill="#6EC86E" fill-rule="nonzero" d="M14.11 14.94a1.24 1.24 0 0 0-.55-.13c-.21 0-.4.05-.58.15a1.24 1.24 0 0 0-.92-.4c-.36 0-.68.15-.91.4a1.24 1.24 0 0 0-.59-.16c-.2 0-.38.06-.55.14.36.65 1.04 1.71 2.05 2.12 1.01-.4 1.7-1.47 2.05-2.12Z"/><g fill="#FFE15A" fill-rule="nonzero"><path d="m12.05 6.64.18-.09s-.06.02-.18.1Z"/><path d="m12.06 6.55.18.1c-.12-.08-.18-.1-.18-.1Zm2.4 1.07c-.07-.4-.6-.47-1.2-.51-.6-.04-.85-.39-.85-.39h-.7s-.25.35-.85.39c-.6.04-1.13.1-1.2.51-.07.41.45 1.05.45 1.05l.45-.37s-.55-.53-.28-.72c.27-.2 1.06-.06 1.4-.53a.67.67 0 0 0 .06.37c.11.28.07.63.07.63h.5s-.04-.35.08-.63a.67.67 0 0 0 .05-.37c.35.47 1.13.33 1.4.53.28.2-.28.72-.28.72l.46.37s.51-.64.44-1.05Zm-2.14-2.3h-.13v-.14a.13.13 0 1 0-.25 0v.14h-.14a.13.13 0 1 0 0 .25h.14v.36a.13.13 0 1 0 .25 0v-.36h.13a.13.13 0 1 0 0-.25Z"/></g><path fill="#FFF0E1" fill-rule="nonzero" d="M12.49 5.94c.24.38-.16.78-.54.54a.2.2 0 0 1-.06-.06c-.25-.38.16-.79.54-.54a.2.2 0 0 1 .06.06Z"/><g fill="#FFC75A" fill-rule="nonzero"><path d="M10.27 11.09c.1.05.22.09.34.09.41 0 .62-.23.62-.65 0-.41-.25-.73-.67-.73l-.12.02h-.05c-.4.08-1.38.45-1.58 2.24-.28 2.5 1.75 4.75 3.25 5.25v-.25s-3.54-2.71-1.79-5.97Z"/><path d="m10.56 10.05 1.5.5-1.5.5z"/></g><path fill="#FFE15A" fill-rule="nonzero" d="m13.56 11.05-1.5-.5 1.5-.5zm-4.5 1.03c.18-1.61 1.02-1.94 1.39-2.01h.03a.45.45 0 0 1 .54.44c0 .28-.16.38-.32.39 0 0 .13-.27-.14-.35-.18-.05-.4.1-.38.36a.4.4 0 0 0 .38.36c.42 0 .75-.3.75-.72a.75.75 0 0 0-.75-.75s-.05 0-.12.02h-.05c-.4.08-1.38.45-1.58 2.24-.28 2.5 1.75 4.75 3.25 5.25v-.25s-.53-.27-.9-.53c-1.11-.8-2.3-2.62-2.1-4.45Z"/><g fill="#FFC75A" fill-rule="nonzero"><path d="M13.86 11.09a.78.78 0 0 1-.34.09c-.42 0-.62-.23-.62-.65 0-.41.25-.73.66-.73l.13.02h.04c.4.08 1.39.45 1.58 2.24.28 2.5-1.75 4.75-3.25 5.25v-.25s3.55-2.71 1.8-5.97Z"/><path d="m13.56 10.05-1.5.5 1.5.5z"/></g><path fill="#FFE15A" fill-rule="nonzero" d="M15.06 12.08c-.18-1.61-1.02-1.94-1.38-2.01h-.03a.45.45 0 0 0-.55.44c0 .28.17.38.33.39 0 0-.13-.27.13-.35.18-.05.4.1.39.36a.4.4 0 0 1-.39.36c-.41 0-.75-.3-.75-.72a.75.75 0 0 1 .88-.73h.04c.4.08 1.39.45 1.58 2.24.28 2.5-1.75 4.75-3.25 5.25v-.25s.53-.27.9-.53a5.23 5.23 0 0 0 2.1-4.45Zm-2.57-1.64c.24.38-.16.79-.54.54a.2.2 0 0 1-.06-.06c-.25-.38.16-.79.54-.54a.2.2 0 0 1 .06.06Z"/><path fill="#FFC75A" fill-rule="nonzero" d="M13.85 8.55c.07-.18-.02-.4-.02-.4a.56.56 0 0 0-.4.15.84.84 0 0 0-.07-.4c-.3.04-.4.22-.4.22 0-.32-.2-.46-.2-.46-.26.08-.34.36-.34.36-.04-.32-.36-.47-.36-.47s-.32.15-.36.47c0 0-.07-.28-.33-.36 0 0-.2.14-.21.46 0 0-.1-.18-.4-.21 0 0-.09.19-.07.4 0 0-.16-.17-.39-.17 0 0-.09.23-.02.4 0 0-.26-.08-.48.05 0 0 .4.15.53.34h3.47c.13-.19.53-.34.53-.34-.22-.13-.48-.04-.48-.04Z"/><path fill="#FFE15A" fill-rule="nonzero" d="M13.8 8.93c0 .11-.26.46-.26.46s-.85.12-1.48.12c-.62 0-1.48-.12-1.48-.12s-.25-.35-.25-.46c0-.32.77-.58 1.73-.58s1.74.26 1.74.58Z"/><g fill="#FFC75A" fill-rule="nonzero" transform="translate(10.55 6.23)"><ellipse cx="1.52" cy="3.32" rx="1.5" ry="1"/><path d="M1.88.33c0-.18-.12-.42-.36-.26-.25-.16-.37.08-.37.26 0 .19-.19.22-.21.2 0 0 .15.23.33.08 0 0 .1.16.25.16S1.76.6 1.76.6c.18.15.33-.08.33-.08-.02.02-.2-.01-.2-.2Z"/></g><g fill="#B46446" fill-rule="nonzero"><path d="M11.57 18.65a.1.1 0 0 1-.04-.01c-.05-.02-.07-.08-.05-.13l.55-1a.1.1 0 0 1 .13-.04c.05.02.07.08.05.13l-.55 1a.1.1 0 0 1-.09.05Z"/><path d="M12.62 18.65a.1.1 0 0 1-.1-.05l-.54-1c-.03-.05 0-.1.04-.13a.1.1 0 0 1 .14.04l.55 1c.02.05 0 .1-.05.13a.1.1 0 0 1-.04.01Z"/></g><g fill="#F5F5F5" fill-rule="nonzero"><path d="M14.31 17.77c-1.48.34-3.02.34-4.5 0v-.96c1.48.33 3.02.33 4.5 0v.96Z"/><path d="M11.05 17.41c-.96.18-1.94.24-2.91.14.01.13.79.52.79.52s-.68.33-.67.44c.93.1 1.87.05 2.8-.12v-.98Zm2.03 0c.95.18 1.93.24 2.91.14-.02.13-.79.52-.79.52s.68.33.67.44c-.94.1-1.88.05-2.8-.12v-.98Z"/></g><circle cx="12" cy="12" r="11.5" stroke="#FFF"/></g></svg>