<svg width="24" height="24" viewBox="0 0 24 24" fill="none" xmlns="http://www.w3.org/2000/svg">
<path d="M12 24C18.6274 24 24 18.6274 24 12C24 5.37258 18.6274 0 12 0C5.37258 0 0 5.37258 0 12C0 18.6274 5.37258 24 12 24Z" fill="white"/>
<path d="M12 0C18.6274 0 24 5.37258 24 12C24 18.6274 18.6274 24 12 24C5.37258 24 0 18.6274 0 12C0 5.37258 5.37258 0 12 0ZM12 1C5.92487 1 1 5.92487 1 12C1 18.0751 5.92487 23 12 23C18.0751 23 23 18.0751 23 12C23 5.92487 18.0751 1 12 1Z" fill="white"/>
<path d="M12 1C5.92487 1 1 5.92487 1 12C1 18.0751 5.92487 23 12 23C18.0751 23 23 18.0751 23 12C23 5.92487 18.0751 1 12 1Z" fill="#503F32"/>
<path fill-rule="evenodd" clip-rule="evenodd" d="M15.9997 14C16.4198 14 16.8094 14.1316 17.1319 14.3537C16.6927 14.7632 16.4007 15.3864 16.4007 16.0004C16.4007 16.6115 16.6836 17.2149 17.1341 17.6435C16.8116 17.867 16.4212 18 15.9997 18C15.5788 18 15.1884 17.867 14.8659 17.6435C15.3165 17.2149 15.5994 16.6115 15.5994 16.0004C15.5994 15.3857 15.3073 14.7632 14.8688 14.3537C15.1906 14.1316 15.5803 14 15.9997 14ZM14.3126 6C15.2945 6 16.2181 6.38098 16.9143 7.07362C18.357 8.50764 18.3625 10.8478 16.9274 12.2893L15.8397 13.3822C15.1421 14.0831 14.213 14.4695 13.2243 14.4695C12.3591 14.4695 11.5488 14.1586 10.8903 13.6142L9.98121 14.5272C10.0567 14.7482 10.0128 15.0015 9.8377 15.178L7.21469 17.814C7.09522 17.9334 6.9366 17.9993 6.767 18C6.5974 18 6.43809 17.9348 6.31862 17.816L6.18678 17.6842C6.06662 17.5655 6.0007 17.4062 6.00001 17.2373C5.99932 17.0678 6.06524 16.9092 6.18472 16.7891L8.80772 14.1538C8.92651 14.0336 9.08582 13.9677 9.25473 13.9677C9.34674 13.9677 9.43257 13.989 9.5136 14.0247L10.4035 13.1296C9.20186 11.6853 9.25748 9.5387 10.6088 8.1802L11.6965 7.08667C12.3948 6.38648 13.3231 6 14.3126 6ZM17.4505 14.6314C17.7885 14.9901 18 15.4696 18 16.0001C18 16.5292 17.7892 17.0074 17.4533 17.366C17.0672 17.0152 16.8246 16.5108 16.8246 16.0001C16.8246 15.4838 17.0756 14.9589 17.4505 14.6314ZM14.5495 14.6314C14.9244 14.9589 15.1754 15.4837 15.1754 16.0001C15.1754 16.5108 14.9329 17.0151 14.5467 17.3659C14.2108 17.0073 14 16.5292 14 16.0001C14 15.4696 14.2108 14.99 14.5495 14.6314ZM14.9072 6.74755L14.0228 7.63652L13.2648 6.8821C13.135 6.93084 13.0114 6.99468 12.8885 7.06127C12.8967 7.07637 12.8947 7.09628 12.9084 7.10932L13.7324 7.92827L12.7422 8.92295L11.785 7.97151L11.4946 8.26326L12.4518 9.21538L11.4465 10.2252L10.6225 9.40553C10.6109 9.39386 10.5937 9.3966 10.5807 9.38836C10.5147 9.51399 10.4529 9.63961 10.4056 9.77141L11.1561 10.5176L10.2875 11.3908C10.3142 11.5233 10.3582 11.6523 10.4035 11.7807C10.4509 11.7766 10.4976 11.7635 10.5326 11.7271L11.4479 10.808L12.1812 11.537L10.9755 12.7493C11.0215 12.8014 11.0572 12.8598 11.1066 12.9092C11.1568 12.9593 11.2151 12.9943 11.2673 13.0396L12.4737 11.828L13.2071 12.5577L12.2774 13.492C12.2465 13.5229 12.2382 13.5641 12.2314 13.6039C12.3625 13.6499 12.4943 13.6945 12.6303 13.722L13.4989 12.8481L14.2494 13.5943C14.3751 13.5483 14.4946 13.4893 14.6133 13.4268C14.6044 13.3959 14.6017 13.363 14.577 13.3389L13.7901 12.5557L14.7946 11.5459L15.7518 12.498L16.0423 12.2056H16.0416L15.0858 11.2542L16.0752 10.2588L16.8999 11.0791C16.9136 11.0922 16.9322 11.0901 16.9473 11.0983C17.0132 10.9748 17.0764 10.8505 17.1244 10.7208L16.3664 9.96705L17.2501 9.07877C17.2233 8.94903 17.18 8.82272 17.1354 8.69641C17.0825 8.69641 17.029 8.71632 16.9885 8.75682L16.0739 9.67668L15.3405 8.94697L16.5614 7.72027C16.5161 7.6681 16.4804 7.60975 16.4302 7.56032C16.3801 7.51021 16.3224 7.4752 16.2689 7.4299L15.048 8.6566L14.3147 7.92689L15.2451 6.99193C15.2801 6.95692 15.2945 6.90956 15.2979 6.86288C15.1688 6.81826 15.0398 6.77433 14.9072 6.74755ZM13.7695 10.5262L14.5028 11.2553L13.4975 12.265L12.7642 11.536L13.7695 10.5262ZM12.7437 9.50582L13.477 10.2355L12.4718 11.2453L11.7384 10.5156L12.7437 9.50582ZM15.0501 9.23913L15.7828 9.96883L14.7933 10.9635L14.06 10.2345L15.0501 9.23913ZM14.0244 8.21939L14.7578 8.94841L13.7676 9.94378L13.0336 9.21407L14.0244 8.21939Z" fill="#DEBB69"/>
</svg>
