<?xml version="1.0" encoding="UTF-8"?>
<svg width="24px" height="24px" viewBox="0 0 24 24" version="1.1" xmlns="http://www.w3.org/2000/svg" xmlns:xlink="http://www.w3.org/1999/xlink">
    <!-- Generator: Sketch 55.1 (78136) - https://sketchapp.com -->
    <title>Flags/new_zealand</title>
    <desc>Created with Sketch.</desc>
    <g id="Icons" stroke="none" stroke-width="1" fill="none" fill-rule="evenodd">
        <g id="Flags/new_zealand">
            <g id="new_zealand">
                <path d="M23.5,12 C23.5,18.3512746 18.3512746,23.5 12,23.5 C5.64872538,23.5 0.5,18.3512746 0.5,12 L12,0.5 C18.3512746,0.5 23.5,5.64872538 23.5,12 Z" id="Path" fill="#0052B4" fill-rule="nonzero"></path>
                <path d="M12,0 C5.372583,0 0,5.372583 0,12 L6.2625,12 L6.2625,8.475 L9.7875,12 L12,12 L12,9.7875 L8.475,6.2625 L12,6.2625 L12,0 Z M17.896875,4.2890625 L17.3671875,5.9296875 L15.646875,5.9296875 L17.0390625,6.9328125 L16.509375,8.5734375 L17.896875,7.55625 L19.2890625,8.56875 L18.75,6.9375 L20.1421875,5.9296875 L18.421875,5.9296875 L17.8921875,4.29375 L17.896875,4.2890625 Z M20.7703125,7.6875 L20.240625,9.328125 L18.5203125,9.328125 L19.9125,10.33125 L19.3828125,11.971875 L20.7703125,10.9546875 L22.1625,11.9671875 L21.628125,10.33125 L23.0203125,9.3234375 L21.3,9.3234375 L20.7703125,7.6875 Z M15.0140625,8.1703125 L14.484375,9.80625 L12.7640625,9.80625 L14.15625,10.8140625 L13.6265625,12.45 L15.0140625,11.4375 L16.40625,12.45 L15.871875,10.809375 L17.2640625,9.8015625 L15.54375,9.8015625 L15.0140625,8.1703125 L15.0140625,8.1703125 Z M17.784375,14.25 L17.2546875,15.8859375 L15.534375,15.8859375 L16.9265625,16.89375 L16.396875,18.5296875 L17.784375,17.5171875 L19.1765625,18.5296875 L18.6421875,16.8890625 L20.034375,15.88125 L18.3140625,15.88125 L17.784375,14.25 Z" id="Shape" fill="#EEEEEE" fill-rule="nonzero"></path>
                <path d="M6.0703125,1.565625 C4.19201718,2.63613481 2.63613481,4.19201718 1.565625,6.0703125 L1.565625,12 L4.696875,12 L4.696875,4.696875 L12,4.696875 L12,1.565625 L6.0703125,1.565625 Z M17.896875,5.475 L17.634375,6.290625 L16.771875,6.290625 L17.4703125,6.796875 L17.203125,7.6125 L17.896875,7.10625 L18.5953125,7.6125 L18.328125,6.796875 L19.021875,6.290625 L18.1640625,6.290625 L17.896875,5.475 L17.896875,5.475 Z M6.2625,6.2625 L12,12 L12,10.5234375 L7.734375,6.2578125 L6.2625,6.2578125 L6.2625,6.2625 Z M20.765625,8.8734375 L20.503125,9.6890625 L19.640625,9.6890625 L20.3390625,10.1953125 L20.071875,11.0109375 L20.765625,10.5046875 L21.46875,11.015625 L21.2015625,10.2 L21.8953125,9.69375 L21.0375,9.69375 L20.7703125,8.878125 L20.765625,8.8734375 Z M15.009375,9.3515625 L14.746875,10.171875 L13.884375,10.171875 L14.5828125,10.6734375 L14.315625,11.49375 L15.009375,10.9875 L15.7078125,11.49375 L15.440625,10.6734375 L16.134375,10.171875 L15.28125,10.171875 L15.0140625,9.3515625 L15.009375,9.3515625 Z M17.7796875,15.43125 L17.5171875,16.2515625 L16.6546875,16.2515625 L17.353125,16.753125 L17.0859375,17.5734375 L17.7796875,17.0671875 L18.4734375,17.5734375 L18.2109375,16.753125 L18.9046875,16.2515625 L18.046875,16.2515625 L17.7796875,15.43125 Z" id="Shape" fill="#D80027" fill-rule="nonzero"></path>
                <circle id="Oval" stroke="#FFFFFF" cx="12" cy="12" r="11.5"></circle>
            </g>
        </g>
    </g>
</svg>