<svg width="24" height="24" viewBox="0 0 24 24" fill="none" xmlns="http://www.w3.org/2000/svg">
<circle cx="12" cy="12" r="12" fill="white"/>
<circle cx="12" cy="12" r="11" fill="#503F32"/>
<path d="M20.5931 9.21982L14.9487 8.39658L12.4263 3.26539C12.2526 2.9117 11.7479 2.9117 11.5741 3.26539L9.05128 8.39658L3.40687 9.21982C3.01804 9.27631 2.86232 9.75392 3.14338 10.0288L7.22915 14.0267L6.26492 19.6697C6.19845 20.0576 6.60627 20.3534 6.95427 20.1696L12 17.5067L17.0457 20.1696C17.3937 20.3534 17.8016 20.0581 17.7351 19.6697L16.7709 14.0267L20.8566 10.0288C21.1377 9.75392 20.982 9.27631 20.5931 9.21982ZM12.0427 17.4526C9.27868 17.4763 7.03355 15.2307 7.05729 12.4672C7.08008 9.78383 9.27299 7.59044 11.9568 7.56766C14.7208 7.54392 16.966 9.78953 16.9422 12.5531C16.9195 15.2364 14.7265 17.4298 12.0427 17.4526Z" fill="#DEBB69"/>
<path d="M11.9145 17.7859C14.9495 17.7859 17.4099 15.3672 17.4099 12.3836C17.4099 9.40001 14.9495 6.98132 11.9145 6.98132C8.87956 6.98132 6.41921 9.40001 6.41921 12.3836C6.41921 15.3672 8.87956 17.7859 11.9145 17.7859Z" fill="#503F32"/>
<path fill-rule="evenodd" clip-rule="evenodd" d="M8.96344 8.66433C10.0544 7.7979 11.3657 7.40432 13.0146 7.73855C12.6096 7.7395 12.3836 7.89285 12.2084 8.08987C12.1334 8.15207 12.029 8.16109 11.9141 8.15112C11.3605 8.1402 10.8729 8.33912 10.4072 8.60641C10.3345 8.64059 10.2557 8.63062 10.1741 8.60214C9.76531 8.47348 9.36177 8.49864 8.96344 8.66433ZM11.0429 11.1796L9.87735 10.2296L9.87688 10.2305C9.81279 10.1584 9.81943 10.0421 9.85599 9.90724C9.93243 9.5768 10.0302 9.23878 10.2467 8.85802C10.3037 8.73696 10.4319 8.63773 10.6161 8.5556C11.0723 8.33389 11.5271 8.20665 11.9805 8.20143C12.1063 8.19241 12.2241 8.2152 12.3347 8.2641C12.8038 8.50622 13.1769 8.81149 13.4746 9.16661C13.5235 9.2326 13.542 9.30667 13.5415 9.3869C13.4803 9.77098 13.3483 10.1783 13.1722 10.5999C13.1404 10.674 13.0763 10.7271 12.9742 10.7552C12.4149 10.8216 11.8538 10.9759 11.2902 11.1976C11.2067 11.2366 11.1245 11.2347 11.0429 11.1796ZM10.9854 11.2579L9.82893 10.3231C9.76056 10.2885 9.69315 10.2837 9.62716 10.3032C9.18563 10.4836 8.79396 10.7371 8.44501 11.0519C8.33439 11.1369 8.26128 11.2513 8.21095 11.3842C8.04194 11.9516 7.98069 12.5013 8.05191 13.0302C8.06093 13.1385 8.09321 13.2391 8.1554 13.3303C8.49248 13.7177 8.8609 13.9807 9.24782 14.1701C9.33708 14.2261 9.43298 14.2418 9.53933 14.1962L10.7913 13.4836C10.8672 13.4366 10.9047 13.3635 10.91 13.2676C10.947 12.5873 10.9916 11.9544 11.0609 11.491C11.0856 11.3994 11.0529 11.3239 10.9854 11.2579ZM11.0695 13.57C11.5271 13.8378 12.0532 14.0386 12.6319 14.1886C12.7549 14.2014 12.8313 14.2632 12.8607 14.3743L13.0877 15.6229C13.0915 15.7411 13.0563 15.8189 12.996 15.8702C12.5821 16.278 12.1192 16.5088 11.6145 16.59C11.4735 16.5909 11.2233 16.523 10.9698 16.4532C10.552 16.3284 10.1855 16.1551 9.87118 15.9319C9.78335 15.8417 9.72543 15.7064 9.68365 15.5479C9.57066 15.1704 9.50989 14.7977 9.49612 14.4289C9.51416 14.3458 9.56591 14.2722 9.69647 14.2223L10.8644 13.5548C10.9318 13.5316 11.0002 13.5392 11.0695 13.57ZM14.2233 12.6608C14.18 12.6284 14.1506 12.5826 14.1298 12.5284C13.8791 11.9824 13.5928 11.4835 13.2662 11.0372C13.2315 10.9508 13.2249 10.8634 13.2804 10.7751C13.4414 10.3944 13.5624 10.0017 13.6346 9.59486C13.6593 9.53837 13.6949 9.49659 13.7409 9.47095L13.74 9.47238C14.0899 9.39594 14.464 9.39926 14.8799 9.53837C15.0081 9.5678 15.1253 9.64566 15.2284 9.78287C15.6253 10.2135 15.9044 10.7291 16.0834 11.3168C16.1014 11.7061 15.9395 12.1495 15.695 12.6177C15.6719 12.6644 15.6395 12.7002 15.5954 12.7222C15.6169 12.7416 15.6323 12.7665 15.6419 12.7966C15.7587 13.2187 15.8299 13.6488 15.8299 14.0918C15.8356 14.2532 15.6965 14.5395 15.4714 14.9012C15.2554 15.2454 14.9896 15.5132 14.6924 15.7325C14.3657 15.8987 13.937 15.903 13.4319 15.7866C13.2947 15.7677 13.1897 15.7074 13.1708 15.5383L12.9547 14.3339C12.9424 14.2456 12.9728 14.1578 13.0649 14.0704L13.3436 13.768C13.3436 13.768 13.7647 13.2605 13.8511 13.1418C13.9375 13.0231 14.1402 12.7249 14.1402 12.7249C14.1651 12.6982 14.1925 12.6762 14.2233 12.6608ZM7.57762 14.2926C6.93195 12.7663 7.05254 11.2883 7.90378 9.85599C7.81975 10.2073 7.83067 10.4414 7.88384 10.6237C7.93464 10.8207 8.01393 11.0011 8.12265 11.1649C8.15825 11.2076 8.16917 11.2755 8.16442 11.3591C8.07137 11.6363 8.00633 11.9055 7.97879 12.1638C7.94414 12.4515 7.94936 12.7458 8.00633 13.0487C8.03007 13.1366 7.99209 13.2149 7.93132 13.2904C7.72195 13.5487 7.58 13.8625 7.57762 14.2926ZM8.53996 15.7173L8.54168 15.719L8.53996 15.7178V15.7173ZM8.54168 15.719C8.92802 15.9806 9.31153 16.0486 9.69315 15.9941C9.77101 15.977 9.84555 15.9856 9.91581 16.0207C10.3421 16.3089 10.8141 16.523 11.36 16.6151C11.4735 16.6203 11.5433 16.6773 11.586 16.7666C11.6886 16.9384 11.8115 17.0752 11.9725 17.1468C10.6923 17.1559 9.5487 16.6797 8.54168 15.719ZM16.5249 13.6844C16.1095 15.0883 15.2597 15.9785 14.1744 16.5899H14.1739C14.3952 16.4143 14.5637 16.2073 14.6762 15.9671C14.7194 15.8332 14.793 15.7192 14.9141 15.6371C15.1837 15.4391 15.4197 15.1832 15.6006 14.8319L15.7701 14.4811C15.79 14.3994 15.8479 14.3277 15.9452 14.2669C16.2087 14.1316 16.4015 13.9375 16.5249 13.6844ZM16.6621 11.7175C16.4708 10.2918 15.7572 9.24638 14.671 8.47205C14.953 8.73554 15.1011 9.03606 15.1458 9.36459C15.17 9.45717 15.2037 9.53503 15.2635 9.57301C15.667 10.0074 15.9272 10.4428 16.0658 10.8791C16.101 10.9807 16.1508 11.0486 16.2154 11.0832C16.3721 11.1668 16.5221 11.3591 16.6617 11.7175H16.6621Z" fill="#DEBB69"/>
</svg>
