<svg width="24" height="24" viewBox="0 0 24 24" fill="none" xmlns="http://www.w3.org/2000/svg">
<path d="M12 24C18.6274 24 24 18.6274 24 12C24 5.37258 18.6274 0 12 0C5.37258 0 0 5.37258 0 12C0 18.6274 5.37258 24 12 24Z" fill="white"/>
<path d="M12 0C18.6274 0 24 5.37258 24 12C24 18.6274 18.6274 24 12 24C5.37258 24 0 18.6274 0 12C0 5.37258 5.37258 0 12 0ZM12 1C5.92487 1 1 5.92487 1 12C1 18.0751 5.92487 23 12 23C18.0751 23 23 18.0751 23 12C23 5.92487 18.0751 1 12 1Z" fill="white"/>
<path d="M12 1C5.92487 1 1 5.92487 1 12C1 18.0751 5.92487 23 12 23C18.0751 23 23 18.0751 23 12C23 5.92487 18.0751 1 12 1Z" fill="#503F32"/>
<path fill-rule="evenodd" clip-rule="evenodd" d="M10.0977 15.3588L12.7432 17.9447C12.5146 17.9776 12.2902 18 12.0781 18C11.4017 18 10.8284 17.8355 10.4685 17.5266C10.0991 17.2103 9.94878 16.3632 10.0977 15.3588ZM14.4623 10.3931L17.7612 13.6172C17.4899 14.5032 16.9836 15.431 16.1904 16.2051C15.4744 16.9043 14.6523 17.3859 13.8473 17.673L13.5798 17.7616L10.2813 14.5375C10.5469 13.6416 11.0405 12.7023 11.8221 11.939C12.6131 11.1666 13.559 10.6627 14.4623 10.3931ZM13.9415 12.5124C13.8802 12.5705 13.8673 12.6578 13.9033 12.7281L13.9394 12.7769L14.5307 13.3551L14.0537 13.8105L13.5015 13.271C13.4267 13.1977 13.3029 13.1964 13.2267 13.2689C13.1651 13.3267 13.1521 13.4142 13.1881 13.4846L13.2242 13.5334L13.7774 14.0739L13.3082 14.5219L12.7479 13.9743C12.6727 13.9007 12.5492 13.899 12.4727 13.9719C12.4114 14.0297 12.3985 14.1172 12.4344 14.1875L12.4706 14.2364L13.0319 14.7854L12.6597 15.1407C12.5835 15.213 12.5831 15.3316 12.659 15.4049C12.6967 15.4418 12.7468 15.4601 12.7966 15.4601C12.8297 15.4601 12.8629 15.4522 12.8925 15.4361L12.9338 15.4059L13.305 15.0519L13.8995 15.6338C13.938 15.6707 13.9881 15.6897 14.0385 15.6897C14.0879 15.6897 14.137 15.6717 14.1751 15.6358C14.2363 15.578 14.2492 15.4905 14.2133 15.4201L14.1772 15.3713L13.5809 14.7884L14.0502 14.3408L14.6539 14.9305C14.692 14.9678 14.7424 14.9864 14.7929 14.9864C14.8419 14.9864 14.8913 14.9688 14.9291 14.9329C14.9906 14.8751 15.0034 14.7876 14.9675 14.7172L14.9315 14.6684L14.3264 14.077L14.8038 13.6219L15.3687 14.1743C15.4071 14.2116 15.4572 14.2303 15.5077 14.2303C15.5571 14.2303 15.6061 14.2126 15.6442 14.1767C15.7055 14.1186 15.7184 14.0313 15.6825 13.961L15.6464 13.9122L15.0797 13.3581L15.5017 12.9556C15.5779 12.8831 15.5786 12.7644 15.5028 12.6911C15.4421 12.6328 15.3511 12.6205 15.2782 12.6552L15.2276 12.6901L14.807 13.0916L14.2167 12.5148C14.1416 12.4412 14.0177 12.4402 13.9415 12.5124ZM9.84629 10.2994L9.84626 13.787C9.81835 13.8688 9.79237 13.9505 9.76826 14.0318L9.828 14.089L9.58975 14.0681C8.74242 13.964 7.97574 13.6066 7.36896 13.0734C8.07628 12.3841 8.50953 11.5015 8.62057 10.5411L8.64159 10.2994H9.84629ZM16.0018 10.1535C16.6813 10.1535 17.2388 10.3152 17.544 10.617C17.909 10.9772 18.0671 11.7172 17.9737 12.5943L17.9477 12.7991L15.3014 10.2125C15.5435 10.1772 15.7806 10.1535 16.0018 10.1535ZM8.22985 10.2995C8.1681 11.2452 7.76619 12.1182 7.0761 12.7889C6.50814 12.1802 6.12785 11.4009 6.02204 10.5371L6.00005 10.2995H8.22985ZM11.552 10.2995C11.5683 10.5736 11.6103 10.8424 11.6772 11.1031C11.5518 11.2059 11.4287 11.3165 11.3091 11.4333C10.926 11.8074 10.6122 12.2238 10.3604 12.6566L10.3612 10.2995H11.552ZM12.9113 10.2984C12.6212 10.4432 12.3345 10.6132 12.0575 10.8097L12.0345 10.8258C12.0148 10.73 11.9987 10.633 11.9863 10.5352L11.9637 10.2995L12.9113 10.2984ZM9.84671 6V9.7922H8.63995C8.57202 8.78517 8.11041 7.72133 7.41363 6.97811C8.07439 6.41397 8.91886 6.05682 9.84671 6ZM7.11722 7.25835C7.69178 7.8736 8.08991 8.72757 8.20421 9.5647L8.22826 9.7924H6C6.06175 8.81226 6.47396 7.92801 7.11722 7.25835ZM13.0838 7.25054C13.6772 7.86532 14.0752 8.66213 14.1849 9.54835L14.2077 9.7922H11.9655C12.0324 8.88156 12.4534 7.92172 13.0838 7.25054ZM10.3611 6C11.2853 6.05631 12.1267 6.41093 12.7865 6.97101C12.14 7.65752 11.6943 8.61983 11.5761 9.55826L11.5535 9.7922H10.3611V6Z" fill="#DEBB69"/>
</svg>
