<?xml version="1.0" encoding="UTF-8"?>
<svg width="24px" height="24px" viewBox="0 0 24 24" version="1.1" xmlns="http://www.w3.org/2000/svg" xmlns:xlink="http://www.w3.org/1999/xlink">
    <!-- Generator: Sketch 63.1 (92452) - https://sketch.com -->
    <title>esports_callofduty</title>
    <desc>Created with Sketch.</desc>
    <g id="Classifier" stroke="none" stroke-width="1" fill="none" fill-rule="evenodd">
        <g id="esports_callofduty">
            <path d="M12,0 C18.627417,0 24,5.372583 24,12 C24,18.627417 18.627417,24 12,24 C5.372583,24 0,18.627417 0,12 C0,5.372583 5.372583,0 12,0 Z M12,1 C5.92486775,1 1,5.92486775 1,12 C1,18.0751322 5.92486775,23 12,23 C18.0751322,23 23,18.0751322 23,12 C23,5.92486775 18.0751322,1 12,1 Z" id="Oval" fill="#FFFFFF" fill-rule="nonzero"></path>
            <path d="M12,1 C5.92486775,1 1,5.92486775 1,12 C1,18.0751322 5.92486775,23 12,23 C18.0751322,23 23,18.0751322 23,12 C23,5.92486775 18.0751322,1 12,1 Z" id="Path-Copy" fill="#503F32" fill-rule="nonzero"></path>
            <path d="M11.6986276,7.01424798 L11.6986276,17 C11.028243,16.7234944 10.3916849,16.4609883 9.75675969,16.1991217 L9.75675969,7.01424798 L11.6986276,7.01424798 Z M13.1788392,7.0050027 C13.5057498,6.99967299 13.832816,7.0038657 14.178856,7.0038657 L14.178856,16.196272 C13.5548175,16.4564331 12.9300014,16.7169496 12.3116395,16.9748366 C12.283723,16.9609794 12.2646713,16.954868 12.250752,16.943569 C12.2364438,16.9319857 12.2170811,16.9151438 12.2170811,16.900647 C12.2156036,13.6209543 12.2156807,10.3412615 12.2156807,7.0204944 C12.5324052,6.98226259 12.8570608,7.01026135 13.1788392,7.0050027 Z M16.9246488,7.02008935 L16.9246488,8.51475432 C16.9246488,8.53358598 16.9316474,8.5555444 16.9236379,8.57082291 C16.4696645,9.43466294 16.7542727,10.3552111 16.6785327,11.2479027 C16.6658575,11.3977742 16.6831206,11.5496356 16.6753444,11.7000046 C16.6629026,11.9385625 16.6664018,12.1768363 16.8034959,12.3866138 C16.9465776,12.6056295 16.9237157,12.8411318 16.9241822,13.0762078 C16.9255042,13.6039205 16.9204497,14.1316332 16.927837,14.6592749 C16.92947,14.7757469 16.9720835,14.8917926 17,15.0287307 C16.2784482,15.3316716 15.5188708,15.6505306 14.7194017,15.9861605 L14.7194017,7.02008935 L16.9246488,7.02008935 Z M9.21646286,7.02125478 L9.21646286,15.9800775 C8.45393057,15.6590155 7.7294238,15.3540138 7.01106021,15.0514992 C7.01106021,14.2896344 7.03399994,13.5750974 7.0004846,12.8626923 C6.98570986,12.5492341 7.31409798,12.3572933 7.25888709,12.0519362 C7.42957426,11.94989 7.38112865,11.7907092 7.38190627,11.6467358 C7.38439465,11.2134656 7.37607414,10.7801954 7.38455017,10.3469963 C7.39450369,9.83683605 7.43408445,9.32084868 7.13089115,8.86071671 C6.99612994,8.65626888 7.01222663,8.44393308 7.01144902,8.22726244 C7.00997154,7.83357424 7.01106021,7.43988604 7.01106021,7.02125478 L9.21646286,7.02125478 Z" id="Combined-Shape" fill="#DEBB69"></path>
        </g>
    </g>
</svg>