<?xml version="1.0" encoding="UTF-8"?>
<svg width="24px" height="24px" viewBox="0 0 24 24" version="1.1" xmlns="http://www.w3.org/2000/svg" xmlns:xlink="http://www.w3.org/1999/xlink">
    <!-- Generator: Sketch 55.1 (78136) - https://sketchapp.com -->
    <title>Flags/mongolia</title>
    <desc>Created with Sketch.</desc>
    <g id="Icons" stroke="none" stroke-width="1" fill="none" fill-rule="evenodd">
        <g id="Flags/mongolia">
            <g id="mongolia">
                <g id="Group-2" transform="translate(0.500000, 0.500000)" fill-rule="nonzero">
                    <path d="M11.4552529,22.9105993 C12.8558366,22.9105993 14.198249,22.6600156 15.4377432,22.1946459 L15.9389105,11.4553463 L15.4377432,0.716046726 C12.8685792,-0.238682242 10.0419266,-0.238682242 7.47276265,0.716046726 L6.97159533,11.4553463 L7.47276265,22.1946459 C8.71225681,22.6600156 10.0546693,22.9105993 11.4552529,22.9105993 Z" id="Path" fill="#41479B"></path>
                    <path d="M0,11.4553463 C0.000584699676,16.2454095 2.98149373,20.5293506 7.47276265,22.1946459 L7.47276265,0.716046726 C2.98149373,2.38134209 0.000584699676,6.6652832 0,11.4553463 Z M15.4377432,0.716046726 L15.4377432,22.1946459 C19.9275275,20.5281085 22.9067368,16.2444496 22.9067368,11.4553463 C22.9067368,6.66624306 19.9275275,2.38258414 15.4377432,0.716046726 Z" id="Shape" fill="#FF4B55"></path>
                </g>
                <g id="Group" transform="translate(1.540856, 6.256809)" fill="#FFDA44" fill-rule="nonzero">
                    <path d="M4.17431907,5.74319066 L5.2155642,5.74319066 L5.2155642,9.89883268 L4.17431907,9.89883268 L4.17431907,5.74319066 Z M0.0186770428,5.74319066 L1.05992218,5.74319066 L1.05992218,9.89883268 L0.0186770428,9.89883268 L0.0186770428,5.74319066 Z" id="Shape"></path>
                    <circle id="Oval" cx="2.61478599" cy="7.30272374" r="1.04124514"></circle>
                    <circle id="Oval" cx="2.61478599" cy="3.66536965" r="1"></circle>
                    <path d="M1.57821012,8.86225681 L3.65603113,8.86225681 L3.65603113,9.89883268 L1.57821012,9.89883268 L1.57821012,8.86225681 Z M1.57821012,4.70661479 L3.65603113,4.70661479 L3.65603113,5.74319066 L1.57821012,5.74319066 L1.57821012,4.70661479 Z M2.61478599,0.0233463035 L2.98832685,1.15330739 L4.17431907,1.15330739 L3.21245136,1.8536965 L3.58132296,2.98832685 L2.61478599,2.28793774 L1.65291829,2.98832685 L2.02178988,1.8536965 L1.05992218,1.15330739 L2.25058366,1.15330739 L2.61478599,0.0233463035 Z" id="Shape"></path>
                </g>
                <circle id="Oval" stroke="#FFFFFF" cx="12" cy="12" r="11.5"></circle>
            </g>
        </g>
    </g>
</svg>