<?xml version="1.0" encoding="UTF-8"?>
<svg width="24px" height="24px" viewBox="0 0 24 24" version="1.1" xmlns="http://www.w3.org/2000/svg" xmlns:xlink="http://www.w3.org/1999/xlink">
    <!-- Generator: Sketch 55.1 (78136) - https://sketchapp.com -->
    <title>Flags/mali</title>
    <desc>Created with Sketch.</desc>
    <g id="Icons" stroke="none" stroke-width="1" fill="none" fill-rule="evenodd">
        <g id="Flags/mali">
            <g id="mali">
                <g id="Group" transform="translate(0.500000, 0.500000)" fill-rule="nonzero">
                    <path d="M15.4377432,0.716046726 C12.8685792,-0.238682242 10.0419266,-0.238682242 7.47276265,0.716046726 L6.47490272,11.4553463 L7.47276265,22.1946459 C10.0418549,23.1497737 12.8686509,23.1497737 15.4377432,22.1946459 L16.4356031,11.4553463 L15.4377432,0.716046726 Z" id="Path" fill="#FFDA44"></path>
                    <path d="M22.9105058,11.4553463 C22.9099211,6.6652832 19.9290121,2.38134209 15.4377432,0.716046726 L15.4377432,22.1946459 C19.9290121,20.5293506 22.9099211,16.2454095 22.9105058,11.4553463 Z" id="Path" fill="#D80027"></path>
                    <path d="M4.4408921e-16,11.4553463 C0.000584699676,16.2454095 2.98149373,20.5293506 7.47276265,22.1946459 L7.47276265,0.716046726 C2.98149373,2.38134209 0.000584699676,6.6652832 4.4408921e-16,11.4553463 Z" id="Path" fill="#6DA544"></path>
                </g>
                <circle id="Oval" stroke="#FFFFFF" cx="12" cy="12" r="11.5"></circle>
            </g>
        </g>
    </g>
</svg>