<svg width="24" height="24" viewBox="0 0 24 24" fill="none" xmlns="http://www.w3.org/2000/svg">
<path fill-rule="evenodd" clip-rule="evenodd" d="M24 12C24 5.37258 18.6274 0 12 0C5.37258 0 0 5.37258 0 12C0 18.6274 5.37258 24 12 24C18.6274 24 24 18.6274 24 12ZM1 12C1 5.92487 5.92487 1 12 1C18.0751 1 23 5.92487 23 12C23 18.0751 18.0751 23 12 23C5.92487 23 1 18.0751 1 12Z" fill="white"/>
<path d="M12 1C5.92487 1 1 5.92487 1 12C1 18.0751 5.92487 23 12 23C18.0751 23 23 18.0751 23 12C23 5.92487 18.0751 1 12 1Z" fill="#503F32"/>
<path fill-rule="evenodd" clip-rule="evenodd" d="M7.14311 18.5319C8.29769 17.2528 7.76565 12.7222 7.76565 12.7222L7.45404 12.6705C7.44256 10.2767 8.58816 9.32242 9.03423 8.95087C9.06421 8.92589 9.09104 8.90355 9.11414 8.88358C12.0139 6.71728 14.5095 8.67606 14.5095 8.67606C14.5095 8.67606 15.5797 9.39249 16.0138 9.66192C15.8452 8.12899 17.7481 7.31123 18.1424 7.14175C18.1636 7.13266 18.1804 7.12543 18.1923 7.12006C12.6895 3.5624 8.70796 5.30755 7.61052 6.44513C5.02914 8.58214 6.22018 13.034 6.65506 14.6595C6.71557 14.8857 6.76144 15.0571 6.78047 15.16C7.1363 16.4554 7.03969 18.5319 7.03969 18.5319C7.03969 18.5319 7.09412 18.5237 7.14311 18.5319ZM15.6906 11.0227C15.6906 11.0227 15.2667 13.5325 12.5384 12.8263C12.1146 12.8563 11.8955 12.9175 11.6567 13.0338C11.3267 13.2264 9.74551 13.8972 8.18133 13.6564L8.18101 13.6536C8.11476 13.0913 7.73446 9.86306 10.3082 8.88358C10.7783 8.69988 14.1951 7.52762 15.6906 11.0227ZM8.43995 13.8122C8.43995 13.8122 9.23394 15.1593 8.07663 16.0431C8.16644 16.2023 8.55969 16.6384 9.37341 16.6656L9.38732 16.6661C9.8122 16.6785 12.5128 16.7579 12.6412 15.6798C12.6018 15.4498 12.3215 14.5463 12.0704 14.1755C12.0364 14.0326 11.8493 13.1794 12.5888 13.1379C12.8147 13.1543 13.2229 13.308 13.3148 14.2272C13.2842 14.9974 13.3162 15.854 13.6781 16.2506C13.78 16.3625 14.015 16.5919 14.3043 16.8745C15.0411 17.5941 16.1305 18.658 16.2717 19C16.1329 17.8815 15.7532 14.2272 15.7532 14.2272C15.7532 14.2272 15.0497 14.1918 14.8715 13.8639C15.2049 13.3658 15.5974 13.0338 15.5974 13.0338L16.4792 15.3682H16.7384V15.1607C16.7384 15.1607 15.8635 12.5079 15.805 12.2555C15.7464 12.0031 15.7015 11.4254 15.7015 11.4254C15.7015 11.4254 15.1443 13.5734 12.6412 12.9297C12.282 12.9467 12.0262 12.9699 11.7595 13.1372C11.7499 13.1421 11.7361 13.1494 11.7184 13.1588C11.4496 13.3021 10.2582 13.9379 8.43995 13.8122Z" fill="#DEBB69"/>
</svg>
