<svg width="24" height="24" viewBox="0 0 24 24" fill="none" xmlns="http://www.w3.org/2000/svg">
<g clip-path="url(#clip0_2174_49)">
<path d="M12.02 24C18.6474 24 24.02 18.6274 24.02 12C24.02 5.37258 18.6474 0 12.02 0C5.3926 0 0.0200195 5.37258 0.0200195 12C0.0200195 18.6274 5.3926 24 12.02 24Z" fill="#503F32"/>
<path d="M12.02 1C18.09 1 23.02 5.93 23.02 12C23.02 18.07 18.09 23 12.02 23C5.95002 23 1.02002 18.07 1.02002 12C1.02002 5.93 5.96002 1 12.02 1ZM12.02 0C5.39002 0 0.0200195 5.37 0.0200195 12C0.0200195 18.63 5.39002 24 12.02 24C18.65 24 24.02 18.63 24.02 12C24.02 5.37 18.65 0 12.02 0Z" fill="white"/>
<path d="M12.8741 9.45076C13.8086 7.33699 16.273 2.33268 16.3625 2.1632C16.4417 2.01334 16.4417 1.93409 16.3225 2.10357C15.7262 2.97057 14.7423 4.39623 13.858 5.68223C13.4209 6.30992 13.0828 6.57905 12.9039 6.68889C12.8144 6.74853 12.7446 6.82856 12.7054 6.918C12.4566 7.50647 10.2111 12.6096 9.77403 13.7866C9.58494 12.8395 9.35661 11.3841 9.34641 10.7964C9.34641 10.6567 9.37623 10.4974 9.27658 10.6967C9.22715 10.8066 9.08749 11.0655 9.08749 11.0655L8.88898 11.1055C8.33268 11.7238 7.49784 12.8497 6.07689 14.5845C6.07689 14.5845 7.34876 10.9164 7.51824 10.4778C7.91605 9.51118 7.36916 10.328 7.84621 9.10239C7.92546 8.9133 8.53197 7.09847 8.70067 6.59003C8.7603 6.41035 8.74068 6.45037 8.5712 6.67948C8.31306 7.04825 7.71675 7.88544 7.56767 8.05492C7.43821 8.18438 6.73284 10.0588 6.68341 10.1985C6.62377 10.368 6.58376 10.368 6.61357 10.1985C6.68341 9.87917 6.97136 8.60337 7.01138 8.44409C7.04119 8.32483 6.8725 8.50372 6.76265 8.84268C6.68341 9.09219 6.38525 9.99921 6.13652 10.8662C5.91761 11.614 4.04943 18.153 4 18.3421C4.28796 18.0926 4.80502 17.2758 5.07336 17.1958C5.27187 17.1361 5.28207 16.8968 5.56061 16.5579C6.25657 15.6807 6.71322 15.0326 8.67085 12.7901C8.96901 14.375 9.35661 17.0263 9.35661 17.0263C9.35661 17.0263 9.64457 16.6575 9.79364 16.2487C9.93252 15.8501 10.062 15.9694 10.1114 15.8101C10.5186 14.4645 11.9396 11.5637 12.8741 9.44998V9.45076Z" fill="#D3B15F"/>
<path d="M15.621 14.5069L15.5418 14.3178C15.5418 14.3178 14.6073 13.5998 14.091 13.1518C15.661 12.4339 20.1632 10.4009 19.9042 8.37661C19.7552 7.2499 18.0062 6.91094 16.8332 6.91094C13.8219 6.91094 9.47977 8.02746 8.35619 8.43625C8.32637 8.44645 8.32637 8.45586 8.36639 8.45586C10.9007 8.01726 18.1451 7.18007 18.2542 8.71479C18.3334 9.89093 14.4378 12.1044 13.3652 12.6324L13.2758 12.5524C13.6932 11.3958 14.1804 10.2495 14.2495 10.0706C14.2691 10.0204 14.2495 10.0008 14.2095 9.97097C14.16 9.94115 14.011 9.8517 13.9607 9.81169C13.9113 9.78187 13.9113 9.76147 13.9411 9.70184C14.0408 9.54256 14.1898 9.34327 14.2589 9.25304C14.3185 9.17301 14.2887 9.18321 14.2189 9.19341C13.8313 9.26324 12.8474 9.47273 11.4562 10.0408C11.3566 10.0808 11.3668 10.1004 11.4758 10.0706C11.8933 9.97097 13.304 9.58179 13.0859 10.1601C13.0161 10.3492 12.7281 11.0773 12.3005 12.2134C12.0023 12.2134 11.9921 12.3531 11.843 12.4025C11.734 12.4425 11.2067 12.3327 11.4256 12.5218C11.5849 12.6614 11.6744 12.7415 11.9921 13.0302C11.5151 14.2966 10.7799 16.3201 10.7799 16.3201C10.7203 16.4896 10.9392 16.4998 11.1079 16.7587C11.3064 17.0475 11.4256 17.5857 11.5551 17.2373C11.7144 16.8089 12.5288 14.3962 12.827 13.6987C12.827 13.6987 14.0494 14.6756 14.4268 14.9643C15.2122 15.5622 15.8776 16.1004 16.5139 16.5092C16.9509 16.798 17.0702 16.8082 16.4346 16.2895C15.3715 15.4225 15.5104 15.4225 17.0011 16.419C17.1997 16.5586 17.3989 16.6779 17.5873 16.6779C17.7261 16.6881 17.8062 16.6975 18.2432 16.9769C18.5712 17.1863 18.7995 17.3354 19.366 17.7246C20.1012 18.233 20.2408 18.2032 19.5347 17.6446C18.8293 17.0867 15.6194 14.5045 15.6194 14.5045L15.621 14.5069Z" fill="#D3B15F"/>
<path fill-rule="evenodd" clip-rule="evenodd" d="M8.34521 8.44567C8.34521 8.44567 17.2507 6.98313 18.222 8.52413C18.2628 8.69988 18.907 9.65555 13.3739 12.641C13.3174 12.5924 13.2726 12.5626 13.2726 12.5626L14.2291 10.1106C14.2291 10.1106 14.2919 10.011 14.1844 9.95292C14.0769 9.89486 13.9709 9.81797 13.9709 9.81797C13.9709 9.81797 13.8784 9.79365 13.9482 9.68301C14.018 9.57238 14.2966 9.18792 14.2966 9.18792C14.2966 9.18792 13.4994 9.27423 11.3833 10.0769C11.6955 9.98823 13.0694 9.63044 13.1157 10.0204C13.0718 10.3036 12.306 12.2142 12.306 12.2142C12.306 12.2142 12.0965 12.2079 11.9796 12.3264C11.9027 12.3868 11.8603 12.4292 11.7324 12.4276C11.6045 12.426 11.2891 12.3837 11.406 12.4951C11.5229 12.6065 12.0023 13.0349 12.0023 13.0349L10.8097 16.2746C10.8097 16.2746 10.7085 16.4119 10.8882 16.5218C10.9784 16.5877 11.1526 16.7407 11.3605 17.2193C11.4037 17.3048 11.4798 17.4453 11.552 17.253C11.6241 17.0608 12.823 13.6869 12.823 13.6869C12.823 13.6869 16.4676 16.6363 16.8615 16.6905C16.7124 16.521 15.8399 15.8392 15.7481 15.6556C15.9043 15.6461 17.1989 16.5445 17.1989 16.5445C17.1989 16.5445 17.4633 16.6936 17.6602 16.6795C18.0784 16.7423 19.7952 18.069 20 18.0855C19.9505 18.0118 19.7167 17.7709 19.5614 17.6697C19.4366 17.5771 15.6241 14.5202 15.6241 14.5202L15.5339 14.3288L14.0832 13.1479C14.0832 13.1479 20.4135 10.5437 19.8878 8.27697C19.8274 8.04865 19.4398 6.23068 13.5433 7.2193C12.9164 7.32993 9.42015 7.96783 8.34678 8.44567H8.34521Z" fill="#D3B15F"/>
<path fill-rule="evenodd" clip-rule="evenodd" d="M7.0067 8.40094C7.0067 8.40094 6.86076 8.58533 6.82703 8.69361C6.79329 8.80188 4.00317 18.3217 4.00317 18.3217C4.00317 18.3217 4.90706 17.1863 5.17304 17.1291C5.72699 16.1248 8.67167 12.787 8.67167 12.787C8.67167 12.787 9.36449 16.7305 9.35821 16.9941C9.67599 16.7242 9.78662 15.9278 10.0895 15.858C11.0546 12.9706 16.4104 2 16.4104 2C16.4104 2 13.8 5.75206 13.5081 6.1734C13.257 6.49196 12.7682 6.71244 12.6756 6.98313C12.5689 7.21616 9.78505 13.7999 9.78505 13.7999C9.78505 13.7999 9.32291 11.5692 9.35743 10.594C9.22012 10.8113 9.09851 11.0663 9.09851 11.0663C9.09851 11.0663 8.90863 11.0734 8.85135 11.1565C8.79407 11.2397 6.05025 14.6214 6.05025 14.6214L7.64774 10.0879C7.64774 10.0879 7.66657 9.95057 7.62499 9.80698C7.63362 9.68772 8.72738 6.47705 8.72738 6.47705C8.72738 6.47705 7.61479 8.04865 7.54652 8.09651C7.47748 8.22126 7.26249 8.68968 6.63558 10.3123C6.59556 10.3123 6.59086 10.3107 6.61282 10.1883C6.63479 10.0659 7.0067 8.39937 7.0067 8.39937V8.40094Z" fill="#D3B15F"/>
</g>
<defs>
<clipPath id="clip0_2174_49">
<rect width="24" height="24" fill="white"/>
</clipPath>
</defs>
</svg>
