<svg width="24" height="24" viewBox="0 0 24 24" fill="none" xmlns="http://www.w3.org/2000/svg">
<path d="M12.02 24C18.6474 24 24.02 18.6274 24.02 12C24.02 5.37258 18.6474 0 12.02 0C5.39257 0 0.019989 5.37258 0.019989 12C0.019989 18.6274 5.39257 24 12.02 24Z" fill="#503F32"/>
<path d="M12.02 1C18.09 1 23.02 5.93 23.02 12C23.02 18.07 18.09 23 12.02 23C5.94999 23 1.01999 18.07 1.01999 12C1.01999 5.93 5.95999 1 12.02 1ZM12.02 0C5.38999 0 0.019989 5.37 0.019989 12C0.019989 18.63 5.38999 24 12.02 24C18.65 24 24.02 18.63 24.02 12C24.02 5.37 18.65 0 12.02 0Z" fill="white"/>
<path fill-rule="evenodd" clip-rule="evenodd" d="M5.51562 7.20753C6.70071 5.60963 8.27941 4.51414 10.3125 4C9.45063 4.78722 8.72955 5.92964 8.06927 7.22566L5.51562 7.20753ZM5.00822 7.9318L5.00772 7.93179L5.00879 7.93073L5.00822 7.9318ZM5.00822 7.9318L7.76937 7.95099C7.39603 9.05928 7.19656 10.2412 7.13576 11.4828L4.0125 11.4604C4.09034 10.281 4.38779 9.1048 5.00822 7.9318ZM4.00716 12.1568L7.12829 12.1792C7.13255 13.3611 7.35976 14.5461 7.76403 15.7334L4.96398 15.7131C4.3805 14.4971 3.93783 13.2971 4.00716 12.1568ZM8.02459 16.4343L5.42187 16.4162C6.8907 18.3799 8.53767 19.2855 10.27 19.6845C9.30995 18.8098 8.56113 17.726 8.02459 16.4343ZM13.8052 4.02448C15.8308 4.56742 17.3946 5.68424 18.5562 7.30027L16.0026 7.28214C15.3604 5.97651 14.6554 4.82449 13.8052 4.02448ZM16.2927 8.01094L19.0544 8.03014C19.6581 9.21203 19.9397 10.3929 20.0005 11.5737L16.8773 11.5513C16.8335 10.3086 16.6511 9.1235 16.2927 8.01094ZM19.9945 12.2688L16.8744 12.2464C16.8542 13.4282 16.6099 14.6091 16.1885 15.791L18.9886 15.8112C19.5881 14.6037 20.0478 13.4101 19.9945 12.2688ZM15.9173 16.4911L18.52 16.5093H18.521C17.0245 18.4517 15.3647 19.3349 13.6271 19.7093C14.5988 18.8485 15.3626 17.7754 15.9173 16.4911ZM11.6765 4.16304L11.6551 7.2511L8.86042 7.2319C9.6487 5.68733 10.549 4.52785 11.6765 4.16304ZM11.5887 16.4599L8.7844 16.4396L8.78333 16.4407C9.67828 18.2978 10.6074 19.3143 11.5663 19.5895L11.5887 16.4599ZM12.4015 4.16771L12.3802 7.25684L15.1749 7.27604C14.408 5.72081 13.5248 4.54852 12.4026 4.16771H12.4015ZM12.3151 16.4641L15.1194 16.4843C14.1978 18.3286 13.2549 19.3324 12.2927 19.5937L12.3151 16.4641Z" fill="#DEBB67"/>
<path d="M15.4877 8.00532L8.53721 7.95625C7.64973 8.98241 7.60066 14.6582 8.48281 15.7377L15.4333 15.7868C16.3923 14.7126 16.451 9.03681 15.4877 8.00532ZM13.06 9.35895L13.5496 9.43041C14.0125 9.44748 14.4104 9.84536 14.4307 10.3339L14.5032 10.8022L13.3501 11.7078C13.3117 11.5041 13.2626 11.2459 13.2424 11.1264C13.1762 10.7371 12.82 10.6347 12.7176 10.6144L12.6909 10.6091L12.2045 10.5451L13.061 9.36001L13.06 9.35895ZM13.0685 11.9275L11.0802 13.487C11.0802 13.487 11.0738 13.4956 11.0695 13.4998C10.8562 13.3025 10.6621 13.1041 10.4925 12.9121L11.9922 10.8363H11.9933L12.645 10.9206C12.6557 10.9216 12.8925 10.9632 12.9288 11.1787C12.9554 11.3345 13.0301 11.727 13.0685 11.9265V11.9275ZM10.7559 9.48588L10.9661 8.9024C11.0813 8.58026 11.3671 8.35839 11.7117 8.32319C12.0551 8.28906 12.3784 8.45013 12.5576 8.74027L12.7986 9.18188L11.9549 10.3499C11.9186 10.2784 11.8738 10.1888 11.8151 10.0662C11.6477 9.71629 11.4205 9.51255 11.1399 9.46135C11.0045 9.43575 10.8754 9.45388 10.7559 9.48802V9.48588ZM10.549 9.93922C10.6514 9.86562 10.8285 9.76109 11.0141 9.76642L11.0834 9.77175C11.2573 9.80376 11.4087 9.94882 11.5303 10.2027C11.6263 10.4022 11.6925 10.5398 11.7469 10.6379L10.2823 12.6646C9.99857 12.319 9.79377 12.0193 9.6775 11.8401L10.549 9.93922ZM11.3714 14.5089C9.4215 15.0135 8.81135 14.111 9.38736 12.4769C9.38096 12.4694 9.3799 12.4673 9.38736 12.4737C9.38736 12.4737 9.38736 12.4758 9.38736 12.4769C9.49616 12.6091 11.5559 14.6817 11.3714 14.5089ZM14.0093 13.311L12.0103 14.2188C11.7618 14.0598 11.5239 13.8913 11.3095 13.71L13.2658 12.175L13.8162 12.4139C13.8162 12.4139 14.0872 12.5419 14.1427 12.7958C14.1757 12.9473 14.1299 13.118 14.0083 13.311H14.0093ZM15.0077 12.8577L14.4307 13.1201C14.4669 12.9846 14.4776 12.8523 14.4499 12.7275C14.3592 12.3201 13.9645 12.1377 13.9453 12.1281L13.5474 11.9553L14.7037 11.0486H14.7048L15.1389 11.2779C15.4397 11.4571 15.6093 11.7771 15.5763 12.1163C15.5453 12.4534 15.3277 12.7371 15.0077 12.8577Z" fill="#DEBB67"/>
</svg>
