<svg fill="none" xmlns="http://www.w3.org/2000/svg" viewBox="0 0 24 24">
  <g id="classifier/motor racing" clip-path="url(#clip0_448_132)">
    <g id="Group">
      <path id="Vector" d="M12.02 24c6.627 0 12-5.373 12-12s-5.373-12-12-12c-6.628 0-12 5.373-12 12s5.372 12 12 12Z" fill="#503F32"/>
      <g id="Frame" clip-path="url(#clip1_448_132)">
        <g id="Group_2">
          <path id="Vector_2" d="M16.872 6.552c.331 1.22.652 2.42.979 3.62.396 1.48.783 2.961 1.194 4.442.08.291.015.426-.246.572-.923.522-1.917.633-2.921.437-1.275-.256-2.53-.618-3.795-.919-.843-.2-1.697-.336-2.56-.15-.276.06-.542.18-.813.27-.211.07-.246.207-.186.417.361 1.285.713 2.575 1.064 3.86.025.086.035.171.05.262.07.34-.04.562-.31.622-.297.07-.503-.065-.598-.417-.241-.858-.477-1.722-.708-2.585-.668-2.46-1.33-4.92-1.998-7.379-.24-.863-.492-1.722-.698-2.59-.04-.176-.03-.351.076-.497.145-.196.431-.22.647-.105.07.04.196.055.266.02 1.19-.608 2.425-.477 3.655-.191 1.074.25 2.128.572 3.202.828 1.255.301 2.48.281 3.59-.497.02-.01.085-.045.11-.02Zm-1.004 6.983c.13.502.25 1.004.397 1.5.065.216.1.252.2.236.723 0 1.35-.075 1.958-.401.07-.04.15-.176.136-.246-.121-.522-.267-1.04-.417-1.622-.728.452-1.486.588-2.284.543-.176-.658-.351-1.316-.532-2.003.838.035 1.596-.086 2.274-.572l-.542-1.978c-.708.441-1.446.582-2.26.557.176.662.337 1.285.528 2.028-.994-.241-1.898-.457-2.831-.683.175.648.386 1.386.562 2.028-.949-.226-1.903-.557-2.886-.793.18.668.31 1.24.491 1.792.046.136.156.11.236.12.277.026.547.076.819.131.567.12 1.134.256 1.752.392-.141-.573-.277-1.105-.412-1.642.979.216 1.897.412 2.81.613Zm-3.404-2.731a588.69 588.69 0 0 1-.511-1.918l2.84.663a69.853 69.853 0 0 0-.491-1.752c-.015-.055-.13-.1-.206-.115-.773-.171-1.551-.337-2.33-.497-.08-.015-.165-.015-.27-.02.14.562.306 1.144.451 1.726-.963-.26-1.872-.622-2.84-.697.18.677.35 1.255.526 1.927-.15 0-.27.025-.376.045-.502.1-1.01.201-1.506.327-.306.075-.442.24-.316.597.18.512.3 1.05.457 1.611.712-.446 1.455-.572 2.258-.552-.17-.672-.33-1.3-.517-2.023l2.832.678Zm-3.358-2.64c-.145-.538-.276-1.04-.426-1.532-.02-.07-.126-.165-.201-.17-.683-.04-1.345.035-1.953.376-.065.035-.14.16-.125.221.125.532.27 1.06.421 1.627a3.724 3.724 0 0 1 2.284-.522Z" fill="#DEBB69"/>
        </g>
      </g>
      <path id="Vector_3" d="M12.02 1c6.07 0 11 4.93 11 11s-4.93 11-11 11-11-4.93-11-11 4.94-11 11-11Zm0-1c-6.63 0-12 5.37-12 12s5.37 12 12 12 12-5.37 12-12-5.37-12-12-12Z" fill="#fff"/>
    </g>
  </g>
  <defs>
    <clipPath id="clip0_448_132">
      <path fill="#fff" d="M0 0h24v24H0z"/>
    </clipPath>
    <clipPath id="clip1_448_132">
      <path fill="#fff" transform="translate(5.3 6)" d="M0 0h13.774v14H0z"/>
    </clipPath>
  </defs>
</svg>