<svg xmlns="http://www.w3.org/2000/svg" width="24" height="24" fill="none"><g clip-path="url(#a)"><path fill="#503F32" d="M12.02 24a12 12 0 1 0 0-24 12 12 0 0 0 0 24Z"/><path fill="#DEBB69" fill-rule="evenodd" d="M16.99 18.46c-.32-.27-.66-.5-1.05-.66-.31-.13-.63-.27-.95-.37-.33-.1-.68-.16-1.02-.24a.45.45 0 0 1-.1-.05l.16-.13c.2-.11.4-.2.59-.33.64-.41 1.1-.97 1.4-1.66.03-.06.08-.11.12-.16l.04.01.03.14c.05.22.08.44.14.65.15.52.32 1.03.58 1.5.2.37.43.72.74 1.01.07.06.18.09.28.09.12 0 .2-.09.24-.2.04-.12.01-.23-.08-.33a4.78 4.78 0 0 1-1.05-1.86 9.34 9.34 0 0 1-.4-1.96c-.05-.5-.06-1-.08-1.49a8.12 8.12 0 0 0-.25-1.77c-.04-.16-.11-.31-.16-.46a2.83 2.83 0 1 0-3.35-3.99c-.14-.08-.27-.18-.42-.25-.49-.25-1-.44-1.53-.56a5.38 5.38 0 0 0-2.38.01 4 4 0 0 0-1.2.47c-.31.19-.62.38-.9.6A5.44 5.44 0 0 0 4.35 9.9c-.13.67-.07 1.33.07 1.99.1.47.25.94.49 1.37.21.39.43.79.69 1.15.3.41.65.8 1 1.17.38.4.81.73 1.29 1 .37.2.77.37 1.15.55.42.19.88.29 1.33.36.41.06.84.09 1.26.1.83.02 1.65.09 2.46.26.2.04.4.1.59.16.23.07.47.14.68.24.31.14.62.31.91.48.18.11.33.26.49.4.13.11.32.1.44-.03.11-.11.1-.31-.01-.42a1.07 1.07 0 0 0-.2-.22Zm-5.86-1.53c-.25-.04-.67-.08-1.07-.16-.29-.06-.57-.16-.85-.26-.26-.1-.51-.22-.76-.35a5.17 5.17 0 0 1-1.24-.88c-.46-.43-.87-.9-1.22-1.42a6.4 6.4 0 0 1-.79-1.54 4.77 4.77 0 0 1-.01-3.18c.3-.82.81-1.49 1.46-2.07a4.47 4.47 0 0 1 4.66-.93c.46.16.9.37 1.31.63a2.72 2.72 0 0 0 .22 1.98l-.63.63-1.58-1.58.55-.55c.1-.1.1-.26 0-.35-.1-.09-.26-.1-.35 0l-.55.55-.64-.63a.24.24 0 0 0-.35 0c-.09.1-.1.26 0 .35l.64.64-1.38 1.36L7.2 7.82a.24.24 0 0 0-.35 0c-.09.1-.1.26 0 .35L8.2 9.53 6.83 10.9l-.72-.71a.24.24 0 0 0-.35 0c-.09.1-.1.26 0 .35l.72.71-.55.55c-.1.1-.1.26 0 .35.05.05.11.07.18.07.07 0 .13-.02.18-.07l.54-.54 1.57 1.57-.91.91c-.1.1-.1.26 0 .35.05.05.11.07.18.07.06 0 .13-.02.18-.07l.91-.91 1.57 1.57-.52.5c-.1.1-.1.26 0 .35.05.05.11.07.18.07.07 0 .13-.02.18-.07l.51-.51.51.51c.05.05.11.07.18.07.07 0 .13-.02.18-.07.1-.1.1-.26 0-.35l-.51-.51 1.38-1.37 1.47 1.46c.05.05.11.07.18.07.06 0 .13-.02.18-.07.1-.1.1-.26 0-.35l-1.46-1.46 1.37-1.36.58.58c.05.05.11.07.18.07.06 0 .13-.02.18-.07.1-.1.1-.26 0-.35l-.58-.58.48-.48c.1-.1.1-.26 0-.35a.24.24 0 0 0-.35 0l-.48.48-1.56-1.56.55-.54a2.83 2.83 0 0 0 2.25 1.13l.21-.02.16.46c.15.55.22 1.11.23 1.68.01.5-.04.99-.17 1.47a3.73 3.73 0 0 1-2.11 2.59c-.81.33-1.62.42-2.6.41Zm-1-5.48-1.38 1.37-1.57-1.57 1.37-1.37 1.58 1.57ZM8.91 9.53l1.37-1.37 1.58 1.58-1.37 1.36-1.58-1.57Zm1.57 2.28 1.57 1.57-1.38 1.37-1.57-1.58 1.38-1.36Zm.35-.36 1.37-1.36 1.56 1.56-1.37 1.36-1.56-1.56ZM19.02 18.74c-.21-.21-.41-.21-.62 0l-.58.57c-.29.28-.3.45 0 .75l1.11 1.11c.12.12 1.52-1.01 1.39-1.14l-1.3-1.29Z" clip-rule="evenodd"/><path fill="#fff" fill-rule="evenodd" d="m17.14 5.28.13.11c.77.7 1.07 1.73.87 2.68a2.65 2.65 0 0 0-1.76.75c-.17.17-.38.29-.61.35a1.5 1.5 0 0 1-.7.02 1.4 1.4 0 0 1-1-.89 1.72 1.72 0 0 1-.09-.71 1.58 1.58 0 0 1 .77-1.24c.24-.14.51-.23.8-.24.36-.02.7-.12.99-.3.23-.12.44-.31.6-.53Zm-1.73-.63c.37.01.73.08 1.06.22l.01.01c.13.05.25.13.37.2-.13.18-.3.33-.49.44-.24.14-.53.23-.82.24-.35.01-.68.12-.97.29a1.88 1.88 0 0 0-.93 1.51c-.02.28.02.57.11.85s.26.53.48.72a1.81 1.81 0 0 0 1.66.38c.28-.08.55-.23.76-.44a2.21 2.21 0 0 1 1.38-.64l-.05.15-.01.03a3.2 3.2 0 0 1-.28.5 2.6 2.6 0 0 1-.63.64 2.84 2.84 0 0 1-3.83-4.12l.05-.06c.09-.1.19-.19.3-.27l.1-.09c.09-.07.19-.12.28-.18.06-.03.11-.07.17-.09l.27-.11.23-.07.25-.06.33-.03c.07-.02.13-.02.2-.02Z" clip-rule="evenodd"/><path fill="#fff" d="M12.02 1a11 11 0 1 1-.01 22.01A11 11 0 0 1 12.02 1Zm0-1a12 12 0 1 0 0 24 12 12 0 0 0 0-24Z"/></g><defs><clipPath id="a"><path fill="#fff" d="M0 0h24v24H0z"/></clipPath></defs></svg>