<svg xmlns="http://www.w3.org/2000/svg" width="24" height="24"><g fill="none" fill-rule="evenodd"><path d="M0 0h24v24H0z"/><path fill="#012D82" d="M2.45 19.27c1.86-1.07 4.6-.91 6.19.42a5.55 5.55 0 0 0 6.65 0c1.62-1.36 4.41-1.48 6.23-.38-2 2.6-5.03 4.35-8.48 4.65h-2.08a11.98 11.98 0 0 1-8.5-4.69ZM21.45 4.6c-1.7 1.01-3.55.97-5.42.1-.4-.2-.75-.51-1.15-.73a5.6 5.6 0 0 0-5.86.01c-.77.45-1.47 1.02-2.38 1.2a6.03 6.03 0 0 1-4.13-.53 11.98 11.98 0 0 1 18.94-.04ZM.43 8.79c.51.17.98.42 1.37.74a5.47 5.47 0 0 0 4.23 1.13A6.75 6.75 0 0 0 6 13.23a5.42 5.42 0 0 0-4.16 1.1c-.42.34-.91.6-1.44.78a12.02 12.02 0 0 1 .02-6.32Z"/><path fill="#012D82" d="m1.68 5.87.33.25a5.64 5.64 0 0 0 6.48 0c1.55-1.26 3.32-1.43 5.19-.96.66.17 1.22.54 1.75.96a5.64 5.64 0 0 0 6.86-.3c.27.45.5.91.72 1.4-.34.14-.65.32-.92.54-1.42 1.12-3.05 1.3-4.77.99l-.23-.03-.23-.3a6.06 6.06 0 0 0-10.04.3H6.7a5.89 5.89 0 0 1-5.05-1.06 3.81 3.81 0 0 0-.68-.43c.2-.47.44-.93.7-1.36ZM23.03 16.74c-.2.46-.43.9-.68 1.34a5.78 5.78 0 0 0-5.1-1.18c-.74.15-1.38.53-1.98.98-1.53 1.16-3.24 1.3-5.03.84a4.17 4.17 0 0 1-1.63-.87 5.66 5.66 0 0 0-6.98.2c-.25-.43-.48-.88-.68-1.35.28-.14.56-.3.83-.5a5.42 5.42 0 0 1 2.03-1.04 7.31 7.31 0 0 1 2.97 0l.29.4a6.05 6.05 0 0 0 10.06-.4c.75-.14 1.5-.18 2.26-.12 1.03.1 1.91.52 2.72 1.14.3.22.6.4.92.56Z"/><path fill="#FBFCFD" d="M.95 16.7a11.9 11.9 0 0 1-.54-1.6 4.61 4.61 0 0 0 1.44-.77A5.42 5.42 0 0 1 6 13.23c.16.68.43 1.32.77 1.94a7.32 7.32 0 0 0-2.97 0c-.77.16-1.41.57-2.04 1.03-.26.2-.54.36-.82.5ZM.98 7.23c.24.12.47.26.68.43a5.89 5.89 0 0 0 5.05 1.07l.1-.01a7.8 7.8 0 0 0-.78 1.94c-1.56.16-3-.12-4.23-1.13a4.32 4.32 0 0 0-1.37-.74c.15-.54.34-1.06.55-1.56Z"/><path fill="#FDA001" d="M6.07 10.68c.16-.68.45-1.32.79-1.94a6.07 6.07 0 0 1 10.05-.3l.23.3c.34.62.62 1.26.8 1.94.16.85.17 1.7.01 2.55-.16.69-.43 1.34-.77 1.96a6.25 6.25 0 0 1-3.38 2.6 6.06 6.06 0 0 1-6.7-2.2l-.28-.4a7.6 7.6 0 0 1-.77-1.94 6.74 6.74 0 0 1 .02-2.57"/><path fill="#012D82" d="M17.9 13.2c.16-.85.15-1.7-.02-2.54 1.56.16 3-.12 4.23-1.14 1.7-1.38 4.81-1.36 6.52 0a5.4 5.4 0 0 0 5.5.79c.45-.16.84-.45 1.24-.72l.48-.3c.07.33.08 4.8.02 5.29-.3-.1-.56-.3-.8-.49a5.54 5.54 0 0 0-6.31.17c-1.52 1.22-3.26 1.37-5.09.9a3.84 3.84 0 0 1-1.47-.75 5.58 5.58 0 0 0-4.1-1.2h-.2Z"/><path fill="#FBFCFD" d="M2.51 4.65c1.28.7 2.66.8 4.13.52.9-.17 1.6-.74 2.38-1.19a5.61 5.61 0 0 1 5.86-.01c.4.22.74.53 1.15.73 1.87.87 3.72.91 5.42-.1.3.4.59.8.84 1.23a5.64 5.64 0 0 1-6.87.3 4.64 4.64 0 0 0-1.74-.97c-1.87-.47-3.64-.3-5.19.95a5.64 5.64 0 0 1-6.8-.24c.25-.43.52-.83.82-1.22Zm8.46 19.3h2.06a12.16 12.16 0 0 1-2.06 0Zm10.55-4.64c-1.82-1.1-4.61-.98-6.23.37a5.55 5.55 0 0 1-6.65.01c-1.6-1.33-4.33-1.49-6.19-.42-.3-.39-.57-.8-.81-1.22.08-.06.17-.12.25-.2a5.66 5.66 0 0 1 6.72 0c.48.4 1.02.72 1.63.87 1.8.46 3.5.32 5.03-.84.6-.45 1.24-.83 1.98-.98a5.78 5.78 0 0 1 5.1 1.18c-.26.43-.53.84-.83 1.23Zm1.51-2.57a5.33 5.33 0 0 1-.92-.57 5.22 5.22 0 0 0-2.72-1.13 8 8 0 0 0-2.26.13c.35-.62.62-1.27.78-1.97h.18c1.53-.12 2.9.24 4.1 1.21.42.33.88.59 1.4.73a11.9 11.9 0 0 1-.56 1.6Zm.53-7.98c-.54.17-1.04.43-1.45.76a5.46 5.46 0 0 1-4.23 1.14 7.88 7.88 0 0 0-.79-1.94l.23.03c1.72.31 3.35.13 4.77-1 .27-.2.58-.39.92-.53.22.5.4 1.01.55 1.54Z"/><circle cx="12" cy="12" r="11.5" stroke="#FFF"/></g></svg>