<svg width="24" height="24" viewBox="0 0 24 24" fill="none" xmlns="http://www.w3.org/2000/svg">
<path d="M12 24C18.6274 24 24 18.6274 24 12C24 5.37258 18.6274 0 12 0C5.37258 0 0 5.37258 0 12C0 18.6274 5.37258 24 12 24Z" fill="white"/>
<path d="M12 0C18.6274 0 24 5.37258 24 12C24 18.6274 18.6274 24 12 24C5.37258 24 0 18.6274 0 12C0 5.37258 5.37258 0 12 0ZM12 1C5.92487 1 1 5.92487 1 12C1 18.0751 5.92487 23 12 23C18.0751 23 23 18.0751 23 12C23 5.92487 18.0751 1 12 1Z" fill="white"/>
<path d="M12 1C5.92487 1 1 5.92487 1 12C1 18.0751 5.92487 23 12 23C18.0751 23 23 18.0751 23 12C23 5.92487 18.0751 1 12 1Z" fill="#503F32"/>
<path fill-rule="evenodd" clip-rule="evenodd" d="M12.5662 12.3641C12.6621 12.2793 12.7387 12.2115 12.8253 12.135C12.7429 12.0559 12.6751 11.9848 12.6009 11.9213C12.5152 11.8479 12.5143 11.7816 12.5944 11.7031C12.676 11.6233 12.7431 11.6367 12.8167 11.7144C12.8833 11.7846 12.9578 11.8471 13.0309 11.915C13.1286 11.8223 13.2185 11.7371 13.3319 11.6296C13.2624 11.5705 13.196 11.5153 13.1311 11.4584C13.0633 11.3991 12.9647 11.3487 13.0595 11.2364C13.1483 11.1311 13.2378 11.1298 13.3352 11.2278C13.5768 11.4709 13.8193 11.7131 14.0641 11.953C14.1464 12.0337 14.1337 12.1007 14.057 12.1746C13.9814 12.2476 13.9133 12.2658 13.8368 12.1753C13.7683 12.0943 13.6933 12.0188 13.6133 11.9325C13.5101 12.0464 13.4284 12.1366 13.3453 12.2283C13.4302 12.3198 13.4995 12.3965 13.5709 12.471C13.6417 12.5448 13.6157 12.6029 13.5517 12.6659C13.4884 12.7283 13.4293 12.7591 13.3599 12.6804C13.2854 12.5958 13.2126 12.5097 13.1635 12.4525C13.0478 12.5411 12.9661 12.6036 12.8736 12.6745C12.9636 12.7619 13.0357 12.8355 13.1117 12.9046C13.1923 12.9778 13.176 13.0409 13.107 13.1121C13.0361 13.1852 12.9699 13.1965 12.8993 13.1178C12.828 13.0382 12.7585 12.9569 12.7012 12.8912C12.6 12.9939 12.5295 13.0654 12.4473 13.1487C12.5183 13.2152 12.5989 13.2881 12.6763 13.3641C12.7453 13.4319 12.7333 13.494 12.664 13.5587C12.5956 13.6224 12.5312 13.6609 12.4578 13.5729C12.3884 13.4896 12.3228 13.4031 12.2496 13.3104C12.1382 13.4221 12.0663 13.4941 11.9617 13.599C12.0543 13.675 12.1399 13.7427 12.2226 13.8137C12.3004 13.8805 12.2771 13.9427 12.2132 14.0071C12.1455 14.0752 12.0799 14.1049 12.0082 14.018C11.939 13.9342 11.8731 13.8478 11.8057 13.7626C11.7939 13.7766 11.782 13.7906 11.7702 13.8047C11.7009 13.8785 11.6317 13.9523 11.5411 14.0489C11.611 14.1096 11.6892 14.1766 11.7663 14.2449C11.8437 14.3135 11.84 14.3805 11.767 14.4533C11.6917 14.5283 11.6228 14.5452 11.5468 14.4565C11.4804 14.3791 11.4111 14.3042 11.3424 14.2274C11.2481 14.3225 11.177 14.3942 11.0923 14.4797C11.1738 14.5565 11.2547 14.6287 11.3306 14.7057C11.3949 14.771 11.3952 14.8337 11.3203 14.8992C11.2511 14.9598 11.1962 14.9967 11.1143 14.9129C10.8627 14.656 10.6062 14.4038 10.3508 14.1507C10.2768 14.0775 10.2836 14.0145 10.3567 13.9422C10.4293 13.8704 10.4894 13.8606 10.5631 13.9392C10.6358 14.0168 10.716 14.0874 10.7858 14.1542C10.8729 14.0768 10.9455 14.0122 11.0543 13.9155C10.9631 13.8415 10.8837 13.7766 10.8038 13.7122C10.7144 13.6401 10.7239 13.5731 10.8021 13.4947C10.8827 13.4138 10.9506 13.4187 11.0216 13.5004C11.0883 13.577 11.1546 13.6539 11.2107 13.7187C11.3134 13.6248 11.3884 13.5562 11.4902 13.463C11.4033 13.389 11.3241 13.3231 11.2468 13.255C11.169 13.1865 11.1742 13.1215 11.2483 13.0482C11.3218 12.9754 11.3844 12.9716 11.4571 13.0453C11.5318 13.121 11.6105 13.1927 11.6892 13.2678C11.772 13.1873 11.8418 13.1196 11.938 13.0261C11.8438 12.9421 11.766 12.8743 11.6901 12.8044C11.6109 12.7314 11.6316 12.6656 11.7015 12.5963C11.7747 12.5236 11.8395 12.5184 11.9086 12.5978C11.9759 12.6752 12.0444 12.7516 12.1162 12.8326C12.2073 12.7323 12.2757 12.657 12.3632 12.5606C12.2949 12.498 12.2105 12.4224 12.1282 12.3445C12.0517 12.2721 12.0857 12.2077 12.1495 12.1511L12.5662 12.3641ZM10.5954 18C14.0374 16.4336 16.5702 13.9377 18.2463 10.5578C17.7516 12.4963 16.7976 14.1669 15.3119 15.5171C13.9556 16.7497 12.3766 17.569 10.5954 18ZM6.12647 15.9695L6.06229 15.9685C6.04133 15.802 6.0049 15.6357 6.00179 15.4687C5.97246 13.9058 6.30387 12.4237 7.02937 11.0368C7.83557 9.49555 9.03492 8.34072 10.5452 7.49603C11.8567 6.76253 13.2734 6.34087 14.7424 6.07332C14.9038 6.0439 15.0672 6.025 15.2381 6C15.2307 6.03342 15.2319 6.04803 15.2257 6.05268C15.1866 6.08187 15.1471 6.1106 15.1057 6.13625C13.9248 6.86765 12.7832 7.65531 11.6993 8.52473C10.1823 9.74158 8.76963 11.0619 7.6471 12.6644C6.99 13.6025 6.46207 14.6034 6.2049 15.7308C6.18636 15.8121 6.15294 15.89 6.12647 15.9695ZM17.4175 9.26377C17.3957 9.44166 17.3841 9.62151 17.3503 9.7971C17.1617 10.7766 16.6936 11.6344 16.1575 12.4564C15.4118 13.5995 14.5008 14.5996 13.4602 15.481C12.5169 16.2802 11.499 16.9643 10.3497 17.4342C9.68108 17.7076 8.99617 17.9074 8.25749 17.8391C7.54476 17.7731 7.05879 17.2631 7.03478 16.5505C7.01254 15.8899 7.21106 15.2836 7.47993 14.6963C8.04818 13.4549 8.86945 12.3901 9.80993 11.4128C10.8776 10.3035 12.0737 9.35789 13.4386 8.63789C14.1825 8.24545 14.9537 7.92112 15.8072 7.85849C16.1821 7.83097 16.5521 7.86356 16.8742 8.0806C17.2917 8.36191 17.4096 8.78619 17.4175 9.26377Z" fill="#DEBB69"/>
</svg>
