<svg width="22" height="22" viewBox="0 0 22 22" fill="none" xmlns="http://www.w3.org/2000/svg">
<g clip-path="url(#clip0_6001_773)">
<path d="M11.0254 21.9898C17.1115 21.9898 22.0454 17.0559 22.0454 10.9697C22.0454 4.88355 17.1115 -0.0502768 11.0254 -0.0502768C4.93917 -0.0502768 0.00534344 4.88355 0.00534344 10.9697C0.00534344 17.0559 4.93917 21.9898 11.0254 21.9898Z" fill="white"/>
<path fill-rule="evenodd" clip-rule="evenodd" d="M11.0285 0.86152H11.0018C5.4289 0.868724 0.913429 5.38864 0.913429 10.9632C0.913429 13.238 1.66536 15.3372 2.93424 17.0258L19.0979 4.90308C17.2574 2.45228 14.3283 0.865786 11.0285 0.86152Z" fill="#FFCA00"/>
<path fill-rule="evenodd" clip-rule="evenodd" d="M11.0192 21.0726C16.5982 21.0726 21.1209 16.55 21.1209 10.971C21.1209 8.69614 20.369 6.59695 19.1001 4.90836L2.93646 17.0311C4.77938 19.4852 7.71391 21.0726 11.0192 21.0726Z" fill="#FF6500"/>
<path d="M18.2501 7.21012C18.0621 7.22188 17.9616 7.35173 17.8485 7.35173H17.6475C17.6475 7.35173 17.81 7.13907 17.8985 7.08027C17.986 7.02098 18.3121 6.99746 18.3876 6.93866C18.4329 6.90207 18.4637 6.85218 18.4751 6.79706C18.3121 6.90338 17.9355 6.84409 17.773 6.87937C17.6105 6.91465 17.4714 7.08027 17.4714 7.08027C17.4714 7.08027 17.6595 6.72601 17.71 6.57215C17.76 6.41878 17.76 6.15908 17.961 6.01747C18.1616 5.87586 18.0366 5.69849 18.0366 5.69849C18.0366 5.69849 17.986 5.81658 17.8485 5.9229C17.7105 6.02923 17.5725 6.01747 17.585 6.21837C17.598 6.41878 17.61 6.41878 17.51 6.51335C17.41 6.60792 17.41 6.58391 17.2464 6.8441C17.0834 7.10379 17.0079 6.83234 16.6563 6.95042C16.3047 7.06851 16.1417 6.73777 15.8662 6.77354C15.5901 6.80882 14.9375 6.69024 14.6745 6.60792C14.4104 6.52511 14.549 6.41878 13.9083 6.13605C13.2687 5.85234 12.8666 6.12429 13.1177 6.11204C13.2416 6.10616 13.4328 6.15222 13.5942 6.20024C13.3932 6.18652 13.2307 6.26541 13.2307 6.26541C13.2307 6.26541 13.5823 6.35949 13.8708 6.59567C14.1594 6.83185 13.8708 6.80833 13.4942 6.59567C13.1177 6.38301 12.7166 6.33597 12.3775 6.37125C12.039 6.40653 12.127 6.51286 12.315 6.5011C12.5031 6.48934 12.9302 6.60743 13.2692 6.72552C13.6073 6.8436 13.2437 6.86761 13.2437 6.86761C12.5031 6.45406 12.177 6.78481 12.3775 6.71376C12.5791 6.64271 12.8041 6.80833 13.1557 6.9857C13.5073 7.16308 12.6541 7.05675 12.6541 7.05675C12.6541 7.05675 12.265 6.90338 11.8879 6.86761C11.5114 6.83233 11.2233 7.17435 11.3483 7.33948C11.4739 7.50461 11.7119 7.41004 11.7119 7.41004C11.4421 7.33654 11.5239 7.15034 11.6999 7.1033C11.8754 7.05626 12.5536 7.22139 12.7416 7.29244C12.9296 7.363 13.0052 7.63495 12.4911 7.41004C11.9765 7.18562 12.1645 7.44581 12.1645 7.44581C11.6624 7.41004 12.3906 7.71727 12.0765 7.63495C11.7629 7.55214 11.3989 7.67023 11.0978 7.67023C10.7968 7.67023 10.6837 7.97745 10.6837 7.97745C10.6837 7.97745 10.8593 7.88288 11.0791 7.81184C11.2989 7.74128 11.9135 7.88288 11.9135 7.88288C11.6629 8.11906 11.6749 8.55565 11.6749 8.55565C11.4119 8.61445 11.1608 9.06328 11.1608 9.06328C11.2608 8.90991 11.6124 8.86238 11.6124 8.86238C11.6124 8.86238 11.6749 8.99223 11.5124 9.18137C11.3494 9.37002 11.3994 9.6062 11.3994 9.6062C11.3994 9.6062 11.4744 9.41755 11.5754 9.32298C11.6749 9.22841 11.9265 9.24017 11.9265 9.24017C11.8135 9.48811 12.2405 9.64148 12.2405 9.64148C12.115 9.85365 12.3541 10.0903 12.3156 10.0786C12.2786 10.0668 11.876 10.1962 11.876 10.1962C11.876 10.1962 12.4291 10.2079 12.1395 10.279C11.851 10.3495 11.3244 10.0663 11.3244 10.0663L10.7098 9.80661C10.7098 9.80661 10.9733 10.0428 10.6723 10.0075C10.3707 9.97222 10.0696 10.1138 9.80609 9.9487C9.54254 9.78309 9.10295 9.68852 9.19097 9.84238C9.27847 9.99623 9.40452 10.1491 9.40452 10.1491C8.92794 10.0545 9.16597 10.4558 8.81492 10.4211C8.46334 10.3853 8.75189 10.7043 8.41334 10.6097C8.07427 10.5151 7.74821 10.8694 7.74821 10.8694C7.86124 10.8101 8.22479 10.9047 8.22479 10.9047C8.08677 10.9517 8.14979 11.1992 8.14979 11.1992C7.82322 11.281 7.91124 11.7431 7.91124 11.7431C7.63519 11.7431 7.58519 11.9195 7.47216 12.0376C7.35966 12.1556 7.09559 12.1556 7.09559 12.1556C7.27997 12.2904 7.643 12.1983 7.77269 12.1596C7.65394 12.2321 7.67269 12.5569 7.67269 12.5569C7.44664 12.5922 7.64769 12.9112 7.59769 12.8754C7.54717 12.8402 7.42216 12.923 7.29664 13.0171C7.17111 13.1116 7.00809 13.1351 7.00809 13.1351C7.09559 13.2415 7.29664 13.2532 7.29664 13.2532C7.29664 13.2532 7.14559 13.5247 6.95756 13.584C6.76954 13.6423 6.24244 13.7604 6.10441 13.7726C5.96639 13.7844 5.66533 13.7726 5.38928 13.7016C5.11323 13.631 4.82468 13.7016 4.59863 13.6776C4.37258 13.654 4.23456 13.8667 4.23456 13.8667C4.23456 13.8667 4.42259 13.8079 4.58561 13.8432C4.74864 13.8785 4.79916 14.0201 4.97469 13.9495C5.15021 13.8785 5.51429 14.0441 5.51429 14.0441C5.51429 14.0441 5.38876 14.1146 5.21324 14.1739C5.03771 14.2327 4.79916 14.3033 4.59811 14.3391C4.39759 14.3743 4.15904 14.6463 4.32206 14.5159C4.48509 14.3861 4.58509 14.4924 4.81114 14.4567C5.03771 14.4214 5.25074 14.4096 5.25074 14.4096C5.25074 14.4096 5.10021 14.4096 4.98719 14.5395C4.87416 14.6698 4.56061 14.7879 4.38456 14.7879C4.20904 14.7879 3.92049 14.8707 3.75694 15.0711C3.59391 15.272 3.39287 15.3073 3.39287 15.3073C3.39287 15.3073 3.51839 15.4371 3.70694 15.3073C3.89496 15.177 3.93299 15.1182 4.20904 15.0711C4.48509 15.0236 4.77364 14.9295 4.77364 14.9295C4.62311 15.0476 4.53509 15.1892 4.28456 15.2245C4.03351 15.2603 3.64444 15.543 3.49391 15.6851C3.34338 15.8267 3.07983 15.9335 3.07983 15.9335C3.33036 16.0751 3.45641 15.8982 3.71996 15.7566C3.98351 15.615 4.12153 15.7091 4.43561 15.6263C4.74916 15.5435 4.71166 15.296 4.81166 15.2843C4.91219 15.273 5.17574 15.2843 5.25126 15.1662C5.32678 15.0486 5.27626 14.954 5.46481 14.954C5.65283 14.954 5.72784 14.8712 5.72784 14.8712C5.65231 15.0241 5.46481 15.1544 5.46481 15.1544C5.69086 15.2132 5.86638 15.0128 6.09243 14.8825C6.31848 14.7526 6.46901 14.7526 6.46901 14.7526C6.46901 14.7526 6.33098 14.977 6.18046 15.0006C6.02941 15.0241 5.85388 15.2725 5.85388 15.2725C5.95441 15.0716 6.43098 15.1069 6.60703 14.9653C6.78256 14.8237 7.02111 14.587 7.17163 14.5047C7.32216 14.4219 7.47269 14.2455 7.73624 14.0211C7.99979 13.7966 8.46386 13.8442 8.46386 13.8084C8.46386 13.7731 8.45136 14.1387 8.45136 14.1387L8.01229 14.1744L8.28834 14.3631C8.11281 14.292 7.86176 14.6228 7.86176 14.6228L8.29615 14.5752L8.38886 14.8119C8.52689 14.5395 8.62741 14.5988 8.62741 14.5988C8.77794 14.7639 8.79044 15.1417 8.79044 15.1417C8.79044 15.1417 8.58991 15.0941 8.36386 15.3421C8.13781 15.5905 8.55189 16.0624 8.55189 16.0624C8.55189 16.0624 8.47636 16.1687 8.55189 16.3696C8.62689 16.57 9.01596 16.7827 9.40504 16.6646C9.79411 16.5465 9.75661 16.0511 9.75661 16.0511C9.75661 16.0511 9.89464 15.9208 9.86912 15.6611C9.84412 15.4014 9.71859 15.2603 9.71859 15.2603C9.71859 15.2603 9.95714 15.1774 10.1077 15.3308C10.2582 15.4837 10.2957 15.838 10.2957 15.838C10.2957 15.838 10.4462 15.177 10.2207 15.0123C9.99516 14.8477 9.44254 14.8589 9.44254 14.8589C9.43004 14.587 9.17899 14.4336 9.11597 14.2567C9.05294 14.0799 9.15347 13.6428 9.15347 13.6428L9.46702 13.6668C9.46702 13.6668 9.44202 13.7731 9.66755 13.9265C9.8936 14.0794 10.2572 13.9735 10.2572 13.9735C10.2572 13.9735 10.6712 14.0088 10.8723 13.6668C11.0728 13.3248 10.6967 13.0528 10.6967 13.0528C10.6342 12.5099 9.78057 12.8171 9.78057 12.8171C9.8686 12.4511 10.2452 12.4511 10.2452 12.4511C10.2452 12.4511 9.80609 12.238 9.55504 12.3208C9.30399 12.4036 9.3915 12.994 9.19097 12.9705C8.99044 12.947 8.96492 12.3678 9.12795 11.919C9.29097 11.4706 10.1191 11.4471 10.9098 11.7426C11.6999 12.0371 12.8171 12.0964 12.8171 12.0964C12.7801 12.238 12.5791 12.4511 12.5791 12.4511L12.2275 12.3208L12.4406 12.5692C12.365 12.7461 12.1645 12.8759 12.1645 12.8759C12.3775 13.0175 12.6161 12.7343 12.6161 12.7343L12.7041 13.0768L12.9177 12.7936C12.9177 12.7936 13.3562 13.0886 13.7203 13.218C14.0838 13.3483 14.7875 13.4664 14.7875 13.4664C14.7875 13.4664 14.549 13.5727 14.7995 13.95C15.0505 14.3278 15.6276 14.4336 15.6276 14.4336C15.6276 14.4336 16.0672 14.6228 16.4678 14.292C16.8699 13.9613 16.5433 13.3596 16.5433 13.3596C16.5433 12.6638 15.7532 12.8818 15.7532 12.8818C15.9157 12.581 16.299 12.3796 16.299 12.3796C15.6776 12.0376 15.4146 12.7108 14.95 12.8524C14.4854 12.994 13.6698 12.5805 13.6328 12.5805C13.5948 12.5805 13.6573 12.5094 13.6698 12.3561C13.6823 12.2032 14.0588 11.9077 14.2469 11.5417C14.4354 11.1757 14.3854 10.5734 14.3854 10.5734C14.6359 10.3378 14.9755 10.5142 14.9755 10.5142C14.963 10.7621 14.7995 10.8684 14.7995 10.8684C14.9875 10.8802 15.0755 10.7146 15.0755 10.7146C14.9875 10.9743 15.2766 11.2815 15.2766 11.2815L15.3641 10.8797L15.6276 11.1634L15.4651 10.644C15.9667 10.644 16.4938 10.3015 16.4938 10.3015C16.4938 10.3015 16.7449 10.644 17.247 10.644C17.7485 10.644 18.2506 10.1364 18.2506 9.91195C18.2506 9.68754 17.7991 9.36904 17.7991 9.36904C17.7991 9.36904 17.9746 8.99125 17.31 8.99125C16.6454 8.99125 16.4443 9.7532 16.4443 9.7532C16.4443 9.7532 16.1678 9.64099 15.7912 9.73458C15.4151 9.82915 14.8005 9.53417 14.424 9.35728C14.0469 9.18039 13.5203 8.69579 13.5203 8.69579C13.5203 8.53066 13.6182 8.27047 13.6182 8.27047C13.6182 8.27047 14.1599 8.30624 13.9974 8.36504C13.8338 8.42433 13.4078 8.54242 13.7468 8.56594C14.0849 8.58946 14.4115 8.45961 14.3109 8.56594C14.2109 8.67227 13.8343 8.9202 13.9849 8.9202C14.1354 8.9202 14.3364 8.74283 14.437 8.71931C14.537 8.69579 14.7125 8.75459 14.9641 8.75459C15.0307 8.75459 15.1011 8.71833 15.1682 8.66688C15.4266 8.78203 15.8089 9.12453 15.9928 9.2975C16.2188 9.50967 16.3563 9.22645 16.4574 9.09709C16.5152 9.02212 16.3563 8.88149 16.1849 8.75459C16.2136 8.72127 16.2428 8.68844 16.2688 8.66002C16.2823 8.64532 16.3047 8.63503 16.3251 8.62376L16.6131 8.72176C16.6146 8.92657 16.6079 9.20342 16.6079 9.20342C16.7464 9.11081 16.7527 8.92461 16.7553 8.76782C16.9527 8.83201 17.1256 8.881 17.236 8.88443C17.5996 8.89619 17.8376 8.77811 18.1767 8.74283C18.5152 8.70755 18.5402 9.00301 18.5402 9.00301C18.5402 9.00301 18.6788 8.90844 18.4777 8.71931C18.2772 8.53017 18.0131 8.54242 18.0131 8.54242C18.0131 8.27047 17.6647 8.28272 17.6647 8.28272C17.9564 8.43609 17.6621 8.60122 17.6621 8.60122C17.6996 8.44785 17.3355 8.35426 17.3355 8.35426C17.3355 8.35426 17.5741 8.45961 17.4241 8.58897C17.3303 8.66982 17.2011 8.66933 17.0402 8.6463C17.0589 8.56496 17.0923 8.44099 17.147 8.32927C17.2355 8.15238 17.0845 7.97549 17.0845 7.97549L17.2475 7.69179C17.2475 7.69179 17.7871 7.60898 17.9371 7.53842C18.0881 7.46737 18.2381 7.40808 18.6147 7.42033C18.9918 7.43209 19.0798 7.23168 19.0798 7.23168C18.9152 7.32772 18.4381 7.19836 18.2501 7.21012ZM15.7532 7.97745C15.8787 7.89513 15.9542 7.96569 15.9542 7.96569L16.0532 8.17835L16.1797 7.91865L16.3553 8.0485L16.2558 8.21363L16.6324 8.16659L16.5949 8.28468C16.5949 8.28468 16.461 8.39787 16.3297 8.49734C16.0698 8.42139 15.7677 8.31408 15.5516 8.20432C15.5927 8.13866 15.6688 8.03282 15.7532 7.97745ZM16.1792 8.60269C16.1434 8.62538 16.1145 8.65645 16.0954 8.69285C16 8.62572 15.9105 8.56643 15.8662 8.53213C15.8164 8.49654 15.7628 8.46599 15.7063 8.44099C15.8657 8.47921 16.0339 8.52968 16.2037 8.58603L16.1792 8.60269ZM16.5386 8.55418C16.5766 8.54781 16.6058 8.54389 16.6058 8.54389L16.6074 8.56986C16.585 8.56496 16.5636 8.56055 16.5386 8.55418ZM16.7704 8.60269C16.7948 8.5186 16.8474 8.44418 16.9204 8.39052C16.9152 8.48411 16.9318 8.56594 16.9511 8.63552L16.7704 8.60269Z" fill="white"/>
</g>
<defs>
<clipPath id="clip0_6001_773">
<rect width="21.9971" height="21.9971" fill="white"/>
</clipPath>
</defs>
</svg>
