<?xml version="1.0" encoding="UTF-8"?>
<svg width="24px" height="24px" viewBox="0 0 24 24" version="1.1" xmlns="http://www.w3.org/2000/svg" xmlns:xlink="http://www.w3.org/1999/xlink">
    <!-- Generator: Sketch 63.1 (92452) - https://sketch.com -->
    <title>esports_lol</title>
    <desc>Created with Sketch.</desc>
    <g id="Classifier" stroke="none" stroke-width="1" fill="none" fill-rule="evenodd">
        <g id="esports_lol">
            <g id="Group">
                <path d="M12,0 C18.627417,0 24,5.372583 24,12 C24,18.627417 18.627417,24 12,24 C5.372583,24 0,18.627417 0,12 C0,5.372583 5.372583,0 12,0 Z M12,1 C5.92486775,1 1,5.92486775 1,12 C1,18.0751322 5.92486775,23 12,23 C18.0751322,23 23,18.0751322 23,12 C23,5.92486775 18.0751322,1 12,1 Z" id="Oval" fill="#FFFFFF" fill-rule="nonzero"></path>
                <path d="M12,1 C5.92486775,1 1,5.92486775 1,12 C1,18.0751322 5.92486775,23 12,23 C18.0751322,23 23,18.0751322 23,12 C23,5.92486775 18.0751322,1 12,1 Z" id="Path-Copy" fill="#503F32" fill-rule="nonzero"></path>
                <path d="M11.1759783,7 L11.1759783,7.45126027 C11.1759783,9.95727194 11.1737281,12.4633506 11.1800432,14.9693623 C11.1806239,15.1839738 11.2388395,15.3984514 11.2717945,15.6236461 L16.6334331,15.6236461 C16.2169233,16.1311716 15.8687188,16.6217505 15.4141002,17 L7.93311023,17 C8.31085808,16.6225543 8.59939531,16.3341952 8.85751818,16.0761791 L8.85751818,7.8160463 C8.61971995,7.55829811 8.38489783,7.30376508 8.10463563,7 L11.1759783,7 Z M8.61511061,9.00142672 L8.61511061,9.81780793 C8.26995476,10.3000141 7.91071683,10.790392 7.78259905,11.3596083 C7.67001509,11.8598997 7.42691793,12.3673581 7.68765397,12.9020785 C7.77454178,13.0802516 7.63989107,13.318173 7.82143362,13.4895809 C7.80081863,13.9368892 8.1030024,14.287274 8.32838808,14.6221859 C8.57366287,14.98657 8.6490092,15.3245631 8.61707049,15.7577381 C8.28926316,15.674747 8.10314757,15.4558486 7.95753608,15.2587194 C7.6470047,14.8380701 7.34242552,14.4033545 7.17685234,13.9099623 C7.09686038,13.671773 7.03610424,13.4215268 7.01853795,13.173625 C6.9922611,12.8025427 7.03465248,12.4271734 7.00576246,12.056426 C6.97157352,11.6188971 7.09381169,11.2013959 7.25865899,10.8191945 C7.55176926,10.1394573 7.94737376,9.49930673 8.61511061,9.00142672 Z M16.213548,10.0172948 C17.2551855,11.5909118 17.3734313,13.4216072 15.8877731,15.2859947 L15.0645528,15.2859947 C15.3138199,14.9453223 15.5570623,14.6529442 15.7517432,14.3351798 C15.9354634,14.0354337 16.0404982,13.7003878 16.1674546,13.3749874 C16.3174214,12.9905086 16.2314046,12.6173498 16.2626174,12.2409088 C16.2925237,11.8806776 16.1732616,11.5475073 16.0570483,11.2032848 C15.93677,10.8471395 15.7668415,10.5286383 15.5513278,10.2229307 C15.3471378,9.93343291 15.1144207,9.6727375 14.8332875,9.43495006 C14.5295794,9.17820661 14.2169429,8.95448547 13.8433326,8.7989524 C13.4994107,8.65581106 13.1545452,8.53879284 12.7786121,8.46082536 C12.3692159,8.37602567 11.9643927,8.39886666 11.5415677,8.36283014 L11.5415677,7.84740075 C13.5412214,7.75061121 15.1780078,8.45292144 16.213548,10.0172948 Z" id="Combined-Shape" fill="#DEBB69"></path>
            </g>
        </g>
    </g>
</svg>