<svg width="24" height="24" viewBox="0 0 24 24" fill="none" xmlns="http://www.w3.org/2000/svg">
<g clip-path="url(#clip0_701_52856)">
<circle cx="12" cy="12" r="12" fill="white"/>
<circle cx="12" cy="12" r="11" fill="#503F32"/>
<path fill-rule="evenodd" clip-rule="evenodd" d="M15.8988 6.60714V8.66543H12.5863L12.6039 7.04345C11.9074 6.41539 11.3664 7.02584 11.3664 7.02584L11.384 9.74545C11.4711 9.20446 13.1615 9.23968 13.1615 9.23968C15.619 9.23968 15.8988 10.6513 15.8988 10.6513V17.554C15.4448 20.4116 11.837 19.9763 11.837 19.9763C7.82602 20.0643 8.00113 17.467 8.00113 17.467V6.60714C8.29638 3.71772 11.9443 4.00547 11.9987 4.00976C15.8903 3.85422 15.8988 6.60714 15.8988 6.60714ZM12.9414 12.5345C12.9414 12.5345 11.8849 13.1127 11.6618 12.4641L11.6628 12.4631H10.7912V12.5502H10.5955V12.7331H10.5006V12.9356H10.5965L10.5994 13.0051V17.9904H10.4987V18.2584H10.7638V18.3562H11.5581V18.2467H11.6638V15.6542C11.6638 15.6542 11.9514 15.2776 12.6157 15.3608V14.0058C12.6157 14.0058 13.1928 13.7084 14.2641 13.7084V12.469C14.2641 12.469 13.8659 11.9016 12.9414 12.5345ZM11.7469 14.4892V15.2522H12.5256V14.1956L12.416 14.0049H12.236L12.2409 14.1849C12.2409 14.1849 12.4258 14.2171 12.4483 14.3326L12.3789 14.3981C12.3789 14.3981 12.1816 14.0982 11.7469 14.4892Z" fill="#DEBB69"/>
</g>
<defs>
<clipPath id="clip0_701_52856">
<rect width="24" height="24" fill="white"/>
</clipPath>
</defs>
</svg>
