<svg xmlns="http://www.w3.org/2000/svg" width="24" height="24"><g fill="none" fill-rule="evenodd"><path fill="#5AA587" fill-rule="nonzero" d="M12 23.5a11.5 11.5 0 1 1 0-23 11.5 11.5 0 0 1 0 23Z"/><g fill="#F5F5F5" fill-rule="nonzero"><path d="M13.51 15.26a4.67 4.67 0 0 0 5.22-2.32 4.7 4.7 0 0 0-5.6.32v-.02c1.97-1.76 4.16-1.2 4.16-1.2l.52-.44s-2.21-.76-4.19.88c1.22-2.37-.1-4.4-.1-4.4l-.3.6s1.1 2.02-.19 4.37A4.66 4.66 0 0 0 12 7.5a4.7 4.7 0 0 0-1.03 5.55c-1.29-2.35-.19-4.37-.19-4.37l-.3-.6s-1.32 2.03-.1 4.4c-1.98-1.64-4.19-.88-4.19-.88l.52.45s2.2-.57 4.15 1.2l.02.01a4.65 4.65 0 0 0-5.6-.32 4.7 4.7 0 0 0 5.2 2.32c-2.63.74-4.35-.85-4.35-.85l-.67.15s2.67 2.86 6.54.05c3.87 2.81 6.54-.05 6.54-.05l-.66-.15s-1.73 1.6-4.37.85ZM8.15 18.55c.28.28.56.53.86.75H15c.3-.22.58-.47.86-.75h-7.7Z"/><path d="M9.55 19.23c.76.48 1.59.75 2.45.75.86 0 1.69-.27 2.45-.75h-4.9ZM6.53 17.19l.28.75H17.2l.28-.75H6.53Z"/><path d="M7.2 17.85c.15.26.3.51.47.75h8.66c.16-.24.32-.49.47-.75H7.2ZM15.05 16.38a4.47 4.47 0 0 1-2.89-1.16l-.16-.16-.16.16a4.45 4.45 0 0 1-2.89 1.16H5.9l.33.45h2.72c1.54 0 2.65-.8 3.05-1.14.4.34 1.51 1.14 3.05 1.14h2.72l.33-.45h-3.05Z"/></g><g fill="#FFE15A" fill-rule="nonzero"><path d="m11.92 4.4-.27.8-.84.02c-.08 0-.12.1-.05.15l.68.5-.26.8c-.02.08.07.15.13.1l.69-.5.69.5c.06.05.15-.02.13-.1l-.26-.8.68-.5a.08.08 0 0 0-.05-.15l-.84-.01-.27-.8a.08.08 0 0 0-.16 0ZM7.92 6.05l.16.56-.49.33c-.04.03-.02.1.03.1l.59.03.16.56c.02.05.1.06.11 0l.2-.54.59.02c.05 0 .08-.07.04-.1l-.46-.37.2-.55a.06.06 0 0 0-.09-.07l-.49.32L8.01 6a.06.06 0 0 0-.09.06ZM5.59 8.88l.42.4-.24.53c-.03.05.03.1.08.08l.51-.28.43.4c.04.03.1 0 .1-.06l-.1-.57.5-.29a.06.06 0 0 0-.02-.1l-.58-.08-.11-.57a.06.06 0 0 0-.11-.02l-.25.53-.58-.07a.06.06 0 0 0-.05.1ZM16.21 6.05l-.15.56.48.33c.04.03.02.1-.03.1l-.58.03-.17.56a.06.06 0 0 1-.1 0l-.21-.54-.59.02a.06.06 0 0 1-.03-.1l.45-.37-.2-.55a.06.06 0 0 1 .1-.07l.48.32.46-.35c.04-.04.1 0 .1.06ZM18.54 8.88l-.42.4.25.53c.02.05-.04.1-.08.08l-.52-.28-.43.4c-.04.03-.1 0-.1-.06l.11-.57-.5-.29a.06.06 0 0 1 .01-.1l.58-.08.11-.57a.06.06 0 0 1 .11-.02l.26.53.58-.07c.05 0 .08.06.04.1Z"/></g><circle cx="12" cy="12" r="11.5" stroke="#FFF"/></g></svg>