<?xml version="1.0" encoding="UTF-8"?>
<svg width="24px" height="24px" viewBox="0 0 24 24" version="1.1" xmlns="http://www.w3.org/2000/svg" xmlns:xlink="http://www.w3.org/1999/xlink">
    <!-- Generator: Sketch 63.1 (92452) - https://sketch.com -->
    <title>esports_artifact</title>
    <desc>Created with Sketch.</desc>
    <g id="Classifier" stroke="none" stroke-width="1" fill="none" fill-rule="evenodd">
        <g id="esports_artifact">
            <path d="M12,0 C18.627417,0 24,5.372583 24,12 C24,18.627417 18.627417,24 12,24 C5.372583,24 0,18.627417 0,12 C0,5.372583 5.372583,0 12,0 Z M12,1 C5.92486775,1 1,5.92486775 1,12 C1,18.0751322 5.92486775,23 12,23 C18.0751322,23 23,18.0751322 23,12 C23,5.92486775 18.0751322,1 12,1 Z" id="Oval" fill="#FFFFFF" fill-rule="nonzero"></path>
            <path d="M12,1 C5.92486775,1 1,5.92486775 1,12 C1,18.0751322 5.92486775,23 12,23 C18.0751322,23 23,18.0751322 23,12 C23,5.92486775 18.0751322,1 12,1 Z" id="Path-Copy" fill="#503F32" fill-rule="nonzero"></path>
            <g transform="translate(5.000000, 7.000000)" fill="#DEBB69" id="Combined-Shape">
                <path d="M9.54120654,3.87132452 L11.4590881,4.25831473 L6.97567444,12.1252867 L4.9069968,8.56052248 L9.54120654,3.87132452 Z M3.99028276,-9.86598191e-15 L5.75567664,6.4075694 L4.45595528,7.74264904 L1.07541603e-14,-9.86598191e-15 L3.99028276,-9.86598191e-15 Z M5.75567664,2.71088224 L8.66919837,3.47185731 L6.46934478,5.80574721 L5.75567664,2.71088224 Z M13.979442,-9.60192886e-17 L11.939798,3.47185731 L5.4740297,1.73592866 L5.10297104,-9.60192886e-17 L13.979442,-9.60192886e-17 Z"></path>
            </g>
        </g>
    </g>
</svg>