<?xml version="1.0" encoding="UTF-8"?>
<svg width="24px" height="24px" viewBox="0 0 24 24" version="1.1" xmlns="http://www.w3.org/2000/svg" xmlns:xlink="http://www.w3.org/1999/xlink">
    <!-- Generator: Sketch 55.1 (78136) - https://sketchapp.com -->
    <title>Flags/indianapolis</title>
    <desc>Created with Sketch.</desc>
    <g id="Icons" stroke="none" stroke-width="1" fill="none" fill-rule="evenodd">
        <g id="Flags/indianapolis">
            <g id="indianapolis">
                <circle id="bg" fill="#FFFFFF" cx="12" cy="12" r="12"></circle>
                <path d="M12,16 C9.790861,16 8,14.209139 8,12 C8,9.790861 9.790861,8 12,8 C14.209139,8 16,9.790861 16,12 C16,14.209139 14.209139,16 12,16 Z M11.2642625,11 L8.91604797,11 L10.8207245,12.3898547 L10.1034803,14.6220661 L12,13.2490288 L13.9032359,14.6220661 L13.1713592,12.3898547 L15.0784559,11 L12.7215064,11 L12,8.75445075 L11.2642625,11 Z" id="Combined-Shape" fill="#C1012B"></path>
                <path d="M14.5,1.28533429 C18.5675584,2.23064806 21.7693519,5.43244159 22.7146657,9.5 L18.5403712,9.5 C17.8308992,7.64502965 16.3549704,6.16910083 14.5,5.45962882 L14.5,1.28533429 Z M1.28533429,9.5 C2.23064806,5.43244159 5.43244159,2.23064806 9.5,1.28533429 L9.5,5.45962882 C7.64502965,6.16910083 6.16910083,7.64502965 5.45962882,9.5 L1.28533429,9.5 Z M22.7146657,14.5 C21.7693519,18.5675584 18.5675584,21.7693519 14.5,22.7146657 L14.5,18.5403712 C16.3549704,17.8308992 17.8308992,16.3549704 18.5403712,14.5 L22.7146657,14.5 Z M9.5,22.7146657 C5.43244159,21.7693519 2.23064806,18.5675584 1.28533429,14.5 L5.45962882,14.5 C6.16910083,16.3549704 7.64502965,17.8308992 9.5,18.5403712 L9.5,22.7146657 Z" id="Combined-Shape" fill="#00266A"></path>
            </g>
        </g>
    </g>
</svg>