<?xml version="1.0" encoding="UTF-8"?>
<svg width="24px" height="24px" viewBox="0 0 24 24" version="1.1" xmlns="http://www.w3.org/2000/svg" xmlns:xlink="http://www.w3.org/1999/xlink">
    <!-- Generator: Sketch 55.1 (78136) - https://sketchapp.com -->
    <title>Flags/taiwan</title>
    <desc>Created with Sketch.</desc>
    <g id="Icons" stroke="none" stroke-width="1" fill="none" fill-rule="evenodd">
        <g id="Flags/taiwan">
            <g id="taiwan">
                <g id="Group" transform="translate(0.500000, 0.500000)" fill-rule="nonzero">
                    <path d="M23,11.5 C23,17.8512746 17.8512746,23 11.5,23 C5.14872538,23 0,17.8512746 0,11.5 L11.5,0 C17.8512746,0 23,5.14872538 23,11.5 Z" id="Path" fill="#D80027"></path>
                    <path d="M11.5,11.5 L11.5,0 C5.14872538,0 0,5.14872538 0,11.5 L11.5,11.5 Z" id="Path" fill="#0052B4"></path>
                </g>
                <polygon id="Path" fill="#EEEEEE" fill-rule="nonzero" points="10.434375 7.021875 8.9671875 7.7109375 9.75 9.13125 8.15625 8.8265625 7.9546875 10.434375 6.8484375 9.253125 5.7375 10.434375 5.5359375 8.8265625 3.9421875 9.13125 4.725 7.7109375 3.2625 7.021875 4.725 6.3328125 3.946875 4.9125 5.540625 5.2171875 5.7375 3.609375 6.8484375 4.7953125 7.9546875 3.609375 8.15625 5.2171875 9.75 4.9125 8.9671875 6.3328125"></polygon>
                <circle id="Oval" fill="#0052B4" fill-rule="nonzero" cx="6.8484375" cy="7.021875" r="2.2359375"></circle>
                <path d="M6.84375,8.21250232 C6.41838065,8.21082533 6.02621659,7.98234602 5.81498223,7.61312801 C5.60374787,7.24391001 5.60553474,6.79004632 5.81966973,6.422503 C6.03380473,6.05495968 6.42775565,5.82957531 6.853125,5.83124073 C7.27849434,5.83208734 7.67110511,6.05979292 7.88306462,6.42859225 C8.09502413,6.79739157 8.0941307,7.25125526 7.88072087,7.61921725 C7.66731104,7.98717923 7.27380684,8.21333734 6.8484375,8.21250232 L6.84375,8.21250232 Z" id="Path" fill="#EEEEEE" fill-rule="nonzero"></path>
                <circle id="Oval" stroke="#FFFFFF" cx="12" cy="12" r="11.5"></circle>
            </g>
        </g>
    </g>
</svg>