<?xml version="1.0" encoding="UTF-8"?>
<svg width="24px" height="24px" viewBox="0 0 24 24" version="1.1" xmlns="http://www.w3.org/2000/svg" xmlns:xlink="http://www.w3.org/1999/xlink">
    <!-- Generator: Sketch 63.1 (92452) - https://sketch.com -->
    <title>esports_pubg</title>
    <desc>Created with Sketch.</desc>
    <g id="Classifier" stroke="none" stroke-width="1" fill="none" fill-rule="evenodd">
        <g id="esports_pubg">
            <path d="M12,0 C18.627417,0 24,5.372583 24,12 C24,18.627417 18.627417,24 12,24 C5.372583,24 0,18.627417 0,12 C0,5.372583 5.372583,0 12,0 Z M12,1 C5.92486775,1 1,5.92486775 1,12 C1,18.0751322 5.92486775,23 12,23 C18.0751322,23 23,18.0751322 23,12 C23,5.92486775 18.0751322,1 12,1 Z" id="Oval" fill="#FFFFFF" fill-rule="nonzero"></path>
            <path d="M12,1 C5.92486775,1 1,5.92486775 1,12 C1,18.0751322 5.92486775,23 12,23 C18.0751322,23 23,18.0751322 23,12 C23,5.92486775 18.0751322,1 12,1 Z" id="Path-Copy" fill="#503F32" fill-rule="nonzero"></path>
            <path d="M18.5849301,7 L18.819005,7.23562064 L18.819005,7.23562064 L18.819005,8.43893381 C19.1414,8.91443131 19.5900437,8.62980944 19.9934979,8.74625558 L19.9934979,9.57556601 L18.8567171,9.57556601 L18.8567171,14.1021233 L20,14.1021233 L20,14.9493317 C19.7074063,14.9645014 19.3784009,14.9814172 19.0260964,14.9995334 C18.6369467,15.4418541 18.9157777,15.9897076 18.8037252,16.4760094 C18.7465068,16.5336322 18.6854956,16.5950747 18.5941414,16.6870748 L5.23593755,16.6870748 C5.15791256,16.6086074 5.09700972,16.5470557 5.0061973,16.4556013 L5.0061973,15.2591636 C4.74459684,14.8186981 4.35295472,15.0477707 4.00671882,14.9535879 L4.00671882,14.1153285 L4.97596261,14.1153285 L4.97596261,9.62020188 C4.68510278,9.60372262 4.35685597,9.58516982 4,9.56498 L4,8.74112628 L4.98799147,8.74112628 L4.98799147,7.2441331 C5.16051339,7.15486136 5.30323411,7.08097754 5.45982593,7 L18.5849301,7 Z M17.9299536,8.06460366 L5.89752447,8.06460366 L5.89752447,15.614177 C5.98530258,15.7025756 6.04620543,15.763909 6.11534424,15.8334275 L17.9299536,15.8334275 L17.9299536,8.06460366 Z M14.3035904,9.2545479 L14.3035904,11.5615348 C14.1461316,11.7093024 14.0479502,11.8015208 13.9094558,11.9316087 C14.0904304,11.9955613 14.1904541,12.0310299 14.3115012,12.0738105 L14.3115012,14.4566456 C13.6382106,14.3717392 12.936094,14.6479577 12.2604192,14.2729728 C12.2604192,13.7082036 12.2732067,13.1909077 12.2547841,12.6747031 C12.246223,12.432207 12.3523154,12.1697394 12.1196492,11.9455778 C12.0456338,11.8744224 12.0388066,11.6413118 12.0973253,11.5371978 C12.3680287,11.0558071 12.2079691,10.539166 12.2660544,10.0427148 C12.2970476,9.77817357 12.3864513,9.5207261 12.4507135,9.2545479 L14.3035904,9.2545479 Z M17.2531301,9.41150464 L17.2531301,10.6024857 L16.4340845,10.6024857 C16.4189129,10.4133562 16.401574,10.1966157 16.3823929,9.95815761 L15.749957,9.95815761 L15.749957,13.74293 L16.4050418,13.74293 C16.4050418,13.3410981 16.433651,12.9402483 16.3968059,12.545401 C16.3613695,12.165505 16.2582031,11.7919388 16.1884141,11.4344153 C16.6206942,11.1459737 16.9119875,11.4656277 17.2531301,11.5606835 L17.2531301,14.2113338 C17.1774892,14.2876186 17.1163697,14.3491703 17.0323844,14.4336401 L15.0863111,14.4336401 C14.8816038,14.2989686 14.8419411,14.1003444 14.8443252,13.8481354 C14.8576545,12.3992703 14.8508273,10.9501871 14.8508273,9.50023071 C14.9721995,9.37800046 15.0332107,9.31644879 15.1221809,9.22695879 C15.8068502,9.34580588 16.5588161,9.03684709 17.2531301,9.41150464 Z M9.93939246,9.26069215 C9.74996512,9.93950659 9.86537709,10.6377469 9.84706289,11.3282387 C9.82777338,12.0513616 9.84272817,12.7754667 9.84272817,13.4785089 C10.1100721,13.8442174 10.389445,13.769024 10.6927671,13.724279 L10.6927671,9.27531613 L11.5514755,9.27531613 L11.5514755,14.2142914 C11.4887304,14.2773709 11.4277192,14.3388134 11.338749,14.4285217 L9.38292255,14.4285217 L9.17398896,14.2181111 L9.17398896,9.26069215 L9.93939246,9.26069215 Z M8.36715635,9.23170612 L8.60350706,9.46961858 L8.60350706,12.1395856 C8.55257408,12.1908787 8.47108131,12.2728384 8.35902875,12.3854649 L7.43497443,12.3854649 L7.43497443,14.4236543 L6.57669952,14.4236543 L6.57669952,9.42138128 C7.15170036,9.06429433 7.79085509,9.32905379 8.36715635,9.23170612 Z M13.6132859,12.0370323 L13.152505,12.0370323 L13.152505,13.7460731 L13.6132859,13.7460731 L13.6132859,12.0370323 Z M7.42500457,9.96792512 C7.42500457,10.5033373 7.42283721,11.0413686 7.43042297,11.5791818 C7.43085645,11.6114855 7.50974838,11.6425887 7.59546751,11.7066504 C7.6890975,11.634731 7.79443124,11.5538626 7.94311219,11.4397083 C7.94311219,11.0258716 7.94592976,10.6529602 7.94224525,10.2801579 C7.93899421,9.9608314 7.9356348,9.9608314 7.42500457,9.96792512 Z M13.6285658,9.96501124 L13.1199946,9.96501124 C13.1367916,10.4402905 13.0986461,10.8868674 13.1414515,11.2963388 L13.6285658,11.2963388 L13.6285658,9.96501124 Z" id="Combined-Shape" fill="#DEBB69"></path>
        </g>
    </g>
</svg>