<svg xmlns="http://www.w3.org/2000/svg" width="24" height="24"><g fill="none" fill-rule="evenodd"><g fill-rule="nonzero"><path fill="#FF4B55" d="M15.833 22.846V1.154C20.3 2.733 23.5 6.993 23.5 12s-3.2 9.267-7.667 10.846Z"/><path fill="#FFE15A" d="M15.834 1.154v21.692c-1.2.423-2.49.654-3.834.654-1.344 0-2.634-.23-3.833-.654V1.154A11.481 11.481 0 0 1 12 .5c1.344 0 2.635.23 3.834.654Z"/><path fill="#41479B" d="M8.167 1.154v21.692C3.7 21.267.5 17.007.5 12S3.7 2.733 8.167 1.154Z"/></g><path fill="#FFCD5A" fill-rule="nonzero" d="m13.673 14.669-.388.316-.938-1.151.387-.316z"/><path fill="#FFBE5A" fill-rule="nonzero" d="m13.25 13.94-.413.337-.413-.507.413-.336z"/><path fill="#FFCD5A" fill-rule="nonzero" d="m11.38 13.518.388.316-.938 1.15-.387-.316z"/><path fill="#FFBE5A" fill-rule="nonzero" d="m11.278 13.434.412.335-.413.507-.412-.335z"/><path fill="#FFE15A" fill-rule="nonzero" d="m11.725 13.949-.664 1.328.93.664v-1.859z"/><path fill="#FFCD5A" fill-rule="nonzero" d="m12.256 13.949.664 1.328-.929.664v-1.859z"/><path fill="#FFBE5A" fill-rule="nonzero" d="M10.132 13.95v-3.453h.5v2.656c0 .398-.5.796-.5.796Z"/><path fill="#FFCD5A" fill-rule="nonzero" d="M9.866 14.613v-4.116h.5v3.32c0 .398-.5.796-.5.796Z"/><path fill="#FFE15A" fill-rule="nonzero" d="M9.6 15.144v-4.647h.5v3.85c0 .399-.5.797-.5.797Z"/><path fill="#FF4B55" fill-rule="nonzero" d="M10.53 10.63v2.523c0 .664.963.575 1.46 1.062.499-.487 1.462-.398 1.462-1.062V10.63H10.53Z"/><path fill="#41479B" fill-rule="nonzero" d="M10.53 12.09v1.063c0 .664.963.575 1.46 1.062.499-.487 1.462-.398 1.462-1.062V12.09H10.53Z"/><g fill="#FFE15A" fill-rule="nonzero"><path d="m11.99 13.817-.397-.266v-.133l.133-.133v-.796l-.4-.266.4-.531h.132l.133.133.133-.133h.133l.398.531-.398.266v.796l.133.133v.133z"/><path d="M11.46 10.763s-.531.132-.531.663c0 .532.53.797.53.797l.266-.398c-.796-.266-.265-1.062-.265-1.062ZM12.522 10.763s.531.132.531.663c0 .532-.531.797-.531.797l-.266-.398c.797-.266.266-1.062.266-1.062ZM10.663 12.208l.266.25.266-.25-.266-.25zM12.788 12.208l.266.25.265-.25-.265-.25zM11.99 10.829l.098.099.138-.002-.002.138.099.097-.1.096.003.139-.138-.002-.097.099-.096-.099-.138.002v-.139l-.098-.096.099-.097-.001-.138.138.002zM11.09 12.67l.095.107.133-.053a.078.078 0 0 1 .097.112l-.072.124.091.11a.078.078 0 0 1-.076.126l-.14-.03-.077.122a.078.078 0 0 1-.144-.034l-.015-.143-.138-.035a.078.078 0 0 1-.013-.147l.131-.059-.009-.143a.078.078 0 0 1 .136-.057ZM12.858 12.973a.342.342 0 0 1 .299-.274.343.343 0 1 0-.124.64.342.342 0 0 1-.175-.366ZM11.46 10.63l.265-1.328-.53-.398.132-.133h.265s.133-.133.399-.133c.265 0 .531.133.531.531 0 .399.133 1.46.133 1.46H11.46Z"/></g><path fill="#FFAA5A" fill-rule="nonzero" d="M10.53 10.099a.531.531 0 0 0-.53.53h1.061a.531.531 0 0 0-.53-.53Z"/><g fill="#FFBE5A" fill-rule="nonzero"><path d="M10.397 10.63h-.796v-.884c0-.172.14-.311.311-.311h.174c.172 0 .312.14.312.311v.884ZM13.951 13.95v-3.453h-.5v2.656c0 .398.5.796.5.796Z"/></g><path fill="#FFCD5A" fill-rule="nonzero" d="M14.217 14.613v-4.116h-.5v3.32c0 .398.5.796.5.796Z"/><path fill="#FFE15A" fill-rule="nonzero" d="M14.483 15.144v-4.647h-.5v3.85c0 .399.5.797.5.797Z"/><path fill="#FFAA5A" fill-rule="nonzero" d="M13.451 10.099c.294 0 .532.237.532.53H12.92c0-.293.238-.53.531-.53Z"/><path fill="#FFBE5A" fill-rule="nonzero" d="M13.584 10.63h.797v-.884a.311.311 0 0 0-.311-.311h-.175a.311.311 0 0 0-.31.311v.884Z"/><path fill="#FFAA5A" fill-rule="nonzero" d="m14.952 12.038.427.26-1.86 3.054-.427-.26z"/><path fill="#FFE15A" fill-rule="nonzero" d="m13.832 14.605-.332.415-.39-.312.331-.415z"/><path fill="#FFCD5A" fill-rule="nonzero" d="m14.894 12.003.427.26-.399.655-.427-.26z"/><g fill="#73AF00" fill-rule="nonzero"><path d="m9.106 12.19 1.874 2.9-.42.27-1.874-2.898z"/><path d="M10.285 13.565a.4.4 0 0 0-.087.23.399.399 0 0 0-.211-.12.399.399 0 0 0 .022.242.401.401 0 0 0-.245-.015c.02.098.099.204.221.277a.451.451 0 0 0 .349.063l.027-.018a.451.451 0 0 0 .086-.344.451.451 0 0 0-.162-.315Z"/></g><circle cx="10.348" cy="14.233" r="1" fill="#FF4B55" fill-rule="nonzero"/><path fill="#73AF00" fill-rule="nonzero" d="M9.78 12.784a.4.4 0 0 0-.087.23.399.399 0 0 0-.21-.119.399.399 0 0 0 .022.241.401.401 0 0 0-.246-.015c.02.098.1.204.221.277a.451.451 0 0 0 .35.064l.027-.018a.451.451 0 0 0 .085-.344.451.451 0 0 0-.162-.316Z"/><circle cx="9.843" cy="13.453" r="1" fill="#FF4B55" fill-rule="nonzero"/><path fill="#73AF00" fill-rule="nonzero" d="M9.276 12.004a.4.4 0 0 0-.087.23.399.399 0 0 0-.211-.12.399.399 0 0 0 .022.242.401.401 0 0 0-.245-.015c.019.098.099.204.22.277a.451.451 0 0 0 .35.063l.027-.018a.451.451 0 0 0 .085-.344.451.451 0 0 0-.161-.315Z"/><circle cx="9.338" cy="12.672" r="1" fill="#FF4B55" fill-rule="nonzero"/><g fill="#FFE15A" fill-rule="nonzero"><path d="m10.607 14.346.332.415-.39.312-.332-.415zM11.195 8.373h.5v.929h-.5z"/><path d="M11.062 8.506h.5v.5h-.5z"/></g><path fill="#FF875A" fill-rule="nonzero" d="m11.194 8.925.5.346v-.5h-.333z"/><path fill="#FFAA5A" fill-rule="nonzero" d="M11.327 8.372v.133h.133v.133h-.133v.133h.266s.132-.133.398-.133c.265 0 .531.133.531.531 0 .399.133 1.46.133 1.46h.265a.531.531 0 0 1 .664-.511v-.285a.398.398 0 0 1 .797 0V12.975l.171-.282-.056-.034.398-.655.057.035.085.051.142.087-.399.654-.056-.034-.342.56v1.787s-.317-.318-.385-.67a1.733 1.733 0 0 1-.154-.232l-.152.25.142.113-.332.415-.088-.07-.15.246-.17-.103.163-.269-.08-.063.114-.141-.349-.428-.103.084-.31-.38c-.082.033-.163.07-.242.111l.635 1.27-.93.664-.929-.664.635-1.27a2.173 2.173 0 0 0-.143-.07l-.276.34-.103-.085-.348.428.113.14-.113.09.154.24-.112.071-.147-.227-.107.086-.331-.415.149-.119-.08-.122h-.005a.13.13 0 0 1-.111-.059.13.13 0 0 1-.02-.053.447.447 0 0 1-.076-.011c-.05.09-.106.17-.154.234-.068.351-.385.67-.385.67V13.45a.558.558 0 0 1-.12-.053.451.451 0 0 1-.222-.277.312.312 0 0 1 .092-.013c.048 0 .1.01.154.028a.476.476 0 0 1-.031-.131l-.13-.202h-.006a.13.13 0 0 1-.111-.059.13.13 0 0 1-.02-.053.514.514 0 0 1-.231-.073.451.451 0 0 1-.222-.277.312.312 0 0 1 .092-.013c.049 0 .101.01.154.028a.4.4 0 0 1-.022-.241.4.4 0 0 1 .21.119.401.401 0 0 1 .088-.23.451.451 0 0 1 .161.315.514.514 0 0 1-.028.242c.016.01.03.022.04.039a.13.13 0 0 1 .006.13l.13.203c.006.002.01.006.016.009V9.833a.398.398 0 0 1 .796 0v.284a.531.531 0 0 1 .664.512h.399l.265-1.327-.133-.1-.265-.199v.299h-.133v-.664h-.133v-.133h.133v-.133h.133Zm2.131 6.035.05-.061.026.02.214-.35a.72.72 0 0 1-.03-.2v-.023c-.117-.152-.266-.396-.266-.64 0 .28-.172.425-.407.537l.204.25-.103.084.312.383Zm-2.922-.004.071-.057.05.061.311-.383-.103-.083.17-.208c-.284-.118-.505-.263-.505-.58 0 .177-.08.355-.167.497.042.061.073.14.084.23a.514.514 0 0 1-.029.242c.016.01.03.023.041.04a.13.13 0 0 1 .005.13l.072.11Zm.791-6.13h-.133a.1.1 0 0 0-.1.1v.033h-.033a.1.1 0 0 0-.1.1v.132a.1.1 0 0 0 .1.1h.034v.564a.1.1 0 0 0 .1.1h.132a.1.1 0 0 0 .1-.1v-.1l.106.08.082.062-.237 1.186h-.225a.632.632 0 0 0-.656-.53v-.167a.499.499 0 0 0-.996 0v2.324a.49.49 0 0 0-.167-.234.1.1 0 0 0-.133.015.422.422 0 0 0-.075.125.42.42 0 0 0-.148-.048.1.1 0 0 0-.096.074.42.42 0 0 0-.012.14.488.488 0 0 0-.145.017.1.1 0 0 0-.068.114c.026.13.126.259.268.343.065.04.136.066.209.08l.01.015c.032.05.083.086.142.099l.072.112h-.007a.412.412 0 0 0-.121.017.1.1 0 0 0-.069.115c.026.13.126.258.268.343a.588.588 0 0 0 .072.036v1.624a.1.1 0 0 0 .17.07c.014-.013.326-.33.408-.697a1.9 1.9 0 0 0 .092-.133.229.229 0 0 0 .124.074l.004.006-.078.063a.1.1 0 0 0-.016.14l.332.415a.1.1 0 0 0 .14.016l.02-.017.088.134a.1.1 0 0 0 .137.03l.065-.042-.015.03a.1.1 0 0 0 .031.125l.93.664a.1.1 0 0 0 .116 0l.93-.664a.1.1 0 0 0 .03-.125l-.59-1.181.078-.036.263.323a.1.1 0 0 0 .14.014l.026-.02.235.287-.063.079a.1.1 0 0 0 .016.14l.01.008-.117.194a.1.1 0 0 0 .033.137l.17.103a.1.1 0 0 0 .137-.033l.091-.15a.1.1 0 0 0 .14-.016l.332-.415a.1.1 0 0 0 .02-.051c.11.324.368.586.38.599a.1.1 0 0 0 .17-.07v-1.76l.279-.457a.1.1 0 0 0 .105-.045l.399-.655a.1.1 0 0 0-.034-.136l-.141-.087-.085-.052-.057-.034a.099.099 0 0 0-.137.033l-.328.54V9.833a.499.499 0 0 0-.996 0V10a.632.632 0 0 0-.656.53h-.086c-.031-.261-.121-1.04-.121-1.36 0-.466-.326-.632-.631-.632a.72.72 0 0 0-.434.133h-.003a.1.1 0 0 0 .005-.033v-.133a.1.1 0 0 0-.1-.1h-.032v-.033a.1.1 0 0 0-.1-.1Zm-.848 5.377c.025-.045.048-.089.067-.133.083.112.202.191.33.254l-.088.107a.1.1 0 0 0 .014.14l.026.02-.177.218a.1.1 0 0 0-.073-.005.226.226 0 0 0-.046-.159.628.628 0 0 0-.053-.442Zm2.72.071a.777.777 0 0 0 .238-.202c.05.116.117.221.18.307a.78.78 0 0 0 .024.174l-.152.248a.1.1 0 0 0-.025.008l-.178-.217.026-.021a.1.1 0 0 0 .014-.14l-.127-.157Zm-1.922.655a.1.1 0 0 0 .077-.037l.168-.206-.454.909a.092.092 0 0 0-.004-.007l-.106-.162.043-.034a.1.1 0 0 0 .015-.14l-.062-.079.234-.288.026.021a.1.1 0 0 0 .063.023Zm2.544.093.025-.036c.022.028.044.056.068.084a.973.973 0 0 0 .007.025.108.108 0 0 0-.017-.015l-.083-.058Z"/><circle cx="12" cy="12" r="11.5" stroke="#FFF"/></g></svg>