<svg id="圖層_1" data-name="圖層 1" xmlns="http://www.w3.org/2000/svg" viewBox="0 0 25 25"><title>icon_delete</title><path d="M22,25H3a2.93,2.93,0,0,1-3-3V3A2.93,2.93,0,0,1,3,0H22a2.93,2.93,0,0,1,3,3V22A2.93,2.93,0,0,1,22,25Z" style="fill:#d33138"/><path d="M17.9,6.32H15.07V5.81a1.54,1.54,0,0,0-1.54-1.54H11.47A1.54,1.54,0,0,0,9.93,5.81v.51H7.1A1.29,1.29,0,0,0,5.81,7.61v1a.51.51,0,0,0,.51.51H18.68a.51.51,0,0,0,.51-.51v-1A1.29,1.29,0,0,0,17.9,6.32ZM11,5.81a.52.52,0,0,1,.51-.52h2.06a.52.52,0,0,1,.51.52v.51H11Z" style="fill:#fff"/><path d="M6.79,10.18a.15.15,0,0,0-.16.17l.42,8.91a1.54,1.54,0,0,0,1.54,1.47h7.82A1.54,1.54,0,0,0,18,19.26l.42-8.91a.15.15,0,0,0-.16-.17Zm7.77,1.29a.52.52,0,0,1,1,0v6.69a.52.52,0,1,1-1,0Zm-2.57,0a.51.51,0,1,1,1,0v6.69a.51.51,0,1,1-1,0Zm-2.58,0a.52.52,0,0,1,1,0v6.69a.52.52,0,1,1-1,0Z" style="fill:#fff"/></svg>