<?xml version="1.0" encoding="UTF-8"?>
<svg width="114px" height="112px" viewBox="0 0 114 112" version="1.1" xmlns="http://www.w3.org/2000/svg" xmlns:xlink="http://www.w3.org/1999/xlink">
    <!-- Generator: Sketch 55.1 (78136) - https://sketchapp.com -->
    <title>Illustrations/closed_market_background</title>
    <desc>Created with Sketch.</desc>
    <g id="Icons" stroke="none" stroke-width="1" fill="none" fill-rule="evenodd" fill-opacity="0.04">
        <g id="Illustrations/closed_market_background" fill="#000000" fill-rule="nonzero">
            <path d="M114,33.32808 L114,112 L16.1640335,112 L10.4964693,104.11542 C8.33757638,101.11202 7.58165526,97.8231277 8.22868324,94.2486451 C8.87571122,90.6741625 10.7408065,87.8354621 13.8240251,85.7324586 L19.3737907,81.9470713 L7.71582748,65.7287912 C3.29009708,59.5718207 0.768387947,52.7876728 0.150624435,45.3761439 C-0.467139078,37.9646149 0.81534357,30.8795861 3.99811085,24.1208448 C7.18087814,17.3621035 11.9324895,11.8272373 18.2530876,7.51608018 C24.5736856,3.20492306 31.538129,0.748495924 39.1466267,0.14672507 C46.7551244,-0.455045784 54.0284449,0.79423596 60.9668065,3.89460778 C67.9051681,6.9949796 73.5871288,11.6235813 78.0128592,17.7805518 L89.6708225,33.9988318 L95.2205881,30.2134445 C98.3038067,28.110441 101.680104,27.3740892 105.349582,28.0043669 C108.967139,28.6257266 111.850584,30.4002802 114,33.32808 Z M90.9738303,89.5066262 L83.2018548,78.6944395 C81.3667959,76.1415493 78.9421957,74.6062632 75.9279816,74.088535 C72.9137676,73.5708069 70.0963349,74.2057098 67.4755991,75.9932628 C64.8548633,77.7808157 63.2787755,80.1426478 62.7472882,83.0788299 C62.2158009,86.0150121 62.867577,88.759507 64.7026359,91.3123972 L72.4746114,102.124584 C74.3096704,104.677474 76.7342705,106.21276 79.7484846,106.730488 C82.7626987,107.248217 85.5801314,106.613314 88.2008671,104.825761 C90.8216029,103.038208 92.3976908,100.676376 92.9291781,97.7401935 C93.4606653,94.8040114 92.8088893,92.0595164 90.9738303,89.5066262 Z M71.1716036,46.6167896 L59.5136403,30.3985095 C56.275301,25.8934092 51.9040884,23.1681916 46.3998714,22.222775 C40.8956544,21.2773584 35.8312079,22.3818862 31.2063801,25.5363914 C26.5815522,28.6908966 23.7839093,32.9489473 22.8133673,38.3106711 C21.8428254,43.672395 22.976707,48.6057331 26.2150464,53.1108334 L37.8730096,69.3291135 L71.1716036,46.6167896 Z" id="closed_market_background"></path>
        </g>
    </g>
</svg>