<svg width="50" height="50" fill="#49A346" opacity="0.3" xmlns="http://www.w3.org/2000/svg" xmlns:xlink="http://www.w3.org/1999/xlink">
  <path id="arr_1" d="M45,24.3c0,0.3,0,1-0.3,1.3c-0.3,0.3-0.3,0.7-0.7,1L27,42.3c-0.7,0.3-1,0.7-1.7,0.7c-0.7,0-1.3-0.3-1.7-0.7
  l-17-16C5.3,26,5,25,5,24.3c0-1,0-1.7,0.7-2.3c0.3-0.7,1.3-1,2-1s1.7,0.3,2,0.7L25,36l15.3-14c0.3-0.3,1-0.7,1.3-0.7
  c0.7,0,1,0,1.7,0.3c0.3,0.3,1,0.7,1.3,1.3C45,23.3,45,24,45,24.3z"/>

  <path id="arr_2" d="M45,10.3c0,0.3,0,1-0.3,1.3c-0.3,0.3-0.3,0.7-0.7,1L27,28.3c-0.7,0.3-1,0.7-1.7,0.7c-0.7,0-1.3-0.3-1.7-0.7
  l-17-16C5.3,12,5,11,5,10.3c0-1,0-1.7,0.7-2.3C6,7.3,7,7,7.7,7s1.7,0.3,2,0.7L25,22L40.3,8c0.3-0.3,1-0.7,1.3-0.7c0.7,0,1,0,1.7,0.3
  c0.3,0.3,1,0.7,1.3,1.3C45,9.3,45,10,45,10.3z"/>

  <animateTransform xmlns="http://www.w3.org/2000/svg" 
      xlink:href="#arr_1"
      attributeName="transform" 
      type="translate" 
      begin="0s" 
      dur="1s" 
      repeatCount="indefinite"
      values="0 -50; 0 0; 0 0; 0 50; 0 50"
      keyTimes="0; 0.2; 0.7; 0.9; 1"/>  

    <animateTransform xmlns="http://www.w3.org/2000/svg" 
      xlink:href="#arr_2"
      attributeName="transform" 
      type="translate" 
      begin="0s" 
      dur="1s" 
      repeatCount="indefinite"
      values="0 -50; 0 0; 0 0; 0 50"
      keyTimes="0; 0.3; 0.8; 1" />  
</svg>