<svg width="50" height="50" fill="#FC6E6E" opacity="0.2" xmlns="http://www.w3.org/2000/svg" xmlns:xlink="http://www.w3.org/1999/xlink">
  <path id="arr_1" d="M5,25.7c0-0.3,0-1,0.3-1.3c0.3-0.3,0.3-0.7,0.7-1L23,7.7C23.7,7.3,24,7,24.7,7c0.7,0,1.3,0.3,1.7,0.7l17,16
  c1.3,0.3,1.7,1.3,1.7,2c0,1,0,1.7-0.7,2.3c-0.3,0.7-1.3,1-2,1s-1.7-0.3-2-0.7L25,14L9.7,28c-0.3,0.3-1,0.7-1.3,0.7
  c-0.7,0-1,0-1.7-0.3c-0.3-0.3-1-0.7-1.3-1.3C5,26.7,5,26,5,25.7z"/>
  
  <path id="arr_2" d="M5,39.7c0-0.3,0-1,0.3-1.3c0.3-0.3,0.3-0.7,0.7-1l17-15.7c0.7-0.3,1-0.7,1.7-0.7c0.7,0,1.3,0.3,1.7,0.7l17,16
	c1.3,0.3,1.7,1.3,1.7,2c0,1,0,1.7-0.7,2.3c-0.3,0.7-1.3,1-2,1s-1.7-0.3-2-0.7L25,28L9.7,42c-0.3,0.3-1,0.7-1.3,0.7
	c-0.7,0-1,0-1.7-0.3c-0.3-0.3-1-0.7-1.3-1.3C5,40.7,5,40,5,39.7z"/>

  <animateTransform xmlns="http://www.w3.org/2000/svg" 
      xlink:href="#arr_1"
      attributeName="transform" 
      type="translate" 
      begin="0s" 
      dur="1s" 
      repeatCount="indefinite"
      values="0 50; 0 0; 0 0; 0 -50; 0 -50"
      keyTimes="0; 0.2; 0.7; 0.9; 1"/>  

    <animateTransform xmlns="http://www.w3.org/2000/svg" 
      xlink:href="#arr_2"
      attributeName="transform" 
      type="translate" 
      begin="0s" 
      dur="1s" 
      repeatCount="indefinite"
      values="0 50; 0 0; 0 0; 0 -50"
      keyTimes="0; 0.3; 0.8; 1" />  
</svg>