<svg xmlns="http://www.w3.org/2000/svg" width="32" height="32"><g fill="none" fill-rule="evenodd"><path fill="#FFF" d="M0 0h32v32H0z"/><circle cx="16" cy="16" r="16" fill="#E7DFD9"/><g fill-rule="nonzero"><path fill="#FFF" d="M24 12c0-2.2-2.3-4-5-4-2.9 0-5.2 1.8-5.2 4 0 2 1.9 3.7 4.2 4 .2.8 0 1.6-.7 2.2 1.3 0 2.3-1 2.5-2.2 2.4-.3 4.2-2 4.2-4Z"/><path fill="#A59A93" d="M17.3 12.7a.5.5 0 1 1 0-1 .5.5 0 0 1 0 1Zm3.6 0a.5.5 0 1 1 0-1 .5.5 0 0 1 0 1Zm-1.8 0a.5.5 0 1 1 0-1 .5.5 0 0 1 0 1ZM19 20.9c-.8-.8-1.7-1.4-1.7-1.4l-1.2 1.2-4.8-4.8 1.2-1.2s-.6-.9-1.4-1.6c-.7-.8-1.6-1.5-1.6-1.5S8.1 13 8 14c-.1 1.4 1.4 4 3.7 6.3 2.3 2.3 4.9 3.8 6.3 3.7 1-.1 2.4-1.5 2.4-1.5s-.7-.9-1.5-1.6Z"/></g></g></svg>