<svg xmlns="http://www.w3.org/2000/svg" width="32" height="32"><g fill="none" fill-rule="evenodd"><path fill="#FFF" d="M0 0h32v32H0z"/><circle cx="16" cy="16" r="16" fill="#E7DFD9"/><g fill-rule="nonzero"><path fill="#A59A93" d="m8 14 8-4.7 8 4.7v7H8z"/><path fill="#FFF" d="M9.7 8h12.5c.3 0 .5.3.5.5v8.8c0 .2-.2.5-.5.5H9.7a.5.5 0 0 1-.5-.5V8.5c0-.2.3-.5.5-.5Z"/><path fill="#A59A93" d="m21.2 9 .8-1h.2c.3 0 .5.3.5.5V9h-1.5Zm-6.5 0 .8-1h1.7l-.8 1h-1.7ZM9.2 9v-.5c0-.2.3-.5.5-.5H11l-.8 1h-1Z"/><path fill="#B7AEA9" d="M24 22.5c0 .4-.4.7-.8.7H8.7a.8.8 0 0 1-.7-.7V14l8 3.5 8-3.5v8.5Z"/><path fill="#A59A93" d="M24 22.5c0 .4-.4.7-.8.7H8.7a.8.8 0 0 1-.7-.7V21l16-7v8.5Z"/><path fill="#B7AEA9" d="m13 12.5.2.5-.8-1.3-1.1 1.8c0 .1.7.3 1.6.3.9 0 1.6-.2 1.6-.3l-1-1.5-.4.5Zm.2-.7c.2 0 .3-.2.3-.3 0-.2-.1-.4-.3-.4-.2 0-.3.2-.3.4 0 .1.1.3.3.3Zm2.5-.2h5c.2 0 .3 0 .3-.2 0-.1-.1-.3-.3-.3h-5l-.2.3.2.2Zm5 .5h-5l-.2.3.2.2h5c.2 0 .3 0 .3-.2 0-.1-.1-.3-.3-.3Zm-1.2 1h-3.8l-.2.3.2.2h3.8c.1 0 .2 0 .2-.2 0-.1 0-.3-.2-.3ZM18 9l.7-1h1.8l-.8 1h-1.8Zm-6.6 0 .8-1H14l-.8 1h-1.8Z"/></g></g></svg>