<svg xmlns="http://www.w3.org/2000/svg" xml:space="preserve" id="Layer_1" width="24" height="72" x="0" y="0" style="enable-background:new 0 0 24 72" version="1.1"><style>.st0{fill:#ff4b55}.st2{fill:none;stroke:#fff}.st6{fill:#d80027}</style><g id="Icons"><g id="china"><circle id="Oval" cx="12" cy="36" r="11.5" class="st0"/><path id="Shape" d="m6.8 31.9.3 1 .5 1.6h2.7l.2.2-.1.2-2.2 1.6.8 2.6-.1.3h-.2l-2.2-1.6-2.2 1.6H4v-.2l.8-2.6L2.6 35v-.3l.2-.1h2.7l.8-2.6c0-.1.1-.2.3-.1.1-.1.1-.1.2 0zm7.3 10.6-.7-.9-1 .4h-.1l.6-.9-.7-.9v-.1l1.1.3.6-.9h.1l.1 1.1 1.1.3v.1l-1 .4-.1 1.1c.1 0 .1 0 0 0 .1 0 0 0 0 0zm1.7-2.9.3-1.1-.9-.6v-.1h1.1l.3-1.1h.1l.4 1H18.3l-.9.7.4 1v.1l-1-.5-1 .6c.1.1.1 0 0 0zm2.1-6.7-.5 1 .8.8v.1l-1.2-.2-.5 1h-.1l-.2-1.1-1.1-.2v-.1l1-.5-.2-1.1v-.1l.8.8 1.2-.4c-.1 0-.1 0 0 0zm-3.7-3.4-.1 1.1 1 .4v.1l-1.1.3v1.1h-.1l-.6-.9-1.1.3h-.1l.7-.8-.4-1.1v-.1l1 .4.8-.8z" style="fill:#ffda44"/><circle cx="12" cy="36" r="11.5" class="st2"/></g></g><g id="Icons_1_"><g id="hongkong"><path id="Combined-Shape" d="M12 23.8A11.8 11.8 0 0 1 12 .2a11.8 11.8 0 0 1 0 23.6z" class="st0"/><path id="Shape_1_" d="m10.3 12.7 1.1-.2c-2.9 2.2-5.7-.9-4.8-3.4 0-.1.1 0 .1 0 .1.3.3.9 1.1.7.8-.1 1.2-.1 1.8.6.5.7.2 1.3 1 1.8l.7.1c-.6.2-1.7.4-2.6-.6h-.1s-.1.1 0 .2c.5.6 1.2.8 1.7.8zm-2.1-.9.1-.3h.4s.1-.1 0-.1l-.3-.2.1-.3-.1-.1-.2.2-.3-.2-.1.1.1.4-.3.2v.1H8l.2.2c0 .1 0 .1 0 0zm4.2-.8c-.3.2-.6.5-.7.8 1-3.5 5.1-2.7 5.8-.1l-.1.1c-.2-.2-.8-.5-1.3 0s-.9.8-1.7.6c-.8-.2-.9-.9-1.9-.8l-.7.3c.4-.6 1.1-1.4 2.4-1.1l.1-.1-.1-.1a2 2 0 0 0-1.8.4zm2.2-.6.1.4-.3.2v.1h.4l.1.4h.1l.1-.3h.4s.1-.1 0-.1l-.3-.2.1-.4-.1-.1-.2.2-.4-.2c0-.1 0 0 0 0zm-3.7.8.6.9c-3.2-1.8-1.4-5.6 1.3-5.7.1 0 .1.1 0 .1-.3.2-.7.6-.3 1.3.4.7.6 1.1.2 1.8-.4.8-1.1.6-1.3 1.6l.2.7c-.5-.5-1-1.5-.5-2.6v-.1H11c-.4.8-.4 1.5-.1 2zm0-2.2h.4l.1.3h.1l.1-.4h.4s.1-.1 0-.1l-.3-.2.1-.4-.1-.1-.3.2-.3-.2-.1.1.1.3-.2.5c-.1-.1-.1 0 0 0zm2.1 3.5c-.3-.2-.7-.4-1-.4 3.6-.2 4.2 4 2 5.5l-.1-.1c.1-.3.2-.9-.4-1.2-.7-.3-1.1-.6-1.1-1.5-.1-.9.6-1.1.2-2l-.5-.5c.7.2 1.7.7 1.8 2l.1.1.1-.1c-.2-1-.7-1.5-1.1-1.8zm1.2 1.9-.3.2-.3-.2-.1.1.1.4-.3.1v.1h.4l.1.4h.1l.1-.4h.4s.1-.1 0-.1l-.3-.2.1-.4c.1 0 0-.1 0 0zm-2.4-.9.1-1.1c1.3 3.4-2.5 5.2-4.7 3.5v-.1c.3 0 .9 0 1-.8.1-.8.2-1.2 1-1.5.8-.3 1.2.2 2-.4.2-.1.3-.4.3-.7 0 .7-.1 1.8-1.3 2.3l-.1.1.1.1c1-.3 1.4-.8 1.6-1.4zm-1.5 1.8L10 15l.1-.4-.1-.1-.3.2-.3-.2-.1.1.2.4-.3.2v.1h.4l.1.4h.1l.1-.3.4-.1c0 .1.1 0 0 0z" style="fill:#f5f5f5"/><circle id="Oval_1_" cx="12" cy="12" r="11.5" class="st2"/></g></g><g id="Icons_2_"><g id="great_britain"><g id="Group-2"><circle id="Oval_2_" cx="12" cy="60.1" r="11.8" style="fill:#eee"/><path id="Shape_2_" d="M2.6 52.8C1.7 54 1 55.5.6 57h6.1l-4.1-4.2zM23.4 57c-.4-1.5-1.1-2.9-2-4.2L17.3 57h6.1zM.6 63.2c.4 1.5 1.1 2.9 2 4.2l4.1-4.2H.6zm18.6-12.6c-1.2-1-2.6-1.7-4.1-2.1v6.2l4.1-4.1zm-14.4 19c1.2 1 2.6 1.7 4.1 2.1v-6.2l-4.1 4.1zm4.1-21.1c-1.5.4-2.9 1.1-4.1 2.1l4.1 4.2v-6.3zm6.2 23.2c1.5-.4 2.9-1.1 4.1-2.1l-4.1-4.2v6.3zm2.2-8.5 4.1 4.2c.9-1.2 1.6-2.7 2-4.2h-6.1z" style="fill:#0052b4"/><g id="Group"><path id="Path" d="M23.7 58.6H13.5V48.4l-1.5-.1-1.5.1v10.2H.3l-.1 1.5.1 1.5h10.2v10.2h3.1V61.6h10.2l.1-1.5-.2-1.5z" class="st6"/><path d="m15.1 63.2 5.3 5.3.7-.8-4.5-4.5h-1.5zm-6.1 0-5.3 5.3.8.7L9 64.7v-1.5zm0-6.1-5.3-5.3-.7.8 4.5 4.5H9zm6.1 0 5.3-5.3-.8-.7-4.5 4.5v1.5z" class="st6"/></g></g><circle cx="12" cy="60.1" r="11.5" class="st2"/></g></g></svg>