<?xml version="1.0" encoding="utf-8"?>
<!-- Generator: Adobe Illustrator 16.0.0, SVG Export Plug-In . SVG Version: 6.00 Build 0)  -->
<!DOCTYPE svg PUBLIC "-//W3C//DTD SVG 1.1//EN" "http://www.w3.org/Graphics/SVG/1.1/DTD/svg11.dtd">
<svg version="1.1" id="Layer_1" xmlns="http://www.w3.org/2000/svg" xmlns:xlink="http://www.w3.org/1999/xlink" x="0px" y="0px"
	 width="34px" height="34px" viewBox="0 0 34 34" enable-background="new 0 0 34 34" xml:space="preserve">
<circle opacity="0.35" fill="#DE2A10" enable-background="new    " cx="17" cy="17" r="17"/>
<circle opacity="0.7" fill="#DE2A10" enable-background="new    " cx="17" cy="17" r="14"/>
<circle fill="#DE2A10" cx="17" cy="17.167" r="11"/>
<path fill="#FFFFFF" d="M19.119,8.515c-4.964-0.34-7.337,6.159-2.668,8.66c-0.455-0.391-0.802-0.956-0.984-1.616
	c-0.271-0.991-0.115-2.054,0.428-2.919l0.113,0.071c-0.524,0.833-0.674,1.859-0.413,2.813c0.196,0.711,0.615,1.308,1.137,1.68
	c-0.877-0.963-0.534-2.51,0.828-3.124c0.9-0.405,1.627-2.07,0.962-3.106C17.927,10.048,18.078,9.05,19.119,8.515z M16.678,12.384
	l-0.303,0.475l-0.11-0.553l-0.546-0.142l0.492-0.275l-0.034-0.562l0.413,0.383l0.524-0.207l-0.236,0.511l0.358,0.435L16.678,12.384z
	"/>
<path fill="#FFFFFF" d="M17.07,16.871c0.231-0.554,0.66-1.06,1.234-1.437c0.857-0.564,1.917-0.745,2.908-0.495l-0.032,0.129
	c-0.955-0.241-1.977-0.067-2.804,0.477c-0.616,0.406-1.055,0.989-1.246,1.601c0.646-1.132,2.223-1.284,3.227-0.178
	c0.663,0.731,2.473,0.907,3.251-0.045c0.695-0.851,1.691-1.017,2.522-0.192C24.92,11.904,18.006,11.656,17.07,16.871z
	 M22.109,15.683l-0.303,0.475l-0.109-0.552l-0.546-0.141l0.492-0.275l-0.034-0.562l0.414,0.383l0.523-0.207l-0.236,0.511
	l0.358,0.435L22.109,15.683z"/>
<g id="petal_2_">
	<path fill="#FFFFFF" d="M16.975,17.451c5.689-1.323,7.879,5.749,3.509,8.489c0.528-1.045,0.063-1.941-0.962-2.342
		c-1.146-0.445-1.537-2.221-1.047-3.076C19.279,19.113,18.475,17.504,16.975,17.451L16.975,17.451z"/>
	<path fill="#DE2910" d="M20.185,21.373l-0.034-0.561l0.413,0.381l0.524-0.205L20.852,21.5l0.358,0.434l-0.559-0.066l-0.304,0.475
		l-0.109-0.553l-0.545-0.141L20.185,21.373z"/>
	<path fill="#DE2910" d="M16.985,17.517c0.723-0.112,1.557,0.142,2.23,0.681c0.773,0.619,1.255,1.537,1.319,2.52l0.133-0.01
		c-0.068-1.02-0.567-1.971-1.369-2.613c-0.713-0.57-1.562-0.829-2.333-0.709L16.985,17.517z"/>
</g>
<path fill="#FFFFFF" d="M17.23,17.976c0.139,0.584,0.087,1.245-0.154,1.886c-0.363,0.961-1.114,1.729-2.062,2.109l-0.05-0.123
	c0.914-0.367,1.638-1.107,1.988-2.033c0.26-0.69,0.272-1.421,0.067-2.028c0.143,1.296-1.043,2.346-2.506,2.04
	c-0.966-0.201-2.533,0.719-2.604,1.949c-0.062,1.098-0.771,1.816-1.928,1.637C13.798,26.606,19.538,22.743,17.23,17.976z
	 M14.317,22.391l-0.303,0.475l-0.109-0.551l-0.545-0.143l0.491-0.273l-0.034-0.562l0.414,0.381l0.524-0.207l-0.236,0.512
	l0.359,0.436L14.317,22.391z"/>
<path fill="#FFFFFF" d="M14.708,18.293c-1.025-0.047-1.989-0.523-2.644-1.308l0.103-0.085c0.63,0.755,1.56,1.214,2.548,1.263
	c0.739,0.033,1.437-0.181,1.952-0.564c-1.188,0.539-2.556-0.265-2.718-1.751c-0.106-0.981-1.466-2.187-2.656-1.874
	c-1.063,0.279-1.966-0.173-2.153-1.328c-1.858,4.617,3.593,8.884,7.414,5.21C16.039,18.168,15.394,18.325,14.708,18.293z
	 M11.56,17.005l-0.11-0.553l-0.545-0.141l0.492-0.275l-0.035-0.562l0.414,0.382L12.3,15.65l-0.236,0.512l0.358,0.435l-0.56-0.066
	L11.56,17.005z"/>
</svg>
