<svg width="24" height="24" fill="none" xmlns="http://www.w3.org/2000/svg"><mask id="a" style="mask-type:luminance" maskUnits="userSpaceOnUse" x="1" y="1" width="23" height="23"><path d="M12.25 23.5c6.213 0 11.25-5.037 11.25-11.25S18.463 1 12.25 1 1 6.037 1 12.25 6.037 23.5 12.25 23.5Z" fill="#fff"/></mask><g mask="url(#a)"><path d="m1 6.625 11.25-1.406L23.5 6.625v11.25l-11.25 1.406L1 17.875V6.625Z" fill="#FFDA44"/><path d="M1 1h22.5v5.625H1V1Zm0 16.875h22.5V23.5H1v-5.625Z" fill="#D80027"/><path d="M7.328 14.36h-.703v-3.516h.703v3.515Zm5.625 0h.703v-3.516h-.703v3.515ZM10.14 15.414c1.166 0 2.11-.63 2.11-1.406 0-.777-.944-1.406-2.11-1.406-1.164 0-2.109.63-2.109 1.406 0 .777.945 1.406 2.11 1.406Z" fill="#EEE"/><path d="M7.328 9.79a.352.352 0 1 0-.703 0v.35a.352.352 0 1 0 .703 0v-.35ZM13.656 9.79a.351.351 0 1 0-.703 0v.35a.352.352 0 1 0 .703 0v-.35ZM10.14 12.953v1.055a1.055 1.055 0 1 0 2.11 0v-1.055h-2.109Z" fill="#D80027"/><path d="M7.328 10.14h-.703a.352.352 0 0 0 0 .704h.703a.352.352 0 0 0 0-.703ZM13.656 10.14h-.703a.352.352 0 0 0 0 .704h.703a.352.352 0 1 0 0-.703ZM7.328 14.36h-.703a.352.352 0 1 0 0 .703h.703a.352.352 0 0 0 0-.704ZM13.656 14.36h-.703a.352.352 0 0 0 0 .703h.703a.352.352 0 1 0 0-.704ZM8.031 12.953v1.055c0 .351.176.615.396.835l.22-.264.22.44a.925.925 0 0 0 .439 0l.22-.44.22.264a1.02 1.02 0 0 0 .395-.835v-1.055h-.396l-.22.352-.22-.352h-.439l-.22.352-.22-.352h-.395Z" fill="#FF9811"/><path d="M6.361 11.898a.176.176 0 0 0 0 .352h7.559a.176.176 0 1 0 0-.352H6.36Zm0 1.055a.176.176 0 1 0 0 .352h1.23a.176.176 0 1 0 0-.352h-1.23Zm6.329 0a.175.175 0 1 0 0 .352h1.23a.176.176 0 1 0 0-.352h-1.23Z" fill="#D80027"/><path d="M9.613 8.383a.714.714 0 0 0-.659.483l-.22-.044a.694.694 0 0 0-.703.703c0 .396.308.704.703.704a.66.66 0 0 0 .66-.484.703.703 0 0 0 .747-.176.703.703 0 0 0 .747.176.703.703 0 1 0 .44-.879.702.702 0 0 0-1.187-.22.626.626 0 0 0-.528-.263Zm0 .351c.22 0 .352.176.352.352 0 .22-.132.351-.352.351a.347.347 0 0 1-.351-.351c0-.176.175-.352.351-.352Zm1.055 0c.22 0 .352.176.352.352 0 .22-.132.351-.352.351a.347.347 0 0 1-.352-.351c0-.176.176-.352.352-.352Zm-1.934.44.176.044.176.351c0 .176-.176.308-.352.308a.347.347 0 0 1-.351-.352c0-.175.176-.351.351-.351Zm2.813 0c.22 0 .351.176.351.351 0 .22-.131.352-.351.352-.176 0-.352-.132-.352-.308l.176-.351.176-.044Z" fill="#EEE"/><path d="M9.79 8.031h.702v1.406H9.79V8.031Z" fill="#FF9811"/><path d="M10.14 10.844h2.11v2.11h-2.11v-2.11Z" fill="#EEE"/><path d="m11.898 10.14-.351.352H8.734l-.351-.351c0-.572.79-1.055 1.758-1.055.966 0 1.757.483 1.757 1.055Zm-3.867.704h2.11v2.11H8.03v-2.11ZM11.635 11.635a.44.44 0 0 0-.88 0v.527a.44.44 0 1 0 .88 0v-.527Z" fill="#D80027"/><path d="M8.383 11.195v.352h.351v.703h-.351v.352h1.406v-.352h-.351v-.703h.351v-.352H8.383Zm.351-.703h2.813v.352H8.734v-.352Z" fill="#FF9811"/><path d="M9.174 10.14a.264.264 0 1 0 0-.527.264.264 0 0 0 0 .528ZM10.14 10.14a.264.264 0 1 0 0-.527.264.264 0 0 0 0 .528ZM11.107 10.14a.264.264 0 1 0 0-.527.264.264 0 0 0 0 .528Z" fill="#FFDA44"/><path d="M8.427 12.953v1.89c.131.09.281.151.44.176v-2.066h-.44Zm.879 0v2.066c.158-.025.308-.085.44-.176v-1.89h-.44Z" fill="#D80027"/><path d="M10.14 13.656a.703.703 0 1 0 0-1.406.703.703 0 0 0 0 1.406ZM13.656 15.063h-.703a.352.352 0 0 0 0 .703h.703a.352.352 0 1 0 0-.704ZM7.328 15.063h-.703a.352.352 0 0 0 0 .703h.703a.352.352 0 1 0 0-.704Z" fill="#338AF3"/></g></svg>