<?xml version="1.0" encoding="utf-8"?>
<!-- Generator: Adobe Illustrator 16.0.0, SVG Export Plug-In . SVG Version: 6.00 Build 0)  -->
<!DOCTYPE svg PUBLIC "-//W3C//DTD SVG 1.1//EN" "http://www.w3.org/Graphics/SVG/1.1/DTD/svg11.dtd">
<svg version="1.1" id="Layer_1" xmlns="http://www.w3.org/2000/svg" xmlns:xlink="http://www.w3.org/1999/xlink" x="0px" y="0px"
	 width="34px" height="34px" viewBox="0 0 34 34" enable-background="new 0 0 34 34" xml:space="preserve">
<circle opacity="0.35" fill="#FF0000" enable-background="new    " cx="17" cy="17" r="17"/>
<circle opacity="0.35" fill="#FF0000" enable-background="new    " cx="17" cy="17" r="14"/>
<circle fill="#FF0000" cx="17" cy="17.167" r="11"/>
<circle fill="#FF0000" cx="17" cy="17.167" r="11"/>
<g>
	<polygon fill="#FFDE00" points="13.429,15.27 12.336,11.908 11.246,15.27 7.713,15.27 10.572,17.347 9.482,20.707 12.34,18.631 
		15.197,20.707 14.105,17.348 16.966,15.27 	"/>
	<polygon fill="#FFDE00" points="21.969,10.128 21.286,10.935 20.308,10.532 20.862,11.433 20.179,12.239 21.206,11.99 
		21.761,12.89 21.84,11.835 22.869,11.585 21.89,11.183 	"/>
	<polygon fill="#FFDE00" points="24.525,15.443 24.617,16.496 25.162,15.59 26.193,15.829 25.499,15.029 26.043,14.124 
		25.07,14.537 24.378,13.738 24.469,14.792 23.496,15.205 	"/>
	<polygon fill="#FFDE00" points="25.465,20.596 26.287,19.93 25.23,19.984 24.853,18.998 24.578,20.02 23.522,20.076 24.409,20.65 
		24.136,21.674 24.958,21.008 25.846,21.584 	"/>
	<polygon fill="#FFDE00" points="21.812,23.629 21.857,22.572 21.199,23.4 20.209,23.029 20.792,23.91 20.133,24.738 21.151,24.455 
		21.736,25.338 21.782,24.281 22.802,24 	"/>
</g>
</svg>
