<svg width="24" height="24" viewBox="0 0 24 24" fill="none" xmlns="http://www.w3.org/2000/svg">
<g clip-path="url(#clip0_3546_4202)">
<path d="M6.375 21.75V2.25C3 4.2 0.75 7.8375 0.75 12C0.75 16.1625 3 19.8 6.375 21.75Z" fill="#699635"/>
<path d="M12 0.75C9.9375 0.75 8.025 1.3125 6.375 2.25V21.75C8.025 22.725 9.9375 23.25 12 23.25C18.225 23.25 23.25 18.225 23.25 12C23.25 5.775 18.225 0.75 12 0.75Z" fill="#ED4C5C"/>
<path d="M6.375 7.5C3.9 7.5 1.875 9.525 1.875 12C1.875 14.475 3.9 16.5 6.375 16.5C8.85 16.5 10.875 14.475 10.875 12C10.875 9.525 8.85 7.5 6.375 7.5ZM6.375 15.9375C4.2 15.9375 2.4375 14.175 2.4375 12C2.4375 9.825 4.2 8.0625 6.375 8.0625C8.55 8.0625 10.3125 9.825 10.3125 12C10.3125 14.175 8.55 15.9375 6.375 15.9375Z" fill="#FFE62E"/>
<path d="M7.91279 16.3875C7.83779 16.4625 7.72529 16.4625 7.65029 16.3875L2.51279 9.59995C2.43779 9.52495 2.43779 9.41245 2.51279 9.33745L2.62529 9.22495C2.70029 9.14995 2.81279 9.14995 2.88779 9.22495L8.02529 16.0125C8.10029 16.0875 8.10029 16.2 8.02529 16.275L7.91279 16.3875Z" fill="#FFE62E"/>
<path d="M6.4502 7.3125C6.5627 7.3125 6.6377 7.3875 6.6377 7.5V16.5C6.6377 16.6125 6.5627 16.6875 6.4502 16.6875H6.2627C6.1502 16.6875 6.0752 16.6125 6.0752 16.5V7.5C6.0752 7.3875 6.1502 7.3125 6.2627 7.3125H6.4502Z" fill="#FFE62E"/>
<path d="M10.8375 12.4875L6.37496 11.7V12.2625L10.7625 13.05C10.875 13.05 10.95 13.0125 10.9875 12.9L11.025 12.7125C11.025 12.6375 10.95 12.525 10.8375 12.4875ZM6.37496 11.6625L2.84996 9.18749C2.77496 9.11249 2.66246 9.14999 2.58746 9.22499L2.47496 9.37499C2.39996 9.44999 2.43746 9.56249 2.51246 9.63749L6.37496 12.3375V11.6625Z" fill="#FFE62E"/>
<path d="M6.22511 11.25L2.70011 14.775C2.62511 14.85 2.62511 14.9625 2.70011 15.0375L2.85011 15.1875C2.92511 15.2625 3.03761 15.2625 3.11261 15.1875L6.22511 12.075V11.25ZM6.37511 9.5625L1.68761 11.775C1.61261 11.8125 1.53761 11.925 1.61261 12.0375L1.68761 12.225C1.72511 12.3 1.83761 12.375 1.95011 12.3L6.37511 10.2V9.5625Z" fill="#FFE62E"/>
<path d="M10.5377 10.2L6.0752 9.41248V9.97498L10.4627 10.7625C10.5752 10.7625 10.6502 10.725 10.6877 10.6125L10.7252 10.425C10.6877 10.3125 10.6127 10.2 10.5377 10.2ZM6.3377 14.5875C6.2627 14.625 6.1877 14.7375 6.2627 14.85L6.3377 15.0375C6.3752 15.1125 6.4877 15.1875 6.6002 15.1125L10.3502 13.3875L10.5377 12.675L6.3377 14.5875ZM6.3377 13.3125L2.1377 11.775V12.375L6.3377 13.9125V13.3125Z" fill="#FFE62E"/>
<path d="M3.4126 14.55V15.1125L8.9626 15.4875C9.1876 15.3375 9.3751 15.15 9.5626 14.9625L3.4126 14.55Z" fill="#FFE62E"/>
<path d="M4.5 10.125V12.75C4.5 13.8 5.325 14.625 6.375 14.625C7.425 14.625 8.25 13.8 8.25 12.75V10.125H4.5Z" fill="white"/>
<path d="M6.375 15.375C4.9125 15.375 3.75 14.2125 3.75 12.75V9.375H9V12.75C9 14.2125 7.8375 15.375 6.375 15.375ZM5.25 10.875V12.75C5.25 13.3875 5.7375 13.875 6.375 13.875C7.0125 13.875 7.5 13.3875 7.5 12.75V10.875H5.25Z" fill="#ED4C5C"/>
<path d="M6.0376 11.025V11.625C6.0376 11.7375 6.1126 11.8125 6.2251 11.8125H6.5251C6.6376 11.8125 6.7126 11.7375 6.7126 11.625V10.9875H6.0376V11.025ZM6.0376 11.9625V12.6C6.0376 12.7125 6.1126 12.7875 6.2251 12.7875H6.5251C6.6376 12.7875 6.7126 12.7125 6.7126 12.6V11.9625H6.0376ZM5.2876 11.9625V12.6C5.2876 12.7125 5.3626 12.7875 5.4751 12.7875H5.7751C5.8876 12.7875 5.9626 12.7125 5.9626 12.6V11.9625H5.2876ZM6.7876 11.9625V12.6C6.7876 12.7125 6.8626 12.7875 6.9751 12.7875H7.2751C7.3876 12.7875 7.4626 12.7125 7.4626 12.6V11.9625H6.7876ZM6.0376 12.8625V13.5C6.0376 13.6125 6.1126 13.6875 6.2251 13.6875H6.5251C6.6376 13.6875 6.7126 13.6125 6.7126 13.5V12.8625H6.0376Z" fill="#0071BC"/>
<path d="M6.3748 12.4125C6.41623 12.4125 6.44981 12.3789 6.44981 12.3375C6.44981 12.296 6.41623 12.2625 6.3748 12.2625C6.33338 12.2625 6.2998 12.296 6.2998 12.3375C6.2998 12.3789 6.33338 12.4125 6.3748 12.4125Z" fill="white"/>
<path d="M6.2249 12.6C6.26632 12.6 6.2999 12.5664 6.2999 12.525C6.2999 12.4835 6.26632 12.45 6.2249 12.45C6.18348 12.45 6.1499 12.4835 6.1499 12.525C6.1499 12.5664 6.18348 12.6 6.2249 12.6Z" fill="white"/>
<path d="M6.52471 12.6C6.56613 12.6 6.59971 12.5664 6.59971 12.525C6.59971 12.4835 6.56613 12.45 6.52471 12.45C6.48329 12.45 6.44971 12.4835 6.44971 12.525C6.44971 12.5664 6.48329 12.6 6.52471 12.6Z" fill="white"/>
<path d="M6.2249 12.225C6.26632 12.225 6.2999 12.1914 6.2999 12.15C6.2999 12.1085 6.26632 12.075 6.2249 12.075C6.18348 12.075 6.1499 12.1085 6.1499 12.15C6.1499 12.1914 6.18348 12.225 6.2249 12.225Z" fill="white"/>
<path d="M6.52471 12.225C6.56613 12.225 6.59971 12.1914 6.59971 12.15C6.59971 12.1085 6.56613 12.075 6.52471 12.075C6.48329 12.075 6.44971 12.1085 6.44971 12.15C6.44971 12.1914 6.48329 12.225 6.52471 12.225Z" fill="white"/>
<path d="M6.3748 11.475C6.41623 11.475 6.44981 11.4414 6.44981 11.4C6.44981 11.3585 6.41623 11.325 6.3748 11.325C6.33338 11.325 6.2998 11.3585 6.2998 11.4C6.2998 11.4414 6.33338 11.475 6.3748 11.475Z" fill="white"/>
<path d="M6.2249 11.6625C6.26632 11.6625 6.2999 11.6289 6.2999 11.5875C6.2999 11.546 6.26632 11.5125 6.2249 11.5125C6.18348 11.5125 6.1499 11.546 6.1499 11.5875C6.1499 11.6289 6.18348 11.6625 6.2249 11.6625Z" fill="white"/>
<path d="M6.52471 11.6625C6.56613 11.6625 6.59971 11.6289 6.59971 11.5875C6.59971 11.546 6.56613 11.5125 6.52471 11.5125C6.48329 11.5125 6.44971 11.546 6.44971 11.5875C6.44971 11.6289 6.48329 11.6625 6.52471 11.6625Z" fill="white"/>
<path d="M6.2249 11.2875C6.26632 11.2875 6.2999 11.2539 6.2999 11.2125C6.2999 11.171 6.26632 11.1375 6.2249 11.1375C6.18348 11.1375 6.1499 11.171 6.1499 11.2125C6.1499 11.2539 6.18348 11.2875 6.2249 11.2875Z" fill="white"/>
<path d="M6.52471 11.2875C6.56613 11.2875 6.59971 11.2539 6.59971 11.2125C6.59971 11.171 6.56613 11.1375 6.52471 11.1375C6.48329 11.1375 6.44971 11.171 6.44971 11.2125C6.44971 11.2539 6.48329 11.2875 6.52471 11.2875Z" fill="white"/>
<path d="M7.1248 12.4125C7.16623 12.4125 7.19981 12.3789 7.19981 12.3375C7.19981 12.296 7.16623 12.2625 7.1248 12.2625C7.08338 12.2625 7.0498 12.296 7.0498 12.3375C7.0498 12.3789 7.08338 12.4125 7.1248 12.4125Z" fill="white"/>
<path d="M6.9749 12.6C7.01632 12.6 7.0499 12.5664 7.0499 12.525C7.0499 12.4835 7.01632 12.45 6.9749 12.45C6.93348 12.45 6.8999 12.4835 6.8999 12.525C6.8999 12.5664 6.93348 12.6 6.9749 12.6Z" fill="white"/>
<path d="M7.27471 12.6C7.31613 12.6 7.34971 12.5664 7.34971 12.525C7.34971 12.4835 7.31613 12.45 7.27471 12.45C7.23329 12.45 7.19971 12.4835 7.19971 12.525C7.19971 12.5664 7.23329 12.6 7.27471 12.6Z" fill="white"/>
<path d="M6.9749 12.225C7.01632 12.225 7.0499 12.1914 7.0499 12.15C7.0499 12.1085 7.01632 12.075 6.9749 12.075C6.93348 12.075 6.8999 12.1085 6.8999 12.15C6.8999 12.1914 6.93348 12.225 6.9749 12.225Z" fill="white"/>
<path d="M7.27471 12.225C7.31613 12.225 7.34971 12.1914 7.34971 12.15C7.34971 12.1085 7.31613 12.075 7.27471 12.075C7.23329 12.075 7.19971 12.1085 7.19971 12.15C7.19971 12.1914 7.23329 12.225 7.27471 12.225Z" fill="white"/>
<path d="M5.6248 12.4125C5.66623 12.4125 5.6998 12.3789 5.6998 12.3375C5.6998 12.296 5.66623 12.2625 5.6248 12.2625C5.58338 12.2625 5.5498 12.296 5.5498 12.3375C5.5498 12.3789 5.58338 12.4125 5.6248 12.4125Z" fill="white"/>
<path d="M5.4749 12.6C5.51632 12.6 5.5499 12.5664 5.5499 12.525C5.5499 12.4835 5.51632 12.45 5.4749 12.45C5.43348 12.45 5.3999 12.4835 5.3999 12.525C5.3999 12.5664 5.43348 12.6 5.4749 12.6Z" fill="white"/>
<path d="M5.77471 12.6C5.81613 12.6 5.84971 12.5664 5.84971 12.525C5.84971 12.4835 5.81613 12.45 5.77471 12.45C5.73329 12.45 5.69971 12.4835 5.69971 12.525C5.69971 12.5664 5.73329 12.6 5.77471 12.6Z" fill="white"/>
<path d="M5.4749 12.225C5.51632 12.225 5.5499 12.1914 5.5499 12.15C5.5499 12.1085 5.51632 12.075 5.4749 12.075C5.43348 12.075 5.3999 12.1085 5.3999 12.15C5.3999 12.1914 5.43348 12.225 5.4749 12.225Z" fill="white"/>
<path d="M5.77471 12.225C5.81613 12.225 5.84971 12.1914 5.84971 12.15C5.84971 12.1085 5.81613 12.075 5.77471 12.075C5.73329 12.075 5.69971 12.1085 5.69971 12.15C5.69971 12.1914 5.73329 12.225 5.77471 12.225Z" fill="white"/>
<path d="M6.3748 13.35C6.41623 13.35 6.44981 13.3164 6.44981 13.275C6.44981 13.2335 6.41623 13.2 6.3748 13.2C6.33338 13.2 6.2998 13.2335 6.2998 13.275C6.2998 13.3164 6.33338 13.35 6.3748 13.35Z" fill="white"/>
<path d="M6.2249 13.5375C6.26632 13.5375 6.2999 13.5039 6.2999 13.4625C6.2999 13.421 6.26632 13.3875 6.2249 13.3875C6.18348 13.3875 6.1499 13.421 6.1499 13.4625C6.1499 13.5039 6.18348 13.5375 6.2249 13.5375Z" fill="white"/>
<path d="M6.52471 13.5375C6.56613 13.5375 6.59971 13.5039 6.59971 13.4625C6.59971 13.421 6.56613 13.3875 6.52471 13.3875C6.48329 13.3875 6.44971 13.421 6.44971 13.4625C6.44971 13.5039 6.48329 13.5375 6.52471 13.5375Z" fill="white"/>
<path d="M6.2249 13.1625C6.26632 13.1625 6.2999 13.1289 6.2999 13.0875C6.2999 13.046 6.26632 13.0125 6.2249 13.0125C6.18348 13.0125 6.1499 13.046 6.1499 13.0875C6.1499 13.1289 6.18348 13.1625 6.2249 13.1625Z" fill="white"/>
<path d="M6.52471 13.1625C6.56613 13.1625 6.59971 13.1289 6.59971 13.0875C6.59971 13.046 6.56613 13.0125 6.52471 13.0125C6.48329 13.0125 6.44971 13.046 6.44971 13.0875C6.44971 13.1289 6.48329 13.1625 6.52471 13.1625Z" fill="white"/>
<path d="M6 10.5H6.75L6.675 10.125V9.75H6.75V9.5625H6.6375V9.675H6.6V9.5625H6.4875V9.675H6.4125V9.5625H6.3375V9.675H6.2625V9.5625H6.15V9.675H6.075V9.5625H6V9.75H6.075V10.125L6 10.5Z" fill="#FFE62E"/>
<path d="M6.4874 10.5H6.4499V10.35C6.4499 10.3125 6.4124 10.275 6.3749 10.275C6.3374 10.275 6.2999 10.3125 6.2999 10.35V10.5H6.2624V10.35C6.2624 10.275 6.2999 10.2375 6.3749 10.2375C6.4499 10.2375 6.4874 10.275 6.4874 10.35V10.5ZM6.3749 10.0875H6.1499V9.89998C6.1499 9.82498 6.1874 9.78748 6.2624 9.78748C6.3374 9.78748 6.3749 9.82498 6.3749 9.89998V10.0875ZM6.1874 10.05H6.3374V9.89998C6.3374 9.86248 6.2999 9.82498 6.2624 9.82498C6.2249 9.82498 6.1874 9.86248 6.1874 9.89998V10.05ZM6.5999 10.0875H6.3749V9.89998C6.3749 9.82498 6.4124 9.78748 6.4874 9.78748C6.5624 9.78748 6.5999 9.82498 6.5999 9.89998V10.0875ZM6.4124 10.05H6.5624V9.89998C6.5624 9.86248 6.5249 9.82498 6.4874 9.82498C6.4499 9.82498 6.4124 9.86248 6.4124 9.89998V10.05Z" fill="#3E4347"/>
<path d="M4.125 10.5H4.875L4.8 10.125V9.75H4.875V9.5625H4.7625V9.675H4.725V9.5625H4.6125V9.675H4.5375V9.5625H4.4625V9.675H4.3875V9.5625H4.275V9.675H4.2V9.5625H4.125V9.75H4.2V10.125L4.125 10.5Z" fill="#FFE62E"/>
<path d="M4.6124 10.5H4.5749V10.35C4.5749 10.3125 4.5374 10.275 4.4999 10.275C4.4624 10.275 4.4249 10.3125 4.4249 10.35V10.5H4.3874V10.35C4.3874 10.275 4.4249 10.2375 4.4999 10.2375C4.5749 10.2375 4.6124 10.275 4.6124 10.35V10.5ZM4.4999 10.0875H4.2749V9.89998C4.2749 9.82498 4.3124 9.78748 4.3874 9.78748C4.4624 9.78748 4.4999 9.82498 4.4999 9.89998V10.0875ZM4.3124 10.05H4.4624V9.89998C4.4624 9.86248 4.4249 9.82498 4.3874 9.82498C4.3499 9.82498 4.3124 9.86248 4.3124 9.89998V10.05Z" fill="#3E4347"/>
<path d="M4.725 10.0875H4.5V9.89998C4.5 9.82498 4.5375 9.78748 4.6125 9.78748C4.6875 9.78748 4.725 9.82498 4.725 9.89998V10.0875ZM4.5375 10.05H4.6875V9.89998C4.6875 9.86248 4.65 9.82498 4.6125 9.82498C4.575 9.82498 4.5375 9.86248 4.5375 9.89998V10.05Z" fill="#3E4347"/>
<path d="M4.125 12.7125H4.875L4.8 12.3375V11.9625H4.875V11.775H4.8V11.8875H4.725V11.775H4.65V11.8875H4.5375V11.775H4.4625V11.8875H4.3875V11.775H4.3125V11.8875H4.2375V11.775H4.125V11.9625H4.2375V12.3375L4.125 12.7125Z" fill="#FFE62E"/>
<path d="M4.6124 12.7125H4.5749V12.5625C4.5749 12.525 4.5374 12.4875 4.4999 12.4875C4.4624 12.4875 4.4249 12.525 4.4249 12.5625V12.7125H4.3874V12.5625C4.3874 12.4875 4.4249 12.45 4.4999 12.45C4.5749 12.45 4.6124 12.4875 4.6124 12.5625V12.7125ZM4.4999 12.3H4.2749V12.1125C4.2749 12.0375 4.3124 12 4.3874 12C4.4624 12 4.4999 12.0375 4.4999 12.1125V12.3ZM4.3124 12.2625H4.4624V12.1125C4.4624 12.075 4.4249 12.0375 4.3874 12.0375C4.3499 12.0375 4.3124 12.075 4.3124 12.1125V12.2625ZM4.7624 12.3H4.5374V12.1125C4.5374 12.0375 4.5749 12 4.6499 12C4.7249 12 4.7624 12.0375 4.7624 12.1125V12.3ZM4.5749 12.2625H4.7249V12.1125C4.7249 12.075 4.6874 12.0375 4.6499 12.0375C4.6124 12.0375 4.5749 12.075 4.5749 12.1125V12.2625Z" fill="#3E4347"/>
<path d="M7.875 12.75H8.625L8.55 12.375V12H8.625V11.85H8.5125V11.925H8.475V11.85H8.3625V11.925H8.2875V11.85H8.2125V11.925H8.1375V11.85H8.025V11.925H7.95V11.85H7.875V12H7.95V12.375L7.875 12.75Z" fill="#FFE62E"/>
<path d="M8.3624 12.75H8.3249V12.6C8.3249 12.5625 8.2874 12.525 8.2499 12.525C8.2124 12.525 8.1749 12.5625 8.1749 12.6V12.75H8.1374V12.6C8.1374 12.525 8.1749 12.4875 8.2499 12.4875C8.3249 12.4875 8.3624 12.525 8.3624 12.6V12.75ZM8.2499 12.3375H8.0249V12.15C8.0249 12.075 8.0624 12.0375 8.1374 12.0375C8.2124 12.0375 8.2499 12.075 8.2499 12.15V12.3375ZM8.0624 12.3H8.2124V12.15C8.2124 12.1125 8.1749 12.075 8.1374 12.075C8.0999 12.075 8.0624 12.1125 8.0624 12.15V12.3ZM8.4749 12.3375H8.2499V12.15C8.2499 12.075 8.2874 12.0375 8.3624 12.0375C8.4374 12.0375 8.4749 12.075 8.4749 12.15V12.3375ZM8.2874 12.3H8.4374V12.15C8.4374 12.1125 8.3999 12.075 8.3624 12.075C8.3249 12.075 8.2874 12.1125 8.2874 12.15V12.3Z" fill="#3E4347"/>
<path d="M7.875 10.5H8.625L8.55 10.125V9.75H8.625V9.5625H8.5125V9.675H8.475V9.5625H8.3625V9.675H8.2875V9.5625H8.2125V9.675H8.1375V9.5625H8.025V9.675H7.95V9.5625H7.875V9.75H7.95V10.125L7.875 10.5Z" fill="#FFE62E"/>
<path d="M8.3624 10.5H8.3249V10.35C8.3249 10.3125 8.2874 10.275 8.2499 10.275C8.2124 10.275 8.1749 10.3125 8.1749 10.35V10.5H8.1374V10.35C8.1374 10.275 8.1749 10.2375 8.2499 10.2375C8.3249 10.2375 8.3624 10.275 8.3624 10.35V10.5ZM8.2499 10.0875H8.0249V9.89998C8.0249 9.82498 8.0624 9.78748 8.1374 9.78748C8.2124 9.78748 8.2499 9.82498 8.2499 9.89998V10.0875ZM8.0624 10.05H8.2124V9.89998C8.2124 9.86248 8.1749 9.82498 8.1374 9.82498C8.0999 9.82498 8.0624 9.86248 8.0624 9.89998V10.05ZM8.4749 10.0875H8.2499V9.89998C8.2499 9.82498 8.2874 9.78748 8.3624 9.78748C8.4374 9.78748 8.4749 9.82498 8.4749 9.89998V10.0875ZM8.2874 10.05H8.4374V9.89998C8.4374 9.86248 8.3999 9.82498 8.3624 9.82498C8.3249 9.82498 8.2874 9.86248 8.2874 9.89998V10.05Z" fill="#3E4347"/>
<path d="M5.325 14.85L5.85 14.2875L5.5125 14.1L5.25 13.8375L5.325 13.7625L5.2125 13.65L5.1375 13.725L5.2125 13.8L5.175 13.8375L5.1 13.7625L5.025 13.8375L5.1 13.875L5.025 13.95L4.9875 13.875L4.9125 13.95L4.9875 14.025L4.9125 14.0625L4.875 13.9875L4.8 14.0625L4.8375 14.1375L4.8 14.175L4.7625 14.1L4.6875 14.175L4.8 14.2875H4.8375L4.875 14.25L5.1375 14.5125L5.325 14.85Z" fill="#FFE62E"/>
<path d="M5.5127 14.4C5.4752 14.3625 5.4377 14.3625 5.4002 14.4C5.3627 14.4375 5.3627 14.475 5.4002 14.5125L5.5127 14.625L5.4752 14.6625L5.3627 14.55C5.3252 14.5125 5.3252 14.4375 5.3627 14.4C5.4002 14.3625 5.4752 14.3625 5.5127 14.4ZM5.2877 14.2875L5.1377 14.4375L5.0252 14.325C4.9877 14.2875 4.9877 14.2125 5.0252 14.175C5.0627 14.1375 5.1377 14.1375 5.1752 14.175L5.2877 14.2875ZM5.1377 14.4L5.2502 14.2875L5.1377 14.175C5.1002 14.1375 5.0627 14.1375 5.0252 14.175C4.9877 14.2125 4.9877 14.25 5.0252 14.2875L5.1377 14.4ZM5.4752 14.1L5.3252 14.25L5.2127 14.1375C5.1752 14.1 5.1752 14.025 5.2127 13.9875C5.2502 13.95 5.3252 13.95 5.3627 13.9875L5.4752 14.1ZM5.3252 14.2125L5.4377 14.1L5.3252 13.9875C5.2877 13.95 5.2502 13.95 5.2127 13.9875C5.1752 14.025 5.1752 14.0625 5.2127 14.1L5.3252 14.2125Z" fill="#3E4347"/>
<path d="M7.4249 14.85L6.8999 14.2875L7.1999 14.1L7.4624 13.8375L7.4249 13.7625L7.5374 13.65L7.6124 13.725L7.5374 13.8L7.5749 13.8375L7.6499 13.7625L7.7249 13.8375L7.6499 13.875L7.7249 13.95L7.7624 13.875L7.8374 13.95L7.7624 14.025L7.8374 14.0625L7.8749 13.9875L7.9499 14.0625L7.8749 14.1375L7.9499 14.175L7.9874 14.1L8.0624 14.175L7.9499 14.2875H7.9124L7.8749 14.25L7.6124 14.5125L7.4249 14.85Z" fill="#FFE62E"/>
<path d="M7.0874 14.475L7.2374 14.4C7.2749 14.3625 7.3124 14.3625 7.3499 14.4C7.3874 14.4375 7.3874 14.475 7.3499 14.5125L7.1999 14.625L7.2374 14.6625L7.3499 14.55C7.3874 14.5125 7.3874 14.4375 7.3499 14.4C7.3124 14.3625 7.2374 14.3625 7.1999 14.4L7.0874 14.475ZM7.5749 14.175C7.6124 14.1375 7.6874 14.1375 7.7249 14.175C7.7624 14.2125 7.7624 14.2875 7.7249 14.325L7.6124 14.4375L7.4624 14.2875L7.5749 14.175ZM7.6874 14.2875C7.7249 14.25 7.7249 14.2125 7.6874 14.175C7.6499 14.1375 7.6124 14.1375 7.5749 14.175L7.4999 14.2875L7.6124 14.4L7.6874 14.2875ZM7.3874 13.9875C7.4249 13.95 7.4999 13.95 7.5374 13.9875C7.5749 14.025 7.5749 14.1 7.5374 14.1375L7.4249 14.25L7.2749 14.1L7.3874 13.9875ZM7.5374 14.1C7.5749 14.0625 7.5749 14.025 7.5374 13.9875C7.4999 13.95 7.4624 13.95 7.4249 13.9875L7.3124 14.1L7.4249 14.2125L7.5374 14.1Z" fill="#3E4347"/>
</g>
<defs>
<clipPath id="clip0_3546_4202">
<rect width="24" height="24" fill="white"/>
</clipPath>
</defs>
</svg>
