<?xml version="1.0" encoding="utf-8"?>
<!-- Generator: Adobe Illustrator 23.0.3, SVG Export Plug-In . SVG Version: 6.00 Build 0)  -->
<svg version="1.1" id="Layer_1" xmlns="http://www.w3.org/2000/svg" xmlns:xlink="http://www.w3.org/1999/xlink" x="0px" y="0px"
	 width="34px" height="34px" viewBox="0 0 34 34" style="enable-background:new 0 0 34 34;" xml:space="preserve">
<style type="text/css">
	.st0{opacity:0.35;}
	.st1{clip-path:url(#SVGID_2_);}
	.st2{fill:#FECB00;}
	.st3{fill:#34B233;}
	.st4{fill:#EA2839;}
	.st5{fill:#FFFFFF;}
	.st6{clip-path:url(#SVGID_4_);}
	.st7{clip-path:url(#SVGID_6_);}
</style>
<g class="st0">
	<defs>
		<circle id="SVGID_1_" class="st0" cx="17" cy="17" r="17"/>
	</defs>
	<clipPath id="SVGID_2_">
		<use xlink:href="#SVGID_1_"  style="overflow:visible;"/>
	</clipPath>
	<g class="st1">
		<rect x="-9.1" y="-0.4" class="st2" width="52.2" height="34.8"/>
		<rect x="-9.1" y="11.2" class="st3" width="52.2" height="23.2"/>
		<rect x="-9.1" y="22.8" class="st4" width="52.2" height="11.6"/>
		<path class="st5" d="M21.7,19.7l7.5-5.5h-9.3L17,5.4l-2.9,8.9H4.8l7.5,5.5l-2.9,8.9l7.5-5.5l7.5,5.5L21.7,19.7z M17,18.2L17,18.2
			L17,18.2L17,18.2z"/>
	</g>
</g>
<g class="st0">
	<defs>
		<circle id="SVGID_3_" class="st0" cx="17" cy="17" r="14"/>
	</defs>
	<clipPath id="SVGID_4_">
		<use xlink:href="#SVGID_3_"  style="overflow:visible;"/>
	</clipPath>
	<g class="st6">
		<rect x="-9.1" y="-0.4" class="st2" width="52.2" height="34.8"/>
		<rect x="-9.1" y="11.2" class="st3" width="52.2" height="23.2"/>
		<rect x="-9.1" y="22.8" class="st4" width="52.2" height="11.6"/>
		<path class="st5" d="M21.7,19.7l7.5-5.5h-9.3L17,5.4l-2.9,8.9H4.8l7.5,5.5l-2.9,8.9l7.5-5.5l7.5,5.5L21.7,19.7z M17,18.2L17,18.2
			L17,18.2L17,18.2z"/>
	</g>
</g>
<g>
	<defs>
		<circle id="SVGID_5_" cx="17" cy="17" r="11"/>
	</defs>
	<clipPath id="SVGID_6_">
		<use xlink:href="#SVGID_5_"  style="overflow:visible;"/>
	</clipPath>
	<g class="st7">
		<rect x="-9.1" y="-0.4" class="st2" width="52.2" height="34.8"/>
		<rect x="-9.1" y="11.2" class="st3" width="52.2" height="23.2"/>
		<rect x="-9.1" y="22.8" class="st4" width="52.2" height="11.6"/>
		<path class="st5" d="M21.7,19.7l7.5-5.5h-9.3L17,5.4l-2.9,8.9H4.8l7.5,5.5l-2.9,8.9l7.5-5.5l7.5,5.5L21.7,19.7z M17,18.2L17,18.2
			L17,18.2L17,18.2z"/>
	</g>
</g>
</svg>
