<?xml version="1.0" encoding="utf-8"?>
<!-- Generator: Adobe Illustrator 23.0.3, SVG Export Plug-In . SVG Version: 6.00 Build 0)  -->
<svg version="1.1" id="圖層_2" xmlns="http://www.w3.org/2000/svg" xmlns:xlink="http://www.w3.org/1999/xlink" x="0px" y="0px"
	 width="34px" height="34px" viewBox="0 0 34 34" style="enable-background:new 0 0 34 34;" xml:space="preserve">
<style type="text/css">
	.st0{clip-path:url(#SVGID_2_);}
	.st1{clip-path:url(#SVGID_4_);}
	.st2{fill:#FF9922;}
	.st3{fill:#008800;}
	.st4{fill:#FFFFFF;}
	.st5{fill:#00008B;}
</style>
<g>
	<g>
		<defs>
			<ellipse id="SVGID_1_" transform="matrix(0.1588 -0.9873 0.9873 0.1588 -2.4838 31.0848)" cx="17" cy="17" rx="17" ry="17"/>
		</defs>
		<clipPath id="SVGID_2_">
			<use xlink:href="#SVGID_1_"  style="overflow:visible;"/>
		</clipPath>
		<g class="st0">
			<defs>
				<rect id="SVGID_3_" x="-8.9" y="-0.3" width="51.8" height="34.6"/>
			</defs>
			<clipPath id="SVGID_4_">
				<use xlink:href="#SVGID_3_"  style="overflow:visible;"/>
			</clipPath>
			<g class="st1">
				<g>
					<rect x="-16.4" y="-0.2" class="st2" width="66.9" height="11.5"/>
					<rect x="-16.4" y="22.7" class="st3" width="66.9" height="11.5"/>
					<rect x="-16.4" y="11.2" class="st4" width="66.9" height="11.5"/>
				</g>
				<g>
					<path class="st5" d="M17,12.3c-2.6,0-4.7,2.1-4.7,4.7s2.1,4.7,4.7,4.7c2.6,0,4.7-2.1,4.7-4.7S19.6,12.3,17,12.3z M17,21.1
						c-2.3,0-4.1-1.9-4.1-4.1s1.9-4.1,4.1-4.1c2.3,0,4.1,1.9,4.1,4.1S19.3,21.1,17,21.1z"/>
					<g>
						<path class="st5" d="M21.2,16.4c0,0.1-0.1,0.2-0.2,0.2c-0.1,0-0.2-0.1-0.2-0.2c0-0.1,0.1-0.2,0.2-0.2
							C21.1,16.2,21.2,16.3,21.2,16.4z"/>
						<path class="st5" d="M13.2,17.5c0,0.1-0.1,0.2-0.2,0.2c-0.1,0-0.2-0.1-0.2-0.2c0-0.1,0.1-0.2,0.2-0.2
							C13.1,17.3,13.2,17.4,13.2,17.5z"/>
					</g>
					<g>
						<path class="st5" d="M20.9,15.4c0,0.1,0,0.2-0.1,0.3c-0.1,0-0.2,0-0.3-0.1s0-0.2,0.1-0.3C20.8,15.2,20.9,15.3,20.9,15.4z"/>
						<path class="st5" d="M13.4,18.5c0,0.1,0,0.2-0.1,0.3c-0.1,0-0.2,0-0.3-0.1c0-0.1,0-0.2,0.1-0.3C13.3,18.3,13.4,18.4,13.4,18.5
							z"/>
					</g>
					<g>
						<path class="st5" d="M20.4,14.4c0.1,0.1,0.1,0.2,0,0.3c-0.1,0.1-0.2,0.1-0.3,0c-0.1-0.1-0.1-0.2,0-0.3
							C20.2,14.3,20.3,14.3,20.4,14.4z"/>
						<path class="st5" d="M13.9,19.3c0.1,0.1,0.1,0.2,0,0.3c-0.1,0.1-0.2,0.1-0.3,0c-0.1-0.1-0.1-0.2,0-0.3
							C13.7,19.2,13.9,19.3,13.9,19.3z"/>
					</g>
					<g>
						<path class="st5" d="M19.6,13.6c0.1,0.1,0.1,0.2,0,0.3c-0.1,0.1-0.2,0.1-0.3,0c-0.1-0.1-0.1-0.2,0-0.3S19.5,13.5,19.6,13.6z"
							/>
						<path class="st5" d="M14.7,20.1c0.1,0.1,0.1,0.2,0,0.3c-0.1,0.1-0.2,0.1-0.3,0c-0.1-0.1-0.1-0.2,0-0.3
							C14.4,20,14.6,20,14.7,20.1z"/>
					</g>
					<g>
						<path class="st5" d="M18.6,13.1c0.1,0,0.2,0.2,0.1,0.3c0,0.1-0.2,0.2-0.3,0.1c-0.1,0-0.2-0.2-0.1-0.3
							C18.4,13.1,18.5,13,18.6,13.1z"/>
						<path class="st5" d="M15.5,20.6c0.1,0,0.2,0.2,0.1,0.3c0,0.1-0.2,0.2-0.3,0.1c-0.1,0-0.2-0.2-0.1-0.3
							C15.3,20.6,15.4,20.5,15.5,20.6z"/>
					</g>
					<g>
						<path class="st5" d="M17.6,12.8c0.1,0,0.2,0.1,0.2,0.2s-0.1,0.2-0.2,0.2c-0.1,0-0.2-0.1-0.2-0.2S17.4,12.7,17.6,12.8z"/>
						<path class="st5" d="M16.5,20.8c0.1,0,0.2,0.1,0.2,0.2c0,0.1-0.1,0.2-0.2,0.2c-0.1,0-0.2-0.1-0.2-0.2
							C16.3,20.9,16.4,20.8,16.5,20.8z"/>
					</g>
					<g>
						<path class="st5" d="M16.4,12.8c0.1,0,0.2,0.1,0.2,0.2s-0.1,0.2-0.2,0.2c-0.1,0-0.2-0.1-0.2-0.2
							C16.2,12.9,16.3,12.8,16.4,12.8z"/>
						<path class="st5" d="M17.5,20.8c0.1,0,0.2,0.1,0.2,0.2c0,0.1-0.1,0.2-0.2,0.2c-0.1,0-0.2-0.1-0.2-0.2
							C17.3,20.9,17.4,20.8,17.5,20.8z"/>
					</g>
					<g>
						<path class="st5" d="M15.4,13.1c0.1,0,0.2,0,0.3,0.1c0,0.1,0,0.2-0.1,0.3c-0.1,0-0.2,0-0.3-0.1C15.2,13.2,15.3,13.1,15.4,13.1
							z"/>
						<path class="st5" d="M18.5,20.6c0.1,0,0.2,0,0.3,0.1c0,0.1,0,0.2-0.1,0.3c-0.1,0-0.2,0-0.3-0.1C18.3,20.7,18.4,20.6,18.5,20.6
							z"/>
					</g>
					<g>
						<path class="st5" d="M14.4,13.6c0.1-0.1,0.2-0.1,0.3,0c0.1,0.1,0.1,0.2,0,0.3c-0.1,0.1-0.2,0.1-0.3,0
							C14.3,13.8,14.3,13.7,14.4,13.6z"/>
						<path class="st5" d="M19.3,20.1c0.1-0.1,0.2-0.1,0.3,0c0.1,0.1,0.1,0.2,0,0.3c-0.1,0.1-0.2,0.1-0.3,0
							C19.2,20.3,19.3,20.1,19.3,20.1z"/>
					</g>
					<g>
						<path class="st5" d="M13.6,14.4c0.1-0.1,0.2-0.1,0.3,0s0.1,0.2,0,0.3s-0.2,0.1-0.3,0C13.6,14.6,13.5,14.5,13.6,14.4z"/>
						<path class="st5" d="M20.1,19.3c0.1-0.1,0.2-0.1,0.3,0c0.1,0.1,0.1,0.2,0,0.3c-0.1,0.1-0.2,0.1-0.3,0
							C20,19.6,20,19.4,20.1,19.3z"/>
					</g>
					<g>
						<path class="st5" d="M13.1,15.4c0-0.1,0.2-0.2,0.3-0.1c0.1,0,0.2,0.2,0.1,0.3c0,0.1-0.2,0.2-0.3,0.1
							C13.1,15.6,13,15.5,13.1,15.4z"/>
						<path class="st5" d="M20.6,18.5c0-0.1,0.2-0.2,0.3-0.1c0.1,0,0.2,0.2,0.1,0.3c0,0.1-0.2,0.2-0.3,0.1
							C20.6,18.7,20.5,18.6,20.6,18.5z"/>
					</g>
					<g>
						<path class="st5" d="M12.8,16.4c0-0.1,0.1-0.2,0.2-0.2c0.1,0,0.2,0.1,0.2,0.2c0,0.1-0.1,0.2-0.2,0.2S12.7,16.6,12.8,16.4z"/>
						<path class="st5" d="M20.8,17.5c0-0.1,0.1-0.2,0.2-0.2c0.1,0,0.2,0.1,0.2,0.2c0,0.1-0.1,0.2-0.2,0.2
							C20.9,17.7,20.8,17.6,20.8,17.5z"/>
					</g>
					<circle class="st5" cx="17" cy="17" r="0.8"/>
					<g>
						<polygon class="st5" points="17,16.1 16.8,15.4 17,12.9 17.2,15.4 						"/>
						<polygon class="st5" points="17,17.9 16.8,18.6 17,21.1 17.2,18.6 						"/>
					</g>
					<g>
						<polygon class="st5" points="16.8,16.2 16.4,15.5 15.9,13.1 16.8,15.4 						"/>
						<polygon class="st5" points="17.2,17.8 17.2,18.6 18.1,20.9 17.6,18.5 						"/>
					</g>
					<g>
						<polygon class="st5" points="16.6,16.2 16,15.7 15,13.5 16.4,15.5 						"/>
						<polygon class="st5" points="17.4,17.7 17.6,18.5 19,20.5 18,18.3 						"/>
					</g>
					<g>
						<polygon class="st5" points="16.4,16.4 15.7,16 14.1,14.1 16,15.7 						"/>
						<polygon class="st5" points="17.6,17.6 18,18.3 19.9,19.9 18.3,18 						"/>
					</g>
					<g>
						<polygon class="st5" points="16.3,16.6 15.5,16.4 13.5,15 15.7,16 						"/>
						<polygon class="st5" points="17.8,17.4 18.3,18 20.5,19 18.5,17.6 						"/>
					</g>
					<g>
						<polygon class="st5" points="16.2,16.8 15.4,16.8 13.1,15.9 15.5,16.4 						"/>
						<polygon class="st5" points="17.8,17.2 18.5,17.6 20.9,18.1 18.6,17.2 						"/>
					</g>
					<g>
						<polygon class="st5" points="16.1,17 15.4,17.2 12.9,17 15.4,16.8 						"/>
						<polygon class="st5" points="17.9,17 18.6,17.2 21.1,17 18.6,16.8 						"/>
					</g>
					<g>
						<polygon class="st5" points="16.2,17.2 15.5,17.6 13.1,18.1 15.4,17.2 						"/>
						<polygon class="st5" points="17.8,16.8 18.6,16.8 20.9,15.9 18.5,16.4 						"/>
					</g>
					<g>
						<polygon class="st5" points="16.2,17.4 15.7,18 13.5,19 15.5,17.6 						"/>
						<polygon class="st5" points="17.7,16.6 18.5,16.4 20.5,15 18.3,16 						"/>
					</g>
					<g>
						<polygon class="st5" points="16.4,17.6 16,18.3 14.1,19.9 15.7,18 						"/>
						<polygon class="st5" points="17.6,16.4 18.3,16 19.9,14.1 18,15.7 						"/>
					</g>
					<g>
						<polygon class="st5" points="16.6,17.7 16.4,18.5 15,20.5 16,18.3 						"/>
						<polygon class="st5" points="17.4,16.2 18,15.7 19,13.5 17.6,15.5 						"/>
					</g>
					<g>
						<polygon class="st5" points="16.8,17.8 16.8,18.6 15.9,20.9 16.4,18.5 						"/>
						<polygon class="st5" points="17.2,16.2 17.6,15.5 18.1,13.1 17.2,15.4 						"/>
					</g>
				</g>
			</g>
		</g>
	</g>
</g>
</svg>
