<?xml version="1.0" encoding="utf-8"?>
<!-- Generator: Adobe Illustrator 23.1.0, SVG Export Plug-In . SVG Version: 6.00 Build 0)  -->
<svg version="1.1" id="Layer_1" xmlns="http://www.w3.org/2000/svg" xmlns:xlink="http://www.w3.org/1999/xlink" x="0px" y="0px"
	 viewBox="0 0 34 34" style="enable-background:new 0 0 34 34;" xml:space="preserve">
<style type="text/css">
	.st0{opacity:0.35;}
	.st1{clip-path:url(#SVGID_2_);}
	.st2{fill:#032EA1;}
	.st3{fill:#E00025;}
	.st4{clip-path:url(#SVGID_4_);}
	.st5{fill:#FFFFFF;}
	.st6{clip-path:url(#SVGID_6_);}
</style>
<g class="st0">
	<g>
		<defs>
			<circle id="SVGID_1_" cx="17" cy="17" r="17"/>
		</defs>
		<clipPath id="SVGID_2_">
			<use xlink:href="#SVGID_1_"  style="overflow:visible;"/>
		</clipPath>
		<g class="st1">
			<path class="st2" d="M-10-0.3h54v34.6h-54V-0.3z"/>
			<path class="st3" d="M-10,8.4h54v17.3h-54V8.4z"/>
		</g>
	</g>
</g>
<g class="st0">
	<defs>
		<circle id="SVGID_3_" class="st0" cx="17" cy="17" r="14"/>
	</defs>
	<clipPath id="SVGID_4_">
		<use xlink:href="#SVGID_3_"  style="overflow:visible;"/>
	</clipPath>
	<g class="st4">
		<path class="st2" d="M-10-0.3h54v34.6h-54V-0.3z"/>
		<path class="st3" d="M-10,8.4h54v17.3h-54V8.4z"/>
		<polygon class="st5" points="24.4,21.6 24.4,18.9 22.6,18.9 22.6,15.1 22.6,15.1 20.7,13.3 18.8,15.1 18.8,15.1 18.8,11.4 17,9.6 
			15.2,11.4 15.2,15.1 15.2,15.1 13.3,13.3 11.4,15.1 11.4,15.1 11.4,18.9 9.6,18.9 9.6,21.6 7.7,21.6 7.7,24.4 26.3,24.4 
			26.3,21.6 		"/>
	</g>
</g>
<g>
	<defs>
		<circle id="SVGID_5_" cx="17" cy="17" r="11"/>
	</defs>
	<clipPath id="SVGID_6_">
		<use xlink:href="#SVGID_5_"  style="overflow:visible;"/>
	</clipPath>
	<g class="st6">
		<path class="st2" d="M-10-0.3h54v34.6h-54V-0.3z"/>
		<path class="st3" d="M-10,8.4h54v17.3h-54V8.4z"/>
		<polygon class="st5" points="24.4,21.6 24.4,18.9 22.6,18.9 22.6,15.1 22.6,15.1 20.7,13.3 18.8,15.1 18.8,15.1 18.8,11.4 17,9.6 
			15.2,11.4 15.2,15.1 15.2,15.1 13.3,13.3 11.4,15.1 11.4,15.1 11.4,18.9 9.6,18.9 9.6,21.6 7.7,21.6 7.7,24.4 26.3,24.4 
			26.3,21.6 		"/>
	</g>
</g>
</svg>
