<?xml version="1.0" encoding="utf-8"?>
<!-- Generator: Adobe Illustrator 23.0.3, SVG Export Plug-In . SVG Version: 6.00 Build 0)  -->
<svg version="1.1" id="Layer_1" xmlns="http://www.w3.org/2000/svg" xmlns:xlink="http://www.w3.org/1999/xlink" x="0px" y="0px"
	 width="34px" height="34px" viewBox="0 0 34 34" style="enable-background:new 0 0 34 34;" xml:space="preserve">
<style type="text/css">
	.st0{opacity:0.35;}
	.st1{clip-path:url(#SVGID_2_);}
	.st2{fill:#D80027;}
	.st3{fill:#F0F0F0;}
	.st4{fill:#0052B4;}
	.st5{clip-path:url(#SVGID_4_);}
	.st6{clip-path:url(#SVGID_6_);}
</style>
<g class="st0">
	<defs>
		<circle id="SVGID_1_" class="st0" cx="17" cy="17" r="17"/>
	</defs>
	<clipPath id="SVGID_2_">
		<use xlink:href="#SVGID_1_"  style="overflow:visible;"/>
	</clipPath>
	<g class="st1">
		<rect x="-0.7" class="st2" width="35.4" height="7.2"/>
		<rect x="-0.7" y="26.8" class="st2" width="35.4" height="7.2"/>
		<rect x="-0.7" y="7.2" class="st3" width="35.4" height="4.6"/>
		<rect x="-0.7" y="22.2" class="st3" width="35.4" height="4.6"/>
		<rect x="-0.7" y="11.8" class="st4" width="35.4" height="10.4"/>
	</g>
</g>
<g class="st0">
	<defs>
		<circle id="SVGID_3_" class="st0" cx="17" cy="17" r="14"/>
	</defs>
	<clipPath id="SVGID_4_">
		<use xlink:href="#SVGID_3_"  style="overflow:visible;"/>
	</clipPath>
	<g class="st5">
		<rect x="0.8" class="st2" width="32.5" height="7.2"/>
		<rect x="0.8" y="26.8" class="st2" width="32.5" height="7.2"/>
		<rect x="0.8" y="7.2" class="st3" width="32.5" height="4.6"/>
		<rect x="0.8" y="22.2" class="st3" width="32.5" height="4.6"/>
		<rect x="0.8" y="11.8" class="st4" width="32.5" height="10.4"/>
	</g>
</g>
<g>
	<defs>
		<circle id="SVGID_5_" cx="17" cy="17" r="11"/>
	</defs>
	<clipPath id="SVGID_6_">
		<use xlink:href="#SVGID_5_"  style="overflow:visible;"/>
	</clipPath>
	<g class="st6">
		<rect x="0.8" class="st2" width="32.5" height="7.2"/>
		<rect x="0.8" y="26.8" class="st2" width="32.5" height="7.2"/>
		<rect x="0.8" y="7.2" class="st3" width="32.5" height="4.6"/>
		<rect x="0.8" y="22.2" class="st3" width="32.5" height="4.6"/>
		<rect x="0.8" y="11.8" class="st4" width="32.5" height="10.4"/>
	</g>
</g>
</svg>
