<?xml version="1.0" encoding="utf-8"?>
<!-- Generator: Adobe Illustrator 23.0.3, SVG Export Plug-In . SVG Version: 6.00 Build 0)  -->
<svg version="1.1" id="Layer_1" xmlns="http://www.w3.org/2000/svg" xmlns:xlink="http://www.w3.org/1999/xlink" x="0px" y="0px"
	 width="34px" height="34px" viewBox="0 0 34 34" style="enable-background:new 0 0 34 34;" xml:space="preserve">
<style type="text/css">
	.st0{opacity:0.35;fill:#F0F0F0;}
	.st1{fill:#F0F0F0;}
	.st2{fill:#D80027;}
	.st3{fill:#0052B4;}
</style>
<circle class="st0" cx="17" cy="17" r="17"/>
<circle class="st0" cx="17" cy="17" r="14"/>
<circle class="st1" cx="17" cy="17" r="11"/>
<g>
	<path class="st2" d="M20.8,17c0,1-1.7,3.4-3.8,3.4S13.2,18,13.2,17c0-2.1,1.7-3.8,3.8-3.8S20.8,14.9,20.8,17z"/>
	<path class="st3" d="M20.8,17c0,2.1-1.7,3.8-3.8,3.8s-3.8-1.7-3.8-3.8"/>
	<rect x="21.2" y="19.7" transform="matrix(0.7071 -0.7071 0.7071 0.7071 -7.8802 21.4239)" width="1.4" height="1"/>
	<rect x="19.5" y="21.4" transform="matrix(0.7071 -0.7071 0.7071 0.7071 -9.5772 20.7209)" width="1.4" height="1"/>
	<rect x="23.2" y="21.8" transform="matrix(0.7071 -0.7071 0.7071 0.7071 -8.7233 23.4602)" width="1.4" height="1"/>
	<rect x="21.5" y="23.5" transform="matrix(0.7071 -0.7071 0.7071 0.7071 -10.4205 22.7573)" width="1.4" height="1"/>
	<rect x="22.2" y="20.8" transform="matrix(0.7071 -0.7071 0.7071 0.7071 -8.3018 22.442)" width="1.4" height="1"/>
	<rect x="20.5" y="22.5" transform="matrix(0.7071 -0.7071 0.7071 0.7071 -9.9987 21.7394)" width="1.4" height="1"/>
	<rect x="21.6" y="10" transform="matrix(0.7071 -0.7071 0.7071 0.7071 -1.9506 19.1088)" width="1" height="3.8"/>
	<rect x="19.7" y="11.4" transform="matrix(0.7071 -0.7071 0.7071 0.7071 -2.6176 17.8387)" width="1" height="1.4"/>
	<rect x="21.4" y="13.1" transform="matrix(0.7071 -0.7071 0.7071 0.7071 -3.3205 19.5354)" width="1" height="1.4"/>
	<rect x="21.8" y="9.3" transform="matrix(0.7071 -0.7071 0.7071 0.7071 -0.5816 18.6815)" width="1" height="1.4"/>
	<rect x="23.5" y="11" transform="matrix(0.7071 -0.7071 0.7071 0.7071 -1.2843 20.379)" width="1" height="1.4"/>
	<rect x="10.4" y="21.2" transform="matrix(0.7071 -0.7071 0.7071 0.7071 -13.1506 14.4696)" width="1" height="3.8"/>
	<rect x="12.3" y="22.2" transform="matrix(0.7071 -0.7071 0.7071 0.7071 -12.4837 15.7395)" width="1" height="1.4"/>
	<rect x="10.6" y="20.5" transform="matrix(0.7071 -0.7071 0.7071 0.7071 -11.7809 14.0428)" width="1" height="1.4"/>
	<rect x="12.4" y="19.2" transform="matrix(0.7071 -0.7071 0.7071 0.7071 -11.1142 15.3129)" width="1" height="3.8"/>
	<rect x="9" y="10.4" transform="matrix(0.7071 -0.7071 0.7071 0.7071 -4.5112 10.891)" width="3.8" height="1"/>
	<rect x="10" y="11.4" transform="matrix(0.7071 -0.7071 0.7071 0.7071 -4.9329 11.9088)" width="3.8" height="1"/>
	<rect x="11" y="12.4" transform="matrix(0.7071 -0.7071 0.7071 0.7071 -5.3547 12.9276)" width="3.8" height="1"/>
</g>
</svg>
