<?xml version="1.0" encoding="UTF-8"?>
<svg width="24px" height="24px" viewBox="0 0 24 24" version="1.1" xmlns="http://www.w3.org/2000/svg" xmlns:xlink="http://www.w3.org/1999/xlink">
    <!-- Generator: Sketch 55.1 (78136) - https://sketchapp.com -->
    <title>Bottom Navigation/bottom_nav_sports_active</title>
    <desc>Created with Sketch.</desc>
    <g id="Icons" stroke="none" stroke-width="1" fill="none" fill-rule="evenodd">
        <g id="Bottom-Navigation/bottom_nav_sports_active" fill="#DEBB69">
            <path d="M13.9568633,0 C19.4943125,0 24,4.49641804 24,10.0238798 C24,15.5513415 19.4943125,20.0491642 13.9568633,20.0491642 C12.7787126,20.0491642 11.6526426,19.8342464 10.6011747,19.4620031 L7.84652604,22.2109847 C7.70858247,22.3472398 7.52841127,22.4160697 7.34824008,22.4160697 C7.16806888,22.4160697 6.98789768,22.3472398 6.85136169,22.2109847 C6.57547455,21.9356651 6.57547455,21.4917826 6.85136169,21.2178677 L9.21470108,18.8579857 C7.4805533,17.9280798 6.04903683,16.5037224 5.11299115,14.774547 L1.29279872,18.5868802 C1.15485515,18.72454 0.974683953,18.7933699 0.794512755,18.7933699 C0.614341557,18.7933699 0.434170359,18.72454 0.297634373,18.5868802 C0.0217472266,18.3129653 0.0217472266,17.8690827 0.297634373,17.5937632 L4.50772854,13.3923304 C4.12767991,12.3374069 3.91091144,11.2080348 3.91091144,10.0238798 C3.91091144,4.49641804 8.41659898,0 13.9568633,0 Z M12.4113323,18.4983846 C12.9124334,18.5882849 13.429018,18.6444725 13.9568633,18.6444725 C14.4058837,18.6444725 14.845051,18.5981177 15.2757728,18.5320972 C15.2518438,18.3171794 15.2842183,18.0966428 15.3813418,17.8887484 L16.5806064,15.3631128 C16.598905,15.3237814 16.6270568,15.2942829 16.6481706,15.2577609 L15.8148788,13.4681837 L12.2945025,13.4864447 L11.136058,15.3083298 L12.3156163,17.79042 C12.422593,18.0165754 12.4507447,18.2638011 12.4113323,18.4983846 Z M10.4590084,2.14917826 C9.21610867,2.70122208 8.12522837,3.53420424 7.27363794,4.57086669 C7.50448229,4.73381093 7.6832459,4.96558505 7.75362527,5.25073746 L8.42222933,7.93931732 C8.43489761,7.98707684 8.43208244,8.03483635 8.43912038,8.08259587 L10.6814072,8.81163085 L13.5585161,6.43489254 L13.4951746,4.21828909 L10.975593,2.77426605 C10.72645,2.62958281 10.5547244,2.40623683 10.4590084,2.14917826 Z M20.6105293,4.53715409 C19.7941286,3.55106054 18.7595518,2.75881444 17.5842163,2.21238938 C17.4856851,2.4455682 17.3195898,2.64643911 17.0873379,2.78128951 L14.619837,4.20002809 L14.6831784,6.41101278 L17.5082065,8.91417334 L19.3845206,8.18935244 C19.3873358,8.10647563 19.3929662,8.02078944 19.41408,7.93791263 L20.0812764,5.25073746 C20.1572862,4.94591937 20.355756,4.69869364 20.6105293,4.53715409 Z M21.1834174,14.7281922 C21.8407608,13.7280517 22.2883736,12.5804186 22.4798055,11.348504 C22.2137715,11.3260289 21.956183,11.2262958 21.7534904,11.0310437 L19.8687307,9.2077539 L17.6503729,10.0646158 L16.7973748,12.9119258 L17.6194059,14.679028 L20.3276043,14.4514679 C20.6443114,14.4261835 20.9455352,14.5343447 21.1834174,14.7281922 Z M10.1957896,14.6860514 L11.3626796,12.8515241 L10.5688002,9.95504987 L8.0421807,9.13470993 L6.08281893,11.0310437 C5.89842497,11.2094395 5.66898821,11.2979351 5.42969834,11.3344571 C5.61268471,12.5242309 6.03777613,13.6339374 6.65570703,14.6101981 C6.86402998,14.4907993 7.10331985,14.4303975 7.36090836,14.4472538 L10.1957896,14.6860514 Z M5.41604474,22.6177834 C5.6905243,22.3466779 6.1395447,22.3494873 6.41120909,22.6262115 C6.68287347,22.9015311 6.6800583,23.3468184 6.40276356,23.6193286 L6.22118478,23.7991291 C6.08464879,23.9339795 5.90588518,24 5.72712157,24 C5.54554279,24 5.363964,23.9311701 5.22602043,23.7907009 C4.95435604,23.5153814 4.95717122,23.0700941 5.23446595,22.7975839 L5.41604474,22.6177834 Z M5.91221933,17.9785082 C6.18669888,18.2524231 6.18669888,18.6977104 5.91221933,18.9716252 L1.20102402,23.6745329 C1.06448803,23.810788 0.884316836,23.8796179 0.704145638,23.8796179 C0.523974441,23.8796179 0.343803243,23.810788 0.205859669,23.6745329 C-0.0686198898,23.3992134 -0.0686198898,22.9553308 0.205859669,22.6814159 L4.91705498,17.9785082 C5.19153453,17.7045933 5.63773977,17.7045933 5.91221933,17.9785082 Z" id="bottom_nav_sports_active"></path>
        </g>
    </g>
</svg>