<svg width="16" height="16" viewBox="0 0 16 16" fill="none" xmlns="http://www.w3.org/2000/svg">
<g clip-path="url(#clip0_577_565)">
<path fill-rule="evenodd" clip-rule="evenodd" d="M11.8298 4.66543V2.60714C11.8298 2.60714 11.822 -0.145734 7.96443 0.00981195C7.96441 0.00981195 7.96421 0.00979572 7.96382 0.00976458C7.90986 0.00547091 4.2938 -0.282281 4.00112 2.60714V13.467C4.00112 13.467 3.82754 16.0643 7.80345 15.9763C7.80345 15.9763 11.3798 16.4116 11.8298 13.554V6.65231C11.8298 6.65231 11.5524 5.24065 9.11647 5.24065C9.11647 5.24065 7.44077 5.20544 7.35446 5.74642L7.33701 3.02682C7.33701 3.02682 7.87327 2.41637 8.56372 3.04442L8.54627 4.66641H11.8298V4.66543ZM8.5884 7.46223C8.5884 7.46223 7.31782 7.99199 7.04959 7.39769L7.05077 7.39679H6.00254V7.47657H5.76725V7.64419H5.65313V7.82974H5.76842L5.77195 7.89339V12.4613H5.65078V12.707H5.9696V12.7966H6.92488V12.6962H7.05194V10.3208C7.05194 10.3208 7.39782 9.97568 8.19664 10.0519V8.81038C8.19664 8.81038 8.89075 8.53788 10.179 8.53788V7.40217C10.179 7.40217 9.70016 6.88227 8.5884 7.46223ZM7.15206 9.25321V9.95239H8.08853V8.9843L7.95676 8.8095H7.74029L7.74618 8.97444C7.74618 8.97444 7.96853 9.00402 7.99559 9.10979L7.91206 9.16985C7.91206 9.16985 7.67477 8.89498 7.15206 9.25321ZM7.24137 14.1439C7.24137 14.1439 8.51194 13.6141 8.78018 14.2084L8.779 14.2093H9.82723V14.1295H10.0625V13.9619H10.1766V13.7763H10.0613L10.0578 13.7127L10.0578 9.14475H10.179V8.89914H9.86017V8.8095H8.90488V8.9099H8.77783V11.2853C8.77783 11.2853 8.43195 11.6304 7.63313 11.5542V12.7957C7.63313 12.7957 6.93901 13.0682 5.65079 13.0682V14.2039C5.65079 14.2039 6.12961 14.7238 7.24137 14.1439ZM8.6777 12.3529V11.6537H7.74124V12.6218L7.873 12.7966H8.08947L8.08359 12.6317C8.08359 12.6317 7.86124 12.6021 7.83418 12.4963L7.91771 12.4362C7.91771 12.4362 8.155 12.7111 8.6777 12.3529Z" fill="white"/>
</g>
<defs>
<clipPath id="clip0_577_565">
<rect width="16" height="16" fill="white"/>
</clipPath>
</defs>
</svg>
