<svg width="20" height="20" viewBox="0 0 20 20" fill="none" xmlns="http://www.w3.org/2000/svg">
<path d="M15.92 4.96249C16.0053 4.87545 16.1071 4.8063 16.2195 4.7591C16.3318 4.71189 16.4525 4.68758 16.5743 4.68758C16.6962 4.68758 16.8169 4.71189 16.9292 4.7591C17.0416 4.8063 17.1434 4.87545 17.2287 4.96249C17.5862 5.32374 17.5912 5.90749 17.2412 6.27499L9.84998 15.0125C9.76606 15.1046 9.66422 15.1787 9.5507 15.2301C9.43717 15.2816 9.31435 15.3093 9.18973 15.3117C9.06512 15.314 8.94134 15.2909 8.82596 15.2438C8.71059 15.1966 8.60604 15.1264 8.51873 15.0375L4.02123 10.48C3.84777 10.3031 3.75061 10.0652 3.75061 9.81749C3.75061 9.56975 3.84777 9.33189 4.02123 9.15499C4.10653 9.06795 4.20835 8.9988 4.32071 8.9516C4.43307 8.90439 4.55372 8.88008 4.6756 8.88008C4.79748 8.88008 4.91813 8.90439 5.03049 8.9516C5.14285 8.9988 5.24467 9.06795 5.32998 9.15499L9.14497 13.0212L15.895 4.98999C15.9027 4.98033 15.9111 4.97115 15.92 4.96249Z" fill="white"/>
</svg>
