<?xml version="1.0" encoding="utf-8"?>
<!-- Generator: Adobe Illustrator 23.0.3, SVG Export Plug-In . SVG Version: 6.00 Build 0)  -->
<svg version="1.1" id="Layer_1" xmlns="http://www.w3.org/2000/svg" xmlns:xlink="http://www.w3.org/1999/xlink" x="0px" y="0px"
	 width="16px" height="16px" viewBox="0 0 16 16" style="enable-background:new 0 0 16 16;" xml:space="preserve">
<style type="text/css">
	.st0{fill-rule:evenodd;clip-rule:evenodd;fill:#503F32;}
	.st1{fill-rule:evenodd;clip-rule:evenodd;fill:#FFFFFF;fill-opacity:0.64;}
</style>
<path class="st0" d="M8,9.2c-1.1,0-2.2-0.7-3.1-1.9C4,6.1,3.5,4.4,3.5,2.5V0.8c0,0,0,0,0.1,0h8.8c0,0,0.1,0,0.1,0v1.8
	c0,1.8-0.5,3.5-1.4,4.8C10.2,8.6,9.1,9.2,8,9.2z M15.6,1.5c-0.3-0.3-0.6-0.4-1-0.4h-1.3V0.8c0-0.4-0.4-0.8-0.9-0.8H3.6
	C3.1,0,2.6,0.4,2.6,0.8v0.3H1.3c-0.4,0-0.8,0.1-1,0.4C0.1,1.8,0,2.1,0,2.5c0.3,1.8,1.7,3.4,3.5,4.3c0.2,0.4,0.4,0.7,0.6,1
	c0.7,1,1.5,1.7,2.5,2c0.1,0.8-0.5,1.6-1.5,1.8c0,0,0,0,0,0c-0.2,0-0.3,0.2-0.3,0.4v1.7H4c-0.7,0-1.3,0.5-1.3,1.1v0.9
	c0,0.2,0.2,0.4,0.4,0.4h9.7c0.2,0,0.4-0.2,0.4-0.4v-0.9c0-0.6-0.6-1.1-1.3-1.1h-0.8v-1.7c0-0.2-0.1-0.3-0.3-0.4c0,0,0,0,0,0
	c-1-0.2-1.6-1-1.5-1.8c0.9-0.3,1.8-1,2.5-2c0.2-0.3,0.4-0.6,0.6-1c1.9-0.9,3.2-2.5,3.5-4.3C16,2.1,15.9,1.8,15.6,1.5z"/>
<path class="st1" d="M5.6,13.6h4.7v-1.3H5.6V13.6z"/>
<path class="st1" d="M12.4,14.7v0.5H3.5v-0.5c0-0.2,0.2-0.4,0.4-0.4h8C12.2,14.3,12.4,14.5,12.4,14.7z"/>
<path class="st1" d="M15.1,2.3c-0.2,1.3-1.1,2.4-2.2,3.2c0.3-0.9,0.5-2,0.5-3V1.9h1.3c0.1,0,0.3,0.1,0.4,0.1
	C15.1,2.1,15.1,2.2,15.1,2.3z"/>
<path class="st1" d="M0.9,2.3c0-0.1,0-0.2,0.1-0.3c0.1-0.1,0.2-0.1,0.4-0.1h1.3v0.7c0,1.1,0.2,2.1,0.5,3C1.9,4.8,1.1,3.6,0.9,2.3z"
	/>
<path class="st1" d="M9.2,11.5H6.8c0.1-0.1,0.2-0.2,0.3-0.3c0.3-0.4,0.4-0.8,0.4-1.3c0.2,0,0.3,0,0.5,0c0.2,0,0.3,0,0.5,0
	C8.5,10.5,8.8,11.1,9.2,11.5z"/>
<path class="st1" d="M4.9,7.3C4,6.1,3.5,4.4,3.5,2.5V0.8c0,0,0,0,0.1,0h8.8c0,0,0.1,0,0.1,0v1.8c0,1.8-0.5,3.5-1.4,4.8
	C10.2,8.6,9.1,9.2,8,9.2C6.8,9.2,5.7,8.6,4.9,7.3z"/>
<path class="st0" d="M10.2,3.8L9,3.6l-0.6-1C8.3,2.5,8.2,2.4,8,2.4c-0.2,0-0.3,0.1-0.4,0.2l-0.6,1L5.8,3.8C5.6,3.8,5.5,3.9,5.5,4
	c-0.1,0.1,0,0.3,0.1,0.4l0.9,0.8L6.3,6.3c0,0.1,0,0.3,0.2,0.4c0.1,0.1,0.3,0.1,0.4,0L8,6.2l1.1,0.5c0.1,0,0.1,0,0.2,0
	c0.1,0,0.2,0,0.2-0.1c0.1-0.1,0.2-0.2,0.2-0.4L9.5,5.2l0.9-0.8c0.1-0.1,0.2-0.2,0.1-0.4C10.5,3.9,10.4,3.8,10.2,3.8z"/>
<path class="st1" d="M8.8,4.8C8.7,4.9,8.7,5,8.7,5.1l0.1,0.6L8.2,5.4c-0.1,0-0.1,0-0.2,0c-0.1,0-0.1,0-0.2,0L7.2,5.7l0.1-0.6
	c0-0.1,0-0.2-0.1-0.3L6.8,4.4l0.6-0.1c0.1,0,0.3-0.1,0.3-0.2L8,3.6l0.3,0.5c0.1,0.1,0.2,0.2,0.3,0.2l0.6,0.1L8.8,4.8z"/>
</svg>
