<svg width="10" height="10" viewBox="0 0 10 10" fill="none" xmlns="http://www.w3.org/2000/svg">
<path d="M3.48218 4.69754C3.54103 4.4677 3.62747 4.2515 3.77542 4.06291C3.99452 3.78318 4.27414 3.59558 4.61791 3.50744C4.68374 3.49047 4.70436 3.46519 4.70402 3.39634C4.70103 2.79032 4.70203 2.18396 4.70203 1.57793C4.70203 1.16283 4.70203 0.748056 4.70203 0.332951C4.70236 0.132384 4.82238 -0.000662748 5.00159 2.48323e-06C5.1778 0.000667715 5.2955 0.132051 5.2955 0.32896C5.2955 1.3471 5.29649 2.36523 5.29317 3.3837C5.29317 3.4622 5.31644 3.48881 5.39125 3.51043C5.9528 3.67275 6.32184 4.0353 6.48542 4.59775C6.51168 4.68856 6.55025 4.70918 6.63769 4.70785C6.99377 4.70286 7.35018 4.70552 7.70626 4.70552C8.36689 4.70552 9.02751 4.70519 9.68814 4.70552C9.84008 4.70552 9.95046 4.78568 9.9887 4.92006C10.0259 5.05077 9.96941 5.1948 9.84507 5.25999C9.79852 5.28427 9.74001 5.29591 9.68681 5.29591C8.66578 5.29791 7.64476 5.29857 6.62373 5.29591C6.54626 5.29591 6.51002 5.31321 6.48808 5.39437C6.37005 5.8261 6.11671 6.15572 5.7174 6.36361C5.60835 6.42049 5.48899 6.45974 5.3713 6.49699C5.31445 6.51495 5.29217 6.53557 5.29317 6.59744C5.29682 6.85422 5.29516 7.111 5.29516 7.36778C5.29516 8.14277 5.2955 8.91777 5.29483 9.69309C5.29483 9.88701 5.16417 10.0094 4.973 9.99943C4.83036 9.99212 4.71167 9.87537 4.70303 9.73267C4.7007 9.69409 4.70203 9.65518 4.70203 9.61659C4.70303 8.64801 4.70402 7.6791 4.70469 6.71053C4.70469 6.52593 4.70336 6.52859 4.52682 6.46905C4.00018 6.29143 3.66272 5.92955 3.51044 5.39836C3.48617 5.31321 3.45093 5.29591 3.36981 5.29624C2.35177 5.29924 1.33374 5.29824 0.315702 5.29791C0.134836 5.29791 0.00550368 5.18116 0.000184095 5.01618C-0.00546796 4.8369 0.119542 4.70751 0.304065 4.70652C0.611271 4.70485 0.918477 4.70485 1.22535 4.70652C1.47969 4.70785 1.7337 4.7165 1.98805 4.71583C2.47678 4.7145 2.96585 4.70851 3.45459 4.70419C3.45991 4.70419 3.46523 4.70186 3.48152 4.69787L3.48218 4.69754ZM5.00126 5.84872C5.47171 5.84606 5.84906 5.46488 5.84541 4.99556C5.84175 4.52557 5.4594 4.15005 4.98929 4.15437C4.52648 4.1587 4.14846 4.54453 4.15311 5.0082C4.15777 5.47486 4.53812 5.85138 5.00159 5.84905L5.00126 5.84872ZM0.778505 5.64416C0.604954 5.62886 0.535135 5.7353 0.569712 5.89928C0.711346 6.56684 0.976992 7.17785 1.39225 7.72035C2.09144 8.63404 3.00674 9.20614 4.13383 9.43764C4.26882 9.46525 4.35792 9.39407 4.35892 9.25903C4.35991 9.10968 4.35991 8.96001 4.35825 8.81066C4.35692 8.69125 4.31171 8.64535 4.19966 8.61143C3.97291 8.54291 3.74118 8.4837 3.52407 8.3909C2.85547 8.10552 2.32318 7.65017 1.91856 7.0468C1.66189 6.66396 1.48368 6.24653 1.38793 5.79484C1.36565 5.6894 1.31013 5.64616 1.20174 5.64516C1.12428 5.64416 1.04681 5.64516 0.969345 5.64516C0.905843 5.64516 0.841675 5.64982 0.778505 5.64416ZM1.17714 4.35927C1.18279 4.35927 1.18811 4.35927 1.19377 4.35927C1.31479 4.35594 1.36333 4.31503 1.38992 4.19895C1.62432 3.18314 2.19019 2.40215 3.06792 1.84702C3.41403 1.62816 3.79072 1.47848 4.19168 1.392C4.31968 1.36439 4.36025 1.30685 4.35858 1.17547C4.35725 1.04575 4.35792 0.915694 4.35792 0.785974C4.35792 0.595385 4.28644 0.530525 4.09925 0.574097C3.8898 0.622992 3.67934 0.673882 3.47786 0.746725C2.64302 1.04808 1.95214 1.55166 1.4112 2.25713C0.981647 2.81693 0.700042 3.44424 0.566055 4.13741C0.539124 4.27744 0.604622 4.35694 0.74559 4.35927C0.820397 4.3606 0.894871 4.35927 0.969678 4.35927C1.03883 4.35927 1.10799 4.35927 1.17714 4.35927ZM5.64393 9.27865C5.64758 9.39307 5.73237 9.46392 5.84341 9.44263C6.3501 9.34551 6.82853 9.16922 7.27305 8.90845C7.86618 8.5602 8.35791 8.10086 8.74358 7.53009C9.08836 7.01953 9.32042 6.46206 9.43413 5.85637C9.4584 5.72698 9.39091 5.64715 9.25991 5.64582C9.11063 5.64449 8.96135 5.64483 8.81207 5.64582C8.67975 5.64682 8.63785 5.68341 8.60727 5.81346C8.36456 6.84723 7.78273 7.6352 6.87973 8.18701C6.54493 8.3919 6.1822 8.53226 5.79753 8.61376C5.68648 8.63737 5.64493 8.69026 5.64393 8.80534C5.64326 8.88018 5.64393 8.95469 5.64393 9.02952C5.64393 9.11268 5.64193 9.1955 5.64459 9.27865H5.64393ZM5.64326 1.18744C5.6426 1.31151 5.6805 1.36473 5.80285 1.39133C6.26233 1.49112 6.6869 1.67273 7.07257 1.94015C7.86718 2.49096 8.38251 3.23536 8.60394 4.17932C8.63785 4.32334 8.67808 4.35927 8.82537 4.3596C8.96634 4.35993 9.10764 4.3606 9.24861 4.35893C9.3959 4.35694 9.4594 4.27944 9.43114 4.13342C9.31145 3.51442 9.0724 2.94565 8.711 2.4291C8.13416 1.60487 7.36913 1.03045 6.41493 0.7118C6.23507 0.651597 6.04888 0.607359 5.8627 0.569108C5.71208 0.538175 5.64426 0.603368 5.64326 0.756371C5.6426 0.828216 5.64326 0.900394 5.64326 0.972239C5.64326 1.04408 5.6436 1.11593 5.64326 1.18777V1.18744ZM4.35925 2.05124C4.35925 2.00701 4.36025 1.96277 4.35925 1.91853C4.35592 1.77617 4.26582 1.70665 4.12818 1.74191C3.80435 1.8254 3.49947 1.95612 3.21886 2.13573C2.47612 2.6117 1.97807 3.27261 1.74201 4.12643C1.70445 4.26214 1.77127 4.35694 1.91324 4.3586C1.99037 4.3596 2.06784 4.35095 2.14497 4.35062C2.29625 4.34995 2.32617 4.32966 2.3684 4.1873C2.46315 3.86832 2.61709 3.57928 2.82089 3.31785C3.16833 2.87148 3.61019 2.55749 4.14946 2.38153C4.35193 2.31534 4.35858 2.3017 4.35858 2.08451C4.35858 2.07353 4.35858 2.06222 4.35858 2.05124C4.35858 2.05124 4.35892 2.05124 4.35925 2.05124ZM1.89529 5.64549C1.7746 5.65048 1.69913 5.74794 1.73802 5.86136C1.80784 6.06492 1.86935 6.2738 1.96411 6.46572C2.4196 7.38707 3.14938 7.98345 4.13682 8.26484C4.25685 8.2991 4.35326 8.22692 4.35858 8.1002C4.36257 8.0064 4.36124 7.91194 4.35792 7.81814C4.35459 7.72767 4.30439 7.67578 4.22094 7.64085C4.00982 7.55304 3.79005 7.4792 3.59389 7.36512C3.01738 7.03017 2.62008 6.5369 2.40031 5.90859C2.30157 5.62587 2.29791 5.64549 2.0449 5.64549C1.99503 5.64549 1.94516 5.64383 1.89562 5.64549H1.89529ZM7.96094 5.64516C7.93334 5.64516 7.90575 5.64516 7.87782 5.64516C7.70394 5.64516 7.67966 5.66512 7.62381 5.83009C7.31394 6.74512 6.69986 7.35081 5.77758 7.64185C5.68948 7.66946 5.64559 7.72534 5.64393 7.81847C5.6426 7.90429 5.64293 7.9901 5.6436 8.07592C5.64459 8.23757 5.72971 8.29943 5.8863 8.25653C6.48176 8.09388 6.99311 7.78787 7.42233 7.34649C7.83161 6.9254 8.10789 6.42747 8.26249 5.86169C8.29408 5.74594 8.2216 5.64982 8.10191 5.64582C8.05503 5.64416 8.00782 5.64582 7.96094 5.64582V5.64516ZM8.25019 4.10149C8.12917 3.69536 7.95529 3.31585 7.69662 2.97791C7.22551 2.36224 6.61941 1.9468 5.87034 1.74258C5.73469 1.70566 5.64559 1.77185 5.64326 1.91022C5.6416 2.00135 5.64326 2.09282 5.64326 2.18396C5.64293 2.26911 5.68083 2.32565 5.76262 2.35259C5.79919 2.36457 5.83543 2.37887 5.872 2.39085C6.3654 2.55283 6.775 2.83855 7.10981 3.23336C7.35417 3.52174 7.52606 3.85036 7.64343 4.20859C7.67933 4.31869 7.72189 4.34895 7.83726 4.34995C7.91173 4.35062 7.98621 4.34995 8.06035 4.34995C8.23589 4.35794 8.30006 4.26913 8.25019 4.10149ZM2.9336 5.64483C2.74875 5.62221 2.67693 5.77322 2.75074 5.93221C2.86977 6.18732 3.0104 6.42548 3.19991 6.63436C3.45691 6.91775 3.76379 7.12896 4.11953 7.26799C4.24521 7.31722 4.34861 7.24903 4.35659 7.11432C4.36124 7.03716 4.35892 6.95966 4.35792 6.88216C4.35659 6.79967 4.31902 6.74512 4.24122 6.7092C3.80734 6.50963 3.48883 6.19298 3.29134 5.75659C3.25843 5.68408 3.20689 5.6425 3.12411 5.64549C3.08554 5.64682 3.04664 5.64549 3.00807 5.64549C2.98314 5.64549 2.95787 5.64815 2.9336 5.64516V5.64483ZM5.64326 6.99192C5.64326 7.02784 5.64293 7.06377 5.64326 7.09969C5.64559 7.24903 5.74832 7.31855 5.88863 7.26333C6.29624 7.10301 6.63403 6.84823 6.907 6.50597C7.05461 6.32103 7.16932 6.11714 7.25909 5.89861C7.31793 5.75559 7.24845 5.64815 7.09584 5.64549C7.02137 5.64416 6.94656 5.64616 6.87209 5.64516C6.79362 5.64416 6.74176 5.68108 6.70984 5.75126C6.50969 6.19264 6.18885 6.51329 5.74766 6.71319C5.67651 6.74545 5.64227 6.79867 5.64326 6.87617C5.64393 6.91475 5.64326 6.95367 5.64326 6.99225V6.99192ZM3.1271 4.3586C3.20357 4.35694 3.25743 4.32201 3.28968 4.25117C3.48883 3.81245 3.80634 3.4918 4.24588 3.29323C4.31902 3.2603 4.35692 3.20409 4.35825 3.1246C4.35958 3.04976 4.36058 2.97492 4.35792 2.90041C4.35227 2.75506 4.24787 2.68355 4.11322 2.73843C4.0035 2.783 3.89545 2.83356 3.79271 2.89243C3.30797 3.17016 2.96519 3.57529 2.74808 4.08685C2.68092 4.24551 2.74376 4.36625 2.91997 4.35893C2.94756 4.35794 2.97516 4.35893 3.00309 4.35893C3.04465 4.35893 3.08621 4.35993 3.12743 4.35893L3.1271 4.3586ZM5.64326 3.05674C5.63761 3.15819 5.64725 3.24833 5.7583 3.29756C6.19351 3.49114 6.5057 3.81045 6.70419 4.24152C6.74109 4.32201 6.79828 4.36093 6.88505 4.35893C6.95953 4.35727 7.03367 4.35162 7.10781 4.35361C7.23448 4.35661 7.31461 4.24851 7.26873 4.13176C7.15768 3.8487 7.00208 3.59292 6.79761 3.36741C6.54294 3.08634 6.23706 2.87879 5.88564 2.73776C5.75065 2.68355 5.64592 2.75506 5.64293 2.89908C5.64227 2.935 5.64293 2.97093 5.64293 3.00685C5.64293 3.02348 5.6436 3.04011 5.64293 3.05674H5.64326ZM4.98363 4.68623C4.81208 4.68756 4.68009 4.81994 4.67942 4.9919C4.67876 5.16852 4.81141 5.30256 4.98663 5.3019C5.16284 5.30123 5.2955 5.16885 5.2955 4.99323C5.2955 4.81994 5.15818 4.6849 4.98363 4.68623Z" fill="white" fill-opacity="0.64"/>
</svg>
