<svg xmlns="http://www.w3.org/2000/svg" xml:space="preserve" id="Layer_1" width="80" height="16" x="0" y="0" style="enable-background:new 0 0 80 16" version="1.1"><style>.st0,.st1,.st2,.st3,.st4,.st6,.st7{fill-rule:evenodd;clip-rule:evenodd;fill:#494949}.st1,.st2,.st3,.st4,.st6,.st7{fill:#ee4544}.st2,.st3,.st4,.st6,.st7{fill:#fefefe}.st3,.st4,.st6,.st7{fill:#74b465}.st4,.st6,.st7{fill:#2f2f2f}.st6,.st7{fill:#f76b6a}.st7{fill:#b5de9d}</style><g id="Icons"><g id="match_tracker_darts_normal"><path id="Fill-1" d="M15.5 8c0 4.1-3.4 7.5-7.5 7.5S.5 12.1.5 8 3.9.5 8 .5s7.5 3.3 7.5 7.5" class="st0"/><path id="Fill-3" d="M9.7 8c0 .9-.7 1.6-1.6 1.6-.8-.1-1.5-.8-1.5-1.6 0-.9.7-1.6 1.6-1.6.8 0 1.5.7 1.5 1.6" class="st1"/><path id="Fill-5" d="m12.2 4 1.4 2.5-4 1.1-.4-.8z" class="st2"/><path id="Fill-7" d="M2.4 6.4 4 3.9l2.6 2.6-.4.8z" class="st2"/><path id="Fill-9" d="m6.7 2.3 2.9.4-1.3 3.5h-.9z" class="st2"/><path id="Fill-11" d="m13.7 9.6-1.3 2.5-3.3-2.9.6-.7z" class="st2"/><path id="Fill-13" d="m9.3 14-3-.2 1.2-4.2h.9z" class="st2"/><path id="Fill-15" d="M3.7 12.1 2.1 9.4l4.1-1 .5.8z" class="st2"/><path id="Fill-17" d="M6.3 2.3h3.6V.6H6.3z" class="st3"/><path id="Fill-19" d="M12.4 4 9.5 2.5l.7-1.8 3.1 1.8z" class="st1"/><path id="Fill-20" d="m13.9 6.7-1.8-2.9 1.4-.9 1.9 2.9z" class="st3"/><path id="Fill-21" d="M13.7 10h1.7V6.4h-1.7z" class="st1"/><path id="Fill-22" d="m12.4 12.1 1.3-2.5 1.7.5-2.1 3.4z" class="st3"/><path id="Fill-23" d="m9.3 14 3.1-1.9.9 1.4-3.2 2z" class="st1"/><path id="Fill-24" d="m6.2 13.9 3.5-.1.1 1.7-3.6.1z" class="st3"/><path id="Fill-25" d="m3.5 12.2 3.1 1.7-.8 1.5-3.2-1.7z" class="st1"/><path id="Fill-26" d="m2.1 9.4 1.6 2.7-1.5 1.3-1.6-3.2z" class="st3"/><path id="Fill-27" d="m2.4 6.4-.1 3.2-1.9.2V5.9z" class="st1"/><path id="Fill-28" d="M4 3.5 2.3 6.6.8 5.8l1.7-3.1z" class="st3"/><path id="Fill-29" d="M6.7 2.3 3.8 4l-1-1.4L5.7.5z" class="st1"/><path id="Fill-30" d="M8 .7C4 .7.7 4 .7 8S4 15.3 8 15.3 15.3 12 15.3 8 12 .7 8 .7M8 16c-4.4 0-8-3.6-8-8s3.6-8 8-8 8 3.6 8 8-3.6 8-8 8" class="st4"/><path id="Fill-31" d="M8 2.6c-3.1 0-5.5 2.5-5.5 5.5 0 3.1 2.5 5.5 5.5 5.5 3.1 0 5.5-2.5 5.5-5.5S11 2.6 8 2.6m0 11.7c-3.4 0-6.1-2.7-6.1-6.1C1.9 4.8 4.6 2 8 2s6.1 2.7 6.1 6.1c0 3.4-2.7 6.2-6.1 6.2" class="st4"/><path id="Fill-32" d="M8 6.6c-.8 0-1.4.6-1.4 1.4 0 .7.6 1.3 1.3 1.3.7 0 1.3-.6 1.3-1.3.1-.8-.5-1.4-1.2-1.4m0 3.3C6.9 9.9 6.1 9 6.1 8c0-1.1.9-1.9 1.9-1.9s1.9.8 1.9 1.9C9.9 9 9 9.9 8 9.9" class="st4"/><path id="Fill-33" d="m8.7 6.5-.6-.2L9.8.5l.5.2z" class="st4"/><path id="Fill-34" d="M15.3 10.3 9.6 8.7l.2-.5 5.6 1.6z" class="st4"/><path id="Fill-35" d="M9.6 15.5 8.1 9.7l.6-.2 1.5 5.8z" class="st4"/><path id="Fill-36" d="m9.7 7.8-.2-.5 5.8-1.5.2.6z" class="st4"/><path id="Fill-37" d="M13.1 13.6 8.9 9.4l.4-.4 4.2 4.3z" class="st4"/><path id="Fill-38" d="m2.7 13.5-.4-.4L6.5 9l.4.4z" class="st4"/><path id="Fill-39" d="m6.2 15.4-.6-.1 1.7-5.8.5.2z" class="st4"/><path id="Fill-40" d="M6.2 7.8.5 6.2l.2-.6 5.7 1.6z" class="st4"/><path id="Fill-41" d="M7.3 6.4 5.8.6l.6-.1 1.4 5.7z" class="st4"/><path id="Fill-42" d="m.6 10.2-.1-.6 5.7-1.4.1.5z" class="st4"/><path id="Fill-43" d="M6.6 7 2.4 2.7l.4-.4L7 6.6z" class="st4"/><path id="Fill-44" d="M9.4 7 9 6.6l4.3-4.2.4.4z" class="st4"/></g></g><g id="Icons_1_"><g id="match_tracker_darts_active"><path id="Fill-1_1_" d="M47.5 8c0 4.1-3.4 7.5-7.5 7.5s-7.5-3.4-7.5-7.5S35.9.5 40 .5s7.5 3.3 7.5 7.5" style="fill-rule:evenodd;clip-rule:evenodd;fill:#717171"/><path id="Fill-3_1_" d="M41.7 8c0 .9-.7 1.6-1.6 1.6-.9 0-1.6-.7-1.6-1.6 0-.9.7-1.6 1.6-1.6.9 0 1.6.7 1.6 1.6" class="st6"/><path id="Fill-5_1_" d="m44.2 4 1.4 2.5-4 1.1-.4-.8z" class="st2"/><path id="Fill-7_1_" d="M34.5 6.4 36 3.9l2.6 2.7-.4.8z" class="st2"/><path id="Fill-9_1_" d="m38.7 2.4 2.9.3-1.3 3.5h-.9z" class="st2"/><path id="Fill-11_1_" d="m45.7 9.7-1.3 2.4-3.2-2.9.5-.7z" class="st2"/><path id="Fill-13_1_" d="m41.4 14-3-.2 1.1-4.2h.9z" class="st2"/><path id="Fill-15_1_" d="m35.7 12.1-1.6-2.6 4.2-1.1.5.8z" class="st2"/><path id="Fill-17_1_" d="M38.3 2.3h3.6V.6h-3.6z" class="st7"/><path id="Fill-19_1_" d="m44.5 4-3-1.5.7-1.8 3.1 1.8z" class="st6"/><path id="Fill-20_1_" d="m46 6.7-1.9-2.9 1.4-.9 1.9 2.9z" class="st7"/><path id="Fill-21_1_" d="M45.8 10h1.7V6.4h-1.7z" class="st6"/><path id="Fill-22_1_" d="m44.4 12.1 1.3-2.4 1.8.5-2.1 3.3z" class="st7"/><path id="Fill-23_1_" d="m41.4 14 3-1.9 1 1.4-3.3 2z" class="st6"/><path id="Fill-24_1_" d="m38.2 13.9 3.6-.1v1.7l-3.6.1z" class="st7"/><path id="Fill-25_1_" d="m35.5 12.2 3.1 1.7-.8 1.5-3.1-1.7z" class="st6"/><path id="Fill-26_1_" d="m34.1 9.5 1.6 2.6-1.5 1.3-1.6-3.2z" class="st7"/><path id="Fill-27_1_" d="m34.5 6.4-.2 3.2-1.9.2V5.9z" class="st6"/><path id="Fill-28_1_" d="m36 3.5-1.7 3.2-1.5-.9 1.7-3.1z" class="st7"/><path id="Fill-29_1_" d="M38.7 2.4 35.8 4l-1-1.4L37.7.5z" class="st6"/><path id="Fill-30_1_" d="M40 .7C36 .7 32.7 4 32.7 8s3.3 7.3 7.3 7.3S47.3 12 47.3 8 44 .7 40 .7M40 16c-4.4 0-8-3.6-8-8s3.6-8 8-8 8 3.6 8 8-3.6 8-8 8" class="st0"/><path id="Fill-31_1_" d="M40 2.6c-3.1 0-5.5 2.5-5.5 5.5 0 3.1 2.5 5.5 5.5 5.5 3.1 0 5.5-2.5 5.5-5.5S43.1 2.6 40 2.6m0 11.7c-3.4 0-6.1-2.7-6.1-6.1 0-3.4 2.7-6.1 6.1-6.1s6.1 2.7 6.1 6.1c0 3.3-2.7 6.1-6.1 6.1" class="st0"/><path id="Fill-32_1_" d="M40 6.6c-.7 0-1.3.6-1.3 1.3 0 .7.6 1.3 1.3 1.3s1.3-.6 1.3-1.3c0-.7-.6-1.3-1.3-1.3m0 3.3c-1.1 0-1.9-.9-1.9-1.9 0-1.1.9-1.9 1.9-1.9s1.9.9 1.9 1.9c0 1-.8 1.9-1.9 1.9" class="st0"/><path id="Fill-33_1_" d="m40.7 6.5-.5-.1L41.8.6l.5.1z" class="st0"/><path id="Fill-34_1_" d="m47.3 10.3-5.7-1.5.2-.6 5.6 1.6z" class="st0"/><path id="Fill-35_1_" d="m41.6 15.5-1.5-5.8.6-.1 1.5 5.7z" class="st0"/><path id="Fill-36_1_" d="m41.7 7.9-.2-.6 5.8-1.5.2.6z" class="st0"/><path id="Fill-37_1_" d="M45.2 13.7 41 9.4l.4-.4 4.2 4.3z" class="st0"/><path id="Fill-38_1_" d="m34.7 13.6-.4-.5L38.6 9l.4.4z" class="st0"/><path id="Fill-39_1_" d="m38.2 15.4-.5-.1 1.6-5.8.5.2z" class="st0"/><path id="Fill-40_1_" d="m38.2 7.8-5.6-1.6.1-.5 5.7 1.6z" class="st0"/><path id="Fill-41_1_" d="M39.3 6.4 37.8.7l.6-.2 1.4 5.8z" class="st0"/><path id="Fill-42_1_" d="m32.7 10.2-.2-.6 5.7-1.4.1.5z" class="st0"/><path id="Fill-43_1_" d="m38.7 7-4.3-4.3.5-.4 4.2 4.3z" class="st0"/><path id="Fill-44_1_" d="m41.4 7-.4-.4 4.3-4.2.4.4z" class="st0"/></g></g><path d="M77.7 2.3C76.1.8 74.1 0 72 0s-4.1.8-5.7 2.3C64.8 3.9 64 5.9 64 8s.8 4.1 2.3 5.7c1.5 1.5 3.5 2.3 5.7 2.3s4.1-.8 5.7-2.3C79.2 12.1 80 10.1 80 8s-.8-4.1-2.3-5.7zM79 7.5h-1.5c-.1-1.1-.5-2.2-1.3-3l1.1-1.1c1 1.1 1.6 2.5 1.7 4.1zm-3.5-3.7c-.9-.7-1.9-1.2-3-1.3V1c1.6.1 3 .7 4.1 1.7l-1.1 1.1zm-4 3-2.3-2.3c.7-.5 1.5-.9 2.3-1v3.3zm0 5.7c-.9-.1-1.7-.4-2.3-1l2.3-2.3v3.3zm1-3.3 2.3 2.3c-.7.5-1.5.9-2.3 1V9.2zm0-5.7c.9.1 1.7.4 2.3 1l-2.3 2.3V3.5zm-1-1c-1.1.1-2.2.5-3 1.3l-1.1-1.1c1.1-1 2.5-1.6 4.1-1.7v1.5zm-.7 5h-3.3c.1-.9.4-1.7 1-2.3l2.3 2.3zm0 1-2.3 2.3c-.5-.6-.9-1.4-1-2.3h3.3zm-2.3 3.7c.9.7 1.9 1.2 3 1.3V15c-1.6-.1-3-.7-4.1-1.7l1.1-1.1zm4 1.3c1.1-.1 2.2-.5 3-1.3l1.1 1.1c-1.1 1-2.5 1.6-4.1 1.7v-1.5zm.7-5h3.3c-.1.9-.4 1.7-1 2.3l-2.3-2.3zm0-1 2.3-2.3c.5.7.9 1.5 1 2.3h-3.3zm-6.5-4.1 1.1 1.1c-.7.9-1.2 1.9-1.3 3H65c.1-1.6.7-3 1.7-4.1zM65 8.5h1.5c.1 1.1.5 2.2 1.3 3l-1.1 1.1c-1-1.1-1.6-2.5-1.7-4.1zm12.3 4.1-1.1-1.1c.7-.9 1.2-1.9 1.3-3H79c-.1 1.6-.7 3-1.7 4.1z" style="fill-rule:evenodd;clip-rule:evenodd;fill-opacity:.64"/></svg>