<?xml version="1.0" encoding="UTF-8"?>
<svg width="24px" height="24px" viewBox="0 0 24 24" version="1.1" xmlns="http://www.w3.org/2000/svg" xmlns:xlink="http://www.w3.org/1999/xlink">
    <!-- Generator: Sketch 55.1 (78136) - https://sketchapp.com -->
    <title>Menu Panel/display</title>
    <desc>Created with Sketch.</desc>
    <g id="Icons" stroke="none" stroke-width="1" fill="none" fill-rule="evenodd" fill-opacity="0.64">
        <g id="Menu-Panel/display" fill="#FFFFFF">
            <path d="M23.6888818,11.149065 C23.4780781,10.89763 18.4402355,5 12.0001219,5 C5.55976452,5 0.522165618,10.89763 0.310874522,11.1493115 C-0.103665449,11.6423214 -0.103665449,12.3576786 0.311118226,12.8511815 C0.522165618,13.1026165 5.55976452,19 12.0001219,19 C18.4402355,19 23.4780781,13.1021235 23.6891255,12.8506885 C24.1036654,12.3576786 24.1036654,11.6423214 23.6888818,11.149065 Z M13.967298,8.5427686 C14.4003595,8.30365884 15.0042572,8.5780188 15.3159542,9.15533331 C15.6276512,9.73289432 15.5291949,10.3950065 15.0961335,10.6341163 C14.6633157,10.8734725 14.0591743,10.5988661 13.7472336,10.0215516 C13.4357803,9.44399056 13.5339929,8.78187837 13.967298,8.5427686 Z M12.0001219,16.8632954 C7.5013518,16.8632954 3.71541502,13.3685953 2.4050203,12 C3.28990839,11.0756066 5.30460677,9.18269536 7.9046814,8.0507448 C7.39753403,8.83117935 7.10021553,9.76370743 7.10021553,10.7674754 C7.10021553,13.504666 9.29379241,15.7234567 11.9998781,15.7234567 C14.7059639,15.7234567 16.8997845,13.504666 16.8997845,10.7674754 C16.8997845,9.76370743 16.6027097,8.83117935 16.0955623,8.0507448 C18.6956369,9.18294186 20.7100916,11.0756066 21.5949797,12 C20.284585,13.3693348 16.4986482,16.8632954 12.0001219,16.8632954 Z" id="display"></path>
        </g>
    </g>
</svg>