<svg width="16" height="16" viewBox="0 0 16 16" fill="none" xmlns="http://www.w3.org/2000/svg">
<g clip-path="url(#clip0_577_601)">
<path fill-rule="evenodd" clip-rule="evenodd" d="M3.72857 9.31487C3.20859 7.16712 2.61392 4.78134 2.61392 4.78134C2.61392 4.78134 2.19103 3.36058 1.65144 2.94542H3.72857V1.53296L4.63877 0.666664H0L0.909271 1.53112V14.926L0 15.8245H4.63877L3.7295 14.926V9.31579L3.72857 9.31487ZM15.0907 1.53388L16 0.666664H11.3612L12.2705 1.53112V2.90852L13.9837 2.90391C13.9837 2.90391 13.0321 4.16137 12.8622 5.01014C12.8123 5.23634 12.7456 5.71742 12.6484 6.41918L12.6483 6.41925L12.6483 6.41946C12.5548 7.09439 12.433 7.97341 12.2705 9.0261V14.925L11.3612 15.8236H16L15.0907 14.925V1.53388ZM6.48718 7.76126L6.46944 7.7262H6.46851V1.53112L5.55924 0.666664H10.198L9.28967 1.53388V7.63302L7.93697 2.56624L6.48718 7.76126ZM9.28876 13.8272H7.95659C7.95659 13.8272 7.95473 13.8253 7.95473 13.8244V13.8272H6.47039V14.926L5.56112 15.8246H10.1999L9.29063 14.926V13.8272H9.28876ZM2.23806 3.28032L5.52937 3.27939C5.52937 3.27939 5.31147 3.39471 5.31147 3.65949C5.03421 4.63189 6.43957 9.32594 6.43957 9.32594L7.89496 3.65949L9.34102 9.32594C9.34102 9.32594 10.3385 3.87669 10.3502 3.65949C10.3618 3.44229 9.9861 3.27939 9.9861 3.27939H13.3478C13.3478 3.27939 12.557 3.86255 12.3508 4.93633C12.2014 5.71406 11.0774 12.0374 11.0774 12.0374C11.0774 12.0374 11.0933 12.8456 11.532 13.0808H8.25811C8.25811 13.0808 8.49057 12.7551 8.44015 12.0678C8.41401 11.5909 7.91924 9.32686 7.91924 9.32686C7.91924 9.32686 7.36471 11.6674 7.34884 12.0678C7.3339 12.4682 7.38152 12.8428 7.62144 13.0808H4.25601C4.25601 13.0808 4.97017 12.5983 4.80214 12.0678C4.66211 11.1951 3.1647 4.93818 3.1647 4.93818C3.1647 4.93818 2.85751 3.65949 2.23806 3.28032ZM4.71585 3.70991H3.38166C3.38166 3.70991 5.40677 11.5245 5.40677 11.9533C5.40677 12.3822 5.1447 12.6919 5.1447 12.6919H6.9673C6.9673 12.6919 6.72905 12.4894 6.7767 12.0844C6.82435 11.6793 7.57484 8.90374 7.88456 8.90374C8.19428 8.90374 8.99242 11.7032 8.99242 12.0844C8.99242 12.4656 8.84947 12.6919 8.84947 12.6919H10.8269C10.8269 12.6919 10.6363 12.4656 10.6363 12.0844C10.6363 11.7032 12.0301 3.70991 12.0301 3.70991H11.0056C11.0056 3.70991 9.95732 10.2379 9.31405 10.2379C8.67078 10.2379 7.88456 5.59208 7.88456 5.59208C7.88456 5.59208 7.31276 10.2379 6.43124 10.2379C5.54972 10.2379 4.71585 3.70991 4.71585 3.70991Z" fill="white"/>
</g>
<defs>
<clipPath id="clip0_577_601">
<rect width="16" height="16" fill="white"/>
</clipPath>
</defs>
</svg>
