<?xml version="1.0" encoding="utf-8"?>
<!-- Generator: Adobe Illustrator 23.1.0, SVG Export Plug-In . SVG Version: 6.00 Build 0)  -->
<svg version="1.1" id="圖層_1" xmlns="http://www.w3.org/2000/svg" xmlns:xlink="http://www.w3.org/1999/xlink" x="0px" y="0px"
	 viewBox="0 0 16 16" style="enable-background:new 0 0 16 16;" xml:space="preserve">
<style type="text/css">
	.st0{fill-rule:evenodd;clip-rule:evenodd;fill-opacity:0.64;}
</style>
<path class="st0" d="M8,0c4.4,0,8,3.6,8,8s-3.6,8-8,8s-8-3.6-8-8S3.6,0,8,0z M5.5,4.3C5.2,4.3,5,4.5,5,4.8v6.4c0,0.1,0,0.2,0.1,0.2
	c0.1,0.2,0.4,0.3,0.7,0.2l6.4-3.2c0.1-0.1,0.2-0.1,0.2-0.2c0.1-0.2,0-0.5-0.2-0.7L5.7,4.4C5.7,4.3,5.6,4.3,5.5,4.3z"/>
</svg>
