<svg xmlns="http://www.w3.org/2000/svg" width="40" height="16" viewBox="0 0 40 16">
    <g fill="none" fill-rule="evenodd">
        <path fill="#000" d="M0 0h40v16H0z" opacity=".32"/>
        <path fill="#FFF" fill-rule="nonzero" d="M9.704 5.82l4.132 3.89c.058.057.088.12.088.194 0 .071-.03.134-.088.19l-.444.42a.295.295 0 0 1-.407 0L9.5 7.228l-3.484 3.284a.3.3 0 0 1-.204.082.292.292 0 0 1-.204-.082l-.444-.418a.252.252 0 0 1 0-.384l4.132-3.89a.28.28 0 0 1 .204-.083c.077 0 .145.025.205.082zM20 2.133h14a1 1 0 0 1 1 1V11.8a1 1 0 0 1-1 1H20a1 1 0 0 1-1-1V3.133a1 1 0 0 1 1-1zm13.708 5.233h-2.126l-.694-1.03c-.067-.098-.24-.142-.388-.096-.079.023-.137.071-.16.127l-.423 1.037-.552-2.162c-.023-.098-.145-.161-.291-.165-.143.002-.266.075-.283.173l-.426 2.148-.534-4.017c-.014-.104-.14-.181-.291-.181h-.003c-.152.002-.277.081-.29.187l-.495 5.26-.464-4.284c-.011-.104-.137-.183-.288-.185-.152 0-.278.078-.295.18l-.522 3.72-.443-2.404c-.02-.109-.167-.186-.324-.173-.126.01-.228.076-.251.16l-.554 1.91-.42-.899c-.05-.105-.213-.163-.368-.129a.286.286 0 0 0-.157.083l-.686.74h-1.688c-.16 0-.292.09-.292.199 0 .109.131.198.292.198h1.849a.35.35 0 0 0 .248-.093l.437-.472.58 1.222c.05.105.214.163.365.129.102-.022.178-.08.199-.153l.42-1.452.545 2.97c.018.1.143.175.289.175h.003c.148-.002.27-.08.286-.179l.443-3.166.519 4.805c.012.103.14.184.292.184.154 0 .28-.081.288-.186l.528-5.585.438 3.222c.014.101.137.178.286.18.151-.008.274-.071.294-.172l.52-2.613.449 1.76c.023.09.137.158.274.164.137.006.26-.055.294-.145l.557-1.363.438.651c.047.072.152.115.265.115h2.31c.16 0 .292-.089.292-.198 0-.11-.131-.197-.292-.197z"/>
    </g>
</svg>
