<?xml version="1.0" encoding="utf-8"?>
<!-- Generator: Adobe Illustrator 26.2.1, SVG Export Plug-In . SVG Version: 6.00 Build 0)  -->
<svg version="1.1" id="圖層_1" xmlns="http://www.w3.org/2000/svg" xmlns:xlink="http://www.w3.org/1999/xlink" x="0px" y="0px"
	 viewBox="0 0 44 96" style="enable-background:new 0 0 44 96;" xml:space="preserve">
<style type="text/css">
	.st0{fill-rule:evenodd;clip-rule:evenodd;fill-opacity:0.64;}
	.st1{fill-rule:evenodd;clip-rule:evenodd;fill:#A78025;}
</style>
<path class="st0" d="M22,32c4.4,0,8-3.6,8-8c0-4.4-3.6-8-8-8c-4.4,0-8,3.6-8,8C14,28.4,17.6,32,22,32z M21.7,28.6
	c0,0.2,0.2,0.4,0.4,0.4c0.2,0,0.4-0.2,0.4-0.4v-0.8c1.6-0.2,2.4-1,2.4-2.2c0-0.8-0.4-1.7-1.9-2l-1.4-0.3c-0.5-0.1-1.1-0.3-1.1-0.8
	c0-0.5,0.4-0.8,1.2-0.8c0.9,0,1.2,0.4,1.5,0.7c0.2,0.2,0.4,0.4,0.7,0.4c0.4,0,0.8-0.2,0.8-0.6c0-0.8-1.1-1.4-2.2-1.6v-1.1
	c0-0.2-0.2-0.4-0.4-0.4c-0.2,0-0.4,0.2-0.4,0.4v1.1c-1.3,0.1-2.7,0.7-2.7,2.1c0,0.8,0.3,1.6,1.8,1.9l1.9,0.5
	c0.6,0.1,0.7,0.5,0.7,0.7c0,0.5-0.5,0.9-1.3,0.9c-1,0-1.3-0.4-1.6-0.8c-0.2-0.3-0.4-0.5-0.8-0.5c-0.4,0-0.7,0.3-0.7,0.7
	c0,0.7,0.9,1.7,2.7,1.8V28.6z"/>
<path class="st1" d="M22,80c4.4,0,8-3.6,8-8c0-4.4-3.6-8-8-8c-4.4,0-8,3.6-8,8C14,76.4,17.6,80,22,80z M21.7,76.6
	c0,0.2,0.2,0.4,0.4,0.4c0.2,0,0.4-0.2,0.4-0.4v-0.8c1.6-0.2,2.4-1,2.4-2.2c0-0.8-0.4-1.7-1.9-2l-1.4-0.3c-0.5-0.1-1.1-0.3-1.1-0.8
	s0.4-0.8,1.2-0.8c0.9,0,1.2,0.4,1.5,0.7c0.2,0.2,0.4,0.4,0.7,0.4c0.4,0,0.8-0.2,0.8-0.6c0-0.8-1.1-1.4-2.2-1.6v-1.1
	c0-0.2-0.2-0.4-0.4-0.4c-0.2,0-0.4,0.2-0.4,0.4v1.1c-1.3,0.1-2.7,0.7-2.7,2.1c0,0.8,0.3,1.6,1.8,1.9l1.9,0.5
	c0.6,0.1,0.7,0.5,0.7,0.7c0,0.5-0.5,0.9-1.3,0.9c-1,0-1.3-0.4-1.6-0.8c-0.2-0.3-0.4-0.5-0.8-0.5c-0.4,0-0.7,0.3-0.7,0.7
	c0,0.7,0.9,1.7,2.7,1.8V76.6z"/>
</svg>
