<?xml version="1.0" encoding="utf-8"?>
<!-- Generator: Adobe Illustrator 23.0.3, SVG Export Plug-In . SVG Version: 6.00 Build 0)  -->
<svg version="1.1" id="Layer_1" xmlns="http://www.w3.org/2000/svg" xmlns:xlink="http://www.w3.org/1999/xlink" x="0px" y="0px"
	 width="80px" height="16px" viewBox="0 0 80 16" style="enable-background:new 0 0 80 16;" xml:space="preserve">
<style type="text/css">
	.st0{fill-rule:evenodd;clip-rule:evenodd;fill:#A4CD39;}
	.st1{fill:none;}
	.st2{fill-rule:evenodd;clip-rule:evenodd;fill:#527F3A;}
	.st3{fill-rule:evenodd;clip-rule:evenodd;fill:#F2F7E6;}
	.st4{fill-rule:evenodd;clip-rule:evenodd;fill:#D7E958;}
	.st5{fill-rule:evenodd;clip-rule:evenodd;fill:#7FC65A;}
	.st6{fill-rule:evenodd;clip-rule:evenodd;fill-opacity:0.64;}
</style>
<title>Content Center/match_tracker_tennis_normal</title>
<desc>Created with Sketch.</desc>
<g id="Icons">
	<g>
		<g id="match_tracker_tennis_normal" transform="translate(0.000000, -0.000000)">
			<path id="Fill-1" class="st0" d="M14.3,15.4H1.7c-0.7,0-1.3-0.6-1.3-1.3V1.7C0.4,1,1,0.4,1.7,0.4h12.6c0.7,0,1.3,0.6,1.3,1.3
				v12.4C15.6,14.8,15,15.4,14.3,15.4"/>
			<polygon id="Clip-4" class="st1" points="0,0 16,0 16,15.8 0,15.8 			"/>
			<path id="Fill-3" class="st2" d="M1.7,0.8c-0.5,0-0.9,0.4-0.9,0.9v12.4c0,0.5,0.4,0.9,0.9,0.9h12.6c0.5,0,0.9-0.4,0.9-0.9V1.7
				c0-0.5-0.4-0.9-0.9-0.9H1.7z M14.3,15.8H1.7C0.8,15.8,0,15,0,14.1V1.7C0,0.7,0.8,0,1.7,0h12.6C15.2,0,16,0.7,16,1.7v12.4
				C16,15,15.2,15.8,14.3,15.8L14.3,15.8z"/>
			<path id="Fill-6" class="st3" d="M15.6,2.6H0.4c-0.2,0-0.3-0.1-0.3-0.3C0.1,2.1,0.2,2,0.4,2h15.2c0.2,0,0.3,0.1,0.3,0.3
				C15.9,2.4,15.8,2.6,15.6,2.6"/>
			<path id="Fill-8" class="st3" d="M15.6,13.8H0.4c-0.2,0-0.3-0.1-0.3-0.3c0-0.2,0.1-0.3,0.3-0.3h15.2c0.2,0,0.3,0.1,0.3,0.3
				C15.9,13.6,15.8,13.8,15.6,13.8"/>
			<path id="Fill-10" class="st3" d="M3.8,13.8c-0.2,0-0.3-0.1-0.3-0.3V2.3C3.5,2.1,3.7,2,3.8,2s0.3,0.1,0.3,0.3v11.2
				C4.1,13.6,4,13.8,3.8,13.8"/>
			<path id="Fill-12" class="st3" d="M12.2,13.8c-0.2,0-0.3-0.1-0.3-0.3V2.3C11.9,2.1,12,2,12.2,2s0.3,0.1,0.3,0.3v11.2
				C12.5,13.6,12.3,13.8,12.2,13.8"/>
			<path id="Fill-14" class="st3" d="M12.2,8.2H3.8C3.7,8.2,3.5,8,3.5,7.9c0-0.2,0.1-0.3,0.3-0.3h8.4c0.2,0,0.3,0.1,0.3,0.3
				C12.5,8,12.3,8.2,12.2,8.2"/>
			<path id="Fill-16" class="st2" d="M8,15.8c-0.2,0-0.4-0.2-0.4-0.4v-15C7.6,0.2,7.8,0,8,0c0.2,0,0.4,0.2,0.4,0.4v15
				C8.4,15.6,8.2,15.8,8,15.8"/>
			<polygon id="Clip-19" class="st1" points="0,0 16,0 16,15.8 0,15.8 			"/>
			<path id="Fill-18" class="st2" d="M1.7,0.8c-0.5,0-0.9,0.4-0.9,0.9v12.6c0,0.5,0.4,0.9,0.9,0.9h12.6c0.5,0,0.9-0.4,0.9-0.9V1.7
				c0-0.5-0.4-0.9-0.9-0.9H1.7z M14.3,16H1.7C0.8,16,0,15.2,0,14.3V1.7C0,0.8,0.8,0,1.7,0h12.6C15.2,0,16,0.8,16,1.7v12.6
				C16,15.2,15.2,16,14.3,16L14.3,16z"/>
		</g>
	</g>
</g>
<g id="Icons_1_">
	<g>
		<g id="match_tracker_tennis_active" transform="translate(0.000000, -0.000000)">
			<path id="Fill-1_1_" class="st4" d="M46.3,15.4H33.7c-0.7,0-1.3-0.6-1.3-1.3V1.7c0-0.7,0.6-1.3,1.3-1.3h12.6
				c0.7,0,1.3,0.6,1.3,1.3v12.4C47.6,14.8,47,15.4,46.3,15.4"/>
			<path id="Fill-3_1_" class="st2" d="M33.7,0.8c-0.5,0-0.9,0.4-0.9,0.9v12.6c0,0.5,0.4,0.9,0.9,0.9h12.6c0.5,0,0.9-0.4,0.9-0.9
				V1.7c0-0.5-0.4-0.9-0.9-0.9H33.7z M46.3,16H33.7c-0.9,0-1.7-0.8-1.7-1.7V1.7C32,0.8,32.8,0,33.7,0h12.6C47.2,0,48,0.8,48,1.7
				v12.6C48,15.2,47.2,16,46.3,16L46.3,16z"/>
			<path id="Fill-6_1_" class="st3" d="M47.6,2.6H32.4c-0.2,0-0.3-0.1-0.3-0.3c0-0.2,0.1-0.3,0.3-0.3h15.2c0.2,0,0.3,0.1,0.3,0.3
				C47.9,2.4,47.8,2.6,47.6,2.6"/>
			<path id="Fill-8_1_" class="st3" d="M47.6,13.8H32.4c-0.2,0-0.3-0.1-0.3-0.3c0-0.2,0.1-0.3,0.3-0.3h15.2c0.2,0,0.3,0.1,0.3,0.3
				C47.9,13.6,47.8,13.8,47.6,13.8"/>
			<path id="Fill-10_1_" class="st3" d="M35.8,13.8c-0.2,0-0.3-0.1-0.3-0.3V2.3c0-0.2,0.1-0.3,0.3-0.3s0.3,0.1,0.3,0.3v11.2
				C36.1,13.6,36,13.8,35.8,13.8"/>
			<path id="Fill-12_1_" class="st3" d="M44.2,13.8c-0.2,0-0.3-0.1-0.3-0.3V2.3C43.9,2.1,44,2,44.2,2s0.3,0.1,0.3,0.3v11.2
				C44.5,13.6,44.3,13.8,44.2,13.8"/>
			<path id="Fill-14_1_" class="st3" d="M44.2,8.2h-8.4c-0.2,0-0.3-0.1-0.3-0.3c0-0.2,0.1-0.3,0.3-0.3h8.4c0.2,0,0.3,0.1,0.3,0.3
				C44.5,8,44.3,8.2,44.2,8.2"/>
			<path id="Fill-16_1_" class="st5" d="M40,15.8c-0.2,0-0.4-0.2-0.4-0.4v-15C39.6,0.2,39.8,0,40,0s0.4,0.2,0.4,0.4v15
				C40.4,15.6,40.2,15.8,40,15.8"/>
			<path id="Fill-18_1_" class="st5" d="M33.7,0.8c-0.5,0-0.9,0.4-0.9,0.9v12.6c0,0.5,0.4,0.9,0.9,0.9h12.6c0.5,0,0.9-0.4,0.9-0.9
				V1.7c0-0.5-0.4-0.9-0.9-0.9H33.7z M46.3,16H33.7c-0.9,0-1.7-0.8-1.7-1.7V1.7C32,0.8,32.8,0,33.7,0h12.6C47.2,0,48,0.8,48,1.7
				v12.6C48,15.2,47.2,16,46.3,16L46.3,16z"/>
		</g>
	</g>
</g>
<path class="st6" d="M80,14.3v0.3c0,0.7-0.5,1.3-1.2,1.4l-0.1,0H65.4c-0.7,0-1.3-0.5-1.4-1.2l0-0.1v-0.3h7.6v0.6h0.8v-0.6H80z
	 M71.6,8.3v5.3h-3.7V8.3H71.6z M76.1,8.3v5.3h-3.7V8.3H76.1z M80,2.3v11.3h-3.3V2.3L80,2.3L80,2.3z M67.3,2.3v11.3H64V2.3L67.3,2.3
	L67.3,2.3z M71.6,2.3v5.3h-3.7V2.4C67.9,2.4,71.6,2.3,71.6,2.3z M76.1,2.3v5.3l-3.7,0V2.3C72.4,2.3,76.1,2.3,76.1,2.3z M78.6,0
	c0.7,0,1.3,0.5,1.4,1.2l0,0.1v0.3h-7.6V1.1h-0.8v0.6H64V1.4c0-0.7,0.5-1.3,1.2-1.4l0.1,0H78.6z"/>
</svg>
