<svg xmlns="http://www.w3.org/2000/svg" width="16" height="16" viewBox="0 0 16 16">
    <path fill="#FFF" fill-opacity=".64" fill-rule="nonzero" d="M6.131 13.567c.015.394-.285.65-.62.527a.444.444 0 0 1-.31-.41c-.064-.996-.124-1.993-.186-2.99l-.238-3.863c-.014-.229-.033-.457-.041-.685-.01-.295.177-.506.444-.518.266-.012.47.188.488.477l.379 6.17.084 1.292zm5.133-7.359l-.299 4.783c-.055.887-.108 1.776-.162 2.664-.013.212-.111.365-.313.441-.177.066-.387.029-.491-.128a.693.693 0 0 1-.122-.385c.03-.723.081-1.444.126-2.166l.176-2.82c.052-.84.103-1.682.158-2.523a.462.462 0 0 1 .485-.446c.255.011.442.215.445.487v.093h-.003zm-2.796 3.67v3.73c-.002.373-.31.606-.633.485-.19-.071-.3-.242-.3-.481-.002-.832-.001-1.665-.001-2.498v-4.87-.14c.011-.279.211-.48.473-.477a.465.465 0 0 1 .459.473c.005.427.003.854.003 1.28v2.498h-.001zm1.867-8.008v-.376c0-.376-.179-.555-.552-.555h-1.88L6.163.94c-.244.002-.435.126-.47.348-.031.19-.007.388-.007.582h4.649zm-2.318.944H2.525c-.371 0-.59.175-.59.47s.216.467.59.467H13.57c.226-.001.395-.114.466-.301.126-.328-.114-.636-.496-.636H8.017zM2.909 4.696l.08.995.262 3.19.27 3.25c.066.81.128 1.619.201 2.427.033.36.203.505.56.505h4.76l2.706-.001c.318 0 .487-.152.529-.47.009-.067.013-.135.018-.203l.228-2.784c.09-1.094.18-2.188.272-3.283l.204-2.457.094-1.169H2.91zM4.018 16c-.304-.076-.588-.188-.816-.42-.295-.299-.394-.67-.427-1.075-.13-1.618-.265-3.237-.398-4.855l-.292-3.58a73.326 73.326 0 0 0-.118-1.336c-.005-.054-.049-.127-.095-.149-.654-.31-.983-.936-.838-1.605.143-.658.715-1.1 1.433-1.103.695-.002 1.39 0 2.085 0h.182c0-.149-.002-.283 0-.417C4.742.61 5.34.006 6.188.003 7.396 0 8.604 0 9.813.003c.848.003 1.446.605 1.455 1.455.002.134 0 .269 0 .418h.385c.633 0 1.265-.002 1.897.002.686.004 1.203.387 1.394 1.028.195.648-.136 1.38-.758 1.648-.113.05-.152.107-.161.225-.085 1.08-.177 2.159-.267 3.237l-.3 3.61c-.078.944-.161 1.887-.227 2.832-.037.524-.177.99-.639 1.285-.183.117-.404.173-.608.257H4.018z"/>
</svg>
