<?xml version="1.0" encoding="utf-8"?>
<!-- Generator: Adobe Illustrator 23.1.0, SVG Export Plug-In . SVG Version: 6.00 Build 0)  -->
<svg version="1.1" id="Layer_1" xmlns="http://www.w3.org/2000/svg" xmlns:xlink="http://www.w3.org/1999/xlink" x="0px" y="0px"
	 viewBox="0 0 80 16" style="enable-background:new 0 0 80 16;" xml:space="preserve">
<style type="text/css">
	.st0{fill:#549456;}
	.st1{fill:#FFFFFF;}
	.st2{fill-rule:evenodd;clip-rule:evenodd;fill:#2B782D;}
	.st3{fill-rule:evenodd;clip-rule:evenodd;fill-opacity:0.64;}
</style>
<title>Content Center/match_tracker_football_normal</title>
<desc>Created with Sketch.</desc>
<path class="st0" d="M1.3,0h13.3C15.4,0,16,0.6,16,1.3v13.3c0,0.7-0.6,1.3-1.3,1.3H1.3C0.6,16,0,15.4,0,14.7V1.3C0,0.6,0.6,0,1.3,0z
	"/>
<path class="st1" d="M9,12.4v3.1C9,15.8,8.8,16,8.5,16h-1c-0.3,0-0.5-0.2-0.5-0.5v-3.1c0-0.3,0.2-0.5,0.5-0.5h0.1v-3h-3H4.3
	c-0.2,0-0.3-0.1-0.3-0.3V0.3C3.9,0.1,4.1,0,4.3,0c0.2,0,0.4,0.1,0.4,0.3v7.5c0,0.2,0.1,0.3,0.3,0.3h5.9c0.2,0,0.3-0.1,0.3-0.3V0.3
	c0-0.2,0.1-0.3,0.3-0.3C11.8,0,12,0.1,12,0.3v8.3c0,0.2-0.1,0.3-0.3,0.3h-0.3H8.5v3h0.1C8.8,11.9,9,12.1,9,12.4z M6.1,14.3H0.3
	c-0.2,0-0.3,0.1-0.3,0.3C0,14.9,0.1,15,0.3,15h5.7c0.2,0,0.3-0.1,0.3-0.3C6.4,14.5,6.3,14.3,6.1,14.3z M15.7,14.3H9.9
	c-0.2,0-0.3,0.1-0.3,0.3c0,0.2,0.1,0.3,0.3,0.3h5.7c0.2,0,0.3-0.1,0.3-0.3C16,14.5,15.9,14.3,15.7,14.3z"/>
<path class="st2" d="M14.7,0.7H1.3c-0.4,0-0.7,0.3-0.7,0.7v13.3c0,0.4,0.3,0.7,0.7,0.7h13.3c0.4,0,0.7-0.3,0.7-0.7V1.3
	C15.3,0.9,15.1,0.7,14.7,0.7z M1.3,0C0.6,0,0,0.6,0,1.3v13.3C0,15.4,0.6,16,1.3,16h13.3c0.7,0,1.3-0.6,1.3-1.3V1.3
	C16,0.6,15.4,0,14.7,0H1.3z"/>
<path class="st3" d="M68.3,0h-2.9C64.6,0,64,0.6,64,1.3v13.3c0,0.7,0.6,1.3,1.3,1.3h6.2c-0.3,0-0.5-0.2-0.5-0.5v-3.1
	c0-0.3,0.2-0.5,0.5-0.5h0.1v-3h-3h-0.4c-0.2,0-0.3-0.1-0.3-0.3V0.3C67.9,0.1,68.1,0,68.3,0z M75.6,0c-0.2,0-0.3,0.1-0.3,0.3v7.5
	c0,0.2-0.1,0.3-0.3,0.3H69c-0.2,0-0.3-0.1-0.3-0.3V0.3c0-0.2-0.2-0.3-0.4-0.3H75.6z M80,14.7V1.3C80,0.6,79.4,0,78.7,0h-3.1
	C75.8,0,76,0.1,76,0.3v8.3c0,0.2-0.1,0.3-0.3,0.3h-0.3h-2.9v3h0.1c0.2,0,0.4,0.2,0.4,0.5v3.1c0,0.3-0.2,0.5-0.5,0.5h6.1
	C79.4,16,80,15.4,80,14.7z M80,14.7c0-0.1-0.1-0.3-0.3-0.3h-5.7c-0.2,0-0.3,0.1-0.3,0.3c0,0.2,0.1,0.3,0.3,0.3h5.7
	C79.9,15,80,14.9,80,14.7z M64,14.7c0,0.2,0.1,0.3,0.3,0.3h5.7c0.2,0,0.3-0.1,0.3-0.3c0-0.1-0.1-0.3-0.3-0.3h-5.7
	C64.1,14.3,64,14.5,64,14.7z"/>
<path class="st0" d="M33.3,0h13.3C47.4,0,48,0.6,48,1.3v13.3c0,0.7-0.6,1.3-1.3,1.3H33.3c-0.7,0-1.3-0.6-1.3-1.3V1.3
	C32,0.6,32.6,0,33.3,0z"/>
<path class="st1" d="M41,12.4v3.1c0,0.3-0.2,0.5-0.5,0.5h-1c-0.3,0-0.5-0.2-0.5-0.5v-3.1c0-0.3,0.2-0.5,0.5-0.5h0.1v-3h-3h-0.4
	c-0.2,0-0.3-0.1-0.3-0.3V0.3c0-0.2,0.1-0.3,0.3-0.3s0.4,0.1,0.4,0.3v7.5c0,0.2,0.1,0.3,0.3,0.3h5.9c0.2,0,0.3-0.1,0.3-0.3V0.3
	c0-0.2,0.1-0.3,0.3-0.3C43.8,0,44,0.1,44,0.3v8.3c0,0.2-0.1,0.3-0.3,0.3h-0.3h-2.9v3h0.1C40.8,11.9,41,12.1,41,12.4z M38.1,14.3
	h-5.7c-0.2,0-0.3,0.1-0.3,0.3c0,0.2,0.1,0.3,0.3,0.3h5.7c0.2,0,0.3-0.1,0.3-0.3C38.4,14.5,38.3,14.3,38.1,14.3z M47.7,14.3h-5.7
	c-0.2,0-0.3,0.1-0.3,0.3c0,0.2,0.1,0.3,0.3,0.3h5.7c0.2,0,0.3-0.1,0.3-0.3C48,14.5,47.9,14.3,47.7,14.3z"/>
<path class="st2" d="M46.7,0.7H33.3c-0.4,0-0.7,0.3-0.7,0.7v13.3c0,0.4,0.3,0.7,0.7,0.7h13.3c0.4,0,0.7-0.3,0.7-0.7V1.3
	C47.3,0.9,47.1,0.7,46.7,0.7z M33.3,0C32.6,0,32,0.6,32,1.3v13.3c0,0.7,0.6,1.3,1.3,1.3h13.3c0.7,0,1.3-0.6,1.3-1.3V1.3
	C48,0.6,47.4,0,46.7,0H33.3z"/>
</svg>
