<svg xmlns="http://www.w3.org/2000/svg" xml:space="preserve" id="圖層_1" x="0" y="0" style="enable-background:new 0 0 56 112" version="1.1" viewBox="0 0 56 112"><style>.st0{fill:#fff}.st1{fill:#f2f2f2}.st3,.st7{fill-rule:evenodd;clip-rule:evenodd;fill:#c5bfba}.st7{fill:#503f32}</style><circle cx="27.8" cy="27.8" r="27.8" class="st0"/><circle cx="26.9" cy="27" r="19.4" class="st1"/><path d="m55.5 27.8-.1-2.5-12-12-31.5 28.8 13.3 13.3 2.5.1a27.7 27.7 0 0 0 27.8-27.7z" class="st1"/><path d="m17.1 25-6.2-10.7a21.5 21.5 0 0 1 35.3 2.4H27.7c-5.1.1-9.4 3.6-10.6 8.3z" style="fill-rule:evenodd;clip-rule:evenodd;fill:#b7aea9"/><path d="M35.5 19.9h12.3A21.5 21.5 0 0 1 28 49.3L36.8 34c1.2-1.8 2-3.9 2-6.3 0-3-1.3-5.8-3.3-7.8z" class="st3"/><path d="M19.9 27.8a7.8 7.8 0 1 1 15.6 0 7.8 7.8 0 0 1-15.6 0z" class="st3"/><path d="M30.7 38.4 24.5 49A21.4 21.4 0 0 1 9.1 17.3l8.8 15.2c1.8 3.7 5.6 6.3 10 6.3.9 0 1.9-.2 2.8-.4z" style="fill-rule:evenodd;clip-rule:evenodd;fill:#a59a93"/><circle cx="28" cy="84.2" r="27.8" class="st0"/><circle cx="27.1" cy="83.5" r="19.4" class="st1"/><path d="m55.8 84.2-.1-2.5-12-12-31.5 28.9 13.3 13.3 2.5.1a27.8 27.8 0 0 0 27.8-27.8z" class="st1"/><path d="m17.3 81.5-6.2-10.7a21.5 21.5 0 0 1 35.3 2.4H28c-5.1 0-9.4 3.6-10.7 8.3z" style="fill-rule:evenodd;clip-rule:evenodd;fill:#68503d"/><path d="M35.7 76.4H48a21.5 21.5 0 0 1-19.8 29.4L37 90.5c1.2-1.8 2-3.9 2-6.3 0-3-1.3-5.8-3.3-7.8z" style="fill-rule:evenodd;clip-rule:evenodd;fill:#7a695c"/><path d="M20.2 84.2a7.8 7.8 0 1 1 15.6 0 7.8 7.8 0 0 1-15.6 0z" class="st7"/><path d="m30.9 94.8-6.2 10.7A21.5 21.5 0 0 1 9.3 73.7L18 88.9a11.2 11.2 0 0 0 12.9 5.9z" class="st7"/></svg>