<?xml version="1.0" encoding="utf-8"?>
<!-- Generator: Adobe Illustrator 23.1.0, SVG Export Plug-In . SVG Version: 6.00 Build 0)  -->
<svg version="1.1" id="圖層_1" xmlns="http://www.w3.org/2000/svg" xmlns:xlink="http://www.w3.org/1999/xlink" x="0px" y="0px"
	 viewBox="0 0 56 112" style="enable-background:new 0 0 56 112;" xml:space="preserve">
<style type="text/css">
	.st0{fill:#FFFFFF;}
	.st1{fill:#F2F2F2;}
	.st2{fill:#D7D7D7;}
	.st3{fill:#E0E0E0;}
	.st4{fill:#A59A93;}
	.st5{fill:#B8AEA9;}
	.st6{fill:#FFFFFF;fill-opacity:0.88;}
	.st7{fill:#503F32;}
	.st8{fill:#645448;}
	.st9{fill:#E2D6CE;}
	.st10{fill:#E5DBD3;}
</style>
<g>
	<circle class="st0" cx="27.8" cy="27.8" r="27.8"/>
	<path class="st1" d="M55.5,27.8c0-0.9,0-1.7-0.1-2.5l-12-12L11.9,42.1l13.3,13.3c0.8,0.1,1.7,0.1,2.5,0.1
		C43.1,55.5,55.5,43.1,55.5,27.8z"/>
	<circle class="st2" cx="27.8" cy="27.8" r="21.4"/>
	<path class="st3" d="M27.8,6.4C27.7,6.4,27.7,6.4,27.8,6.4l0,42.7c0,0,0,0,0,0c11.8,0,21.4-9.6,21.4-21.4
		C49.1,16,39.5,6.4,27.8,6.4z"/>
	<circle class="st4" cx="27.8" cy="27.8" r="19"/>
	<g>
		<path class="st5" d="M27.8,8.8C27.7,8.8,27.7,8.8,27.8,8.8l0,37.9c0,0,0,0,0,0c10.5,0,19-8.5,19-19C46.7,17.3,38.2,8.8,27.8,8.8z"
			/>
	</g>
	<path class="st6" d="M20.8,10c-3,0-6.8,3.1-8.4,5.9c-0.4,0.7-0.4,0.8-0.1,0.5c0.1-0.1,0.5-0.3,0.8-0.5c2.8-1.3,5.7,0.1,5.8,2.9
		c0.1,1.8-0.5,2.9-2.8,5.5c-1.8,2-2.6,3.2-3.2,4.5c-1.2,2.8-1.2,5.9,0,8.5c1.8,3.7,5,6.5,9.4,6.7h2.3l-2.3-0.7
		c-3-1.5-3.9-3.2-4.7-6.1c-0.3-1.2-0.3-3.3,0-4.4c0.8-2.7,2.1-4.1,6-6.5c2.3-1.4,3.2-2.2,4.1-3.2c2.9-3.5,1.4-9.4-2.2-11.7
		C23.7,10.2,22.3,10,20.8,10z M37.5,16.2l-0.3,0.4c-0.6,0.8-1,2.1-1.1,3.5l-0.1,0.8l-0.4,0.3c-0.9,0.8-2.9,1.9-5.2,2.9l-1.1,0.4
		l0.9,0.1c2.6,0.2,5.1,1,8.3,2.8c1.1,0.6,1.8,0.9,2.6,1c1.1,0.2,2.7,0,3.4-0.3l0.2-0.1l0-0.9c0-3.4-2.1-6.3-5.3-7.3
		c-0.4-0.1-0.4-0.2-0.5-0.4c-0.2-0.9-0.7-2.1-1.2-2.7L37.5,16.2z M27.7,25.9c-0.4,0-0.8,0.1-1.2,0.1c-0.4,0.1-0.9,0.2-1.2,0.3
		l-0.5,0.2l1.4,0.1c4,0.1,7.4,2.2,9.6,5.8c0.4,0.7,0.5,0.7,0.9,0.9c1,0.3,2.4,0.2,3.9-0.5c1.5-0.7,2.9-0.8,3.9-0.5
		c0.4,0.2,0.4,0.2,0.4,0c0-0.3-0.4-1-0.8-1.3c-0.5-0.4-1.1-0.6-2.4-0.8c-2.2-0.3-3-0.6-5.3-1.9c-1.7-1-2.8-1.5-4.7-1.9
		C30.5,26,28.9,25.8,27.7,25.9L27.7,25.9z M26.2,28.1c-0.4,0-0.7,0-1.1,0.1c-2.4,0.3-4.4,1.7-5.3,3.7l-0.2,0.4l0.4-0.4
		c1.9-1.7,4.6-2.3,7-1.5c2.8,1,4.5,3.4,4.5,6.4c0,2.8-1.4,5.3-4.1,6.5L25.3,44h13.5c0,0-0.7-2.4-3.8-3h-0.8c0,0,2.3-5.2-1.2-9.3
		C31.4,29.7,28.7,28.2,26.2,28.1L26.2,28.1z M24.6,32.2c-0.2,0-0.4,0-0.6,0c-4.1,0.6-5.7,5.4-2.8,8.1c3,2.9,8.2,1.1,8.6-3.1
		C30,34.6,27.5,32.1,24.6,32.2z M24.6,34.9c0.4,0,0.8,0,1.2,0.2c1.3,0.5,1.7,2.2,0.7,3.3c-1.3,1.4-3.7,0.6-3.8-1.2
		C22.6,35.9,23.5,35,24.6,34.9L24.6,34.9z"/>
</g>
<g>
	<circle class="st0" cx="28" cy="84.2" r="27.8"/>
	<path class="st1" d="M55.8,84.2c0-0.9,0-1.7-0.1-2.5l-12-12L12.2,98.6l13.3,13.3c0.8,0.1,1.7,0.1,2.5,0.1
		C43.3,112,55.8,99.6,55.8,84.2z"/>
	<circle class="st7" cx="28" cy="84.2" r="21.4"/>
	<path class="st8" d="M28,62.9C28,62.9,28,62.9,28,62.9l0,42.7c0,0,0,0,0,0c11.8,0,21.4-9.6,21.4-21.4C49.4,72.4,39.8,62.9,28,62.9z
		"/>
	<circle class="st9" cx="28" cy="84.2" r="19"/>
	<path class="st7" d="M21,66.5c-3,0-6.8,3.1-8.4,5.9c-0.4,0.7-0.4,0.8-0.1,0.5c0.1-0.1,0.5-0.3,0.8-0.5c2.8-1.3,5.7,0.1,5.8,2.9
		c0.1,1.8-0.5,2.9-2.8,5.5c-1.8,2-2.6,3.2-3.2,4.5c-1.2,2.8-1.2,5.9,0,8.5c1.8,3.7,5,6.5,9.4,6.7h2.3l-2.3-0.7
		c-3-1.5-3.9-3.2-4.7-6.1c-0.3-1.2-0.3-3.3,0-4.4c0.8-2.7,2.1-4.1,6-6.5c2.3-1.4,3.2-2.2,4.1-3.2c2.9-3.5,1.4-9.4-2.2-11.7
		C23.9,66.7,22.5,66.5,21,66.5z M37.8,72.7l-0.3,0.4c-0.6,0.8-1,2.1-1.1,3.5l-0.1,0.8l-0.4,0.3c-0.9,0.8-2.9,1.9-5.2,2.9l-1.1,0.4
		l0.9,0.1c2.6,0.2,5.1,1,8.3,2.8c1.1,0.6,1.8,0.9,2.6,1c1.1,0.2,2.7,0,3.4-0.3l0.2-0.1l0-0.9c0-3.4-2.1-6.3-5.3-7.3
		c-0.4-0.1-0.4-0.2-0.5-0.4c-0.2-0.9-0.7-2.1-1.2-2.7L37.8,72.7z M27.9,82.4c-0.4,0-0.8,0.1-1.2,0.1c-0.4,0.1-0.9,0.2-1.2,0.3
		l-0.5,0.2l1.4,0.1c4,0.1,7.4,2.2,9.6,5.8c0.4,0.7,0.5,0.7,0.9,0.9c1,0.3,2.4,0.2,3.9-0.5c1.5-0.7,2.9-0.8,3.9-0.5
		c0.4,0.2,0.4,0.2,0.4,0c0-0.3-0.4-1-0.8-1.3C44,87,43.3,86.8,42,86.7c-2.2-0.3-3-0.6-5.3-1.9c-1.7-1-2.8-1.5-4.7-1.9
		C30.8,82.5,29.2,82.3,27.9,82.4L27.9,82.4z M26.4,84.6c-0.4,0-0.7,0-1.1,0.1C23,85,21,86.4,20.1,88.4L20,88.8l0.4-0.4
		c1.9-1.7,4.6-2.3,7-1.5c2.8,1,4.5,3.4,4.5,6.4c0,2.8-1.4,5.3-4.1,6.5l-2.3,0.7H39c0,0-0.7-2.4-3.8-3h-0.8c0,0,2.3-5.2-1.2-9.3
		C31.7,86.2,29,84.7,26.4,84.6L26.4,84.6z M24.9,88.7c-0.2,0-0.4,0-0.6,0c-4.1,0.6-5.7,5.4-2.8,8.1c3,2.9,8.2,1.1,8.6-3.1
		C30.3,91.1,27.7,88.6,24.9,88.7z M24.8,91.4c0.4,0,0.8,0,1.2,0.2c1.3,0.5,1.7,2.2,0.7,3.3c-1.3,1.4-3.7,0.6-3.8-1.2
		C22.8,92.4,23.7,91.5,24.8,91.4L24.8,91.4z"/>
	<g>
		<path class="st10" d="M28,65.3C28,65.3,28,65.3,28,65.3l0,37.9c0,0,0,0,0,0c10.5,0,19-8.5,19-19C47,73.8,38.5,65.3,28,65.3z"/>
	</g>
	<g>
		<path class="st8" d="M28,70.2v9.3C30.1,76.9,29.7,72.9,28,70.2z"/>
		<path class="st8" d="M39.3,75.7c-0.2-0.9-0.7-2.1-1.2-2.7l-0.3-0.3l-0.3,0.4c-0.6,0.8-1,2.1-1.1,3.5l-0.1,0.8l-0.4,0.3
			c-0.9,0.8-2.9,1.9-5.2,2.9l-1.1,0.4l0.9,0.1c2.6,0.2,5.1,1,8.3,2.8c1.1,0.6,1.8,0.9,2.6,1c1.1,0.2,2.7,0,3.4-0.3l0.2-0.1l0-0.9
			c0-3.4-2.1-6.3-5.3-7.3C39.4,76,39.3,75.9,39.3,75.7z"/>
		<path class="st8" d="M38.8,99.9c-0.4-0.8-1.4-2-3.5-2.3h-0.8c0,0,2.3-5.2-1.2-9.3C32,86.6,30,85.3,28,84.8v2.3
			c2.5,1.1,3.9,3.3,3.9,6.1c0,2.7-1.3,5.2-3.9,6.4v0.8h9.8C38.1,100.3,38.4,100.1,38.8,99.9z"/>
		<path class="st8" d="M44.8,88.8c0.4,0.2,0.4,0.2,0.4,0c0-0.3-0.4-1-0.8-1.3C44,87,43.3,86.8,42,86.7c-2.2-0.3-3-0.6-5.3-1.9
			c-1.7-1-2.8-1.5-4.7-1.9c-1.3-0.3-2.8-0.5-4.1-0.4v0.9c3.4,0.5,6.2,2.5,8.2,5.7c0.4,0.7,0.5,0.7,0.9,0.9c1,0.3,2.4,0.2,3.9-0.5
			C42.5,88.6,43.8,88.4,44.8,88.8z"/>
		<path class="st8" d="M30,93.8c0.1-1.7-0.7-3.2-2.1-4.2v7.7C29.1,96.6,29.9,95.3,30,93.8z"/>
	</g>
</g>
</svg>
