<?xml version="1.0" encoding="utf-8"?>
<!-- Generator: Adobe Illustrator 23.0.3, SVG Export Plug-In . SVG Version: 6.00 Build 0)  -->
<svg version="1.1" id="Layer_1" xmlns="http://www.w3.org/2000/svg" xmlns:xlink="http://www.w3.org/1999/xlink" x="0px" y="0px"
	 width="48px" height="48px" viewBox="0 0 48 48" style="enable-background:new 0 0 48 48;" xml:space="preserve">
<style type="text/css">
	.st0{fill:#46566D;}
	.st1{fill:#66CC66;}
	.st2{fill:#339933;}
	.st3{fill:#FFFFFF;}
</style>
<path class="st0" d="M0,0v16h16V0H0z M0.9,3.5V0.9h6.7v4.5C6.4,5.7,5.5,6.7,5.5,8s0.9,2.3,2.1,2.5v4.5H0.9v-2.5h2.8V3.5H0.9z
	 M6.7,6.7L6.7,6.7c0.5-0.4,0.9-0.5,1.3-0.5c0.5,0,0.9,0.2,1.3,0.5C9.7,7.3,10,8.3,9.3,9.2L9.2,9.3C8.3,9.9,7.3,9.7,6.7,9.2
	C6.2,8.7,6,7.7,6.7,6.7z M15.1,12.5v2.5H8.4v-4.5c1.2-0.2,2.1-1.3,2.1-2.5S9.6,5.7,8.4,5.5V0.9h6.7v2.5h-2.8v9L15.1,12.5L15.1,12.5z
	 M15.1,4.3v7.4h-2V4.3H15.1z M0.9,11.7V4.3h2v7.4L0.9,11.7L0.9,11.7z"/>
<rect x="32.5" y="0.5" class="st1" width="15" height="15"/>
<path class="st0" d="M32,0v16h16V0H32z M32.9,3.5V0.9h6.7v4.5c-1.2,0.2-2.1,1.3-2.1,2.5s0.9,2.3,2.1,2.5v4.5h-6.7v-2.5h2.8V3.5H32.9
	z M38.7,6.7L38.7,6.7c0.5-0.4,0.9-0.5,1.3-0.5c0.5,0,0.9,0.2,1.3,0.5c0.5,0.5,0.8,1.5,0.1,2.5l-0.1,0.1c-0.9,0.7-1.9,0.5-2.5-0.1
	C38.2,8.7,38,7.7,38.7,6.7z M47.1,12.5v2.5h-6.7v-4.5c1.2-0.2,2.1-1.3,2.1-2.5s-0.9-2.3-2.1-2.5V0.9h6.7v2.5h-2.8v9L47.1,12.5
	L47.1,12.5z M47.1,4.3v7.4h-2V4.3H47.1z M32.9,11.7V4.3h2v7.4L32.9,11.7L32.9,11.7z"/>
<rect x="32.5" y="32.5" class="st2" width="15" height="15"/>
<path class="st3" d="M32,32v16h16V32H32z M32.9,35.5v-2.5h6.7v4.5c-1.2,0.2-2.1,1.3-2.1,2.5s0.9,2.3,2.1,2.5v4.5h-6.7v-2.5h2.8v-9.1
	H32.9z M38.7,38.7L38.7,38.7c0.5-0.4,0.9-0.5,1.3-0.5c0.5,0,0.9,0.2,1.3,0.5c0.5,0.5,0.8,1.5,0.1,2.5l-0.1,0.1
	c-0.9,0.7-1.9,0.5-2.5-0.1S38,39.7,38.7,38.7z M47.1,44.5v2.5h-6.7v-4.5c1.2-0.2,2.1-1.3,2.1-2.5s-0.9-2.3-2.1-2.5v-4.5h6.7v2.5
	h-2.8v9L47.1,44.5L47.1,44.5z M47.1,36.3v7.4h-2v-7.4H47.1z M32.9,43.7v-7.5h2v7.4L32.9,43.7L32.9,43.7z"/>
<path class="st3" d="M0,32v16h16V32H0z M0.9,35.5v-2.5h6.7v4.5c-1.2,0.2-2.1,1.3-2.1,2.5s0.9,2.3,2.1,2.5v4.5H0.9v-2.5h2.8v-9.1H0.9
	z M6.7,38.7L6.7,38.7c0.5-0.4,0.9-0.5,1.3-0.5c0.5,0,0.9,0.2,1.3,0.5c0.5,0.5,0.8,1.5,0.1,2.5l-0.1,0.1c-0.9,0.7-1.9,0.5-2.5-0.1
	S6,39.7,6.7,38.7z M15.1,44.5v2.5H8.4v-4.5c1.2-0.2,2.1-1.3,2.1-2.5s-0.9-2.3-2.1-2.5v-4.5h6.7v2.5h-2.8v9L15.1,44.5L15.1,44.5z
	 M15.1,36.3v7.4h-2v-7.4H15.1z M0.9,43.7v-7.5h2v7.4L0.9,43.7L0.9,43.7z"/>
</svg>
