<?xml version="1.0" encoding="UTF-8"?>
<svg width="16px" height="16px" viewBox="0 0 16 16" version="1.1" xmlns="http://www.w3.org/2000/svg" xmlns:xlink="http://www.w3.org/1999/xlink">
    <!-- Generator: Sketch 55.1 (78136) - https://sketchapp.com -->
    <title>Content Center/match_tracker_basketball_active</title>
    <desc>Created with Sketch.</desc>
    <g id="Icons" stroke="none" stroke-width="1" fill="none" fill-rule="evenodd">
        <g id="Content-Center/match_tracker_basketball_active">
            <g id="match_tracker_basketball_active">
                <path d="M14.3080381,15.6190476 L1.69165714,15.6190476 C0.970895238,15.6190476 0.381180952,15.0293333 0.381180952,14.3085714 L0.381180952,1.69142857 C0.381180952,0.970666667 0.970895238,0.380952381 1.69165714,0.380952381 L14.3080381,0.380952381 C15.0288,0.380952381 15.6192762,0.970666667 15.6192762,1.69142857 L15.6192762,14.3085714 C15.6192762,15.0293333 15.0288,15.6190476 14.3080381,15.6190476" id="Fill-1" fill="#E28E4E"></path>
                <path d="M1.6919619,0.761904762 C1.1792,0.761904762 0.76167619,1.17866667 0.76167619,1.69142857 L0.76167619,14.3085714 C0.76167619,14.8213333 1.1792,15.2380952 1.6919619,15.2380952 L14.3083429,15.2380952 C14.8203429,15.2380952 15.2378667,14.8213333 15.2378667,14.3085714 L15.2378667,1.69142857 C15.2378667,1.17866667 14.8203429,0.761904762 14.3083429,0.761904762 L1.6919619,0.761904762 Z M14.3083429,16 L1.6919619,16 C0.758628571,16 -0.000228571429,15.2411429 -0.000228571429,14.3085714 L-0.000228571429,1.69142857 C-0.000228571429,0.758857143 0.758628571,0 1.6919619,0 L14.3083429,0 C15.2409143,0 15.9997714,0.758857143 15.9997714,1.69142857 L15.9997714,14.3085714 C15.9997714,15.2411429 15.2409143,16 14.3083429,16 L14.3083429,16 Z" id="Fill-3" fill="#513629"></path>
                <path d="M4.56921905,9.47062857 L4.76274286,7.69767619 C4.76274286,5.9544381 3.16731429,4.04129524 1.42407619,4.04129524 L0.780266667,4.04129524 L0.600457143,6.7064381 L1.77379048,6.7064381 C2.72845714,6.7064381 3.52998095,7.08205714 3.52998095,8.03748571 C3.52998095,8.99215238 2.72845714,9.28700952 1.77379048,9.28700952 L0.624838095,9.29386667 L0.381028571,11.9590095 L1.1063619,11.9590095 C2.8496,11.9590095 4.56921905,11.2138667 4.56921905,9.47062857" id="Fill-6" fill="#E9A578"></path>
                <path d="M9.7559619,8 C9.7559619,7.27390476 8.8744381,6.52266667 8.21691429,6.31085714 L8.21691429,9.93371429 C8.8744381,9.72190476 9.7559619,8.72685714 9.7559619,8" id="Fill-8" fill="#E9A578"></path>
                <path d="M6.36754286,7.90255238 C6.36754286,9.15207619 7.34278095,9.54521905 8.00030476,9.75626667 L8.00030476,6.24388571 C7.34278095,6.45493333 6.36754286,7.17645714 6.36754286,7.90255238" id="Fill-10" fill="#E9A578"></path>
                <path d="M11.5200762,7.67558095 L11.5200762,8.32472381 C11.5200762,10.1959619 13.1337905,11.7167238 15.1193143,11.7167238 L15.3364571,11.7167238 L15.3364571,9.12700952 L13.8111238,9.29386667 C12.7231238,9.29386667 12.5174095,9.32815238 12.5174095,8.30339048 C12.5174095,7.27862857 12.9806476,6.7064381 14.0678857,6.7064381 L15.3364571,6.7064381 L15.3364571,4.28358095 L15.1193143,4.28358095 C13.1337905,4.28358095 11.5200762,5.80434286 11.5200762,7.67558095" id="Fill-12" fill="#E9A578"></path>
                <path d="M8,15.9237333 C7.83161905,15.9237333 7.6952381,15.7873524 7.6952381,15.6189714 L7.6952381,0.38087619 C7.6952381,0.212495238 7.83161905,0.0761142857 8,0.0761142857 C8.16838095,0.0761142857 8.3047619,0.212495238 8.3047619,0.38087619 L8.3047619,15.6189714 C8.3047619,15.7873524 8.16838095,15.9237333 8,15.9237333" id="Fill-14" fill="#6E4331"></path>
                <path d="M8,6.54872381 C7.2,6.54872381 6.54933333,7.19939048 6.54933333,8.00015238 C6.54933333,8.80015238 7.2,9.45158095 8,9.45158095 C8.8,9.45158095 9.45066667,8.80015238 9.45066667,8.00015238 C9.45066667,7.19939048 8.8,6.54872381 8,6.54872381 M8,10.0611048 C6.864,10.0611048 5.93904762,9.13615238 5.93904762,8.00015238 C5.93904762,6.86415238 6.864,5.9392 8,5.9392 C9.136,5.9392 10.0609524,6.86415238 10.0609524,8.00015238 C10.0609524,9.13615238 9.136,10.0611048 8,10.0611048" id="Fill-16" fill="#6E4331"></path>
                <path d="M2.18895238,9.59824762 L0.375619048,9.56929524 C0.207238095,9.56624762 0.0739047619,9.42758095 0.0761615233,9.2599619 C0.0784761905,9.09310476 0.214857143,8.95977143 0.380952381,8.95977143 L0.386285714,8.95977143 L2.19428571,8.98872381 C2.73447619,8.98872381 3.17790476,8.54529524 3.17790476,7.99977143 C3.17790476,7.45500952 2.73447619,7.01081905 2.18895238,7.01081905 L0.380952381,7.01081905 C0.212571429,7.01081905 0.0761615233,6.8744381 0.0761615233,6.70681905 C0.0761615233,6.5384381 0.212571429,6.40205714 0.380952381,6.40205714 L2.18895238,6.40205714 C3.07047619,6.40205714 3.78819048,7.11900952 3.78819048,7.99977143 C3.78819048,8.88129524 3.07047619,9.59824762 2.18895238,9.59824762" id="Fill-18" fill="#6E4331"></path>
                <path d="M15.6190476,12.2637714 L14.8937143,12.2637714 C12.7100952,12.2637714 10.9325714,10.4862476 10.9325714,8.30262857 L10.9325714,7.69767619 C10.9325714,5.51405714 12.7100952,3.73653333 14.8937143,3.73653333 L15.6190476,3.73653333 C15.7874286,3.73653333 15.9238095,3.87291429 15.9238095,4.04129524 C15.9238095,4.20967619 15.7874286,4.34605714 15.6190476,4.34605714 L14.8937143,4.34605714 C13.0453333,4.34605714 11.5420952,5.85005714 11.5420952,7.69767619 L11.5420952,8.30262857 C11.5420952,10.1510095 13.0453333,11.6542476 14.8937143,11.6542476 L15.6190476,11.6542476 C15.7874286,11.6542476 15.9238095,11.7906286 15.9238095,11.9590095 C15.9238095,12.1273905 15.7874286,12.2637714 15.6190476,12.2637714" id="Fill-20" fill="#6E4331"></path>
                <path d="M15.6190476,9.59824762 L13.8110476,9.59824762 C12.9295238,9.59824762 12.2118095,8.88129524 12.2118095,7.99977143 C12.2118095,7.11900952 12.9295238,6.40205714 13.8110476,6.40205714 L15.6190476,6.40205714 C15.7874286,6.40205714 15.9238095,6.5384381 15.9238095,6.70681905 C15.9238095,6.8744381 15.7874286,7.01081905 15.6190476,7.01081905 L13.8110476,7.01081905 C13.2655238,7.01081905 12.8220952,7.45500952 12.8220952,7.99977143 C12.8220952,8.54529524 13.2655238,8.98872381 13.8110476,8.98872381 L15.6190476,8.98872381 C15.7874286,8.98872381 15.9238095,9.12510476 15.9238095,9.29348571 C15.9238095,9.46186667 15.7874286,9.59824762 15.6190476,9.59824762" id="Fill-22" fill="#6E4331"></path>
                <path d="M1.1063619,12.2637714 L0.381028571,12.2637714 C0.212647619,12.2637714 0.0755047619,12.1273905 0.0755047619,11.9590095 C0.0755047619,11.7906286 0.212647619,11.6542476 0.381028571,11.6542476 L1.1063619,11.6542476 C2.95474286,11.6542476 4.45721905,10.1510095 4.45721905,8.30262857 L4.45721905,7.69767619 C4.45721905,5.85005714 2.95474286,4.34605714 1.1063619,4.34605714 L0.381028571,4.34605714 C0.212647619,4.34605714 0.0755047619,4.20967619 0.0755047619,4.04129524 C0.0755047619,3.87291429 0.212647619,3.73653333 0.381028571,3.73653333 L1.1063619,3.73653333 C3.28998095,3.73653333 5.06750476,5.51405714 5.06750476,7.69767619 L5.06750476,8.30262857 C5.06750476,10.4862476 3.28998095,12.2637714 1.1063619,12.2637714" id="Fill-24" fill="#6E4331"></path>
                <path d="M1.6919619,0.761904762 C1.1792,0.761904762 0.76167619,1.17866667 0.76167619,1.69142857 L0.76167619,14.3085714 C0.76167619,14.8213333 1.1792,15.2380952 1.6919619,15.2380952 L14.3083429,15.2380952 C14.8203429,15.2380952 15.2378667,14.8213333 15.2378667,14.3085714 L15.2378667,1.69142857 C15.2378667,1.17866667 14.8203429,0.761904762 14.3083429,0.761904762 L1.6919619,0.761904762 Z M14.3083429,16 L1.6919619,16 C0.758628571,16 -0.000228571429,15.2411429 -0.000228571429,14.3085714 L-0.000228571429,1.69142857 C-0.000228571429,0.758857143 0.758628571,0 1.6919619,0 L14.3083429,0 C15.2409143,0 15.9997714,0.758857143 15.9997714,1.69142857 L15.9997714,14.3085714 C15.9997714,15.2411429 15.2409143,16 14.3083429,16 L14.3083429,16 Z" id="Fill-26" fill="#6E4331"></path>
            </g>
        </g>
    </g>
</svg>