<?xml version="1.0" encoding="utf-8"?>
<!-- Generator: Adobe Illustrator 23.0.3, SVG Export Plug-In . SVG Version: 6.00 Build 0)  -->
<svg version="1.1" id="Layer_1" xmlns="http://www.w3.org/2000/svg" xmlns:xlink="http://www.w3.org/1999/xlink" x="0px" y="0px"
	 width="18px" height="54px" viewBox="0 0 18 54" style="enable-background:new 0 0 18 54;" xml:space="preserve">
<style type="text/css">
	.st0{fill:#33997A;}
	.st1{opacity:0.64;}
	.st2{fill:#19805C;}
</style>
<title>Bet Process/bet_status_win</title>
<desc>Created with Sketch.</desc>
<g id="Icons">
	<g>
		<path id="bet_status_win" class="st0" d="M9,36c5,0,9,4,9,9s-4,9-9,9s-9-4-9-9S4,36,9,36z M11.8,42.5l-3.6,3.9l-1.4-1.6
			c-0.4-0.4-1-0.4-1.4,0c-0.4,0.4-0.4,1,0,1.4l2.1,2.4c0.2,0.2,0.4,0.3,0.7,0.3c0.3,0,0.5-0.1,0.7-0.3l4.3-4.7c0.4-0.4,0.4-1,0-1.4
			C12.8,42.1,12.1,42.1,11.8,42.5z"/>
	</g>
</g>
<g class="st1">
	<path d="M9,1c4.4,0,8,3.6,8,8s-3.6,8-8,8s-8-3.6-8-8S4.6,1,9,1 M9,0C4,0,0,4,0,9s4,9,9,9s9-4,9-9S14,0,9,0L9,0z"/>
</g>
<g>
	<path class="st2" d="M9,20c3.9,0,7,3.1,7,7s-3.1,7-7,7s-7-3.1-7-7S5.1,20,9,20 M9,18c-5,0-9,4-9,9s4,9,9,9s9-4,9-9S14,18,9,18L9,18
		z"/>
</g>
</svg>
