<svg width="16" height="16" viewBox="0 0 16 16" fill="none" xmlns="http://www.w3.org/2000/svg">
<g clip-path="url(#clip0_577_670)">
<path fill-rule="evenodd" clip-rule="evenodd" d="M15.1956 8.60102C15.2941 8.52897 15.6346 8.27234 15.7517 7.92846C15.735 7.83035 15.7118 7.72654 15.6814 7.61671L15.6793 7.61101C15.6491 8.03866 15.1066 8.37121 15.0729 8.37694C14.9389 8.19043 14.7411 8.18121 14.6758 8.17838C14.4815 8.19681 14.3766 8.26631 14.3283 8.30248C14.0298 8.45975 14.048 8.76811 14.0542 8.87196C14.0548 8.88283 14.0553 8.89146 14.0553 8.89744C13.9532 8.96126 13.5157 9.01941 13.3859 9.02154C13.1427 9.03005 12.9413 8.9407 12.8654 8.89744C12.8454 8.88752 12.8278 8.8714 12.8123 8.85165C12.8537 8.92679 12.8941 9.00469 12.9248 9.07408L12.9376 9.09211C13.0253 9.16027 13.3714 9.36413 14.1539 9.12153C14.2326 9.20946 14.507 9.42575 14.9226 9.19599L14.9304 9.19046C15.0153 9.13056 15.199 9.00099 15.1956 8.60102ZM14.6796 6.69655C14.5601 6.66573 14.4283 6.64627 14.2836 6.64285C14.2265 6.52292 14.0283 6.19717 13.4604 5.89708C13.4604 5.89708 13.9738 6.43178 14.0469 6.65196C13.9894 6.66011 13.9295 6.6727 13.8682 6.6898C13.4074 6.12251 11.6648 5.21914 11.6648 5.21914L12.5427 5.99636H12.542C12.9015 6.23142 13.3312 6.68094 13.4707 6.85961C13.4133 6.8932 13.3567 6.93072 13.3017 6.97225C13.1638 6.76641 12.5427 6.29349 12.5427 6.29349C12.8393 6.61784 13.0975 6.98217 13.1682 7.08407C13.1296 7.12001 13.0922 7.1582 13.0563 7.19867L11.8144 6.38L12.4186 7.03737C12.4186 7.03737 12.7873 7.34778 12.8722 7.45363C12.8328 7.52157 12.7978 7.59392 12.7679 7.67077L12.0371 7.11184L12.0364 7.11255L12.3931 7.55859C12.3931 7.55859 12.5933 7.83037 12.6898 7.93887C12.6806 7.98459 12.6731 8.03156 12.6675 8.07981C12.6672 8.13744 12.6697 8.19604 12.6736 8.25213C12.5926 8.1628 12.2569 7.89198 11.9947 7.68452C10.3283 5.74672 7.97234 5.0181 5.85581 4.78303C6.80754 4.78761 7.478 4.87056 7.70277 4.89837C7.73934 4.9029 7.76411 4.90596 7.77638 4.90699L10.6737 5.15036L8.14632 4.30326C9.53248 4.43371 10.357 4.70428 10.584 4.77879C10.6032 4.78507 10.6181 4.78996 10.6287 4.79326L12.8774 5.49013L11.3587 4.4607C11.569 4.51798 11.7691 4.57822 11.9594 4.6409C12.8148 5.03854 14.0865 5.7526 14.6796 6.69655ZM12.5011 8.47697L12.5011 8.47699L12.2697 8.62512L12.5011 8.47697ZM7.89238 3.57949C6.66805 3.48874 5.07652 3.50803 3.13861 3.81542L3.18767 4.27184C2.35266 4.39539 1.45274 4.59179 0.529841 4.89515L-1.31958 5.50305L0.625769 5.57739C0.729781 5.58136 0.871937 5.57393 1.03811 5.56108C0.932861 5.62525 0.828444 5.69998 0.728647 5.78658C0.457166 6.02219 0.220616 6.34554 0.100678 6.77455C-0.0189611 7.2025 -0.0159543 7.7117 0.152499 8.30998L0.157533 8.32786L0.163154 8.34191L0.166708 8.35241L0.181701 8.3973C0.1946 8.4354 0.212434 8.48615 0.236575 8.54727C0.284892 8.66959 0.357377 8.83067 0.465943 9.01803C0.683476 9.39344 1.04245 9.86842 1.63329 10.3477C2.81602 11.3071 4.90027 12.2623 8.57512 12.5071L8.61166 12.1446C9.83599 12.2353 11.4275 12.216 13.3654 11.9086L13.3164 11.4522C14.1514 11.3287 15.0513 11.1323 15.9742 10.8289L17.8236 10.221L15.8783 10.1467C15.7743 10.1427 15.6321 10.1501 15.4659 10.163C15.5712 10.0988 15.6756 10.0241 15.7754 9.93748C16.0469 9.70187 16.2834 9.37852 16.4034 8.9495C16.523 8.52156 16.52 8.01236 16.3515 7.41408L16.3465 7.3962L16.3409 7.38215L16.3373 7.37165L16.3223 7.32676C16.3094 7.28866 16.2916 7.23791 16.2675 7.17679C16.2192 7.05447 16.1467 6.89339 16.0381 6.70603C15.8206 6.33062 15.4616 5.85564 14.8708 5.37635C13.688 4.41692 11.6038 3.46173 7.92893 3.21691L7.89238 3.57949ZM13.3359 10.322C12.6004 10.3517 11.7634 10.3492 10.8913 10.2627C8.57317 10.0329 6.06556 9.21741 4.52642 6.90501L4.51442 6.88698L4.48927 6.84683C4.46428 6.80663 4.43018 6.75105 4.39367 6.6894C4.31647 6.55905 4.24263 6.42509 4.21123 6.34766L4.19599 6.31006L4.17256 6.27695L4.16172 6.26124C4.08682 6.15176 3.76025 5.67442 3.16818 5.40205C3.90365 5.37234 4.7406 5.37486 5.61271 5.46132C7.93088 5.69116 10.4385 6.50664 11.9776 8.81905L11.9896 8.83708L12.0148 8.87723C12.0398 8.91743 12.0739 8.97301 12.1104 9.03466C12.1876 9.16501 12.2614 9.29897 12.2928 9.3764L12.3081 9.414L12.3315 9.44711L12.3423 9.46282C12.4172 9.57229 12.7438 10.0496 13.3359 10.322ZM14.9396 8.5996C15.0268 8.7464 14.9609 8.94708 14.7914 9.04778C14.6219 9.14777 14.4141 9.11018 14.3269 8.96268C14.2397 8.81589 14.3056 8.6152 14.4751 8.51451C14.6446 8.41452 14.8524 8.4521 14.9396 8.5996ZM4.90649 5.82413C6.53699 5.70885 10.2822 6.33799 12.219 9.77687C10.7862 10.271 5.54878 9.08514 4.90649 5.82413ZM0.822689 8.10734C0.792211 7.99753 0.769068 7.89372 0.752363 7.79561C0.869481 7.45173 1.20997 7.19511 1.30845 7.12305C1.30501 6.72308 1.48872 6.59351 1.57366 6.53361L1.58147 6.52808C1.99702 6.29832 2.27146 6.51461 2.35017 6.60254C3.13266 6.35993 3.47881 6.56383 3.56648 6.63197L3.57922 6.64997C3.60993 6.71938 3.65032 6.79729 3.69176 6.87244C3.67628 6.85269 3.65864 6.83656 3.63867 6.82663C3.56279 6.78338 3.36139 6.69402 3.11816 6.70253C2.98839 6.70466 2.55085 6.76281 2.44873 6.82663C2.44873 6.83261 2.44924 6.84123 2.44988 6.85209L2.44988 6.85211C2.45601 6.95596 2.47422 7.26432 2.17571 7.4216C2.12749 7.45776 2.02254 7.52726 1.82824 7.5457C1.763 7.54286 1.56515 7.53364 1.43112 7.34714C1.39741 7.35286 0.854948 7.6854 0.824702 8.11304L0.822689 8.10734ZM3.83045 7.47194C3.91144 7.56129 4.24716 7.83212 4.50934 8.03958C6.17582 9.97735 8.53172 10.706 10.6482 10.941C9.6965 10.9365 9.02604 10.8535 8.80127 10.8257C8.7647 10.8212 8.73993 10.8181 8.72767 10.8171L5.83038 10.5737L8.35773 11.4208C6.97156 11.2903 6.14708 11.0198 5.92002 10.9453L5.91992 10.9452C5.90083 10.939 5.88597 10.9341 5.87536 10.9308L3.62662 10.2339L5.14537 11.2634C4.93498 11.2061 4.73489 11.1458 4.5446 11.0831C3.68915 10.6855 2.4175 9.97144 1.82445 9.02752C1.94396 9.05834 2.07572 9.07781 2.22045 9.08122C2.27753 9.20115 2.47574 9.5269 3.04369 9.82699C3.04369 9.82699 2.53026 9.2923 2.45714 9.07211C2.51461 9.06396 2.57453 9.05137 2.63581 9.03428C3.09665 9.60157 4.83923 10.5049 4.83923 10.5049L3.96132 9.72772H3.96203C3.60252 9.49266 3.17283 9.04314 3.03336 8.86446C3.09071 8.83088 3.14733 8.79335 3.20237 8.75183C3.3402 8.95766 3.96133 9.43058 3.96133 9.43058C3.66472 9.10624 3.40654 8.74191 3.33583 8.64001C3.37449 8.60406 3.4119 8.56587 3.4477 8.52541L4.68961 9.34407L4.08542 8.6867C4.08542 8.6867 3.71672 8.3763 3.63183 8.27045C3.67121 8.20251 3.70628 8.13016 3.73615 8.05333L4.46694 8.61224L4.46764 8.61153L4.11095 8.16548C4.11095 8.16548 3.91077 7.89375 3.81427 7.78523C3.82345 7.73951 3.83091 7.69252 3.83651 7.64427C3.83684 7.58664 3.8344 7.52803 3.83045 7.47194ZM4.23435 7.09894L4.00291 7.24709L4.00289 7.24707L4.23435 7.09894ZM1.56445 7.12447C1.47723 6.97768 1.54318 6.77699 1.71266 6.67629C1.88214 6.57631 2.08992 6.61389 2.17715 6.76139C2.26437 6.90818 2.19842 7.10887 2.02894 7.20957C1.85945 7.30955 1.65167 7.27197 1.56445 7.12447Z" fill="white"/>
</g>
<defs>
<clipPath id="clip0_577_670">
<rect width="16" height="16" fill="white"/>
</clipPath>
</defs>
</svg>
