<svg xmlns="http://www.w3.org/2000/svg" width="16" height="16" viewBox="0 0 16 16">
    <path fill="#FFF" fill-opacity=".64" fill-rule="evenodd" d="M7.87 0a7.976 7.976 0 1 0 .214 15.952A7.976 7.976 0 0 0 7.869.001zm-.024 12.83h-.044c-.679-.02-1.157-.52-1.138-1.188.02-.657.51-1.134 1.165-1.134h.04c.697.022 1.17.516 1.15 1.204-.02.658-.502 1.119-1.173 1.119zm2.853-5.662c-.16.227-.51.508-.952.852l-.487.336c-.267.208-.429.403-.49.596-.047.151-.07.191-.074.5l-.001.077H6.837l.005-.157c.023-.646.039-1.027.307-1.34.42-.494 1.347-1.091 1.386-1.117.133-.1.245-.213.328-.335.196-.27.282-.48.282-.689 0-.289-.086-.556-.255-.793-.163-.23-.472-.346-.92-.346-.443 0-.747.14-.929.43a1.725 1.725 0 0 0-.281.927v.08H4.844l.003-.083c.05-1.174.468-2.019 1.245-2.512.487-.314 1.094-.473 1.802-.473.927 0 1.71.225 2.326.67.624.45.94 1.124.94 2.003 0 .492-.155.954-.461 1.374z"/>
</svg>
