<svg xmlns="http://www.w3.org/2000/svg" xmlns:xlink="http://www.w3.org/1999/xlink" xml:space="preserve" id="Layer_1" x="0" y="0" style="enable-background:new 0 0 80 16" version="1.1" viewBox="0 0 80 16"><style>.st1{fill:#205a22}.st2{fill:#2b782d}.st3{fill:#f47371}.st6{fill:#5c5c5c}</style><defs><path id="SVGID_1_" d="M0 0h16v16H0z"/></defs><clipPath id="SVGID_2_"><use xlink:href="#SVGID_1_" style="overflow:visible"/></clipPath><g style="clip-path:url(#SVGID_2_)"><path d="M10.9 15.8H2.4c-.4 0-.8-.1-1.2-.3-.4-.2-.7-.5-.9-.8-.2-.3-.3-.7-.3-1 0-.3 0-.7.2-1 .2-.5.5-1.1.8-1.6 1.4-2.4 2.8-4.9 4.3-7.3.3-.5.5-.9.8-1.4.3-.2.6-.5.9-.7.3-.2.7-.3 1.1-.2.4 0 .7.1 1.1.3.3.2.6.5.7.8.5.7.9 1.5 1.4 2.3 1.2 2 2.4 4.1 3.6 6.1l.9 1.5c.2.4.3.8.2 1.2 0 .4-.2.8-.5 1.2-.2.2-.4.4-.7.6-.3.1-.6.2-.9.2-.9 0-1.9.1-2.8.1h-.2z" class="st1"/><path d="M8.1 15.2H13.7c.3 0 .7-.1 1-.3.3-.2.5-.5.6-.8.1-.2.1-.5.1-.7 0-.3-.1-.5-.3-.7l-.9-1.5C12.7 8.6 11.1 6 9.6 3.4c-.1-.4-.3-.6-.5-.8-.2-.2-.3-.3-.5-.4-.2-.1-.4-.1-.6-.1-.2 0-.4 0-.6.1-.2.1-.3.2-.5.3-.2.2-.3.5-.5.7C4.8 6 3.1 8.8 1.5 11.6c-.3.4-.5.9-.7 1.3-.1.2-.1.4-.1.6 0 .2 0 .4.1.6s.2.4.3.5c.1.1.3.3.5.3.3.1.7.2 1 .2h5.5z" class="st2"/><path d="M14.6 13.2c0 .4-.2.7-.4 1-.3.3-.6.4-1 .4-.2 0-.4 0-.5-.1-.2-.1-.3-.2-.5-.3-.1-.1-.2-.3-.3-.5-.1-.2-.1-.4-.1-.6 0-.2 0-.4.1-.5.1-.2.2-.3.3-.5.1-.1.3-.2.5-.3.2-.1.4-.1.5-.1.2 0 .4 0 .5.1.2.1.3.2.5.3.1.1.2.3.3.5 0 .2.1.4.1.6zm-8.3 1.5c.4 0 .7-.2 1-.4.3-.3.4-.6.4-1s-.1-.7-.4-1c-.3-.3-.6-.4-1-.4s-.7.2-1 .4c-.3.3-.4.6-.4 1s.1.7.4 1c.3.2.6.3 1 .4zm-3.4 0c.4 0 .7-.2 1-.4.3-.3.4-.6.4-1s-.2-.7-.5-1c-.3-.3-.6-.4-1-.4s-.7.2-1 .4c-.3.3-.4.6-.4 1s.2.7.4 1c.3.2.7.4 1.1.4zm6.8 0c.4 0 .7-.2 1-.4.3-.3.4-.6.4-1s-.2-.7-.4-1c-.3-.3-.6-.4-1-.4-.2 0-.4 0-.6.1-.1 0-.3.1-.4.2-.3.3-.4.6-.4 1s.2.7.4 1c.3.3.6.5 1 .5zm1.7-3c.2 0 .4 0 .5-.1.2-.1.3-.2.5-.3.1-.1.2-.3.3-.5.1-.2.1-.4.1-.5 0-.4-.2-.7-.4-1-.3-.3-.6-.4-1-.4-.2 0-.4 0-.6.1-.2.1-.3.2-.5.3-.1.1-.2.3-.3.5v.5c0 .2 0 .4.1.6.1.2.2.3.3.5.1.1.3.2.5.3h.5zm-2-1.4c0-.2 0-.4-.1-.5 0-.2-.1-.4-.3-.5-.1-.1-.3-.2-.4-.3-.2-.1-.4-.1-.6-.1-.2 0-.4 0-.5.1s-.4.2-.5.3-.2.3-.3.4c-.1.2-.1.4-.1.5 0 .2 0 .4.1.6.1.2.2.4.3.5.1.1.3.2.5.3.2.1.4.1.6.1.2 0 .4 0 .5-.1.2-.1.3-.2.5-.3.1-.1.2-.3.3-.5v-.5zM4.6 8.9c-.2 0-.4 0-.6.1-.1 0-.3.1-.4.3-.1.1-.2.3-.3.4-.1.2-.1.4-.1.6 0 .2 0 .4.1.5.1.2.2.3.3.5.1.1.3.2.5.3.2.1.4.1.5.1.2 0 .4 0 .6-.1.2-.1.3-.2.5-.3.1-.1.2-.3.3-.5v-.5c0-.4-.1-.7-.4-1-.2-.3-.6-.4-1-.4zm5.1-3c-.2 0-.4 0-.5.1-.2.1-.3.2-.5.3-.1.1-.2.3-.3.5-.1.1-.1.3-.1.5s0 .4.1.5c.1.2.2.4.3.5.1.2.3.3.5.3.2.1.4.1.5.1.2 0 .4 0 .6-.1.2-.1.3-.2.5-.3.1-.1.2-.3.3-.5.1-.2.1-.4.1-.6 0-.2 0-.4-.1-.6-.1-.2-.2-.3-.3-.5-.1-.1-.3-.2-.5-.3-.2.1-.4.1-.6.1zm-.3-1.5c0-.2 0-.4-.1-.5 0-.2-.2-.4-.3-.5-.1-.1-.3-.2-.5-.3C8.4 3 8.2 3 8 3s-.4 0-.5.1c-.2.1-.4.2-.5.3-.1.1-.2.3-.3.5-.1.1-.1.3-.1.5s0 .4.1.6c0 .1.1.3.3.4.1.1.3.2.5.3.1.1.3.1.5.1s.4 0 .6-.1c.1 0 .3-.1.4-.3.2-.1.3-.3.3-.4.1-.2.1-.4.1-.6zM6.3 8.7c.2 0 .4 0 .6-.1.1 0 .3-.1.4-.2.1-.1.2-.3.3-.5.1-.2.1-.4.1-.6 0-.2 0-.4-.1-.5 0-.2-.2-.3-.3-.5-.1-.1-.3-.2-.5-.3-.1 0-.3-.1-.5-.1s-.4 0-.6.1c-.1.1-.3.2-.4.3-.2.2-.3.3-.3.5-.1.2-.1.4-.1.5 0 .2 0 .4.1.5 0 .3.1.4.3.5.1.1.3.2.5.3.1.1.3.1.5.1z" class="st3"/></g><defs><path id="SVGID_3_" d="M32 0h16v16H32z"/></defs><clipPath id="SVGID_4_"><use xlink:href="#SVGID_3_" style="overflow:visible"/></clipPath><g style="clip-path:url(#SVGID_4_)"><path d="M42.9 15.8h-8.5c-.4 0-.8-.1-1.2-.3-.4-.2-.7-.5-.9-.8-.2-.3-.3-.6-.3-1 0-.3 0-.7.2-1 .2-.5.5-1.1.8-1.6 1.4-2.4 2.8-4.9 4.3-7.3.3-.5.5-.9.8-1.4.2-.3.5-.6.8-.7.3-.2.7-.3 1.1-.2.4 0 .7.1 1.1.3.3.2.6.5.8.8.5.7.9 1.5 1.4 2.3 1.2 2 2.4 4.1 3.6 6.1l.9 1.5c.2.4.3.8.2 1.2 0 .4-.2.8-.5 1.2-.2.2-.4.4-.7.6-.3.1-.6.2-.9.2-.9 0-1.9.1-2.8.1h-.2z" class="st1"/><path d="M40.1 15.2H45.7c.3 0 .7-.1 1-.3.3-.2.5-.5.6-.8.1-.2.1-.5.1-.7 0-.3-.1-.5-.3-.7l-.9-1.5c-1.5-2.6-3.1-5.2-4.6-7.8-.2-.3-.4-.5-.6-.7-.1-.1-.3-.3-.5-.3-.2-.1-.4-.1-.6-.1-.2 0-.4 0-.6.1-.2.1-.4.2-.5.3-.2.2-.4.4-.5.7-1.7 2.8-3.3 5.6-5 8.4-.3.4-.5.9-.7 1.3-.1.2-.1.4-.1.6 0 .2 0 .4.1.6s.2.4.3.5.3.3.5.3c.3.1.7.2 1 .2h5.7z" class="st2"/><path d="M46.6 13.2c0 .4-.2.7-.4 1-.3.3-.6.4-1 .4-.2 0-.4 0-.5-.1-.2-.1-.3-.2-.5-.3-.1-.1-.2-.3-.3-.5-.1-.2-.1-.4-.1-.6 0-.2 0-.4.1-.5.1-.2.2-.3.3-.5.1-.1.3-.2.5-.3.2-.1.4-.1.5-.1.2 0 .4 0 .5.1.2.1.3.2.5.3.1.1.2.3.3.5 0 .2.1.4.1.6zm-8.3 1.5c.4 0 .7-.2 1-.4.3-.3.4-.6.4-1s-.1-.7-.4-1c-.3-.3-.6-.4-1-.4s-.7.2-1 .4c-.3.3-.4.6-.4 1s.1.7.4 1c.3.2.6.3 1 .4zm-3.4 0c.4 0 .7-.2 1-.4.3-.3.4-.6.4-1s-.2-.7-.5-1c-.3-.3-.6-.4-1-.4s-.7.2-1 .4c-.3.3-.4.6-.4 1s.2.7.4 1c.3.2.7.4 1.1.4zm6.8 0c.4 0 .7-.2 1-.4.3-.3.4-.6.4-1s-.2-.7-.4-1c-.3-.3-.6-.4-1-.4-.2 0-.4 0-.6.1-.2.1-.3.2-.5.3-.3.3-.4.6-.4 1s.2.7.4 1c.4.2.7.4 1.1.4zm1.7-3c.2 0 .4 0 .5-.1.2-.1.3-.2.5-.3.1-.1.2-.3.3-.5.1-.2.1-.4.1-.5 0-.4-.2-.7-.4-1-.3-.3-.6-.4-1-.4-.2 0-.4 0-.6.1-.2.1-.3.2-.5.3-.1.1-.2.3-.3.5v.5c0 .2 0 .4.1.6.1.2.2.3.3.5.1.1.3.2.5.3h.5zm-2-1.4c0-.2 0-.4-.1-.5-.1-.2-.2-.3-.3-.5-.1-.1-.3-.2-.5-.3-.2-.1-.4-.1-.5-.1-.2 0-.4 0-.5.1-.2.1-.3.2-.5.3-.1.1-.2.3-.3.5-.1.2-.1.4-.1.5 0 .2 0 .4.1.6.1.2.2.3.3.5.1.1.3.2.5.3.2.1.4.1.6.1.2 0 .4 0 .5-.1.2-.1.3-.2.5-.3.1-.1.2-.3.3-.5v-.6zm-4.8-1.4c-.2 0-.4 0-.6.1-.2.1-.3.2-.5.3-.1.1-.2.3-.3.5-.1.2-.1.4-.1.6 0 .2 0 .4.1.5.1.2.2.3.3.5s.3.2.5.3c.2.1.4.1.5.1.2 0 .4 0 .6-.1.2-.1.3-.2.5-.3.1-.1.2-.3.3-.5.1-.2.1-.4.1-.5 0-.4-.1-.7-.4-1-.2-.4-.6-.5-1-.5zm5.1-3c-.2 0-.4 0-.5.1-.2.1-.3.2-.5.3-.1.1-.2.3-.3.5-.1.2-.1.4-.1.5 0 .2 0 .4.1.5.1.2.2.3.3.5.1.1.3.2.5.3s.4.1.5.1c.2 0 .4 0 .6-.1.2-.1.3-.2.5-.3.1-.1.2-.3.3-.5.1-.2.1-.4.1-.6 0-.2 0-.4-.1-.6-.1-.2-.2-.3-.3-.5-.1-.1-.3-.2-.5-.3-.2.1-.4.1-.6.1zm-.3-1.5c0-.2 0-.4-.1-.5-.1-.2-.2-.3-.3-.5-.1-.1-.3-.2-.5-.3-.1-.1-.3-.1-.5-.1s-.4 0-.5.1c-.2.1-.3.2-.5.3-.1.1-.2.3-.3.5-.1.2-.1.4-.1.5 0 .2 0 .4.1.6.1.2.2.3.3.5.1.1.3.2.5.3.2.1.4.1.6.1.2 0 .4 0 .6-.1.2-.1.3-.2.5-.3.1-.1.2-.3.3-.5-.1-.2-.1-.4-.1-.6zm-3.1 4.3c.2 0 .4 0 .6-.1.2-.1.3-.2.5-.3.1-.1.2-.3.3-.5.1-.2.1-.4.1-.6 0-.2 0-.4-.1-.5-.1-.2-.2-.3-.3-.5-.2 0-.4-.1-.6-.2s-.4-.1-.5-.1c-.2 0-.4 0-.6.1-.2.1-.3.2-.5.3-.1.2-.2.3-.2.5-.1.2-.1.4-.1.6 0 .2 0 .4.1.5.1.2.2.3.3.5.1.1.3.2.5.3h.5z" class="st3"/></g><defs><path id="SVGID_5_" d="M64 0h16v16H64z"/></defs><clipPath id="SVGID_6_"><use xlink:href="#SVGID_5_" style="overflow:visible"/></clipPath><g style="clip-path:url(#SVGID_6_)"><path d="M74.9 15.8h-8.5c-.4 0-.8-.1-1.2-.3-.4-.2-.7-.5-.9-.8-.2-.3-.3-.6-.3-1 0-.3 0-.7.2-1 .2-.5.5-1.1.8-1.6 1.4-2.4 2.8-4.9 4.3-7.3.3-.5.5-.9.8-1.4.2-.3.5-.6.8-.7.3-.2.7-.3 1.1-.2.4 0 .7.1 1.1.3.3.2.6.5.8.8.5.7.9 1.5 1.4 2.3 1.2 2 2.4 4.1 3.6 6.1l.9 1.5c.2.4.3.8.2 1.2 0 .4-.2.8-.5 1.2-.2.2-.4.4-.7.6-.3.1-.6.2-.9.2-.9 0-1.9.1-2.8.1h-.2z" class="st6"/><path d="M72.1 15.2H77.7c.3 0 .7-.1 1-.3.3-.2.5-.5.6-.8.1-.2.1-.5.1-.7 0-.3-.1-.5-.3-.7l-.9-1.5c-1.5-2.6-3.1-5.2-4.6-7.8-.2-.3-.4-.5-.6-.7-.1-.1-.3-.3-.5-.3-.2-.1-.4-.1-.6-.1-.2 0-.4 0-.6.1-.2.1-.4.2-.5.3-.2.2-.4.4-.5.7-1.7 2.8-3.3 5.6-5 8.4-.3.4-.5.9-.7 1.3-.1.2-.1.4-.1.6 0 .2 0 .4.1.6.1.2.2.4.3.5s.3.3.5.3c.3.1.7.2 1 .2h5.7z" class="st6"/><path d="M78.6 13.2c0 .4-.2.7-.4 1-.3.3-.6.4-1 .4-.2 0-.4 0-.5-.1-.2-.1-.3-.2-.5-.3-.1-.1-.2-.3-.3-.5-.1-.2-.1-.4-.1-.6 0-.2 0-.4.1-.5.1-.2.2-.3.3-.5.1-.1.3-.2.5-.3.2-.1.4-.1.5-.1.2 0 .4 0 .5.1.2.1.3.2.5.3.1.1.2.3.3.5 0 .2.1.4.1.6zm-8.3 1.5c.4 0 .7-.2 1-.4.3-.3.4-.6.4-1s-.1-.7-.4-1c-.3-.3-.6-.4-1-.4s-.7.2-1 .4c-.3.3-.4.6-.4 1s.1.7.4 1c.3.2.6.3 1 .4zm-3.4 0c.4 0 .7-.2 1-.4.3-.3.4-.6.4-1s-.2-.7-.5-1c-.3-.3-.6-.4-1-.4s-.7.2-1 .4c-.3.3-.4.6-.4 1s.2.7.4 1 .7.4 1.1.4zm6.8 0c.4 0 .7-.2 1-.4.3-.3.4-.6.4-1s-.2-.7-.4-1c-.3-.3-.6-.4-1-.4-.2 0-.4 0-.6.1-.2.1-.3.2-.5.3-.3.3-.4.6-.4 1s.2.7.4 1c.4.2.7.4 1.1.4zm1.7-3c.2 0 .4 0 .5-.1.2-.1.3-.2.5-.3.1-.1.2-.3.3-.5.1-.2.1-.4.1-.5 0-.4-.2-.7-.4-1-.3-.3-.6-.4-1-.4-.2 0-.4 0-.6.1-.2.1-.3.2-.5.3-.1.1-.2.3-.3.5v.5c0 .2 0 .4.1.6.1.2.2.3.3.5.1.1.3.2.5.3h.5zm-2-1.4c0-.2 0-.4-.1-.5-.1-.2-.2-.3-.3-.5s-.3-.2-.4-.3c-.2-.1-.4-.1-.5-.1-.2 0-.4 0-.5.1-.2.1-.3.2-.5.3-.1.1-.2.3-.3.5-.1.2-.1.4-.1.5 0 .2 0 .4.1.6.1.2.2.3.3.5.1.1.3.2.5.3.2.1.4.1.6.1.2 0 .4 0 .5-.1.2-.1.3-.2.5-.3.1-.1.2-.3.3-.5-.1-.2-.1-.4-.1-.6zm-4.8-1.4c-.2 0-.4 0-.6.1-.2.1-.3.2-.5.3-.1.1-.2.3-.3.5-.1.2-.1.4-.1.6 0 .2 0 .4.1.5.1.2.2.3.3.5s.3.2.5.3c.2.1.4.1.5.1.2 0 .4 0 .6-.1s.3-.2.5-.3c.1-.1.2-.3.3-.5.1-.2.1-.4.1-.5 0-.4-.1-.7-.4-1-.2-.4-.6-.5-1-.5zm5.1-3c-.2 0-.4 0-.5.1-.2.1-.3.2-.5.3-.1.1-.2.3-.3.5-.1.2-.1.4-.1.5 0 .2 0 .4.1.5.1.2.2.3.3.5.1.1.3.2.5.3.2.1.4.1.5.1.2 0 .4 0 .6-.1.2-.1.3-.2.5-.3.1-.1.2-.3.3-.5.1-.2.1-.4.1-.6 0-.2 0-.4-.1-.6-.1-.2-.2-.3-.3-.5-.1-.1-.3-.2-.5-.3-.2.1-.4.1-.6.1zm-.3-1.5c0-.2 0-.4-.1-.5-.1-.2-.2-.3-.3-.5-.1-.1-.3-.2-.5-.3-.1-.1-.3-.1-.5-.1s-.4 0-.5.1c-.2.1-.3.2-.5.3-.1.1-.2.3-.3.5-.1.2-.1.4-.1.5 0 .2 0 .4.1.6.1.2.2.3.3.5.1.1.3.2.5.3s.4.1.6.1c.2 0 .4 0 .6-.1.2-.1.3-.2.5-.3.1-.1.2-.3.3-.5-.1-.2-.1-.4-.1-.6zm-3.1 4.3c.2 0 .4 0 .6-.1.2-.1.3-.2.5-.3.1-.1.2-.3.3-.5.1-.2.1-.4.1-.6 0-.2 0-.4-.1-.5-.1-.2-.2-.3-.3-.5-.2 0-.4-.1-.6-.2-.2-.1-.4-.1-.5-.1-.2 0-.4 0-.6.1-.2.1-.3.2-.5.3-.1.2-.2.3-.2.5-.1.2-.1.4-.1.6 0 .2 0 .4.1.5.1.2.2.3.3.5.1.1.3.2.5.3h.5z" style="fill:#fff"/></g></svg>