<?xml version="1.0" encoding="utf-8"?>
<!-- Generator: Adobe Illustrator 23.0.3, SVG Export Plug-In . SVG Version: 6.00 Build 0)  -->
<svg version="1.1" id="Layer_1" xmlns="http://www.w3.org/2000/svg" xmlns:xlink="http://www.w3.org/1999/xlink" x="0px" y="0px"
	 width="36px" height="12px" viewBox="0 0 36 12" style="enable-background:new 0 0 36 12;" xml:space="preserve">
<style type="text/css">
	.st0{fill:#1D9C76;}
	.st1{fill:#9EE835;}
</style>
<g>
	<path class="st0" d="M4,2.7v6.7h1.3V6l1.3,3.3H8V2.7H6.7V6L5.3,2.7H4z M1.3,0h9.3c0.4,0,0.7,0.1,0.9,0.4C11.9,0.6,12,1,12,1.3v9.3
		c0,0.4-0.1,0.7-0.4,0.9C11.4,11.9,11,12,10.7,12H1.3c-0.4,0-0.7-0.1-0.9-0.4C0.1,11.4,0,11,0,10.7V1.3C0,1,0.1,0.6,0.4,0.4
		C0.6,0.1,1,0,1.3,0L1.3,0z"/>
</g>
<g>
	<path class="st1" d="M28,2.7v6.7h1.3V6l1.3,3.3H32V2.7h-1.3V6l-1.3-3.3H28z M25.3,0h9.3c0.4,0,0.7,0.1,0.9,0.4
		C35.9,0.6,36,1,36,1.3v9.3c0,0.4-0.1,0.7-0.4,0.9C35.4,11.9,35,12,34.7,12h-9.3c-0.4,0-0.7-0.1-0.9-0.4C24.1,11.4,24,11,24,10.7
		V1.3c0-0.4,0.1-0.7,0.4-0.9C24.6,0.1,25,0,25.3,0L25.3,0z"/>
</g>
</svg>
