<?xml version="1.0" encoding="utf-8"?>
<!-- Generator: Adobe Illustrator 23.0.4, SVG Export Plug-In . SVG Version: 6.00 Build 0)  -->
<svg version="1.1" id="圖層_1" xmlns="http://www.w3.org/2000/svg" xmlns:xlink="http://www.w3.org/1999/xlink" x="0px" y="0px"
	 viewBox="0 0 12 12" style="enable-background:new 0 0 12 12;" xml:space="preserve">
<style type="text/css">
	.st0{fill-rule:evenodd;clip-rule:evenodd;fill:#00A1DB;}
</style>
<title>Event Widget Indicators/information</title>
<desc>Created with Sketch.</desc>
<path id="information" class="st0" d="M6,0c3.3,0,6,2.7,6,6s-2.7,6-6,6S0,9.3,0,6S2.7,0,6,0z M6.9,8.9c0.4-0.5,0.5-0.7,0.5-0.8
	S7.3,7.9,7.2,7.8L7,7.7L6.9,7.9C6.6,8.5,6.4,8.6,6.3,8.7l0,0c0-0.1,0-0.2,0.1-0.6l0.3-1.8c0-0.1,0-0.2,0-0.2V5.8c0-0.2,0-0.3,0-0.4
	c0-0.6-0.4-0.7-0.5-0.7c-0.3,0-0.6,0.2-1,0.5C4.8,5.5,4.6,5.8,4.6,6c0,0.1,0.1,0.2,0.2,0.3L5,6.5l0.1-0.2c0.3-0.5,0.5-0.7,0.6-0.7
	c0,0,0,0,0,0.1s0,0.2,0,0.3L5.4,7.8C5.3,8.5,5.3,8.9,5.3,9c0,0.6,0.4,0.6,0.5,0.6C6.1,9.6,6.5,9.4,6.9,8.9z M6.2,2.4
	c-0.4,0-0.8,0.4-0.8,0.8S5.8,4,6.2,4C6.7,3.9,7,3.6,7,3.2S6.7,2.4,6.2,2.4z"/>
</svg>
