<svg width="10" height="10" viewBox="0 0 10 10" fill="none" xmlns="http://www.w3.org/2000/svg">
<path fill-rule="evenodd" clip-rule="evenodd" d="M3.56703 4.7874C3.41038 4.6464 3.25918 4.51098 3.11093 4.37818L3.11085 4.37811L3.11048 4.37778L3.11047 4.37777L3.11046 4.37776C2.88321 4.17421 2.66288 3.97685 2.44041 3.77513C2.29059 3.63962 2.14044 3.5041 1.99019 3.3685L1.99018 3.36849C1.51987 2.94403 1.04863 2.51873 0.584108 2.09002C0.514059 2.02452 0.44401 1.92925 0.432335 1.83993C0.385636 1.45091 0.344125 1.06188 0.302615 0.672856C0.281859 0.478343 0.261104 0.28383 0.2397 0.0893171C0.2397 0.0714537 0.245538 0.0476358 0.257213 0L0.316067 0.00571031C0.542445 0.0276607 0.772976 0.0500138 0.998565 0.0774081C1.06262 0.0844084 1.12667 0.09118 1.19068 0.0979471C1.45334 0.125716 1.71526 0.153408 1.97341 0.196498C2.07265 0.214361 2.19524 0.267951 2.25945 0.345359C2.66514 0.806823 3.06646 1.27275 3.46777 1.73868L3.46778 1.73869L3.46779 1.73871C3.86912 2.20464 4.27044 2.67058 4.67614 3.13205C4.79289 3.26305 4.78705 3.34641 4.67614 3.47146C4.46746 3.70299 4.26337 3.94155 4.05956 4.1798C3.9384 4.32143 3.81733 4.46294 3.69545 4.60281C3.66115 4.64279 3.62685 4.69116 3.5891 4.74441L3.56703 4.77549V4.7874ZM3.48533 7.40143C3.37637 7.2883 3.26871 7.17584 3.16104 7.06337C2.9457 6.83842 2.73036 6.61346 2.50465 6.38322C2.57927 6.29622 2.65511 6.2055 2.73217 6.11333L2.73225 6.11323L2.73229 6.11318L2.73231 6.11317C2.82398 6.00351 2.91738 5.89178 3.0125 5.78182C4.57109 3.97761 6.12385 2.17936 7.6766 0.375159C7.77583 0.256069 7.88091 0.208433 8.03268 0.19057C8.41724 0.154499 8.79846 0.108185 9.17886 0.0619697L9.17891 0.0619636L9.17892 0.0619627L9.17894 0.0619608C9.30087 0.047147 9.42272 0.0323433 9.54457 0.0178904C9.57928 0.0178904 9.61143 0.0152921 9.65451 0.0118118L9.65451 0.0118116C9.67664 0.0100234 9.70165 0.00800242 9.73137 0.00598145C9.71736 0.172707 9.70335 0.324189 9.68934 0.475671L9.67883 0.58952C9.66473 0.721085 9.64992 0.851941 9.63514 0.982578C9.60712 1.23034 9.57918 1.4773 9.55625 1.72682C9.53873 1.89355 9.48036 2.01264 9.35777 2.13173C7.45478 3.84662 5.55178 5.5615 3.64878 7.28235C3.61765 7.31013 3.58133 7.33792 3.545 7.36571C3.52684 7.3796 3.50868 7.3935 3.49117 7.40739L3.48533 7.40143ZM4.30259 8.65183L1.27297 5.57932L1.26713 5.57336C1.2488 5.66269 1.23189 5.75057 1.21517 5.83751C1.18395 5.99975 1.15337 6.15871 1.11536 6.31767C1.08033 6.44867 1.10952 6.53203 1.20292 6.62731L1.44678 6.87363C2.0132 7.44554 2.57793 8.01576 3.12927 8.60419C3.31023 8.79473 3.47951 8.86023 3.72468 8.78282C3.83682 8.75065 3.95107 8.72706 4.06742 8.70304L4.06749 8.70302C4.14493 8.68704 4.22329 8.67086 4.30259 8.65183ZM8.75878 5.89788L8.75882 5.89812C8.79284 6.0707 8.82658 6.24184 8.85576 6.41297C8.86159 6.46061 8.83824 6.53802 8.80322 6.57374C8.44714 6.93994 8.09105 7.30465 7.73497 7.66936C7.37889 8.03408 7.02281 8.39879 6.66672 8.76499C6.63754 8.79476 6.585 8.83644 6.54998 8.83049C6.25812 8.7769 5.96627 8.71736 5.67442 8.65782L5.67441 8.65782L5.67439 8.65781L5.67438 8.65781L5.67436 8.65781C6.67284 7.63931 7.6544 6.64382 8.6523 5.63176L8.65284 5.63122L8.70398 5.57935L8.69814 5.5853C8.71782 5.69009 8.73831 5.79404 8.7587 5.89748L8.75874 5.89771L8.75878 5.89788ZM6.3982 5.13275C5.98375 5.50193 5.59264 5.85324 5.17234 6.23433H5.17818C5.54594 6.56778 5.89035 6.87741 6.23475 7.18704C6.48576 7.41331 6.4916 7.41331 6.73677 7.16323C6.90347 6.99714 7.06759 6.82843 7.23426 6.6571C7.31857 6.57044 7.40352 6.4831 7.4898 6.3951C7.1162 5.96638 6.76596 5.56147 6.3982 5.13275ZM8.28368 7.53839C8.38777 7.65706 8.49472 7.77646 8.60278 7.8971C8.80376 8.12149 9.00858 8.35016 9.20599 8.58638C9.3169 8.71738 9.41614 8.77097 9.57375 8.65783C9.6438 8.6102 9.76638 8.60424 9.85395 8.62806C10.0057 8.66974 10.0466 8.81265 9.94151 8.92578C9.62045 9.27114 9.28772 9.60459 8.94915 9.93804C8.8324 10.0512 8.6923 10.0035 8.66311 9.84277C8.6456 9.74155 8.65144 9.61055 8.70397 9.53314C8.79737 9.38428 8.75651 9.30091 8.6456 9.19969C8.34215 8.92587 8.0387 8.64609 7.73524 8.36632L7.73496 8.36606C7.68908 8.32446 7.63428 8.28739 7.57447 8.24693L7.57446 8.24693L7.54817 8.22911C7.71521 8.07008 7.86573 7.9279 8.01623 7.78573L8.01661 7.78538L8.01708 7.78494C8.10297 7.7038 8.18887 7.62267 8.27784 7.53839H8.28368ZM1.70788 7.54126C1.70689 7.5403 1.7059 7.53934 1.70492 7.53838H1.71075C1.70982 7.53933 1.70886 7.54029 1.70788 7.54126ZM1.80911 7.63943C1.77576 7.6071 1.74206 7.57442 1.70788 7.54126C1.70008 7.54893 1.69062 7.55723 1.68024 7.56633C1.65907 7.58489 1.63408 7.6068 1.61152 7.63365L1.61148 7.63369C1.31962 7.96117 1.02776 8.28866 0.741742 8.6221C0.65418 8.71737 0.572457 8.77691 0.449871 8.68164C0.403171 8.64591 0.333122 8.60423 0.286423 8.61019C0.187187 8.62805 0.0704386 8.65187 0.0120644 8.72332C-0.0229601 8.75905 0.0237393 8.91982 0.0821135 8.97936C0.373984 9.3009 0.67753 9.60458 0.986913 9.90826C1.03361 9.9559 1.14452 10.0035 1.19122 9.97971C1.25543 9.94994 1.30213 9.85467 1.31965 9.77726C1.33132 9.70581 1.31381 9.60458 1.27295 9.54504C1.1562 9.39618 1.21457 9.3009 1.33132 9.19968C1.52253 9.03123 1.71051 8.85618 1.89765 8.68191C1.9619 8.62208 2.02604 8.56235 2.09019 8.50301C2.18942 8.40773 2.28866 8.31246 2.39373 8.21124C2.19457 8.01316 2.00815 7.83241 1.80911 7.63943Z" fill="white" fill-opacity="0.64"/>
</svg>
