<svg xmlns="http://www.w3.org/2000/svg" width="24" height="24" viewBox="0 0 24 24">
    <path fill="#000" fill-opacity=".56" fill-rule="nonzero" d="M12 0c6.617 0 12 5.383 12 12s-5.383 12-12 12S0 18.617 0 12 5.383 0 12 0zm0 22.588c5.84 0 10.588-4.749 10.588-10.588C22.588 6.16 17.84 1.412 12 1.412 6.16 1.412 1.412 6.16 1.412 12c0 5.84 4.749 10.588 10.588 10.588zm5.12-14.38a.706.706 0 0 1 .997.997l-7.541 7.542a.702.702 0 0 1-.499.206h-.004a.708.708 0 0 1-.501-.212l-3.695-3.77a.706.706 0 0 1 1.01-.987l3.196 3.26 7.036-7.037z"/>
</svg>
