<svg width="16" height="16" viewBox="0 0 16 16" fill="none" xmlns="http://www.w3.org/2000/svg">
<g clip-path="url(#clip0_15482_60588)">
<circle cx="8" cy="8" r="8" fill="#19805C"/>
<path d="M7.45378 8.86502C7.8532 8.37967 8.23801 7.9117 8.62281 7.4428C9.19681 6.74449 9.76533 6.04252 10.3457 5.3497C10.7863 4.82414 11.5979 4.90457 11.8941 5.4996C12.0796 5.8716 12.0147 6.21893 11.7515 6.53792C11.1373 7.28102 10.5258 8.02686 9.91249 8.77179C9.36682 9.43445 8.82389 10.0989 8.27457 10.758C7.88245 11.2278 7.32216 11.268 6.8752 10.8558C6.02059 10.0679 5.17055 9.27541 4.32326 8.48022C3.92018 8.10181 3.89275 7.5342 4.24831 7.15763C4.59381 6.79202 5.19066 6.78014 5.58369 7.14026C6.14307 7.65394 6.69697 8.17402 7.25269 8.69135C7.3121 8.7462 7.37517 8.79829 7.45286 8.86502H7.45378Z" fill="white"/>
</g>
<defs>
<clipPath id="clip0_15482_60588">
<rect width="16" height="16" fill="white"/>
</clipPath>
</defs>
</svg>
