<svg xmlns="http://www.w3.org/2000/svg" width="24" height="24" viewBox="0 0 24 24">
    <path fill="#E76565" fill-rule="evenodd" d="M12 0c6.617 0 12 5.383 12 12s-5.383 12-12 12S0 18.617 0 12 5.383 0 12 0zm1.824 17.734c.8-.974.91-1.343.91-1.577 0-.229-.145-.432-.43-.602l-.335-.2-.168.353c-.555 1.175-.976 1.487-1.203 1.56v-.035c0-.127.02-.432.12-1.154l.528-3.648.064-.463.084-.641c.054-.417.08-.693.08-.826 0-1.213-.747-1.345-1.069-1.345-.523 0-1.16.352-1.95 1.075-.811.742-1.19 1.323-1.19 1.825 0 .213.1.412.3.589l.34.3.211-.4c.574-1.1.978-1.369 1.185-1.427.003.027.006.063.006.108 0 .14-.016.31-.046.51l-.542 3.774c-.194 1.367-.29 2.169-.29 2.448 0 1.155.735 1.28 1.051 1.28.755 0 1.522-.492 2.344-1.504zM12.438 4.762a1.568 1.568 0 1 0 1.568 1.568 1.57 1.57 0 0 0-1.568-1.568z"/>
</svg>
