<svg width="12" height="12" viewBox="0 0 12 12" fill="none" xmlns="http://www.w3.org/2000/svg">
<rect width="12" height="12" rx="1" fill="#9D7C62"/>
<path fill-rule="evenodd" clip-rule="evenodd" d="M7.42712 2.69822C7.36768 2.75718 7.33424 2.83744 7.33424 2.92116V6.70056C7.33424 6.74982 7.27053 6.76939 7.24287 6.72864L4.61874 2.8619C4.59276 2.8221 4.56612 2.78611 4.53921 2.75524C4.50201 2.71255 4.46211 2.67984 4.41406 2.65672C4.37968 2.63811 4.33634 2.62462 4.2882 2.61673C4.24917 2.61033 4.20625 2.60714 4.15863 2.60714H3.93288C3.7739 2.60714 3.62136 2.66996 3.50849 2.78192C3.50306 2.78731 3.5 2.79465 3.5 2.8023V8.97097C3.5 9.12373 3.56101 9.27017 3.66946 9.37775C3.67922 9.38743 3.6924 9.39286 3.70614 9.39286H4.35563C4.43847 9.39286 4.51795 9.36012 4.57677 9.30178C4.63621 9.24282 4.66964 9.16256 4.66964 9.07884V5.295C4.66964 5.24574 4.73336 5.22617 4.76102 5.26692L7.38204 9.12919C7.43992 9.21578 7.50648 9.28289 7.58295 9.32607C7.65949 9.3714 7.7506 9.39286 7.8538 9.39286H8.18598C8.26882 9.39286 8.34831 9.36012 8.40712 9.30178C8.46657 9.24282 8.5 9.16256 8.5 9.07884V2.92116C8.5 2.83744 8.46657 2.75718 8.40712 2.69822C8.34831 2.63988 8.26882 2.60714 8.18598 2.60714H7.64826C7.56542 2.60714 7.48593 2.63988 7.42712 2.69822Z" fill="white"/>
</svg>
