<svg width="16" height="16" viewBox="0 0 16 16" fill="none" xmlns="http://www.w3.org/2000/svg">
<g clip-path="url(#clip0_599_720)">
<path fill-rule="evenodd" clip-rule="evenodd" d="M7.63725 0.133498C7.84479 -0.0408168 8.15781 -0.0454182 8.36745 0.12636C8.917 0.576658 10.0401 1.40887 11.4469 1.97804C12.9329 2.57923 14.7275 2.8837 15.5669 3.00209C15.833 3.03962 16.0276 3.27261 15.9972 3.53968C15.8592 4.75452 15.3532 8.05343 13.7451 10.6558C12.0456 13.406 9.11246 15.383 8.24691 15.9281C8.09495 16.0238 7.90439 16.0238 7.75239 15.9282C6.88701 15.3836 3.95532 13.4086 2.2543 10.6558C0.648182 8.0567 0.141811 4.76832 0.00288672 3.5476C-0.0278705 3.27734 0.171625 3.04235 0.441289 3.00673C1.26069 2.89849 2.9832 2.61292 4.55245 1.97804C6.03628 1.37773 7.11175 0.574888 7.63725 0.133498ZM7.85187 9.63853C7.98585 9.57604 8.1406 9.57604 8.27458 9.63853L9.68013 10.2941C10.0502 10.4667 10.4599 10.147 10.3824 9.74606L10.1449 8.51748C10.1109 8.34183 10.1734 8.16141 10.3087 8.04438L11.2712 7.21201C11.5981 6.92935 11.4367 6.39316 11.0081 6.33791L9.56615 6.15202C9.40873 6.13173 9.2703 6.0379 9.19314 5.89919L8.50017 4.6535C8.30959 4.31092 7.81686 4.31092 7.62628 4.6535L6.93331 5.89919C6.85615 6.0379 6.71772 6.13173 6.5603 6.15202L5.11833 6.33791C4.68976 6.39316 4.52835 6.92935 4.8552 7.21201L5.81772 8.04438C5.95305 8.16141 6.01553 8.34183 5.98157 8.51748L5.74406 9.74606C5.66656 10.147 6.07627 10.4667 6.44632 10.2941L7.85187 9.63853Z" fill="white"/>
</g>
<defs>
<clipPath id="clip0_599_720">
<rect width="16" height="16" fill="white"/>
</clipPath>
</defs>
</svg>
