<svg width="16" height="16" viewBox="0 0 16 16" fill="none" xmlns="http://www.w3.org/2000/svg">
<g clip-path="url(#clip0_577_449)">
<path fill-rule="evenodd" clip-rule="evenodd" d="M11.4023 2.84124C11.9452 2.69383 12.1196 2.80698 12.1196 2.80698L13.0082 3.45578L12.6325 5.9503L9.31785 3.42153C9.31785 3.42153 10.8594 2.98761 11.4023 2.8402V2.84124ZM4.61117 13.5179C4.61117 13.5179 4.33504 13.7484 3.8596 13.4152C3.38416 13.0819 2.62947 12.4923 2.62947 12.4923C2.62947 12.4923 2.3523 12.32 2.49244 11.9452C2.63258 11.5705 3.58554 9.48498 3.58554 9.48498L6.90015 12.7311L4.61117 13.5169V13.5179ZM12.8961 13.029C11.6951 13.1972 10.9352 12.6968 10.9352 12.6968L2.36683 3.64575H2.33673C2.33673 3.64575 2.36476 3.62188 2.90975 3.37378C3.45475 3.12671 3.84507 3.43398 3.84507 3.43398L13.8003 10.1618C13.8003 10.1618 13.4432 11.9525 12.8951 13.028L12.8961 13.029ZM0 0V16H16V0H0ZM11.936 3.37207C11.936 3.37207 11.8534 3.31844 11.596 3.38831V3.38781C11.3387 3.45768 10.6081 3.66334 10.6081 3.66334L12.1791 4.86187L12.3572 3.67957L11.936 3.37207ZM4.09062 12.5858C4.31596 12.7437 4.44684 12.6345 4.44684 12.6345V12.634L5.53172 12.2616L3.96073 10.723C3.96073 10.723 3.50907 11.7115 3.44265 11.8891C3.37623 12.0667 3.5076 12.1484 3.5076 12.1484C3.5076 12.1484 3.86529 12.4279 4.09062 12.5858ZM11.2497 11.6315C11.2497 11.6315 11.6098 11.8686 12.1791 11.7889L12.1786 11.7884C12.4383 11.2787 12.6076 10.43 12.6076 10.43L3.9509 3.93768C3.9509 3.93768 3.7659 3.79205 3.5076 3.90914C3.24929 4.02673 3.23601 4.03805 3.23601 4.03805H3.25027L11.2497 11.6315Z" fill="white"/>
</g>
<defs>
<clipPath id="clip0_577_449">
<rect width="16" height="16" fill="white"/>
</clipPath>
</defs>
</svg>
