<svg xmlns="http://www.w3.org/2000/svg" width="16" height="16"><path fill="#FFF" d="M11.7 10.7a.3.3 0 0 1-.2 0L9.3 8.3 7 10.6a.3.3 0 0 1-.5 0 .3.3 0 0 1 0-.4L8.8 8 6.6 5.8a.3.3 0 0 1 0-.4.3.3 0 0 1 .5 0l2.2 2.2 2.2-2.2a.3.3 0 0 1 .4 0 .3.3 0 0 1 0 .4L9.7 8l2.2 2.2a.3.3 0 0 1 0 .4.3.3 0 0 1-.2.1zM.7 8 4 13c.3.2.5.4.8.4h9.6c.5 0 1-.5 1-1V3.6a1 1 0 0 0-1-1H4.8c-.3 0-.6.2-.8.5L.7 8zm13.7 6H4.8c-.5 0-.9-.2-1.3-.7L.1 8.2a.3.3 0 0 1 0-.4l3.4-5c.3-.6.8-.8 1.3-.8h9.6c.9 0 1.6.7 1.6 1.6v8.8c0 .9-.7 1.6-1.6 1.6z"/></svg>