<svg width="7" height="11" viewBox="0 0 7 11" fill="none" xmlns="http://www.w3.org/2000/svg">
<path d="M4.24795 0.923512C4.24795 1.19405 4.24723 1.46471 4.24842 1.73525C4.24878 1.8074 4.22809 1.86934 4.17969 1.91595C4.15103 1.94358 4.14366 1.97265 4.14366 2.01233C4.14402 2.47051 4.12642 2.92961 4.1464 3.38674C4.16947 3.91288 3.61641 4.24444 3.20759 4.01423C3.11067 3.95963 3.02957 3.88564 2.96156 3.79228C2.88438 3.68648 2.85905 3.56391 2.85882 3.43218C2.85775 2.96313 2.85656 2.49395 2.85668 2.0249C2.85668 1.97933 2.85097 1.94332 2.81648 1.91071C2.76737 1.86423 2.75191 1.79993 2.75203 1.72818C2.75299 1.18698 2.75251 0.645906 2.75251 0.104706C2.75251 0.0164479 2.73289 -0.013146 2.65464 0.00518651C2.52206 0.0362207 2.38852 0.071969 2.26283 0.126312C1.9011 0.282923 1.55697 0.478557 1.23947 0.728009C1.23139 0.734295 1.22401 0.741759 1.21569 0.747651C1.11414 0.819148 1.0787 0.915655 1.08726 1.05184C1.11354 1.46956 1.12199 1.88858 1.14862 2.30617C1.18061 2.80848 1.21676 3.31066 1.26421 3.8114C1.32093 4.4093 1.39073 5.00563 1.45684 5.60248C1.47266 5.74508 1.49359 5.88703 1.51677 6.02845C1.52391 6.07218 1.54603 6.11304 1.56137 6.15507C1.7257 6.605 1.91822 7.03843 2.18661 7.42617C2.37342 7.69592 2.58734 7.93555 2.86702 8.08692C3.39868 8.37461 3.90263 8.30377 4.37257 7.91826C4.65843 7.68374 4.8745 7.3785 5.0449 7.03843C5.18402 6.76083 5.29782 6.4679 5.42708 6.18414C5.51282 5.99584 5.51615 5.78921 5.54326 5.58873C5.59166 5.23125 5.63304 4.87245 5.67133 4.5134C5.70522 4.19533 5.73352 3.87635 5.75956 3.55736C5.79262 3.15143 5.82425 2.7451 5.85041 2.33852C5.87181 2.00565 5.88513 1.67226 5.90071 1.339C5.90642 1.21696 5.90594 1.09466 5.91331 0.972748C5.91759 0.902168 5.89488 0.848349 5.84732 0.807232C5.77419 0.744116 5.70165 0.679166 5.62329 0.624562C5.28795 0.391216 4.93645 0.192832 4.55926 0.0541604C4.48875 0.028233 4.41359 0.0131742 4.33951 0.00387705C4.26567 -0.00542013 4.24807 0.0181502 4.24807 0.0986821C4.24795 0.373669 4.24807 0.648525 4.24807 0.923512H4.24795ZM3.52936 7.51351C3.5296 7.51757 3.52972 7.52163 3.52996 7.52582C3.62104 7.52582 3.71284 7.51835 3.80322 7.52791C3.89276 7.53734 3.98539 7.55083 4.06827 7.58644C4.17161 7.63084 4.18076 7.74057 4.09645 7.82005C4.0609 7.85357 4.01999 7.88723 3.97623 7.90176C3.85756 7.94092 3.7377 7.98269 3.61557 8.0001C3.40831 8.02957 3.20438 7.99735 3.01281 7.90124C2.96382 7.87662 2.91589 7.83917 2.87986 7.7953C2.81946 7.72184 2.83872 7.63411 2.91982 7.59103C2.95668 7.57152 2.99783 7.55541 3.03814 7.55161C3.20164 7.53603 3.3655 7.52595 3.52936 7.51377V7.51351ZM2.47544 0.389252C2.50874 0.414655 2.54501 0.437178 2.57414 0.46795C2.58246 0.476724 2.57676 0.517317 2.56534 0.52884C2.55428 0.539971 2.52741 0.535387 2.50814 0.532769C2.47556 0.528316 2.4412 0.508151 2.41147 0.51496C2.17531 0.569172 1.9602 0.685059 1.7483 0.805922C1.62772 0.874669 1.51333 0.957296 1.39858 1.03783C1.36373 1.06218 1.32663 1.09125 1.33294 1.15175C1.33436 1.16537 1.30475 1.1968 1.29274 1.19496C1.27419 1.19208 1.24268 1.16511 1.24435 1.15241C1.24994 1.10762 1.25671 1.05393 1.2824 1.02316C1.32973 0.9662 1.38716 0.916572 1.44674 0.875193C1.68289 0.711117 1.93439 0.579909 2.19683 0.475414C2.2834 0.440975 2.37449 0.420024 2.47556 0.389252H2.47544ZM5.75468 1.13041C5.72924 1.15647 5.7108 1.19103 5.68774 1.19536C5.65373 1.20177 5.63958 1.17139 5.64231 1.13041C5.6435 1.11273 5.6303 1.0889 5.6171 1.07593C5.58036 1.03979 5.54219 1.00444 5.50093 0.974974C5.28272 0.819802 5.04906 0.697761 4.80719 0.595099C4.72645 0.560791 4.64238 0.534864 4.55831 0.512603C4.5325 0.505794 4.50147 0.525043 4.47245 0.530019C4.45307 0.533292 4.42346 0.541542 4.41561 0.531459C4.40372 0.516138 4.3973 0.48039 4.40586 0.464808C4.41871 0.44163 4.44546 0.415965 4.46817 0.413608C4.51824 0.408501 4.57163 0.408239 4.61991 0.422119C4.93015 0.511424 5.21387 0.669345 5.48903 0.846123C5.56169 0.89287 5.62745 0.954284 5.69118 1.01557C5.71723 1.04071 5.72959 1.08314 5.75492 1.13028L5.75468 1.13041ZM2.53692 9.88651C2.53312 9.87787 2.53003 9.86884 2.52563 9.86059C2.3406 9.51633 2.1985 9.15047 2.08517 8.77138C1.89587 8.13799 1.759 7.48981 1.64496 6.83547C1.6282 6.73922 1.6125 6.64272 1.59633 6.54634C1.66874 6.68383 1.73058 6.8246 1.79943 6.96118C1.99599 7.35087 2.2268 7.71137 2.54988 7.98897C2.93254 8.31778 3.36134 8.44074 3.83841 8.32105C4.16744 8.23856 4.43488 8.03598 4.66688 7.77344C4.95464 7.4479 5.16321 7.06331 5.34194 6.65738C5.35966 6.61718 5.37702 6.57685 5.40092 6.52224C5.40092 6.55066 5.4027 6.56179 5.40068 6.57214C5.29069 7.11556 5.18914 7.66135 5.06761 8.20163C4.93954 8.77138 4.7601 9.32187 4.49041 9.83217C4.48791 9.83675 4.48886 9.84356 4.48613 9.867C4.51015 9.82955 4.52573 9.80598 4.54059 9.78189C4.85904 9.26177 5.08842 8.69425 5.27119 8.1029C5.35835 7.82084 5.43433 7.53498 5.57857 7.27833C5.71259 7.04001 5.86527 6.82237 6.08906 6.67873C6.26113 6.56808 6.44687 6.51557 6.64141 6.58431C6.89481 6.67388 7.05879 6.84555 6.98019 7.19413C6.90575 7.52477 6.80789 7.84559 6.68505 8.15724C6.41393 8.84471 6.06493 9.47691 5.57762 10.0069C5.07534 10.553 4.4866 10.9108 3.77278 10.9853C3.24623 11.0401 2.74347 10.9457 2.26925 10.6845C1.80585 10.4293 1.4314 10.0598 1.1076 9.61585C0.594849 8.9128 0.256663 8.11743 0.0342975 7.25646C0.00730467 7.15183 -0.0151696 7.0442 0.0127745 6.93473C0.0743709 6.69379 0.350009 6.52251 0.60234 6.56048C0.841235 6.59649 1.02614 6.73281 1.18204 6.92504C1.42438 7.22359 1.56577 7.58291 1.68004 7.95597C1.83201 8.45187 2.00645 8.93676 2.24095 9.39298C2.32906 9.56425 2.42776 9.72872 2.5217 9.89633C2.5267 9.89319 2.53169 9.89005 2.53668 9.88678L2.53692 9.88651ZM0.0584364 6.47118C0.169144 5.8628 0.324562 5.26726 0.48771 4.67394C0.55002 4.44714 0.631236 4.22506 0.675471 3.9942C0.716496 3.78023 0.727912 3.55802 0.738139 3.33868C0.760256 2.86387 0.771909 2.38841 0.790698 1.91346C0.798783 1.7088 0.813053 1.50426 0.82649 1.29985C0.829938 1.24695 0.840878 1.19457 0.84837 1.14206C0.887729 1.65092 0.917814 2.15781 0.956342 2.66392C0.994869 3.16989 1.03685 3.67561 1.08643 4.1804C1.13626 4.68703 1.18929 5.19367 1.25564 5.69794C1.32116 6.19671 1.405 6.69248 1.48134 7.19269C1.38395 7.01513 1.27289 6.85197 1.13114 6.71631C0.981076 6.57279 0.810912 6.47445 0.611378 6.45245C0.390796 6.42823 0.196969 6.49894 0.0258546 6.6693C0.0366755 6.6033 0.0465455 6.53704 0.0585556 6.47131L0.0584364 6.47118ZM6.16255 1.2184C6.17861 1.45751 6.19811 1.69662 6.20845 1.93612C6.23188 2.47653 6.24698 3.01734 6.27338 3.55762C6.28158 3.72615 6.29906 3.89822 6.33997 4.0602C6.47077 4.57756 6.6206 5.08904 6.75129 5.60641C6.83845 5.95158 6.90563 6.30304 6.98233 6.65424C6.9658 6.65555 6.96354 6.6566 6.96224 6.65568C6.9557 6.65123 6.9488 6.64717 6.94297 6.64167C6.74558 6.45455 6.51834 6.40989 6.27052 6.47641C6.02937 6.5411 5.84589 6.70387 5.69011 6.90801C5.62769 6.98985 5.57322 7.0789 5.51377 7.16637C5.87597 5.17507 6.01665 3.15942 6.15007 1.14245C6.15435 1.16786 6.16089 1.193 6.16255 1.21866V1.2184ZM3.02482 2.14498C3.02589 1.85297 3.23648 1.61949 3.49821 1.61884C3.75934 1.61831 3.97267 1.85087 3.97409 2.14275C3.97588 2.51988 3.976 2.897 3.97409 3.27413C3.97255 3.56666 3.75969 3.79699 3.49726 3.79542C3.23339 3.79385 3.02565 3.56312 3.02482 3.26967C3.02434 3.08216 3.02482 2.89464 3.02482 2.70726C3.02482 2.51988 3.02422 2.33223 3.02494 2.14485L3.02482 2.14498Z" fill="white"/>
</svg>
