<svg xmlns="http://www.w3.org/2000/svg" xml:space="preserve" id="Layer_1" width="80" height="16" x="0" y="0" style="enable-background:new 0 0 80 16" version="1.1"><style>.st1,.st2{fill-rule:evenodd;clip-rule:evenodd;fill:#106031}.st2{fill:#ecf5ee}</style><g id="Icons"><g id="match_tracker_rugby_normal"><path id="Fill-1" d="M14.3 15.6H1.7C1 15.6.4 15 .4 14.3V1.7C.4 1 1 .4 1.7.4h12.6c.7 0 1.3.6 1.3 1.3v12.6c0 .7-.6 1.3-1.3 1.3" style="fill-rule:evenodd;clip-rule:evenodd;fill:#5dba48"/><path id="Fill-3" d="M1.7.8c-.5 0-.9.4-.9.9v12.6c0 .5.4.9.9.9h12.6c.5 0 .9-.4.9-.9V1.7c0-.5-.4-.9-.9-.9H1.7zM14.3 16H1.7C.8 16 0 15.2 0 14.3V1.7C0 .8.8 0 1.7 0h12.6c.9 0 1.7.8 1.7 1.7v12.6c0 .9-.8 1.7-1.7 1.7z" class="st1"/><path id="Fill-6" d="M3.7 15.3h1.7V.7H3.7v14.6zm2 .6H3.4c-.2 0-.3-.1-.3-.3V.4c0-.2.1-.3.3-.3h2.3c.2 0 .3.1.3.3v15.2c0 .2-.1.3-.3.3z" class="st2"/><path id="Fill-8" d="M6 15.3h1.7V.7H6v14.6zm2 .6H5.7c-.2 0-.3-.1-.3-.3V.4c0-.2.1-.3.3-.3H8c.2 0 .3.1.3.3v15.2c0 .2-.1.3-.3.3z" class="st2"/><path id="Fill-9" d="M8.3 15.3H10V.7H8.3v14.6zm2 .6H8c-.2 0-.3-.1-.3-.3V.4c0-.2.1-.3.3-.3h2.3c.2 0 .3.1.3.3v15.2c0 .2-.1.3-.3.3z" class="st2"/><path id="Fill-10" d="M10.6 15.3h1.7V.7h-1.7v14.6zm2 .6h-2.3c-.2 0-.3-.1-.3-.3V.4c0-.2.1-.3.3-.3h2.3c.2 0 .3.1.3.3v15.2c0 .2-.1.3-.3.3z" class="st2"/><path id="Fill-11" d="M4.5 1.9c-.1 0-.2-.1-.2-.2V.4c0-.1.1-.2.2-.2s.2.1.2.2v1.3c0 .1-.1.2-.2.2" class="st2"/><path id="Fill-12" d="M6.8 1.9c-.1 0-.2-.1-.2-.2V.4c0-.1.1-.2.2-.2.2 0 .2.1.2.2v1.3c0 .1 0 .2-.2.2" class="st2"/><path id="Fill-13" d="M9.2 1.9c-.2 0-.2-.1-.2-.2V.4c0-.1 0-.2.2-.2.1 0 .2.1.2.2v1.3c-.1.1-.1.2-.2.2" class="st2"/><path id="Fill-14" d="M11.5 1.9c-.1 0-.2-.1-.2-.2V.4c0-.1.1-.2.2-.2s.2.1.2.2v1.3c0 .1-.1.2-.2.2" class="st2"/><path id="Fill-15" d="M4.5 6.5c-.1 0-.2-.1-.2-.2v-.6c0-.1.1-.2.2-.2s.2.1.2.2v.7s-.1.1-.2.1" class="st2"/><path id="Fill-16" d="M6.8 6.5c-.1 0-.2-.1-.2-.2v-.6c0-.1.1-.2.2-.2.2 0 .2.1.2.2v.7s0 .1-.2.1" class="st2"/><path id="Fill-17" d="M9.2 6.5c-.2 0-.2-.1-.2-.2v-.6c0-.1 0-.2.2-.2.1 0 .2.1.2.2v.7c-.1 0-.1.1-.2.1" class="st2"/><path id="Fill-18" d="M11.5 6.5c-.1 0-.2-.1-.2-.2v-.6c0-.1.1-.2.2-.2s.2.1.2.2v.7s-.1.1-.2.1" class="st2"/><path id="Fill-19" d="M4.5 10.5c-.1 0-.2-.1-.2-.2v-.7c0-.1.1-.2.2-.2s.2.1.2.2v.7c0 .1-.1.2-.2.2" class="st2"/><path id="Fill-20" d="M6.8 10.5c-.1 0-.2-.1-.2-.2v-.7c0-.1.1-.2.2-.2.2 0 .2.1.2.2v.7c0 .1 0 .2-.2.2" class="st2"/><path id="Fill-21" d="M9.2 10.5c-.2 0-.2-.1-.2-.2v-.7c0-.1 0-.2.2-.2.1 0 .2.1.2.2v.7c-.1.1-.1.2-.2.2" class="st2"/><path id="Fill-22" d="M11.5 10.5c-.1 0-.2-.1-.2-.2v-.7c0-.1.1-.2.2-.2s.2.1.2.2v.7c0 .1-.1.2-.2.2" class="st2"/><path id="Fill-23" d="M1.6 6.3H.4C.2 6.3.1 6.2.1 6c0-.2.1-.3.3-.3h1.2c.2 0 .3.1.3.3 0 .2-.2.3-.3.3" class="st2"/><path id="Fill-24" d="M1.6 10.3H.4c-.2 0-.3-.1-.3-.3s.1-.3.3-.3h1.2c.2 0 .3.1.3.3s-.2.3-.3.3" class="st2"/><path id="Fill-25" d="M4.5 15.8c-.1 0-.2-.1-.2-.2v-1.3c0-.1.1-.2.2-.2s.2.1.2.2v1.3c0 .1-.1.2-.2.2" class="st2"/><path id="Fill-26" d="M6.8 15.8c-.1 0-.2-.1-.2-.2v-1.3c0-.1.1-.2.2-.2.2 0 .2.1.2.2v1.3c0 .1 0 .2-.2.2" class="st2"/><path id="Fill-27" d="M9.2 15.8c-.2 0-.2-.1-.2-.2v-1.3c0-.1.1-.2.2-.2s.2.1.2.2v1.3c-.1.1-.1.2-.2.2" class="st2"/><path id="Fill-28" d="M11.5 15.7c-.1 0-.2-.1-.2-.2v-1.1c0-.1.1-.2.2-.2s.2.1.2.2v1.1c0 .1-.1.2-.2.2" class="st2"/><path id="Fill-29" d="M15.6 6.3h-1.2c-.2 0-.3-.1-.3-.3 0-.2.1-.3.3-.3h1.2c.2 0 .3.1.3.3 0 .2-.1.3-.3.3" class="st2"/><path id="Fill-30" d="M15.6 10.3h-1.2c-.2 0-.3-.1-.3-.3s.1-.3.3-.3h1.2c.2 0 .3.1.3.3s-.1.3-.3.3" class="st2"/><path id="Fill-31" d="M1.7.8c-.5 0-.9.4-.9.9v12.6c0 .5.4.9.9.9h12.6c.5 0 .9-.4.9-.9V1.7c0-.5-.4-.9-.9-.9H1.7zM14.3 16H1.7C.8 16 0 15.2 0 14.3V1.7C0 .8.8 0 1.7 0h12.6c.9 0 1.7.8 1.7 1.7v12.6c0 .9-.8 1.7-1.7 1.7z" style="fill-rule:evenodd;clip-rule:evenodd;fill:#1e8744"/></g></g><g id="Icons_1_"><g id="match_tracker_rugby_active"><path id="Fill-1_1_" d="M46.3 15.6H33.7c-.7 0-1.3-.6-1.3-1.3V1.7c0-.7.6-1.3 1.3-1.3h12.6c.7 0 1.3.6 1.3 1.3v12.6c0 .7-.6 1.3-1.3 1.3" style="fill-rule:evenodd;clip-rule:evenodd;fill:#91e070"/><path id="Fill-3_1_" d="M33.7.8c-.5 0-.9.4-.9.9v12.6c0 .5.4.9.9.9h12.6c.5 0 .9-.4.9-.9V1.7c0-.5-.4-.9-.9-.9H33.7zM46.3 16H33.7c-.9 0-1.7-.8-1.7-1.7V1.7c0-.9.8-1.7 1.7-1.7h12.6c.9 0 1.7.8 1.7 1.7v12.6c0 .9-.8 1.7-1.7 1.7z" class="st1"/><path id="Fill-6_1_" d="M35.7 15.3h1.7V.7h-1.7v14.6zm2 .6h-2.3c-.2 0-.3-.1-.3-.3V.4c0-.2.1-.3.3-.3h2.3c.2 0 .3.1.3.3v15.2c0 .2-.1.3-.3.3z" class="st2"/><path id="Fill-8_1_" d="M38 15.3h1.7V.7H38v14.6zm2 .6h-2.3c-.2 0-.3-.1-.3-.3V.4c0-.2.1-.3.3-.3H40c.2 0 .3.1.3.3v15.2c0 .2-.1.3-.3.3z" class="st2"/><path id="Fill-9_1_" d="M40.3 15.3H42V.7h-1.7v14.6zm2 .6H40c-.2 0-.3-.1-.3-.3V.4c0-.2.1-.3.3-.3h2.3c.2 0 .3.1.3.3v15.2c0 .2-.1.3-.3.3z" class="st2"/><path id="Fill-10_1_" d="M42.6 15.3h1.7V.7h-1.7v14.6zm2 .6h-2.3c-.2 0-.3-.1-.3-.3V.4c0-.2.1-.3.3-.3h2.3c.2 0 .3.1.3.3v15.2c0 .2-.1.3-.3.3z" class="st2"/><path id="Fill-11_1_" d="M36.5 1.9c-.1 0-.2-.1-.2-.2V.4c0-.1.1-.2.2-.2s.2.1.2.2v1.3c0 .1-.1.2-.2.2" class="st2"/><path id="Fill-12_1_" d="M38.8 1.9c-.1 0-.2-.1-.2-.2V.4c0-.1.1-.2.2-.2.2 0 .2.1.2.2v1.3c0 .1 0 .2-.2.2" class="st2"/><path id="Fill-13_1_" d="M41.2 1.9c-.2 0-.2-.1-.2-.2V.4c0-.1.1-.2.2-.2s.2.1.2.2v1.3c-.1.1-.1.2-.2.2" class="st2"/><path id="Fill-14_1_" d="M43.5 1.9c-.1 0-.2-.1-.2-.2V.4c0-.1.1-.2.2-.2s.2.1.2.2v1.3c0 .1-.1.2-.2.2" class="st2"/><path id="Fill-15_1_" d="M36.5 6.5c-.1 0-.2-.1-.2-.2v-.6c0-.1.1-.2.2-.2s.2.1.2.2v.7s-.1.1-.2.1" class="st2"/><path id="Fill-16_1_" d="M38.8 6.5c-.1 0-.2-.1-.2-.2v-.6c0-.1.1-.2.2-.2.2 0 .2.1.2.2v.7s0 .1-.2.1" class="st2"/><path id="Fill-17_1_" d="M41.2 6.5c-.2 0-.2-.1-.2-.2v-.6c0-.1.1-.2.2-.2s.2.1.2.2v.7c-.1 0-.1.1-.2.1" class="st2"/><path id="Fill-18_1_" d="M43.5 6.5c-.1 0-.2-.1-.2-.2v-.6c0-.1.1-.2.2-.2s.2.1.2.2v.7s-.1.1-.2.1" class="st2"/><path id="Fill-19_1_" d="M36.5 10.5c-.1 0-.2-.1-.2-.2v-.7c0-.1.1-.2.2-.2s.2.1.2.2v.7c0 .1-.1.2-.2.2" class="st2"/><path id="Fill-20_1_" d="M38.8 10.5c-.1 0-.2-.1-.2-.2v-.7c0-.1.1-.2.2-.2.2 0 .2.1.2.2v.7c0 .1 0 .2-.2.2" class="st2"/><path id="Fill-21_1_" d="M41.2 10.5c-.1 0-.2-.1-.2-.2v-.7c0-.1.1-.2.2-.2s.2.1.2.2v.7c-.1.1-.1.2-.2.2" class="st2"/><path id="Fill-22_1_" d="M43.5 10.5c-.1 0-.2-.1-.2-.2v-.7c0-.1.1-.2.2-.2s.2.1.2.2v.7c0 .1-.1.2-.2.2" class="st2"/><path id="Fill-23_1_" d="M33.6 6.3h-1.2c-.2 0-.3-.1-.3-.3 0-.2.1-.3.3-.3h1.2c.2 0 .3.1.3.3 0 .2-.2.3-.3.3" class="st2"/><path id="Fill-24_1_" d="M33.6 10.3h-1.2c-.2 0-.3-.1-.3-.3s.1-.3.3-.3h1.2c.2 0 .3.1.3.3s-.2.3-.3.3" class="st2"/><path id="Fill-25_1_" d="M36.5 15.8c-.1 0-.2-.1-.2-.2v-1.3c0-.1.1-.2.2-.2s.2.1.2.2v1.3c0 .1-.1.2-.2.2" class="st2"/><path id="Fill-26_1_" d="M38.8 15.8c-.1 0-.2-.1-.2-.2v-1.3c0-.1.1-.2.2-.2s.2.1.2.2v1.3c0 .1 0 .2-.2.2" class="st2"/><path id="Fill-27_1_" d="M41.2 15.8c-.1 0-.2-.1-.2-.2v-1.3c0-.1.1-.2.2-.2s.2.1.2.2v1.3c-.1.1-.1.2-.2.2" class="st2"/><path id="Fill-28_1_" d="M43.5 15.7c-.1 0-.2-.1-.2-.2v-1.1c0-.1.1-.2.2-.2s.2.1.2.2v1.1c0 .1-.1.2-.2.2" class="st2"/><path id="Fill-29_1_" d="M47.6 6.3h-1.2c-.2 0-.3-.1-.3-.3 0-.2.1-.3.3-.3h1.2c.2 0 .3.1.3.3 0 .2-.1.3-.3.3" class="st2"/><path id="Fill-30_1_" d="M47.6 10.3h-1.2c-.2 0-.3-.1-.3-.3s.1-.3.3-.3h1.2c.2 0 .3.1.3.3s-.1.3-.3.3" class="st2"/><path id="Fill-31_1_" d="M33.7.8c-.5 0-.9.4-.9.9v12.6c0 .5.4.9.9.9h12.6c.5 0 .9-.4.9-.9V1.7c0-.5-.4-.9-.9-.9H33.7zM46.3 16H33.7c-.9 0-1.7-.8-1.7-1.7V1.7c0-.9.8-1.7 1.7-1.7h12.6c.9 0 1.7.8 1.7 1.7v12.6c0 .9-.8 1.7-1.7 1.7z" style="fill-rule:evenodd;clip-rule:evenodd;fill:#2eca6a"/></g></g><path d="M68.1 0v1c0 .1.1.2.2.2s.2-.1.2-.2V0h.7v16h-.7v-1c0-.1-.1-.2-.2-.2s-.2.1-.2.2v1h-.7V0h.7zM73 0v1c0 .1.1.2.2.2s.2-.1.2-.2V0h.7v16h-.7v-1c0-.1-.1-.2-.2-.2s-.2.1-.2.2v1h-.7V0h.7zm-2.4 0v1c0 .1.1.2.2.2s.2-.1.2-.2V0h.7v16H71v-1c0-.1-.1-.2-.2-.2s-.2.1-.2.2v1h-.7V0h.7zm4.8 0v1c0 .1.1.2.2.2s.2-.1.2-.2V0h.7v16h-.7v-1c0-.1-.1-.2-.2-.2s-.2.1-.2.2v1h-.7V0h.7zm-8.6 0v16h-1.5c-.8 0-1.4-.6-1.4-1.4v-4.2h1.2c.2 0 .3-.1.3-.3 0-.2-.1-.3-.3-.3H64V6.2h1.2c.2 0 .3-.1.3-.3 0-.2-.1-.3-.3-.3H64V1.4c0-.8.6-1.4 1.4-1.4h1.4zm11.8 0c.8 0 1.4.6 1.4 1.4v4.2h-1.2c-.2 0-.3.1-.3.3 0 .2.1.3.3.3H80v3.5h-1.2c-.2 0-.3.1-.3.3s.1.3.3.3H80v4.2c0 .8-.6 1.4-1.4 1.4h-1.5V0h1.5zM68.4 9.5c-.1 0-.2.1-.2.2v.7c0 .1.1.2.2.2s.2-.1.2-.2v-.7c0-.1-.1-.2-.2-.2zm4.8 0c-.1 0-.2.1-.2.2v.7c0 .1.1.2.2.2s.2-.1.2-.2v-.7c0-.1-.1-.2-.2-.2zm-2.4 0c-.1 0-.2.1-.2.2v.7c0 .1.1.2.2.2s.2-.1.2-.2v-.7c0-.1-.1-.2-.2-.2zm4.8 0c-.1 0-.2.1-.2.2v.7c0 .1.1.2.2.2s.2-.1.2-.2v-.7c0-.1-.1-.2-.2-.2zm-7.2-4.2c-.1 0-.2.1-.2.2v.7c0 .1.1.2.2.2s.2-.1.2-.2v-.7c0-.1-.1-.2-.2-.2zm4.8 0c-.1 0-.2.1-.2.2v.7c0 .1.1.2.2.2s.2-.1.2-.2v-.7c0-.1-.1-.2-.2-.2zm-2.4 0c-.1 0-.2.1-.2.2v.7c0 .1.1.2.2.2s.2-.1.2-.2v-.7c0-.1-.1-.2-.2-.2zm4.8 0c-.1 0-.2.1-.2.2v.7c0 .1.1.2.2.2s.2-.1.2-.2v-.7c0-.1-.1-.2-.2-.2z" style="fill-rule:evenodd;clip-rule:evenodd;fill-opacity:.64"/></svg>