<?xml version="1.0" encoding="utf-8"?>
<!-- Generator: Adobe Illustrator 23.1.0, SVG Export Plug-In . SVG Version: 6.00 Build 0)  -->
<svg version="1.1" id="圖層_1" xmlns="http://www.w3.org/2000/svg" xmlns:xlink="http://www.w3.org/1999/xlink" x="0px" y="0px"
	 viewBox="0 0 56 112" style="enable-background:new 0 0 56 112;" xml:space="preserve">
<style type="text/css">
	.st0{fill:#FFFFFF;}
	.st1{fill:#F2F2F2;}
	.st2{fill:#FAF3EE;}
	.st3{fill:#E7DFD9;}
	.st4{fill:#B9B4B1;}
	.st5{fill:#DA5F27;}
	.st6{fill:#B0AAA6;}
	.st7{fill:#CDC9C7;}
	.st8{fill:#A59A93;}
	.st9{fill:#635953;}
	.st10{fill:#EFEBE8;}
	.st11{fill:#7A695C;}
	.st12{fill:#503F32;}
</style>
<g>
	<ellipse class="st0" cx="28" cy="27.9" rx="28" ry="27.9"/>
	<path class="st1" d="M56,27.9c0-0.2,0-0.5,0-0.7L41.5,12.8L25.7,25.3L11.8,11.5l-0.7,1.8l2.6,28.9l13.8,13.8c0.2,0,0.3,0,0.5,0
		C43.5,55.9,56,43.4,56,27.9z"/>
	<ellipse class="st2" cx="27.7" cy="27.5" rx="20.2" ry="20.2"/>
	<path class="st3" d="M47.9,27.5c0-11.1-8.9-20-20-20.2v40.4C39,47.6,47.9,38.6,47.9,27.5z"/>
	<path class="st4" d="M14.2,15.4c0,0-2.1-1.7-2.4-4c0,0-2.7,2.8-2.2,7.6l2.2-0.9L14.2,15.4z"/>
	<path class="st5" d="M19.3,17l-0.1-0.2C19.1,16.8,19.2,16.9,19.3,17z"/>
	<path class="st6" d="M21,17.5l7.4,1.5l-6.8,5.6L21,17.5z"/>
	<path class="st7" d="M28.1,19.2l-6.8,2.3l0.3,3.1L28.1,19.2z"/>
	<path class="st5" d="M19.3,17l-0.1-0.2C19.1,16.8,19.2,16.9,19.3,17z"/>
	<path class="st4" d="M22,34.8c0,0,2.6,3.5,8.2,3.5c5.6,0,8.8-4.2,8.8-8.3c0,0,0.6,0.6,0.6,1.3c0,0,1.1-4,0.2-8.6
		c0,0,1.5,1.1,1.9,2.8c0,0,0.1-7.7-4.3-11.2c0,0,2.2,0.3,3.8,2.2c0,0-1.5-3.8-6-6.4c0,0,4.8,1.3,8.3,4.8c2.8,3.5,4.5,7.9,4.5,12.7
		c0,11.2-9.1,20.2-20.2,20.2c-11.2,0-20.2-9-20.2-20.2c0-3.4,0.8-6.6,2.3-9.4c1-1.1,2.3-2.1,3.9-2.9c0,0,2.7-0.9,4.8-0.1
		c0,0,2.4-2.7,5.7-2.4c0,0-5.2,4-2,10.4c0,0,1.2,1.4,0.3,3.1c0,0-1.1-0.8-1.9-0.5c-0.7,0.3-1.9,2.7,0.8,4.1c0,0,3.8,1.3,7.5,0.9
		c3.6-0.4,3.4,2.7,1.5,3C28.3,34,22,34.8,22,34.8z"/>
	<path class="st8" d="M30.3,33.7c1.9-0.2,2.2-3.4-1.5-3c-0.3,0-0.6,0.1-0.9,0.1V34C28.9,33.9,29.8,33.8,30.3,33.7z"/>
	<path class="st8" d="M47.9,27.5c0-4.8-1.7-9.2-4.5-12.7c-3.4-3.5-8.3-4.8-8.3-4.8c4.5,2.5,6,6.4,6,6.4c-1.6-1.9-3.8-2.2-3.8-2.2
		c4.4,3.5,4.3,11.2,4.3,11.2c-0.4-1.7-1.9-2.8-1.9-2.8c0.9,4.6-0.2,8.6-0.2,8.6c0-0.7-0.6-1.3-0.6-1.3c0,4.1-3.2,8.3-8.8,8.3
		c-0.8,0-1.6-0.1-2.3-0.2v9.7C39,47.6,47.9,38.6,47.9,27.5z"/>
	<path class="st8" d="M25.9,18.5l0.3,2.3l2.1-1.8L25.9,18.5z"/>
	<path class="st9" d="M28,18.9v0.4l0.4-0.3L28,18.9z"/>
</g>
<g>
	<ellipse class="st0" cx="28" cy="84.1" rx="28" ry="27.9"/>
	<path class="st1" d="M56,84.1c0-0.2,0-0.5,0-0.7L41.5,68.9L25.7,81.4L11.8,67.6l-0.7,1.8l2.6,28.9L27.5,112c0.2,0,0.3,0,0.5,0
		C43.5,112,56,99.5,56,84.1z"/>
	<ellipse class="st2" cx="27.7" cy="83.6" rx="20.2" ry="20.2"/>
	<path class="st10" d="M47.9,83.6c0-11.1-8.9-20-20-20.2v40.4C39,103.7,47.9,94.7,47.9,83.6z"/>
	<path class="st11" d="M14.2,71.5c0,0-2.1-1.7-2.4-4c0,0-2.7,2.8-2.2,7.6l2.2-0.9L14.2,71.5z"/>
	<path class="st5" d="M19.3,73.1l-0.1-0.2C19.1,72.9,19.2,73,19.3,73.1z"/>
	<path class="st12" d="M21,73.6l7.4,1.5l-6.8,5.6L21,73.6z"/>
	<path class="st12" d="M28.1,75.3l-6.8,2.3l0.3,3.1L28.1,75.3z"/>
	<path class="st5" d="M19.3,73.1l-0.1-0.2C19.1,72.9,19.2,73,19.3,73.1z"/>
	<path class="st12" d="M22,90.9c0,0,2.6,3.5,8.2,3.5c5.6,0,8.8-4.2,8.8-8.3c0,0,0.6,0.6,0.6,1.3c0,0,1.1-4,0.2-8.6
		c0,0,1.5,1.1,1.9,2.8c0,0,0.1-7.7-4.3-11.2c0,0,2.2,0.3,3.8,2.2c0,0-1.5-3.8-6-6.4c0,0,4.8,1.3,8.3,4.8c2.8,3.5,4.5,7.9,4.5,12.7
		c0,11.2-9.1,20.2-20.2,20.2c-11.2,0-20.2-9-20.2-20.2c0-3.4,0.8-6.6,2.3-9.4c1-1.1,2.3-2.1,3.9-2.9c0,0,2.7-0.9,4.8-0.1
		c0,0,2.4-2.7,5.7-2.4c0,0-5.2,4-2,10.4c0,0,1.2,1.4,0.3,3.1c0,0-1.1-0.8-1.9-0.5c-0.7,0.3-1.9,2.7,0.8,4.1c0,0,3.8,1.3,7.5,0.9
		c3.6-0.4,3.4,2.7,1.5,3C28.3,90.1,22,90.9,22,90.9z"/>
	<path class="st8" d="M30.3,89.9c1.9-0.2,2.2-3.4-1.5-3c-0.3,0-0.6,0.1-0.9,0.1v3.2C28.9,90,29.8,89.9,30.3,89.9z"/>
	<path class="st11" d="M47.9,83.6c0-4.8-1.7-9.2-4.5-12.7c-3.4-3.5-8.3-4.8-8.3-4.8c4.5,2.5,6,6.4,6,6.4c-1.6-1.9-3.8-2.2-3.8-2.2
		c4.4,3.5,4.3,11.2,4.3,11.2c-0.4-1.7-1.9-2.8-1.9-2.8c0.9,4.6-0.2,8.6-0.2,8.6c0-0.7-0.6-1.3-0.6-1.3c0,4.1-3.2,8.3-8.8,8.3
		c-0.8,0-1.6-0.1-2.3-0.2v9.7C39,103.7,47.9,94.7,47.9,83.6z"/>
	<path class="st8" d="M25.9,74.6l0.3,2.3l2.1-1.8L25.9,74.6z"/>
	<path class="st9" d="M28,75v0.4l0.4-0.3L28,75z"/>
</g>
</svg>
