<?xml version="1.0" encoding="utf-8"?>
<!-- Generator: Adobe Illustrator 23.0.3, SVG Export Plug-In . SVG Version: 6.00 Build 0)  -->
<svg version="1.1" id="Layer_1" xmlns="http://www.w3.org/2000/svg" xmlns:xlink="http://www.w3.org/1999/xlink" x="0px" y="0px"
	 viewBox="0 0 12 12" style="enable-background:new 0 0 12 12;" xml:space="preserve">
<style type="text/css">
	.st0{fill-rule:evenodd;clip-rule:evenodd;fill:#19805C;}
</style>
<title>Selection Controls/radio_button_active</title>
<desc>Created with Sketch.</desc>
<g id="Icons">
	<g>
		<path id="radio_button_active" class="st0" d="M6,11c2.8,0,5-2.2,5-5S8.8,1,6,1S1,3.2,1,6S3.2,11,6,11z M6,12c-3.3,0-6-2.7-6-6
			s2.7-6,6-6s6,2.7,6,6S9.3,12,6,12z M6,10c-2.2,0-4-1.8-4-4s1.8-4,4-4s4,1.8,4,4S8.2,10,6,10z"/>
	</g>
</g>
</svg>
