<svg width="16" height="16" viewBox="0 0 16 16" fill="none" xmlns="http://www.w3.org/2000/svg">
<g clip-path="url(#clip0_577_510)">
<path fill-rule="evenodd" clip-rule="evenodd" d="M4.52635 3.08599V3.85084H7.41372V1.75931L4.83865 0.666664C4.83865 0.666664 4.56141 0.744944 4.29232 0.744944C3.65141 0.823223 1.79472 1.29127 1.79472 1.29127C1.79472 1.29127 3.87728 2.16294 4.52635 3.08599ZM9.47263 3.82312H11.3954V3.0868C12.0444 2.16294 14.127 1.29208 14.127 1.29208C14.127 1.29208 12.2703 0.824037 11.6294 0.745757C11.3603 0.745757 11.0831 0.667478 11.0831 0.667478L8.50718 1.76013V4.88886L9.47263 3.82393V3.82312ZM11.3946 9.80661V5.57055H8.50718V5.86002H10.814C10.814 5.86002 10.2986 8.35762 11.3946 9.80661ZM8.50718 15.2617V10.494C9.21904 11.5434 10.3981 11.8598 11.3946 11.8957V12.3743C11.3946 12.3743 10.5783 14.2049 8.50718 15.2617ZM5.59861 5.6847H4.52716V5.94237L7.41453 9.58808V4.99487L6.27214 6.40879L5.59861 5.68552V5.6847ZM4.52635 10.2442V9.71659L4.95851 10.2442H4.52635ZM4.52635 11.9911H7.39252L7.40312 11.9854L7.41372 11.9797V15.2609C5.34339 14.2041 4.52635 12.3735 4.52635 12.3735V11.9911ZM4.79891 13.4784C5.22077 14.1533 6.0645 14.976 6.76057 15.2924L0.72793 15.2924L2.18336 13.4784H4.79891ZM9.15856 15.2924C10.1566 14.765 10.6417 14.3221 11.1479 13.4784H13.737L15.1929 15.2924L9.15856 15.2924ZM8.1166 6.05164H10.5359C10.5359 6.05164 9.51095 11.1855 13.8139 10.8903C13.9003 11.0428 13.6655 11.5459 12.4872 11.7489C11.9164 11.8076 6.81928 12.0718 8.1166 6.05164ZM9.52237 4.10118L8.35144 5.34957H13.5807L13.893 5.81762L16 4.25692V4.10118H9.52237ZM1.14239 5.71324H3.82428L7.8043 10.5005C7.8043 10.5005 8.12802 11.3885 7.33625 11.7489H0L1.873 9.79763C1.873 9.79763 2.43237 10.344 2.73163 10.344H5.22923L1.14239 5.71324ZM7.88258 4.10036L6.2436 6.05164V6.05082L5.619 5.34875H1.09265V4.80243C1.09265 4.29279 1.71726 4.10036 1.71726 4.10036H7.88258Z" fill="white"/>
</g>
<defs>
<clipPath id="clip0_577_510">
<rect width="16" height="16" fill="white"/>
</clipPath>
</defs>
</svg>
