<svg width="16" height="16" viewBox="0 0 16 16" fill="none" xmlns="http://www.w3.org/2000/svg">
<g clip-path="url(#clip0_577_553)">
<path fill-rule="evenodd" clip-rule="evenodd" d="M16 8C16 12.4183 12.4183 16 8 16C3.58172 16 0 12.4183 0 8C0 3.58172 3.58172 0 8 0C12.4183 0 16 3.58172 16 8ZM14.9387 8C14.9387 11.8321 11.8321 14.9387 8 14.9387C4.16785 14.9387 1.06129 11.8321 1.06129 8C1.06129 4.16786 4.16785 1.06129 8 1.06129C11.8321 1.06129 14.9387 4.16786 14.9387 8ZM7.93154 1.73657C6.53789 1.74558 5.15982 2.24238 4.07687 3.11628L5.25983 4.48944C6.25834 3.70162 7.60363 3.38026 8.85136 3.62865C9.5367 3.76064 10.1893 4.06151 10.7402 4.48944L11.9231 3.11628C10.8033 2.21287 9.37356 1.71525 7.93154 1.73657ZM3.69158 3.45403C2.44549 4.62551 1.71424 6.32741 1.73719 8.04488C1.73719 9.82711 2.55125 11.5782 3.90145 12.7357C5.14918 13.8277 6.84697 14.3835 8.5046 14.2425C10.3 14.1089 12.0051 13.1497 13.0586 11.6921C14.0841 10.3075 14.4858 8.48101 14.1456 6.78813C13.8956 5.49204 13.216 4.29022 12.2494 3.39746L11.0665 4.77062C12.0199 5.66911 12.5405 6.99554 12.4421 8.30394C12.3994 8.95239 12.2109 9.59183 11.8928 10.1616L9.4818 7.83255L8.26522 5.21085L8.26358 9.18112L10.7 11.5388C9.6146 12.3824 8.12504 12.662 6.80434 12.2881C6.26656 12.1381 5.75829 11.8864 5.3156 11.5495L7.76842 9.18112C7.76677 8.65889 7.76886 8.12003 7.77097 7.578V7.57792C7.77408 6.77983 7.77721 5.97486 7.76842 5.20593L6.55021 7.83173L4.1187 10.1796C3.37678 8.88435 3.35875 7.21033 4.07279 5.90112C4.29577 5.48138 4.59172 5.09854 4.93439 4.7698L3.75143 3.39664L3.6924 3.45321L3.69158 3.45403Z" fill="white"/>
</g>
<defs>
<clipPath id="clip0_577_553">
<rect width="16" height="16" fill="white"/>
</clipPath>
</defs>
</svg>
