<?xml version="1.0" encoding="utf-8"?>
<!-- Generator: Adobe Illustrator 23.0.3, SVG Export Plug-In . SVG Version: 6.00 Build 0)  -->
<svg version="1.1" id="Layer_1" xmlns="http://www.w3.org/2000/svg" xmlns:xlink="http://www.w3.org/1999/xlink" x="0px" y="0px"
	 width="56px" height="28px" viewBox="0 0 56 28" style="enable-background:new 0 0 56 28;" xml:space="preserve">
<style type="text/css">
	.st0{fill:#0C2565;}
	.st1{fill:#FFFFFF;}
</style>
<path class="st0" d="M20,11.7c0,0.1,0,0.3-0.1,0.4c-0.1,0.1-0.1,0.2-0.2,0.3l-5.1,4.7c-0.2,0.1-0.3,0.2-0.5,0.2s-0.4-0.1-0.5-0.2
	l-5.1-4.8C8.1,12.2,8,11.9,8,11.7c0-0.3,0-0.5,0.2-0.7c0.1-0.2,0.4-0.3,0.6-0.3c0.2,0,0.5,0.1,0.6,0.2l4.6,4.3l4.6-4.2
	c0.1-0.1,0.3-0.2,0.4-0.2c0.2,0,0.3,0,0.5,0.1c0.1,0.1,0.3,0.2,0.4,0.4C20,11.4,20,11.6,20,11.7z"/>
<path class="st1" d="M48,11.7c0,0.1,0,0.3-0.1,0.4c-0.1,0.1-0.1,0.2-0.2,0.3l-5.1,4.7c-0.2,0.1-0.3,0.2-0.5,0.2s-0.4-0.1-0.5-0.2
	l-5.1-4.8c-0.4-0.1-0.5-0.4-0.5-0.6c0-0.3,0-0.5,0.2-0.7c0.1-0.2,0.4-0.3,0.6-0.3s0.5,0.1,0.6,0.2l4.6,4.3l4.6-4.2
	c0.1-0.1,0.3-0.2,0.4-0.2c0.2,0,0.3,0,0.5,0.1c0.1,0.1,0.3,0.2,0.4,0.4C48,11.4,48,11.6,48,11.7z"/>
</svg>
