<svg width="16" height="16" viewBox="0 0 16 16" fill="none" xmlns="http://www.w3.org/2000/svg">
<g clip-path="url(#clip0_577_467)">
<path fill-rule="evenodd" clip-rule="evenodd" d="M0.776758 14.3697L3.85637 11.2976C3.85637 11.2976 0.610374 7.65724 4.27889 4.09127C6.95817 1.62074 9.89762 2.49488 11.2892 3.88304L13.1436 2.03317C13.1436 2.03317 8.58067 -2.21984 3.23319 1.57648L3.4873 1.82997C3.4873 1.82997 2.48396 2.29571 1.83052 3.48269L1.57641 3.2292C1.57641 3.2292 -1.71598 6.93901 1.21541 12.2341C1.24566 12.55 1.22448 13.1656 0.776758 14.3697ZM12.1141 4.67275L15.1938 1.60068L15.1948 1.59968C14.7501 2.80678 14.7319 3.42441 14.7632 3.74228C17.7258 9.06859 14.4355 12.7804 14.4355 12.7804L14.1793 12.5249C13.5279 13.7139 12.5225 14.1776 12.5225 14.1776L12.7787 14.4331C7.42514 18.2234 2.8279 13.9362 2.8279 13.9362L4.68233 12.0863C6.08399 13.4846 9.03755 14.3738 11.7178 11.9043C15.3864 8.3393 12.1141 4.67275 12.1141 4.67275ZM8.25706 3.62459V6.64334C8.25706 6.64334 9.30679 6.68357 9.30679 7.9128C9.30679 9.14203 8.25706 9.10481 8.25706 9.10481V11.356C8.25706 11.356 11.502 11.016 11.502 7.73375C11.5303 5.40307 10.0195 4.79571 9.22776 4.47744C9.11499 4.4321 9.01681 4.39263 8.93974 4.35488L8.88716 4.31067C8.5481 4.02564 8.32044 3.83427 8.25807 3.62559L8.25706 3.62459ZM7.82245 12.1477V9.12995C7.82245 9.12995 6.75961 9.08972 6.75961 7.86049C6.75961 6.63126 7.82245 6.66848 7.82245 6.66848V4.41724C7.82245 4.41724 4.53813 4.75724 4.53813 8.03954C4.50989 10.37 6.03888 10.9774 6.84004 11.2957C6.95426 11.3411 7.05369 11.3806 7.1317 11.4184L7.18328 11.4612C7.52791 11.747 7.75901 11.9387 7.82245 12.1477ZM0.975273 14.6148L4.0749 11.5902L4.44985 11.9651L0.975273 14.6148ZM11.8774 4.41725L14.977 1.39262L11.5024 4.0423L11.8774 4.41725ZM8.04941 8.79878C8.55421 8.79878 8.96342 8.38956 8.96342 7.88477C8.96342 7.37997 8.55421 6.97076 8.04941 6.97076C7.54462 6.97076 7.1354 7.37997 7.1354 7.88477C7.1354 8.38956 7.54462 8.79878 8.04941 8.79878Z" fill="white"/>
</g>
<defs>
<clipPath id="clip0_577_467">
<rect width="16" height="16" fill="white"/>
</clipPath>
</defs>
</svg>
