<svg width="16" height="16" viewBox="0 0 16 16" fill="none" xmlns="http://www.w3.org/2000/svg">
<g clip-path="url(#clip0_577_574)">
<path fill-rule="evenodd" clip-rule="evenodd" d="M0.546338 5.32632C-1.12041 3.20229 1.24811 -0.686359 4.65474 1.1419C6.5508 0.586289 11.7682 0.533259 15.8766 2.70155C16.6613 6.56066 13.6628 14.4506 8.07091 15.8581C4.14691 14.9743 0.381502 9.39661 0.546338 5.32632ZM1.28351 5.32337C-0.204237 3.44883 1.28354 0.12672 4.60653 1.89429C6.67238 1.41226 11.4082 1.26882 15.1268 3.23137C15.5629 6.78921 13.1298 13.8016 8.06847 15.0755C4.6254 14.1459 1.13432 9.00745 1.28351 5.32337ZM3.88274 9.6783C3.55297 9.6783 3.1724 9.80487 3.40057 10.1605C5.1506 13.1642 6.98902 14.0283 7.9075 14.4601C7.97369 14.4912 8.03511 14.5201 8.09137 14.5473L8.12249 14.5328L8.1225 14.5328C8.5047 14.3548 9.10041 14.0774 9.81598 13.5838C10.2473 13.3049 10.1965 12.8735 10.0949 12.5945C9.56284 11.2763 6.64659 9.7799 3.88274 9.6783ZM11.185 6.86365C11.1342 6.88862 11.0584 6.91445 11.0584 6.91445C10.906 6.96525 10.5263 7.21838 10.5263 7.21838V7.24335L10.7295 7.29415C10.9577 7.09095 11.3632 7.01519 11.668 7.06598C12.7073 7.26918 13.4176 7.95369 13.57 8.53659C13.57 8.54897 13.5761 8.5677 13.5823 8.58659C13.5886 8.6058 13.595 8.62517 13.595 8.63819C14.6342 6.20411 14.5335 4.45453 14.4568 3.66843C13.6957 3.13632 11.8196 2.17285 8.09223 2.17285C6.79899 2.17285 5.70895 2.29942 4.84621 2.47679C5.04941 2.80656 5.15015 3.18712 5.15015 3.59266C5.15015 4.1506 4.94695 4.65773 4.61804 5.0383C4.69381 5.06327 4.79541 5.0891 4.92198 5.11407L4.97278 4.9875C4.97278 4.9875 5.02358 4.9875 5.04855 5.01247C5.04855 4.8859 5.12432 4.8859 5.12432 4.8859C5.12432 4.8859 5.12432 4.86093 5.14929 4.86093C5.27449 4.88563 5.62379 5.0603 5.77801 5.13741L5.78299 5.1399C5.93453 5.21567 5.93539 5.2415 5.93539 5.2415C5.93539 5.2415 6.29013 5.2415 6.39173 5.21653C6.46014 5.21653 6.56291 5.18218 6.70003 5.13634L6.70005 5.13633C6.76656 5.1141 6.84116 5.08916 6.92384 5.06413C7.01168 5.03754 7.07516 5.01717 7.12273 5.0019L7.12275 5.00189C7.21224 4.97318 7.24541 4.96253 7.27857 4.96253C7.32937 4.96253 7.78571 4.9875 8.19125 5.0383C8.59678 5.0891 8.97735 5.2415 9.05312 5.29144L9.17969 5.31641L9.20466 5.24064L9.00146 5.16487C9.00146 5.16487 9.02643 5.0383 9.02643 5.01247C9.02643 4.98664 9.0514 4.96167 9.07723 4.96167C9.10306 4.96167 9.33037 5.01247 9.407 5.03744C9.44904 5.05114 9.54422 5.11098 9.6257 5.1622L9.62572 5.16221C9.69273 5.20434 9.75047 5.24064 9.76173 5.24064C9.7867 5.24064 9.7867 5.26561 9.7867 5.26561C9.7867 5.31641 9.7359 5.41801 9.7359 5.41801C9.7359 5.41801 11.1815 6.81285 11.1815 6.86365H11.185ZM10.8044 7.37078L10.8047 7.3711L10.8036 7.37164L10.8044 7.37078ZM10.8047 7.3711C11.5653 7.01791 12.9845 7.98088 13.0603 8.94385C12.8805 8.76408 12.5651 8.75415 12.2074 8.74289C11.8079 8.73032 11.3557 8.71608 10.9809 8.46169C11.1084 8.23352 11.1583 7.97952 11.1333 7.80215C11.1084 7.57398 11.0326 7.52318 10.8802 7.42158C10.8675 7.40845 10.8546 7.402 10.8417 7.39554C10.8293 7.38935 10.8169 7.38317 10.8047 7.3711ZM12.3009 9.27276C11.7688 9.27276 11.2358 9.09539 10.8552 8.63906V8.66402C10.6271 8.96796 10.3731 8.96796 10.2723 8.96796C10.1716 8.96796 9.84095 8.81556 9.71438 8.66402C9.58781 8.51163 9.58781 8.23266 9.58781 8.23266L9.08067 8.05529L8.44697 7.70055L8.34537 7.67558C8.14217 7.77718 7.88903 7.70055 7.66086 7.52318C7.63589 7.62478 7.50846 7.87792 7.35693 8.00535C7.20539 8.13278 6.90059 8.30929 6.67242 8.30929C6.44425 8.30929 5.93712 8.05615 5.78472 7.70055C5.63232 7.34495 5.78472 6.96525 5.78472 6.96525L5.53158 6.91445L5.42998 6.78788C5.42998 6.78788 5.12604 7.04102 4.79627 6.94028C4.46651 6.83868 4.18754 6.55971 4.11177 6.30657C4.06097 6.05343 4.13674 5.82441 4.16257 5.79944C4.11177 5.62207 4.11177 5.52047 4.11177 5.52047H4.0868V5.4447C3.75703 5.67287 3.37646 5.77447 2.97093 5.77447C2.51459 5.77447 2.08322 5.62207 1.72849 5.3939C1.77929 5.95183 1.93169 6.61137 2.13402 7.34667C2.41299 8.36095 3.32566 8.69072 4.69467 8.91888C7.71166 9.40105 10.6029 11.7077 10.3997 13.1284C11.16 12.4947 11.972 11.5562 12.783 10.1613C13.1128 9.62922 12.808 9.27362 12.3009 9.27362V9.27276ZM4.54228 3.59265C4.54228 4.46095 3.83838 5.16486 2.97007 5.16486C2.10177 5.16486 1.39786 4.46095 1.39786 3.59265C1.39786 2.72434 2.10177 2.02044 2.97007 2.02044C3.83838 2.02044 4.54228 2.72434 4.54228 3.59265Z" fill="white"/>
</g>
<defs>
<clipPath id="clip0_577_574">
<rect width="16" height="16" fill="white"/>
</clipPath>
</defs>
</svg>
