<svg xmlns="http://www.w3.org/2000/svg" xmlns:xlink="http://www.w3.org/1999/xlink" width="72" height="72" viewBox="0 0 72 72">
    <defs>
        <rect id="a" width="72" height="72" rx="13"/>
        <path id="c" d="M0 0h72v72H0z"/>
        <linearGradient id="d" x1="50%" x2="50%" y1="0%" y2="96.733%">
            <stop offset="0%" stop-color="#62A65F"/>
            <stop offset="100%" stop-color="#3E7342"/>
        </linearGradient>
        <path id="e" d="M0 .531h47.473V48H0z"/>
        <linearGradient id="i" x1="50%" x2="50%" y1="0%" y2="100%">
            <stop offset="0%" stop-color="#FF3041"/>
            <stop offset="100%" stop-color="#850014"/>
        </linearGradient>
        <path id="h" d="M60 0c4.119-.681 7.29.09 9.516 2.316S72.57 7.77 72 12v21.6c-.597-1.311-1.045-2.097-1.345-2.356-5.02-4.345-10.121-7.91-15.306-13.095C50.199 12.999 45.952 7.016 40.8 1.2 40.467.824 39.667.424 38.4 0H60z"/>
        <filter id="g" width="120.7%" height="120.7%" x="-10.4%" y="-7.4%" filterUnits="objectBoundingBox">
            <feOffset dy="1" in="SourceAlpha" result="shadowOffsetOuter1"/>
            <feGaussianBlur in="shadowOffsetOuter1" result="shadowBlurOuter1" stdDeviation="1"/>
            <feColorMatrix in="shadowBlurOuter1" values="0 0 0 0 0 0 0 0 0 0 0 0 0 0 0 0 0 0 0.250934103 0"/>
        </filter>
    </defs>
    <g fill="none" fill-rule="evenodd">
        <mask id="b" fill="#fff">
            <use xlink:href="#a"/>
        </mask>
        <g mask="url(#b)">
            <use fill="#007AFF" xlink:href="#c"/>
            <use fill="#FFF" xlink:href="#c"/>
            <path fill="url(#d)" d="M0 0h72v72H0z"/>
            <g transform="translate(12 11.768)">
                <mask id="f" fill="#fff">
                    <use xlink:href="#e"/>
                </mask>
                <path fill="#FFF" d="M23.713 44.11c10.821.01 19.914-9.082 19.88-19.867-.032-10.706-9.023-19.72-19.77-19.823C13.08 4.317 3.9 13.434 3.883 24.232c-.02 10.868 8.963 19.866 19.83 19.878m-.07 3.89C10.633 47.964.004 37.303 0 24.29-.003 11.23 10.825.427 23.817.533 36.862.64 47.484 11.295 47.473 24.276 47.475 37.354 36.745 48.033 23.643 48" mask="url(#f)"/>
            </g>
            <path fill="#FFF" d="M36.983 37.188c2.993-1.458 4.245-3.477 3.749-5.817-.522-2.446-2.445-4.114-4.82-4.173-2.265-.058-4.297 1.518-4.924 3.828-.677 2.508.453 4.481 3.642 6.22-.585 2.43-1.176 4.895-1.794 7.474h5.958c-.61-2.543-1.202-5.006-1.81-7.532m5.141 10.034H29.524c.636-2.525 1.237-4.944 1.857-7.362.2-.785.216-1.349-.54-2.015-3.305-2.92-3.458-7.767-.464-10.879 2.934-3.051 7.84-3.081 10.815-.066 3.04 3.082 2.948 7.947-.316 10.891-.76.681-.857 1.27-.618 2.144.631 2.355 1.216 4.732 1.867 7.287"/>
            <g>
                <use fill="#000" filter="url(#g)" xlink:href="#h"/>
                <use fill="url(#i)" xlink:href="#h"/>
            </g>
            <path fill="#FFF" d="M62.888 7.026l-.3 1.016c-.792-.4-1.57-.94-2.334-1.619L59.17 7.51l2.122 2.123-.693.693-.645-.644-3.65 3.65-.721-.722 3.65-3.65-.757-.756-.666.665c-1.275 1.205-2.535 1.92-3.79 2.15l.029-1.078c.973-.19 1.996-.778 3.054-1.78l3.04-3.04c.883.855 1.794 1.485 2.746 1.906zm-6.34-5.36L57.76 2.88c.091-.26.162-.512.21-.757l.883.63c-.098.267-.224.547-.364.855l1.275 1.275-.673.673-3.215-3.216.672-.672zm-1.66 1.52l.715.715c.147-.315.266-.63.35-.938l.89.399c-.147.357-.344.75-.589 1.19l.617.617c.392-.182.777-.385 1.163-.616l.42.883c-.322.154-.624.287-.918.399l.68.68-.666.665-1.268-1.268-.567.567 1.149 1.15-.666.665-1.149-1.15-1.835 1.836c-.434.435-.897.407-1.38-.077l-.364-.364.511-.834c.077.133.154.253.238.337.154.154.308.168.441.035l1.66-1.66-1.218-1.22.665-.665 1.22 1.219.567-.568-1.331-1.33.665-.666zm-1.667 2.677l.518.799c-.875.553-1.716.945-2.536 1.176l-.224-.994a7.378 7.378 0 0 0 2.242-.981zm2.312 2.228a17.17 17.17 0 0 1-.792 1.604l-.855-.378c.33-.54.624-1.1.883-1.668l.764.442zm9.99 1.639l.714.714-1.772 1.773.308.308-.722.722-1.54-1.542-.225.225c-.19.189-.378.364-.56.532l1.338 1.338-2.557 2.557c1.001-.315 2.094-1.044 3.271-2.165l2.697-2.697c1.135 1.093 2.277 1.94 3.44 2.543l-.301 1.002c-1.037-.56-2.074-1.317-3.097-2.256l-.869.869 2.543 2.543-.623.623c-1.065.757-2.116 1.261-3.16 1.492a4.436 4.436 0 0 0 .197 2.06l-1.016.287a5.376 5.376 0 0 1-.217-2.206 6.64 6.64 0 0 1-2.277-.274l.315-1.001c.729.21 1.45.287 2.15.23.274-.959.778-1.94 1.528-2.941l-.126-.127-.518.519c-1.395 1.338-2.733 2.186-4 2.543l.042-1.023-.533.532-.714-.714 2.416-2.417-.658-.658c-1.093.924-2.067 1.52-2.893 1.786l-.07-1.037c.924-.364 2.108-1.254 3.53-2.662l2.585-2.585.722.722-1.64 1.639.519.518 1.772-1.772zm.224 5.394c-.49.715-.848 1.408-1.08 2.088a7.146 7.146 0 0 0 2.137-1.03l-1.057-1.058z"/>
        </g>
    </g>
</svg>
