<svg width="16" height="16" viewBox="0 0 16 16" fill="none" xmlns="http://www.w3.org/2000/svg">
<path fill-rule="evenodd" clip-rule="evenodd" d="M15.3388 4.40352H9.54025L9.91835 4H16V4.14652L14.3293 5.84775L14.2033 5.70623L15.3388 4.55004V4.40352ZM8.75147 5.83207H8.75197C8.72225 5.97007 8.69601 6.10454 8.67312 6.23559H10.3619C10.3619 6.23559 9.24771 11.0556 13.2875 10.7788C13.3189 10.8339 13.3053 10.9379 13.2135 11.056C13.8783 10.8328 14.0156 10.4926 13.9487 10.3753C9.90892 10.6521 11.0231 5.83207 11.0231 5.83207H8.75197L8.7521 5.83145L8.75147 5.83207ZM4.55764 5.84775H2.03995L2.42677 6.25127H3.89641L7.6448 10.4125C7.6448 10.4125 7.79345 10.8205 7.62821 11.1818H7.86648C8.16993 11.0432 8.29886 10.8223 8.3452 10.6094C9.45218 11.9132 11.3887 11.8034 11.7237 11.7689C12.8295 11.5786 13.0505 11.1058 12.9691 10.9631C8.9293 11.2398 10.0435 6.41984 10.0435 6.41984H7.77234L7.77248 6.41921L7.77185 6.41984H7.77234C7.50595 7.65668 7.5197 8.61099 7.70935 9.34662L4.55764 5.84775ZM4.73228 10.266L4.9089 10.4503H2.56402C2.28289 10.4503 1.75819 9.93747 1.75819 9.93747L0 11.7695H6.88686C7.63008 11.4302 7.32641 10.5968 7.32641 10.5968L3.57801 6.43552H1.06032L4.34546 9.8625H3.54365C3.26251 9.8625 2.73781 9.3497 2.73781 9.3497L2.223 9.88614C2.39929 10.0381 2.69499 10.266 2.88242 10.266H4.73228ZM8.37991 4L6.8415 5.83207L6.84087 5.83145L6.67568 5.6456L7.71867 4.40352H2.06789C2.21905 4.11454 2.59129 4 2.59129 4H8.37991ZM7.83986 5.76052L8.93872 4.58777H15.0204V4.73429L13.3497 6.43552L12.7488 5.76052H7.83986ZM5.86188 6.41984L7.40029 4.58777H1.61167C1.61167 4.58777 1.02561 4.7681 1.02561 5.24709V5.75989H5.27519L5.86125 6.41921L5.86188 6.41984Z" fill="white"/>
</svg>
