<?xml version="1.0" encoding="utf-8"?>
<!-- Generator: Adobe Illustrator 23.0.3, SVG Export Plug-In . SVG Version: 6.00 Build 0)  -->
<svg version="1.1" id="Layer_1" xmlns="http://www.w3.org/2000/svg" xmlns:xlink="http://www.w3.org/1999/xlink" x="0px" y="0px"
	 viewBox="0 0 12 12" style="enable-background:new 0 0 12 12;" xml:space="preserve">
<style type="text/css">
	.st0{fill-rule:evenodd;clip-rule:evenodd;fill-opacity:0.56;}
</style>
<title>Event Widget Indicators/tv_indicator</title>
<desc>Created with Sketch.</desc>
<path id="tv_indicator" class="st0" d="M0.7,2.7l0,6.1l10.5,0c0,0,0,0,0,0v-6L0.7,2.7z M6.2,9.4H5.8v0.9h0.4V9.4z M6.7,9.4v0.9h2
	c0.2,0,0.4,0.1,0.4,0.3S8.9,11,8.7,11H3.3c-0.2,0-0.4-0.1-0.4-0.3s0.2-0.3,0.4-0.3h2V9.4H0.7C0.3,9.4,0,9.1,0,8.7v-6
	C0,2.3,0.3,2,0.7,2h10.5C11.7,2,12,2.3,12,2.7v6c0,0.4-0.3,0.7-0.7,0.7H6.7z"/>
</svg>
