<svg xmlns="http://www.w3.org/2000/svg" xml:space="preserve" id="圖層_1" x="0" y="0" style="enable-background:new 0 0 56 112" version="1.1" viewBox="0 0 56 112"><style>.st0{fill:#fff}.st1{fill:#f2f2f2}.st3{fill:#e0e0e0}.st6,.st7,.st8{fill:#e1dddb}.st7,.st8{opacity:.584;enable-background:new}.st8{fill:#fff}.st14{fill:#86786d}</style><circle cx="27.8" cy="27.8" r="27.8" class="st0"/><path d="M55.5 27.8c0-.9 0-1.7-.1-2.5l-12-12-31.5 28.8 13.3 13.3c.8.1 1.7.1 2.5.1 15.4 0 27.8-12.4 27.8-27.7z" class="st1"/><circle cx="27.8" cy="27.8" r="21.4" style="fill:#d7d7d7"/><path d="M27.8 6.4c-.1 0-.1 0 0 0v42.7c11.8 0 21.4-9.6 21.4-21.4C49.1 16 39.5 6.4 27.8 6.4z" class="st3"/><circle cx="27.8" cy="27.8" r="19" style="fill:#a59a93"/><path d="M27.8 8.8c-.1 0-.1 0 0 0v37.9c10.5 0 19-8.5 19-19-.1-10.4-8.6-18.9-19-18.9z" style="fill:#b7aea9"/><path d="M26.7 9.7h2.2V13h-2.2z" class="st0"/><path d="M27.7 9.7h1.1V13h-1.1z" class="st6"/><path d="M26.7 42.6h2.2v3.3h-2.2z" class="st0"/><path d="M27.7 42.6h1.1v3.3h-1.1z" class="st7"/><path d="M42.6 26.7h3.3v2.2h-3.3z" class="st8"/><path d="M9.6 26.7h3.3v2.2H9.6z" class="st0"/><path d="M39.8 41.3 37.5 39l1.5-1.5 2.3 2.3-1.5 1.5z" class="st8"/><path d="m16.5 18.1-2.3-2.3 1.5-1.5 2.3 2.3-1.5 1.5z" class="st0"/><path d="m39 18.1-1.5-1.5 2.3-2.3 1.5 1.5-2.3 2.3z" class="st8"/><path d="m15.7 41.3-1.5-1.5 2.3-2.3L18 39l-2.3 2.3z" class="st0"/><path d="m25.6 25.6 14.8-10.5L30 30 15 40.5l10.6-14.9z" style="fill:#c3c3c3"/><path d="m40.4 15.1-12.7 9v7.5L30 30l10.4-14.9z" class="st3"/><path d="m25.6 25.6 14.8-10.5L30 30l-4.4-4.4z" class="st0"/><path d="m40.4 15.1-12.7 9v3.6L30 30l10.4-14.9z" class="st0"/><circle cx="28" cy="84.2" r="27.8" class="st0"/><path d="M55.8 84.2c0-.9 0-1.7-.1-2.5l-12-12-31.5 28.9 13.3 13.3c.8.1 1.7.1 2.5.1 15.3 0 27.8-12.4 27.8-27.8z" class="st1"/><circle cx="28" cy="84.2" r="21.4" style="fill:#775c48"/><path d="M28 62.9v42.7c11.8 0 21.4-9.6 21.4-21.4 0-11.8-9.6-21.3-21.4-21.3z" style="fill:#685647"/><circle cx="28" cy="84.2" r="19" style="fill:#503f32"/><path d="M28 65.3v37.9c10.5 0 19-8.5 19-19 0-10.4-8.5-18.9-19-18.9z" style="fill:#6c5d50"/><path d="M26.9 66.1h2.2v3.3h-2.2z" class="st0"/><path d="M28 66.1h1.1v3.3H28z" class="st6"/><path d="M26.9 99.1h2.2v3.3h-2.2z" class="st0"/><path d="M28 99.1h1.1v3.3H28z" class="st7"/><path d="M42.8 83.2h3.3v2.2h-3.3z" class="st8"/><path d="M9.9 83.2h3.3v2.2H9.9z" class="st0"/><path d="m40 97.8-2.3-2.3 1.5-1.5 2.3 2.3-1.5 1.5z" class="st8"/><path d="m16.8 74.6-2.3-2.3 1.5-1.5 2.3 2.3-1.5 1.5z" class="st0"/><path d="M39.2 74.6 37.7 73l2.3-2.3 1.5 1.5-2.3 2.4z" class="st8"/><path d="m16 97.8-1.5-1.5 2.3-2.3 1.5 1.5-2.3 2.3z" class="st0"/><path d="m25.8 82.1 14.8-10.5-10.3 14.9-15 10.5 10.5-14.9z" class="st14"/><path d="m40.7 71.5-12.7 9V88l2.3-1.6 10.4-14.9z" class="st14"/><path d="m25.8 82.1 14.8-10.5-10.3 14.9-4.5-4.4z" class="st0"/><path d="m40.7 71.5-12.7 9v3.6l2.3 2.3 10.4-14.9z" class="st0"/></svg>