<?xml version="1.0" encoding="utf-8"?>
<!-- Generator: Adobe Illustrator 26.2.1, SVG Export Plug-In . SVG Version: 6.00 Build 0)  -->
<svg version="1.1" id="圖層_1" xmlns="http://www.w3.org/2000/svg" xmlns:xlink="http://www.w3.org/1999/xlink" x="0px" y="0px"
	 viewBox="0 0 50 12" style="enable-background:new 0 0 50 12;" xml:space="preserve">
<style type="text/css">
	.st0{fill:#FFFFFF;}
	.st1{fill:#E76565;}
</style>
<g>
	<path class="st0" d="M8,12H2c-1.1,0-2-0.9-2-2V2c0-1.1,0.9-2,2-2h6c1.1,0,2,0.9,2,2v8C10,11.1,9.1,12,8,12z"/>
	<path class="st1" d="M2,0.5C1.2,0.5,0.5,1.2,0.5,2v8c0,0.8,0.7,1.5,1.5,1.5h6c0.8,0,1.5-0.7,1.5-1.5V2c0-0.8-0.7-1.5-1.5-1.5H2z"/>
</g>
<g>
	<g>
		<path class="st0" d="M38,12h-6c-1.1,0-2-0.9-2-2V2c0-1.1,0.9-2,2-2h6c1.1,0,2,0.9,2,2v8C40,11.1,39.1,12,38,12z"/>
		<path class="st1" d="M32,0.5c-0.8,0-1.5,0.7-1.5,1.5v8c0,0.8,0.7,1.5,1.5,1.5h6c0.8,0,1.5-0.7,1.5-1.5V2c0-0.8-0.7-1.5-1.5-1.5H32
			z"/>
	</g>
	<path class="st0" d="M33.1,7.3l1.1-0.1c0,0.3,0.1,0.5,0.3,0.6C34.6,8,34.8,8.1,35,8.1s0.4-0.1,0.6-0.3c0.2-0.2,0.2-0.4,0.2-0.7
		c0-0.3-0.1-0.5-0.2-0.7c-0.1-0.2-0.3-0.2-0.5-0.2c-0.1,0-0.3,0-0.5,0.1l0.1-0.9c0.3,0,0.5-0.1,0.7-0.2s0.2-0.3,0.2-0.5
		s-0.1-0.3-0.2-0.5C35.3,4.1,35.1,4,34.9,4s-0.3,0.1-0.5,0.2c-0.1,0.1-0.2,0.3-0.2,0.6l-1-0.2c0.1-0.3,0.2-0.6,0.3-0.8
		s0.3-0.4,0.6-0.5s0.5-0.2,0.9-0.2c0.5,0,1,0.2,1.3,0.5c0.3,0.3,0.4,0.6,0.4,1c0,0.5-0.3,0.9-0.8,1.2c0.3,0.1,0.6,0.2,0.8,0.5
		C36.9,6.4,37,6.8,37,7.2c0,0.5-0.2,0.9-0.6,1.3C36,8.8,35.5,8.9,35,8.9s-0.9-0.1-1.3-0.4C33.3,8.2,33.1,7.9,33.1,7.3z"/>
</g>
<g>
	<g>
		<path class="st0" d="M48,12h-6c-1.1,0-2-0.9-2-2V2c0-1.1,0.9-2,2-2h6c1.1,0,2,0.9,2,2v8C50,11.1,49.1,12,48,12z"/>
		<path class="st1" d="M42,0.5c-0.8,0-1.5,0.7-1.5,1.5v8c0,0.8,0.7,1.5,1.5,1.5h6c0.8,0,1.5-0.7,1.5-1.5V2c0-0.8-0.7-1.5-1.5-1.5H42
			z"/>
	</g>
	<path class="st0" d="M45.3,8.8V7.7H43v-1l2.5-3.6h0.9v3.6H47v1h-0.7v1.2L45.3,8.8L45.3,8.8z M45.3,6.7v-2l-1.3,2H45.3z"/>
</g>
<g>
	<g>
		<path class="st0" d="M18,12h-6c-1.1,0-2-0.9-2-2V2c0-1.1,0.9-2,2-2h6c1.1,0,2,0.9,2,2v8C20,11.1,19.1,12,18,12z"/>
		<path class="st1" d="M12,0.5c-0.8,0-1.5,0.7-1.5,1.5v8c0,0.8,0.7,1.5,1.5,1.5h6c0.8,0,1.5-0.7,1.5-1.5V2c0-0.8-0.7-1.5-1.5-1.5H12
			z"/>
	</g>
	<path class="st0" d="M15.9,8.9h-1.1V4.8c-0.4,0.4-0.9,0.7-1.4,0.8v-1c0.3-0.1,0.6-0.3,0.9-0.5c0.3-0.3,0.6-0.6,0.7-0.9h0.9
		C15.9,3.2,15.9,8.9,15.9,8.9z"/>
</g>
<g>
	<g>
		<path class="st0" d="M28,12h-6c-1.1,0-2-0.9-2-2V2c0-1.1,0.9-2,2-2h6c1.1,0,2,0.9,2,2v8C30,11.1,29.1,12,28,12z"/>
		<path class="st1" d="M22,0.5c-0.8,0-1.5,0.7-1.5,1.5v8c0,0.8,0.7,1.5,1.5,1.5h6c0.8,0,1.5-0.7,1.5-1.5V2c0-0.8-0.7-1.5-1.5-1.5H22
			z"/>
	</g>
	<path class="st0" d="M26.8,7.9v1H23c0-0.4,0.2-0.8,0.4-1.1C23.6,7.5,24,7,24.6,6.4c0.5-0.5,0.8-0.8,0.9-0.9
		c0.2-0.2,0.2-0.5,0.2-0.7s-0.1-0.4-0.2-0.6C25.4,4.1,25.2,4,25,4s-0.4,0.1-0.5,0.2s-0.2,0.4-0.2,0.7l-1.1-0.1
		c0.1-0.6,0.3-1,0.6-1.3c0.3-0.3,0.8-0.4,1.3-0.4c0.6,0,1,0.2,1.3,0.5c0.3,0.3,0.5,0.7,0.5,1.1c0,0.3,0,0.5-0.1,0.7
		s-0.2,0.5-0.4,0.7c-0.1,0.2-0.4,0.4-0.7,0.7c-0.3,0.3-0.6,0.5-0.7,0.6s-0.2,0.2-0.2,0.3h2V7.9z"/>
</g>
</svg>
