<svg xmlns="http://www.w3.org/2000/svg" xmlns:xlink="http://www.w3.org/1999/xlink" width="60" height="60" viewBox="0 0 60 60">
    <defs>
        <path id="a" d="M0 0h60v60H0z"/>
        <linearGradient id="b" x1="50%" x2="50%" y1="0%" y2="96.733%">
            <stop offset="0%" stop-color="#62A65F"/>
            <stop offset="100%" stop-color="#3E7342"/>
        </linearGradient>
        <path id="c" d="M0 .443h39.561V40H0z"/>
        <linearGradient id="g" x1="50%" x2="50%" y1="0%" y2="100%">
            <stop offset="0%" stop-color="#FF3041"/>
            <stop offset="100%" stop-color="#850014"/>
        </linearGradient>
        <path id="f" d="M50 0c3.432-.568 6.076.076 7.93 1.93C59.785 3.785 60.475 6.475 60 10v18c-.498-1.093-.871-1.747-1.12-1.963-4.184-3.621-8.435-6.592-12.756-10.913C41.834 10.834 38.293 5.847 34 1c-.277-.313-.944-.647-2-1h18z"/>
        <filter id="e" width="124.9%" height="124.8%" x="-12.4%" y="-8.9%" filterUnits="objectBoundingBox">
            <feOffset dy="1" in="SourceAlpha" result="shadowOffsetOuter1"/>
            <feGaussianBlur in="shadowOffsetOuter1" result="shadowBlurOuter1" stdDeviation="1"/>
            <feColorMatrix in="shadowBlurOuter1" values="0 0 0 0 0 0 0 0 0 0 0 0 0 0 0 0 0 0 0.250934103 0"/>
        </filter>
    </defs>
    <g fill="none" fill-rule="evenodd">
        <g>
            <use fill="#007AFF" xlink:href="#a"/>
            <use fill="#FFF" xlink:href="#a"/>
        </g>
        <path fill="url(#b)" d="M0 0h60v60H0z"/>
        <g transform="translate(10 9.807)">
            <mask id="d" fill="#fff">
                <use xlink:href="#c"/>
            </mask>
            <path fill="#FFF" d="M19.761 36.758c9.018.008 16.595-7.568 16.566-16.556-.026-8.921-7.518-16.432-16.475-16.519-8.951-.086-16.601 7.512-16.616 16.51-.016 9.057 7.469 16.555 16.525 16.565M19.702 40C8.861 39.97.003 31.086 0 20.242-.003 9.357 9.02.355 19.847.443c10.871.09 19.723 8.97 19.714 19.787.001 10.898-8.94 19.797-19.859 19.77" mask="url(#d)"/>
        </g>
        <path fill="#FFF" d="M30.82 30.99c2.493-1.215 3.537-2.897 3.123-4.847-.435-2.039-2.038-3.429-4.016-3.478-1.888-.048-3.582 1.265-4.104 3.19-.564 2.09.377 3.734 3.035 5.183-.488 2.025-.98 4.08-1.495 6.229h4.965c-.509-2.12-1.001-4.172-1.509-6.277m4.285 8.362H24.603c.53-2.104 1.031-4.12 1.547-6.135.167-.654.18-1.124-.45-1.68-2.753-2.433-2.88-6.472-.386-9.065 2.445-2.543 6.533-2.568 9.013-.055 2.533 2.568 2.456 6.622-.264 9.076-.634.567-.714 1.057-.515 1.786.526 1.963 1.014 3.944 1.556 6.073"/>
        <g>
            <use fill="#000" filter="url(#e)" xlink:href="#f"/>
            <use fill="url(#g)" xlink:href="#f"/>
        </g>
        <path fill="#FFF" d="M41.793 4.793L45.586 1l1.136 1.136-1.023 4.248.01.011 2.636-2.636.836.836-3.793 3.793-1.093-1.093 1.045-4.356-.011-.01-2.7 2.7-.836-.836zm4.399 4.399l3.793-3.794 2.577 2.577-.772.772-1.741-1.741-.707.707 1.644 1.645-.771.771-1.645-1.645-.771.772 1.837 1.837-.771.772-2.673-2.673zm4.071 4.071l2.668-4.918.911.91-1.827 3.039.01.01 3.226-1.64.777.778-1.71 3.284.012.01 3.134-1.858.846.846-4.902 2.684-.745-.745 1.79-3.46-.01-.011-3.462 1.79-.718-.719z"/>
    </g>
</svg>
