<svg width="16" height="16" viewBox="0 0 16 16" fill="none" xmlns="http://www.w3.org/2000/svg">
<g clip-path="url(#clip0_599_447)">
<path fill-rule="evenodd" clip-rule="evenodd" d="M1.7528 15.999H1.7537L1.7528 16V15.999ZM1.7537 15.999L3.37142 14.1901V1.71425L1.94305 0H7.27605V13.4281H15.4658L13.0852 15.999H1.7537ZM7.85988 2.75105C7.90618 2.75005 7.95349 2.74904 7.9998 2.74904C11.2612 2.74904 13.9056 5.39339 13.9056 8.6548C13.9056 10.2593 13.2204 11.7803 12.1806 12.8443H14.0123C14.8437 11.6555 15.3319 10.209 15.3319 8.64775C15.3319 4.59817 12.0484 1.31463 7.99879 1.31463C7.95249 1.31463 7.90618 1.31463 7.85988 1.31664V2.75105ZM7.85484 4.31185C7.8852 4.31099 7.91621 4.31013 7.94656 4.31013C10.0845 4.31013 12.4292 5.80085 12.4292 8.58781C12.4292 10.299 11.4563 11.7326 10.2556 12.8443H11.6892C13.0304 11.2933 13.516 10.0446 13.516 8.58781C13.516 5.12734 10.6005 3.08438 7.9459 3.08438C7.91555 3.08438 7.8852 3.08438 7.85484 3.08611V4.31185ZM2.82181 11.4944C2.35877 10.6519 2.09504 9.68355 2.09504 8.65379C2.09504 7.62403 2.35877 6.65567 2.82181 5.81315V3.45467C1.49108 4.78238 0.666668 6.61843 0.666668 8.64775C0.666668 10.6771 1.49108 12.5131 2.82181 13.8408V11.4954V11.4944ZM2.83289 11.0967V6.31013C2.83289 6.31013 2.28949 7.05009 2.28949 8.55312C2.28949 10.0562 2.83289 11.0967 2.83289 11.0967Z" fill="white"/>
</g>
<defs>
<clipPath id="clip0_599_447">
<rect width="16" height="16" fill="white"/>
</clipPath>
</defs>
</svg>
