<?xml version="1.0" encoding="utf-8"?>
<!-- Generator: Adobe Illustrator 26.2.1, SVG Export Plug-In . SVG Version: 6.00 Build 0)  -->
<svg version="1.1" id="圖層_1" xmlns="http://www.w3.org/2000/svg" xmlns:xlink="http://www.w3.org/1999/xlink" x="0px" y="0px"
	 viewBox="0 0 44 80" style="enable-background:new 0 0 44 80;" xml:space="preserve">
<style type="text/css">
	.st0{fill:#A78025;}
</style>
<path d="M10,12v16h24V12H10z M19.5,23.8c0,0.1-0.1,0.2-0.2,0.2h-1.2c-0.1,0-0.2-0.1-0.2-0.2v-5c0-0.1-0.1-0.2-0.2-0.2h-1.5
	c-0.1,0-0.2-0.1-0.2-0.2v-0.7c0-0.1,0.1-0.2,0.2-0.2c0.4,0,0.7-0.1,0.9-0.1c0.3-0.1,0.6-0.2,0.8-0.4c0.1-0.1,0.2-0.3,0.3-0.6
	c0,0,0-0.1,0-0.1c0-0.1,0.1-0.2,0.2-0.2h0.9c0.1,0,0.2,0.1,0.2,0.2V23.8z M28,23.8c0,0.1-0.1,0.2-0.2,0.2h-1.3
	c-0.1,0-0.2-0.1-0.2-0.2v-3.2c0-0.1-0.1-0.2-0.2-0.2h-2.8c-0.1,0-0.2,0.1-0.2,0.2v3.2c0,0.1-0.1,0.2-0.2,0.2h-1.3
	c-0.1,0-0.2-0.1-0.2-0.2v-7.6c0-0.1,0.1-0.2,0.2-0.2h1.3c0.1,0,0.2,0.1,0.2,0.2v2.7c0,0.1,0.1,0.2,0.2,0.2h2.8
	c0.1,0,0.2-0.1,0.2-0.2v-2.7c0-0.1,0.1-0.2,0.2-0.2h1.3c0.1,0,0.2,0.1,0.2,0.2V23.8z"/>
<path class="st0" d="M10,52.1v16h24v-16H10z M19.5,63.9c0,0.1-0.1,0.2-0.2,0.2h-1.2c-0.1,0-0.2-0.1-0.2-0.2v-5
	c0-0.1-0.1-0.2-0.2-0.2h-1.5c-0.1,0-0.2-0.1-0.2-0.2v-0.7c0-0.1,0.1-0.2,0.2-0.2c0.4,0,0.7-0.1,0.9-0.1c0.3-0.1,0.6-0.2,0.8-0.4
	c0.1-0.1,0.2-0.3,0.3-0.6c0,0,0-0.1,0-0.1c0-0.1,0.1-0.2,0.2-0.2h0.9c0.1,0,0.2,0.1,0.2,0.2V63.9z M28,63.9c0,0.1-0.1,0.2-0.2,0.2
	h-1.3c-0.1,0-0.2-0.1-0.2-0.2v-3.2c0-0.1-0.1-0.2-0.2-0.2h-2.8c-0.1,0-0.2,0.1-0.2,0.2v3.2c0,0.1-0.1,0.2-0.2,0.2h-1.3
	c-0.1,0-0.2-0.1-0.2-0.2v-7.6c0-0.1,0.1-0.2,0.2-0.2h1.3c0.1,0,0.2,0.1,0.2,0.2v2.7c0,0.1,0.1,0.2,0.2,0.2h2.8
	c0.1,0,0.2-0.1,0.2-0.2v-2.7c0-0.1,0.1-0.2,0.2-0.2h1.3c0.1,0,0.2,0.1,0.2,0.2V63.9z"/>
</svg>
