<svg width="24" height="24" viewBox="0 0 24 24" fill="none" xmlns="http://www.w3.org/2000/svg">
<path fill-rule="evenodd" clip-rule="evenodd" d="M9.35529 16.6759L9.64246 17.2487H6.62319L7.06148 16.3255L4.62688 10.9343L3.75029 13.3144H4.77244L5.50266 14.6739H3.3112L2.49939 16.1915L2.58097 17.2965H0L1.2165 14.7218L0.583858 13.3136L1.94753 13.3239L4.62608 7.24254L6.92834 11.8348C7.13822 9.12961 9.40555 7 12.1712 7C13.1992 7 14.1583 7.29422 14.9685 7.80286L14.6999 7.24254H17.524L17.3776 8.05159L20.5425 15.4024L19.5203 17.2965L17.394 12.8616C17.0881 15.4682 14.8662 17.4904 12.1712 17.4904C11.1354 17.4904 10.1694 17.1917 9.35529 16.6759ZM12.1712 15.6282C10.2981 15.6282 8.77923 14.1138 8.77923 12.2452C8.77923 10.3766 10.2981 8.86224 12.1712 8.86224C14.0443 8.86224 15.5632 10.3766 15.5632 12.2452C15.5632 14.1138 14.0443 15.6282 12.1712 15.6282ZM12.1712 10.7149C13.019 10.7149 13.7061 11.4003 13.7061 12.246C13.7061 13.0918 13.019 13.7771 12.1712 13.7771C11.3234 13.7771 10.6364 13.0918 10.6364 12.246C10.6364 11.4003 11.3234 10.7149 12.1712 10.7149ZM24 7.24254H21.6142L21.9061 8.05159L20.0074 12.1965L20.9327 14.3819L24 7.24254Z" fill="white"/>
</svg>
