<svg xmlns="http://www.w3.org/2000/svg" xml:space="preserve" id="Layer_1" width="80" height="16" x="0" y="0" style="enable-background:new 0 0 80 16" version="1.1"><style>.st1,.st2,.st3,.st5,.st6{fill-rule:evenodd;clip-rule:evenodd;fill:#513629}.st2,.st3,.st5,.st6{fill:#ce6a4d}.st3,.st5,.st6{fill:#472b20}.st5,.st6{fill:#e9a578}.st6{fill:#6e4331}</style><g id="Icons"><g id="match_tracker_basketball_normal"><path id="Fill-1" d="M14.3 15.6H1.7C1 15.6.4 15 .4 14.3V1.7C.4 1 1 .4 1.7.4h12.6c.7 0 1.3.6 1.3 1.3v12.6c0 .7-.6 1.3-1.3 1.3" style="fill-rule:evenodd;clip-rule:evenodd;fill:#bf5b32"/><path id="Fill-3" d="M1.7.8c-.5 0-.9.4-.9.9v12.6c0 .5.4.9.9.9h12.6c.5 0 .9-.4.9-.9V1.7c0-.5-.4-.9-.9-.9H1.7zM14.3 16H1.7C.8 16 0 15.2 0 14.3V1.7C0 .8.8 0 1.7 0h12.6c.9 0 1.7.8 1.7 1.7v12.6c0 .9-.8 1.7-1.7 1.7z" class="st1"/><path id="Fill-6" d="m4.6 9.5.2-1.8C4.8 6 3.2 4 1.4 4H.8L.6 6.7h1.2c1 0 1.8.4 1.8 1.3 0 1-.8 1.2-1.8 1.2H.7L.4 12h.7c1.7 0 3.5-.8 3.5-2.5" class="st2"/><path id="Fill-8" d="M9.8 8c0-.7-.9-1.5-1.5-1.7v3.6c.6-.2 1.5-1.2 1.5-1.9" class="st2"/><path id="Fill-10" d="M6.4 7.9c0 1.2 1 1.6 1.6 1.9V6.2c-.7.3-1.6 1-1.6 1.7" class="st2"/><path id="Fill-12" d="M11.5 7.7v.6c0 1.9 1.6 3.4 3.6 3.4h.2V9.1l-1.5.2c-1.1 0-1.3 0-1.3-1s.5-1.6 1.6-1.6h1.3V4.3h-.2c-2.1 0-3.7 1.5-3.7 3.4" class="st2"/><path id="Fill-14" d="M8 15.9c-.2 0-.3-.1-.3-.3V.4c0-.2.1-.3.3-.3.2 0 .3.1.3.3v15.2c0 .2-.1.3-.3.3" class="st3"/><path id="Fill-16" d="M8 6.5c-.8 0-1.5.7-1.5 1.5S7.2 9.5 8 9.5 9.5 8.8 9.5 8 8.8 6.5 8 6.5m0 3.6c-1.1 0-2.1-.9-2.1-2.1s1-2.1 2.1-2.1 2.1.9 2.1 2.1-1 2.1-2.1 2.1" class="st3"/><path id="Fill-18" d="M2.2 9.6H.4c-.2 0-.3-.1-.3-.3 0-.2.1-.3.3-.3h1.8c.5 0 1-.4 1-1 0-.5-.4-1-1-1H.4c-.2 0-.3-.1-.3-.3 0-.2.1-.3.3-.3h1.8c.9 0 1.6.7 1.6 1.6 0 .9-.7 1.6-1.6 1.6" class="st3"/><path id="Fill-20" d="M15.6 12.3h-.7c-2.2 0-4-1.8-4-4v-.6c0-2.2 1.8-4 4-4h.7c.2 0 .3.1.3.3 0 .2-.1.3-.3.3h-.7c-1.8 0-3.4 1.5-3.4 3.4v.6c0 1.8 1.5 3.4 3.4 3.4h.7c.2 0 .3.1.3.3 0 .1-.1.3-.3.3" class="st3"/><path id="Fill-22" d="M15.6 9.6h-1.8c-.9 0-1.6-.7-1.6-1.6 0-.9.7-1.6 1.6-1.6h1.8c.2 0 .3.1.3.3 0 .2-.1.3-.3.3h-1.8c-.5 0-1 .4-1 1 0 .5.4 1 1 1h1.8c.2 0 .3.1.3.3s-.1.3-.3.3" class="st3"/><path id="Fill-24" d="M1.1 12.3H.4c-.2 0-.3-.1-.3-.3 0-.2.1-.3.3-.3h.7c1.8 0 3.4-1.5 3.4-3.4v-.6c0-1.8-1.5-3.4-3.4-3.4H.4C.2 4.3.1 4.2.1 4c0-.2.1-.3.3-.3h.7c2.2 0 4 1.8 4 4v.6c0 2.2-1.8 4-4 4" class="st3"/><path id="Fill-26" d="M1.7.8c-.5 0-.9.4-.9.9v12.6c0 .5.4.9.9.9h12.6c.5 0 .9-.4.9-.9V1.7c0-.5-.4-.9-.9-.9H1.7zM14.3 16H1.7C.8 16 0 15.2 0 14.3V1.7C0 .8.8 0 1.7 0h12.6c.9 0 1.7.8 1.7 1.7v12.6c0 .9-.8 1.7-1.7 1.7z" class="st3"/></g></g><g id="Icons_1_"><g id="match_tracker_basketball_active"><path id="Fill-1_1_" d="M46.3 15.6H33.7c-.7 0-1.3-.6-1.3-1.3V1.7c0-.7.6-1.3 1.3-1.3h12.6c.7 0 1.3.6 1.3 1.3v12.6c0 .7-.6 1.3-1.3 1.3" style="fill-rule:evenodd;clip-rule:evenodd;fill:#e28e4e"/><path id="Fill-3_1_" d="M33.7.8c-.5 0-.9.4-.9.9v12.6c0 .5.4.9.9.9h12.6c.5 0 .9-.4.9-.9V1.7c0-.5-.4-.9-.9-.9H33.7zM46.3 16H33.7c-.9 0-1.7-.8-1.7-1.7V1.7c0-.9.8-1.7 1.7-1.7h12.6c.9 0 1.7.8 1.7 1.7v12.6c0 .9-.8 1.7-1.7 1.7z" class="st1"/><path id="Fill-6_1_" d="m36.6 9.5.2-1.8C36.8 6 35.2 4 33.4 4h-.6l-.2 2.7h1.2c1 0 1.8.4 1.8 1.3 0 1-.8 1.2-1.8 1.2h-1.1l-.3 2.8h.7c1.7 0 3.5-.8 3.5-2.5" class="st5"/><path id="Fill-8_1_" d="M41.8 8c0-.7-.9-1.5-1.5-1.7v3.6c.6-.2 1.5-1.2 1.5-1.9" class="st5"/><path id="Fill-10_1_" d="M38.4 7.9c0 1.2 1 1.6 1.6 1.9V6.2c-.7.3-1.6 1-1.6 1.7" class="st5"/><path id="Fill-12_1_" d="M43.5 7.7v.6c0 1.9 1.6 3.4 3.6 3.4h.2V9.1l-1.5.2c-1.1 0-1.3 0-1.3-1s.5-1.6 1.6-1.6h1.3V4.3h-.2c-2.1 0-3.7 1.5-3.7 3.4" class="st5"/><path id="Fill-14_1_" d="M40 15.9c-.2 0-.3-.1-.3-.3V.4c0-.2.1-.3.3-.3s.3.1.3.3v15.2c0 .2-.1.3-.3.3" class="st6"/><path id="Fill-16_1_" d="M40 6.5c-.8 0-1.5.7-1.5 1.5s.7 1.5 1.5 1.5 1.5-.7 1.5-1.5-.7-1.5-1.5-1.5m0 3.6c-1.1 0-2.1-.9-2.1-2.1s.9-2.1 2.1-2.1c1.1 0 2.1.9 2.1 2.1s-1 2.1-2.1 2.1" class="st6"/><path id="Fill-18_1_" d="M34.2 9.6h-1.8c-.2 0-.3-.1-.3-.3 0-.2.1-.3.3-.3h1.8c.5 0 1-.4 1-1 0-.5-.4-1-1-1h-1.8c-.2 0-.3-.1-.3-.3 0-.2.1-.3.3-.3h1.8c.9 0 1.6.7 1.6 1.6 0 .9-.7 1.6-1.6 1.6" class="st6"/><path id="Fill-20_1_" d="M47.6 12.3h-.7c-2.2 0-4-1.8-4-4v-.6c0-2.2 1.8-4 4-4h.7c.2 0 .3.1.3.3 0 .2-.1.3-.3.3h-.7c-1.8 0-3.4 1.5-3.4 3.4v.6c0 1.8 1.5 3.4 3.4 3.4h.7c.2 0 .3.1.3.3 0 .1-.1.3-.3.3" class="st6"/><path id="Fill-22_1_" d="M47.6 9.6h-1.8c-.9 0-1.6-.7-1.6-1.6 0-.9.7-1.6 1.6-1.6h1.8c.2 0 .3.1.3.3 0 .2-.1.3-.3.3h-1.8c-.5 0-1 .4-1 1 0 .5.4 1 1 1h1.8c.2 0 .3.1.3.3s-.1.3-.3.3" class="st6"/><path id="Fill-24_1_" d="M33.1 12.3h-.7c-.2 0-.3-.1-.3-.3 0-.2.1-.3.3-.3h.7c1.8 0 3.4-1.5 3.4-3.4v-.6c0-1.8-1.5-3.4-3.4-3.4h-.7c-.2 0-.3-.1-.3-.3 0-.2.1-.3.3-.3h.7c2.2 0 4 1.8 4 4v.6c0 2.2-1.8 4-4 4" class="st6"/><path id="Fill-26_1_" d="M33.7.8c-.5 0-.9.4-.9.9v12.6c0 .5.4.9.9.9h12.6c.5 0 .9-.4.9-.9V1.7c0-.5-.4-.9-.9-.9H33.7zM46.3 16H33.7c-.9 0-1.7-.8-1.7-1.7V1.7c0-.9.8-1.7 1.7-1.7h12.6c.9 0 1.7.8 1.7 1.7v12.6c0 .9-.8 1.7-1.7 1.7z" class="st6"/></g></g><path d="M78.6 0c.7 0 1.3.5 1.4 1.2v2.2h-.8c-2.2 0-4 1.8-4.2 4v.8c0 2.2 1.8 4 4 4.2h1v2.1c0 .7-.5 1.3-1.2 1.4H72.4V10c1-.2 1.8-1 1.8-2.1 0-1-.7-1.9-1.7-2.1h-.2V0h6.3zm-6.9 0v5.9c-1 .2-1.8 1-1.8 2.1 0 1 .7 1.9 1.7 2.1h.2V16h-6.3c-.7 0-1.3-.5-1.4-1.2v-2.2h.8c2.2 0 4-1.8 4.2-4V7.7c0-2.2-1.8-4-4-4.2H64V1.4c0-.7.6-1.3 1.2-1.4h6.5zM80 4.2v2.2h-1.9c-.9 0-1.7.8-1.7 1.7 0 .9.7 1.6 1.5 1.7H80V12h-.8c-1.9 0-3.4-1.5-3.5-3.3v-1c0-1.9 1.5-3.4 3.3-3.5h1zm-15.2 0c1.9 0 3.4 1.5 3.5 3.3v.8c0 1.9-1.5 3.4-3.3 3.5h-1V9.6h1.9c.9 0 1.7-.8 1.7-1.7 0-.9-.7-1.6-1.5-1.7H64v-2h.8zm7.5 2.3c.7.2 1.2.8 1.2 1.5s-.5 1.3-1.1 1.5h-.1v-3zm-.6 0v3c-.7-.2-1.2-.8-1.2-1.5s.5-1.3 1.2-1.5zM80 7v2h-1.9c-.6 0-1-.5-1-1s.4-1 .9-1h2zM65.9 7c.6 0 1 .5 1 1s-.4 1-.9 1h-2V7h1.9z" style="fill-rule:evenodd;clip-rule:evenodd;fill-opacity:.64"/></svg>