<?xml version="1.0" encoding="utf-8"?>
<!-- Generator: Adobe Illustrator 23.0.3, SVG Export Plug-In . SVG Version: 6.00 Build 0)  -->
<svg version="1.1" id="Layer_1" xmlns="http://www.w3.org/2000/svg" xmlns:xlink="http://www.w3.org/1999/xlink" x="0px" y="0px"
	 width="80px" height="16px" viewBox="0 0 80 16" style="enable-background:new 0 0 80 16;" xml:space="preserve">
<style type="text/css">
	.st0{fill-rule:evenodd;clip-rule:evenodd;fill:#4F95D0;}
	.st1{fill:none;}
	.st2{fill-rule:evenodd;clip-rule:evenodd;fill:#12557A;}
	.st3{fill-rule:evenodd;clip-rule:evenodd;fill:#FEFEFE;}
	.st4{fill-rule:evenodd;clip-rule:evenodd;fill:#7BD0EA;}
	.st5{fill-rule:evenodd;clip-rule:evenodd;fill:#1C84BD;}
	.st6{fill-rule:evenodd;clip-rule:evenodd;fill-opacity:0.64;}
</style>
<title>Content Center/match_tracker_table_tennis_normal</title>
<desc>Created with Sketch.</desc>
<g id="Icons">
	<g>
		<g id="match_tracker_table_tennis_normal">
			<path id="Fill-1" class="st0" d="M14.3,15.6H1.7c-0.7,0-1.3-0.6-1.3-1.3V1.7C0.4,1,1,0.4,1.7,0.4h12.6c0.7,0,1.3,0.6,1.3,1.3
				v12.6C15.6,15,15,15.6,14.3,15.6"/>
			<polygon id="Clip-4" class="st1" points="0,0 16,0 16,16 0,16 			"/>
			<path id="Fill-3" class="st2" d="M1.7,0.8c-0.5,0-0.9,0.4-0.9,0.9v12.6c0,0.5,0.4,0.9,0.9,0.9h12.6c0.5,0,0.9-0.4,0.9-0.9V1.7
				c0-0.5-0.4-0.9-0.9-0.9H1.7z M14.3,16H1.7C0.8,16,0,15.2,0,14.3V1.7C0,0.8,0.8,0,1.7,0h12.6C15.2,0,16,0.8,16,1.7v12.6
				C16,15.2,15.2,16,14.3,16L14.3,16z"/>
			<path id="Fill-6" class="st3" d="M15.4,8.3H0.6C0.4,8.3,0.3,8.2,0.3,8c0-0.2,0.1-0.3,0.3-0.3h14.9c0.2,0,0.3,0.1,0.3,0.3
				C15.7,8.2,15.6,8.3,15.4,8.3"/>
			<path id="Fill-8" class="st2" d="M8,16c-0.2,0-0.4-0.2-0.4-0.4V0.5c0-0.2,0.2-0.4,0.4-0.4s0.4,0.2,0.4,0.4v15.2
				C8.4,15.8,8.2,16,8,16"/>
			<g id="Mask">
				<path class="st2" d="M1.7,0.8c-0.5,0-0.9,0.4-0.9,0.9v12.6c0,0.5,0.4,0.9,0.9,0.9h12.6c0.5,0,0.9-0.4,0.9-0.9V1.7
					c0-0.5-0.4-0.9-0.9-0.9H1.7z M14.3,16H1.7C0.8,16,0,15.2,0,14.3V1.7C0,0.8,0.8,0,1.7,0h12.6C15.2,0,16,0.8,16,1.7v12.6
					C16,15.2,15.2,16,14.3,16L14.3,16z"/>
			</g>
		</g>
	</g>
</g>
<g id="Icons_1_">
	<g>
		<g id="match_tracker_table_tennis_active">
			<path id="Fill-1_1_" class="st4" d="M46.3,15.6H33.7c-0.7,0-1.3-0.6-1.3-1.3V1.7c0-0.7,0.6-1.3,1.3-1.3h12.6
				c0.7,0,1.3,0.6,1.3,1.3v12.6C47.6,15,47,15.6,46.3,15.6"/>
			<path id="Fill-3_1_" class="st2" d="M33.7,0.8c-0.5,0-0.9,0.4-0.9,0.9v12.6c0,0.5,0.4,0.9,0.9,0.9h12.6c0.5,0,0.9-0.4,0.9-0.9
				V1.7c0-0.5-0.4-0.9-0.9-0.9H33.7z M46.3,16H33.7c-0.9,0-1.7-0.8-1.7-1.7V1.7C32,0.8,32.8,0,33.7,0h12.6C47.2,0,48,0.8,48,1.7
				v12.6C48,15.2,47.2,16,46.3,16L46.3,16z"/>
			<path id="Fill-6_1_" class="st3" d="M47.4,8.3H32.6c-0.2,0-0.3-0.1-0.3-0.3c0-0.2,0.1-0.3,0.3-0.3h14.9c0.2,0,0.3,0.1,0.3,0.3
				C47.7,8.2,47.6,8.3,47.4,8.3"/>
			<path id="Fill-8_1_" class="st5" d="M40,16c-0.2,0-0.4-0.2-0.4-0.4V0.5c0-0.2,0.2-0.4,0.4-0.4s0.4,0.2,0.4,0.4v15.2
				C40.4,15.8,40.2,16,40,16"/>
			<g id="Mask_1_">
				<path class="st5" d="M33.7,0.8c-0.5,0-0.9,0.4-0.9,0.9v12.6c0,0.5,0.4,0.9,0.9,0.9h12.6c0.5,0,0.9-0.4,0.9-0.9V1.7
					c0-0.5-0.4-0.9-0.9-0.9H33.7z M46.3,16H33.7c-0.9,0-1.7-0.8-1.7-1.7V1.7C32,0.8,32.8,0,33.7,0h12.6C47.2,0,48,0.8,48,1.7v12.6
					C48,15.2,47.2,16,46.3,16L46.3,16z"/>
			</g>
		</g>
	</g>
</g>
<path class="st6" d="M78.6,0C79.4,0,80,0.6,80,1.4v13.2c0,0.8-0.6,1.4-1.4,1.4h-6.2v-1.2H78c0.4,0,0.8-0.4,0.8-0.8v-12
	c0-0.4-0.3-0.8-0.8-0.8h-5.6V0h-0.8v1.3H66c-0.4,0-0.8,0.4-0.8,0.8v12c0,0.4,0.4,0.8,0.8,0.8h5.6l0,1.2h-6.2c-0.8,0-1.4-0.6-1.4-1.4
	V1.4C64,0.6,64.6,0,65.4,0C65.4,0,78.6,0,78.6,0z M71.6,8.3v5.8H66c-0.1,0-0.1-0.1-0.1-0.1V8.3H71.6z M78.1,8.3V14
	c0,0.1-0.1,0.1-0.1,0.1h-5.6V8.3C72.4,8.3,78.1,8.3,78.1,8.3z M71.6,1.9v5.8h-5.7V2.1c0-0.1,0.1-0.1,0.1-0.1L71.6,1.9L71.6,1.9z
	 M72.4,1.9l5.6,0c0.1,0,0.1,0.1,0.1,0.1l0,5.6h-5.7V1.9z"/>
</svg>
