<svg width="16" height="12" viewBox="0 0 16 12" fill="none" xmlns="http://www.w3.org/2000/svg">
<path d="M0.447443 5.58019C0.660438 6.57303 1.20979 7.30123 2.1339 7.73021C3.06869 8.16431 3.96763 8.0354 4.86699 7.52532C4.84565 7.58337 4.83711 7.61795 4.82132 7.64825C4.35563 8.53993 3.89165 9.43246 3.42041 10.3207C3.33803 10.4761 3.23388 10.6234 3.12205 10.7599C2.59532 11.4028 1.92817 11.5791 1.13765 11.3481C0.207984 11.0767 -0.0442814 10.2605 0.00608626 9.63564C0.0607223 8.96037 0.122188 8.28596 0.191337 7.6124C0.260912 6.93585 0.343293 6.26058 0.420552 5.58489C0.429516 5.58361 0.438479 5.5819 0.44787 5.58062L0.447443 5.58019ZM13.8905 7.72124C12.9527 8.16132 12.0486 8.04906 11.1612 7.55008C11.1681 7.60087 11.1804 7.64228 11.2005 7.68026C11.5565 8.35681 11.9108 9.03464 12.2719 9.70863C12.4422 10.0271 12.6044 10.3532 12.8089 10.649C13.2826 11.3345 14.0339 11.6034 14.7915 11.3763C15.4506 11.1787 16.093 10.6477 15.9888 9.66381C15.9581 9.37142 15.9445 9.0769 15.9197 8.78366C15.8907 8.4409 15.8608 8.09857 15.8262 7.75624C15.7861 7.35928 15.7417 6.96274 15.6977 6.56577C15.6606 6.23155 15.6218 5.89734 15.5838 5.56354C15.3516 6.54955 14.8159 7.28629 13.8905 7.72081V7.72124ZM3.20443 7.5219C4.78546 7.53941 5.67372 6.33186 5.68824 5.17768C5.70531 3.81647 4.65229 2.75491 3.27187 2.73485C2.00244 2.71649 0.911423 3.8233 0.898618 5.14268C0.886239 6.39973 1.96317 7.50867 3.20443 7.52233V7.5219ZM2.816 4.22923C2.78911 4.1985 2.77801 4.14557 2.77716 4.10246C2.77246 3.91806 2.77673 3.73324 2.77289 3.54884C2.77161 3.48097 2.79167 3.45451 2.86295 3.45579C3.13614 3.46134 3.40974 3.46006 3.68335 3.46518C3.80457 3.46731 3.82933 3.49762 3.83061 3.62183C3.83146 3.68927 3.83061 3.75671 3.83061 3.82415C3.83061 4.04867 3.77341 4.25014 3.61079 4.41576C3.5045 4.52418 3.4059 4.64028 3.2962 4.7615C3.12803 4.57625 2.96881 4.40552 2.816 4.22923ZM4.26813 5.64507C4.24593 5.64507 4.21904 5.63312 4.20239 5.61775C4.02781 5.45726 3.85451 5.29463 3.67012 5.12261C3.85836 4.96127 4.03806 4.80376 4.22288 4.65266C4.25874 4.62363 4.31423 4.60656 4.36118 4.60528C4.55625 4.60016 4.75131 4.60314 4.95406 4.60314V5.64592C4.72015 5.64592 4.49435 5.64678 4.26813 5.64464V5.64507ZM1.72328 5.65105C1.66779 5.65147 1.63663 5.63056 1.63663 5.57037C1.63663 5.29463 1.63663 5.01932 1.6362 4.74358C1.6362 4.65223 1.68145 4.60741 1.77365 4.60656C1.94012 4.60571 2.10701 4.60016 2.27348 4.60314C2.31147 4.604 2.35672 4.62321 2.38532 4.64882C2.53258 4.78157 2.67429 4.92072 2.82112 5.05475C2.88174 5.11024 2.88643 5.15463 2.82326 5.2114C2.68368 5.33689 2.54965 5.46878 2.40837 5.59257C2.37464 5.62202 2.32214 5.63995 2.2769 5.64379C2.18897 5.6519 2.09976 5.64592 2.0114 5.64592C2.0114 5.64721 2.0114 5.64849 2.0114 5.64977C1.91579 5.64977 1.82017 5.64891 1.72413 5.64977L1.72328 5.65105ZM2.78015 6.11545C2.78015 6.09027 2.7985 6.06082 2.81643 6.04076C2.97265 5.8666 3.13059 5.69458 3.2437 5.57037C3.40462 5.70355 3.57152 5.82605 3.7192 5.96905C3.81268 6.05954 3.83915 6.19143 3.83274 6.32461C3.82592 6.46589 3.81866 6.6076 3.81098 6.76212H2.77887C2.77887 6.54699 2.77759 6.33144 2.78057 6.11588L2.78015 6.11545ZM12.6881 2.74082C11.4097 2.74168 10.3135 3.84208 10.3144 5.12432C10.3152 6.43815 11.4037 7.52447 12.7162 7.52105C14.0382 7.51806 15.1006 6.45949 15.0967 5.14993C15.0925 3.78787 14.0446 2.73954 12.6885 2.7404L12.6881 2.74082ZM13.9233 5.76971C13.5767 5.75392 13.301 5.44275 13.3202 5.08889C13.3377 4.76791 13.6485 4.48747 13.9741 4.49899C14.3024 4.51052 14.6059 4.83279 14.5901 5.15292C14.5739 5.48799 14.2529 5.78465 13.9229 5.76971H13.9233ZM11.4865 5.76075C11.1454 5.77142 10.8535 5.49568 10.8467 5.15719C10.839 4.78541 11.0998 4.50668 11.4626 4.49899C11.819 4.49174 12.0832 4.75595 12.0922 5.12902C12.1007 5.48031 11.8425 5.74965 11.4869 5.76032L11.4865 5.76075ZM12.7111 7.00585C12.373 7.00457 12.0836 6.71175 12.0828 6.36943C12.0819 6.03222 12.3807 5.73001 12.7124 5.733C13.0436 5.73599 13.3407 6.03222 13.3411 6.36046C13.3416 6.71005 13.0513 7.00756 12.7111 7.00585ZM12.6684 3.27395C13.0517 3.26883 13.3347 3.52323 13.3411 3.87879C13.3475 4.23691 13.088 4.50497 12.7243 4.51521C12.3637 4.52546 12.0883 4.26039 12.0811 3.89501C12.0743 3.5689 12.3491 3.27822 12.6684 3.27395ZM4.61131 1.82225C4.53149 1.61054 4.38252 1.51237 4.15245 1.51194C3.64451 1.51066 3.13656 1.51493 2.62862 1.50938C2.39001 1.50682 2.22354 1.60542 2.10957 1.81244C1.93841 2.12275 1.76084 2.42965 1.58712 2.73869C1.56748 2.77326 1.55468 2.81168 1.53291 2.86205C2.77972 2.03738 3.91299 2.16501 4.96858 2.79503C4.84479 2.45654 4.73082 2.13855 4.61088 1.82225H4.61131ZM14.4731 2.85223C14.2606 2.46209 14.0429 2.0886 13.8192 1.71896C13.7419 1.59176 13.625 1.51023 13.4692 1.51023C12.9292 1.50938 12.3893 1.50852 11.8493 1.51365C11.6214 1.51578 11.4583 1.61694 11.3866 1.84701C11.3414 1.99214 11.2812 2.13257 11.2274 2.27471C11.1642 2.44203 11.101 2.60893 11.0259 2.80784C12.2032 2.09159 13.342 2.10611 14.4731 2.85223ZM5.30707 7.19323C6.42497 5.86532 6.42753 4.5165 5.37493 3.13437H7.73709C7.73709 3.06949 7.73794 3.01102 7.73709 2.95254C7.73069 2.6085 7.73837 2.26361 7.71319 1.92086C7.68331 1.51706 7.51086 1.1615 7.25774 0.85033C7.10749 0.665079 6.97901 0.580564 6.87145 0.385923C6.72931 -0.0874469 7.19799 -0.08702 7.44043 0.180611C7.88136 0.64331 8.17034 1.21699 8.25613 1.78597C8.3176 2.19105 8.30479 2.60679 8.32613 3.01784C8.32784 3.04943 8.32613 3.08144 8.32613 3.12797H10.6379C9.56697 4.50967 9.59173 5.85721 10.6998 7.19366H5.30707V7.19323ZM8.2604 6.22985C8.26254 6.22985 8.26467 6.23027 8.2668 6.2307C8.2668 6.3865 8.26296 6.5423 8.26808 6.69767C8.27235 6.83511 8.35303 6.88804 8.48193 6.84237C8.55194 6.81761 8.6198 6.78773 8.68767 6.75785C8.91091 6.65968 9.13458 6.56236 9.35611 6.46034C9.45471 6.4151 9.45556 6.37455 9.36806 6.31095C9.35099 6.29857 9.33349 6.28576 9.31385 6.27723C9.02829 6.15387 8.74401 6.0288 8.45632 5.91014C8.3654 5.87258 8.30479 5.91142 8.28516 6.00874C8.27065 6.08131 8.26766 6.156 8.25955 6.22985H8.2604ZM6.45698 6.64303C6.45954 6.76042 6.50436 6.81719 6.62303 6.82145C6.90176 6.83213 7.18134 6.83554 7.46049 6.82914C7.58769 6.82615 7.6355 6.76767 7.63977 6.63834C7.64574 6.46504 7.6466 6.29089 7.64148 6.11759C7.63806 5.98484 7.58343 5.93532 7.44769 5.93191C7.31323 5.9285 7.17835 5.93106 7.04347 5.93106V5.94002C6.90858 5.94002 6.77413 5.93789 6.63925 5.94045C6.50906 5.94301 6.45997 5.98996 6.45656 6.12143C6.45229 6.29515 6.45229 6.46888 6.45613 6.64261L6.45698 6.64303Z" fill="white"/>
</svg>
