<?xml version="1.0" encoding="utf-8"?>
<!-- Generator: Adobe Illustrator 23.1.0, SVG Export Plug-In . SVG Version: 6.00 Build 0)  -->
<svg version="1.1" id="Layer_1" xmlns="http://www.w3.org/2000/svg" xmlns:xlink="http://www.w3.org/1999/xlink" x="0px" y="0px"
	 viewBox="0 0 80 16" style="enable-background:new 0 0 80 16;" xml:space="preserve">
<style type="text/css">
	.st0{fill-rule:evenodd;clip-rule:evenodd;fill-opacity:0.64;}
	.st1{fill-rule:evenodd;clip-rule:evenodd;fill:#5B9968;}
	.st2{fill-rule:evenodd;clip-rule:evenodd;fill:#F69662;}
	.st3{fill-rule:evenodd;clip-rule:evenodd;fill:#FEFEFE;}
	.st4{fill-rule:evenodd;clip-rule:evenodd;fill:#2B663B;}
</style>
<title>Content Center/match_tracker_football_normal</title>
<desc>Created with Sketch.</desc>
<path class="st0" d="M72.5,2.2H80v-1C80,0.6,79.4,0,78.8,0H65.4c-0.7,0-1.2,0.6-1.2,1.2v1h7.5V1.6h0.8V2.2z M71.7,2.8h-2.9v10.3h2.9
	V2.8z M72.5,13.1V2.8h2.9v10.3H72.5z M71.7,13.8v0.8h0.8v-0.8H80v1c0,0.7-0.6,1.2-1.2,1.2H65.3c-0.7,0-1.2-0.6-1.2-1.2v-1H71.7z
	 M80,13.1h-4V2.8h4V13.1z M68.1,13.2h-4V2.9h4V13.2z"/>
<g>
	<path class="st1" d="M15.9,13.3H0.6v0.9c0,0.7,0.5,1.2,1.2,1.2h12.9c0.7,0,1.2-0.5,1.2-1.2V13.3z"/>
	<path class="st1" d="M15.6,2.6H0.4V1.8c0-0.7,0.5-1.2,1.2-1.2h12.9c0.7,0,1.2,0.5,1.2,1.2V2.6z"/>
	<path class="st2" d="M0.4,13.6h15.2V2.6H0.4V13.6z"/>
	<path class="st3" d="M15.6,3.2H0.4C0.2,3.2,0.1,3,0.1,2.9c0-0.2,0.1-0.3,0.3-0.3h15.2c0.2,0,0.3,0.1,0.3,0.3
		C15.9,3,15.8,3.2,15.6,3.2"/>
	<path class="st3" d="M15.6,13.6H0.4c-0.2,0-0.3-0.1-0.3-0.3c0-0.2,0.1-0.3,0.3-0.3h15.2c0.2,0,0.3,0.1,0.3,0.3
		C15.9,13.4,15.8,13.6,15.6,13.6"/>
	<path class="st3" d="M4.5,13.6c-0.2,0-0.3-0.1-0.3-0.3V3c0-0.2,0.1-0.3,0.3-0.3c0.2,0,0.3,0.1,0.3,0.3v10.2
		C4.8,13.4,4.7,13.6,4.5,13.6"/>
	<path class="st3" d="M11.5,13.6c-0.2,0-0.3-0.1-0.3-0.3V3.1c0-0.2,0.1-0.3,0.3-0.3c0.2,0,0.3,0.1,0.3,0.3v10.2
		C11.8,13.4,11.7,13.6,11.5,13.6"/>
	<path class="st4" d="M1.7,0.8c-0.5,0-0.9,0.4-0.9,0.9v12.6c0,0.5,0.4,0.9,0.9,0.9h12.6c0.5,0,0.9-0.4,0.9-0.9V1.7
		c0-0.5-0.4-0.9-0.9-0.9H1.7z M14.3,16H1.7C0.8,16,0,15.2,0,14.3V1.7C0,0.8,0.8,0,1.7,0h12.6C15.2,0,16,0.8,16,1.7v12.6
		C16,15.2,15.2,16,14.3,16L14.3,16z"/>
	<path class="st4" d="M8,16c-0.2,0-0.4-0.2-0.4-0.4V0.4C7.6,0.2,7.8,0,8,0c0.2,0,0.4,0.2,0.4,0.4v15.2C8.4,15.8,8.2,16,8,16"/>
</g>
<g>
	<path class="st1" d="M47.9,13.3H32.6v0.9c0,0.7,0.5,1.2,1.2,1.2h12.9c0.7,0,1.2-0.5,1.2-1.2V13.3z"/>
	<path class="st1" d="M47.6,2.6H32.4V1.8c0-0.7,0.5-1.2,1.2-1.2h12.9c0.7,0,1.2,0.5,1.2,1.2V2.6z"/>
	<path class="st2" d="M32.4,13.6h15.2V2.6H32.4V13.6z"/>
	<path class="st3" d="M47.6,3.2H32.4c-0.2,0-0.3-0.1-0.3-0.3c0-0.2,0.1-0.3,0.3-0.3h15.2c0.2,0,0.3,0.1,0.3,0.3
		C47.9,3,47.8,3.2,47.6,3.2"/>
	<path class="st3" d="M47.6,13.6H32.4c-0.2,0-0.3-0.1-0.3-0.3c0-0.2,0.1-0.3,0.3-0.3h15.2c0.2,0,0.3,0.1,0.3,0.3
		C47.9,13.4,47.8,13.6,47.6,13.6"/>
	<path class="st3" d="M36.5,13.6c-0.2,0-0.3-0.1-0.3-0.3V3c0-0.2,0.1-0.3,0.3-0.3s0.3,0.1,0.3,0.3v10.2
		C36.8,13.4,36.7,13.6,36.5,13.6"/>
	<path class="st3" d="M43.5,13.6c-0.2,0-0.3-0.1-0.3-0.3V3.1c0-0.2,0.1-0.3,0.3-0.3s0.3,0.1,0.3,0.3v10.2
		C43.8,13.4,43.7,13.6,43.5,13.6"/>
	<path class="st4" d="M33.7,0.8c-0.5,0-0.9,0.4-0.9,0.9v12.6c0,0.5,0.4,0.9,0.9,0.9h12.6c0.5,0,0.9-0.4,0.9-0.9V1.7
		c0-0.5-0.4-0.9-0.9-0.9H33.7z M46.3,16H33.7c-0.9,0-1.7-0.8-1.7-1.7V1.7C32,0.8,32.8,0,33.7,0h12.6C47.2,0,48,0.8,48,1.7v12.6
		C48,15.2,47.2,16,46.3,16L46.3,16z"/>
	<path class="st4" d="M40,16c-0.2,0-0.4-0.2-0.4-0.4V0.4C39.6,0.2,39.8,0,40,0c0.2,0,0.4,0.2,0.4,0.4v15.2C40.4,15.8,40.2,16,40,16"
		/>
</g>
</svg>
