<?xml version="1.0" encoding="utf-8"?>
<!-- Generator: Adobe Illustrator 27.0.0, SVG Export Plug-In . SVG Version: 6.00 Build 0)  -->
<svg version="1.1" id="圖層_1" xmlns="http://www.w3.org/2000/svg" xmlns:xlink="http://www.w3.org/1999/xlink" x="0px" y="0px"
	 viewBox="0 0 12 12" style="enable-background:new 0 0 12 12;" xml:space="preserve">
<style type="text/css">
	.st0{fill:#46566D;}
</style>
<path class="st0" d="M6,0C4.3,0,3,1.3,3,3v1.8H2.4C1.7,4.8,1.2,5.3,1.2,6v4.8c0,0.7,0.5,1.2,1.2,1.2h7.2c0.7,0,1.2-0.5,1.2-1.2V6
	c0-0.7-0.5-1.2-1.2-1.2H9V3C9,1.3,7.7,0,6,0z M9.6,6v4.8H2.4V6H9.6z M4.2,4.8V3C4.2,2,5,1.2,6,1.2S7.8,2,7.8,3v1.8H4.2z"/>
</svg>
