<svg width="16" height="16" viewBox="0 0 16 16" fill="none" xmlns="http://www.w3.org/2000/svg">
<path fill-rule="evenodd" clip-rule="evenodd" d="M15.1154 3.33392H0.877543V3.33334C0.708037 3.33334 0.569137 3.47165 0.569137 3.64174V5.01426H0V5.95243H0.569137V10.143H0V11.0093H0.569137V12.3819C0.569137 12.5514 0.707449 12.6903 0.877543 12.6903H15.1154C15.2843 12.6903 15.4238 12.552 15.4238 12.3819V10.9552H16V10.0888H15.4238V5.82883H16V5.00543H15.4238V3.64233C15.4238 3.47341 15.2855 3.33392 15.1154 3.33392ZM14.5168 4.2044H1.47729V11.8245H14.5168V4.2044ZM10.0285 5.09171H10.135C10.4075 5.09171 10.63 5.31477 10.63 5.58669V7.68726L10.4287 7.90679L10.6918 8.16811V10.4341C10.6918 10.7066 10.4688 10.929 10.1968 10.929H8.95498C8.93732 10.929 8.91908 10.9285 8.90142 10.9261H8.45647V8.31702L8.29285 8.1534V7.58367L8.45647 7.42005V5.09053H10.0285V5.09171ZM9.37345 5.9769H9.73247V7.42064H9.59422V6.08509H9.37345V5.9769ZM9.47247 6.3063V7.42064H9.37345V6.3063H9.47247ZM9.37345 8.35351H9.77131V10.0833H9.63306V8.4617H9.37345V8.35351ZM9.51068 8.6829V10.0833H9.37345V8.6829H9.51068ZM4.82329 8.09454V5.59434C4.82329 5.32184 4.60023 5.09936 4.32831 5.09936H2.52085C2.52085 5.7403 2.52085 6.38124 2.52143 7.02278V7.65842L2.36841 7.81145V8.38117L2.52085 8.53361V8.61365H2.52143L2.52173 9.77326L2.52202 10.932H3.45254V8.94305H4.1565C4.40686 8.94305 4.61428 8.74839 4.6405 8.50108C4.75124 8.41006 4.82211 8.27215 4.82211 8.11867V8.09513L4.82329 8.09454ZM4.18888 8.72184H3.45254V8.61365H4.32714C4.41012 8.61365 4.48847 8.59297 4.55731 8.55651C4.46655 8.6578 4.3349 8.72184 4.18888 8.72184ZM3.45312 7.75612V6.28452H3.72933V7.75612H3.45312ZM3.45312 5.95513V6.06332H3.75453V7.75612H3.89278V5.95513H3.45312ZM7.86379 5.18823V5.18882H6.93504V10.0745H6.79679V5.51822H6.7213V10.0745H6.32471V5.18882H5.39419V10.4352C5.39419 10.7072 5.61667 10.9302 5.88917 10.9302H7.36881C7.45175 10.9302 7.53014 10.9095 7.59904 10.873C7.50819 10.9744 7.3764 11.0384 7.23056 11.0384H5.75092C5.47842 11.0384 5.25594 10.8154 5.25594 10.5434V5.51822H5.20592V10.7646C5.20592 11.0366 5.42472 11.2596 5.69272 11.2596H7.14789C7.38414 11.2596 7.58288 11.086 7.62602 10.8576C7.76826 10.7705 7.86379 10.6136 7.86379 10.4352V5.18882H7.86497L7.86379 5.18823ZM13.0537 5.0923H11.74L11.7406 5.09348H11.74C11.4681 5.09348 11.2451 5.31595 11.2451 5.58845V10.4352C11.2451 10.7072 11.4675 10.9302 11.74 10.9302H13.0537C13.3256 10.9302 13.5487 10.7077 13.5487 10.4352V7.56131L13.5488 7.53606C13.5491 7.49741 13.5493 7.47818 13.5397 7.46871C13.5303 7.45933 13.5114 7.45952 13.4736 7.4599L13.4457 7.46008C13.3064 7.45978 13.168 7.45919 13.0296 7.45861C12.891 7.45802 12.7522 7.45743 12.6123 7.45713C12.6006 7.45713 12.5903 7.45698 12.5812 7.45685C12.5472 7.45636 12.5298 7.4561 12.5208 7.46472C12.5113 7.47386 12.5114 7.49299 12.5116 7.53244L12.5116 7.55248V8.10514L12.5116 8.11027C12.5116 8.15216 12.5116 8.17126 12.5211 8.17972C12.5291 8.18681 12.5437 8.18643 12.5705 8.18573C12.5802 8.18548 12.5915 8.18518 12.6046 8.18518H12.6882V10.1174H12.55V8.29337H12.4664C12.4533 8.29337 12.442 8.29367 12.4323 8.29392C12.4054 8.29462 12.3908 8.295 12.3829 8.28791C12.3734 8.27945 12.3734 8.26035 12.3734 8.21847V8.21846L12.3734 7.7867L12.3047 7.78653C12.2932 7.78653 12.2831 7.78638 12.2741 7.78624C12.2409 7.78575 12.2237 7.7855 12.2149 7.79396C12.2053 7.80305 12.2054 7.82218 12.2056 7.86183L12.2057 7.88187L12.2057 8.43967V8.43968C12.2057 8.48177 12.2057 8.50084 12.2152 8.50924C12.223 8.5162 12.2374 8.51582 12.2636 8.51512C12.2731 8.51487 12.2842 8.51458 12.2972 8.51458H12.3794V10.1174H12.2003V6.32101H12.4436V6.73654C12.4438 6.75661 12.4436 6.77425 12.4435 6.78975V6.78984V6.78991V6.78999V6.79006V6.79012C12.4424 6.9006 12.4424 6.90215 12.5895 6.89957H13.1191C13.2313 6.90011 13.2311 6.89618 13.2268 6.78693L13.2256 6.75537V6.67836H12.7636C12.6141 6.68094 12.6141 6.67945 12.6152 6.56898V6.56884C12.6153 6.55327 12.6155 6.53553 12.6153 6.51533V6.09981H12.2003V5.99162H12.7535V6.40714C12.7538 6.42739 12.7536 6.44517 12.7534 6.46077V6.46079C12.7523 6.57126 12.7523 6.57275 12.9019 6.57017H13.4404C13.5545 6.57071 13.5543 6.56678 13.5499 6.45754L13.5487 6.42598V5.58728C13.5487 5.31536 13.3262 5.0923 13.0537 5.0923ZM2.38259 5.42876C2.3826 5.99597 2.38266 6.56324 2.38318 7.13097V7.76661L2.38065 7.76914V7.35217C2.38007 6.71064 2.38007 6.0697 2.38007 5.42876H2.38259ZM2.23016 8.71057V8.48936L2.38259 8.6418V8.72184H2.38318L2.38348 9.88145L2.38377 11.0402H3.29636V11.2614H2.38123L2.38094 10.1046L2.38094 10.1027L2.38065 8.94305H2.38007V8.863L2.23016 8.71057ZM8.31822 5.41993H8.21757V7.62889L8.31822 7.52824V5.41993ZM8.05666 7.91307L8.1546 7.81348V8.26159L8.31822 8.42521V11.0343H8.76317C8.78083 11.0367 8.79907 11.0372 8.81673 11.0372H10.0586C10.1886 11.0372 10.3074 10.9864 10.396 10.9036C10.3361 11.1083 10.1489 11.2584 9.92917 11.2584H8.70784C8.69047 11.2584 8.67253 11.2579 8.65517 11.2555H8.21757V8.64641L8.05666 8.48279V7.91307ZM11.132 5.54115C11.027 5.63208 10.9601 5.76733 10.9601 5.91785V10.7646C10.9601 11.0366 11.1789 11.2596 11.4469 11.2596H12.7388C12.9395 11.2596 13.1132 11.1343 13.1873 10.9565C13.1091 11.0082 13.0156 11.0384 12.9155 11.0384H11.6018C11.3293 11.0384 11.1068 10.8154 11.1068 10.5434V5.69665C11.1068 5.64237 11.1157 5.59009 11.132 5.54115Z" fill="white"/>
</svg>
