<svg width="18" height="18" viewBox="0 0 18 18" fill="none" xmlns="http://www.w3.org/2000/svg">
<path d="M14.4001 9.0001C14.4001 9.4978 14.3569 9.9001 13.8592 9.9001H9.9001V13.8592C9.9001 14.356 9.4978 14.4001 9.0001 14.4001C8.5024 14.4001 8.1001 14.356 8.1001 13.8592V9.9001H4.141C3.6442 9.9001 3.6001 9.4978 3.6001 9.0001C3.6001 8.5024 3.6442 8.1001 4.141 8.1001H8.1001V4.141C8.1001 3.6433 8.5024 3.6001 9.0001 3.6001C9.4978 3.6001 9.9001 3.6433 9.9001 4.141V8.1001H13.8592C14.3569 8.1001 14.4001 8.5024 14.4001 9.0001Z" fill="white"/>
</svg>
