<svg width="90" height="87" viewBox="0 0 90 87" fill="none" xmlns="http://www.w3.org/2000/svg">
<rect x="9" y="33.1875" width="14.8" height="42" fill="#FEFA53"/>
<rect x="23.7998" y="33.1875" width="14.8" height="42" fill="#74F9FC"/>
<rect x="38.6001" y="33.1875" width="14.8" height="42" fill="#79F14A"/>
<rect x="53.3999" y="33.1875" width="14.8" height="42" fill="#EB54F7"/>
<rect x="68.2002" y="33.1875" width="14.8" height="42" fill="#FF3F3F"/>
<path d="M86.625 30.6425V77.2937C86.625 78.8293 85.3864 80.071 83.8598 80.071H7.26522C5.73635 80.071 4.5 78.827 4.5 77.2937V30.6425C4.5 29.107 5.73863 27.8652 7.26522 27.8652H83.8598C85.3864 27.8629 86.625 29.107 86.625 30.6425ZM10.908 74.7368H80.2627C81.7916 74.7368 83.0279 73.4928 83.0279 71.9595V35.9606C83.0279 34.4251 81.7893 33.1834 80.2627 33.1834H10.908C9.37914 33.1834 8.14278 34.4274 8.14278 35.9606V66.9283C8.14278 68.1815 8.14278 69.437 8.14278 70.6926V71.9549C8.1405 73.4928 9.37914 74.7368 10.908 74.7368ZM43.1332 23.2311H32.2483C32.0312 23.2311 31.8529 23.4078 31.8529 23.6282V25.7054C31.8529 25.9234 32.0289 26.1025 32.2483 26.1025H57.581C57.7981 26.1025 57.9763 25.9257 57.9763 25.7054V23.6098C57.9763 23.3918 57.8003 23.2127 57.581 23.2127H48.1678C47.8204 23.2127 47.6444 22.795 47.8821 22.5425C51.3055 18.9275 54.5621 15.4869 57.8072 12.0601C57.9466 11.9109 57.9557 11.6768 57.8186 11.5253C57.4598 11.1236 57.1925 11.5987 56.9296 11.8741C53.8011 15.1633 50.677 18.457 47.553 21.7507C47.2902 22.0284 47.0342 22.3107 46.7714 22.5861C45.887 23.5111 45.4277 23.5134 44.5135 22.5632C38.2792 16.0699 32.0472 9.572 25.8151 3.07641C25.63 2.8836 25.47 2.64949 25.2484 2.51407C25.2324 2.50489 25.2164 2.4957 25.2004 2.48652C24.8439 2.28454 24.4554 2.75277 24.7319 3.05345C24.7342 3.05575 24.7364 3.05804 24.7387 3.06034C30.7445 9.34936 36.7686 15.6246 42.7904 21.8999C42.987 22.1041 43.1789 22.3107 43.4166 22.5655C43.6565 22.818 43.4783 23.2311 43.1332 23.2311ZM31.437 26.1025H58.1363C58.7099 26.1025 59.1761 25.6342 59.1761 25.0581V24.2364C59.1761 23.6603 58.7099 23.1921 58.1363 23.1921H31.437C30.8634 23.1921 30.3972 23.6603 30.3972 24.2364V25.0581C30.3972 25.6342 30.8634 26.1025 31.437 26.1025ZM49.5207 80.6838L41.5701 80.7091C41.3438 80.7091 41.1244 80.8009 40.9644 80.9616L37.7284 84.2116C37.1868 84.7556 37.5708 85.6875 38.3363 85.6875H52.7841C53.552 85.6875 53.9359 84.7556 53.392 84.2116L50.1308 80.9363C49.9709 80.7756 49.7515 80.6838 49.5207 80.6838Z" fill="#393939"/>
</svg>
