<svg width="16" height="16" viewBox="0 0 16 16" fill="none" xmlns="http://www.w3.org/2000/svg">
<path fill-rule="evenodd" clip-rule="evenodd" d="M0 8.13929V5.88607C0 5.35275 0.429578 4.92061 0.959727 4.92061H7.67997L7.03991 6.52995H5.01414L4.42653 7.35521L6.49971 9.10547L8.18426 4.77319C8.37606 4.27962 8.84946 3.95443 9.37602 3.95443H14.0791L16 2.66666L14.4002 5.88607H10.2402L9.92053 6.85153H13.4405L12.8004 8.46159H9.60158L7.81287 12.968L1.43959 7.07772C1.37709 7.02135 1.31603 6.99317 1.25641 6.99317C1.19679 6.99317 1.13716 7.02135 1.07826 7.07772L0 8.13929ZM5.24607 6.87123L4.97209 7.33699L6.31456 8.32329L6.80771 6.87123H5.24607ZM9.82141 9.00822H12.5885L8.39675 12.9534L9.82141 9.00822Z" fill="white"/>
</svg>
