<svg xmlns="http://www.w3.org/2000/svg" xml:space="preserve" id="Layer_1" width="80" height="16" x="0" y="0" style="enable-background:new 0 0 80 16" version="1.1"><style>.st1,.st2,.st6,.st7{fill-rule:evenodd;clip-rule:evenodd;fill:#11773c}.st2,.st6,.st7{fill:#d6edeb}.st6,.st7{fill:#ecf7f6}.st7{fill:#2d8e7c}</style><g id="Icons"><g id="match_tracker_badminton_normal"><path id="Fill-1" d="M1.7.4h12.6c.7 0 1.3.6 1.3 1.3v12.6c0 .7-.6 1.3-1.3 1.3H1.7C1 15.6.4 15 .4 14.3V1.7C.4 1 1 .4 1.7.4" style="fill-rule:evenodd;clip-rule:evenodd;fill:#409d8b"/><path id="Fill-3" d="M1.7.8c-.5 0-.9.4-.9.9v12.6c0 .5.4.9.9.9h12.6c.5 0 .9-.4.9-.9V1.7c0-.5-.4-.9-.9-.9H1.7zM14.3 16H1.7C.8 16 0 15.2 0 14.3V1.7C0 .8.8 0 1.7 0h12.6c.9 0 1.7.8 1.7 1.7v12.6c0 .9-.8 1.7-1.7 1.7z" class="st1"/><path id="Fill-6" d="M5.2 14h.6V1.9h-.6z" class="st2"/><path id="Fill-8" d="M10.2 13.9h.6V2.1h-.6z" class="st2"/><path id="Fill-9" d="M2 8.2h3.5v-.6H2z" class="st2"/><path id="Fill-10" d="M10.5 8.3H14v-.6h-3.5z" class="st2"/><path id="Fill-11" d="M13.6 2.3H2.3v11.3h11.3V2.3zm.1 11.9H2.3c-.3 0-.5-.2-.5-.5V2.3c0-.3.2-.5.5-.5h11.3c.3 0 .5.2.5.5v11.3c.1.4-.1.6-.4.6z" class="st2"/><path id="Fill-12" d="M7.6 15.6h.8V.4h-.8z" style="fill-rule:evenodd;clip-rule:evenodd;fill:#1b5b4f"/><path id="Fill-13" d="M1.7.8c-.5 0-.9.4-.9.9v12.6c0 .5.4.9.9.9h12.6c.5 0 .9-.4.9-.9V1.7c0-.5-.4-.9-.9-.9H1.7zM14.3 16H1.7C.8 16 0 15.2 0 14.3V1.7C0 .8.8 0 1.7 0h12.6c.9 0 1.7.8 1.7 1.7v12.6c0 .9-.8 1.7-1.7 1.7z" style="fill-rule:evenodd;clip-rule:evenodd;fill:#1d5b50"/></g></g><g id="Icons_1_"><g id="match_tracker_badminton_active"><path id="Fill-1_1_" d="M33.7.4h12.6c.7 0 1.3.6 1.3 1.3v12.6c0 .7-.6 1.3-1.3 1.3H33.7c-.7 0-1.3-.6-1.3-1.3V1.7c0-.7.6-1.3 1.3-1.3" style="fill-rule:evenodd;clip-rule:evenodd;fill:#63d3cc"/><path id="Fill-3_1_" d="M33.7.8c-.5 0-.9.4-.9.9v12.6c0 .5.4.9.9.9h12.6c.5 0 .9-.4.9-.9V1.7c0-.5-.4-.9-.9-.9H33.7zM46.3 16H33.7c-.9 0-1.7-.8-1.7-1.7V1.7c0-.9.8-1.7 1.7-1.7h12.6c.9 0 1.7.8 1.7 1.7v12.6c0 .9-.8 1.7-1.7 1.7z" class="st1"/><path id="Fill-6_1_" d="M37.2 14h.6V1.9h-.6z" class="st6"/><path id="Fill-8_1_" d="M42.2 13.9h.6V2.1h-.6z" class="st6"/><path id="Fill-9_1_" d="M34 8.2h3.5v-.6H34z" class="st6"/><path id="Fill-10_1_" d="M42.5 8.3H46v-.6h-3.5z" class="st6"/><path id="Fill-11_1_" d="M45.6 2.3H34.3v11.3h11.3V2.3zm.1 11.9H34.3c-.3 0-.5-.2-.5-.5V2.3c0-.3.2-.5.5-.5h11.3c.3 0 .5.2.5.5v11.3c.1.4-.1.6-.4.6z" class="st6"/><path id="Fill-12_1_" d="M39.6 15.6h.8V.4h-.8z" class="st7"/><path id="Fill-13_1_" d="M33.7.8c-.5 0-.9.4-.9.9v12.6c0 .5.4.9.9.9h12.6c.5 0 .9-.4.9-.9V1.7c0-.5-.4-.9-.9-.9H33.7zM46.3 16H33.7c-.9 0-1.7-.8-1.7-1.7V1.7c0-.9.8-1.7 1.7-1.7h12.6c.9 0 1.7.8 1.7 1.7v12.6c0 .9-.8 1.7-1.7 1.7z" class="st7"/></g></g><path d="M78.6 0c.8 0 1.4.6 1.4 1.4v13.2c0 .8-.6 1.4-1.4 1.4H65.4c-.8 0-1.4-.6-1.4-1.4V1.4c0-.8.6-1.4 1.4-1.4h13.2zm-6.2 1h-.8v.5H66c-.3 0-.6.3-.6.6V14c0 .3.3.6.6.6h5.6v.4h.8v-.5H78c.3 0 .6-.3.6-.6V2c0-.3-.3-.6-.6-.6h-5.6V1zM69 8.2V14h-3V8.3h3zm2.6-6.1V14h-2V2.1h2zm2.8 0V14h-2V2.1h2zm3.5 6.2V14h-3V8.3h3zm0-6.3v5.6h-3V2.1c.1 0 3-.1 3-.1zm-8.9.1v5.6h-3V2.2l3-.1z" style="fill-rule:evenodd;clip-rule:evenodd;fill-opacity:.64"/></svg>