<svg width="16" height="16" viewBox="0 0 16 16" fill="none" xmlns="http://www.w3.org/2000/svg">
<g clip-path="url(#clip0_577_503)">
<path fill-rule="evenodd" clip-rule="evenodd" d="M14.7464 10.6225H13.1556L14.3975 4.22222H12.0024L10.7529 11.1987L10.713 11.1678L11.3173 4.23157H8.9938L6.20596 9.49497L4.79984 4.22263H2.84436L1.60577 10.7031L0.448104 11.2931L2.68537 0.666664H14.0445C15.1245 0.666664 16 1.54213 16 2.62214V4.44587L14.7464 10.6221V10.6225ZM3.04646 12.2186L3.9756 6.10247L5.18369 12.2186H6.43814L9.41181 6.38141L8.76121 12.2186L14.4211 12.2214L13.6631 15.9555H1.95547C0.87547 15.9555 0 15.08 0 14V13.4222L0.253329 12.2186H3.04646Z" fill="white"/>
</g>
<defs>
<clipPath id="clip0_577_503">
<rect width="16" height="16" fill="white"/>
</clipPath>
</defs>
</svg>
