<svg width="12" height="12" viewBox="0 0 12 12" fill="none" xmlns="http://www.w3.org/2000/svg">
<path fill-rule="evenodd" clip-rule="evenodd" d="M6.00035 0C2.69154 0 0 2.69154 0 5.99965C0 9.30846 2.69154 12 6.00035 12C9.30916 12 12 9.30846 12 5.99965C12 2.69154 9.30916 0 6.00035 0ZM6.00035 10.1821C3.65276 10.1821 1.74304 8.27238 1.74304 5.92549C1.74304 3.57719 3.65276 1.66747 6.00035 1.66747C8.34724 1.66747 10.257 3.57719 10.257 5.92549C10.257 8.27238 8.34724 10.1821 6.00035 10.1821ZM5.92669 5.71157C5.92669 5.87047 6.05523 5.99972 6.21484 5.99972H9.36687C9.3259 7.82468 7.835 9.29935 6.00014 9.29935C4.13986 9.29935 2.62565 7.78513 2.62565 5.92556C2.62565 4.09 4.10031 2.59839 5.92669 2.55813V5.71157Z" fill="black" fill-opacity="0.64"/>
</svg>
