<svg width="16" height="16" viewBox="0 0 16 16" fill="none" xmlns="http://www.w3.org/2000/svg">
<path d="M0.447443 7.58019C0.660438 8.57303 1.20979 9.30122 2.1339 9.7302C3.06869 10.1643 3.96763 10.0354 4.86699 9.52532C4.84565 9.58337 4.83711 9.61794 4.82132 9.64825C4.35563 10.5399 3.89165 11.4325 3.42041 12.3207C3.33803 12.4761 3.23388 12.6234 3.12205 12.7599C2.59532 13.4028 1.92817 13.5791 1.13765 13.3481C0.207984 13.0767 -0.0442814 12.2605 0.00608626 11.6356C0.0607223 10.9604 0.122188 10.286 0.191337 9.61239C0.260912 8.93585 0.343293 8.26058 0.420552 7.58488C0.429516 7.5836 0.438479 7.5819 0.44787 7.58061L0.447443 7.58019ZM13.8905 9.72124C12.9527 10.1613 12.0486 10.0491 11.1612 9.55007C11.1681 9.60087 11.1804 9.64227 11.2005 9.68026C11.5565 10.3568 11.9108 11.0346 12.2719 11.7086C12.4422 12.0271 12.6044 12.3532 12.8089 12.649C13.2826 13.3345 14.0339 13.6034 14.7915 13.3763C15.4506 13.1787 16.093 12.6477 15.9888 11.6638C15.9581 11.3714 15.9445 11.0769 15.9197 10.7837C15.8907 10.4409 15.8608 10.0986 15.8262 9.75624C15.7861 9.35927 15.7417 8.96274 15.6977 8.56577C15.6606 8.23155 15.6218 7.89733 15.5838 7.56354C15.3516 8.54955 14.8159 9.28628 13.8905 9.72081V9.72124ZM3.20443 9.5219C4.78546 9.5394 5.67372 8.33186 5.68824 7.17767C5.70531 5.81647 4.65229 4.75491 3.27187 4.73484C2.00244 4.71649 0.911423 5.8233 0.898618 7.14267C0.886239 8.39973 1.96317 9.50867 3.20443 9.52233V9.5219ZM2.816 6.22923C2.78911 6.19849 2.77801 6.14556 2.77716 6.10245C2.77246 5.91806 2.77673 5.73323 2.77289 5.54884C2.77161 5.48097 2.79167 5.4545 2.86295 5.45578C3.13614 5.46133 3.40974 5.46005 3.68335 5.46517C3.80457 5.46731 3.82933 5.49761 3.83061 5.62183C3.83146 5.68927 3.83061 5.75671 3.83061 5.82415C3.83061 6.04867 3.77341 6.25014 3.61079 6.41576C3.5045 6.52418 3.4059 6.64028 3.2962 6.7615C3.12803 6.57625 2.96881 6.40551 2.816 6.22923ZM4.26813 7.64507C4.24593 7.64507 4.21904 7.63312 4.20239 7.61775C4.02781 7.45726 3.85451 7.29463 3.67012 7.12261C3.85836 6.96126 4.03806 6.80376 4.22288 6.65266C4.25874 6.62363 4.31423 6.60656 4.36118 6.60528C4.55625 6.60015 4.75131 6.60314 4.95406 6.60314V7.64592C4.72015 7.64592 4.49435 7.64678 4.26813 7.64464V7.64507ZM1.72328 7.65104C1.66779 7.65147 1.63663 7.63056 1.63663 7.57037C1.63663 7.29463 1.63663 7.01931 1.6362 6.74357C1.6362 6.65223 1.68145 6.60741 1.77365 6.60656C1.94012 6.6057 2.10701 6.60015 2.27348 6.60314C2.31147 6.60399 2.35672 6.6232 2.38532 6.64881C2.53258 6.78156 2.67429 6.92071 2.82112 7.05474C2.88174 7.11023 2.88643 7.15462 2.82326 7.21139C2.68368 7.33689 2.54965 7.46878 2.40837 7.59257C2.37464 7.62202 2.32214 7.63995 2.2769 7.64379C2.18897 7.6519 2.09976 7.64592 2.0114 7.64592C2.0114 7.6472 2.0114 7.64848 2.0114 7.64976C1.91579 7.64976 1.82017 7.64891 1.72413 7.64976L1.72328 7.65104ZM2.78015 8.11545C2.78015 8.09027 2.7985 8.06081 2.81643 8.04075C2.97265 7.8666 3.13059 7.69458 3.2437 7.57037C3.40462 7.70355 3.57152 7.82605 3.7192 7.96904C3.81268 8.05953 3.83915 8.19143 3.83274 8.3246C3.82592 8.46589 3.81866 8.6076 3.81098 8.76212H2.77887C2.77887 8.54699 2.77759 8.33143 2.78057 8.11588L2.78015 8.11545ZM12.6881 4.74082C11.4097 4.74167 10.3135 5.84208 10.3144 7.12432C10.3152 8.43814 11.4037 9.52446 12.7162 9.52105C14.0382 9.51806 15.1006 8.45949 15.0967 7.14993C15.0925 5.78787 14.0446 4.73954 12.6885 4.74039L12.6881 4.74082ZM13.9233 7.76971C13.5767 7.75391 13.301 7.44274 13.3202 7.08889C13.3377 6.7679 13.6485 6.48747 13.9741 6.49899C14.3024 6.51052 14.6059 6.83278 14.5901 7.15292C14.5739 7.48799 14.2529 7.78465 13.9229 7.76971H13.9233ZM11.4865 7.76074C11.1454 7.77141 10.8535 7.49567 10.8467 7.15719C10.839 6.7854 11.0998 6.50667 11.4626 6.49899C11.819 6.49174 12.0832 6.75595 12.0922 7.12901C12.1007 7.48031 11.8425 7.74965 11.4869 7.76032L11.4865 7.76074ZM12.7111 9.00585C12.373 9.00457 12.0836 8.71175 12.0828 8.36942C12.0819 8.03222 12.3807 7.73001 12.7124 7.733C13.0436 7.73599 13.3407 8.03222 13.3411 8.36046C13.3416 8.71004 13.0513 9.00756 12.7111 9.00585ZM12.6684 5.27395C13.0517 5.26883 13.3347 5.52323 13.3411 5.87879C13.3475 6.23691 13.088 6.50497 12.7243 6.51521C12.3637 6.52546 12.0883 6.26039 12.0811 5.89501C12.0743 5.5689 12.3491 5.27822 12.6684 5.27395ZM4.61131 3.82225C4.53149 3.61054 4.38252 3.51236 4.15245 3.51194C3.64451 3.51065 3.13656 3.51492 2.62862 3.50937C2.39001 3.50681 2.22354 3.60541 2.10957 3.81243C1.93841 4.12275 1.76084 4.42965 1.58712 4.73869C1.56748 4.77326 1.55468 4.81168 1.53291 4.86204C2.77972 4.03738 3.91299 4.16501 4.96858 4.79503C4.84479 4.45654 4.73082 4.13854 4.61088 3.82225H4.61131ZM14.4731 4.85223C14.2606 4.46209 14.0429 4.0886 13.8192 3.71895C13.7419 3.59176 13.625 3.51023 13.4692 3.51023C12.9292 3.50937 12.3893 3.50852 11.8493 3.51364C11.6214 3.51578 11.4583 3.61694 11.3866 3.84701C11.3414 3.99214 11.2812 4.13257 11.2274 4.27471C11.1642 4.44203 11.101 4.60893 11.0259 4.80783C12.2032 4.09159 13.342 4.1061 14.4731 4.85223ZM5.30707 9.19323C6.42497 7.86532 6.42753 6.51649 5.37493 5.13437H7.73709C7.73709 5.06949 7.73794 5.01101 7.73709 4.95253C7.73069 4.6085 7.73837 4.26361 7.71319 3.92085C7.68331 3.51706 7.51086 3.1615 7.25774 2.85033C7.10749 2.66508 6.97901 2.58056 6.87145 2.38592C6.72931 1.91255 7.19799 1.91298 7.44043 2.18061C7.88136 2.64331 8.17034 3.21699 8.25613 3.78597C8.3176 4.19104 8.30479 4.60679 8.32613 5.01784C8.32784 5.04943 8.32613 5.08144 8.32613 5.12797H10.6379C9.56697 6.50966 9.59173 7.85721 10.6998 9.19366H5.30707V9.19323ZM8.2604 8.22985C8.26254 8.22985 8.26467 8.23027 8.2668 8.2307C8.2668 8.3865 8.26296 8.54229 8.26808 8.69767C8.27235 8.83511 8.35303 8.88804 8.48193 8.84237C8.55194 8.81761 8.6198 8.78773 8.68767 8.75785C8.91091 8.65968 9.13458 8.56236 9.35611 8.46034C9.45471 8.4151 9.45556 8.37455 9.36806 8.31095C9.35099 8.29857 9.33349 8.28576 9.31385 8.27722C9.02829 8.15387 8.74401 8.0288 8.45632 7.91014C8.3654 7.87258 8.30479 7.91142 8.28516 8.00874C8.27065 8.0813 8.26766 8.156 8.25955 8.22985H8.2604ZM6.45698 8.64303C6.45954 8.76041 6.50436 8.81718 6.62303 8.82145C6.90176 8.83212 7.18134 8.83554 7.46049 8.82913C7.58769 8.82615 7.6355 8.76767 7.63977 8.63833C7.64574 8.46504 7.6466 8.29088 7.64148 8.11758C7.63806 7.98484 7.58343 7.93532 7.44769 7.93191C7.31323 7.92849 7.17835 7.93105 7.04347 7.93105V7.94002C6.90858 7.94002 6.77413 7.93788 6.63925 7.94044C6.50906 7.94301 6.45997 7.98996 6.45656 8.12143C6.45229 8.29515 6.45229 8.46888 6.45613 8.6426L6.45698 8.64303Z" fill="white"/>
</svg>
