<svg width="16" height="16" viewBox="0 0 16 16" fill="none" xmlns="http://www.w3.org/2000/svg">
<g clip-path="url(#clip0_577_648)">
<path fill-rule="evenodd" clip-rule="evenodd" d="M4.43268 14.2037C2.87995 14.3121 1.88422 14.4795 1.88422 14.6673C1.88422 14.9941 4.89731 15.2589 8.61414 15.2589C12.331 15.2589 15.3441 14.9941 15.3441 14.6673C15.3441 14.3406 12.331 14.0757 8.61414 14.0757C7.29527 14.0757 6.06501 14.1091 5.02653 14.1667C5.31413 12.4332 4.0633 9.98355 4.0633 9.98355L4.06258 9.98374L3.71871 10.0172C3.02745 7.48597 3.96964 6.15068 4.33651 5.63075C4.36117 5.5958 4.38323 5.56453 4.40202 5.53684C6.85756 2.42064 10.0555 3.78653 10.0555 3.78653C10.0555 3.78653 11.3918 4.24143 11.9278 4.40354C11.3145 2.82837 13.0971 1.42276 13.4665 1.13145L13.4666 1.13144C13.4864 1.11581 13.5021 1.10339 13.5132 1.09432C6.67785 -1.11124 2.9575 1.86596 2.11831 3.3817C-0.00847013 6.37657 2.51548 10.7521 3.43704 12.3497C3.56527 12.572 3.66248 12.7405 3.71182 12.844C4.04207 13.4078 4.27535 13.8672 4.43268 14.2037ZM9.02784 8.42841C12.1168 8.40213 11.9717 5.93584 11.9717 5.93584L11.9722 5.93493C9.39737 2.65879 6.11186 4.87017 5.66622 5.19803C3.21919 6.9652 4.53764 10.2752 4.76731 10.8518L4.76843 10.8546C6.41411 10.6745 7.733 9.32727 8.10616 8.94609L8.15315 8.89826C8.37299 8.70733 8.58756 8.58035 9.02784 8.42841ZM5.33459 13.4113C6.30916 12.1472 5.08636 10.9462 5.08636 10.9462L5.08544 10.9457C7.04618 10.563 8.12808 9.5523 8.37204 9.32441C8.38815 9.30935 8.40061 9.29771 8.40943 9.2899C8.64432 9.03703 8.9086 8.93997 9.28412 8.82005C12.1168 8.79139 12.0975 6.3592 12.0975 6.3592C12.0975 6.3592 12.3089 6.95803 12.4424 7.20867C12.576 7.45932 14.2549 10.0197 14.2549 10.0197L14.3138 10.2394L14.0393 10.313L12.4435 8.09161C12.4435 8.09161 12.1221 8.55451 11.9104 9.17637C12.1922 9.47301 12.947 9.31089 12.947 9.31089C12.947 9.31089 14.3857 13.0721 14.8499 14.217C14.6034 13.895 13.1483 13.0777 12.164 12.5248L12.164 12.5248L12.164 12.5248L12.1639 12.5247L12.1639 12.5247C11.7774 12.3077 11.4636 12.1314 11.324 12.0419C10.8283 11.7246 10.5514 10.8268 10.3653 10.0027C10.0073 9.05553 9.5315 9.00854 9.28771 9.05533C8.51648 9.30908 8.95661 10.1593 9.03316 10.3009C9.40416 10.6223 9.95726 11.4994 10.0643 11.7317C10.2341 12.9095 7.35234 13.5917 6.89899 13.699L6.88417 13.7025C6.01492 13.9045 5.47484 13.5543 5.33459 13.4113Z" fill="white"/>
</g>
<defs>
<clipPath id="clip0_577_648">
<rect width="16" height="16" fill="white"/>
</clipPath>
</defs>
</svg>
