<svg width="16" height="16" viewBox="0 0 16 16" fill="none" xmlns="http://www.w3.org/2000/svg">
<g clip-path="url(#clip0_577_492)">
<path fill-rule="evenodd" clip-rule="evenodd" d="M3.91972 6.67792C3.92002 6.67754 3.92018 6.67734 3.92018 6.67734V6.67587C3.92018 6.67587 3.92003 6.67656 3.91972 6.67792ZM7.91548 8.47094C7.22705 10.0966 6.52913 11.7471 6.52913 11.7471C6.52913 11.7471 6.09516 9.65247 6.12758 8.73665C5.99865 8.94074 5.88444 9.18019 5.88444 9.18019C5.88444 9.18019 5.70614 9.18682 5.65236 9.26492C5.59857 9.34302 3.02204 12.5186 3.02204 12.5186L4.52213 8.26143C4.52213 8.26143 4.53982 8.13249 4.50077 7.99766C4.50887 7.88567 5.53595 4.87075 5.53595 4.87075C5.53595 4.87075 4.49119 6.34653 4.42709 6.39147C4.36225 6.50862 4.16037 6.94848 3.57168 8.47215C3.53411 8.47215 3.52969 8.47067 3.55032 8.35573C3.57051 8.24322 3.90561 6.74118 3.91972 6.67792C3.91105 6.68895 3.78207 6.85392 3.75146 6.95216C3.71978 7.05384 1.09977 15.9932 1.09977 15.9932C1.09977 15.9932 1.94855 14.9271 2.19832 14.8733C2.71849 13.9302 5.48363 10.796 5.48363 10.796C5.48363 10.796 6.13421 14.499 6.12832 14.7466C6.26616 14.6295 6.3625 14.4069 6.45429 14.1949C6.56121 13.9478 6.66198 13.715 6.815 13.6797C7.02461 13.0526 7.45478 12.0194 7.99227 10.8016C8.1547 10.9509 8.48997 11.2505 8.48997 11.2505L7.37006 14.2927C7.37006 14.2927 7.27501 14.4217 7.44374 14.5248C7.52847 14.5867 7.69203 14.7304 7.88728 15.1798C7.9278 15.2601 7.99927 15.392 8.06706 15.2115C8.13484 15.031 9.26064 11.8628 9.26064 11.8628C9.26064 11.8628 12.683 14.6324 13.0529 14.6832C12.9987 14.6217 12.8431 14.4882 12.6675 14.3377C12.3889 14.0989 12.0602 13.8172 12.0074 13.7114C12.154 13.7026 13.3697 14.5462 13.3697 14.5462C13.3697 14.5462 13.618 14.6862 13.8029 14.6729C14.028 14.7067 14.6538 15.1305 15.1831 15.489C15.5772 15.7559 15.9179 15.9866 16 15.9932C15.9536 15.924 15.734 15.6978 15.5881 15.6027C15.471 15.5158 11.891 12.6453 11.891 12.6453L11.8062 12.4655L10.4439 11.3566C10.4439 11.3566 16.3883 8.91126 15.8946 6.7827L15.8922 6.7732C15.8287 6.52871 15.4196 4.95267 10.3247 5.72749C11.6143 2.99404 12.7505 0.666664 12.7505 0.666664C12.7505 0.666664 10.2992 4.18996 10.0252 4.58561C9.92107 4.71769 9.77345 4.83181 9.63355 4.93996C9.4566 5.07676 9.29199 5.20401 9.24344 5.34597C9.22549 5.38516 9.12691 5.61563 8.97716 5.96761C7.75073 6.20394 5.79628 6.61248 5.05815 6.94072L5.05582 6.9411H5.0573L5.05815 6.94072C5.12947 6.92908 6.82778 6.65329 8.758 6.48336C8.51918 7.04588 8.21842 7.75558 7.91581 8.47016C7.91342 8.47107 7.91104 8.47197 7.90865 8.47288C7.91087 8.47225 7.91315 8.4716 7.91548 8.47094ZM9.1459 8.25231C8.75895 9.0914 8.38474 9.91509 8.04962 10.6719C8.08371 10.6726 8.1199 10.6747 8.15341 10.6766L8.15347 10.6766C8.18482 10.6784 8.21382 10.68 8.23652 10.6803C8.3473 10.6816 8.38975 10.6479 8.45235 10.5981L8.4686 10.5852C8.57838 10.474 8.7751 10.4799 8.7751 10.4799C8.7751 10.4799 9.4942 8.68581 9.53546 8.41983C9.52066 8.29512 9.36126 8.25185 9.1459 8.25231ZM9.26453 7.99541C10.2474 7.68107 10.6443 7.6381 10.6443 7.6381C10.6443 7.6381 10.3828 7.99913 10.3172 8.10301C10.2516 8.2069 10.3386 8.22974 10.3386 8.22974C10.3386 8.22974 10.438 8.30194 10.539 8.35646C10.6399 8.41099 10.581 8.50456 10.581 8.50456L9.68282 10.807C9.68282 10.807 9.72482 10.835 9.77787 10.8807C14.7224 8.21279 14.4137 7.27107 14.3393 7.044L14.3393 7.04398C14.3355 7.03245 14.3323 7.02276 14.3304 7.01478C13.9198 6.36336 11.9993 6.28352 10.0116 6.39264C9.76303 6.9222 9.51176 7.46085 9.26453 7.99541ZM2.66908 8.2073L0.849252 14.4857L0 12.6962L2.66908 8.2073ZM11.6772 11.4527C12.9107 10.9067 15.4625 9.65709 15.8022 9.02622C15.2683 10.0939 13.7599 11.9379 13.0724 12.7265L11.6772 11.4527Z" fill="white"/>
</g>
<defs>
<clipPath id="clip0_577_492">
<rect width="16" height="16" fill="white"/>
</clipPath>
</defs>
</svg>
