<svg xmlns="http://www.w3.org/2000/svg" xml:space="preserve" style="enable-background:new 0 0 16 16" viewBox="0 0 16 16"><path d="M15.1 2.3 15 2l-.4-.1h-1.3v.7c0 1.1-.2 2.1-.5 3 1.3-.8 2.1-2 2.3-3.3zm-5.9 9.3a2 2 0 0 1-.7-1.6h-1c0 .4-.2.9-.4 1.3l-.3.3h2.4zm3.3 3.2c0-.2-.2-.4-.4-.4H4c-.2 0-.4.2-.4.4v.5h8.9v-.5zM.9 2.3a5.3 5.3 0 0 0 2.2 3.3c-.3-.9-.5-2-.5-3v-.7H1.4L1 2c-.1.1-.2.2-.1.3zm14.8-.8c.2.3.3.6.3 1a6.1 6.1 0 0 1-3.6 4.3l-.6 1c-.7 1-1.5 1.7-2.5 2-.1.8.5 1.6 1.5 1.8.2 0 .3.2.3.4v1.7h.9c.7 0 1.3.5 1.3 1.1v.9c0 .2-.2.4-.4.4H3.1a.4.4 0 0 1-.4-.4v-.9c0-.6.6-1.1 1.3-1.1h.8V12c0-.2.1-.3.3-.4 1-.2 1.6-1 1.5-1.8-.9-.3-1.8-1-2.5-2l-.6-1A6.5 6.5 0 0 1 0 2.5c0-.4.1-.7.3-1 .3-.3.6-.4 1-.4h1.3V.8a1 1 0 0 1 1-.8h8.9c.5 0 .9.4.9.8v.3h1.3c.3 0 .7.2 1 .4z" style="fill-rule:evenodd;clip-rule:evenodd;fill-opacity:.64"/></svg>