<svg width="16" height="16" viewBox="0 0 16 16" fill="none" xmlns="http://www.w3.org/2000/svg">
<g clip-path="url(#clip0_577_702)">
<path fill-rule="evenodd" clip-rule="evenodd" d="M2.69468 8.73848L7.59151 0.127559C7.7584 -0.0425196 8.23453 -0.0425196 8.40142 0.127559L13.2178 8.61135L15.9287 13.3997C16.0408 13.5691 16.0234 13.801 15.8763 13.951L13.992 15.8713C13.8251 16.0414 13.6165 16.0312 13.3873 15.8713L9.04444 12.759L11.9915 12.7279L10.9119 10.9614L8.19596 6.21254C8.01646 5.86389 7.94409 5.86559 7.74387 6.21254L5.00013 11.0885L4.01191 12.7289L6.94301 12.7435L2.6154 15.8713C2.41257 16.0443 2.17759 16.0414 2.01071 15.8713L0.126633 13.9507C-0.0204932 13.8008 -0.0378722 13.5691 0.0742581 13.3995L2.69468 8.73848Z" fill="white"/>
</g>
<defs>
<clipPath id="clip0_577_702">
<rect width="16" height="16" fill="white"/>
</clipPath>
</defs>
</svg>
