<svg width="16" height="16" viewBox="0 0 16 16" fill="none" xmlns="http://www.w3.org/2000/svg">
<g clip-path="url(#clip0_634_402)">
<path fill-rule="evenodd" clip-rule="evenodd" d="M8.44891 0.118476C8.44891 0.118476 8.65185 0.0370858 8.87513 0.00308028L8.87568 0.00196535C9.01723 -0.0196993 9.2943 0.139058 9.65011 0.413357C9.71666 0.438473 9.78697 0.465534 9.83757 0.486404C9.98334 0.546824 10.1131 0.626725 10.3688 0.784231L10.3804 0.791339C10.5745 0.911194 10.7665 1.03049 11.0123 1.21055C11.0939 1.27013 11.2036 1.35754 11.4206 1.53057L11.4275 1.53612C11.7608 1.80203 11.8043 1.84718 11.8499 1.92411C11.8584 1.93848 11.8664 1.95295 11.8745 1.96764C11.8956 2.00599 11.9176 2.04581 11.9523 2.08908L11.7096 2.33028C11.7463 2.36809 11.7829 2.40598 11.8193 2.44392L12.0508 2.1901C12.0842 2.21638 12.1155 2.23507 12.1477 2.25429L12.1477 2.25429L12.1477 2.2543L12.1477 2.25431C12.1684 2.26669 12.1895 2.27929 12.2118 2.29427C12.3059 2.35738 12.351 2.41659 12.4713 2.57461L12.4972 2.60868C12.6772 2.84513 12.7584 2.94486 12.8135 3.01251C12.8687 3.08044 12.8977 3.11604 12.974 3.22524C13.1077 3.41619 13.1989 3.56521 13.2835 3.70336L13.2897 3.71358C13.4151 3.91929 13.4828 4.0436 13.5158 4.10604C13.5389 4.14952 13.6219 4.30784 13.7071 4.52358C13.7224 4.56203 13.7347 4.59476 13.7445 4.62281C13.9652 4.90985 14.096 5.11483 14.096 5.19087L14.0954 5.45065L14.0529 5.57391C14.0263 5.65103 13.9968 5.73638 13.9959 5.73942C13.8369 6.19766 13.342 6.82313 13.342 6.82313C13.1447 7.07218 13.0835 7.17279 12.9971 7.3145L12.9971 7.31451C12.9002 7.47353 12.7718 7.6843 12.3845 8.21457C11.7366 9.10206 11.1998 9.7398 11.0409 9.92711C11.0162 9.95626 10.9915 9.98539 10.9667 10.0145C11.4822 9.66111 12.1034 9.45455 12.7713 9.45455C14.5514 9.45455 16 10.9223 16 12.7271C16 14.5315 14.5514 16 12.7713 16C10.9909 16 9.54262 14.5315 9.54262 12.7271C9.54262 12.1533 9.68903 11.6135 9.94596 11.1442C9.90888 11.1819 9.87094 11.2201 9.83208 11.2589C9.46415 11.6263 9.01538 12.0711 8.36256 12.5678L8.35968 12.57C7.84897 12.9586 7.28522 13.3874 6.43438 13.7552C6.0648 13.9152 5.48128 14.1622 4.67503 14.2581C4.328 14.2993 3.87868 14.3489 3.30231 14.238C2.69239 14.1204 2.26177 13.8851 2.05113 13.7675C1.82125 13.6393 1.50281 13.4581 1.16843 13.1197C0.806555 12.7535 0.619566 12.3978 0.490873 12.1492C0.20709 11.6006 0.106446 11.134 0.0827972 11.0197C-0.051945 10.3647 0.00800152 9.84628 0.0530989 9.48392C0.136694 8.81162 0.319833 8.32718 0.456775 7.97152C0.767507 7.16598 1.13654 6.61297 1.37247 6.26455C1.7756 5.66918 2.13253 5.28229 2.6605 4.71145C2.86508 4.48958 3.31056 4.0174 3.93422 3.44488C4.37245 3.04288 4.88761 2.63424 5.91391 1.82014L5.92621 1.81039C5.92621 1.81039 6.8155 1.10519 8.14093 0.275682C8.18987 0.245021 8.29767 0.17924 8.44891 0.118476ZM9.07035 0.297423C9.07035 0.297423 9.14068 0.334944 9.24871 0.401624C9.21774 0.41837 9.18443 0.439709 9.14956 0.466893C9.11326 0.495255 9.06229 0.533572 9.00115 0.579535L9.00103 0.579623L9.00101 0.579638C8.92878 0.633934 8.84237 0.698893 8.74918 0.770713C8.69895 0.809447 8.6716 0.82968 8.6431 0.85076L8.64301 0.850832L8.64299 0.850844C8.57637 0.900128 8.5033 0.954182 8.11672 1.26017L8.11373 1.26254C7.94236 1.39839 7.70413 1.58723 7.40176 1.84495C7.23732 1.98488 7.02723 2.16494 6.7583 2.41524C6.42062 2.73077 6.17753 2.9833 6.09944 3.06525C5.9383 3.23416 5.72766 3.45603 5.46973 3.76877C5.13645 4.17238 4.91151 4.50128 4.83946 4.60776C4.68382 4.83799 4.51553 5.08718 4.33074 5.44284C4.19435 5.70597 4.00901 6.06777 3.86987 6.57618C3.79342 6.85435 3.71203 7.1604 3.71093 7.57683C3.71093 7.68832 3.71588 7.9743 3.79727 8.33052C3.87757 8.68396 3.99306 8.93203 4.02111 8.99057C4.06896 9.09147 4.1564 9.27264 4.31534 9.48058C4.38464 9.57089 4.53753 9.7582 4.77677 9.94384C5.14084 10.2265 5.48677 10.3368 5.69246 10.4004C6.11429 10.5303 6.46627 10.5426 6.63566 10.542C7.02689 10.5398 7.31107 10.4641 7.59131 10.3894L7.59205 10.3893C7.70919 10.358 8.05402 10.2616 8.47805 10.0598C8.82618 9.89422 9.06047 9.73813 9.3591 9.53856C9.76278 9.2693 10.0499 9.03628 10.2319 8.88743C10.4266 8.72856 10.7032 8.49331 11.0195 8.18949C11.3511 7.87006 11.5821 7.61418 11.7878 7.3845C12.1193 7.01509 12.3631 6.71264 12.5348 6.49973L12.5451 6.48698L12.5674 6.45843C12.5998 6.41692 12.6911 6.29984 12.9828 5.92673C13.1328 5.73485 13.2741 5.54207 13.4189 5.34458L13.4189 5.34457L13.4189 5.34456C13.4705 5.2741 13.5226 5.20305 13.5757 5.13122L13.5893 5.1129C13.6251 5.06468 13.6757 4.99641 13.7164 4.9347L13.7528 4.99074C13.768 5.0143 13.781 5.03419 13.7924 5.05152C13.8423 5.12764 13.8598 5.15434 13.8853 5.22655C13.8907 5.24188 13.8975 5.25968 13.9047 5.27857L13.9047 5.27858C13.9318 5.34962 13.9648 5.43608 13.9535 5.46514C13.9376 5.50528 13.546 6.04547 13.546 6.04547C13.546 6.04547 13.5207 6.11348 12.875 6.95804L12.8734 6.96019L12.8734 6.96021L12.8734 6.96022C12.6058 7.30997 12.2669 7.75299 11.7817 8.29039C11.603 8.48773 11.2983 8.82388 10.8632 9.23195C10.5371 9.53744 10.1637 9.8853 9.62197 10.27C9.25349 10.5314 8.76897 10.8715 8.05896 11.1664C7.83567 11.2595 7.47379 11.4072 6.97002 11.5137C6.32436 11.6502 5.81014 11.6402 5.6116 11.6324C5.25907 11.6185 4.8422 11.5984 4.33293 11.4167L4.33002 11.4156C4.00051 11.2978 3.67869 11.1827 3.38148 10.8759C3.10802 10.5943 2.99191 10.2921 2.88261 10.0076L2.88211 10.0063C2.73527 9.62441 2.69402 9.31223 2.66322 9.07196C2.60438 8.60982 2.62748 8.25583 2.64453 8.015C2.69182 7.34548 2.83591 6.84822 2.88871 6.67708C3.03775 6.19264 3.21154 5.85872 3.36938 5.55601C3.66472 4.98962 3.95235 4.59494 4.15749 4.3162C4.45172 3.91539 4.69976 3.63442 4.88454 3.42649C4.99894 3.29771 5.38667 2.86512 5.95038 2.34444C6.34196 1.9832 6.65654 1.72844 6.96012 1.4826C7.33164 1.18185 7.41255 1.12142 7.52763 1.03548L7.52763 1.03547C7.58598 0.991896 7.6531 0.941762 7.77133 0.850431C8.09526 0.600128 8.29765 0.454629 8.44174 0.354842C8.72057 0.161401 8.83331 0.17478 8.83331 0.17478C8.83331 0.17478 8.9928 0.256171 9.07035 0.297423ZM11.5287 2.51015L11.648 2.6319L10.7371 3.63095C10.9959 3.98751 10.9661 4.4919 10.6477 4.8146L9.8715 5.6014C9.52034 5.95735 8.95109 5.95744 8.60004 5.6016C8.24899 5.24576 8.24908 4.66874 8.60023 4.3128L9.37645 3.526C9.70401 3.19397 10.2213 3.17158 10.5743 3.45888L11.5287 2.51015ZM10.87 12.686C10.87 13.7489 11.7228 14.6133 12.7713 14.6133C13.7677 14.6133 14.578 13.8302 14.657 12.8401H12.7713C12.6873 12.8401 12.6193 12.7712 12.6193 12.686V10.7745C11.643 10.8546 10.87 11.6759 10.87 12.686ZM10.566 12.686C10.566 11.4537 11.5552 10.4505 12.7713 10.4505C13.9874 10.4505 14.9766 11.4537 14.9766 12.686C14.9766 13.9188 13.9874 14.9219 12.7713 14.9219C11.5552 14.9219 10.566 13.9188 10.566 12.686ZM9.92264 12.7271C9.92264 14.3196 11.2007 15.6148 12.7713 15.6148C14.342 15.6148 15.62 14.3196 15.62 12.7271C15.62 11.1349 14.342 9.83978 12.7713 9.83978C11.2007 9.83978 9.92264 11.1349 9.92264 12.7271Z" fill="white"/>
</g>
<defs>
<clipPath id="clip0_634_402">
<rect width="16" height="16" fill="white"/>
</clipPath>
</defs>
</svg>
