<svg width="16" height="16" viewBox="0 0 16 16" fill="none" xmlns="http://www.w3.org/2000/svg">
<path fill-rule="evenodd" clip-rule="evenodd" d="M4.95727 7.54776L4.65054 6.92957C4.65054 6.92957 4.40764 7.02591 4.24985 7.10392C4.09205 7.18193 4.07668 7.27885 4.07668 7.27885C4.07668 7.27885 3.94903 7.65295 3.86333 7.87989C3.82788 8.20435 3.63462 8.23686 3.63462 8.23686L1.32737 9.38161L1.81672 9.99152L1.70502 10.3231L0.0951502 11.1221L0 11.4046L2.30015 10.2634L2.81077 10.2616L2.91124 10.4637L1.50999 11.1593L1.40184 11.4649L2.15654 11.5943L4.70491 10.3296C4.83848 10.2634 4.9945 10.3077 4.9945 10.3077C4.9945 10.3077 5.52226 10.4909 5.6706 10.5571C5.81894 10.6227 5.96314 10.5577 5.96314 10.5577L6.33488 10.3408L6.01456 9.69543C6.01456 9.69543 11.5002 6.96681 11.5735 6.93667C11.6467 6.90653 11.7951 6.79424 11.7951 6.79424C11.7951 6.79424 13.2141 5.61284 13.6934 5.20269C12.3051 4.25 10.4441 4.85755 10.4441 4.85755L8.63207 5.75645L9.29813 6.08386L8.77687 6.34272L8.05526 6.03481L7.87265 6.12523L8.51919 6.47865L8.07122 6.70086L7.33543 6.40004L7.0813 6.52592L7.75031 6.85984L7.22255 7.12165L6.52754 6.78419L6.29292 6.90062L6.97492 7.24458L6.51217 7.47447L5.7031 7.20202L5.51398 7.29599L6.16703 7.64586L5.64578 7.90472L4.95727 7.54776ZM9.56747 9.01621L9.34163 8.56104C9.34163 8.56104 9.16278 8.63197 9.04659 8.68941C8.9304 8.74685 8.91909 8.81822 8.91909 8.81822C8.91909 8.81822 8.82509 9.09367 8.76199 9.26077C8.73588 9.49968 8.59359 9.52361 8.59359 9.52361L6.89472 10.3665L7.25504 10.8156L7.17279 11.0597L5.98742 11.6481L5.91736 11.8561L7.611 11.0158L7.98697 11.0145L8.06095 11.1633L7.02919 11.6755L6.94955 11.9004L7.50525 11.9957L9.38166 11.0645C9.48001 11.0158 9.59489 11.0484 9.59489 11.0484C9.59489 11.0484 9.98349 11.1833 10.0927 11.232C10.2019 11.2803 10.3081 11.2325 10.3081 11.2325L10.5818 11.0728L10.346 10.5976C10.346 10.5976 14.3851 8.58845 14.4391 8.56626C14.493 8.54407 14.6023 8.46139 14.6023 8.46139C14.6023 8.46139 15.6471 7.5915 16 7.2895C14.9778 6.58802 13.6075 7.03537 13.6075 7.03537L12.2733 7.69725L12.7637 7.93832L12.3799 8.12892L11.8486 7.90221L11.7141 7.96878L12.1902 8.22901L11.8603 8.39263L11.3186 8.17113L11.1314 8.26382L11.624 8.50969L11.2354 8.70246L10.7237 8.45399L10.5509 8.53971L11.0531 8.79298L10.7124 8.96225L10.1166 8.76164L9.97739 8.83084L10.4582 9.08845L10.0744 9.27905L9.56747 9.01621Z" fill="white"/>
</svg>
