<svg xmlns="http://www.w3.org/2000/svg" width="16" height="16" viewBox="0 0 16 16">
    <path fill="#000" fill-opacity=".64" fill-rule="evenodd" d="M15.355 2.547c.356 0 .645.298.645.665a.655.655 0 0 1-.645.665h-9.32v.14c0 .71-.56 1.287-1.248 1.287h-1.56c-.689 0-1.248-.578-1.248-1.287v-.14H.645A.655.655 0 0 1 0 3.212c0-.367.289-.665.645-.665h1.334v-.14c0-.71.56-1.287 1.248-1.287h1.56c.689 0 1.248.577 1.248 1.287v.14h9.32zM4.746 2.45H3.268v1.524h1.478V2.45zm10.61 4.718c.355 0 .644.297.644.664a.655.655 0 0 1-.645.665h-1.334v.14c0 .71-.56 1.287-1.248 1.287h-1.56c-.689 0-1.248-.577-1.248-1.287v-.14H.645A.655.655 0 0 1 0 7.832c0-.367.289-.664.645-.664h9.32v-.14c0-.71.56-1.287 1.248-1.287h1.56c.689 0 1.248.577 1.248 1.287v.14h1.334zm-2.624-.098h-1.478v1.524h1.478V7.07zm2.623 5.058c.356 0 .645.297.645.664a.655.655 0 0 1-.645.665H8.862v.14c0 .71-.56 1.287-1.249 1.287h-1.56c-.689 0-1.248-.577-1.248-1.287v-.14H.645A.655.655 0 0 1 0 12.792c0-.367.289-.664.645-.664h4.16v-.14c0-.71.56-1.287 1.248-1.287h1.56c.689 0 1.249.577 1.249 1.287v.14h6.493zm-7.783-.098H6.094v1.525h1.478V12.03z"/>
</svg>
