<?xml version="1.0" encoding="utf-8"?>
<!-- Generator: Adobe Illustrator 23.0.3, SVG Export Plug-In . SVG Version: 6.00 Build 0)  -->
<svg version="1.1" id="圖層_1" xmlns="http://www.w3.org/2000/svg" xmlns:xlink="http://www.w3.org/1999/xlink" x="0px" y="0px"
	 width="12px" height="12px" viewBox="0 0 12 12" style="enable-background:new 0 0 12 12;" xml:space="preserve">
<style type="text/css">
	.st0{fill-rule:evenodd;clip-rule:evenodd;fill:#75829B;}
</style>
<title>Event Widget Indicators/in_play_indicator</title>
<desc>Created with Sketch.</desc>
<path class="st0" d="M7.6,6c0,0.4-0.2,0.9-0.5,1.2C6.9,7.5,6.4,7.6,6,7.6S5.1,7.5,4.8,7.2C4.5,6.9,4.4,6.4,4.4,6s0.2-0.9,0.5-1.2
	C5.1,4.5,5.6,4.4,6,4.4s0.9,0.2,1.2,0.5C7.5,5.1,7.6,5.6,7.6,6z M6.5,6c0,0.1-0.1,0.3-0.2,0.4C6.3,6.5,6.1,6.5,6,6.5
	S5.7,6.5,5.6,6.4C5.5,6.3,5.5,6.1,5.5,6s0.1-0.3,0.2-0.4C5.7,5.5,5.9,5.5,6,5.5s0.3,0.1,0.4,0.2C6.5,5.7,6.5,5.9,6.5,6z"/>
<path class="st0" d="M6,9.8c0.5,0,1-0.1,1.5-0.3c0.5-0.2,0.9-0.5,1.2-0.8c0.4-0.4,0.6-0.8,0.8-1.2C9.7,7,9.8,6.5,9.8,6
	S9.7,5,9.5,4.5C9.3,4.1,9.1,3.7,8.7,3.3C8.3,2.9,7.9,2.7,7.5,2.5C7,2.3,6.5,2.2,6,2.2c-1,0-2,0.4-2.7,1.1C2.6,4,2.2,5,2.2,6
	s0.4,2,1.1,2.7C4,9.4,5,9.8,6,9.8z M6,8.7c0.7,0,1.4-0.3,1.9-0.8S8.7,6.7,8.7,6c0-0.7-0.3-1.4-0.8-1.9C7.4,3.6,6.7,3.3,6,3.3
	S4.6,3.6,4.1,4.1C3.6,4.6,3.3,5.3,3.3,6c0,0.7,0.3,1.4,0.8,1.9C4.6,8.4,5.3,8.7,6,8.7z"/>
<path class="st0" d="M6,12c3.3,0,6-2.7,6-6c0-3.3-2.7-6-6-6S0,2.7,0,6C0,9.3,2.7,12,6,12z M6,10.9c0.6,0,1.3-0.1,1.9-0.4
	C8.5,10.3,9,9.9,9.5,9.5c0.5-0.5,0.8-1,1.1-1.6c0.2-0.6,0.4-1.2,0.4-1.9c0-0.6-0.1-1.3-0.4-1.9C10.3,3.5,9.9,3,9.5,2.5
	s-1-0.8-1.6-1.1C7.3,1.2,6.6,1.1,6,1.1c-1.3,0-2.6,0.5-3.5,1.4C1.6,3.4,1.1,4.7,1.1,6c0,1.3,0.5,2.6,1.4,3.5
	C3.4,10.4,4.7,10.9,6,10.9z"/>
</svg>
