<?xml version="1.0" encoding="utf-8"?>
<!-- Generator: Adobe Illustrator 26.2.1, SVG Export Plug-In . SVG Version: 6.00 Build 0)  -->
<svg version="1.1" id="圖層_1" xmlns="http://www.w3.org/2000/svg" xmlns:xlink="http://www.w3.org/1999/xlink" x="0px" y="0px"
	 viewBox="0 0 44 80" style="enable-background:new 0 0 44 80;" xml:space="preserve">
<style type="text/css">
	.st0{fill:#A78025;}
</style>
<path d="M10,12v16h24V12H10z M21.8,23.5C21.8,23.6,21.8,23.6,21.8,23.5l-8.2,0.1c-0.1,0-0.1,0-0.1-0.1v-1.1c0-0.1,0-0.1,0.1-0.1h2.9
	c0.1,0,0.1,0,0.1-0.1v-6c0-0.1,0-0.1,0.1-0.1H18c0.1,0,0.1,0,0.1,0.1v2.1c0,0.1,0,0.1,0.1,0.1h2.9c0.1,0,0.1,0,0.1,0.1v1.1
	c0,0.1,0,0.1-0.1,0.1h-2.9c-0.1,0-0.1,0-0.1,0.1v2.3c0,0.1,0,0.1,0.1,0.1h3.5c0.1,0,0.1,0,0.1,0.1V23.5z M30.5,21.7
	C30.5,21.8,30.5,21.8,30.5,21.7l-3.3,0.1c-0.1,0-0.1,0-0.1,0.1v2c0,0.1,0,0.1-0.1,0.1h-1.3c-0.1,0-0.1,0-0.1-0.1v-2
	c0-0.1,0-0.1-0.1-0.1h-3.2c-0.1,0-0.1,0-0.1-0.1v-1.1c0-0.1,0-0.1,0.1-0.1h3.2c0.1,0,0.1,0,0.1-0.1V20c0-0.1,0-0.1-0.1-0.1h-2.6
	c-0.1,0-0.1,0-0.1-0.1v-1.1c0-0.1,0-0.1,0.1-0.1h0.8c0.1,0,0.1-0.1,0.1-0.1c-0.2-0.5-0.5-1.1-0.8-1.6l-0.1-0.1c0-0.1,0-0.1,0-0.1
	l1.1-0.4c0,0,0.1,0,0.1,0l0,0.1c0.4,0.6,0.8,1.3,1,1.8l0,0.1c0,0.1,0,0.1-0.1,0.1l-0.3,0.1c-0.1,0-0.1,0.2,0,0.2h0.5
	c0.1,0,0.1,0,0.1-0.1v-2.4c0-0.1,0-0.1,0.1-0.1H27c0.1,0,0.1,0,0.1,0.1v2.4c0,0.1,0,0.1,0.1,0.1h0.5c0.1,0,0.1-0.2,0-0.2l-0.2-0.1
	c-0.1,0-0.1-0.1-0.1-0.1l0.1-0.1c0.3-0.5,0.7-1.2,0.9-1.8l0-0.1c0-0.1,0.1-0.1,0.1-0.1l1.3,0.4c0.1,0,0.1,0.1,0.1,0.1l0,0.1
	c-0.3,0.6-0.7,1.2-1,1.7c0,0.1,0,0.2,0.1,0.2h1c0.1,0,0.1,0,0.1,0.1v1.1c0,0.1,0,0.1-0.1,0.1h-2.8c-0.1,0-0.1,0-0.1,0.1v0.4
	c0,0.1,0,0.1,0.1,0.1h3.2c0.1,0,0.1,0,0.1,0.1V21.7z"/>
<path class="st0" d="M10,52v16h24V52H10z M21.8,63.5C21.8,63.6,21.8,63.6,21.8,63.5l-8.2,0.1c-0.1,0-0.1,0-0.1-0.1v-1.1
	c0-0.1,0-0.1,0.1-0.1h2.9c0.1,0,0.1,0,0.1-0.1v-6c0-0.1,0-0.1,0.1-0.1H18c0.1,0,0.1,0,0.1,0.1v2.1c0,0.1,0,0.1,0.1,0.1h2.9
	c0.1,0,0.1,0,0.1,0.1v1.1c0,0.1,0,0.1-0.1,0.1h-2.9c-0.1,0-0.1,0-0.1,0.1v2.3c0,0.1,0,0.1,0.1,0.1h3.5c0.1,0,0.1,0,0.1,0.1V63.5z
	 M30.5,61.7C30.5,61.8,30.5,61.8,30.5,61.7l-3.3,0.1c-0.1,0-0.1,0-0.1,0.1v2c0,0.1,0,0.1-0.1,0.1h-1.3c-0.1,0-0.1,0-0.1-0.1v-2
	c0-0.1,0-0.1-0.1-0.1h-3.2c-0.1,0-0.1,0-0.1-0.1v-1.1c0-0.1,0-0.1,0.1-0.1h3.2c0.1,0,0.1,0,0.1-0.1V60c0-0.1,0-0.1-0.1-0.1h-2.6
	c-0.1,0-0.1,0-0.1-0.1v-1.1c0-0.1,0-0.1,0.1-0.1h0.8c0.1,0,0.1-0.1,0.1-0.1c-0.2-0.5-0.5-1.1-0.8-1.6l-0.1-0.1c0-0.1,0-0.1,0-0.1
	l1.1-0.4c0,0,0.1,0,0.1,0l0,0.1c0.4,0.6,0.8,1.3,1,1.8l0,0.1c0,0.1,0,0.1-0.1,0.1l-0.3,0.1c-0.1,0-0.1,0.2,0,0.2h0.5
	c0.1,0,0.1,0,0.1-0.1v-2.4c0-0.1,0-0.1,0.1-0.1H27c0.1,0,0.1,0,0.1,0.1v2.4c0,0.1,0,0.1,0.1,0.1h0.5c0.1,0,0.1-0.2,0-0.2l-0.2-0.1
	c-0.1,0-0.1-0.1-0.1-0.1l0.1-0.1c0.3-0.5,0.7-1.2,0.9-1.8l0-0.1c0-0.1,0.1-0.1,0.1-0.1l1.3,0.4c0.1,0,0.1,0.1,0.1,0.1l0,0.1
	c-0.3,0.6-0.7,1.2-1,1.7c0,0.1,0,0.2,0.1,0.2h1c0.1,0,0.1,0,0.1,0.1v1.1c0,0.1,0,0.1-0.1,0.1h-2.8c-0.1,0-0.1,0-0.1,0.1v0.4
	c0,0.1,0,0.1,0.1,0.1h3.2c0.1,0,0.1,0,0.1,0.1V61.7z"/>
</svg>
