<svg xmlns="http://www.w3.org/2000/svg" xml:space="preserve" width="16" height="16" style="enable-background:new 0 0 16 16"><path d="m11.8 7.8.6-1A6.1 6.1 0 0 0 16 2.5c0-.4-.1-.7-.3-1-.3-.2-.7-.4-1-.4h-1.3V.8c0-.4-.4-.8-.9-.8H3.6a1 1 0 0 0-1 .8v.3H1.3c-.4 0-.7.1-1 .4-.2.3-.3.6-.3 1a6.5 6.5 0 0 0 3.5 4.3l.6 1c.7 1 1.6 1.7 2.5 2 .1.8-.5 1.6-1.5 1.8-.2.1-.3.2-.3.4v1.7H4c-.7 0-1.3.5-1.3 1.1v.9c0 .2.2.4.4.4h9.8c.2 0 .4-.2.4-.4v-.9c0-.6-.6-1.1-1.3-1.1h-.9V12c0-.2-.1-.4-.3-.4-1-.2-1.6-1-1.5-1.8 1-.3 1.8-1 2.5-2zm1.5-5.2v-.7h1.3l.4.1.1.3c-.2 1.3-1 2.5-2.3 3.3.3-.9.5-1.9.5-3zM.9 2.3c-.1-.1 0-.2.1-.3l.4-.1h1.2v.7c0 1 .2 2.1.5 3-1.1-.8-2-2-2.2-3.3zm6.2 9c.2-.4.4-.9.4-1.3h1c0 .6.2 1.2.7 1.6H6.8l.3-.3zm5 3.1c.2 0 .4.2.4.4v.5H3.6v-.5c0-.2.2-.4.4-.4h8.1z" style="fill-rule:evenodd;clip-rule:evenodd;fill:#a78025;fill-opacity:.64"/></svg>