<svg width="24" height="16" viewBox="0 0 24 16" fill="none" xmlns="http://www.w3.org/2000/svg">
<path fill-rule="evenodd" clip-rule="evenodd" d="M8 0C3.58172 0 0 3.58172 0 8C0 12.4183 3.58172 16 8 16H16C20.4183 16 24 12.4183 24 8C24 3.58172 20.4183 0 16 0H8ZM6 6.37259C6 6.48304 6.08954 6.57259 6.2 6.57259H7.68717C7.79763 6.57259 7.88717 6.66213 7.88717 6.77259V11.8C7.88717 11.9105 7.97671 12 8.08717 12H9.30315C9.41361 12 9.50315 11.9105 9.50315 11.8V4.33026C9.50315 4.2198 9.41361 4.13026 9.30315 4.13026H8.39155C8.28109 4.13026 8.18733 4.22013 8.16177 4.32759C8.15324 4.36347 8.14287 4.40263 8.13067 4.44505C8.06057 4.68024 7.95727 4.86838 7.82075 5.00949C7.62153 5.21574 7.36326 5.35324 7.04597 5.42198C6.87331 5.45961 6.58843 5.48909 6.19133 5.51041C6.08442 5.51615 6 5.60408 6 5.71115V6.37259ZM11.4309 11.8C11.4309 11.9105 11.5205 12 11.6309 12H12.9188C13.0293 12 13.1188 11.9105 13.1188 11.8V8.62876C13.1188 8.51831 13.2084 8.42876 13.3188 8.42876H16.1066C16.2171 8.42876 16.3066 8.51831 16.3066 8.62876V11.8C16.3066 11.9105 16.3961 12 16.5066 12H17.8C17.9105 12 18 11.9105 18 11.8V4.2C18 4.08954 17.9105 4 17.8 4H16.5066C16.3961 4 16.3066 4.08954 16.3066 4.2V6.8502C16.3066 6.96066 16.2171 7.0502 16.1066 7.0502H13.3188C13.2084 7.0502 13.1188 6.96066 13.1188 6.8502V4.2C13.1188 4.08954 13.0293 4 12.9188 4H11.6309C11.5205 4 11.4309 4.08954 11.4309 4.2V11.8Z" fill="white"/>
</svg>
