<svg width="16" height="16" viewBox="0 0 16 16" fill="none" xmlns="http://www.w3.org/2000/svg">
<path fill-rule="evenodd" clip-rule="evenodd" d="M5.80716 1.94088L5.93258 1.83142C5.93258 1.83142 5.52604 0.951412 6.2777 0.282575C6.94633 -0.349201 8.51281 0.0817512 8.16941 1.54182C8.1106 1.61508 7.92635 1.69265 7.80872 1.7142C7.80872 1.87796 7.83121 1.99862 7.85543 2.16756C8.04313 2.18221 8.36403 2.03138 8.58547 2.0581C8.62266 1.88744 8.69532 1.62801 8.69532 1.62801L8.76625 1.93312L8.94703 1.97191L8.97038 2.06585L12.3455 2.08137V2.22961H12.471V1.61939H12.573V2.10464L12.6829 2.2141L12.746 2.15118L12.8014 2.20634V2.40975L13.7433 2.43302L13.8143 2.36235C13.8143 2.36235 14.0063 2.4132 14.3713 2.39338C14.3826 2.5218 14.3791 2.6123 14.3791 2.6123C14.3791 2.6123 13.9596 2.58644 13.8376 2.63557C13.7226 2.56748 13.6966 2.5649 13.6966 2.5649H12.7936C12.7936 2.5649 12.7028 2.65022 12.3853 2.55714C12.3758 2.6554 12.3853 2.74848 12.3222 2.76055C12.259 2.77261 10.9719 2.76055 10.9719 2.76055L10.8067 2.8545C10.8067 2.8545 10.7488 3.04411 10.414 3.26907C10.3656 3.48713 10.555 4.11374 10.555 4.11374C10.555 4.11374 10.3007 4.16373 10.28 4.20768C10.1943 4.3068 10.2756 4.89117 9.89505 5.12303C9.71081 5.20663 9.59749 5.53329 9.165 5.39711C8.87091 5.37729 7.86235 4.82653 7.86235 4.82653C7.86235 4.82653 7.81045 5.03425 7.76028 5.21783C8.3329 5.37556 8.08378 5.85133 8.06648 6.81322C8.03015 7.00025 7.87878 7.4493 7.68935 7.36828C7.56479 7.34243 7.44629 7.30537 7.44629 7.30537L7.35979 7.47775C7.35979 7.47775 7.43678 7.88026 7.46965 7.94662C7.50251 8.01299 8.42372 8.79818 9.04737 11.1451C9.03266 11.4692 8.81382 13.2077 8.81209 13.5697C8.8095 13.9317 8.76019 14.3868 8.93752 14.5712C9.43315 15.2952 9.70735 15.1202 10.0127 15.3452C10.0326 15.4383 10.0603 15.6546 10.0205 15.6969C9.88467 15.7201 9.18403 15.7805 8.87437 15.7201C8.56471 15.6598 8.33981 15.521 7.97133 15.6107C7.85975 15.6098 7.56047 15.5814 7.58642 15.4547C7.61237 15.328 7.70924 14.7333 7.81391 14.5712C7.82083 14.3307 7.78277 13.6559 7.78277 13.6559C7.78277 13.6559 7.2041 11.8355 7.63399 11.7399C7.67465 11.3175 7.666 11.0357 7.50857 10.9659C7.3745 10.984 7.15912 11.14 6.85724 10.6608C6.55536 10.1815 6.2137 9.69887 6.2137 9.69887C6.2137 9.69887 5.87203 9.8023 5.67222 9.26878C5.60994 9.34204 5.57015 9.45926 5.53901 9.55062C5.50874 9.59372 5.10566 9.83333 4.87211 11.146C4.83405 11.2451 4.61781 11.3391 4.59705 11.4279C4.50796 11.8045 4.25192 11.6459 4.1265 12.2182C4.14294 12.332 4.1931 12.5535 4.07979 12.7974C3.63779 13.5292 3.74937 13.9834 3.38089 14.0722C3.30996 14.1825 2.91034 14.9315 3.19232 15.5891C3.21222 15.6865 3.21481 15.921 3.19232 15.9563C3.0868 15.9709 2.44585 16.0554 2.06958 15.9408C1.8369 15.4098 2.25209 14.8462 2.37578 13.9308C2.32129 13.8532 2.0938 13.5559 2.57992 12.8672C2.63009 12.5354 2.57646 12.2303 3.16897 11.5218C3.24941 11.1253 3.47604 11.2115 3.36532 10.6065C3.36791 10.4892 3.56945 9.17483 3.56945 9.17483C3.56945 9.17483 3.18367 7.97334 3.68709 8.05608C3.68277 7.7639 3.52188 6.68824 3.56945 6.43743C3.70958 6.32107 3.98551 6.24178 3.98551 6.24178L3.43625 6.13231C3.43625 6.13231 3.33505 6.05733 3.4596 5.56173C3.50285 5.16353 3.5461 4.52917 3.5461 4.52917C3.5461 4.52917 4.08671 4.45074 4.19743 4.41195C3.80646 2.57007 5.18005 1.36254 5.80629 1.94002L5.80716 1.94088Z" fill="white"/>
</svg>
