<svg width="16" height="16" viewBox="0 0 16 16" fill="none" xmlns="http://www.w3.org/2000/svg">
<g clip-path="url(#clip0_577_625)">
<path fill-rule="evenodd" clip-rule="evenodd" d="M15.863 0H0.666626V12.274L8.33786 16L15.863 12.274V0ZM14.7494 1.17241H1.78015V11.6476L8.32715 14.8276L14.7494 11.6476V1.17241ZM2.45148 1.81208H5.01164V12.4087L2.45148 11.2348V8.24785L2.8783 7.64301V4.47802L2.45148 3.73238V1.81208ZM7.96286 1.81208H5.68725V12.6218L7.96286 13.6177V1.81208ZM10.879 1.81208H8.60343V13.6177L10.879 12.6218V1.81208ZM14.1148 1.81208H11.5546V12.4087L14.1148 11.2355V8.24858L13.688 7.64374V4.47875L14.1148 3.73238V1.81208Z" fill="white"/>
</g>
<defs>
<clipPath id="clip0_577_625">
<rect width="16" height="16" fill="white"/>
</clipPath>
</defs>
</svg>
