<?xml version="1.0" encoding="UTF-8"?>
<svg width="16px" height="16px" viewBox="0 0 16 16" version="1.1" xmlns="http://www.w3.org/2000/svg" xmlns:xlink="http://www.w3.org/1999/xlink">
    <!-- Generator: Sketch 55.1 (78136) - https://sketchapp.com -->
    <title>Button Icons/search</title>
    <desc>Created with Sketch.</desc>
    <g id="Icons" stroke="none" stroke-width="1" fill="none" fill-rule="evenodd">
        <g id="Button-Icons/search" fill="#A78025">
            <path d="M15.6643357,14.2222701 L11.4871795,10.0304431 C12.2331002,8.98248635 12.6806527,7.70994788 12.6806527,6.36257493 C12.6806527,2.84441487 9.84615385,0 6.34034584,0 C2.83453784,0 0,2.84445401 0,6.36257493 C0,9.88069585 2.83449883,12.7251499 6.34030684,12.7251499 C7.68296418,12.7251499 8.95104895,12.2760255 9.995338,11.527485 L14.1724942,15.719312 C14.545435,16.0935627 15.2167832,16.0935627 15.6643357,15.719312 L15.6643357,15.719312 C16.1118881,15.2702268 16.1118881,14.6713552 15.6643357,14.2222701 Z M6.34030684,11.2281079 C3.65499215,11.2281079 1.49184149,9.05732084 1.49184149,6.36261407 C1.49184149,3.66786816 3.65499215,1.4971202 6.34030684,1.4971202 C9.02562152,1.4971202 11.1887722,3.66786816 11.1887722,6.36261407 C11.1887722,9.05732084 9.02562152,11.2281079 6.34030684,11.2281079 Z" id="search"></path>
        </g>
    </g>
</svg>