<svg xmlns="http://www.w3.org/2000/svg" xmlns:xlink="http://www.w3.org/1999/xlink" xml:space="preserve" id="Layer_1" x="0" y="0" style="enable-background:new 0 0 80 16" version="1.1" viewBox="0 0 80 16"><style>.st1{fill:#4c8340}.st2{fill:#3e2417}.st3{fill:#fff}.st4{fill:#c4996c}.st5{fill-rule:evenodd;clip-rule:evenodd;fill:#625853}.st7{fill:#5c5c5c}</style><defs><path id="SVGID_1_" d="M0 0h16v16H0z"/></defs><clipPath id="SVGID_2_"><use xlink:href="#SVGID_1_" style="overflow:visible"/></clipPath><g style="clip-path:url(#SVGID_2_)"><path d="M14.7 0H1.3C.6 0 0 .6 0 1.3v13.3c0 .8.6 1.4 1.3 1.4h13.3c.7 0 1.3-.6 1.3-1.3V1.3C16 .6 15.4 0 14.7 0z" class="st1"/><path d="M5.6 9.3C5.6 9.2 6.8 8 6.8 8l1-1 1.1.7s1.4 1.5 1.5 1.6v.8l-2 2.1-.9-.2-1.8-1.7-.3-.8.2-.2z" class="st2"/><path d="M7.3 9.5c0-.2.1-.4.2-.5.2-.1.4-.2.5-.2.4 0 .7.4.7.7 0 .2-.1.4-.2.5-.1.1-.3.2-.5.2-.4.1-.7-.3-.7-.7zM16 4.8c0 .1-.1.2-.1.2l-5.4 5.4c-.5.5-1 1-1.6 1.5 0 .1.1.2.1.3 0 .5-.4.9-.9.9h-.2c-.4-.1-.7-.4-.7-.9 0-.1 0-.2.1-.3L1.9 6.5.3 5.1.2 5C.1 5 0 4.9 0 4.8s0-.2.1-.2c.1-.1.1-.1.2-.1s.2.1.2.1c.2.1.3.2.5.4s.4.4.6.7c.1.1.1.1.1 0C3 4.5 4.6 3.8 6.3 3.5c2.9-.5 5.6.2 7.9 2.1.1.1.1.1.2 0 .2-.3.5-.5.7-.7l.2-.2c.1-.1.1-.1.2-.1s.1 0 .2.1c.3-.1.3 0 .3.1zm-9.9 5.3.3.3 1.1 1.1.1.1c.3-.1.6-.1.8 0l1-1 .5-.5c-.2-.1-.3-.3-.3-.5s.1-.4.2-.5L8.5 7.7c-.1.1-.3.2-.5.2s-.4-.1-.5-.2L6.2 9c.2.1.3.3.3.6 0 .2-.1.4-.4.5zm2.2-3.5.5.5 2 2 .1.1.1-.1c.8-.8 1.6-1.7 2.4-2.4l.2-.2.3-.3C12.3 4.7 10.2 4 8 4h-.1c-2.2 0-4.3.8-5.8 2.1l.8.8L5 9h.1l.1-.1 2-2 .5-.5c.3-.1.3-.1.6.2z" class="st3"/><path d="M1.9 6.1c3.2-3 8.8-3.2 12.1 0-.1.1-.3.2-.4.4L11 9.1c-.1.1-.2.1-.3 0-.8-.8-1.7-1.6-2.5-2.4-.2-.3-.2-.3-.4 0-.9.8-1.7 1.6-2.5 2.5-.1.1-.2.1-.3 0L1.9 6.1c.1.1.1.1 0 0z" class="st4"/><path d="M14.7.7H1.3c-.3 0-.6.3-.6.6v13.3c0 .4.3.7.7.7h13.3c.4 0 .7-.3.7-.7V1.3c-.1-.3-.4-.6-.7-.6zM1.3 0C.6 0 0 .6 0 1.3v13.3c0 .8.6 1.4 1.3 1.4h13.3c.7 0 1.3-.6 1.3-1.3V1.3C16 .6 15.4 0 14.7 0H1.3z" class="st5"/></g><defs><path id="SVGID_3_" d="M64 0h16v16H64z"/></defs><clipPath id="SVGID_4_"><use xlink:href="#SVGID_3_" style="overflow:visible"/></clipPath><g style="clip-path:url(#SVGID_4_)"><path d="M78.7 0H65.3c-.7 0-1.3.6-1.3 1.3v13.3c0 .7.6 1.3 1.3 1.3h13.3c.7 0 1.3-.6 1.3-1.3V1.3C80 .6 79.4 0 78.7 0z" class="st7"/><path d="M69.6 9.3c0-.1 1.2-1.3 1.2-1.3l1-1 1.1.7s1.4 1.5 1.5 1.6v.8l-2 2.1-.9-.2-1.8-1.7-.3-.7.2-.3z" class="st7"/><path d="M71.3 9.5c0-.2.1-.4.2-.5.1-.1.3-.2.5-.2.4 0 .7.4.7.7 0 .2-.1.4-.2.5-.1.1-.3.2-.5.2-.4.1-.7-.3-.7-.7zM80 4.8c0 .1-.1.2-.1.2l-5.4 5.4c-.5.5-1 1-1.6 1.5 0 .1.1.2.1.3 0 .5-.4.9-.9.9h-.2c-.4-.1-.7-.4-.7-.9 0-.1 0-.2.1-.3l-5.4-5.4-1.4-1.4-.1-.1c-.3 0-.4-.1-.4-.2s0-.2.1-.2c.1-.1.1-.1.2-.1s.2.1.2.1c.2.1.3.2.5.4s.4.4.6.7c.1.1.1.1.1 0 1.3-1.2 2.9-1.9 4.6-2.2 2.9-.5 5.6.2 7.9 2.1.1.1.1.1.2 0 .2-.3.5-.5.7-.7l.2-.2c.1-.1.1-.1.2-.1s.1 0 .2.1c.3-.1.3 0 .3.1zm-9.9 5.3.3.3 1.1 1.1.1.1c.3-.1.6-.1.8 0l.9-.9.5-.5c-.2-.1-.3-.3-.3-.5s.1-.4.2-.5l-1.4-1.4c-.1.2-.3.2-.5.2s-.4-.1-.5-.2L70.2 9c.2.1.3.3.3.6 0 .2-.1.4-.4.5zm2.2-3.5.5.5 2 2 .1.1.1-.1c.8-.8 1.6-1.7 2.4-2.4l.2-.2.3-.3C76.3 4.7 74.2 4 72 4h-.1c-2.2 0-4.3.8-5.8 2.2l.8.8L69 9.1h.1l.1-.1 2-2 .5-.5c.3-.2.3-.2.6.1z" class="st3"/><path d="M65.9 6.1c3.2-3 8.8-3.2 12.1 0-.1.1-.3.2-.4.4L75 9.1c-.1.1-.2.1-.3 0l-2.5-2.5c-.2-.2-.2-.2-.4 0l-2.5 2.5c-.1.1-.2.1-.3 0-1-.9-2-1.9-3.1-3 .1.1.1.1 0 0z" class="st7"/><path d="M78.7.7H65.3c-.4 0-.7.3-.7.7v13.3c0 .4.3.7.7.7h13.3c.4 0 .7-.3.7-.7V1.3c0-.3-.3-.6-.6-.6zM65.3 0c-.7 0-1.3.6-1.3 1.3v13.3c0 .7.6 1.3 1.3 1.3h13.3c.7 0 1.3-.6 1.3-1.3V1.3C80 .6 79.4 0 78.7 0H65.3z" style="fill-rule:evenodd;clip-rule:evenodd;fill:#5c5c5c"/></g><defs><path id="SVGID_5_" d="M32 0h16v16H32z"/></defs><clipPath id="SVGID_6_"><use xlink:href="#SVGID_5_" style="overflow:visible"/></clipPath><g style="clip-path:url(#SVGID_6_)"><path d="M46.7 0H33.3c-.7 0-1.3.6-1.3 1.3v13.3c0 .7.6 1.3 1.3 1.3h13.3c.7 0 1.3-.6 1.3-1.3V1.3C48 .6 47.4 0 46.7 0z" class="st1"/><path d="M37.6 9.3c0-.1 1.2-1.3 1.2-1.3l1-1 1.1.7s1.4 1.5 1.5 1.6v.8l-2 2.1-.9-.2-1.8-1.7-.3-.7.2-.3z" class="st2"/><path d="M39.3 9.5c0-.2.1-.4.2-.5.1-.1.3-.2.5-.2.4 0 .7.4.7.7 0 .2-.1.4-.2.5-.1.1-.3.2-.5.2-.4.1-.7-.3-.7-.7zM48 4.8c0 .1-.1.2-.1.2l-5.4 5.4c-.5.5-1 1-1.6 1.5 0 .1.1.2.1.3 0 .5-.4.9-.9.9h-.2c-.4-.1-.7-.4-.7-.9 0-.1 0-.2.1-.3l-5.4-5.4-1.4-1.4-.1-.1c-.3 0-.4-.1-.4-.2s0-.2.1-.2c.1-.1.1-.1.2-.1s.2.1.2.1c.2.1.3.2.5.4s.4.4.6.7c.1.1.1.1.1 0 1.3-1.2 2.9-1.9 4.6-2.2 2.9-.5 5.6.2 7.9 2.1.1.1.1.1.2 0 .2-.3.5-.5.7-.7l.2-.2c.1-.1.1-.1.2-.1s.1 0 .2.1c.3-.1.3 0 .3.1zm-9.9 5.3.3.3 1.1 1.1.1.1c.3-.1.6-.1.8 0l.9-.9.5-.5c-.2-.1-.3-.3-.3-.5s.1-.4.2-.5l-1.4-1.4c-.1.2-.3.2-.5.2s-.4-.1-.5-.2L38.2 9c.2.1.3.3.3.6 0 .2-.1.4-.4.5zm2.2-3.5.5.5 2 2 .1.1.1-.1c.8-.8 1.6-1.7 2.4-2.4l.2-.2.3-.3C44.3 4.7 42.2 4 40 4h-.1c-2.2 0-4.3.8-5.8 2.2l.8.8L37 9.1h.1l.1-.1 2-2 .5-.5c.3-.2.3-.2.6.1z" class="st3"/><path d="M33.9 6.1c3.2-3 8.8-3.2 12.1 0-.1.1-.3.2-.4.4L43 9.1c-.1.1-.2.1-.3 0l-2.5-2.5c-.2-.2-.2-.2-.4 0l-2.5 2.5c-.1.1-.2.1-.3 0-1-.9-2-1.9-3.1-3 .1.1.1.1 0 0z" class="st4"/><path d="M46.7.7H33.3c-.4 0-.7.3-.7.7v13.3c0 .4.3.7.7.7h13.3c.4 0 .7-.3.7-.7V1.3c0-.3-.3-.6-.6-.6zM33.3 0c-.7 0-1.3.6-1.3 1.3v13.3c0 .7.6 1.3 1.3 1.3h13.3c.7 0 1.3-.6 1.3-1.3V1.3C48 .6 47.4 0 46.7 0H33.3z" class="st5"/></g></svg>