<?xml version="1.0" encoding="UTF-8"?>
<svg width="24px" height="24px" viewBox="0 0 24 24" version="1.1" xmlns="http://www.w3.org/2000/svg" xmlns:xlink="http://www.w3.org/1999/xlink">
    <!-- Generator: Sketch 55.1 (78136) - https://sketchapp.com -->
    <title>Menu Panel/home</title>
    <desc>Created with Sketch.</desc>
    <g id="Icons" stroke="none" stroke-width="1" fill="none" fill-rule="evenodd" fill-opacity="0.64">
        <g id="Menu-Panel/home" fill="#FFFFFF">
            <path d="M17.6976804,11.8402072 C17.9559873,11.8402072 18.1697661,12.0533199 18.1697661,12.3310561 L18.1697661,19.5262802 C18.1697661,19.7850242 17.9559873,20 17.6976804,20 L13.2611299,20 C12.9849618,20 12.7711551,19.7850242 12.7711551,19.5262802 L12.7711551,16.7885713 L11.2211194,16.7885713 L11.2211194,19.5262802 C11.2211194,19.7850242 11.0073128,20 10.7490337,20 L6.29462196,20 C6.03634286,20 5.82253621,19.7850242 5.82253621,19.5262802 L5.82253621,12.5536232 C5.82253621,12.2948514 6.03634286,12.0799034 6.29462196,12.0799034 C6.57095671,12.0799034 6.78456892,12.2948514 6.78456892,12.5536232 L6.78456892,19.0354313 L10.2501422,19.0354313 L10.2501422,16.2977502 C10.2501422,16.0408971 10.4726989,15.8164113 10.7490337,15.8164113 L13.2611299,15.8164113 C13.5196034,15.8164113 13.7334101,16.0409249 13.7334101,16.2977502 L13.7334101,19.0354313 L17.2077334,19.0354313 L17.2077334,12.3310283 C17.2077334,12.0532921 17.4215679,11.8402072 17.6976804,11.8402072 Z M20.3612774,12.2226088 C20.5528339,12.4166738 20.5395283,12.7400968 20.3612774,12.9189235 C20.2631935,12.9988408 20.1474707,13.0444999 20.0138589,13.0444999 C19.8623859,13.0444999 19.7462464,12.9988408 19.6664405,12.9189235 L12.0050957,5.17765361 L4.32588965,12.8466254 C4.13374978,13.0387716 3.82699821,13.0520912 3.64891396,12.8466254 C3.4440518,12.6696895 3.45677409,12.3614769 3.64891396,12.1693306 L11.6576772,4.15221543 C11.7555666,4.05516906 11.8714839,4 12.0050957,4 C12.1208463,4 12.2369302,4.05327818 12.3346529,4.15221543 L15.5238915,7.36364411 L15.5238915,5.68563161 C15.5238915,5.40978632 15.7376703,5.1967014 15.9961439,5.1967014 C16.2722842,5.1967014 16.4950353,5.40975851 16.4950353,5.68563161 L16.4950353,8.3358041 L20.3612774,12.2226088 Z" id="home"></path>
        </g>
    </g>
</svg>