<svg xmlns="http://www.w3.org/2000/svg" xml:space="preserve" id="Layer_1" width="80" height="16" x="0" y="0" style="enable-background:new 0 0 80 16" version="1.1"><style>.st1,.st2,.st4,.st5{fill-rule:evenodd;clip-rule:evenodd;fill:#195b87}.st2,.st4,.st5{fill:#ee3734}.st4,.st5{fill:#268dc9}.st5{fill:#f75551}</style><g id="Icons"><g id="match_tracker_ice_hockey_normal"><path id="Rectangle" d="M1.3.7h13.3c.4 0 .7.3.7.7v13.3c0 .4-.3.7-.7.7H1.3c-.4 0-.7-.3-.7-.7V1.3c.1-.3.4-.6.7-.6z" style="fill-rule:evenodd;clip-rule:evenodd;fill:#eef6fc"/><path id="Fill-1" d="M5.5 15.9c-.2 0-.3-.1-.3-.3V.5c0-.2.1-.3.3-.3.2 0 .3.1.3.3v15.1c0 .2-.1.3-.3.3" class="st1"/><path id="Fill-3" d="M8 15.9c-.2 0-.3-.1-.3-.3V.4c0-.2.1-.3.3-.3.2 0 .3.1.3.3v15.2c0 .2-.1.3-.3.3" class="st2"/><path id="Fill-5" d="M.6 9.6c-.2 0-.3-.1-.3-.3S.4 9 .6 9c.6 0 1.1-.5 1.1-1.1 0-.6-.5-1.1-1.1-1.1-.2 0-.3-.1-.3-.3 0-.2.1-.3.3-.3 1 0 1.7.8 1.7 1.7 0 .9-.8 1.7-1.7 1.7" class="st1"/><path id="Combined-Shape" d="M13 5.4c-.9 0-1.7-.7-1.7-1.7S12 2 13 2c.9 0 1.7.7 1.7 1.7s-.8 1.7-1.7 1.7zm0-2.7c-.6 0-1 .5-1 1s.5 1 1 1c.6 0 1-.5 1-1s-.4-1-1-1z" class="st2"/><path id="Fill-9" d="M10.5 16c-.2 0-.3-.1-.3-.3V.5c0-.2.1-.3.3-.3s.3.1.3.3v15.2c0 .2-.1.3-.3.3" class="st1"/><path d="M8 9.6c-1 0-1.7-.8-1.7-1.7S7 6.1 8 6.1s1.7.8 1.7 1.7S9 9.6 8 9.6zm0-2.9c-.6 0-1.1.5-1.1 1.1C6.9 8.5 7.4 9 8 9s1.1-.5 1.1-1.1c0-.7-.5-1.2-1.1-1.2z" class="st1"/><path id="Fill-13" d="M15.4 9.6c-1 0-1.7-.8-1.7-1.7 0-1 .8-1.7 1.7-1.7.2 0 .3.1.3.3 0 .2-.1.3-.3.3-.6 0-1.1.5-1.1 1.1 0 .6.5 1.1 1.1 1.1.2 0 .3.1.3.3s-.1.3-.3.3" class="st1"/><path id="Fill-15" d="M1.7.8c-.5 0-.9.4-.9.9v12.6c0 .5.4.9.9.9h12.6c.5 0 .9-.4.9-.9V1.7c0-.5-.4-.9-.9-.9H1.7zM14.3 16H1.7C.8 16 0 15.2 0 14.3V1.7C0 .8.8 0 1.7 0h12.6c.9 0 1.7.8 1.7 1.7v12.6c0 .9-.8 1.7-1.7 1.7z" class="st1"/><path d="M13 13.6c-.9 0-1.7-.7-1.7-1.7 0-.9.7-1.7 1.7-1.7.9 0 1.7.7 1.7 1.7-.1 1-.8 1.7-1.7 1.7zm0-2.7c-.6 0-1 .5-1 1 0 .6.5 1 1 1 .6 0 1-.5 1-1s-.4-1-1-1zM3 5.4c-.9 0-1.7-.7-1.7-1.7S2.1 2.1 3 2.1s1.7.7 1.7 1.7S3.9 5.4 3 5.4zm0-2.7c-.6 0-1 .5-1 1s.5 1 1 1 1-.5 1-1-.4-1-1-1zM3 13.6c-.9 0-1.7-.7-1.7-1.7 0-.9.7-1.7 1.7-1.7s1.7.7 1.7 1.7-.8 1.7-1.7 1.7zm0-2.7c-.6 0-1 .5-1 1 0 .6.5 1 1 1s1-.5 1-1c.1-.5-.4-1-1-1z" class="st2"/></g></g><g id="Icons_1_"><g id="match_tracker_ice_hockey_active"><path id="Rectangle_1_" d="M33.3.7h13.3c.4 0 .7.3.7.7v13.3c0 .4-.3.7-.7.7H33.3c-.4 0-.7-.3-.7-.7V1.3c.1-.3.4-.6.7-.6z" style="fill-rule:evenodd;clip-rule:evenodd;fill:#f7fbfd"/><path id="Fill-1_1_" d="M37.5 15.9c-.2 0-.3-.1-.3-.3V.5c0-.2.1-.3.3-.3.2 0 .3.1.3.3v15.1c0 .2-.1.3-.3.3" class="st4"/><path id="Fill-3_1_" d="M40 15.9c-.2 0-.3-.1-.3-.3V.4c0-.2.1-.3.3-.3s.3.1.3.3v15.2c0 .2-.1.3-.3.3" class="st2"/><path id="Fill-5_1_" d="M32.6 9.6c-.2 0-.3-.1-.3-.3s.1-.3.3-.3c.6 0 1.1-.5 1.1-1.1 0-.6-.5-1.1-1.1-1.1-.2 0-.3-.1-.3-.3 0-.2.1-.3.3-.3 1 0 1.7.8 1.7 1.7 0 .9-.8 1.7-1.7 1.7" class="st4"/><path id="Combined-Shape_1_" d="M45 5.4c-.9 0-1.7-.7-1.7-1.7S44 2 45 2c.9 0 1.7.7 1.7 1.7s-.8 1.7-1.7 1.7zm0-2.7c-.6 0-1 .5-1 1s.5 1 1 1c.6 0 1-.5 1-1s-.4-1-1-1z" class="st5"/><path id="Fill-9_1_" d="M42.5 16c-.2 0-.3-.1-.3-.3V.5c0-.2.1-.3.3-.3s.3.1.3.3v15.2c0 .2-.1.3-.3.3" class="st4"/><path d="M40 9.6c-1 0-1.7-.8-1.7-1.7S39 6.1 40 6.1s1.7.8 1.7 1.7S41 9.6 40 9.6zm0-2.9c-.6 0-1.1.5-1.1 1.1 0 .7.5 1.2 1.1 1.2s1.1-.5 1.1-1.1c0-.7-.5-1.2-1.1-1.2z" class="st4"/><path id="Fill-13_1_" d="M47.4 9.6c-1 0-1.7-.8-1.7-1.7 0-1 .8-1.7 1.7-1.7.2 0 .3.1.3.3 0 .2-.1.3-.3.3-.6 0-1.1.5-1.1 1.1 0 .6.5 1.1 1.1 1.1.2 0 .3.1.3.3s-.1.3-.3.3" class="st4"/><path id="Fill-15_1_" d="M33.7.8c-.5 0-.9.4-.9.9v12.6c0 .5.4.9.9.9h12.6c.5 0 .9-.4.9-.9V1.7c0-.5-.4-.9-.9-.9H33.7zM46.3 16H33.7c-.9 0-1.7-.8-1.7-1.7V1.7c0-.9.8-1.7 1.7-1.7h12.6c.9 0 1.7.8 1.7 1.7v12.6c0 .9-.8 1.7-1.7 1.7z" class="st4"/><path d="M45 13.6c-.9 0-1.7-.7-1.7-1.7 0-.9.7-1.7 1.7-1.7.9 0 1.7.7 1.7 1.7-.1 1-.8 1.7-1.7 1.7zm0-2.7c-.6 0-1 .5-1 1 0 .6.5 1 1 1 .6 0 1-.5 1-1s-.4-1-1-1zM35 5.4c-.9 0-1.7-.7-1.7-1.7S34 2 35 2s1.7.7 1.7 1.7-.8 1.7-1.7 1.7zm0-2.7c-.6 0-1 .5-1 1s.5 1 1 1c.6 0 1-.5 1-1s-.4-1-1-1zM35 13.6c-.9 0-1.7-.7-1.7-1.7 0-.9.7-1.7 1.7-1.7s1.7.7 1.7 1.7-.8 1.7-1.7 1.7zm0-2.7c-.6 0-1 .5-1 1 0 .6.5 1 1 1 .6 0 1-.5 1-1 .1-.5-.4-1-1-1z" class="st5"/></g></g><path d="M78.3 0c.9 0 1.7.8 1.7 1.7v12.6c0 .9-.8 1.7-1.7 1.7H65.7c-.9 0-1.7-.8-1.7-1.7V1.7c0-.9.8-1.7 1.7-1.7h12.6zm-9.1.8h-3.5c-.5 0-.9.4-.9.9v4.4c.9.1 1.6.8 1.6 1.7s-.7 1.6-1.6 1.7v4.7c0 .5.4.9.9.9h3.5V.8zm2.5 0h-1.9v14.5h1.9V9.6c-.8-.1-1.4-.9-1.4-1.7 0-.9.6-1.6 1.4-1.7V.8zm2.5 0h-1.9v5.4c.8.1 1.4.9 1.4 1.7 0 .9-.6 1.6-1.4 1.7v5.7h1.9V.8zm4.1 0h-3.5v14.5h3.5c.5 0 .9-.4.9-.9V9.6c-.9-.1-1.6-.8-1.6-1.7s.7-1.7 1.6-1.7V1.7c0-.5-.4-.9-.9-.9zM77 10.6c.7 0 1.4.6 1.4 1.4s-.6 1.4-1.4 1.4c-.7 0-1.4-.6-1.4-1.4 0-.8.6-1.4 1.4-1.4zm-10 0c.7 0 1.4.6 1.4 1.4s-.6 1.4-1.4 1.4c-.7 0-1.4-.6-1.4-1.4.1-.8.7-1.4 1.4-1.4zm10-8.2c.7 0 1.4.6 1.4 1.4 0 .7-.6 1.4-1.4 1.4-.7 0-1.4-.6-1.4-1.4 0-.8.6-1.4 1.4-1.4zm-10 0c.7 0 1.4.6 1.4 1.4 0 .7-.6 1.4-1.4 1.4-.7 0-1.4-.6-1.4-1.4.1-.8.7-1.4 1.4-1.4z" style="fill-rule:evenodd;clip-rule:evenodd;fill-opacity:.64"/></svg>