<svg xmlns="http://www.w3.org/2000/svg" width="16" height="16" viewBox="0 0 16 16">
    <path fill-opacity=".64" fill-rule="evenodd" d="M14.624.039c.713 0 1.303.549 1.37 1.245l.006.132v2.146h-.76c-2.224 0-4.047 1.755-4.155 3.953l-.005.207v.634c0 2.224 1.755 4.047 3.952 4.155l.208.005H16v2.148c0 .711-.547 1.301-1.243 1.368l-.133.007H8.32v-5.867c1.042-.157 1.845-1.048 1.845-2.133 0-1.03-.725-1.886-1.69-2.103l-.155-.03V.04h6.304zm-6.944 0v5.868c-1.04.157-1.844 1.049-1.844 2.132 0 1.03.725 1.886 1.69 2.104l.154.029v5.867H1.377c-.712 0-1.304-.548-1.37-1.244L0 14.663v-2.146h.762c2.224 0 4.046-1.755 4.155-3.954l.005-.207v-.634c0-2.225-1.755-4.047-3.952-4.155L.762 3.56H0V1.416C0 .703.55.112 1.245.046l.132-.007H7.68zM16 4.202v2.159h-1.898c-.926 0-1.68.753-1.68 1.678 0 .877.677 1.6 1.535 1.673l.145.006H16v2.158h-.76c-1.877 0-3.415-1.476-3.515-3.327l-.005-.193v-.634c0-1.876 1.475-3.414 3.327-3.514l.193-.006H16zm-15.238 0c1.876 0 3.413 1.476 3.514 3.327l.005.193v.634c0 1.876-1.475 3.414-3.326 3.514l-.193.005H0V9.687l1.9.03c.925 0 1.678-.752 1.678-1.678 0-.876-.676-1.598-1.534-1.672l-.145-.006H0V4.203h.762zm7.559 2.349c.687.147 1.204.758 1.204 1.488 0 .682-.45 1.26-1.07 1.453l-.134.036V6.55zm-.64 0v2.977C6.993 9.38 6.476 8.77 6.476 8.04c0-.73.517-1.34 1.203-1.489zM16 7v2.077h-1.9c-.572 0-1.037-.466-1.037-1.039 0-.534.405-.975.925-1.031l.113-.006H16zm-14.102 0c.572 0 1.038.466 1.038 1.038 0 .535-.406.976-.92 1.032l-.112.006-1.9-.03H0V7h1.9z"/>
</svg>
