<svg xmlns="http://www.w3.org/2000/svg" width="24" height="24"><path fill="#FFF" fill-opacity=".6" fill-rule="evenodd" d="M2 12A10.1 10.1 0 0 1 12 2a10.1 10.1 0 0 1 10 10 10.1 10.1 0 0 1-10 10A10.1 10.1 0 0 1 2 12Zm2.9 4.8c.8 1 1.8 1.7 3 2.3a9.6 9.6 0 0 0 8 0 8.3 8.3 0 0 0 3.2-2.3c0-.5-.3-1-.7-1.3-.3-.4-.8-.6-1.3-.7l-1.3-.3a6.1 6.1 0 0 1-3.8 1.2c-1.4 0-2.7-.4-3.8-1.2l-1.3.3c-.5.1-1 .3-1.3.7-.4.4-.6.8-.7 1.3Zm2.8-6.6A4.3 4.3 0 0 0 9.8 14a4.3 4.3 0 0 0 4.4 0 4.3 4.3 0 0 0 2.1-3.8 4.3 4.3 0 0 0-2.1-3.7 4.3 4.3 0 0 0-4.4 0 4.3 4.3 0 0 0-2.1 3.7Z"/></svg>