<?xml version="1.0" encoding="utf-8"?>
<!-- Generator: Adobe Illustrator 23.0.3, SVG Export Plug-In . SVG Version: 6.00 Build 0)  -->
<svg version="1.1" id="Layer_1" xmlns="http://www.w3.org/2000/svg" xmlns:xlink="http://www.w3.org/1999/xlink" x="0px" y="0px"
	 width="72px" height="216px" viewBox="0 0 72 216" style="enable-background:new 0 0 72 216;" xml:space="preserve">
<style type="text/css">
	.st0{fill-rule:evenodd;clip-rule:evenodd;fill:#FFFFFF;fill-opacity:0.64;}
	.st1{fill-rule:evenodd;clip-rule:evenodd;fill:#FFFFFF;fill-opacity:0.8;}
	.st2{fill-rule:evenodd;clip-rule:evenodd;fill:#151B6D;}
	.st3{fill-rule:evenodd;clip-rule:evenodd;fill:#313B99;}
	.st4{fill-rule:evenodd;clip-rule:evenodd;fill:#FFFFFF;}
</style>
<circle class="st0" cx="36" cy="36" r="36"/>
<circle class="st1" cx="36" cy="36" r="28"/>
<path class="st2" d="M47.7,36.8L29.4,50.5c-0.4,0.3-1.1,0.2-1.4-0.2c-0.1-0.2-0.2-0.4-0.2-0.6V22.2c0-0.6,0.4-1,1-1
	c0.2,0,0.4,0.1,0.6,0.2l18.3,13.8c0.4,0.3,0.5,1,0.2,1.4C47.8,36.7,47.8,36.7,47.7,36.8z"/>
<circle class="st0" cx="36" cy="108" r="36"/>
<circle class="st1" cx="36" cy="108" r="28"/>
<path class="st3" d="M47.7,108.8l-18.3,13.8c-0.4,0.3-1.1,0.2-1.4-0.2c-0.1-0.2-0.2-0.4-0.2-0.6V94.2c0-0.6,0.4-1,1-1
	c0.2,0,0.4,0.1,0.6,0.2l18.3,13.8c0.4,0.3,0.5,1,0.2,1.4C47.8,108.7,47.8,108.7,47.7,108.8z"/>
<circle class="st4" cx="36" cy="180" r="36"/>
<path class="st2" d="M47.7,180.8l-18.3,13.8c-0.4,0.3-1.1,0.2-1.4-0.2c-0.1-0.2-0.2-0.4-0.2-0.6v-27.5c0-0.6,0.4-1,1-1
	c0.2,0,0.4,0.1,0.6,0.2l18.3,13.8c0.4,0.3,0.5,1,0.2,1.4C47.8,180.7,47.8,180.7,47.7,180.8z"/>
</svg>
