<svg xmlns="http://www.w3.org/2000/svg" xml:space="preserve" style="enable-background:new 0 0 16 16" viewBox="0 0 16 16"><path d="M14.1 1.3h-2.5V.6c0-.3-.2-.5-.5-.5s-.5.2-.5.5v.8H5.4V.5C5.4.2 5.2 0 5 0s-.5.2-.5.5v.9H1.9C.9 1.3 0 2.2 0 3.3v10.8A2 2 0 0 0 1.9 16H14c1.1 0 1.9-.9 1.9-1.9V3.3c.1-1.1-.8-2-1.8-2m0 13.8H1.9a1 1 0 0 1-1-1V6.5H15V14a1 1 0 0 1-.9 1.1M1.9 2.3h2.5V3c0 .3.2.5.5.5s.5-.2.5-.5v-.7h5.2v.9c0 .3.2.5.5.5s.5-.2.5-.5v-.9h2.5c.6 0 1 .5 1 1v2.5H.9V3.3c0-.6.5-1 1-1zm2.4 6.6.1.2v.6l-.2.2-.2.1-.3.1-.3-.1a.2.2 0 0 1-.2-.2l-.1-.2-.1-.3.1-.3.2-.2c.2-.2.7-.2 1 .1zm2.8 0 .1.2v.6l-.2.2-.1.1-.3.1-.3-.1a.2.2 0 0 1-.2-.2l-.2-.2-.1-.3.1-.3.2-.1c.2-.2.5-.3.8-.2l.2.2zm-2.8 2.8.2.2v.6l-.2.2-.5.2-.3-.1a.2.2 0 0 1-.2-.2l-.2-.2-.1-.3.2-.5a1 1 0 0 1 1.1.1zm2.8 0 .2.2v.6l-.2.2-.2.2-.3.1-.3-.1a.2.2 0 0 1-.2-.2l-.2-.2-.1-.3.2-.5.2-.2h.5l.4.2zm2.8-2.8.2.2v.6l-.2.2-.2.1-.3.1-.3-.1-.2-.1-.1-.3-.1-.3.1-.3.2-.2.2-.2c.2 0 .5.1.7.3zm0 2.8.2.2v.6l-.2.2-.2.2-.3.1-.3-.1a.2.2 0 0 1-.2-.2l-.2-.2-.1-.3.2-.5.2-.2h.5l.4.2zm2.8 0 .2.2v.6l-.2.2-.5.2-.3-.1a.2.2 0 0 1-.2-.2l-.1-.2-.1-.3.2-.5c.3-.2.8-.2 1 .1zm0-2.8.2.2v.6l-.2.2-.2.2-.3.1-.3-.1a.2.2 0 0 1-.2-.2l-.1-.2-.1-.3.1-.3.1-.2c.2-.2.5-.3.8-.2l.2.2z" style="fill-rule:evenodd;clip-rule:evenodd;fill-opacity:.64"/></svg>