<svg width="17" height="16" xmlns="http://www.w3.org/2000/svg">
 <defs>
  <clipPath id="clip0">
   <rect id="svg_1" fill="white" height="16" width="16.0176"/>
  </clipPath>
 </defs>
 <g>
  <title>background</title>
  <rect fill="none" id="canvas_background" height="402" width="582" y="-1" x="-1"/>
 </g>
 <g>
  <title>Layer 1</title>
  <path id="svg_3" fill-opacity="0.4" fill="#000000" d="m5.48588,13.9758l5.04582,0c0.2523,0 0.4401,-0.1936 0.4401,-0.5046c0,-0.2523 -0.1937,-0.5046 -0.4401,-0.5046l-5.04582,0c-0.25229,0 -0.50458,0.2523 -0.50458,0.5046c0,0.3168 0.25229,0.5046 0.50458,0.5046zm0,-1.9479l5.04582,0c0.2523,0 0.4401,-0.2523 0.4401,-0.5105c0,-0.3109 -0.1937,-0.5046 -0.4401,-0.5046l-5.04582,0c-0.25229,0 -0.50458,0.1937 -0.50458,0.5046c0,0.2582 0.25229,0.5105 0.50458,0.5105zm0,-2.0184l3.02164,0c0.25229,0 0.50458,-0.25226 0.50458,-0.50455c0,-0.25229 -0.25229,-0.50458 -0.50458,-0.50458l-3.02164,0c-0.25229,0 -0.50458,0.25229 -0.50458,0.50458c0,0.25229 0.25229,0.50455 0.50458,0.50455zm9.51672,-5.9787l-2.0125,0l0,-3.0275c0,-0.50458 -0.44,-1.0033 -1.0092,-1.0033l-8.00877,0c-0.50458,0 -0.95049,0.50458 -0.95049,1.0033l0,3.0275l-2.01834,0c-0.56326,0 -1.0033,0.44005 -1.0033,1.0033l0,4.9754c0,0.575 0.44004,1.0033 1.0033,1.0033l2.01834,0l0,3.9722c0,0.575 0.44004,1.015 0.94462,1.015l8.00884,0c0.575,0 1.0091,-0.44 1.0091,-1.015l0,-3.9722l2.0125,0c0.575,0 1.015,-0.4341 1.015,-1.0033l0,-4.9754c0.0059,-0.56325 -0.4341,-1.0033 -1.0091,-1.0033zm-3.0275,0l-8.00297,0l0,-3.0275l8.00877,0l0,3.0275l-0.0058,0zm0,10.9542l-8.00297,0l0,-6.9938l8.00877,0l0,6.9938l-0.0058,0zm2.0242,-8.00297c-0.5692,0 -1.0092,-0.44004 -1.0092,-1.0033c0,-0.50458 0.44,-0.94463 1.0092,-0.94463c0.5691,0 1.0033,0.44005 1.0033,0.94463c0,0.56326 -0.4401,1.0033 -1.0033,1.0033z" clip-rule="evenodd" fill-rule="evenodd"/>
 </g>
</svg>