<?xml version="1.0" encoding="utf-8"?>
<!-- Generator: Adobe Illustrator 23.0.3, SVG Export Plug-In . SVG Version: 6.00 Build 0)  -->
<svg version="1.1" id="Layer_1" xmlns="http://www.w3.org/2000/svg" xmlns:xlink="http://www.w3.org/1999/xlink" x="0px" y="0px"
	 width="36px" height="12px" viewBox="0 0 36 12" style="enable-background:new 0 0 36 12;" xml:space="preserve">
<style type="text/css">
	.st0{fill-rule:evenodd;clip-rule:evenodd;fill:#9EE835;}
	.st1{fill-rule:evenodd;clip-rule:evenodd;fill:#1D9C76;}
</style>
<path class="st0" d="M25,0c-0.6,0-1,0.4-1,1v10c0,0.6,0.4,1,1,1h10c0.6,0,1-0.4,1-1V1c0-0.6-0.4-1-1-1H25z M29.6,3.8V2.4h0.9v1.4
	h2.8v3.9h-0.8V7.2h-1h-1v2.7h-0.9V7.2h-1h-1v0.4h-0.8V3.8H29.6z M27.6,4.6v1.8h2V4.6H27.6z M30.4,4.6v1.8h2V4.6H30.4z"/>
<path class="st1" d="M1,0C0.4,0,0,0.4,0,1v10c0,0.6,0.4,1,1,1h10c0.6,0,1-0.4,1-1V1c0-0.6-0.4-1-1-1H1z M5.6,3.8V2.4h0.9v1.4h2.8
	v3.9H8.4V7.2h-1h-1v2.7H5.6V7.2h-1h-1v0.4H2.7V3.8H5.6z M3.6,4.6v1.8h2V4.6H3.6z M6.4,4.6v1.8h2V4.6H6.4z"/>
</svg>
