<svg xmlns="http://www.w3.org/2000/svg" xml:space="preserve" width="16" height="16" style="enable-background:new 0 0 16 16"><path d="M14.1 1.3c1.1 0 1.9.9 1.9 1.9V14c0 1.1-.9 1.9-1.9 1.9H1.9C.9 16 0 15.1 0 14.1V3.3c0-1.1.9-1.9 1.9-1.9h2.5V.5c.1-.3.3-.5.6-.5s.5.2.5.5v.9h5.2V.6c0-.3.2-.5.5-.5s.5.2.5.5v.8h2.4zm-12.2 1a1 1 0 0 0-1 1v2.5H15V3.3c0-.6-.5-1-1-1h-2.5v.9c0 .3-.2.5-.5.5s-.5-.2-.5-.5v-.9H5.4V3c0 .3-.2.5-.5.5s-.4-.2-.4-.5v-.7H1.9zm2.4 6.6c-.3-.3-.7-.3-1 0l-.2.2-.1.3.1.3.2.2.2.1.3.1.3-.1.2-.2.2-.2V9l-.2-.1zm2.8 0-.2-.2a.8.8 0 0 0-.8.2l-.2.2-.1.3.1.3.2.2.2.1.3.1.3-.1.2-.1.2-.2v-.6l-.2-.2zm-2.8 2.8c-.3-.3-.7-.3-1 0l-.2.5.1.3.2.2.2.2.3.1.5-.2.2-.2V12l-.3-.3zm2.8 0-.2-.2h-.5l-.2.2c-.2.1-.3.3-.3.5l.1.3.2.2.2.2.3.1.3-.1.2-.2.2-.2v-.6l-.3-.2zm2.8-2.8c-.2-.2-.5-.3-.8-.2l-.2.2-.1.2-.1.3.1.3.2.2.1.1.3.1.3-.1.2-.2.2-.2V9l-.2-.1zm0 2.8-.2-.2h-.5l-.2.2-.2.5.1.3.2.2.2.2.3.1.3-.1.2-.2.2-.2v-.6l-.4-.2zm2.8 0c-.3-.3-.7-.3-1 0l-.2.5.1.3.1.2.2.2.3.1.5-.2.2-.2V12c0-.2-.1-.2-.2-.3zm0-2.8-.2-.2a.8.8 0 0 0-.8.2l-.1.2-.1.3.1.3.1.2.3.1.3.1.3-.1.2-.2.2-.2V9l-.3-.1z" style="fill-rule:evenodd;clip-rule:evenodd;fill:#a78025"/></svg>