<svg xmlns="http://www.w3.org/2000/svg" width="112" height="112" viewBox="0 0 112 112">
    <g fill="none" fill-rule="evenodd">
        <g fill-rule="nonzero">
            <path fill="#F6F6F6" d="M66.483 56.455H44.66c-.53 0-.954-.397-.954-.894V41.47c0-.497.424-.894.954-.894h21.824c.53 0 .954.397.954.894V55.56c0 .484-.424.894-.954.894z"/>
            <path fill="#BDBCBC" d="M45.625 57.572h19.891c1.722 0 3.126-1.316 3.126-2.93V42.363c0-1.614-1.404-2.93-3.126-2.93h-.37v-4.457c0-4.953-4.291-8.976-9.575-8.976-5.284 0-9.575 4.023-9.575 8.976v4.47h-.37c-1.722 0-3.126 1.316-3.126 2.93v12.279c.013 1.614 1.404 2.917 3.125 2.917zm2.768-22.596c0-3.712 3.218-6.729 7.178-6.729s7.178 3.017 7.178 6.73v4.469H48.393v-4.47zm-3.483 7.4c0-.373.318-.67.715-.67h19.891c.398 0 .716.297.716.67v12.279c0 .372-.318.67-.716.67h-19.89c-.398 0-.716-.298-.716-.67v-12.28z"/>
            <path fill="#BDBCBC" d="M54.525 48.683c.132.1.172.186.172.335v2.136c0 .583.662 1.03 1.324.72a.761.761 0 0 0 .424-.72v-2.136c0-.161.04-.26.185-.348.477-.322.715-.782.715-1.328-.013-.807-.609-1.453-1.456-1.614-.768-.149-1.59.26-1.92.956-.358.708-.133 1.515.556 1.999z"/>
        </g>
        <g fill-rule="nonzero">
            <path fill="#ACA190" d="M19 11.2H3.733v63.467H108.267V11.2H19zM106.4 0a5.6 5.6 0 0 1 5.6 5.6V84a5.6 5.6 0 0 1-5.6 5.6H68.354l5.6 11.2H89.6c1.03 0 1.867.836 1.867 1.867v7.466c0 1.031-.836 1.867-1.867 1.867H22.4a1.867 1.867 0 0 1-1.867-1.867v-7.466c0-1.031.836-1.867 1.867-1.867h15.646l5.6-11.2H5.6A5.6 5.6 0 0 1 0 84V5.6A5.6 5.6 0 0 1 5.6 0h100.8zM87.733 104.533H24.267v3.734h63.466v-3.734zM69.78 100.8l-5.6-11.2H47.82l-5.6 11.2h27.56zM108.267 84v-5.6H3.733V84c0 1.03.836 1.867 1.867 1.867h100.8c1.03 0 1.867-.836 1.867-1.867zm0-76.533V5.6c0-1.03-.836-1.867-1.867-1.867H5.6c-1.03 0-1.867.836-1.867 1.867v1.867h104.534z"/>
            <path fill="#BDBCBC" d="M7.467 24.267H11.2v-5.6h5.6v-3.734H7.467zM100.8 24.267h3.733v-9.334H95.2v3.734h5.6zM11.2 61.6H7.467v9.333H16.8V67.2h-5.6zM104.533 61.6H100.8v5.6h-5.6v3.733h9.333z"/>
        </g>
    </g>
</svg>
