<?xml version="1.0" encoding="utf-8"?>
<!-- Generator: Adobe Illustrator 23.0.3, SVG Export Plug-In . SVG Version: 6.00 Build 0)  -->
<svg version="1.1" id="Layer_1" xmlns="http://www.w3.org/2000/svg" xmlns:xlink="http://www.w3.org/1999/xlink" x="0px" y="0px"
	 width="46px" height="90px" viewBox="0 0 46 90" style="enable-background:new 0 0 46 90;" xml:space="preserve">
<style type="text/css">
	.st0{fill:#46566D;}
	.st1{fill:#FFFFFF;}
</style>
<path class="st0" d="M42.3,40c-0.8,0-1.4-0.3-2-0.8c-0.5-0.6-0.8-1.2-0.8-2c0-1.5-0.7-2.8-2.2-4.2c-1.5-1.3-3.5-2.4-6.1-3.2
	c-2.6-0.8-5.4-1.2-8.4-1.2c-3,0-5.7,0.4-8.4,1.3c-2.6,0.8-4.7,1.9-6.1,3.2c-1.5,1.3-2.2,2.7-2.2,4.1c0,0.8-0.3,1.4-0.8,2
	c-0.6,0.6-1.2,0.8-2,0.8c-0.8,0-1.4-0.3-2-0.8c-0.5-0.6-0.8-1.2-0.8-2c0-2.8,1-5.3,3-7.5c2-2.2,4.7-3.9,8.1-5
	c3.4-1.2,7.1-1.8,11.2-1.8s7.8,0.6,11.2,1.8c3.4,1.2,6.1,2.9,8.1,5c2,2.2,3,4.7,3,7.5c0,0.8-0.3,1.4-0.8,2
	C43.8,39.7,43.1,40,42.3,40z M34,14.3c-1.5,0-2.9-0.7-3.9-2.1c-1.1-1.4-1.6-3.1-1.6-5c0-1.9,0.3-3.6,0.8-5C29.8,0.7,30.5,0,31.2,0
	c1,0,2.2,0.4,3.5,1.3c1.3,0.9,2.5,2,3.4,3.3c1,1.4,1.4,2.7,1.4,3.9c0,1.9-0.5,3.3-1.6,4.3C37,13.8,35.6,14.3,34,14.3z M11.7,14.3
	c-1.6,0-3-0.5-4-1.5c-1-1-1.6-2.4-1.6-4.3c0-1.2,0.5-2.6,1.4-3.9c1-1.4,2.1-2.5,3.4-3.3C12.3,0.4,13.5,0,14.5,0
	c0.7,0,1.4,0.7,1.9,2.1c0.6,1.4,0.8,3.1,0.8,5c0,2-0.5,3.6-1.6,5C14.6,13.6,13.3,14.3,11.7,14.3z"/>
<path class="st1" d="M42.3,90c-0.8,0-1.4-0.3-2-0.8c-0.5-0.6-0.8-1.2-0.8-2c0-1.5-0.7-2.8-2.2-4.2c-1.5-1.3-3.5-2.4-6.1-3.2
	c-2.6-0.8-5.4-1.2-8.4-1.2c-3,0-5.7,0.4-8.4,1.3c-2.6,0.8-4.7,1.9-6.1,3.2c-1.5,1.3-2.2,2.7-2.2,4.1c0,0.8-0.3,1.4-0.8,2
	c-0.6,0.6-1.2,0.8-2,0.8c-0.8,0-1.4-0.3-2-0.8c-0.5-0.6-0.8-1.2-0.8-2c0-2.8,1-5.3,3-7.5c2-2.2,4.7-3.9,8.1-5
	c3.4-1.2,7.1-1.8,11.2-1.8s7.8,0.6,11.2,1.8c3.4,1.2,6.1,2.9,8.1,5c2,2.2,3,4.7,3,7.5c0,0.8-0.3,1.4-0.8,2
	C43.8,89.7,43.1,90,42.3,90z M34,64.3c-1.5,0-2.9-0.7-3.9-2.1c-1.1-1.4-1.6-3.1-1.6-5c0-1.9,0.3-3.6,0.8-5c0.6-1.4,1.2-2.1,1.9-2.1
	c1,0,2.2,0.4,3.5,1.3c1.3,0.9,2.5,2,3.4,3.3c1,1.4,1.4,2.7,1.4,3.9c0,1.9-0.5,3.3-1.6,4.3C37,63.8,35.6,64.3,34,64.3z M11.7,64.3
	c-1.6,0-3-0.5-4-1.5c-1-1-1.6-2.4-1.6-4.3c0-1.2,0.5-2.6,1.4-3.9c1-1.4,2.1-2.5,3.4-3.3c1.3-0.9,2.5-1.3,3.5-1.3
	c0.7,0,1.4,0.7,1.9,2.1c0.6,1.4,0.8,3.1,0.8,5c0,2-0.5,3.6-1.6,5C14.6,63.6,13.3,64.3,11.7,64.3z"/>
</svg>
