<?xml version="1.0" encoding="utf-8"?>
<!-- Generator: Adobe Illustrator 22.1.0, SVG Export Plug-In . SVG Version: 6.00 Build 0)  -->
<svg version="1.1" id="圖層_1" xmlns="http://www.w3.org/2000/svg" xmlns:xlink="http://www.w3.org/1999/xlink" x="0px" y="0px"
	 width="16px" height="96px" viewBox="0 0 16 96" style="enable-background:new 0 0 16 96;" xml:space="preserve">
<style type="text/css">
	.st0{fill-opacity:0.56;}
	.st1{fill:#707070;}
	.st2{fill:#FFFFFF;}
	.st3{fill:#A78025;}
</style>
<g>
	<g>
		<path class="st0" d="M12.3,17.2h-2.2v-0.7c0-0.2-0.2-0.4-0.4-0.4c-0.2,0-0.4,0.2-0.4,0.4v0.7H4.7v-0.8c0-0.2-0.1-0.4-0.4-0.4
			c-0.2,0-0.4,0.2-0.4,0.4v0.8H1.7c-0.9,0-1.7,0.7-1.7,1.7v9.4C0,29.2,0.8,30,1.7,30h10.6c0.9,0,1.7-0.8,1.7-1.7v-9.4
			C14,17.9,13.2,17.2,12.3,17.2 M12.3,29.2H1.7c-0.5,0-0.9-0.4-0.9-0.9v-6.6h12.4v6.6C13.2,28.8,12.8,29.2,12.3,29.2 M1.7,18h2.2
			v0.7c0,0.2,0.2,0.4,0.4,0.4c0.2,0,0.4-0.2,0.4-0.4V18h4.5v0.7c0,0.2,0.2,0.4,0.4,0.4c0.2,0,0.4-0.2,0.4-0.4V18h2.2
			c0.5,0,0.9,0.4,0.9,0.9v2.2H0.8v-2.2C0.8,18.4,1.2,18,1.7,18L1.7,18z M3.7,23.8c0.1,0,0.1,0.1,0.2,0.2c0,0.1,0,0.2,0,0.2
			c0,0.1,0,0.2,0,0.2c-0.1,0.2-0.2,0.3-0.4,0.4c-0.1,0.1-0.3,0.1-0.5,0c0-0.1-0.1-0.1-0.1-0.2c-0.2-0.1-0.2-0.2-0.2-0.4
			c0-0.2,0.1-0.3,0.2-0.4C3.1,23.5,3.5,23.5,3.7,23.8z M6.2,23.8c0.1,0,0.1,0.1,0.1,0.2s0,0.2,0,0.2c0,0.1,0,0.2,0,0.2
			c0,0.1-0.1,0.1-0.1,0.2c-0.1,0.1-0.1,0.1-0.2,0.2s-0.3,0.1-0.5,0c-0.1,0-0.1-0.1-0.2-0.1c-0.1-0.2-0.2-0.3-0.2-0.5
			c0-0.3,0.3-0.6,0.6-0.6c0.1,0,0.2,0,0.2,0C6.1,23.7,6.1,23.7,6.2,23.8L6.2,23.8z M3.7,26.2c0.1,0.1,0.1,0.1,0.1,0.2s0,0.2,0,0.2
			c0,0.1,0,0.2,0,0.2c0,0.1-0.1,0.1-0.1,0.2c-0.1,0.1-0.3,0.2-0.4,0.2s-0.2,0-0.2-0.1C3,27.1,3,27,2.9,27c-0.1-0.1-0.2-0.3-0.2-0.4
			c0-0.2,0.1-0.3,0.2-0.4C3.1,26,3.5,26,3.7,26.2z M6.2,26.2c0.1,0.1,0.1,0.1,0.1,0.2s0,0.2,0,0.2c0,0.1,0,0.2,0,0.2
			c0,0.2-0.2,0.4-0.3,0.4c-0.1,0.1-0.3,0.1-0.5,0c-0.1,0-0.1-0.1-0.2-0.1c-0.1-0.1-0.2-0.3-0.2-0.4c0-0.2,0.1-0.3,0.2-0.4
			s0.1-0.1,0.2-0.1C5.7,26,5.9,26,6,26.1C6.1,26.1,6.1,26.2,6.2,26.2z M8.7,23.8c0,0,0.1,0.1,0.1,0.2s0,0.2,0,0.2c0,0.1,0,0.2,0,0.2
			c-0.1,0.2-0.2,0.3-0.3,0.4c-0.2,0-0.4,0-0.5,0s-0.1-0.1-0.2-0.1c-0.1-0.2-0.2-0.3-0.2-0.5s0.2-0.5,0.4-0.6S8.5,23.6,8.7,23.8
			L8.7,23.8z M8.7,26.2c0.1,0.1,0.1,0.1,0.1,0.2s0,0.2,0,0.2c0,0.1,0,0.2,0,0.2c-0.1,0.1-0.2,0.3-0.3,0.3c-0.1,0.1-0.3,0.1-0.5,0
			c-0.1,0-0.1-0.1-0.2-0.1c-0.1-0.1-0.2-0.3-0.2-0.4c0-0.2,0.1-0.3,0.2-0.4s0.1-0.1,0.2-0.1c0.1-0.1,0.3-0.1,0.5,0
			C8.5,26.1,8.6,26.2,8.7,26.2L8.7,26.2z M11.1,26.2c0.1,0.1,0.1,0.1,0.1,0.2s0,0.2,0,0.2c0,0.1,0,0.2,0,0.2c0,0.1-0.1,0.1-0.1,0.2
			c-0.1,0.1-0.3,0.2-0.4,0.2s-0.2,0-0.2-0.1c-0.2-0.1-0.3-0.2-0.3-0.3c-0.1-0.2,0-0.5,0.1-0.7C10.5,26,10.9,26,11.1,26.2L11.1,26.2z
			 M11.1,23.8c0.1,0.1,0.1,0.1,0.1,0.2s0,0.2,0,0.2c0,0.1,0,0.2,0,0.2c0,0.1-0.1,0.1-0.1,0.2c-0.1,0.1-0.1,0.1-0.2,0.1
			c-0.2,0.1-0.3,0.1-0.5,0s-0.3-0.2-0.3-0.3c-0.1-0.2-0.1-0.3,0-0.5c0-0.1,0.1-0.1,0.1-0.2C10.5,23.5,10.9,23.5,11.1,23.8z"/>
		<circle class="st1" cx="11.5" cy="27.5" r="4.5"/>
	</g>
	<rect x="11.2" y="25.3" class="st2" width="0.7" height="4.5"/>
	<rect x="9.2" y="27.2" class="st2" width="4.5" height="0.7"/>
</g>
<g>
	<g>
		<path class="st3" d="M12.3,65.2h-2.2v-0.7c0-0.2-0.2-0.4-0.4-0.4c-0.2,0-0.4,0.2-0.4,0.4v0.7H4.7v-0.8c0-0.2-0.1-0.4-0.4-0.4
			c-0.2,0-0.4,0.2-0.4,0.4v0.8H1.7c-0.9,0-1.7,0.7-1.7,1.7v9.4C0,77.2,0.8,78,1.7,78h10.6c0.9,0,1.7-0.8,1.7-1.7v-9.4
			C14,65.9,13.2,65.2,12.3,65.2 M12.3,77.2H1.7c-0.5,0-0.9-0.4-0.9-0.9v-6.6h12.4v6.6C13.2,76.8,12.8,77.2,12.3,77.2 M1.7,66h2.2
			v0.7c0,0.2,0.2,0.4,0.4,0.4c0.2,0,0.4-0.2,0.4-0.4V66h4.5v0.7c0,0.2,0.2,0.4,0.4,0.4c0.2,0,0.4-0.2,0.4-0.4V66h2.2
			c0.5,0,0.9,0.4,0.9,0.9v2.2H0.8v-2.2C0.8,66.4,1.2,66,1.7,66L1.7,66z M3.7,71.8c0.1,0,0.1,0.1,0.2,0.2c0,0.1,0,0.2,0,0.2
			c0,0.1,0,0.2,0,0.2c-0.1,0.2-0.2,0.3-0.4,0.4c-0.1,0.1-0.3,0.1-0.5,0c0-0.1-0.1-0.1-0.1-0.2c-0.2-0.1-0.2-0.2-0.2-0.4
			s0.1-0.3,0.2-0.4C3.1,71.5,3.5,71.5,3.7,71.8z M6.2,71.8c0.1,0,0.1,0.1,0.1,0.2s0,0.2,0,0.2c0,0.1,0,0.2,0,0.2
			c0,0.1-0.1,0.1-0.1,0.2c-0.1,0.1-0.1,0.1-0.2,0.2s-0.3,0.1-0.5,0c-0.1,0-0.1-0.1-0.2-0.1c-0.1-0.2-0.2-0.3-0.2-0.5
			c0-0.3,0.3-0.6,0.6-0.6c0.1,0,0.2,0,0.2,0C6.1,71.7,6.1,71.7,6.2,71.8L6.2,71.8z M3.7,74.2c0.1,0.1,0.1,0.1,0.1,0.2s0,0.2,0,0.2
			c0,0.1,0,0.2,0,0.2c0,0.1-0.1,0.1-0.1,0.2c-0.1,0.1-0.3,0.2-0.4,0.2s-0.2,0-0.2-0.1C3,75.1,3,75,2.9,75c-0.1-0.1-0.2-0.3-0.2-0.4
			c0-0.2,0.1-0.3,0.2-0.4C3.1,74,3.5,74,3.7,74.2z M6.2,74.2c0.1,0.1,0.1,0.1,0.1,0.2s0,0.2,0,0.2c0,0.1,0,0.2,0,0.2
			c0,0.2-0.2,0.4-0.3,0.4c-0.1,0.1-0.3,0.1-0.5,0c-0.1,0-0.1-0.1-0.2-0.1c-0.1-0.1-0.2-0.3-0.2-0.4c0-0.2,0.1-0.3,0.2-0.4
			s0.1-0.1,0.2-0.1C5.7,74,5.9,74,6,74.1C6.1,74.1,6.1,74.2,6.2,74.2z M8.7,71.8c0,0,0.1,0.1,0.1,0.2s0,0.2,0,0.2c0,0.1,0,0.2,0,0.2
			c-0.1,0.2-0.2,0.3-0.3,0.4c-0.2,0-0.4,0-0.5,0s-0.1-0.1-0.2-0.1c-0.1-0.2-0.2-0.3-0.2-0.5s0.2-0.5,0.4-0.6
			C8.2,71.5,8.5,71.6,8.7,71.8L8.7,71.8z M8.7,74.2c0.1,0.1,0.1,0.1,0.1,0.2s0,0.2,0,0.2c0,0.1,0,0.2,0,0.2
			c-0.1,0.1-0.2,0.3-0.3,0.3c-0.1,0.1-0.3,0.1-0.5,0c-0.1,0-0.1-0.1-0.2-0.1c-0.1-0.1-0.2-0.3-0.2-0.4c0-0.2,0.1-0.3,0.2-0.4
			s0.1-0.1,0.2-0.1c0.1-0.1,0.3-0.1,0.5,0C8.5,74.1,8.6,74.2,8.7,74.2L8.7,74.2z M11.1,74.2c0.1,0.1,0.1,0.1,0.1,0.2s0,0.2,0,0.2
			c0,0.1,0,0.2,0,0.2c0,0.1-0.1,0.1-0.1,0.2c-0.1,0.1-0.3,0.2-0.4,0.2s-0.2,0-0.2-0.1c-0.2-0.1-0.3-0.2-0.3-0.3
			c-0.1-0.2,0-0.5,0.1-0.7C10.5,74,10.9,74,11.1,74.2L11.1,74.2z M11.1,71.8c0.1,0.1,0.1,0.1,0.1,0.2s0,0.2,0,0.2c0,0.1,0,0.2,0,0.2
			c0,0.1-0.1,0.1-0.1,0.2c-0.1,0.1-0.1,0.1-0.2,0.1c-0.2,0.1-0.3,0.1-0.5,0s-0.3-0.2-0.3-0.3c-0.1-0.2-0.1-0.3,0-0.5
			c0-0.1,0.1-0.1,0.1-0.2C10.5,71.5,10.9,71.5,11.1,71.8z"/>
		<circle class="st3" cx="11.5" cy="75.5" r="4.5"/>
	</g>
	<rect x="11.2" y="73.3" class="st2" width="0.7" height="4.5"/>
	<rect x="9.2" y="75.2" class="st2" width="4.5" height="0.7"/>
</g>
</svg>
