<svg width="20" height="12" viewBox="0 0 20 12" fill="none" xmlns="http://www.w3.org/2000/svg">
<path fill-rule="evenodd" clip-rule="evenodd" d="M10.0028 11.9739C7.38553 11.9739 4.76825 11.9739 2.15097 11.9739C1.45086 11.9739 0.979889 11.4998 0.979889 10.7965C0.979889 8.42819 0.979889 6.05988 0.979889 3.69077C0.979889 3.08739 1.02191 3.06043 1.54679 3.34111C4.00074 4.65253 6.45786 5.95839 8.90706 7.27932C9.64443 7.67655 10.3533 7.67813 11.0898 7.2809C13.5311 5.96632 15.9795 4.66442 18.4247 3.35776C18.504 3.31574 18.5809 3.26975 18.6626 3.23407C18.9211 3.11911 19.0194 3.17302 19.0194 3.44815C19.0218 5.95601 19.0241 8.46387 19.0178 10.9717C19.0162 11.4927 18.4707 11.9739 17.9141 11.9747C15.277 11.9747 12.6399 11.9739 10.0028 11.9739Z" fill="black"/>
<path fill-rule="evenodd" clip-rule="evenodd" d="M9.99803 0.0863608C12.785 0.0863608 15.5711 0.0855681 18.3581 0.0871538C18.5825 0.0871538 18.8521 0.0395816 18.9559 0.305987C19.0598 0.573186 18.8814 0.77854 18.7149 0.96883C18.6015 1.09807 18.4572 1.18528 18.3081 1.26695C15.8859 2.5966 13.4645 3.92783 11.0415 5.25669C10.3509 5.63489 9.65393 5.63727 8.96413 5.25907C6.5411 3.93021 4.11967 2.59818 1.69664 1.27012C1.42786 1.12265 1.19793 0.9387 1.06948 0.654851C0.928349 0.341666 1.05759 0.126005 1.39932 0.0903254C1.49763 0.080018 1.59833 0.0847753 1.69744 0.0847753C4.46457 0.086361 7.2317 0.0863608 9.99803 0.0863608Z" fill="black"/>
</svg>
