<svg width="18" height="18" viewBox="0 0 18 18" fill="none" xmlns="http://www.w3.org/2000/svg">
<path d="M9.01577 2.20447C11.3312 2.20447 11.6056 2.2131 12.52 2.25473C13.3657 2.29348 13.8247 2.43497 14.1302 2.55343C14.5352 2.71087 14.8237 2.89885 15.1273 3.20243C15.4309 3.50556 15.6189 3.7943 15.7761 4.19928C15.8948 4.50507 16.0363 4.96431 16.0746 5.80971C16.1164 6.72397 16.1251 6.99832 16.1251 9.3142C16.1251 11.6296 16.1164 11.904 16.0746 12.8185C16.036 13.6639 15.8946 14.1229 15.7761 14.4289C15.6189 14.8339 15.4309 15.1226 15.1273 15.4258C14.8237 15.7293 14.5352 15.9173 14.1302 16.0748C13.8245 16.1934 13.3654 16.3345 12.52 16.3735C11.6056 16.4146 11.3314 16.4237 9.01577 16.4237C6.7001 16.4237 6.42576 16.4146 5.51127 16.3735C4.66565 16.3345 4.20663 16.1932 3.90107 16.0748C3.4963 15.9173 3.20756 15.7293 2.90443 15.4258C2.60064 15.1226 2.41243 14.8339 2.25544 14.4289C2.13653 14.1229 1.99548 13.6639 1.95651 12.8185C1.91466 11.9042 1.90603 11.6296 1.90603 9.3142C1.90603 6.99832 1.91466 6.72397 1.95651 5.80971C1.99548 4.96431 2.13653 4.50507 2.25544 4.19928C2.41243 3.7943 2.60064 3.50556 2.90443 3.20243C3.20756 2.89885 3.4963 2.71109 3.90107 2.55343C4.20663 2.43475 4.66587 2.29348 5.51127 2.25473C6.42554 2.2131 6.7001 2.20447 9.01577 2.20447ZM9.01577 0.641869C6.66047 0.641869 6.36531 0.651611 5.44041 0.693904C4.51729 0.735974 3.88645 0.882779 3.33488 1.09712C2.76494 1.31832 2.28112 1.61503 1.79908 2.09752C1.31704 2.57956 1.02033 3.06315 0.79868 3.63354C0.584341 4.18511 0.437536 4.81551 0.395686 5.73841C0.352951 6.66352 0.342987 6.95891 0.342987 9.3142C0.342987 11.6693 0.352951 11.9644 0.395686 12.8896C0.437314 13.8125 0.584341 14.4429 0.79868 14.9944C1.02011 15.5648 1.31704 16.0484 1.79908 16.5304C2.28112 17.0127 2.76494 17.3094 3.33488 17.5308C3.88645 17.7452 4.51729 17.8915 5.44041 17.9338C6.36531 17.9764 6.66047 17.9861 9.01577 17.9861C11.3711 17.9861 11.6664 17.9764 12.5913 17.9338C13.5142 17.8918 14.1446 17.7452 14.6964 17.5308C15.2666 17.3094 15.7504 17.0127 16.2327 16.5304C16.7147 16.0484 17.0112 15.5648 17.2326 14.9944C17.4474 14.4429 17.5938 13.8125 17.6358 12.8896C17.6781 11.9644 17.6881 11.6693 17.6881 9.3142C17.6881 6.95891 17.6781 6.66352 17.6358 5.73841C17.5938 4.81551 17.4474 4.18511 17.2326 3.63354C17.0112 3.06315 16.7147 2.57956 16.2327 2.09752C15.7506 1.61525 15.2668 1.31832 14.6964 1.09712C14.1446 0.882779 13.5142 0.736196 12.5913 0.693904C11.6662 0.651611 11.3708 0.641869 9.01577 0.641869Z" fill="black"/>
</svg>
