<?xml version="1.0" encoding="utf-8"?>
<!-- Generator: Adobe Illustrator 25.2.1, SVG Export Plug-In . SVG Version: 6.00 Build 0)  -->
<svg version="1.1" id="圖層_1" xmlns="http://www.w3.org/2000/svg" xmlns:xlink="http://www.w3.org/1999/xlink" x="0px" y="0px"
	 viewBox="0 0 32 32" style="enable-background:new 0 0 32 32;" xml:space="preserve">
<style type="text/css">
	.st0{fill:#A5B0C7;}
</style>
<g>
	<g>
		<path class="st0" d="M15.1,30l7.4-5.4h4.8c2,0,3.6-1.6,3.6-3.6v-8.6c0-2-1.6-3.6-3.6-3.6h-4.5l-7.6-6.5c-1.9-1.6-4.9-0.3-4.9,2.2
			v23.2C10.4,30,13.2,31.4,15.1,30z"/>
	</g>
	<path class="st0" d="M7.5,11.5c0-1.3-1.3-2.3-2.5-1.7c-2.3,1.1-4,3.5-4,6.2c0,2.8,1.6,5.1,4,6.2c1.2,0.6,2.5-0.4,2.5-1.7V11.5z"/>
</g>
</svg>
