<svg xmlns="http://www.w3.org/2000/svg" xmlns:xlink="http://www.w3.org/1999/xlink" viewBox="0 0 25.48 24.03"><defs><style>.cls-1{fill:url(#未命名漸層_118);}.cls-2{fill:url(#未命名漸層_118-2);}</style><linearGradient id="未命名漸層_118" y1="18.67" x2="25.48" y2="18.67" gradientUnits="userSpaceOnUse"><stop offset="0" stop-color="#8a5b2f"/><stop offset="0.53" stop-color="#fde37a"/><stop offset="1" stop-color="#fdf3b6"/></linearGradient><linearGradient id="未命名漸層_118-2" x1="5.44" y1="7.29" x2="20.03" y2="7.29" xlink:href="#未命名漸層_118"/></defs><g id="圖層_1" data-name="圖層 1"><path class="cls-1" d="M0,22.86c.06-.3.12-.59.19-.89A12.78,12.78,0,0,1,6,13.7c.24-.15.49-.4.73-.39s.44.29.65.46a8.32,8.32,0,0,0,6.8,1.8,8,8,0,0,0,4.27-2.13.36.36,0,0,1,.51-.06,12.83,12.83,0,0,1,6.39,8.86q.07.36.12.72A.94.94,0,0,1,24.64,24l-.42,0q-11.49,0-23,0A1.19,1.19,0,0,1,0,23.31Z"/><path class="cls-2" d="M12.74,14.59a7.34,7.34,0,0,1-7.3-7.28,7.3,7.3,0,1,1,7.3,7.28Z"/></g></svg>