<svg xmlns="http://www.w3.org/2000/svg" xmlns:xlink="http://www.w3.org/1999/xlink" viewBox="0 0 16 16"><defs><style>.a{fill:none;}.b{fill:#0c2565;}.c{clip-path:url(#a);}</style><clipPath id="a"><rect class="a" width="16" height="16"/></clipPath><symbol id="b" viewBox="0 0 16 16"><path class="b" d="M15.7,1.8,11.5,6a6.5,6.5,0,0,1,1.2,3.6A6.4,6.4,0,0,1,6.3,16,6.3,6.3,0,0,1,0,9.6,6.3,6.3,0,0,1,6.3,3.3,5.9,5.9,0,0,1,10,4.5L14.2.3a1.1,1.1,0,0,1,1.5,0h0A1.1,1.1,0,0,1,15.7,1.8Zm-9.4,3A4.8,4.8,0,0,0,1.5,9.6a4.9,4.9,0,0,0,4.8,4.9,4.9,4.9,0,0,0,4.9-4.9A4.8,4.8,0,0,0,6.3,4.8Z"/></symbol></defs><title>svgexport-9</title><g class="c"><use width="16" height="16" transform="matrix(1, 0, 0, -1, 0, 16)" xlink:href="#b"/></g></svg>