<svg xmlns="http://www.w3.org/2000/svg" xmlns:xlink="http://www.w3.org/1999/xlink" viewBox="0 0 9 16"><defs><style>.a{fill:none;}.b{fill:#ffffff;}.c{clip-path:url(#a);}</style><clipPath id="a"><rect class="a" width="9" height="16"/></clipPath><symbol id="b" viewBox="0 0 9 16"><path class="b" d="M7.5,0H7L6.5.4.3,7.3a1,1,0,0,0,0,1.4l6.4,6.9a1.5,1.5,0,0,0,.9.4,1.4,1.4,0,0,0,.9-.3c.3-.2.5-.4.5-.7a1.6,1.6,0,0,0-.3-.9L3,8,8.5,1.9a.9.9,0,0,0,.3-.6c0-.2,0-.5-.1-.6A1.2,1.2,0,0,0,8.2.2Z"/></symbol></defs><title>svgexport-8</title><g class="c"><use width="9" height="16" transform="matrix(1, 0, 0, -1, 0, 15.98)" xlink:href="#b"/></g></svg>