<svg xmlns="http://www.w3.org/2000/svg" viewBox="0 0 24.2 22.3"><defs><style>.a{fill:#ffb344;}</style></defs><title>IBO_現金入口login</title><path class="a" d="M2.7,22.3a2.4,2.4,0,0,1,.2-.8A6.9,6.9,0,0,1,5,18.4a10.3,10.3,0,0,1,3.1-2,9.4,9.4,0,0,1,2.2-.7l1.9-.2h1.2a8,8,0,0,1,1.5.3,7.7,7.7,0,0,1,2.5,1,8,8,0,0,1,2.3,1.8,9,9,0,0,1,1.4,2,10.9,10.9,0,0,1,.5,1.7h2.6v-.5a5,5,0,0,0-.3-1.3,16.7,16.7,0,0,0-.8-2l-1.4-1.8-.5-.4-.8-.7L19,14.7a11.1,11.1,0,0,0-1.9-.9l-.6-.2a7.4,7.4,0,0,0,3.2-5.8V7.5h0V6.3A6.5,6.5,0,0,0,19.3,5a6.8,6.8,0,0,0-1.5-2.6,6.3,6.3,0,0,0-1.2-1A7.6,7.6,0,0,0,14.4.3a6.4,6.4,0,0,0-2-.3H11.2L9.6.5A8.8,8.8,0,0,0,7.3,1.9,7.8,7.8,0,0,0,4.9,7V8a5.1,5.1,0,0,0,.2,1.3A8.8,8.8,0,0,0,7,12.7l.9.8H7.8a11.2,11.2,0,0,0-2.5,1.1,10.6,10.6,0,0,0-2.6,2,10.8,10.8,0,0,0-1.6,2A8.7,8.7,0,0,0,0,21.8v.5Zm5-12.7a5.6,5.6,0,0,1-.4-1.2V7.9h0V7.3a4.6,4.6,0,0,1,.5-2A5.7,5.7,0,0,1,9,3.8a3.5,3.5,0,0,1,1.2-.7,3.3,3.3,0,0,1,1.5-.5h.8a4.7,4.7,0,0,1,2.8.9,4.9,4.9,0,0,1,1.2,1.3,3.8,3.8,0,0,1,.8,1.7c0,.3.1.6.1.9a.5.5,0,0,1,0,.5A4.8,4.8,0,0,1,17,9.7a5.9,5.9,0,0,1-1.3,1.8,5.7,5.7,0,0,1-2.2,1.1,2.9,2.9,0,0,1-1.6.1,3.2,3.2,0,0,1-1.6-.4,5.2,5.2,0,0,1-1.7-1.2A3.8,3.8,0,0,1,7.7,9.6Z"/></svg>