<?xml version="1.0" encoding="utf-8"?>
<!-- Generator: Adobe Illustrator 25.2.1, SVG Export Plug-In . SVG Version: 6.00 Build 0)  -->
<svg version="1.1" id="圖層_1" xmlns="http://www.w3.org/2000/svg" xmlns:xlink="http://www.w3.org/1999/xlink" x="0px" y="0px"
	 viewBox="0 0 32 32" style="enable-background:new 0 0 32 32;" xml:space="preserve">
<style type="text/css">
	.st0{fill:#A5B0C7;}
</style>
<path class="st0" d="M2.5,0c-0.9,0-1,0.2-1,1c0,8,0,16.1,0.1,24.2c0,4.5,0,1,0,5.5c0,0.3,0.1,0.6,0.4,0.7c0.3,0.1,0.6,0,0.8-0.2
	c0.7-0.8,1.5-1.5,2.2-2.3c0.1-0.1,0.2-0.2,0.3-0.3c1,1,2,2,2.9,3c0.1,0.1,0.3,0.3,0.5,0.4c0.1,0,0.3,0,0.4,0c1-1,2-2.1,3-3.1
	c0.1-0.1,0.2-0.3,0.3-0.4c1,1.1,2,2.1,3,3.1c0.1,0.1,0.3,0.3,0.5,0.4c0.1,0,0.2,0,0.3,0c0.2-0.1,0.4-0.3,0.5-0.4
	c0.9-0.9,1.8-1.8,2.6-2.7c0.1-0.1,0.2-0.2,0.2-0.3c1.2,1.2,2.3,2.3,3.4,3.5c0.1,0,0.3,0,0.4,0c0.2-0.2,0.4-0.3,0.6-0.5
	c0.9-1,1.9-1.9,2.9-3c0.1,0.1,0.2,0.3,0.3,0.4c0.7,0.8,1.5,1.5,2.2,2.3c0.2,0.2,0.4,0.3,0.7,0.2c0.3-0.1,0.4-0.4,0.4-0.7
	c0-0.1,0-0.2,0-0.4c0-10.2,0-12.4,0-22.6l0-1.8c0-1.6,0-3.1,0-4.7l0-1.2C20.9,0,12.1,0,2.5,0z M11,22.5c-0.6,0-1.1,0-1.7,0
	c-0.4,0-0.6-0.3-0.6-0.7c0-0.3,0.3-0.5,0.6-0.6c0,0,0.1,0,0.1,0c0.2,0,0.5,0,0.7,0c0,0,0,0,0,0c0.3,0,0.5,0,0.8,0
	c0.4,0,0.6,0.2,0.6,0.6C11.6,22.2,11.3,22.5,11,22.5z M10.9,17.5C10.9,17.5,10.9,17.5,10.9,17.5c-0.3,0-0.6,0-0.8,0c0,0,0,0,0,0
	c-0.3,0-0.5,0-0.8,0c-0.4,0-0.6-0.3-0.6-0.6c0-0.3,0.2-0.6,0.6-0.6c0.5,0,1.1,0,1.6,0c0.4,0,0.6,0.3,0.6,0.6
	C11.5,17.3,11.3,17.5,10.9,17.5z M17.4,8.7c-0.2-0.1-0.4-0.1-0.6-0.1c-0.6,0-1.1,0-1.7,0c-1.5-0.1-2.5-1.3-2.2-2.6
	C13.2,5.1,14,4.4,15,4.3c0.1,0,0.3,0,0.4,0c0-0.5-0.1-1.1,0.6-1.1c0.7,0,0.6,0.6,0.6,1.1c0.6,0,1.2,0,1.7,0c0.5,0,0.8,0.2,0.8,0.6
	c0,0.4-0.3,0.6-0.8,0.6c-1,0-2.1,0-3.1,0c-0.7,0-1.2,0.4-1.2,0.9c0,0.5,0.5,0.9,1.2,0.9c0.5,0,1,0,1.5,0c1.3,0,2.4,0.9,2.4,2.1
	c0,1.2-0.9,2.1-2.3,2.2c-0.1,0-0.1,0-0.2,0c0,0.5,0.1,1.2-0.7,1.1c-0.7,0-0.6-0.6-0.6-1.1c-0.6,0-1.2,0-1.8,0
	c-0.4,0-0.7-0.3-0.7-0.6c0-0.4,0.3-0.6,0.7-0.6c0.1,0,0.2,0,0.3,0c1,0,1.9,0,2.9,0c0.2,0,0.4,0,0.6-0.1c0.3-0.1,0.6-0.4,0.6-0.8
	C17.9,9.1,17.7,8.9,17.4,8.7z M12.6,16.6c0.2-0.3,0.4-0.4,0.8-0.4c2.3,0,4.6,0,7,0c0.7,0,1.4,0,2.2,0c0.5,0,0.8,0.2,0.8,0.6
	c0,0.4-0.3,0.6-0.8,0.6c-1.5,0-3.1,0-4.6,0c-1.5,0-3.1,0-4.6,0C12.7,17.5,12.4,17.1,12.6,16.6z M22.5,22.5c-3,0-6.1,0-9.1,0
	c-0.1,0-0.2,0-0.2,0c-0.4,0-0.6-0.3-0.6-0.7c0-0.3,0.3-0.6,0.7-0.6c0.9,0,1.9,0,2.8,0c0.7,0,1.3,0,2,0c1.5,0,3,0,4.5,0
	c0.5,0,0.8,0.2,0.8,0.6C23.3,22.3,23,22.5,22.5,22.5z"/>
</svg>
