<?xml version="1.0" encoding="utf-8"?>
<!-- Generator: Adobe Illustrator 25.2.1, SVG Export Plug-In . SVG Version: 6.00 Build 0)  -->
<svg version="1.1" id="圖層_1" xmlns="http://www.w3.org/2000/svg" xmlns:xlink="http://www.w3.org/1999/xlink" x="0px" y="0px"
	 viewBox="0 0 32 32" style="enable-background:new 0 0 32 32;" xml:space="preserve">
<style type="text/css">
	.st0{fill:#A5B0C7;}
</style>
<g>
	<path class="st0" d="M0,7.9c0.2-0.6,0.3-1.2,0.8-1.6c0.5-0.6,1.2-0.9,2-1c0.2,0,0.4,0,0.6,0c9,0,13.2,0,22.2,0c1.1,0,2,0.3,2.7,1.2
		c0.4,0.5,0.6,1,0.7,1.6c0.1,0.7-0.4,1.1-1.1,0.9c-0.8-0.3-1.5-0.5-2.3-0.6c-2.7-0.2-5.4,1.4-6.5,3.9c-0.3,0.6-0.4,1.3-0.6,2
		c-0.1,0.4-0.2,0.7-0.6,1c-0.7,0.6-1.1,1.3-1.1,2.2c0,0.3,0,0.7,0,1c0,0.3-0.3,0.5-0.6,0.6c-0.2,0-0.3,0-0.5,0c-5.7,0-6.5,0-12.2,0
		c-1.4,0-2.4-0.5-3-1.8c-0.1-0.3-0.2-0.6-0.3-1C0,13.6,0,10.7,0,7.9z M5.8,10.8c-0.6-0.2-1-0.1-1.2,0.2c-0.1,0.1-0.1,0.3-0.1,0.5
		C4.6,11.7,4.8,12,5,12.2c-0.4,0.4-0.6,0.7-0.3,1.1c0.1,0.1,0.2,0.3,0.4,0.3c0.3,0.1,0.5,0,0.8,0c0,0.4,0.2,0.8,0.7,0.8
		c0.6,0,0.8-0.4,0.9-0.9c0.6,0.2,1,0.1,1.2-0.2c0.2-0.4,0.1-0.7-0.4-1.2c0.5-0.4,0.6-0.8,0.4-1.2c-0.2-0.4-0.6-0.4-1.2-0.2
		c-0.2-0.7-0.4-0.9-0.8-0.9C6.2,9.9,6,10.1,5.8,10.8z M12,13.6c0.1,0.6,0.4,0.9,0.8,0.9c0.2,0,0.5-0.1,0.6-0.3
		c0.1-0.2,0.2-0.4,0.3-0.6c0.5,0.2,0.9,0.2,1.1-0.2c0.3-0.4,0.2-0.7-0.4-1.2c0.5-0.4,0.6-0.7,0.4-1.1c-0.2-0.4-0.6-0.5-1.2-0.3
		c-0.1-0.6-0.3-0.9-0.7-0.9c-0.2,0-0.4,0-0.5,0.1c-0.2,0.2-0.3,0.5-0.5,0.7c-0.6-0.2-0.9-0.1-1.1,0.3c-0.1,0.1-0.1,0.3-0.1,0.4
		c0.1,0.3,0.3,0.5,0.4,0.8c-0.4,0.4-0.6,0.7-0.3,1.1C11,13.7,11.4,13.8,12,13.6z"/>
	<path class="st0" d="M30.5,16c1.1,0.2,1.5,0.7,1.5,1.8c0,2.4,0,4.8,0,7.2c0,1.1-0.6,1.7-1.7,1.7c-3.5,0-6.9,0-10.4,0
		c-1.1,0-1.7-0.6-1.7-1.7c0-2.4,0-4.7,0-7.1c0-1.2,0.3-1.7,1.5-2c-0.1-1.9,0.4-3.6,1.9-4.8c1-0.9,2.2-1.3,3.5-1.3
		C27.8,9.8,30.8,12.2,30.5,16z M27.3,16c0.2-1.2-0.2-2.2-1.1-2.7c-0.8-0.5-1.8-0.4-2.6,0.1C22.9,14,22.6,15,22.8,16
		C24.3,16,25.8,16,27.3,16z M25.1,19.1c-0.6,0-1.2,0.4-1.4,1c-0.2,0.6,0,1.2,0.4,1.7c0.1,0.1,0.2,0.3,0.2,0.5c0,0.3,0,0.6,0.1,0.9
		c0.1,0.3,0.4,0.6,0.7,0.6c0.3,0,0.7-0.2,0.7-0.6c0-0.3,0.1-0.6,0.1-0.9c0-0.2,0-0.4,0.2-0.5c0.5-0.4,0.7-1.1,0.4-1.7
		C26.3,19.5,25.7,19.1,25.1,19.1z"/>
</g>
</svg>
