<?xml version="1.0" encoding="utf-8"?>
<!-- Generator: Adobe Illustrator 25.0.0, SVG Export Plug-In . SVG Version: 6.00 Build 0)  -->
<svg version="1.1" id="圖層_1" xmlns="http://www.w3.org/2000/svg" xmlns:xlink="http://www.w3.org/1999/xlink" x="0px" y="0px"
	 viewBox="0 0 90.7 90.7" enable-background="new 0 0 90.7 90.7" xml:space="preserve">
<path fill="#ffffff" d="M69.7,6.9c1.8-1.8,3.7-3.7,5.5-5.6c1-1,2.1-1.5,3.5-1.3c2.2,0.2,3.7,1.9,3.7,4.1c0,5.5,0,11,0,16.5
	c0,2.3-1.7,4-4,4c-5.6,0-11.1,0-16.7,0c-1.7,0-3-0.9-3.7-2.5c-0.7-1.6-0.4-3.2,0.8-4.5c1.5-1.5,3.1-3,4.8-4.7
	c-1.7-0.8-3.2-1.6-4.8-2.2C36.8,2.1,12.3,16.2,8.7,39.7c-3.1,20,10.4,38.8,30.5,42.2c20.1,3.5,39.5-10.2,42.7-30.3
	c0.3-2,0.5-4,0.6-6c0.1-2.6,1.8-4.4,4.2-4.3c2.4,0,4.1,1.9,4.1,4.4c-0.2,22.1-16.3,40.9-38.2,44.4C28,94.1,5,77.6,0.7,53.1
	C-3.6,28.9,12.4,5.6,36.4,0.9C48-1.3,58.9,0.6,69,6.6c0.1,0.1,0.3,0.2,0.4,0.2C69.5,6.9,69.5,6.9,69.7,6.9z"/>
</svg>
