<?xml version="1.0" encoding="utf-8"?>
<!-- Generator: Adobe Illustrator 25.0.0, SVG Export Plug-In . SVG Version: 6.00 Build 0)  -->
<svg version="1.1" id="圖層_1" xmlns="http://www.w3.org/2000/svg" xmlns:xlink="http://www.w3.org/1999/xlink" x="0px" y="0px"
	 width="1440px" height="810px" viewBox="0 0 1440 810" enable-background="new 0 0 1440 810" xml:space="preserve">
<g>
	<rect x="0.3" fill="#05276F" width="1440" height="810"/>
</g>
<g opacity="0.5">
	<g>
		<path fill="#1849F1" d="M218.1,539.5c-21.2,0-41.4-2.3-60.4-7c-36.4-8.9-68.6-26.2-95.9-51.6c-46.4-43.1-62.4-95.2-62.5-95.7
			l1.8-0.6c0.2,0.5,16,52.1,62.1,94.9c42.5,39.4,120,79.2,248.5,44.6c98.5-26.5,177.8-75.4,254.5-122.7
			c57.9-35.7,112.5-69.4,170-89.5c64.5-22.5,123.7-24.8,186.6-7.2c93.5,26.2,150.4,60.1,191.9,84.9c29.1,17.4,50.1,29.9,69.9,31.1
			c20.3,1.2,39.3-9.7,63.6-36.5c29.8-33,8.9-97.8-11.3-160.5c-19.3-59.9-37.6-116.5-10.6-141.8c13-12.2,35.2-16.1,68-11.9
			c36,4.6,83.8,18.7,146.3,43.3l-0.7,1.8c-62.3-24.5-110-38.6-145.8-43.1c-32.2-4.1-53.9-0.4-66.4,11.4
			c-26.1,24.5-8,80.5,11.1,139.8c20.4,63.2,41.5,128.6,10.9,162.4c-24.1,26.7-42.8,37.2-61.9,37.2c-21.3,0-43.3-13.1-74-31.4
			c-41.4-24.8-98.2-58.7-191.5-84.7c-136.6-38.2-237.8,24.2-355,96.5c-76.8,47.4-156.2,96.3-255,122.9
			C279,535,247.6,539.5,218.1,539.5z"/>
	</g>
	<g>
		<path fill="#2446EF" d="M215.2,548.5c-19.5,0-38.2-1.9-55.9-5.9c-36.2-8-68.5-24.1-96.1-48C16.4,454-0.5,404.4-0.7,403.9l1.8-0.6
			c0.2,0.5,16.9,49.7,63.4,89.9c42.9,37.1,120.6,74.1,247.2,39.2c76.2-21,140.7-55.8,188.4-83.8c22.9-13.4,45.2-27.3,66.7-40.7
			c56.7-35.4,110.3-68.7,166.6-89.2c63.2-23,121-26.5,181.9-11.1c89.8,22.7,145.8,53.3,186.6,75.6c29.6,16.2,51,27.9,71.3,28.9
			c20.9,1.1,40.4-9.4,65-35.1c12.3-12.8,17.3-31.6,15.9-59.1c-1.5-28.3-11.1-61-20.4-92.7c-15.6-53.2-30.4-103.4-5.2-126.9
			c12.8-11.9,34.7-15.9,67-12.1c35.6,4.1,83,17.4,145,40.6l-0.7,1.8c-61.9-23.1-109.1-36.4-144.5-40.5c-31.7-3.7-53.1,0.2-65.5,11.6
			c-24.3,22.6-9.7,72.3,5.8,124.9c9.4,31.8,19,64.7,20.5,93.2c1.4,28.1-3.8,47.4-16.4,60.5c-51.8,53.9-79,39.1-138.6,6.5
			c-40.8-22.3-96.6-52.8-186.2-75.4c-132.6-33.5-232,28.4-347.1,100.1c-21.6,13.4-43.9,27.3-66.8,40.8c-47.8,28.1-112.5,63-188.8,84
			C278,543.8,245.5,548.5,215.2,548.5z"/>
	</g>
	<g>
		<path fill="#2C44ED" d="M212,557.6c-17.8,0-34.8-1.6-51.1-4.8c-36.1-7.1-68.4-22.1-96.2-44.5C17.3,470.2-0.5,423-0.6,422.6
			l1.8-0.7c0.2,0.5,17.8,47.2,64.7,85c43.3,34.9,121.1,69,245.9,33.9c59.1-16.6,116.7-42.5,186.7-84c23.7-14,46.8-28.5,69.1-42.6
			c55.6-35,108.1-68.1,163.2-89c61.9-23.5,118.2-28.2,177.2-14.9c86.2,19.4,141.2,46.6,181.4,66.5c60.1,29.8,87.6,43.3,139.1-7.1
			c15.2-14.9,17.6-36.5,17.9-55.7c0.4-26.7-7.6-57.5-15.4-87.2c-12.2-46.7-23.7-90.9-0.3-112.3c26.2-24,92.9-15.9,209.9,25.6
			l-0.6,1.8c-61.5-21.8-108.5-34.2-143.4-37.8c-31.3-3.2-52.4,0.6-64.5,11.8c-22.5,20.7-11.2,64.3,0.9,110.4
			c7.8,29.9,15.8,60.7,15.4,87.7c-0.3,19.6-2.7,41.6-18.4,57c-25.4,24.8-45.7,35.1-67.8,34.2c-21.2-0.8-43.2-11.7-73.5-26.7
			c-40.1-19.8-95-47-180.9-66.3c-128.5-28.9-230.7,35.5-339,103.6c-22.3,14.1-45.4,28.6-69.1,42.6c-70.2,41.5-127.9,67.5-187.1,84.2
			C276.9,552.6,243.3,557.6,212,557.6z"/>
	</g>
	<g>
		<path fill="#3442EA" d="M208.5,566.7c-16,0-31.4-1.3-46.1-3.8c-35.9-6.2-68.4-20-96.4-40.9c-47.7-35.6-66.4-80.3-66.6-80.7
			l1.8-0.7c0.2,0.4,18.7,44.7,66.1,80c43.7,32.6,121.6,63.9,244.6,28.5c58.8-16.9,115.8-42.8,185-84.1
			c24.5-14.6,48.4-29.8,71.6-44.5c54.4-34.7,105.8-67.4,159.7-88.6c60.5-23.9,115.3-29.8,172.5-18.6
			c82.6,16.2,136.6,40.1,176.1,57.6c30.6,13.6,52.7,23.4,74.1,23.9c22.3,0.6,42.6-9,67.8-32.2c13.7-12.5,17.8-30,19.8-52.3
			c2.3-25.2-4-53.8-10.1-81.5c-8.9-40.5-17.4-78.7,4.2-98.1c25.7-23.1,91.8-15.8,208.1,23l-0.6,1.8c-115.5-38.6-181.1-46-206.2-23.4
			c-20.7,18.6-12.4,56.3-3.6,96.3c6.1,27.8,12.5,56.6,10.2,82.1c-2.1,22.8-6.3,40.6-20.5,53.5c-53.3,48.8-83.6,35.4-144,8.6
			c-39.4-17.4-93.3-41.3-175.7-57.4c-124.5-24.4-224.7,39.4-330.8,107c-23.1,14.7-47,30-71.6,44.6c-69.3,41.4-126.5,67.3-185.4,84.3
			C275.7,561.4,241,566.7,208.5,566.7z"/>
	</g>
	<g>
		<path fill="#3A40E8" d="M204.8,575.9c-14.1,0-27.7-1-40.9-2.9c-35.8-5.3-68.3-17.9-96.6-37.3c-48.2-33.1-67.8-75.3-68-75.7
			l1.7-0.8c0.2,0.4,19.6,42.2,67.4,75c44.1,30.3,122.1,58.9,243.3,23.2c57.7-16.9,115.9-43.7,183.3-84.2
			c25.5-15.2,50.2-31.2,74.2-46.6c53.2-34.3,103.5-66.7,156-88.3c59.1-24.3,112.4-31.4,167.8-22.3c79.1,13,132.2,33.7,170.9,48.8
			c61,23.8,91.6,35.8,144.7-9.7c14.2-12.2,18.3-29.3,21.8-48.9c4.3-23.8-0.2-50.2-4.6-75.7c-5.9-34.5-11.5-67.1,8.1-84.3
			c12.2-10.7,33.2-14.6,64.1-12.1c34.3,2.8,80.9,13.5,142.4,32.7l-0.6,1.8c-115-35.9-180.1-42.6-204.7-21
			c-18.8,16.5-13.3,48.5-7.5,82.5c4.4,25.7,9,52.3,4.6,76.4c-3.6,19.9-7.8,37.4-22.5,50c-26.6,22.8-47.6,31.4-69.4,31.4
			c-22.5,0-45.9-9.1-77.2-21.3c-38.6-15.1-91.6-35.7-170.5-48.7C772.4,298,674.2,361.2,570.4,428.1c-24,15.4-48.7,31.4-74.2,46.6
			c-67.5,40.6-125.9,67.4-183.7,84.4C274.4,570.3,238.4,575.9,204.8,575.9z"/>
	</g>
	<g>
		<path fill="#413EE6" d="M200.7,585.2c-12.1,0-23.8-0.7-35.3-2.1c-35.6-4.5-68.2-15.8-96.7-33.8c-48.7-30.6-69.1-70.3-69.3-70.7
			l1.7-0.9c0.2,0.4,20.5,39.7,68.7,70c44.5,28,122.6,53.8,242,17.8c57.3-17.2,115.1-44,181.6-84.4c26.4-15.9,52.1-32.6,76.9-48.8
			c52-33.9,101.1-65.9,152.3-87.8c57.7-24.7,109.5-32.9,163-25.8c75.7,10,125.7,26.8,165.8,40.3c62.3,21,93.6,31.5,147.4-11.3
			c14-11.2,18.5-26.8,23.2-43.4l0.6-2.1c6.4-22.4,3.8-46.5,1.2-69.8c-3.3-30.1-6.2-56,11.5-70.9c24.8-20.9,88.1-15.2,205.2,18.6
			l-0.5,1.8c-61.6-17.8-107.9-27.6-141.7-30.1c-30-2.2-50.2,1.4-61.8,11.1c-16.9,14.2-14.1,39.7-10.8,69.2
			c2.5,22.4,5.2,47.8-1.3,70.6l-0.6,2.1c-4.8,16.9-9.3,32.8-23.9,44.4c-25.9,20.6-48,29.9-71.9,29.9c-0.1,0-0.2,0-0.3,0
			c-22.6,0-46.7-8.1-77-18.3c-40-13.5-89.9-30.3-165.4-40.3C769,305.2,673,367.8,571.4,434c-24.8,16.2-50.5,32.9-77,48.9
			c-66.7,40.4-124.5,67.3-182.1,84.5C273,579.3,235.6,585.2,200.7,585.2z"/>
	</g>
	<g>
		<path fill="#463CE4" d="M196.3,594.6c-10,0-19.7-0.5-29.3-1.4c-35.5-3.6-68.1-13.7-96.9-30.2C21,534.8-0.4,497.6-0.6,497.2
			l1.7-0.9c0.2,0.4,21.4,37.2,70.1,65.1c44.9,25.7,123.2,48.7,240.7,12.5c57-17.5,114.2-44.4,179.9-84.5
			c27.4-16.6,54-34.2,79.8-51.2c50.7-33.5,98.6-65.1,148.5-87.3c56.2-25.1,106.5-34.4,158.1-29.3c72.5,7.1,121.5,20.9,160.8,32.1
			c61.6,17.4,95.5,27,149.9-13.1c13.6-10.1,22-23.8,25.7-41.9l0-0.2l0.1-0.2c13.9-21.3,13.7-45.7,13.6-67.2
			c-0.1-22.7-0.3-42.2,14.9-54c11.5-8.9,31.1-12.2,60.1-10.3c32.3,2.2,77.1,11,137,26.8l-0.5,1.9c-112.1-29.6-172.4-34.8-195.5-16.8
			c-14.4,11.2-14.3,30.3-14.1,52.4c0.1,21.7,0.3,46.3-13.8,68.1c-3.8,18.6-12.5,32.6-26.5,42.9c-28.5,21-51.4,28.6-75.4,28.6
			c-22.5,0-46.1-6.7-76.2-15.2c-39.3-11.1-88.2-24.9-160.5-32c-112.4-11-206.2,50.9-305.4,116.3c-25.8,17-52.4,34.6-79.8,51.2
			c-65.9,40.2-123.2,67.1-180.4,84.7C271.5,588.3,232.6,594.6,196.3,594.6z"/>
	</g>
	<g>
		<path fill="#4C39E2" d="M191.5,604.1c-7.8,0-15.4-0.3-22.9-0.9c-35.3-2.7-68-11.7-97.1-26.7C21.9,551-0.3,516.2-0.6,515.9l1.6-1
			c0.2,0.3,22.3,34.8,71.4,60.1c45.3,23.4,123.7,43.6,239.5,7.1c56.8-17.9,113.4-44.7,178.2-84.6c28.5-17.4,56.1-35.8,82.8-53.7
			c97.1-64.9,188.8-126.2,297.9-119.5c69.4,4.3,117.5,15.2,156.1,24c62.7,14.3,97.3,22.2,152.2-15.2c13.8-9.4,22.9-22,27.7-38.5
			l0.1-0.2l0.1-0.2c17.2-19.1,19.5-40.4,21.5-59.2c1.9-17.8,3.5-33.2,17.1-42.8c23.4-16.6,81.7-12.2,194.9,14.6l-0.4,1.9
			c-112.6-26.7-170.4-31.2-193.3-14.9c-12.8,9.1-14.4,24.1-16.3,41.4c-2,19-4.3,40.6-21.8,60.1c-5,16.8-14.3,29.7-28.4,39.4
			c-26.3,17.9-49.2,26.3-74.3,27.3c-23.6,0.9-48.2-4.7-79.4-11.8c-38.5-8.8-86.5-19.7-155.8-24c-108.5-6.7-199.9,54.4-296.7,119.2
			c-26.7,17.9-54.3,36.3-82.9,53.7c-65,39.9-121.8,66.9-178.7,84.8C269.9,597.4,229.3,604.1,191.5,604.1z"/>
	</g>
	<g>
		<path fill="#5137DF" d="M186.1,613.8c-5.4,0-10.7-0.1-16-0.4c-35.2-1.8-67.9-9.6-97.2-23.1c-50-23.1-73.2-55.4-73.4-55.7l1.6-1.1
			c0.2,0.3,23.2,32.3,72.8,55.1c45.8,21.1,124.2,38.5,238.2,1.8c65.1-21,123.3-53.1,176.6-84.7c32.9-19.6,64.7-41.1,95.5-61.9
			c92.1-62.3,179-121.2,279.4-116.6c62.7,2.9,108.4,10.7,145,16.9c66.7,11.3,103.5,17.6,160.8-18.2c14.1-8.8,23.8-20.3,29.7-35.1
			l0.1-0.2l0.2-0.2c20.7-16.7,25.4-34.7,29.6-50.5c4.8-18.1,9-33.8,36.6-39.1c29.2-5.6,83.2,0.4,174.9,19.6l-0.4,1.9
			c-91.5-19.1-145.2-25.2-174.2-19.6c-26.5,5.1-30.3,19.5-35.1,37.7c-4.3,16.1-9.1,34.3-30.1,51.3c-6.1,15.1-16,26.9-30.4,35.8
			c-27.4,17.1-51.4,25.4-77.9,27c-25,1.5-51.1-3-84.2-8.6c-36.6-6.2-82.2-14-144.8-16.9c-99.7-4.6-186.4,54.1-278.2,116.3
			c-30.8,20.8-62.6,42.4-95.6,62c-53.3,31.7-111.7,63.9-177,84.9C268,606.5,225.6,613.8,186.1,613.8z"/>
	</g>
	<g>
		<path fill="#5735DD" d="M180.1,623.6c-2.8,0-5.7,0-8.5-0.1c-35-0.9-67.8-7.5-97.4-19.6c-50.4-20.6-74.5-50.4-74.8-50.7L1,552
			c0.2,0.3,24.1,29.8,74.1,50.2c46.2,18.8,124.8,33.5,236.9-3.6c64.1-21.1,121.9-53.3,174.9-84.9c34.1-20.3,66.9-42.9,98.6-64.7
			c89-61.2,173.1-118.9,270.5-119.2c61.5-0.1,106.9,5,143.3,9.2c64.3,7.4,103.2,11.8,160-20.6c14.3-8.1,24.7-18.5,31.7-31.8l0.1-0.2
			l0.2-0.1c24-14.1,31.4-28.5,37.9-41.2c14.9-29.1,23.1-45.1,211.1-11.5l-0.3,1.9c-186.6-33.4-194.6-17.8-209.1,10.5
			c-6.3,12.3-14.1,27.5-38.4,41.9c-7.2,13.5-17.8,24-32.3,32.3c-57.4,32.7-96.5,28.2-161.2,20.8c-36.4-4.2-81.7-9.4-143.1-9.2
			c-96.7,0.2-180.6,57.8-269.4,118.8c-31.8,21.8-64.6,44.4-98.7,64.7c-53,31.7-111,63.9-175.3,85.1
			C266,615.8,221.5,623.6,180.1,623.6z"/>
	</g>
	<g>
		<path fill="#5B33DB" d="M173.5,633.6c-0.1,0-0.2,0-0.3,0c-34.9,0-67.7-5.4-97.6-16c-50.9-18.1-75.9-45.4-76.1-45.7l1.4-1.3
			c0.2,0.3,25,27.3,75.4,45.2c46.6,16.5,125.3,28.4,235.6-8.9c55.2-18.6,111.8-46.4,173.2-85c32.1-20,63-41.6,92.9-62.4
			c89.2-62.2,173.4-120.9,270.5-126.8c62.1-3.8,108.2-1.1,145.1,1.1c60.5,3.6,100.4,5.9,155.8-22.6c14.5-7.5,25.5-16.8,33.7-28.4
			l0.2-0.2l0.3-0.1c27-11.3,37.5-22.4,45.9-31.4c19.8-21.1,28.9-30.8,210.9-4.1l-0.3,1.9c-181-26.5-189.8-17.1-209.2,3.5
			c-8.5,9-19.1,20.3-46.3,31.7c-8.4,11.8-19.6,21.2-34.3,28.8c-55.9,28.8-96,26.4-156.8,22.8c-36.9-2.2-82.9-4.9-144.9-1.1
			c-96.5,5.9-180.6,64.5-269.5,126.5c-29.9,20.9-60.8,42.4-92.9,62.4C424.7,562.2,368,590,312.6,608.7
			C263.8,625.2,217,633.6,173.5,633.6z"/>
	</g>
	<g>
		<path fill="#6130D9" d="M166,643.8c-31.5,0-61.4-4.2-89-12.6c-51.3-15.6-77.2-40.4-77.5-40.7l1.3-1.4c0.3,0.2,25.9,24.9,76.8,40.3
			c47,14.2,125.8,23.3,234.3-14.3c55-19,111.1-46.8,171.5-85.1c33.4-21,65.6-43.8,96.6-65.8c86.3-61.1,167.9-118.8,260.9-128.8
			c60.9-6.5,106.8-6.5,143.8-6.4c58,0.1,100,0.1,154.8-25.2c14.7-6.8,26.4-15,35.8-25l0.2-0.2l0.3-0.1c28.5-8.1,41.6-15.1,52.2-20.8
			c26.4-14.1,32.7-17.5,212.3,2.6l-0.2,1.9c-179-20-185.2-16.7-211.2-2.8c-10.6,5.7-23.9,12.8-52.4,20.9
			c-9.5,10.1-21.3,18.4-36.2,25.2c-55.2,25.5-97.3,25.4-155.6,25.3c-36.9-0.1-82.8-0.1-143.6,6.4c-92.5,9.9-173.9,67.5-260,128.4
			c-31.1,22-63.3,44.8-96.7,65.8C424,570,367.8,597.9,312.7,617c-48.1,16.7-94.5,25.7-137.9,26.7C171.8,643.8,168.9,643.8,166,643.8
			z"/>
	</g>
	<g>
		<path fill="#652DD7" d="M157.4,654.3c-27.7,0-54.2-3.1-79-9.4c-51.8-13-78.5-35.4-78.8-35.7l1.2-1.5C1.1,608,27.6,630.1,79,643
			c47.4,11.9,126.4,18.2,233.1-19.6c54.7-19.4,110.3-47.3,169.8-85.3c34.9-22.1,68.3-46.2,100.7-69.4
			c83.4-59.9,162.1-116.5,251-130.5c60.9-9.5,105.5-12.1,144.9-14.3c56.8-3.2,97.8-5.5,151.2-27.4c14.9-6.1,27.3-13.2,37.8-21.6
			l0.2-0.2l0.2,0c21.3-3.7,35.9-6.8,46.5-9c34.7-7.2,34.7-7.2,116.4-0.6c26,2.1,61.6,5,109.4,8.6l-0.1,1.9
			c-47.7-3.5-83.4-6.5-109.4-8.6c-81.5-6.6-81.5-6.6-115.9,0.5c-10.6,2.2-25.1,5.2-46.3,8.9c-10.7,8.5-23.1,15.6-38.1,21.7
			c-53.7,22-94.9,24.3-151.8,27.5c-39.4,2.2-84,4.8-144.7,14.3c-88.5,13.8-167,70.3-250.2,130.1c-32.4,23.3-65.9,47.4-100.8,69.5
			c-59.6,38.1-115.3,66-170.2,85.4c-47.3,16.8-93.2,26.4-136.4,28.6C170,654.1,163.7,654.3,157.4,654.3z"/>
	</g>
	<g>
		<path fill="#6B2BD5" d="M147.7,665.1c-23.6,0-46.3-2.2-67.8-6.5C27.6,648,0,628.1-0.3,627.9l1.1-1.5c0.3,0.2,27.7,19.9,79.5,30.3
			c47.8,9.6,126.9,13.1,231.8-25c54.6-19.8,109.5-47.7,168.1-85.4c36.5-23.3,71.4-48.8,105.2-73.5c80.3-58.6,156.1-114,240.8-131.8
			c63-13.2,109.5-18.5,150.6-23.2c51.8-5.9,92.7-10.6,143.2-28.6c14.9-5.3,28-11.3,39.9-18.2l0.2-0.1l0.2,0
			c60.7-5.1,73.4-2.9,98.7,1.3c26,4.4,65.2,11,181.3,14.9l-0.1,1.9c-116.3-3.9-155.6-10.5-181.6-14.9c-25.9-4.4-37.8-6.4-98-1.3
			c-12,6.9-25.1,12.9-40,18.3c-50.7,18.1-91.7,22.8-143.6,28.7c-41,4.7-87.5,10-150.4,23.2c-84.3,17.6-159.9,72.9-240,131.4
			c-33.8,24.7-68.8,50.2-105.3,73.5c-58.7,37.7-113.8,65.7-168.5,85.6c-46.5,16.9-91.9,27.1-134.9,30.4
			C167.7,664.7,157.6,665.1,147.7,665.1z"/>
	</g>
	<g>
		<path fill="#6F29D2" d="M136.4,676.2c-19,0-37.4-1.4-55.2-4.1c-52.6-8-81.2-25.5-81.5-25.6l1-1.6c0.3,0.2,28.6,17.4,80.9,25.4
			c48.3,7.3,127.4,8.1,230.5-30.3c53.6-19.9,109.6-48.7,166.4-85.5c38.3-24.6,74.8-51.8,110.2-78c77-57.2,149.7-111.2,230-132.6
			c69.3-18.4,120.2-27,165.1-34.5c43.9-7.4,81.7-13.7,126.2-27.4c14.6-4.5,27.9-9.2,42-14.8l0.2-0.1l0.2,0
			c51.5,3.5,72.7,9.9,93.1,16.2c31.5,9.6,61.2,18.7,194.7,17.3l0,1.9c-133.8,1.4-163.6-7.7-195.3-17.4
			c-20.3-6.2-41.3-12.6-92.5-16.1c-14,5.6-27.3,10.3-41.9,14.8c-44.6,13.7-82.5,20-126.4,27.4c-44.9,7.5-95.7,16.1-164.9,34.5
			c-80,21.3-152.5,75.2-229.4,132.2c-35.4,26.3-71.9,53.4-110.3,78.1c-56.9,36.9-113,65.7-166.8,85.7c-45.7,17-90.6,27.9-133.4,32.2
			C164.8,675.5,150.4,676.2,136.4,676.2z"/>
	</g>
	<g>
		<path fill="#7427D0" d="M123.3,687.9c-13.9,0-27.4-0.7-40.7-2.1c-53.1-5.5-82.5-20.5-82.8-20.6l0.9-1.7c0.3,0.1,29.5,15,82.2,20.4
			c48.7,5.1,128,3,229.2-35.7c53.5-20.4,108.9-49.2,164.8-85.6c40.3-26.1,78.7-55.1,115.8-83.2c73.5-55.5,142.9-107.9,218.6-132.7
			c85.1-27.8,143.3-40.1,199.7-51.9c29.8-6.2,58-12.1,89.2-20.2c6-1.5,11.6-3.7,17-5.8c9.8-3.8,19-7.4,27.5-5.6
			c49.6,10.5,75,21.8,95.5,30.8c37.9,16.8,63,27.8,200,19.9l0.1,1.9c-31.2,1.8-56.6,2.6-77.7,2.6c-71.9,0-93.7-9.6-123.2-22.7
			c-21.4-9.5-45.7-20.2-95.1-30.7c-8-1.7-16.5,1.6-26.4,5.5c-5.5,2.1-11.1,4.3-17.2,5.9c-31.3,8-59.5,13.9-89.3,20.2
			c-56.3,11.8-114.5,24-199.5,51.8c-75.4,24.7-144.7,77-218,132.4C556.7,509,518.3,538,478,564.2C422,600.7,366.5,629.6,312.8,650
			c-44.9,17.1-89.3,28.6-131.9,34.1C161.3,686.6,142,687.9,123.3,687.9z"/>
	</g>
	<g>
		<path fill="#7824CE" d="M107.9,700.1c-8.1,0-16.1-0.2-23.9-0.7c-53.5-3-83.8-15.5-84.1-15.6l0.7-1.8c0.3,0.1,30.4,12.5,83.6,15.5
			c49.1,2.8,128.5-2.1,228-41c53.4-20.9,108.3-49.7,163.1-85.8c42.7-27.9,83.3-59.1,122.5-89.3c69.6-53.5,135.3-104.1,206.1-131.9
			c122.6-48.2,194.2-63,284.8-81.8l1.7-0.3c5.3-1.1,10.4-2.6,15.4-4c11.1-3.2,21.5-6.2,31.1-3.9c56.5,13.3,84.3,29.1,108.8,43.1
			c39.5,22.5,68,38.7,194.6,24.8l0.2,1.9c-32.7,3.6-58.8,5.2-80.4,5.2c-62.3,0-85.8-13.4-115.4-30.2
			c-24.4-13.9-52.1-29.7-108.3-42.9c-9-2.1-19.3,0.8-30.1,3.9c-5,1.4-10.1,2.9-15.5,4l-1.7,0.3c-90.5,18.7-162,33.5-284.5,81.7
			C734,379.1,668.4,429.5,598.9,483c-39.3,30.2-79.8,61.4-122.6,89.4c-54.9,36.1-109.9,65-163.4,86c-44.1,17.3-87.9,29.3-130.4,35.9
			C157,698.2,132.1,700.1,107.9,700.1z"/>
	</g>
	<g>
		<path fill="#7D22CC" d="M89.7,713.1c-1.4,0-2.9,0-4.3,0C31.5,712.6,0.3,702.6,0,702.5l0.6-1.8c0.3,0.1,31.3,10,84.9,10.5
			c49.5,0.4,129.1-7.2,226.7-46.4c53.3-21.4,107.6-50.3,161.4-85.9c45.7-30.1,88.9-64,130.7-96.7C669.5,431,731,382.8,796.4,352.3
			c112.3-52.3,189.3-77.3,284.1-92.2c4.3-0.7,8.6-1.5,12.7-2.3c12.7-2.5,24.7-4.9,35.7-2.1c63.2,16,94.7,35.9,122.5,53.4
			c42,26.6,72.4,45.7,188.8,31.6l0.2,1.9c-27.3,3.3-49.8,4.8-69,4.8c-63,0-88.5-16.2-121-36.7c-27.7-17.5-59-37.3-121.9-53.2
			c-10.5-2.7-22.4-0.3-34.9,2.1c-4.1,0.8-8.4,1.7-12.8,2.4c-94.6,15-171.5,39.9-283.6,92.1c-65.2,30.3-126.7,78.5-191.8,129.6
			c-41.8,32.8-85.1,66.7-130.8,96.8c-53.9,35.7-108.3,64.6-161.7,86.1C217.7,704.8,139.6,713.1,89.7,713.1z"/>
	</g>
	<g>
		<path fill="#8020CA" d="M68.7,727.1c-43.3,0-68.4-5.9-68.6-5.9l0.4-1.9c0.3,0.1,32.2,7.5,86.3,5.5c50-1.8,129.6-12.3,225.4-51.8
			c53.3-22,107.1-50.9,159.7-86c49.4-32.9,96-70.2,141.1-106.2c60-48,116.7-93.4,175.9-125.6c119.9-65.2,196.3-92.9,281.7-102.4
			c16.4-1.8,33.8-3.4,50.3-1c77.5,11.2,112.9,40.6,144.2,66.5c40.2,33.3,72,59.6,174.9,35.8l0.4,1.9c-47.6,11-83.2,12-112.2,3.2
			c-26.2-7.9-44.7-23.3-64.3-39.5c-31.1-25.7-66.3-54.9-143.3-66c-16.2-2.3-33.5-0.8-49.8,1c-85.1,9.4-161.3,37.1-281,102.1
			c-59.1,32.1-115.7,77.5-175.6,125.4c-45.1,36.1-91.7,73.4-141.2,106.3c-52.7,35.2-106.6,64.2-160,86.2
			c-96.1,39.6-176.1,50.1-226.2,51.9C80.4,727,74.4,727.1,68.7,727.1z"/>
	</g>
	<g>
		<path fill="#851EC7" d="M44.1,742.2c-27.9,0-43.7-2.4-44-2.5l0.3-1.9c0.3,0.1,33.1,5,87.7,0.6c50.4-4.1,130.2-17.4,224.2-57.1
			c53.4-22.6,106.5-51.5,158-86.2C524.9,558.6,576,516.6,625.5,476c53.5-43.9,104.1-85.3,156-118c59.1-37.2,103.7-61.5,144.6-78.8
			c47.7-20.2,90.5-30.9,134.7-33.7c21.3-1.3,37.4-0.6,52.3,2.5c36.4,7.5,67.7,19.3,95.5,36.1c24.3,14.7,42.8,31.2,59.1,45.9
			c41.7,37.4,74.7,66.9,172.4,37.5l0.6,1.8c-45.4,13.7-79.7,15.7-108.1,6.5c-25.9-8.4-44.5-25.1-66.1-44.4
			c-33.9-30.4-72.4-64.8-153.7-81.6c-14.7-3-30.6-3.8-51.8-2.4c-92.7,5.8-175.2,47.2-278.4,112.2c-51.9,32.7-102.4,74.1-155.8,117.9
			c-49.5,40.6-100.7,82.6-155.4,119.2c-51.6,34.7-104.9,63.7-158.3,86.3c-94.3,39.9-174.3,53.2-224.9,57.3
			C71.3,741.8,56.5,742.2,44.1,742.2z"/>
	</g>
	<g>
		<path fill="#891BC5" d="M17.7,758.9c-11.3,0-17.4-0.5-17.6-0.5l0.2-1.9c0.3,0,34,2.6,89-4.4c50.8-6.4,130.7-22.5,222.9-62.5
			c53.5-23.2,106.1-52.2,156.3-86.3c62.1-42,119.8-90.8,175.7-138c44.7-37.8,87-73.5,129.7-104.5
			c100.1-72.5,185.5-121.1,276.8-122.6c19.9-0.3,37.6,1.6,54.3,6c86.2,22.4,129.9,64.2,165.1,97.7c45,42.9,77.4,74,169.7,39l0.7,1.8
			c-28.3,10.7-51,15.3-70.2,15.3c-44.3,0-69.8-24.4-101.5-54.7c-35-33.4-78.5-74.9-164.2-97.3c-16.5-4.3-34-6.2-53.7-5.9
			c-90.8,1.5-175.9,49.9-275.8,122.2c-42.7,30.9-84.9,66.6-129.6,104.4c-55.9,47.2-113.7,96.1-175.9,138.1
			C419.3,639,366.6,668.1,313,691.3c-92.5,40.1-172.6,56.2-223.5,62.7C57.7,758,33,758.9,17.7,758.9z"/>
	</g>
	<g>
		<path fill="#8D19C3" d="M0.3,777.1C0.3,777.1,0.3,777.1,0.3,777.1l-0.1-1.9c0.5,0,57.3,0.1,142.7-20
			c78.9-18.5,199.1-58.5,324-143.7c74.3-50.7,142.6-110.9,208.5-169c73.8-65.1,143.6-126.5,212.7-166.3
			c37-21.3,70.9-34.7,103.7-41.1c36.5-7.1,71-5.3,105.4,5.3c90.7,28,137.8,75.5,175.7,113.6c23.6,23.7,43.9,44.2,68.8,53.4
			c26.8,9.8,57.9,5.7,98.1-13l0.8,1.7c-40.6,18.9-72.2,23.1-99.5,13.1c-25.3-9.3-45.8-29.9-69.5-53.8
			c-37.7-38-84.6-85.2-174.9-113.1c-64.7-20-130.7-8.7-207.6,35.6c-68.9,39.6-138.6,101-212.3,166.1C610.7,502,542.5,562.2,468,613
			c-55.2,37.7-114.2,69.8-175.2,95.4c-48.8,20.5-99.1,36.8-149.4,48.6C59.1,776.8,2.7,777.1,0.3,777.1z"/>
	</g>
</g>
<g>
	<g>
		<linearGradient id="SVGID_1_" gradientUnits="userSpaceOnUse" x1="-2.471924e-02" y1="593.6638" x2="781.2054" y2="593.6638">
			<stop  offset="0" style="stop-color:#083575"/>
			<stop  offset="0.9942" style="stop-color:#083575;stop-opacity:0"/>
		</linearGradient>
		<polygon fill="url(#SVGID_1_)" points="0.5,653.5 0,649.7 780.6,533.9 781.2,537.7 		"/>
	</g>
	<g>
		<linearGradient id="SVGID_2_" gradientUnits="userSpaceOnUse" x1="-2.471924e-02" y1="580.7157" x2="447.6337" y2="580.7157">
			<stop  offset="0" style="stop-color:#083575"/>
			<stop  offset="0.9942" style="stop-color:#083575;stop-opacity:0"/>
		</linearGradient>
		<polygon fill="url(#SVGID_2_)" points="0.5,615.8 0,612 447.1,545.7 447.6,549.5 		"/>
	</g>
	<g>
		
			<linearGradient id="SVGID_3_" gradientUnits="userSpaceOnUse" x1="1827.8685" y1="232.2428" x2="2452.7935" y2="232.2428" gradientTransform="matrix(-1 0 0 -1 3268.1526 412.9272)">
			<stop  offset="0" style="stop-color:#083575"/>
			<stop  offset="0.9942" style="stop-color:#083575;stop-opacity:0"/>
		</linearGradient>
		<polygon fill="url(#SVGID_3_)" points="815.9,228.9 815.4,225.1 1439.7,132.5 1440.3,136.3 		"/>
	</g>
	<g>
		
			<linearGradient id="SVGID_4_" gradientUnits="userSpaceOnUse" x1="1827.8685" y1="-227.2707" x2="2814.0676" y2="-227.2707" gradientTransform="matrix(-1 0 0 -1 3268.1526 412.9272)">
			<stop  offset="0" style="stop-color:#083575"/>
			<stop  offset="3.423603e-02" style="stop-color:#083575;stop-opacity:0.9656"/>
			<stop  offset="0.9942" style="stop-color:#083575;stop-opacity:0"/>
		</linearGradient>
		<polygon fill="url(#SVGID_4_)" points="454.6,715.2 454.1,711.4 1439.7,565.2 1440.3,569 		"/>
	</g>
	<g>
		
			<linearGradient id="SVGID_5_" gradientUnits="userSpaceOnUse" x1="1899.8824" y1="6.672" x2="3071.6189" y2="6.672" gradientTransform="matrix(-1 0 0 -1 3268.1526 412.9272)">
			<stop  offset="0" style="stop-color:#083575;stop-opacity:0"/>
			<stop  offset="0.5" style="stop-color:#083575"/>
			<stop  offset="1" style="stop-color:#083575;stop-opacity:0"/>
		</linearGradient>
		<polygon fill="url(#SVGID_5_)" points="197.1,495 196.5,491.2 1367.7,317.5 1368.3,321.3 		"/>
	</g>
</g>
</svg>
