<svg width="16" height="16" viewBox="0 0 16 16" fill="none" xmlns="http://www.w3.org/2000/svg">
<path d="M7.99992 1.33203C11.6818 1.33203 14.6666 4.3168 14.6666 7.9987C14.6666 11.6806 11.6818 14.6654 7.99992 14.6654C4.31802 14.6654 1.33325 11.6806 1.33325 7.9987C1.33325 4.3168 4.31802 1.33203 7.99992 1.33203ZM7.99992 2.33203C4.87031 2.33203 2.33325 4.86908 2.33325 7.9987C2.33325 11.1283 4.87031 13.6654 7.99992 13.6654C11.1295 13.6654 13.6666 11.1283 13.6666 7.9987C13.6666 4.86908 11.1295 2.33203 7.99992 2.33203ZM7.99992 4.66536C8.27605 4.66536 8.49992 4.88922 8.49992 5.16536V7.4987H10.8333C11.1094 7.4987 11.3333 7.72256 11.3333 7.9987C11.3333 8.27483 11.1094 8.4987 10.8333 8.4987H8.49992V10.832C8.49992 11.1082 8.27605 11.332 7.99992 11.332C7.72378 11.332 7.49992 11.1082 7.49992 10.832V8.4987H5.16658C4.89044 8.4987 4.66658 8.27483 4.66658 7.9987C4.66658 7.72256 4.89044 7.4987 5.16658 7.4987H7.49992V5.16536C7.49992 4.88922 7.72378 4.66536 7.99992 4.66536Z" fill="white"/>
</svg>
