<svg width="24" height="24" viewBox="0 0 24 24" fill="none" xmlns="http://www.w3.org/2000/svg">
<path d="M24 12C24 18.6274 18.6274 24 12 24C5.37265 24 0 18.6274 0 12C0 5.37259 5.37265 0 12 0C18.6274 0 24 5.37259 24 12Z" fill="#2E7FDF"/>
<path d="M17.1 12.9C17.5971 12.9 18 12.4971 18 12C18 11.503 17.5971 11.1 17.1 11.1L12.9 11.1V6.90001C12.9 6.40296 12.4971 6.00001 12 6.00001C11.503 6.00001 11.1 6.40296 11.1 6.90001L11.1 11.1L6.90001 11.1C6.40297 11.1 6.00001 11.503 6.00001 12C6.00001 12.4971 6.40297 12.9 6.90001 12.9H11.1L11.1 17.1C11.1 17.5971 11.503 18 12 18C12.4971 18 12.9 17.5971 12.9 17.1V12.9L17.1 12.9Z" fill="white"/>
</svg>
