<svg width="16" height="16" viewBox="0 0 16 16" fill="none" xmlns="http://www.w3.org/2000/svg">
<path d="M5.66663 6.66797C5.66663 6.29978 5.9651 6.0013 6.33329 6.0013H7.66663C8.03482 6.0013 8.33329 6.29978 8.33329 6.66797C8.33329 7.03616 8.03482 7.33464 7.66663 7.33464H6.33329C5.9651 7.33464 5.66663 7.03616 5.66663 6.66797Z" fill="#2E7FDF"/>
<path d="M6.33329 8.66797C5.9651 8.66797 5.66663 8.96645 5.66663 9.33464C5.66663 9.70283 5.9651 10.0013 6.33329 10.0013H10.3333C10.7015 10.0013 11 9.70283 11 9.33464C11 8.96645 10.7015 8.66797 10.3333 8.66797H6.33329Z" fill="#2E7FDF"/>
<path fill-rule="evenodd" clip-rule="evenodd" d="M3.66663 1.33464C3.66663 0.966446 3.9651 0.667969 4.33329 0.667969H9.99996C10.1954 0.667969 10.3712 0.75205 10.4931 0.886008L14.1566 4.88259C14.2663 5.0014 14.3333 5.1602 14.3333 5.33464V12.668C14.3333 13.0362 14.0348 13.3346 13.6666 13.3346H4.33329C3.9651 13.3346 3.66663 13.0362 3.66663 12.668V1.33464ZM4.99996 2.0013H9.33329V5.33464C9.33329 5.70283 9.63177 6.0013 9.99996 6.0013H13V12.0013H4.99996V2.0013ZM10.6666 3.0485L12.1511 4.66797H10.6666V3.0485Z" fill="#2E7FDF"/>
<path d="M2.99996 6.66797C2.99996 6.29978 2.70148 6.0013 2.33329 6.0013C1.9651 6.0013 1.66663 6.29978 1.66663 6.66797V14.668C1.66663 15.0362 1.9651 15.3346 2.33329 15.3346H9.33329C9.70148 15.3346 9.99996 15.0362 9.99996 14.668C9.99996 14.2998 9.70148 14.0013 9.33329 14.0013H2.99996V6.66797Z" fill="#2E7FDF"/>
</svg>
