<svg width="32" height="32" viewBox="0 0 32 32" fill="none" xmlns="http://www.w3.org/2000/svg">
<rect width="32" height="32" rx="16" fill="#B8B8B8"/>
<path d="M9.38409 9.52783L9.3843 9.52801L9.44676 9.45565L9.45156 9.45009L9.45175 9.45028C9.71636 9.18567 10.1303 9.16172 10.4221 9.37822L10.428 9.38262L10.4278 9.38283L10.5002 9.4453L10.5058 9.45009L10.5056 9.45028L16.0002 14.9446L21.4948 9.45028C21.7858 9.15928 22.2575 9.15928 22.5486 9.45028C22.8396 9.74128 22.8396 10.2131 22.5486 10.5041L17.0543 15.9987L22.5485 21.4933C22.5486 21.4933 22.5486 21.4933 22.5486 21.4933C22.8132 21.7579 22.8371 22.1719 22.6206 22.4636L22.6162 22.4696L22.616 22.4694L22.5535 22.5417L22.5488 22.5473L22.5486 22.5471C22.284 22.8117 21.87 22.8357 21.5783 22.6191L21.5723 22.6147L21.5725 22.6145L21.5002 22.5521L21.4946 22.5473L21.4948 22.5471L16.0002 17.0528L10.5056 22.5471C10.2146 22.8381 9.74275 22.8381 9.45175 22.5471C9.16075 22.2561 9.16075 21.7843 9.45175 21.4933M9.38409 9.52783L9.45175 21.4933M9.38409 9.52783L9.37968 9.53377C9.16318 9.82556 9.18713 10.2395 9.45175 10.5041C9.45175 10.5041 9.45175 10.5041 9.45175 10.5041L14.9461 15.9987M9.38409 9.52783L14.9461 15.9987M9.45175 21.4933L14.9461 15.9987M9.45175 21.4933L14.9461 15.9987" fill="#212121" stroke="black" stroke-width="0.2"/>
</svg>
