<svg width="24" height="24" viewBox="0 0 24 24" fill="none" xmlns="http://www.w3.org/2000/svg">
<path d="M20.4853 3.51472C25.1715 8.20098 25.1716 15.799 20.4853 20.4853C15.799 25.1716 8.20096 25.1716 3.51471 20.4853C-1.17159 15.799 -1.17155 8.20098 3.51471 3.51472C8.20101 -1.17157 15.799 -1.17157 20.4853 3.51472Z" fill="#A90000"/>
<path d="M16.2426 9.03016C16.5941 8.67869 16.5941 8.10883 16.2426 7.75737C15.8912 7.40591 15.3213 7.4059 14.9699 7.75737L12 10.7272L9.03015 7.75737C8.67868 7.4059 8.10881 7.40591 7.75735 7.75737C7.40589 8.10883 7.40588 8.67869 7.75735 9.03016L10.7272 12L7.75735 14.9699C7.40589 15.3213 7.40589 15.8912 7.75735 16.2427C8.10881 16.5941 8.67869 16.5941 9.03015 16.2427L12 13.2728L14.9699 16.2427C15.3213 16.5941 15.8912 16.5941 16.2426 16.2427C16.5941 15.8912 16.5941 15.3213 16.2426 14.9699L13.2728 12L16.2426 9.03016Z" fill="white"/>
</svg>
