<svg width="16" height="16" viewBox="0 0 16 16" fill="none" xmlns="http://www.w3.org/2000/svg">
<path fill-rule="evenodd" clip-rule="evenodd" d="M1.33337 2.66536C1.33337 1.92898 1.93033 1.33203 2.66671 1.33203H7.33337C7.70156 1.33203 8.00004 1.63051 8.00004 1.9987C8.00004 2.36689 7.70156 2.66536 7.33337 2.66536H2.66671V13.332H13.3334V8.66536C13.3334 8.29717 13.6319 7.9987 14 7.9987C14.3682 7.9987 14.6667 8.29717 14.6667 8.66536V13.332C14.6667 14.0684 14.0698 14.6654 13.3334 14.6654H2.66671C1.93033 14.6654 1.33337 14.0684 1.33337 13.332V2.66536ZM11.5649 1.33203C11.7419 1.332 11.9115 1.40228 12.0366 1.5274L14.4715 3.96343C14.7318 4.22376 14.7318 4.64571 14.4715 4.90603L7.57728 11.8033C7.45225 11.9284 7.28264 11.9987 7.10577 11.9987H4.66671C4.29852 11.9987 4.00004 11.7002 4.00004 11.332V8.90533C4.00004 8.72866 4.07017 8.55921 4.19502 8.43421L11.0934 1.52758C11.2184 1.40241 11.388 1.33206 11.5649 1.33203ZM11.5653 2.94189L5.33337 9.18124V10.6654H6.82955L13.0574 4.43473L11.5653 2.94189Z" fill="#2E7FDF"/>
</svg>
