<svg width="120" height="120" viewBox="0 0 120 120" fill="none" xmlns="http://www.w3.org/2000/svg">
<path d="M28.6492 116.772L63.0288 96.793L63.1419 56.918L28.7622 76.8971L28.6492 116.772Z" fill="url(#paint0_linear_885_1792)"/>
<path d="M28.7623 76.8953L63.142 56.9162L53.9642 18.0312L19.585 38.0104L28.7623 76.8953Z" fill="url(#paint1_linear_885_1792)"/>
<path d="M19.5848 38.0123L53.9641 18.0332L39.2589 9.54297L4.87964 29.5221L19.5848 38.0123Z" fill="#F6F6FB"/>
<path d="M4.8797 29.5234L4.78445 63.0551L4.67139 102.93L28.6492 116.774L28.7623 76.8986L19.5849 38.0136L4.8797 29.5234Z" fill="url(#paint2_linear_885_1792)"/>
<path d="M55.5591 32.8022L52.7427 20.8711L21.6899 38.9169L24.4814 50.745L55.5591 32.8022Z" fill="#7FD8F7"/>
<path d="M57.6649 33.7109L63.1419 56.9166L28.7623 76.8957L23.2583 53.576L57.6649 33.7109Z" fill="#F6F6FB"/>
<path d="M28.7622 66.301L34.1417 63.1953L35.9367 70.608L30.5614 73.7318L28.7622 66.301Z" fill="#44CFF1"/>
<path d="M26.519 57.9534L31.8986 54.8477L33.6935 62.2603L28.3182 65.3841L26.519 57.9534Z" fill="#313133"/>
<path d="M42.1477 52.5646L41.1573 48.3672L34.4563 52.2358L35.4524 56.4557L42.1477 52.5646Z" fill="url(#paint3_linear_885_1792)"/>
<path d="M30.7257 53.8564L30.1448 51.3945L26.2144 53.6637L26.7988 56.1387L30.7257 53.8564Z" fill="#1CD169"/>
<path d="M50.0841 48.0572L49.0933 43.8594L42.3923 47.728L43.3885 51.9482L50.0841 48.0572Z" fill="#FEC111"/>
<path d="M57.7756 43.5803L56.7848 39.3828L50.0842 43.2514L51.08 47.4713L57.7756 43.5803Z" fill="#7EB033"/>
<path d="M57.7291 48.2762L57.1439 45.7969L38.3845 56.5378L38.9729 59.0299L57.7291 48.2762Z" fill="#006699"/>
<path d="M54.2354 56.1427C53.4238 54.405 54.042 52.4003 55.6158 51.6652C57.19 50.9303 59.1236 51.7434 59.9352 53.4811C60.7469 55.2192 60.1286 57.2239 58.5548 57.9587C56.9806 58.6935 55.047 57.8808 54.2354 56.1427Z" fill="#44CFF1"/>
<path d="M48.6738 59.7759C48.1114 58.5711 48.5398 57.1815 49.6308 56.672C50.7222 56.1626 52.0628 56.7261 52.6252 57.9309C53.1876 59.1357 52.7592 60.5253 51.6682 61.0348C50.5772 61.5442 49.2366 60.9807 48.6738 59.7759Z" fill="url(#paint4_linear_885_1792)"/>
<path d="M42.6403 63.0884C42.0775 61.8836 42.5062 60.494 43.5973 59.9845C44.6883 59.4751 46.0289 60.0386 46.5914 61.2434C47.1541 62.4482 46.7257 63.8378 45.6344 64.3473C44.5433 64.8567 43.2027 64.2932 42.6403 63.0884Z" fill="#7EB033"/>
<path opacity="0.7" d="M16.2134 54.8578L16.2142 90.4562L32.0473 96.7932L91.5912 62.4164C92.8669 61.6782 93.9019 59.8869 93.9019 58.4153L93.9011 10.006C93.9011 8.53427 92.8661 7.93934 91.5904 8.67434L18.5241 50.8567C17.2483 51.5949 16.2134 53.3846 16.2134 54.8578Z" fill="#53BCEA"/>
<path opacity="0.7" d="M96.3553 33.0717C96.3553 34.5151 97.3693 35.098 98.6198 34.3779L111.23 27.0979C112.48 26.3747 113.494 24.6184 113.494 23.1752V13.8998C113.494 12.4565 112.48 11.8735 111.23 12.5937L98.6198 19.8751C97.3685 20.5969 96.3547 22.3517 96.3547 23.7949L96.3553 33.0717Z" fill="#D7E0E9"/>
<path opacity="0.7" d="M96.3552 49.7514C96.3552 51.1932 97.3691 51.7776 98.6197 51.0544L111.23 43.776C112.481 43.0544 113.493 41.2996 113.495 39.8547L113.493 30.5795C113.493 29.1362 112.48 28.5532 111.23 29.2734L98.6197 36.5532C97.3691 37.2764 96.3552 39.0327 96.3552 40.4746V49.7514Z" fill="#D7E0E9"/>
<path opacity="0.7" d="M96.3552 66.4294C96.3552 67.8743 97.3691 68.4587 98.6197 67.7385L111.23 60.4542C112.481 59.734 113.495 57.9808 113.495 56.5342V47.2606C113.493 45.8172 112.481 45.2312 111.23 45.9544L98.6197 53.2344C97.3691 53.9576 96.3552 55.7123 96.3552 57.1558V66.4294Z" fill="#D7E0E9"/>
<path d="M55.535 95.08L113.891 61.3884C115.175 60.6466 116.219 58.8394 116.219 57.3575L116.218 9.93418C116.218 8.45382 115.175 7.84937 113.89 8.58962L42.3099 49.9172C41.0277 50.6589 39.9836 52.4647 39.9836 53.9466V88.8564L40.006 88.8641L55.535 95.08ZM113.89 8.7392C115.103 8.03907 116.091 8.60654 116.091 10.0067L116.092 57.4284C116.092 58.8317 115.104 60.5418 113.891 61.2403L55.5813 94.9041L40.1117 88.7145L40.1109 53.8726C40.1109 52.4724 41.0978 50.7638 42.3099 50.0638L113.89 8.7392Z" fill="white"/>
<path d="M110.165 63.7574L113.891 61.6047C115.279 60.8045 116.409 58.8476 116.409 57.2439V52.1953L115.901 52.49V57.537C115.901 58.8168 114.999 60.3789 113.891 61.0173L110.165 63.1684L110.165 63.7574Z" fill="white"/>
<path d="M55.4649 95.3345L63.4126 90.7485V90.161L55.6515 94.6421L40.3023 88.5001V82.6836L39.7927 82.9767L39.7933 89.0661L39.8837 89.1L55.4649 95.3345Z" fill="white"/>
<path d="M39.7927 60.683L40.3015 60.3883V53.7624C40.3015 52.484 41.2028 50.9235 42.3101 50.2821L47.4041 47.3429V46.7539L42.3101 49.6961C40.9222 50.498 39.7928 52.4533 39.7928 54.0569L39.7927 60.683Z" fill="white"/>
<path d="M115.9 14.8841L116.408 14.5911V9.82319C116.408 8.21955 115.278 7.56883 113.89 8.37062L109.064 11.157L109.063 11.7445L113.89 8.95801C114.998 8.31662 115.9 8.83628 115.9 10.1177L115.9 14.8841Z" fill="white"/>
<path opacity="0.2" d="M42.5623 52.7826L55.839 45.1172V49.2391L42.5623 56.9045V52.7826Z" fill="white"/>
<path opacity="0.2" d="M92.6886 29.0319L93.9863 25.6887L92.6886 23.8398L90.0918 25.3403L88.7935 28.6865L90.0918 30.5323L92.6886 29.0319Z" fill="white"/>
<path opacity="0.2" d="M55.4057 89.9341L56.7039 86.5879L55.4057 84.7422L52.8088 86.241L51.5105 89.5871L52.8088 91.4314L55.4057 89.9341Z" fill="white"/>
<g opacity="0.7">
<path d="M82.5473 46.8711C82.5473 46.8711 82.397 47.016 82.1718 47.2335C82.06 47.3413 81.9289 47.4648 81.7887 47.6066C81.6499 47.75 81.5042 47.9011 81.3561 48.0538C81.2089 48.2065 81.0608 48.3576 80.9235 48.501C80.7871 48.6459 80.6614 48.7863 80.5534 48.905C80.3368 49.144 80.1926 49.3012 80.1926 49.3012L81.2043 51.2165C81.2043 51.2165 81.3315 51.0763 81.5243 50.8665C81.619 50.7601 81.7286 50.6366 81.8503 50.5071C81.9722 50.3822 82.1025 50.2482 82.2328 50.1124C82.3624 49.9783 82.4927 49.8441 82.6152 49.7177C82.7378 49.5943 82.8543 49.4863 82.953 49.3892C83.1519 49.195 83.2844 49.067 83.2844 49.067L82.5473 46.8711Z" fill="#CFF6FF"/>
<path d="M72.3517 61.7392C72.3517 61.7392 72.2099 62.0522 72.0687 62.3638C72.0332 62.4408 71.9994 62.5226 71.9677 62.5967C71.9369 62.6675 71.9091 62.7355 71.8829 62.7955C71.8336 62.9128 71.802 62.9914 71.802 62.9914C71.802 62.9914 71.9323 62.8927 72.1289 62.743C72.2275 62.6705 72.3401 62.5858 72.465 62.4964C72.5892 62.41 72.721 62.3159 72.8536 62.2265C73.1174 62.0446 73.3763 61.8702 73.5699 61.7424C73.6662 61.679 73.7456 61.6282 73.8028 61.5897C73.8575 61.5542 73.8906 61.5341 73.8906 61.5341C73.8906 61.5341 74.0302 61.2474 74.1706 60.9621C74.2399 60.8203 74.3086 60.6783 74.3625 60.5705C74.388 60.518 74.4087 60.4732 74.425 60.4408C74.4397 60.41 74.4496 60.3945 74.4496 60.3945C74.4496 60.3945 74.4165 60.41 74.3618 60.4439C74.3047 60.4779 74.2244 60.5271 74.1281 60.5827C73.9339 60.7015 73.6732 60.8617 73.4095 61.0299C73.2777 61.1131 73.1452 61.1979 73.0195 61.2797C72.8946 61.3614 72.7828 61.4416 72.6825 61.511C72.4844 61.6482 72.3517 61.7392 72.3517 61.7392Z" fill="#CFF6FF"/>
<path d="M73.4109 59.5621C73.4109 59.5621 73.37 59.6408 73.3099 59.7533C73.2815 59.8119 73.2451 59.8797 73.2082 59.9507C73.1713 60.0247 73.1333 60.1033 73.0964 60.1789C72.9453 60.4873 72.7942 60.7972 72.7942 60.7972C72.7942 60.7972 72.9268 60.7125 73.128 60.5814C73.3277 60.4533 73.5883 60.2853 73.852 60.1281C74.3848 59.8133 74.8974 59.5389 74.8974 59.5389C74.8974 59.5389 74.9338 59.4681 74.9908 59.36C75.0448 59.2538 75.1234 59.118 75.202 58.9762C75.3577 58.6986 75.5128 58.418 75.5128 58.418C75.5128 58.418 75.0022 58.6662 74.4687 58.9514C74.2058 59.0933 73.9453 59.2474 73.7447 59.3648C73.5443 59.4835 73.4109 59.5621 73.4109 59.5621Z" fill="#CFF6FF"/>
<path d="M74.4311 57.6882C74.4311 57.6882 74.2623 57.9904 74.0926 58.2927C74.0086 58.4453 73.9238 58.5949 73.8614 58.7091C73.8296 58.7661 73.805 58.8123 73.7865 58.8463C73.7681 58.8818 73.7595 58.9003 73.7595 58.9003C73.7595 58.9003 73.7919 58.8818 73.8505 58.8463C73.9083 58.8107 73.9916 58.7661 74.0925 58.7106C74.2946 58.5995 74.5621 58.4577 74.822 58.3234C74.9545 58.2557 75.085 58.1894 75.2043 58.1276C75.2652 58.0984 75.3246 58.069 75.3794 58.0428C75.4364 58.0166 75.4888 57.9936 75.5383 57.9704C75.7341 57.881 75.8628 57.8224 75.8628 57.8224C75.8628 57.8224 76.027 57.5494 76.1898 57.2734C76.2321 57.2055 76.27 57.1362 76.3099 57.0728C76.3493 57.0097 76.3879 56.9495 76.4187 56.9017C76.4843 56.8 76.5252 56.7305 76.5252 56.7305C76.5252 56.7305 76.3971 56.7845 76.2037 56.8601C76.155 56.8816 76.1026 56.9017 76.0456 56.9233C75.9908 56.9495 75.9338 56.9727 75.8721 56.9989C75.7518 57.0543 75.6215 57.1129 75.4912 57.1731C75.2307 57.2918 74.9654 57.4199 74.7634 57.517C74.6632 57.5663 74.5798 57.6096 74.522 57.6404C74.4634 57.6728 74.4311 57.6882 74.4311 57.6882Z" fill="#CFF6FF"/>
<path d="M68.5514 77.3104L68.5466 77.6219L70.4102 76.5455L70.4171 76.2617L68.5514 77.3104Z" fill="#CFF6FF"/>
<path d="M68.566 76.6494L68.5598 76.9609L70.4234 75.9447L70.4295 75.6641L68.566 76.6494Z" fill="#CFF6FF"/>
<path d="M68.5985 75.9743L68.5791 76.2904L70.4405 75.3359L70.4597 75.043L68.5985 75.9743Z" fill="#CFF6FF"/>
<path d="M68.6416 75.2908L68.6223 75.6115L70.4797 74.7156L70.4974 74.4258L68.6416 75.2908Z" fill="#CFF6FF"/>
<path d="M68.7087 74.6003L68.6748 74.9272L70.5275 74.093L70.5584 73.7969L68.7087 74.6003Z" fill="#CFF6FF"/>
<path d="M68.7795 73.9104L68.7471 74.2358L70.5928 73.4663L70.6238 73.1719L68.7795 73.9104Z" fill="#CFF6FF"/>
<path d="M68.8806 73.2013L68.8328 73.5311L70.6723 72.828L70.7148 72.5273L68.8806 73.2013Z" fill="#CFF6FF"/>
<path d="M68.9855 72.4989C68.9855 72.4989 68.97 72.5822 68.9569 72.6654C68.9446 72.7487 68.9338 72.8304 68.9338 72.8304L70.7619 72.1905C70.7619 72.1905 70.7718 72.1149 70.7841 72.0408C70.7958 71.9638 70.8103 71.8867 70.8103 71.8867L68.9855 72.4989Z" fill="#CFF6FF"/>
<path d="M76.3862 54.5547L76.1758 54.8662L77.343 55.8716L77.5342 55.5879L76.3862 54.5547Z" fill="#CFF6FF"/>
<path d="M76.8373 53.8906C76.8373 53.8906 76.7833 53.9693 76.7294 54.0447C76.677 54.122 76.6238 54.2006 76.6238 54.2006L77.7509 55.2646C77.7509 55.2646 77.7972 55.1951 77.8466 55.1242C77.8958 55.0533 77.9445 54.984 77.9445 54.984L76.8373 53.8906Z" fill="#CFF6FF"/>
<path d="M77.3009 53.2422L77.0842 53.5476L78.1691 54.6717L78.3664 54.3941L77.3009 53.2422Z" fill="#CFF6FF"/>
<path d="M77.7735 52.6016L77.5483 52.899L78.59 54.0819L78.7943 53.8135L77.7735 52.6016Z" fill="#CFF6FF"/>
<path d="M78.252 51.9727L78.0269 52.2671L79.0268 53.51L79.2298 53.2401L78.252 51.9727Z" fill="#CFF6FF"/>
<path d="M78.7426 51.3555L78.5112 51.6438L79.465 52.9407L79.6762 52.6802L78.7426 51.3555Z" fill="#CFF6FF"/>
<path d="M79.2368 50.7422C79.2368 50.7422 79.2221 50.7593 79.1996 50.787C79.1788 50.8133 79.1496 50.8486 79.1202 50.8857C79.0632 50.9566 79.0046 51.0275 79.0046 51.0275L79.9145 52.3845C79.9145 52.3845 79.9661 52.3182 80.0193 52.2535C80.0447 52.2195 80.0725 52.1856 80.0926 52.1624C80.1103 52.1393 80.1242 52.1238 80.1242 52.1238L79.2368 50.7422Z" fill="#CFF6FF"/>
<path d="M79.744 50.1523L79.5051 50.4315L80.3693 51.8394L80.5853 51.588L79.744 50.1523Z" fill="#CFF6FF"/>
<path d="M70.2505 70.3793C70.4457 70.3314 70.5605 70.498 70.5051 70.7524C70.4781 70.8789 70.4117 71.0054 70.3331 71.1055C70.2545 71.2057 70.1558 71.2828 70.0555 71.3122C69.9576 71.3415 69.8766 71.3153 69.8273 71.249C69.7757 71.1827 69.7656 71.0717 69.7926 70.942C69.8496 70.6783 70.0539 70.4271 70.2505 70.3793Z" fill="#CFF6FF"/>
<path d="M70.5936 68.9415C70.7848 68.9077 70.8905 69.0897 70.8257 69.3441C70.7618 69.6016 70.5527 69.8407 70.3569 69.8838C70.1619 69.9284 70.0593 69.7466 70.1256 69.4799C70.1919 69.213 70.4016 68.9725 70.5936 68.9415Z" fill="#CFF6FF"/>
<path d="M70.9992 67.4891C71.1857 67.4738 71.2798 67.6712 71.2058 67.9256C71.1333 68.18 70.919 68.4113 70.7278 68.4406C70.5381 68.4668 70.4432 68.2724 70.5196 68.0058C70.5967 67.7359 70.8102 67.5076 70.9992 67.4891Z" fill="#CFF6FF"/>
<path d="M71.4695 66.0312C71.6546 66.0312 71.7239 66.2379 71.6452 66.4955C71.562 66.753 71.3454 66.972 71.1587 66.9844C70.9715 66.9982 70.8905 66.7884 70.9752 66.5217C71.0592 66.2518 71.2876 66.0328 71.4695 66.0312Z" fill="#CFF6FF"/>
<path d="M71.9978 64.5751C72.1759 64.5904 72.2383 64.811 72.1404 65.0669C72.0502 65.3213 71.8297 65.531 71.6485 65.528C71.4659 65.5249 71.3971 65.3028 71.4921 65.0345C71.5937 64.7663 71.822 64.5596 71.9978 64.5751Z" fill="#CFF6FF"/>
<path d="M72.5846 63.1243C72.755 63.1537 72.8074 63.3835 72.6994 63.6394C72.6447 63.7689 72.5606 63.8799 72.4728 63.9585C72.3811 64.0387 72.2823 64.0804 72.1944 64.0727C72.1057 64.0619 72.0487 63.9986 72.0248 63.9061C71.9994 63.8121 72.0147 63.6872 72.0719 63.5546C72.1837 63.2863 72.4126 63.0935 72.5846 63.1243Z" fill="#CFF6FF"/>
<path d="M105.624 42.2084C105.624 42.2084 105.601 42.1852 105.561 42.142C105.52 42.1004 105.464 42.0386 105.389 41.9754C105.244 41.8444 105.048 41.67 104.852 41.4959C104.645 41.3416 104.437 41.1828 104.283 41.0672C104.207 41.004 104.136 40.9623 104.089 40.933C104.041 40.9053 104.014 40.8867 104.014 40.8867L102.269 43.7749C102.269 43.7749 102.292 43.7935 102.335 43.8198C102.377 43.846 102.439 43.8799 102.507 43.9354C102.645 44.0386 102.827 44.1774 103.011 44.3162C103.183 44.4689 103.356 44.6232 103.486 44.7404C103.552 44.7958 103.601 44.8498 103.637 44.8883C103.672 44.9254 103.692 44.9469 103.692 44.9469L105.624 42.2084Z" fill="#CFF6FF"/>
<path d="M95.0794 39.8633C95.0794 39.8633 95.0647 39.8679 95.0401 39.8724C95.0145 39.8756 94.9791 39.8818 94.9329 39.8972C94.8449 39.9173 94.7277 39.9465 94.609 39.9759C94.3739 40.036 94.1372 40.0946 94.1372 40.0946C94.1372 40.0946 94.3817 40.5124 94.5967 40.938C94.7047 41.1447 94.8026 41.376 94.8743 41.5426C94.9452 41.7138 94.9915 41.8278 94.9915 41.8278C94.9915 41.8278 95.0447 41.817 95.1241 41.8016C95.2051 41.7862 95.313 41.7646 95.4178 41.7492C95.6283 41.723 95.838 41.6967 95.838 41.6967C95.838 41.6967 95.7979 41.5796 95.7363 41.4007C95.673 41.2234 95.5868 40.9829 95.4903 40.7623C95.2983 40.309 95.0794 39.8633 95.0794 39.8633Z" fill="#CFF6FF"/>
<path d="M96.6946 39.6133C96.6946 39.6133 96.4686 39.6411 96.2397 39.6687C96.1257 39.6826 96.0123 39.6965 95.9259 39.7073C95.8388 39.7211 95.7817 39.7337 95.7817 39.7337C95.7817 39.7337 95.7941 39.7629 95.8171 39.8107C95.838 39.86 95.8703 39.9279 95.9051 40.0172C95.9767 40.1932 96.0693 40.432 96.1549 40.6696C96.2405 40.9055 96.3223 41.14 96.3785 41.3234C96.4325 41.5101 96.4686 41.6334 96.4686 41.6334C96.4686 41.6334 96.6745 41.6241 96.8788 41.6133C96.9829 41.6072 97.0855 41.5995 97.161 41.6025C97.2359 41.6056 97.286 41.6056 97.286 41.6056C97.286 41.6056 97.256 41.4761 97.2119 41.2802C97.1642 41.0905 97.094 40.8454 97.0214 40.594C96.9475 40.3443 96.8681 40.0959 96.8056 39.9124C96.774 39.8185 96.7454 39.7474 96.7254 39.6949C96.7069 39.6411 96.6946 39.6133 96.6946 39.6133Z" fill="#CFF6FF"/>
<path d="M98.0709 39.546H97.9345C97.8936 39.546 97.8442 39.5444 97.7941 39.5444C97.7432 39.5398 97.6869 39.5475 97.6314 39.5505C97.4079 39.5614 97.1851 39.5767 97.1851 39.5767C97.1851 39.5767 97.2252 39.7002 97.2852 39.8837C97.313 39.9793 97.3469 40.0857 97.3824 40.2028C97.4156 40.3216 97.4533 40.4419 97.4849 40.5746C97.6183 41.0926 97.7224 41.6107 97.7224 41.6107C97.7224 41.6107 97.7724 41.6139 97.8481 41.6139C97.9251 41.6139 98.0208 41.6262 98.1179 41.6339C98.3145 41.6524 98.5103 41.6693 98.5103 41.6693C98.5103 41.6693 98.4293 41.1296 98.3214 40.5899C98.2968 40.4512 98.2651 40.3278 98.2359 40.2044C98.2065 40.0811 98.1789 39.9685 98.1549 39.8728C98.1048 39.677 98.0709 39.546 98.0709 39.546Z" fill="#CFF6FF"/>
<path d="M82.8821 46.8672C82.8821 46.8672 82.8642 46.8825 82.8412 46.9057C82.818 46.9272 82.7864 46.9596 82.7541 46.9905C82.6924 47.0507 82.6284 47.1107 82.6284 47.1107L83.2037 48.8271C83.2037 48.8271 83.2615 48.7685 83.3201 48.7161C83.3479 48.6883 83.3771 48.6605 83.3979 48.6389C83.4188 48.6175 83.4342 48.6035 83.4342 48.6035L82.8821 46.8672Z" fill="#CFF6FF"/>
<path d="M83.4286 46.3711L83.1719 46.6024L83.6985 48.3649L83.9306 48.1552L83.4286 46.3711Z" fill="#CFF6FF"/>
<path d="M83.9793 45.8828C83.9793 45.8828 83.9145 45.9384 83.849 45.9922C83.7835 46.0478 83.7209 46.108 83.7209 46.108L84.1951 47.9136C84.1951 47.9136 84.2545 47.8612 84.3123 47.8087C84.3709 47.761 84.431 47.71 84.431 47.71L83.9793 45.8828Z" fill="#CFF6FF"/>
<path d="M84.5343 45.4141L84.2729 45.6347L84.6979 47.482L84.933 47.2846L84.5343 45.4141Z" fill="#CFF6FF"/>
<path d="M85.0909 44.957L84.8296 45.1653L85.2019 47.0589L85.4394 46.8708L85.0909 44.957Z" fill="#CFF6FF"/>
<path d="M85.6516 44.5195L85.3887 44.7277L85.7101 46.6599L85.9499 46.4717L85.6516 44.5195Z" fill="#CFF6FF"/>
<path d="M86.2159 44.1016L85.9514 44.2942L86.2205 46.2696L86.4611 46.0954L86.2159 44.1016Z" fill="#CFF6FF"/>
<path d="M86.781 43.6914L86.5149 43.8842L86.7331 45.8965L86.9745 45.7206L86.781 43.6914Z" fill="#CFF6FF"/>
<path d="M100.33 39.7676L100.106 39.7305L99.0825 42.1191L99.2853 42.153L100.33 39.7676Z" fill="#CFF6FF"/>
<path d="M100.795 39.8805L100.576 39.8281L99.5095 42.2091L99.7061 42.2568L100.795 39.8805Z" fill="#CFF6FF"/>
<path d="M101.254 40.0008C101.254 40.0008 101.2 39.9853 101.148 39.9668C101.123 39.9561 101.095 39.9514 101.073 39.9452C101.054 39.9406 101.039 39.9375 101.039 39.9375L99.9321 42.3076C99.9321 42.3076 99.9429 42.3108 99.9615 42.317C99.98 42.3184 100.006 42.3247 100.028 42.3354C100.077 42.3509 100.124 42.3662 100.124 42.3662L101.254 40.0008Z" fill="#CFF6FF"/>
<path d="M101.702 40.1498L101.49 40.082L100.34 42.4397L100.53 42.503L101.702 40.1498Z" fill="#CFF6FF"/>
<path d="M102.138 40.3169L101.936 40.2305L100.745 42.576L100.928 42.6546L102.138 40.3169Z" fill="#CFF6FF"/>
<path d="M102.568 40.4989L102.367 40.4141L101.136 42.7409L101.319 42.8197L102.568 40.4989Z" fill="#CFF6FF"/>
<path d="M102.983 40.7095L102.79 40.6094L101.522 42.9208L101.696 43.0133L102.983 40.7095Z" fill="#CFF6FF"/>
<path d="M103.392 40.929C103.392 40.929 103.381 40.9213 103.365 40.9104C103.347 40.8997 103.323 40.8842 103.298 40.8735C103.25 40.8488 103.202 40.8242 103.202 40.8242L101.896 43.1126C101.896 43.1126 101.94 43.1356 101.984 43.1602C102.006 43.1711 102.027 43.1803 102.042 43.1928C102.058 43.2019 102.068 43.2081 102.068 43.2081L103.392 40.929Z" fill="#CFF6FF"/>
<path d="M88.3114 43.7723C88.3199 44.0052 88.1618 44.2903 87.9621 44.4107C87.7633 44.5433 87.5906 44.4661 87.5758 44.2411C87.5597 44.0143 87.7178 43.7167 87.9243 43.5842C88.1332 43.4545 88.3068 43.5393 88.3114 43.7723Z" fill="#CFF6FF"/>
<path d="M89.4403 43.1157C89.4349 43.3548 89.2676 43.6385 89.0702 43.7464C89.0185 43.7726 88.9723 43.7881 88.929 43.7881C88.8859 43.7942 88.8458 43.7881 88.8134 43.7665C88.7471 43.7327 88.7054 43.6493 88.7024 43.5337C88.7024 43.418 88.7433 43.2855 88.8088 43.1682C88.8434 43.1081 88.8835 43.0526 88.9283 43.0048C88.9738 42.9585 89.0223 42.9216 89.0747 42.8892C89.283 42.7782 89.4473 42.8768 89.4403 43.1157Z" fill="#CFF6FF"/>
<path d="M90.5674 42.5388C90.549 42.7808 90.3756 43.0584 90.1742 43.1555C90.0763 43.205 89.9892 43.2004 89.926 43.1555C89.8643 43.1093 89.8274 43.0215 89.8319 42.9043C89.8359 42.7824 89.8821 42.6514 89.953 42.5358C90.0239 42.4232 90.1196 42.3275 90.2237 42.2783C90.431 42.178 90.5845 42.2936 90.5674 42.5388Z" fill="#CFF6FF"/>
<path d="M91.69 42.034C91.6599 42.2838 91.4755 42.5552 91.2774 42.64C91.08 42.7248 90.9382 42.5938 90.9567 42.3486C90.9768 42.1034 91.161 41.8321 91.3685 41.7425C91.575 41.6546 91.7185 41.7827 91.69 42.034Z" fill="#CFF6FF"/>
<path d="M92.8028 41.6071C92.7611 41.863 92.569 42.1283 92.3717 42.2022C92.1759 42.2746 92.044 42.1313 92.0764 41.8783C92.108 41.6255 92.3 41.3618 92.5051 41.2862C92.7095 41.2091 92.8421 41.3557 92.8028 41.6071Z" fill="#CFF6FF"/>
<path d="M93.9006 41.2736C93.8744 41.4031 93.8119 41.528 93.7317 41.6267C93.6508 41.7331 93.5522 41.8133 93.455 41.8425C93.2607 41.9027 93.1403 41.7454 93.1844 41.491C93.2267 41.2335 93.4264 40.976 93.63 40.9127C93.731 40.8803 93.8126 40.9051 93.8621 40.9683C93.9098 41.0376 93.9268 41.1439 93.9006 41.2736Z" fill="#CFF6FF"/>
<path d="M105.625 70.2277C105.625 70.2277 105.716 70.0257 105.854 69.7235C105.888 69.6463 105.926 69.5646 105.965 69.4783C106.003 69.3919 106.047 69.2994 106.086 69.2053C106.166 69.0156 106.251 68.8121 106.337 68.6086C106.422 68.4034 106.507 68.2045 106.586 68.0118C106.661 67.8206 106.731 67.6417 106.79 67.489C106.907 67.1838 106.987 66.9787 106.987 66.9787L104.897 66.8477C104.897 66.8477 104.828 67.0296 104.723 67.2978C104.67 67.4336 104.611 67.5909 104.544 67.7621C104.473 67.9285 104.398 68.109 104.323 68.2879C104.248 68.4668 104.173 68.6455 104.101 68.8153C104.067 68.8985 104.029 68.9803 103.995 69.0589C103.96 69.1344 103.926 69.2085 103.897 69.2732C103.774 69.5401 103.692 69.7188 103.692 69.7188L105.625 70.2277Z" fill="#CFF6FF"/>
<path d="M109.305 53.9149C109.305 53.9149 109.297 53.6389 109.292 53.3583C109.289 53.2211 109.286 53.0791 109.283 52.9758C109.282 52.9218 109.281 52.8802 109.278 52.8494C109.277 52.8202 109.275 52.8047 109.275 52.8047C109.275 52.8047 109.251 52.8432 109.211 52.9157C109.171 52.9866 109.108 53.09 109.035 53.2133C108.89 53.4585 108.695 53.7777 108.5 54.0938C108.403 54.2495 108.305 54.4068 108.214 54.5533C108.122 54.7014 108.037 54.8325 107.959 54.9496C107.808 55.1794 107.706 55.3336 107.706 55.3336C107.706 55.3336 107.699 55.5972 107.694 55.8594C107.692 55.9272 107.692 55.9935 107.688 56.0568C107.688 56.086 107.688 56.1154 107.688 56.1462C107.685 56.1724 107.684 56.2018 107.682 56.2249C107.676 56.3267 107.672 56.3945 107.672 56.3945C107.672 56.3945 107.778 56.2433 107.937 56.0183C108.089 55.7946 108.293 55.4924 108.496 55.181C108.701 54.874 108.904 54.5565 109.057 54.3174C109.133 54.1957 109.195 54.0969 109.237 54.0259C109.279 53.9566 109.305 53.9149 109.305 53.9149Z" fill="#CFF6FF"/>
<path d="M109.243 55.9354C109.243 55.9354 109.26 55.6439 109.278 55.351C109.284 55.2061 109.286 55.0643 109.289 54.9578C109.291 54.8482 109.294 54.7773 109.294 54.7773C109.294 54.7773 109.191 54.9346 109.038 55.1705C108.961 55.2893 108.873 55.4235 108.777 55.5685C108.678 55.7164 108.573 55.8691 108.466 56.0202C108.042 56.634 107.621 57.2107 107.619 57.2107C107.619 57.2107 107.617 57.2785 107.605 57.3819C107.594 57.4853 107.581 57.6241 107.566 57.7581C107.537 58.0357 107.51 58.3102 107.51 58.3102C107.51 58.3102 107.946 57.7474 108.385 57.1505C108.608 56.8515 108.818 56.5508 108.978 56.3211C109.136 56.0897 109.243 55.9354 109.243 55.9354Z" fill="#CFF6FF"/>
<path d="M109.077 57.7678L109.201 56.5742C109.201 56.5742 108.759 57.1925 108.321 57.7785C108.211 57.9235 108.103 58.0655 107.999 58.2011C107.897 58.3353 107.795 58.4586 107.71 58.5666C107.542 58.7777 107.428 58.9165 107.428 58.9165C107.428 58.9165 107.39 59.1957 107.349 59.4763C107.332 59.6151 107.302 59.757 107.285 59.8649C107.265 59.9713 107.252 60.0406 107.252 60.0406C107.252 60.0406 107.37 59.905 107.543 59.703C107.721 59.4948 107.943 59.2188 108.171 58.9352C108.396 58.6528 108.623 58.3615 108.794 58.1393C108.88 58.0283 108.952 57.9344 109.001 57.8695C109.026 57.8371 109.045 57.8141 109.058 57.7955C109.071 57.7785 109.077 57.7678 109.077 57.7678Z" fill="#CFF6FF"/>
<path d="M105.567 42.672L105.412 42.5117L103.905 44.6489L104.045 44.7939L105.567 42.672Z" fill="#CFF6FF"/>
<path d="M105.892 43.0237C105.892 43.0237 105.855 42.982 105.819 42.9373C105.781 42.8956 105.742 42.8555 105.742 42.8555L104.205 44.9603C104.205 44.9603 104.24 44.9974 104.276 45.0344C104.308 45.0745 104.34 45.1146 104.34 45.1146L105.892 43.0237Z" fill="#CFF6FF"/>
<path d="M106.198 43.4023L106.055 43.2266L104.49 45.296L104.62 45.4563L106.198 43.4023Z" fill="#CFF6FF"/>
<path d="M106.496 43.7898L106.362 43.6016L104.767 45.6387L104.889 45.8144L106.496 43.7898Z" fill="#CFF6FF"/>
<path d="M106.78 44.1989L106.647 44.0078L105.027 46.0092L105.146 46.182L106.78 44.1989Z" fill="#CFF6FF"/>
<path d="M107.045 44.6255L106.922 44.4219L105.278 46.3833L105.387 46.5716L107.045 44.6255Z" fill="#CFF6FF"/>
<path d="M107.301 45.0637C107.301 45.0637 107.297 45.0482 107.284 45.0297C107.273 45.0097 107.258 44.9835 107.244 44.9589C107.212 44.9079 107.182 44.8555 107.182 44.8555L105.513 46.78C105.513 46.78 105.541 46.8246 105.569 46.8709C105.582 46.8956 105.596 46.9188 105.607 46.9356C105.617 46.9527 105.624 46.965 105.624 46.965L107.301 45.0637Z" fill="#CFF6FF"/>
<path d="M107.537 45.5246L107.428 45.3086L105.736 47.1884L105.835 47.3842L107.537 45.5246Z" fill="#CFF6FF"/>
<path d="M108.515 61.0409L108.589 60.7031L106.789 61.1767L106.723 61.4835L108.515 61.0409Z" fill="#CFF6FF"/>
<path d="M108.355 61.7666C108.355 61.7666 108.377 61.6802 108.396 61.5954C108.414 61.5122 108.432 61.4258 108.432 61.4258L106.65 61.8328C106.65 61.8328 106.632 61.9083 106.616 61.9855C106.597 62.061 106.577 62.1396 106.577 62.1396L108.355 61.7666Z" fill="#CFF6FF"/>
<path d="M108.172 62.4931L108.258 62.1523L106.49 62.4917L106.412 62.8015L108.172 62.4931Z" fill="#CFF6FF"/>
<path d="M107.978 63.2252C107.978 63.2252 108.002 63.1403 108.026 63.054C108.039 63.0107 108.051 62.9676 108.061 62.9367C108.07 62.9043 108.075 62.8828 108.075 62.8828L106.325 63.1541C106.325 63.1541 106.32 63.1725 106.31 63.2035C106.301 63.2343 106.291 63.2712 106.281 63.3113C106.258 63.39 106.235 63.4656 106.235 63.4656L107.978 63.2252Z" fill="#CFF6FF"/>
<path d="M107.77 63.9579L107.867 63.6172L106.134 63.8207L106.046 64.1322L107.77 63.9579Z" fill="#CFF6FF"/>
<path d="M107.543 64.6916L107.652 64.3477L105.939 64.4849L105.84 64.7978L107.543 64.6916Z" fill="#CFF6FF"/>
<path d="M107.307 65.426L107.417 65.082L105.727 65.15L105.628 65.4661L107.307 65.426Z" fill="#CFF6FF"/>
<path d="M107.049 66.1585L107.171 65.8164L105.501 65.8194L105.392 66.1309L107.049 66.1585Z" fill="#CFF6FF"/>
<path d="M107.228 47.6828C107.132 47.7767 107.032 47.8262 106.947 47.8307C106.861 47.8354 106.789 47.7968 106.752 47.7105C106.679 47.5378 106.773 47.2385 106.96 47.0412C107.15 46.8438 107.366 46.8285 107.442 47.0088C107.48 47.0983 107.475 47.2171 107.439 47.3404C107.398 47.4621 107.324 47.5871 107.228 47.6828Z" fill="#CFF6FF"/>
<path d="M107.577 48.7217C107.479 48.8111 107.378 48.8528 107.297 48.8482C107.213 48.845 107.153 48.7958 107.12 48.7062C107.055 48.5243 107.16 48.2282 107.354 48.0386C107.546 47.8504 107.756 47.852 107.823 48.0416C107.859 48.1358 107.841 48.2622 107.796 48.3887C107.752 48.5104 107.674 48.6292 107.577 48.7217Z" fill="#CFF6FF"/>
<path d="M107.864 49.8147C107.665 49.9827 107.467 49.9565 107.422 49.7591C107.417 49.7361 107.414 49.7099 107.413 49.6805C107.413 49.6527 107.413 49.6251 107.417 49.5973C107.422 49.5387 107.438 49.4816 107.46 49.4216C107.507 49.2996 107.585 49.1809 107.683 49.0931C107.782 49.0052 107.882 48.9634 107.965 48.9744C108.006 48.9758 108.044 48.9928 108.074 49.019C108.09 49.0314 108.102 49.0498 108.115 49.0683C108.124 49.0899 108.133 49.11 108.137 49.1378C108.185 49.3443 108.062 49.6466 107.864 49.8147Z" fill="#CFF6FF"/>
<path d="M108.087 50.9611C107.887 51.1169 107.696 51.0737 107.659 50.8685C107.641 50.7669 107.669 50.6388 107.719 50.5201C107.77 50.3983 107.851 50.2826 107.951 50.2009C108.051 50.1207 108.15 50.0868 108.231 50.1007C108.311 50.1161 108.367 50.1839 108.384 50.2887C108.422 50.5047 108.288 50.807 108.087 50.9611Z" fill="#CFF6FF"/>
<path d="M108.247 52.1582C108.045 52.3001 107.86 52.243 107.835 52.0302C107.81 51.8158 107.953 51.5183 108.155 51.3657C108.356 51.2145 108.541 51.2715 108.568 51.4951C108.593 51.7187 108.45 52.0164 108.247 52.1582Z" fill="#CFF6FF"/>
<path d="M108.343 53.4016C108.14 53.5296 107.963 53.4556 107.948 53.2336C107.933 53.013 108.086 52.7231 108.288 52.5829C108.492 52.4425 108.668 52.5165 108.684 52.7463C108.7 52.9776 108.547 53.2705 108.343 53.4016Z" fill="#CFF6FF"/>
<path d="M82.5481 92.2078C82.5481 92.2078 82.586 92.2031 82.6508 92.1907C82.6847 92.1816 82.7247 92.1754 82.7695 92.1661C82.815 92.1583 82.8682 92.1445 82.9252 92.1305C83.1526 92.0735 83.4587 91.9981 83.7626 91.9224C84.0718 91.8253 84.3802 91.7296 84.6107 91.6572C84.6685 91.6403 84.7217 91.6234 84.7688 91.6095C84.8166 91.5894 84.8581 91.5771 84.8921 91.5632C84.9608 91.5384 84.9985 91.5247 84.9985 91.5247L85.451 88.5547C85.451 88.5547 85.4171 88.567 85.3569 88.5886C85.3269 88.6009 85.29 88.6148 85.2475 88.6317C85.2066 88.6426 85.1588 88.658 85.1087 88.675C84.9036 88.7382 84.6315 88.8229 84.3585 88.9077C84.0902 88.9725 83.8196 89.0419 83.6184 89.0912C83.5682 89.1021 83.5211 89.1174 83.481 89.1252C83.4411 89.1313 83.4055 89.139 83.3769 89.1436C83.3191 89.1545 83.2852 89.1607 83.2852 89.1607L82.5481 92.2078Z" fill="#CFF6FF"/>
<path d="M95.3709 84.4646C95.3709 84.4646 95.6022 84.241 95.8343 84.0158C95.9514 83.9048 96.0648 83.7815 96.1496 83.6951C96.236 83.6071 96.2914 83.5485 96.2914 83.5485C96.2914 83.5485 96.1743 83.5485 95.9962 83.5455C95.822 83.5455 95.5869 83.5255 95.3593 83.5023C95.1304 83.4822 94.9075 83.453 94.7433 83.4314C94.6623 83.4191 94.5952 83.4083 94.5467 83.4006C94.4989 83.3929 94.4727 83.3867 94.4727 83.3867L93.6038 84.1716C93.6038 84.1716 93.63 84.1792 93.6754 84.1885C93.7225 84.2008 93.7872 84.2163 93.8666 84.2332C94.0255 84.2687 94.2414 84.3134 94.4626 84.3535C94.5744 84.372 94.6855 84.392 94.7918 84.4075C94.8982 84.4228 94.9961 84.4306 95.0833 84.4383C95.2545 84.4538 95.3709 84.4646 95.3709 84.4646Z" fill="#CFF6FF"/>
<path d="M93.7164 85.9656C93.7164 85.9656 93.7765 85.9163 93.8659 85.8393C93.9106 85.8007 93.963 85.7559 94.0194 85.7096C94.0748 85.6587 94.1334 85.6063 94.1913 85.5539C94.428 85.3381 94.6647 85.1252 94.6647 85.1252C94.6647 85.1252 94.5506 85.1067 94.381 85.0821C94.2128 85.0543 93.994 85.0158 93.7773 84.9679C93.3433 84.8615 92.9391 84.7305 92.9391 84.7305C92.9391 84.7305 92.8829 84.7767 92.8011 84.8462C92.7193 84.9187 92.6076 85.0035 92.4973 85.0913C92.2738 85.264 92.0518 85.4383 92.0518 85.4383C92.0518 85.4383 92.4411 85.6017 92.8605 85.7405C93.2738 85.8685 93.7164 85.9656 93.7164 85.9656Z" fill="#CFF6FF"/>
<path d="M92.2353 87.1647C92.2353 87.1647 92.4766 86.9766 92.7164 86.7884C92.8382 86.6929 92.9577 86.6019 93.0479 86.5279C93.1382 86.4522 93.1984 86.4014 93.1984 86.4014C93.1984 86.4014 93.1721 86.3953 93.1235 86.3829C93.0764 86.3706 93.0101 86.3551 92.9291 86.3289C92.7704 86.2781 92.5606 86.2102 92.3564 86.1361C92.1527 86.0607 91.9539 85.9836 91.8089 85.9203C91.664 85.8494 91.5669 85.8047 91.5669 85.8047C91.5669 85.8047 91.3433 85.9681 91.1197 86.1285C91.0079 86.2102 90.8959 86.2935 90.8105 86.3505C90.7264 86.4075 90.6709 86.4431 90.6709 86.4431C90.6709 86.4431 90.694 86.4584 90.734 86.4816C90.7742 86.5032 90.8312 86.5418 90.9014 86.5771C91.0408 86.6512 91.2307 86.7453 91.4265 86.8347C91.6207 86.9256 91.8236 87.0136 91.9769 87.0753C92.1312 87.1323 92.2353 87.1647 92.2353 87.1647Z" fill="#CFF6FF"/>
<path d="M105.258 70.5105L105.413 70.1712L103.905 69.7734L103.766 70.0834L105.258 70.5105Z" fill="#CFF6FF"/>
<path d="M104.907 71.2283L105.072 70.8907L103.594 70.4297L103.445 70.7349L104.907 71.2283Z" fill="#CFF6FF"/>
<path d="M104.548 71.9479C104.548 71.9479 104.593 71.8663 104.637 71.7829C104.659 71.7414 104.678 71.6997 104.694 71.6673C104.709 71.6349 104.719 71.6119 104.719 71.6119L103.275 71.0859C103.275 71.0859 103.265 71.1046 103.252 71.1338C103.237 71.1646 103.22 71.2017 103.2 71.2402C103.16 71.3159 103.12 71.3913 103.12 71.3913L104.548 71.9479Z" fill="#CFF6FF"/>
<path d="M104.176 72.6611L104.351 72.3265L102.939 71.7344L102.782 72.0366L104.176 72.6611Z" fill="#CFF6FF"/>
<path d="M103.792 73.3658L103.975 73.0372L102.599 72.3789L102.433 72.6764L103.792 73.3658Z" fill="#CFF6FF"/>
<path d="M103.399 74.0698L103.583 73.7397L102.243 73.0195L102.075 73.3172L103.399 74.0698Z" fill="#CFF6FF"/>
<path d="M102.991 74.761L103.183 74.4373L101.879 73.6523L101.703 73.9468L102.991 74.761Z" fill="#CFF6FF"/>
<path d="M102.576 75.4516C102.576 75.4516 102.628 75.3714 102.675 75.2912C102.724 75.2094 102.77 75.1308 102.77 75.1308L101.506 74.2812C101.506 74.2812 101.46 74.3552 101.417 74.4292C101.374 74.5048 101.328 74.5757 101.328 74.5757L102.576 75.4516Z" fill="#CFF6FF"/>
<path d="M89.6316 88.9622L89.8983 88.8018L89.8097 86.7031L89.5691 86.8467L89.6316 88.9622Z" fill="#CFF6FF"/>
<path d="M89.0624 89.3101L89.3292 89.1482L89.2921 87.0156L89.05 87.1622L89.0624 89.3101Z" fill="#CFF6FF"/>
<path d="M88.4944 89.6287L88.7603 89.4805L88.7758 87.3203L88.5344 87.4514L88.4944 89.6287Z" fill="#CFF6FF"/>
<path d="M87.9243 89.9415L88.1918 89.7951L88.2575 87.6055L88.0153 87.7395L87.9243 89.9415Z" fill="#CFF6FF"/>
<path d="M87.3577 90.2221L87.6245 90.091L87.7417 87.875L87.5004 87.9923L87.3577 90.2221Z" fill="#CFF6FF"/>
<path d="M86.7911 90.4905C86.7911 90.4905 86.8073 90.4858 86.8319 90.475C86.8565 90.4643 86.8905 90.4456 86.9237 90.4304C86.9908 90.3964 87.0571 90.3656 87.0571 90.3656L87.2259 88.125C87.2259 88.125 87.1657 88.1544 87.1049 88.1836C87.0748 88.1991 87.044 88.2145 87.0215 88.2221C86.9993 88.236 86.9846 88.2407 86.9846 88.2407L86.7911 90.4905Z" fill="#CFF6FF"/>
<path d="M86.2266 90.7402L86.491 90.6261L86.7108 88.3594L86.4702 88.4642L86.2266 90.7402Z" fill="#CFF6FF"/>
<path d="M85.6624 90.9698C85.6624 90.9698 85.7279 90.945 85.7942 90.9174C85.8274 90.9081 85.8605 90.8926 85.8851 90.8819C85.9106 90.8726 85.9253 90.865 85.9253 90.865L86.1989 88.5781C86.1989 88.5781 86.1828 88.5859 86.1612 88.5936C86.1381 88.6027 86.1072 88.6182 86.0788 88.629C86.0179 88.6506 85.9593 88.6722 85.9593 88.6722L85.6624 90.9698Z" fill="#CFF6FF"/>
<path d="M100.847 76.7118C100.722 76.5977 100.749 76.3171 100.906 76.0842C101.064 75.8545 101.291 75.745 101.422 75.8467C101.553 75.9486 101.534 76.24 101.369 76.4806C101.206 76.7226 100.971 76.8274 100.847 76.7118Z" fill="#CFF6FF"/>
<path d="M99.9376 78.0101C99.822 77.8805 99.8605 77.5937 100.022 77.3655C100.185 77.1404 100.416 77.0524 100.538 77.1682C100.66 77.2869 100.622 77.5752 100.453 77.8111C100.282 78.0486 100.052 78.138 99.9376 78.0101Z" fill="#CFF6FF"/>
<path d="M98.9907 79.267C98.8866 79.1251 98.9367 78.8306 99.1048 78.6086C99.2728 78.3896 99.5004 78.3171 99.6122 78.4482C99.7262 78.5776 99.6746 78.8723 99.5004 79.1035C99.3238 79.3348 99.0971 79.4088 98.9907 79.267Z" fill="#CFF6FF"/>
<path d="M98.0084 80.4728C97.96 80.3957 97.953 80.2831 97.98 80.1644C97.9947 80.1074 98.017 80.0472 98.0456 79.9871C98.0733 79.9255 98.1103 79.8653 98.1528 79.8143C98.3261 79.5969 98.5489 79.5415 98.653 79.6849C98.7549 79.8298 98.6917 80.129 98.5112 80.3526C98.4657 80.4096 98.4195 80.4543 98.3708 80.4883C98.3223 80.5222 98.2729 80.5439 98.2266 80.5546C98.1349 80.5747 98.0547 80.55 98.0084 80.4728Z" fill="#CFF6FF"/>
<path d="M96.9947 81.6326C96.9105 81.466 96.9891 81.1686 97.1712 80.9696C97.3493 80.7644 97.5667 80.7244 97.6593 80.88C97.7517 81.0359 97.6769 81.3397 97.4895 81.5524C97.3015 81.7636 97.0787 81.7976 96.9947 81.6326Z" fill="#CFF6FF"/>
<path d="M95.9553 82.7394C95.8828 82.5621 95.9722 82.2644 96.158 82.0702C96.2498 81.9745 96.3515 81.9253 96.437 81.9159C96.5242 81.9052 96.5982 81.9406 96.6392 82.0255C96.6791 82.1087 96.6777 82.2275 96.6422 82.3508C96.6074 82.4741 96.5343 82.5976 96.4378 82.6993C96.2436 82.8982 96.027 82.9167 95.9553 82.7394Z" fill="#CFF6FF"/>
<path d="M68.2823 77.7755C68.2823 77.7755 68.2877 77.9574 68.2939 78.2273C68.2969 78.3615 68.3 78.5203 68.303 78.6883C68.3061 78.7747 68.3069 78.8611 68.3099 78.9489C68.3115 79.0384 68.3201 79.1232 68.3246 79.2111C68.35 79.5626 68.3733 79.9127 68.3925 80.1764C68.4225 80.4292 68.4417 80.6004 68.4417 80.6004L70.8134 78.898C70.8134 78.898 70.7958 78.7453 70.7688 78.5217C70.7525 78.289 70.7302 77.9806 70.7108 77.6691C70.7054 77.5904 70.6971 77.5164 70.6947 77.4377C70.6931 77.3575 70.6923 77.2789 70.6909 77.2064C70.687 77.0569 70.684 76.9149 70.6816 76.7964C70.677 76.5557 70.673 76.3984 70.673 76.3984L68.2823 77.7755Z" fill="#CFF6FF"/>
<path d="M72.5298 89.3029C72.5298 89.3029 72.5391 89.3107 72.5544 89.3276C72.5707 89.3415 72.5908 89.3661 72.62 89.3923C72.6764 89.4417 72.7534 89.5095 72.829 89.579C72.9786 89.713 73.1312 89.8472 73.1312 89.8472C73.1312 89.8472 73.2174 89.1796 73.3247 88.5287C73.337 88.4487 73.3501 88.3669 73.3632 88.2883C73.3771 88.2065 73.3934 88.1249 73.4081 88.0492C73.4373 87.8919 73.4659 87.747 73.4905 87.6221C73.5383 87.3784 73.5723 87.2134 73.5723 87.2134C73.5723 87.2134 73.5391 87.178 73.4913 87.1286C73.4659 87.1024 73.4373 87.0716 73.4065 87.0422C73.3756 87.0084 73.3432 86.9729 73.3124 86.9374C73.1912 86.7862 73.0695 86.6367 73.0695 86.6367C73.0695 86.6367 73.031 86.8033 72.9708 87.0531C72.9438 87.1764 72.9099 87.323 72.8745 87.4786C72.8574 87.5573 72.839 87.6405 72.8227 87.7223C72.8066 87.8009 72.7903 87.8842 72.7726 87.9675C72.6416 88.6259 72.5298 89.3029 72.5298 89.3029Z" fill="#CFF6FF"/>
<path d="M71.5662 88.2133C71.5662 88.2133 71.7002 88.3737 71.8321 88.5355C71.8968 88.6157 71.9631 88.6975 72.0133 88.7561C72.038 88.7885 72.0618 88.8101 72.0773 88.8254C72.092 88.8409 72.1011 88.8487 72.1011 88.8487C72.1011 88.8487 72.1081 88.8101 72.1228 88.7361C72.1351 88.6636 72.1559 88.5587 72.1821 88.4307C72.2354 88.1763 72.3071 87.8355 72.3833 87.5039C72.4212 87.3374 72.4605 87.171 72.4959 87.0167C72.516 86.9365 72.533 86.8626 72.5499 86.7947C72.5692 86.7206 72.5855 86.6513 72.6031 86.5896C72.6695 86.3382 72.7133 86.1686 72.7133 86.1686C72.7133 86.1686 72.5999 86.0082 72.4881 85.8479C72.4605 85.8093 72.4319 85.7677 72.4057 85.7307C72.3819 85.689 72.3595 85.6521 72.3402 85.6181C72.3009 85.5548 72.2763 85.5117 72.2763 85.5117C72.2763 85.5117 72.2253 85.6783 72.1498 85.9311C72.1113 86.0606 72.0719 86.2071 72.0295 86.3598C71.9878 86.5155 71.9415 86.6837 71.8984 86.8517C71.8113 87.1863 71.7265 87.5302 71.6649 87.7877C71.6486 87.8525 71.6355 87.9111 71.6224 87.9619C71.6117 88.0129 71.6 88.0576 71.5924 88.0946C71.5761 88.1686 71.5662 88.2133 71.5662 88.2133Z" fill="#CFF6FF"/>
<path d="M70.8242 87.1186C70.8242 87.1186 70.8528 87.1634 70.8945 87.2343C70.9152 87.2697 70.94 87.3098 70.967 87.353C70.9801 87.3761 70.9932 87.3993 71.0063 87.4208C71.0224 87.444 71.0371 87.4656 71.0517 87.4871C71.1743 87.663 71.2968 87.8356 71.2968 87.8356C71.2968 87.8356 71.3393 87.666 71.401 87.41C71.4342 87.2836 71.4711 87.1356 71.5128 86.9783C71.5335 86.8981 71.5535 86.8195 71.576 86.7347C71.5998 86.6499 71.6246 86.5651 71.6492 86.4787C71.8427 85.7941 72.0517 85.134 72.0517 85.134C72.0517 85.134 72.0269 85.0909 71.9892 85.0246C71.9523 84.9583 71.9068 84.8642 71.8605 84.7732C71.7664 84.5898 71.6739 84.4062 71.6739 84.4062C71.6739 84.4062 71.4441 85.0661 71.2243 85.754C71.1981 85.8388 71.1713 85.9251 71.1443 86.0099C71.1203 86.0901 71.0956 86.1718 71.0718 86.2535C71.0247 86.4108 70.9823 86.5603 70.9461 86.6868C70.8729 86.9459 70.8242 87.1186 70.8242 87.1186Z" fill="#CFF6FF"/>
<path d="M82.3762 91.9232L82.6292 91.8754L83.2036 89.4961L82.9761 89.5392L82.3762 91.9232Z" fill="#CFF6FF"/>
<path d="M81.8389 92.0178C81.8389 92.0178 81.8543 92.0146 81.8774 92.013C81.9006 92.013 81.9314 92.0069 81.9638 91.9993C82.0263 91.9884 82.0887 91.9777 82.0887 91.9777L82.7164 89.5859C82.7164 89.5859 82.6578 89.5998 82.5998 89.6075C82.5706 89.6153 82.5436 89.6214 82.5206 89.623C82.5012 89.623 82.4858 89.626 82.4858 89.626L81.8389 92.0178Z" fill="#CFF6FF"/>
<path d="M81.3086 92.0873L81.5561 92.0564L82.2314 89.6602L82.0056 89.6864L81.3086 92.0873Z" fill="#CFF6FF"/>
<path d="M80.7828 92.1381C80.7828 92.1381 80.8436 92.1335 80.9045 92.1304C80.9353 92.1288 80.9654 92.1258 80.9885 92.1242C81.0117 92.1226 81.0264 92.1212 81.0264 92.1212L81.7496 89.7188C81.7496 89.7188 81.7357 89.7217 81.7156 89.7217C81.694 89.7233 81.6662 89.7265 81.64 89.7265C81.583 89.7295 81.529 89.7341 81.529 89.7341L80.7828 92.1381Z" fill="#CFF6FF"/>
<path d="M80.2644 92.1641L80.5067 92.1486L81.2775 89.7461L81.0571 89.7554L80.2644 92.1641Z" fill="#CFF6FF"/>
<path d="M79.7524 92.1688L79.99 92.1719L80.8088 89.7647L80.5936 89.7617L79.7524 92.1688Z" fill="#CFF6FF"/>
<path d="M79.2461 92.1594L79.4836 92.1625L80.3487 89.7569L80.1343 89.7539L79.2461 92.1594Z" fill="#CFF6FF"/>
<path d="M78.7517 92.1196L78.9838 92.1383L79.8937 89.7372L79.684 89.7188L78.7517 92.1196Z" fill="#CFF6FF"/>
<path d="M69.7695 84.9628C69.7695 84.9628 69.7741 84.9813 69.7827 85.0028C69.7918 85.0228 69.8049 85.0522 69.815 85.083C69.8412 85.1401 69.8651 85.1971 69.8651 85.1971L71.6068 83.4284C71.6068 83.4284 71.5853 83.376 71.5629 83.325C71.5522 83.2988 71.5413 83.2712 71.5343 83.2495C71.5259 83.2311 71.5204 83.2188 71.5204 83.2188L69.7695 84.9628Z" fill="#CFF6FF"/>
<path d="M69.5867 84.4439L69.6723 84.6875L71.4334 82.9667L71.3547 82.7461L69.5867 84.4439Z" fill="#CFF6FF"/>
<path d="M69.4126 83.9171C69.4126 83.9171 69.4319 83.9819 69.4495 84.0466C69.4589 84.0775 69.468 84.1083 69.4765 84.133C69.4843 84.1546 69.4904 84.1685 69.4904 84.1685L71.2676 82.4954C71.2676 82.4954 71.2637 82.4815 71.2553 82.4598C71.2476 82.4398 71.2382 82.4136 71.2299 82.3844C71.2136 82.3274 71.1982 82.2656 71.1982 82.2656L69.4126 83.9171Z" fill="#CFF6FF"/>
<path d="M69.2561 83.3778L69.33 83.6324L71.1227 82.0085L71.0556 81.7773L69.2561 83.3778Z" fill="#CFF6FF"/>
<path d="M69.1165 82.8194L69.1758 83.086L70.9838 81.5086L70.9298 81.2695L69.1165 82.8194Z" fill="#CFF6FF"/>
<path d="M68.9878 82.2566L69.0479 82.5219L70.8676 80.9999L70.8128 80.7578L68.9878 82.2566Z" fill="#CFF6FF"/>
<path d="M68.8821 81.67L68.9291 81.9476L70.758 80.478L70.7156 80.2266L68.8821 81.67Z" fill="#CFF6FF"/>
<path d="M68.782 81.0806L68.829 81.3582L70.6686 79.9412L70.6247 79.6914L68.782 81.0806Z" fill="#CFF6FF"/>
<path d="M77.9977 90.7459C78.0555 90.6164 78.1387 90.5054 78.2329 90.4297C78.3254 90.3527 78.4249 90.3142 78.5089 90.3265C78.6763 90.3559 78.7247 90.5886 78.6177 90.8507C78.5097 91.113 78.2807 91.3042 78.1041 91.2733C78.0178 91.2594 77.9622 91.1946 77.9413 91.1005C77.9215 91.005 77.9413 90.8755 77.9977 90.7459Z" fill="#CFF6FF"/>
<path d="M77.0856 90.5031C77.148 90.375 77.2359 90.2671 77.3285 90.2009C77.421 90.1314 77.5149 90.1052 77.5983 90.1222C77.7594 90.1623 77.7965 90.4059 77.6792 90.6665C77.5621 90.9256 77.3293 91.103 77.1587 91.0613C77.0731 91.0444 77.0255 90.9657 77.0132 90.8639C76.9985 90.759 77.0231 90.6325 77.0856 90.5031Z" fill="#CFF6FF"/>
<path d="M76.2113 90.1838C76.3455 89.9308 76.5761 89.7751 76.7264 89.8383C76.8013 89.8754 76.8491 89.9463 76.8583 90.0481C76.8676 90.1483 76.8414 90.2779 76.7788 90.4042C76.7133 90.5323 76.6232 90.6403 76.5298 90.7064C76.4343 90.7713 76.3317 90.8037 76.2546 90.7666C76.0974 90.7018 76.0781 90.4413 76.2113 90.1838Z" fill="#CFF6FF"/>
<path d="M75.3802 89.7848C75.5228 89.535 75.7549 89.3932 75.8982 89.4702C75.9699 89.5073 76.0084 89.5905 76.0108 89.7015C76.0138 89.8064 75.9854 89.9329 75.9159 90.0593C75.8482 90.1857 75.754 90.2891 75.6592 90.3477C75.566 90.4063 75.468 90.4217 75.3954 90.3816C75.2429 90.306 75.236 90.0361 75.3802 89.7848Z" fill="#CFF6FF"/>
<path d="M74.5915 89.3075C74.7419 89.0607 74.9746 88.9328 75.1126 89.0191C75.25 89.1085 75.2445 89.3815 75.0995 89.6313C74.9553 89.8811 74.7218 90.0075 74.5784 89.9165C74.4342 89.8256 74.4404 89.5527 74.5915 89.3075Z" fill="#CFF6FF"/>
<path d="M73.8527 88.7506C73.9321 88.6303 74.0284 88.5455 74.1202 88.5022C74.2158 88.4545 74.306 88.4513 74.3716 88.4992C74.5018 88.5979 74.4842 88.8755 74.3314 89.1205C74.1795 89.3657 73.946 89.4799 73.8088 89.3767C73.7417 89.3241 73.7107 89.2301 73.7184 89.1175C73.7278 89.0004 73.7741 88.8708 73.8527 88.7506Z" fill="#CFF6FF"/>
</g>
<path d="M96.941 64.6227C100.49 62.5737 103.367 64.7487 103.367 69.4807C103.367 71.5274 102.829 73.7173 101.931 75.7094L106.275 78.9934C106.534 79.1896 106.534 79.7507 106.275 80.2468C106.039 80.6977 105.669 80.9396 105.409 80.8323L105.334 80.7895L100.991 77.5057C99.8853 79.3412 98.4761 80.8726 96.9409 81.7588C93.3919 83.8078 90.5149 81.6329 90.5149 76.9008C90.5149 72.1687 93.392 66.6717 96.941 64.6227ZM96.941 66.3954C94.1263 68.0205 91.8445 72.3803 91.8445 76.1333C91.8445 79.8862 94.1263 81.6113 96.941 79.9862C99.7557 78.3611 102.038 74.0013 102.038 70.2483C102.038 66.4954 99.7557 64.7704 96.941 66.3954Z" fill="url(#paint5_linear_885_1792)"/>
<defs>
<linearGradient id="paint0_linear_885_1792" x1="28.6492" y1="86.845" x2="63.1419" y2="86.845" gradientUnits="userSpaceOnUse">
<stop stop-color="#C2C7E3"/>
<stop offset="1" stop-color="#F5F5FA"/>
</linearGradient>
<linearGradient id="paint1_linear_885_1792" x1="19.585" y1="47.4633" x2="63.142" y2="47.4633" gradientUnits="userSpaceOnUse">
<stop offset="0.3219" stop-color="#BBC0E6"/>
<stop offset="0.3261" stop-color="#BBC0E6"/>
<stop offset="0.4582" stop-color="#CED3F8"/>
</linearGradient>
<linearGradient id="paint2_linear_885_1792" x1="4.67139" y1="73.1485" x2="28.7623" y2="73.1485" gradientUnits="userSpaceOnUse">
<stop offset="0.1883" stop-color="#BBC0E6"/>
<stop offset="0.2021" stop-color="#BBC0E6"/>
<stop offset="0.6319" stop-color="#CED3F8"/>
</linearGradient>
<linearGradient id="paint3_linear_885_1792" x1="34.4563" y1="52.4114" x2="42.1477" y2="52.4114" gradientUnits="userSpaceOnUse">
<stop stop-color="#E7358A"/>
<stop offset="1" stop-color="#EC6D1C"/>
</linearGradient>
<linearGradient id="paint4_linear_885_1792" x1="49.5207" y1="60.8086" x2="51.7784" y2="56.8981" gradientUnits="userSpaceOnUse">
<stop offset="0.3219" stop-color="#BBC0E6"/>
<stop offset="0.3261" stop-color="#BBC0E6"/>
<stop offset="0.4582" stop-color="#CED3F8"/>
</linearGradient>
<linearGradient id="paint5_linear_885_1792" x1="90.515" y1="73.1908" x2="106.469" y2="73.1908" gradientUnits="userSpaceOnUse">
<stop offset="0.396" stop-color="#23C966"/>
<stop offset="0.545" stop-color="#1BB85A"/>
<stop offset="0.5736" stop-color="#1AB558"/>
</linearGradient>
</defs>
</svg>
