<svg width="16" height="16" viewBox="0 0 16 16" fill="none" xmlns="http://www.w3.org/2000/svg">
<path fill-rule="evenodd" clip-rule="evenodd" d="M7.33061 3.61094V10.6654C7.33061 11.0336 7.62908 11.332 7.99727 11.332C8.36546 11.332 8.66394 11.0336 8.66394 10.6654V3.60541L10.5286 5.4701C10.789 5.73045 11.2111 5.73045 11.4714 5.4701C11.7318 5.20975 11.7318 4.78764 11.4714 4.52729L8.47145 1.52729C8.34092 1.39677 8.16973 1.33168 7.99866 1.33203C7.9982 1.33203 7.99774 1.33203 7.99727 1.33203C7.79475 1.33203 7.61332 1.42234 7.49105 1.56488L4.52864 4.52729C4.26829 4.78764 4.26829 5.20975 4.52864 5.4701C4.78899 5.73045 5.2111 5.73045 5.47145 5.4701L7.33061 3.61094ZM14 7.33203C14.3682 7.33203 14.6667 7.63051 14.6667 7.9987V13.9987C14.6667 14.3669 14.3682 14.6654 14 14.6654H2.00004C1.63185 14.6654 1.33337 14.3669 1.33337 13.9987V8.00146C1.33337 7.63328 1.63185 7.3348 2.00004 7.3348C2.36823 7.3348 2.66671 7.63328 2.66671 8.00146V13.332H13.3334V7.9987C13.3334 7.63051 13.6319 7.33203 14 7.33203Z" fill="#2E7FDF"/>
</svg>
