<svg width="16" height="16" viewBox="0 0 16 16" fill="none" xmlns="http://www.w3.org/2000/svg">
<path fill-rule="evenodd" clip-rule="evenodd" d="M7.33049 3.61094V10.6654C7.33049 11.0336 7.62896 11.332 7.99715 11.332C8.36534 11.332 8.66382 11.0336 8.66382 10.6654V3.60541L10.5285 5.4701C10.7889 5.73045 11.211 5.73045 11.4713 5.4701C11.7317 5.20975 11.7317 4.78764 11.4713 4.52729L8.47132 1.52729C8.3408 1.39677 8.16961 1.33168 7.99854 1.33203C7.99808 1.33203 7.99761 1.33203 7.99715 1.33203C7.79463 1.33203 7.6132 1.42234 7.49093 1.56488L4.52851 4.52729C4.26816 4.78764 4.26816 5.20975 4.52851 5.4701C4.78886 5.73045 5.21097 5.73045 5.47132 5.4701L7.33049 3.61094ZM13.9999 7.33203C14.3681 7.33203 14.6666 7.63051 14.6666 7.9987V13.9987C14.6666 14.3669 14.3681 14.6654 13.9999 14.6654H1.99992C1.63173 14.6654 1.33325 14.3669 1.33325 13.9987V8.00146C1.33325 7.63328 1.63173 7.3348 1.99992 7.3348C2.36811 7.3348 2.66659 7.63328 2.66659 8.00146V13.332H13.3333V7.9987C13.3333 7.63051 13.6317 7.33203 13.9999 7.33203Z" fill="white"/>
</svg>
