<svg width="24" height="24" viewBox="0 0 24 24" fill="none" xmlns="http://www.w3.org/2000/svg">
<path d="M4.96567 6.89178C3.70182 8.14083 2.76444 9.7307 2.30696 11.5326C2.2858 11.6024 2.27468 11.6759 2.27488 11.7508C2.27468 11.8258 2.2858 11.8992 2.30696 11.9691C3.42334 16.3661 7.39757 19.5008 11.9999 19.5008C13.6099 19.5008 15.1431 19.1172 16.5039 18.4301L15.3763 17.3024C14.3363 17.753 13.1929 18.0008 11.9999 18.0008C8.14092 18.0008 4.80083 15.4075 3.80063 11.7508C4.20314 10.2793 4.98461 8.97989 6.02635 7.95246L4.96567 6.89178Z" fill="#8C95A6"/>
<path d="M8.23231 10.1584C8.08182 10.5793 7.99985 11.0328 7.99985 11.5054C7.99985 13.7146 9.79071 15.5054 11.9999 15.5054C12.4725 15.5054 12.926 15.4235 13.3468 15.273L12.0781 14.0042C12.0521 14.005 12.026 14.0054 11.9999 14.0054C10.6192 14.0054 9.49985 12.8861 9.49985 11.5054C9.49985 11.4792 9.50025 11.4531 9.50105 11.4272L8.23231 10.1584Z" fill="#8C95A6"/>
<path d="M15.8404 12.6273L10.878 7.6649C11.2339 7.5611 11.6104 7.50544 11.9999 7.50544C14.209 7.50544 15.9999 9.29632 15.9999 11.5054C15.9999 11.8949 15.9442 12.2714 15.8404 12.6273Z" fill="#8C95A6"/>
<path d="M18.3576 15.1445C19.2076 14.1888 19.8477 13.0354 20.1991 11.7508C19.1989 8.09405 15.8586 5.50082 11.9999 5.50082C11.02 5.50082 10.0736 5.66802 9.19046 5.97738L8.03308 4.82C9.25513 4.2915 10.5984 4.00082 11.9999 4.00082C16.6134 4.00082 20.596 7.15083 21.701 11.5652C21.7165 11.6273 21.7238 11.6896 21.7236 11.7508C21.7238 11.812 21.7165 11.8743 21.701 11.9364C21.2938 13.563 20.496 15.0179 19.4198 16.2068L18.3576 15.1445Z" fill="#8C95A6"/>
<path d="M2.39958 3.17586C2.00906 2.78533 2.00906 2.15217 2.39958 1.76164C2.79011 1.37112 3.42327 1.37112 3.8138 1.76164L22.0478 19.9956C22.4383 20.3861 22.4383 21.0193 22.0478 21.4098C21.6572 21.8004 21.0241 21.8004 20.6336 21.4098L2.39958 3.17586Z" fill="#8C95A6"/>
</svg>
