<svg width="16" height="16" viewBox="0 0 16 16" fill="none" xmlns="http://www.w3.org/2000/svg">
<path fill-rule="evenodd" clip-rule="evenodd" d="M1.39445 2.71997C1.50327 2.48352 1.73976 2.33203 2.00005 2.33203H14C14.2603 2.33203 14.4968 2.48352 14.6057 2.71997C14.7145 2.95642 14.6757 3.23458 14.5064 3.43229L9.86672 8.85104V13.9987C9.86672 14.2292 9.74768 14.4433 9.55194 14.5649C9.3562 14.6866 9.11151 14.6985 8.90486 14.5965L6.50486 13.4113C6.27738 13.2989 6.13338 13.0672 6.13338 12.8135V8.85104L1.49365 3.43229C1.32436 3.23458 1.28562 2.95642 1.39445 2.71997ZM3.44853 3.66536L7.30645 8.17103C7.40987 8.29182 7.46672 8.4456 7.46672 8.60462V12.3992L8.53338 12.926V8.60462C8.53338 8.4456 8.59023 8.29182 8.69365 8.17103L12.5516 3.66536H3.44853Z" fill="#D6E0F1"/>
</svg>
