<svg width="36" height="36" viewBox="0 0 36 36" fill="none" xmlns="http://www.w3.org/2000/svg">
<path fill-rule="evenodd" clip-rule="evenodd" d="M10.5486 2.62137C10.7209 1.96087 11.3174 1.5 12 1.5H23.25C23.7119 1.5 24.1481 1.71281 24.4323 2.07688C24.7166 2.44096 24.8173 2.91569 24.7052 3.3638L22.9212 10.5H30C30.5966 10.5 31.1365 10.8536 31.375 11.4004C31.6134 11.9473 31.5052 12.5835 31.0992 13.0207L11.5992 34.0207C11.136 34.5195 10.3951 34.6439 9.79443 34.3237C9.19376 34.0035 8.88399 33.319 9.03989 32.6564L11.6061 21.75H7.50001C7.03542 21.75 6.59705 21.5347 6.31301 21.1671C6.02897 20.7994 5.93131 20.3209 6.04859 19.8714L10.5486 2.62137ZM17.2052 8.61416C17.4061 7.81047 16.9175 6.99606 16.1138 6.79514C15.3101 6.59422 14.4957 7.08286 14.2948 7.88655L12.7948 13.8866C12.5939 14.6902 13.0825 15.5046 13.8862 15.7056C14.6899 15.9065 15.5043 15.4178 15.7052 14.6142L17.2052 8.61416Z" fill="white"/>
</svg>
