<svg width="36" height="36" viewBox="0 0 36 36" fill="none" xmlns="http://www.w3.org/2000/svg">
<path d="M17.3243 5.25C14.3856 5.25 11.8554 7.32423 11.2791 10.2058C11.1167 11.0182 11.6435 11.8084 12.4558 11.9709C13.2682 12.1333 14.0584 11.6065 14.2209 10.7942C14.5167 9.31485 15.8157 8.25 17.3243 8.25H17.625C19.4889 8.25 21 9.76104 21 11.625C21 13.489 19.4889 15 17.625 15H4.5C3.67158 15 3 15.6715 3 16.5C3 17.3285 3.67158 18 4.5 18H17.625C21.1458 18 24 15.1458 24 11.625C24 8.10419 21.1458 5.25 17.625 5.25H17.3243ZM28.2309 14.25C26.1699 14.25 24.3483 15.5865 23.702 17.5257C23.4401 18.3115 23.8647 19.161 24.6507 19.423C25.4366 19.6849 26.286 19.2603 26.548 18.4743C26.7915 17.7441 27.4781 17.25 28.2309 17.25C29.2077 17.25 29.9995 18.0419 29.9995 19.0187V19.125C29.9995 20.1604 29.1602 21 28.1245 21H4.5C3.67158 21 3 21.6716 3 22.5C3 23.3284 3.67158 24 4.5 24H13.4906H13.5H22.1245C23.1601 24 23.9995 24.8396 23.9995 25.875V25.9813C23.9995 26.9582 23.2077 27.75 22.2309 27.75C21.4781 27.75 20.7915 27.2559 20.548 26.5257C20.286 25.7397 19.4366 25.3151 18.6507 25.577C17.8647 25.839 17.4401 26.6884 17.702 27.4743C18.3483 29.4135 20.1699 30.75 22.2309 30.75C24.8646 30.75 26.9995 28.615 26.9995 25.9813V25.875C26.9995 25.2105 26.8667 24.5772 26.6259 24H28.1245C30.8169 24 32.9995 21.8174 32.9995 19.125V19.0187C32.9995 16.3849 30.8646 14.25 28.2309 14.25ZM6 9.375C7.03554 9.375 7.875 8.53554 7.875 7.5C7.875 6.46446 7.03554 5.625 6 5.625C4.96446 5.625 4.125 6.46446 4.125 7.5C4.125 8.53554 4.96446 9.375 6 9.375ZM15.375 30C15.375 31.0356 14.5355 31.875 13.5 31.875C12.4645 31.875 11.625 31.0356 11.625 30C11.625 28.9644 12.4645 28.125 13.5 28.125C14.5355 28.125 15.375 28.9644 15.375 30ZM28.5 10.875C29.5356 10.875 30.375 10.0355 30.375 9C30.375 7.96446 29.5356 7.125 28.5 7.125C27.4644 7.125 26.625 7.96446 26.625 9C26.625 10.0355 27.4644 10.875 28.5 10.875Z" fill="white"/>
</svg>
