<svg width="16" height="16" viewBox="0 0 16 16" fill="none" xmlns="http://www.w3.org/2000/svg">
<path fill-rule="evenodd" clip-rule="evenodd" d="M7.33061 9.05312V1.9987C7.33061 1.63051 7.62908 1.33203 7.99727 1.33203C8.36546 1.33203 8.66394 1.63051 8.66394 1.9987V9.05866L10.5286 7.19396C10.789 6.93361 11.2111 6.93361 11.4714 7.19396C11.7318 7.45431 11.7318 7.87642 11.4714 8.13677L8.47145 11.1368C8.34092 11.2673 8.16973 11.3324 7.99866 11.332L7.99727 11.332C7.79475 11.332 7.61332 11.2417 7.49105 11.0992L4.52864 8.13677C4.26829 7.87642 4.26829 7.45431 4.52864 7.19396C4.78899 6.93361 5.2111 6.93361 5.47145 7.19396L7.33061 9.05312ZM14 7.33203C14.3682 7.33203 14.6667 7.63051 14.6667 7.9987V13.9987C14.6667 14.3669 14.3682 14.6654 14 14.6654H2.00004C1.63185 14.6654 1.33337 14.3669 1.33337 13.9987V8.00146C1.33337 7.63327 1.63185 7.3348 2.00004 7.3348C2.36823 7.3348 2.66671 7.63327 2.66671 8.00146V13.332H13.3334V7.9987C13.3334 7.63051 13.6319 7.33203 14 7.33203Z" fill="#2E7FDF"/>
</svg>
