<svg width="16" height="16" viewBox="0 0 16 16" fill="none" xmlns="http://www.w3.org/2000/svg">
<path fill-rule="evenodd" clip-rule="evenodd" d="M7.33049 9.05312V1.9987C7.33049 1.63051 7.62896 1.33203 7.99715 1.33203C8.36534 1.33203 8.66382 1.63051 8.66382 1.9987V9.05866L10.5285 7.19396C10.7889 6.93361 11.211 6.93361 11.4713 7.19396C11.7317 7.45431 11.7317 7.87642 11.4713 8.13677L8.47132 11.1368C8.3408 11.2673 8.16961 11.3324 7.99854 11.332L7.99715 11.332C7.79463 11.332 7.6132 11.2417 7.49093 11.0992L4.52851 8.13677C4.26816 7.87642 4.26816 7.45431 4.52851 7.19396C4.78886 6.93361 5.21097 6.93361 5.47132 7.19396L7.33049 9.05312ZM13.9999 7.33203C14.3681 7.33203 14.6666 7.63051 14.6666 7.9987V13.9987C14.6666 14.3669 14.3681 14.6654 13.9999 14.6654H1.99992C1.63173 14.6654 1.33325 14.3669 1.33325 13.9987V8.00146C1.33325 7.63327 1.63173 7.3348 1.99992 7.3348C2.36811 7.3348 2.66659 7.63327 2.66659 8.00146V13.332H13.3333V7.9987C13.3333 7.63051 13.6317 7.33203 13.9999 7.33203Z" fill="white"/>
</svg>
