<svg width="16" height="16" viewBox="0 0 16 16" fill="none" xmlns="http://www.w3.org/2000/svg">
<path d="M5.44793 1.83812C6.23488 1.5118 7.09725 1.33203 7.99992 1.33203C10.1807 1.33203 12.1169 2.37916 13.3333 3.99805V2.66536C13.3333 2.29717 13.6317 1.9987 13.9999 1.9987C14.3681 1.9987 14.6666 2.29717 14.6666 2.66536V7.9987C14.6666 8.36689 14.3681 8.66536 13.9999 8.66536C13.6317 8.66536 13.3333 8.36689 13.3333 7.9987C13.3333 5.05318 10.9454 2.66536 7.99992 2.66536C7.27557 2.66536 6.58654 2.8094 5.95865 3.06976C5.63425 3.20428 5.32586 3.36998 5.03721 3.56321C4.74628 3.75797 4.47548 3.98066 4.22868 4.22746C3.98188 4.47426 3.75919 4.74506 3.56443 5.03599C3.35961 5.34195 2.94554 5.42393 2.63958 5.21911C2.33362 5.01429 2.25163 4.60022 2.45646 4.29426C2.69978 3.93078 2.97785 3.59268 3.28587 3.28465C3.5939 2.97663 3.932 2.69856 4.29548 2.45524C4.65613 2.2138 5.04183 2.00651 5.44793 1.83812Z" fill="white"/>
<path d="M1.99992 7.33203C2.36811 7.33203 2.66659 7.63051 2.66659 7.9987C2.66659 10.9442 5.0544 13.332 7.99992 13.332C8.72427 13.332 9.41329 13.188 10.0412 12.9276C10.3656 12.7931 10.674 12.6274 10.9626 12.4342C11.2536 12.2394 11.5244 12.0167 11.7712 11.7699C12.018 11.5231 12.2406 11.2523 12.4354 10.9614C12.6402 10.6554 13.0543 10.5735 13.3603 10.7783C13.6662 10.9831 13.7482 11.3972 13.5434 11.7031C13.3001 12.0666 13.022 12.4047 12.714 12.7127C12.4059 13.0208 12.0678 13.2988 11.7044 13.5422C11.3437 13.7836 10.958 13.9909 10.5519 14.1593C9.76496 14.4856 8.90259 14.6654 7.99992 14.6654C5.81912 14.6654 3.88289 13.6182 2.66659 11.9993V13.332C2.66659 13.7002 2.36811 13.9987 1.99992 13.9987C1.63173 13.9987 1.33325 13.7002 1.33325 13.332V7.9987C1.33325 7.63051 1.63173 7.33203 1.99992 7.33203Z" fill="white"/>
</svg>
