<svg width="16" height="16" viewBox="0 0 16 16" fill="none" xmlns="http://www.w3.org/2000/svg">
<path d="M5.44806 1.83812C6.235 1.5118 7.09737 1.33203 8.00004 1.33203C10.1808 1.33203 12.1171 2.37916 13.3334 3.99805V2.66536C13.3334 2.29717 13.6319 1.9987 14 1.9987C14.3682 1.9987 14.6667 2.29717 14.6667 2.66536V7.9987C14.6667 8.36689 14.3682 8.66536 14 8.66536C13.6319 8.66536 13.3334 8.36689 13.3334 7.9987C13.3334 5.05318 10.9456 2.66536 8.00004 2.66536C7.27569 2.66536 6.58666 2.8094 5.95877 3.06976C5.63438 3.20428 5.32598 3.36998 5.03733 3.56321C4.74641 3.75797 4.4756 3.98066 4.2288 4.22746C3.982 4.47426 3.75932 4.74506 3.56456 5.03599C3.35973 5.34195 2.94566 5.42393 2.6397 5.21911C2.33374 5.01429 2.25176 4.60022 2.45658 4.29426C2.69991 3.93078 2.97797 3.59268 3.286 3.28465C3.59402 2.97663 3.93213 2.69856 4.2956 2.45524C4.65626 2.2138 5.04195 2.00651 5.44806 1.83812Z" fill="#2E7FDF"/>
<path d="M2.00004 7.33203C2.36823 7.33203 2.66671 7.63051 2.66671 7.9987C2.66671 10.9442 5.05452 13.332 8.00004 13.332C8.72439 13.332 9.41342 13.188 10.0413 12.9276C10.3657 12.7931 10.6741 12.6274 10.9627 12.4342C11.2537 12.2394 11.5245 12.0167 11.7713 11.7699C12.0181 11.5231 12.2408 11.2523 12.4355 10.9614C12.6403 10.6554 13.0544 10.5735 13.3604 10.7783C13.6663 10.9831 13.7483 11.3972 13.5435 11.7031C13.3002 12.0666 13.0221 12.4047 12.7141 12.7127C12.4061 13.0208 12.068 13.2988 11.7045 13.5422C11.3438 13.7836 10.9581 13.9909 10.552 14.1593C9.76508 14.4856 8.90271 14.6654 8.00004 14.6654C5.81924 14.6654 3.88301 13.6182 2.66671 11.9993V13.332C2.66671 13.7002 2.36823 13.9987 2.00004 13.9987C1.63185 13.9987 1.33337 13.7002 1.33337 13.332V7.9987C1.33337 7.63051 1.63185 7.33203 2.00004 7.33203Z" fill="#2E7FDF"/>
</svg>
