<svg width="16" height="16" viewBox="0 0 16 16" fill="none" xmlns="http://www.w3.org/2000/svg">
<path d="M1.38409 1.52783L1.3843 1.52801L1.44676 1.45565L1.45156 1.45009L1.45175 1.45028C1.71636 1.18567 2.13029 1.16172 2.42208 1.37822L2.42802 1.38262L2.42784 1.38283L2.5002 1.4453L2.50576 1.45009L2.50557 1.45028L8.00017 6.9446L13.4948 1.45028C13.7858 1.15928 14.2575 1.15928 14.5486 1.45028C14.8396 1.74128 14.8396 2.2131 14.5486 2.5041L9.05427 7.9987L14.5485 13.4933C14.5486 13.4933 14.5486 13.4933 14.5486 13.4933C14.8132 13.7579 14.8371 14.1719 14.6206 14.4636L14.6162 14.4696L14.616 14.4694L14.5535 14.5417L14.5488 14.5473L14.5486 14.5471C14.284 14.8117 13.87 14.8357 13.5783 14.6191L13.5723 14.6147L13.5725 14.6145L13.5002 14.5521L13.4946 14.5473L13.4948 14.5471L8.00017 9.05281L2.50557 14.5471C2.21457 14.8381 1.74275 14.8381 1.45175 14.5471C1.16075 14.2561 1.16075 13.7843 1.45175 13.4933M1.38409 1.52783L1.45175 13.4933M1.38409 1.52783L1.37968 1.53377C1.16318 1.82556 1.18713 2.23949 1.45175 2.5041C1.45175 2.5041 1.45175 2.5041 1.45175 2.5041L6.94606 7.9987M1.38409 1.52783L6.94606 7.9987M1.45175 13.4933L6.94606 7.9987M1.45175 13.4933L6.94606 7.9987" fill="#BCBEC0" stroke="#BCBEC0" stroke-width="0.2"/>
</svg>
