<svg width="16" height="16" viewBox="0 0 16 16" fill="none" xmlns="http://www.w3.org/2000/svg">
<g clip-path="url(#clip0_1700_13568)">
<path d="M12.96 8.6587L12.9533 8.67203C12.98 8.45203 13.0067 8.22536 13.0067 7.9987C13.0067 7.77203 12.9867 7.5587 12.96 7.3387L12.9667 7.35203L14.5933 6.07203L12.9733 3.2587L11.06 4.03203L11.0667 4.0387C10.72 3.77203 10.34 3.54536 9.92666 3.37203H9.93333L9.62666 1.33203H6.38L6.08666 3.3787H6.09333C5.68 3.55203 5.3 3.7787 4.95333 4.04536L4.96 4.0387L3.04 3.2587L1.41333 6.07203L3.04 7.35203L3.04666 7.3387C3.02 7.5587 3 7.77203 3 7.9987C3 8.22536 3.02 8.45203 3.05333 8.67203L3.04666 8.6587L1.64666 9.7587L1.42666 9.93203L3.04666 12.732L4.96666 11.9654L4.95333 11.9387C5.30666 12.212 5.68666 12.4387 6.10666 12.612H6.08666L6.38666 14.6654H9.62C9.62 14.6654 9.64 14.5454 9.66 14.3854L9.91333 12.6187H9.90666C10.32 12.4454 10.7067 12.2187 11.06 11.9454L11.0467 11.972L12.9667 12.7387L14.5867 9.9387C14.5867 9.9387 14.4933 9.8587 14.3667 9.76536L12.96 8.6587ZM8 10.332C6.71333 10.332 5.66666 9.28536 5.66666 7.9987C5.66666 6.71203 6.71333 5.66536 8 5.66536C9.28666 5.66536 10.3333 6.71203 10.3333 7.9987C10.3333 9.28536 9.28666 10.332 8 10.332Z" fill="white"/>
</g>
<defs>
<clipPath id="clip0_1700_13568">
<rect width="16" height="16" fill="white"/>
</clipPath>
</defs>
</svg>
