<svg width="16" height="16" viewBox="0 0 16 16" fill="none" xmlns="http://www.w3.org/2000/svg">
<path d="M6.66671 3.33333H9.33337C9.33337 2.59695 8.73644 2 8.00004 2C7.26364 2 6.66671 2.59695 6.66671 3.33333ZM5.66671 3.33333C5.66671 2.04467 6.71137 1 8.00004 1C9.28871 1 10.3334 2.04467 10.3334 3.33333H14.1667C14.4428 3.33333 14.6667 3.55719 14.6667 3.83333C14.6667 4.10947 14.4428 4.33333 14.1667 4.33333H13.2873L12.506 12.4075C12.382 13.6889 11.305 14.6667 10.0176 14.6667H5.9825C4.69507 14.6667 3.61814 13.6889 3.49413 12.4075L2.71276 4.33333H1.83337C1.55723 4.33333 1.33337 4.10947 1.33337 3.83333C1.33337 3.55719 1.55723 3.33333 1.83337 3.33333H5.66671ZM7.00004 6.5C7.00004 6.22386 6.77617 6 6.50004 6C6.2239 6 6.00004 6.22386 6.00004 6.5V11.5C6.00004 11.7761 6.2239 12 6.50004 12C6.77617 12 7.00004 11.7761 7.00004 11.5V6.5ZM9.50004 6C9.77617 6 10 6.22386 10 6.5V11.5C10 11.7761 9.77617 12 9.50004 12C9.22391 12 9.00004 11.7761 9.00004 11.5V6.5C9.00004 6.22386 9.22391 6 9.50004 6ZM4.48948 12.3111C4.56389 13.08 5.21004 13.6667 5.9825 13.6667H10.0176C10.79 13.6667 11.4362 13.08 11.5106 12.3111L12.2826 4.33333H3.71743L4.48948 12.3111Z" fill="white"/>
</svg>
