<svg width="20" height="20" viewBox="0 0 20 20" fill="none" xmlns="http://www.w3.org/2000/svg">
<g clip-path="url(#clip0_2203_4635)">
<path d="M10 0C15.523 0 20 4.478 20 10C20 15.522 15.523 20 10 20C4.477 20 0 15.522 0 10C0 4.478 4.477 0 10 0ZM10 1.667C5.405 1.667 1.667 5.405 1.667 10C1.667 14.595 5.405 18.333 10 18.333C14.595 18.333 18.333 14.595 18.333 10C18.333 5.405 14.595 1.667 10 1.667ZM9.9987 12.5022C10.5502 12.5022 10.9973 12.9494 10.9973 13.5009C10.9973 14.0524 10.5502 14.4996 9.9987 14.4996C9.4471 14.4996 9 14.0524 9 13.5009C9 12.9494 9.4471 12.5022 9.9987 12.5022ZM9.9945 5C10.3742 4.9997 10.6882 5.2816 10.7381 5.64764L10.7451 5.7494L10.7487 10.251C10.749 10.6652 10.4135 11.0013 9.9993 11.0016C9.6196 11.0019 9.3055 10.72 9.2556 10.354L9.2487 10.2522L9.2451 5.7506C9.2447 5.33639 9.5802 5.00033 9.9945 5Z" fill="#FF0000"/>
</g>
<defs>
<clipPath id="clip0_2203_4635">
<rect width="20" height="20" fill="white"/>
</clipPath>
</defs>
</svg>
