<svg width="120" height="120" viewBox="0 0 120 120" fill="none" xmlns="http://www.w3.org/2000/svg">
<path d="M85.8051 106.363C82.9129 108.032 78.1785 108.032 75.2863 106.363L26.677 78.2992C23.7848 76.6258 23.7848 73.8977 26.677 72.2242L56.6348 54.9273C59.527 53.2586 64.2613 53.2586 67.1535 54.9273L115.763 82.9914C118.655 84.6602 118.66 87.393 115.763 89.0664L85.8004 106.363H85.8051Z" fill="#F6F6FB"/>
<path d="M24.5105 86.5883H24.5152C24.4637 87.7273 25.1762 88.8805 26.6762 89.743L75.2855 117.807C78.1777 119.476 82.9121 119.476 85.8043 117.807L115.762 100.51C117.276 99.6336 117.989 98.4711 117.918 97.3227V86.1805C117.857 87.2305 117.145 88.2664 115.762 89.0633L85.7996 106.36C82.9074 108.029 78.173 108.029 75.2809 106.36L26.6715 78.2961C25.2418 77.4711 24.5246 76.3883 24.5059 75.3008V86.593L24.5105 86.5883Z" fill="url(#paint0_linear_885_1132)"/>
<path d="M80.6387 106.373H85.7855C85.7855 106.373 85.7949 106.368 85.8043 106.363L115.767 89.0664C118.659 87.3977 118.659 84.6648 115.767 82.9914L84.4731 64.9258H80.6434V106.373H80.6387Z" fill="url(#paint1_linear_885_1132)"/>
<path d="M114.239 41.0008L84.2769 58.2977C82.2191 59.4836 78.8676 59.4836 76.8098 58.2977L28.2004 30.2336C27.1832 29.6477 26.6723 28.8789 26.6582 28.1055V75.2242C26.6582 75.2242 26.6582 75.2617 26.6582 75.2805V75.2898C26.677 76.0586 27.1879 76.8227 28.1957 77.4039L76.8051 105.468C78.8629 106.659 82.2145 106.659 84.2723 105.468L114.235 88.1711C115.238 87.5945 115.749 86.8352 115.772 86.0758V86.0289C115.772 86.0195 115.772 86.0148 115.772 86.0055V38.8961C115.754 39.6602 115.243 40.4195 114.235 41.0008H114.239Z" fill="url(#paint2_linear_885_1132)"/>
<path d="M85.8046 53.625C82.9124 55.2938 78.1781 55.2938 75.2859 53.625L26.6718 25.5609C23.7796 23.8922 23.7796 21.1594 26.6718 19.4859L56.6343 2.18906C59.5265 0.520313 64.2609 0.520313 67.1531 2.18906L115.762 30.2531C118.655 31.9219 118.659 34.6547 115.762 36.3281L85.7999 53.625H85.8046Z" fill="#F6F6FB"/>
<path d="M24.5113 27.2398H24.516C24.4644 28.3789 25.1769 29.532 26.6769 30.3945L75.2863 58.4586C78.1785 60.1273 82.9128 60.1273 85.805 58.4586L115.763 41.1617C117.277 40.2852 117.989 39.1227 117.919 37.9742V33.4461C117.858 34.4961 117.146 35.532 115.763 36.3289L85.8003 53.6258C82.9082 55.2945 78.1738 55.2945 75.2816 53.6258L26.6722 25.5617C25.2425 24.7367 24.5253 23.6539 24.5066 22.5664V27.2445L24.5113 27.2398Z" fill="url(#paint3_linear_885_1132)"/>
<g opacity="0.08">
<path d="M103.772 80.5547H89.3582C89.016 80.5547 88.5848 81.0516 88.5848 81.45V85.3969C88.4535 85.6547 88.2098 85.8984 87.8582 86.1047L81.8207 89.2781C80.6863 89.9344 78.8441 89.9297 77.7098 89.2781L50.9441 73.8281C50.3863 73.5047 50.1051 73.0828 50.0957 72.6562V79.7578C50.0957 79.7578 50.0957 79.7813 50.0957 79.7906V79.7953C50.1051 80.2172 50.3863 80.6391 50.9441 80.9578L77.7098 96.4078C78.8441 97.0641 80.6863 97.0641 81.8207 96.4078L87.8582 93.2344C88.2051 93.0328 88.4441 92.7937 88.5801 92.5406V93.8906L88.5848 98.0813C88.5848 98.4797 89.016 98.4797 89.3582 98.0813L103.772 81.4406C104.114 81.0422 104.114 80.5453 103.772 80.5453V80.5547Z" fill="#214975"/>
</g>
<g opacity="0.08">
<path d="M101.962 62.2398H90.173C89.8918 62.2398 89.5402 62.6477 89.5402 62.9711V66.2008C89.4324 66.4117 89.2355 66.6133 88.9449 66.782L84.009 69.3789C83.0809 69.9133 81.5762 69.9133 80.6481 69.3789L53.6059 54.8664C53.1465 54.6039 52.9168 54.257 52.9121 53.9102V59.718C52.9121 59.718 52.9121 59.7367 52.9121 59.7461V59.7508C52.9215 60.0977 53.1512 60.4398 53.6059 60.7023L80.6481 75.2148C81.5762 75.7492 83.0855 75.7492 84.009 75.2148L88.9449 72.618C89.2309 72.4539 89.423 72.257 89.5355 72.0508V73.157L89.5402 76.5836C89.5402 76.907 89.8918 76.907 90.173 76.5836L101.962 62.9711C102.243 62.6477 102.243 62.2398 101.962 62.2398Z" fill="#214975"/>
</g>
<path d="M91.1765 66.5928C91.1765 65.9085 91.6546 65.0788 92.2453 64.7366C92.8359 64.3944 93.314 64.671 93.314 65.3553C93.314 66.0397 92.8359 66.8694 92.2453 67.2116C91.6546 67.5538 91.1765 67.2772 91.1765 66.5928Z" fill="#09C65E"/>
<path d="M96.9141 63.2803C96.9141 62.596 97.3922 61.7663 97.9828 61.4241C98.5734 61.0819 99.0516 61.3585 99.0516 62.0428C99.0516 62.7272 98.5734 63.5569 97.9828 63.8991C97.3922 64.2413 96.9141 63.9647 96.9141 63.2803Z" fill="#E52525"/>
<path d="M102.651 59.9639C102.651 59.2796 103.129 58.4499 103.72 58.1077C104.31 57.7655 104.789 58.0421 104.789 58.7264C104.789 59.4108 104.31 60.2405 103.72 60.5827C103.129 60.9249 102.651 60.6483 102.651 59.9639Z" fill="#09C65E"/>
<path opacity="0.5" d="M108.389 56.6514C108.389 55.9671 108.868 55.1374 109.458 54.7952C110.049 54.453 110.527 54.7296 110.527 55.4139C110.527 56.0983 110.049 56.928 109.458 57.2702C108.868 57.6124 108.389 57.3358 108.389 56.6514Z" fill="#3776AF"/>
<path d="M91.1765 72.2178C91.1765 71.5335 91.6546 70.7038 92.2453 70.3616C92.8359 70.0194 93.314 70.296 93.314 70.9803C93.314 71.6647 92.8359 72.4944 92.2453 72.8366C91.6546 73.1788 91.1765 72.9022 91.1765 72.2178Z" fill="#09C65E"/>
<path d="M96.9141 68.9053C96.9141 68.221 97.3922 67.3913 97.9828 67.0491C98.5734 66.7069 99.0516 66.9835 99.0516 67.6678C99.0516 68.3522 98.5734 69.1819 97.9828 69.5241C97.3922 69.8663 96.9141 69.5897 96.9141 68.9053Z" fill="#E52525"/>
<path opacity="0.5" d="M102.651 65.5889C102.651 64.9045 103.129 64.0749 103.72 63.7327C104.31 63.3905 104.789 63.667 104.789 64.3514C104.789 65.0358 104.31 65.8655 103.72 66.2077C103.129 66.5499 102.651 66.2733 102.651 65.5889Z" fill="#3776AF"/>
<path opacity="0.5" d="M108.389 62.2764C108.389 61.5921 108.868 60.7624 109.458 60.4202C110.049 60.078 110.527 60.3546 110.527 61.0389C110.527 61.7233 110.049 62.553 109.458 62.8952C108.868 63.2374 108.389 62.9608 108.389 62.2764Z" fill="#3776AF"/>
<path d="M91.1765 78.7803C91.1765 78.096 91.6546 77.2663 92.2453 76.9241C92.8359 76.5819 93.314 76.8585 93.314 77.5428C93.314 78.2272 92.8359 79.0569 92.2453 79.3991C91.6546 79.7413 91.1765 79.4647 91.1765 78.7803Z" fill="#09C65E"/>
<path opacity="0.5" d="M96.9141 75.4678C96.9141 74.7835 97.3922 73.9538 97.9828 73.6116C98.5734 73.2694 99.0516 73.546 99.0516 74.2303C99.0516 74.9147 98.5734 75.7444 97.9828 76.0866C97.3922 76.4288 96.9141 76.1522 96.9141 75.4678Z" fill="#3776AF"/>
<path d="M102.651 72.1514C102.651 71.467 103.129 70.6374 103.72 70.2952C104.31 69.953 104.789 70.2295 104.789 70.9139C104.789 71.5983 104.31 72.428 103.72 72.7702C103.129 73.1124 102.651 72.8358 102.651 72.1514Z" fill="#09C65E"/>
<path d="M108.389 68.8389C108.389 68.1546 108.868 67.3249 109.458 66.9827C110.049 66.6405 110.527 66.9171 110.527 67.6014C110.527 68.2858 110.049 69.1155 109.458 69.4577C108.868 69.7999 108.389 69.5233 108.389 68.8389Z" fill="#DDA62A"/>
<path d="M91.1765 84.4053C91.1765 83.721 91.6546 82.8913 92.2453 82.5491C92.8359 82.2069 93.314 82.4835 93.314 83.1678C93.314 83.8522 92.8359 84.6819 92.2453 85.0241C91.6546 85.3663 91.1765 85.0897 91.1765 84.4053Z" fill="#09C65E"/>
<path opacity="0.5" d="M96.9141 81.0928C96.9141 80.4085 97.3922 79.5788 97.9828 79.2366C98.5734 78.8944 99.0516 79.171 99.0516 79.8553C99.0516 80.5397 98.5734 81.3694 97.9828 81.7116C97.3922 82.0538 96.9141 81.7772 96.9141 81.0928Z" fill="#3776AF"/>
<path d="M102.651 77.7764C102.651 77.092 103.129 76.2624 103.72 75.9202C104.31 75.578 104.789 75.8545 104.789 76.5389C104.789 77.2233 104.31 78.053 103.72 78.3952C103.129 78.7374 102.651 78.4608 102.651 77.7764Z" fill="#09C65E"/>
<path d="M108.389 74.4639C108.389 73.7796 108.868 72.9499 109.458 72.6077C110.049 72.2655 110.527 72.5421 110.527 73.2264C110.527 73.9108 110.049 74.7405 109.458 75.0827C108.868 75.4249 108.389 75.1483 108.389 74.4639Z" fill="#286FE0"/>
<path d="M91.1765 90.0303C91.1765 89.346 91.6546 88.5163 92.2453 88.1741C92.8359 87.8319 93.314 88.1085 93.314 88.7928C93.314 89.4772 92.8359 90.3069 92.2453 90.6491C91.6546 90.9913 91.1765 90.7147 91.1765 90.0303Z" fill="#DDA62A"/>
<path opacity="0.5" d="M96.9141 86.7178C96.9141 86.0335 97.3922 85.2038 97.9828 84.8616C98.5734 84.5194 99.0516 84.796 99.0516 85.4803C99.0516 86.1647 98.5734 86.9944 97.9828 87.3366C97.3922 87.6788 96.9141 87.4022 96.9141 86.7178Z" fill="#3776AF"/>
<path opacity="0.5" d="M102.651 83.4014C102.651 82.717 103.129 81.8874 103.72 81.5452C104.31 81.203 104.789 81.4795 104.789 82.1639C104.789 82.8483 104.31 83.678 103.72 84.0202C103.129 84.3624 102.651 84.0858 102.651 83.4014Z" fill="#3776AF"/>
<path opacity="0.5" d="M108.389 80.0889C108.389 79.4046 108.868 78.5749 109.458 78.2327C110.049 77.8905 110.527 78.1671 110.527 78.8514C110.527 79.5358 110.049 80.3655 109.458 80.7077C108.868 81.0499 108.389 80.7733 108.389 80.0889Z" fill="#3776AF"/>
<path d="M82.7156 42.0891C81.6234 42.7172 79.8422 42.7172 78.75 42.0891L60.4266 31.5094C59.3344 30.8813 59.3344 29.85 60.4266 29.2219L71.7187 22.7016C72.8109 22.0734 74.5922 22.0734 75.6844 22.7016L94.0078 33.2812C95.1 33.9094 95.1 34.9406 94.0078 35.5687L82.7109 42.0891H82.7156Z" fill="#F6F6FB"/>
<path d="M59.6063 34.6312C59.5875 35.0625 59.8547 35.4937 60.4219 35.8219L78.7453 46.4016C79.8375 47.0297 81.6187 47.0297 82.7109 46.4016L94.0031 39.8812C94.575 39.5531 94.8422 39.1125 94.8141 38.6766V34.4766C94.7906 34.8703 94.5234 35.2641 94.0031 35.5641L82.7063 42.0844C81.6141 42.7125 79.8328 42.7125 78.7406 42.0844L60.4172 31.5047C59.8781 31.1953 59.6062 30.7828 59.6016 30.375V34.6312H59.6063Z" fill="url(#paint4_linear_885_1132)"/>
<path d="M80.7703 42.0875H82.7109C82.7109 42.0875 82.7109 42.0875 82.7156 42.0875L94.0125 35.5672C95.1046 34.9391 95.1046 33.9078 94.0125 33.2797L82.214 26.4688H80.7703V42.0922V42.0875Z" fill="url(#paint5_linear_885_1132)"/>
<path d="M93.4359 17.4469L82.1391 23.9672C81.3656 24.4172 80.1 24.4172 79.3266 23.9672L61.0031 13.3875C60.6188 13.1672 60.4266 12.8766 60.4219 12.5859V30.3516C60.4219 30.3516 60.4219 30.3656 60.4219 30.375C60.4266 30.6656 60.6188 30.9516 61.0031 31.1719L79.3266 41.7516C80.1047 42.2016 81.3656 42.2016 82.1391 41.7516L93.4359 35.2313C93.8156 35.0109 94.0078 34.7297 94.0172 34.4438V34.425C94.0172 34.425 94.0172 34.4203 94.0172 34.4156V16.6547C94.0078 16.9406 93.8156 17.2313 93.4359 17.4469Z" fill="url(#paint6_linear_885_1132)"/>
<path d="M82.7156 22.2062C81.6234 22.8344 79.8422 22.8344 78.75 22.2062L60.4266 11.6266C59.3344 10.9984 59.3344 9.96719 60.4266 9.33906L71.7187 2.81875C72.8109 2.19062 74.5922 2.19062 75.6844 2.81875L94.0078 13.3984C95.1 14.0266 95.1 15.0578 94.0078 15.6859L82.7109 22.2062H82.7156Z" fill="#F6F6FB"/>
<path d="M59.6063 12.2586C59.5875 12.6898 59.8547 13.1211 60.4219 13.4492L78.7453 24.0289C79.8375 24.657 81.6187 24.657 82.7109 24.0289L94.0031 17.5086C94.575 17.1805 94.8422 16.7398 94.8141 16.3039V14.5977C94.7906 14.9914 94.5234 15.3852 94.0031 15.6852L82.7063 22.2055C81.6141 22.8336 79.8328 22.8336 78.7406 22.2055L60.4172 11.6258C59.8781 11.3164 59.6062 10.9039 59.6016 10.4961V12.2586H59.6063Z" fill="url(#paint7_linear_885_1132)"/>
<g opacity="0.08">
<path d="M89.4891 32.3594H84.0563C83.925 32.3594 83.7656 32.5469 83.7656 32.6969V34.1875C83.7141 34.2859 83.625 34.3797 83.4937 34.4547L81.2156 35.65C80.7891 35.8984 80.0953 35.8984 79.6641 35.65L69.5766 29.8234C69.3656 29.7016 69.2578 29.5422 69.2578 29.3828V32.0594C69.2578 32.0594 69.2578 32.0687 69.2578 32.0734C69.2578 32.2328 69.3656 32.3922 69.5766 32.5141L79.6641 38.3406C80.0906 38.5891 80.7844 38.5891 81.2156 38.3406L83.4937 37.1453C83.625 37.0703 83.7141 36.9812 83.7656 36.8828V37.3937V38.9734C83.7656 39.1234 83.9297 39.1234 84.0563 38.9734L89.4891 32.7016C89.6203 32.5516 89.6203 32.3641 89.4891 32.3641V32.3594Z" fill="#214975"/>
</g>
<g opacity="0.08">
<path d="M88.8093 25.4523H84.3656C84.2578 25.4523 84.1265 25.607 84.1265 25.7289V26.9477C84.0843 27.0273 84.0093 27.1023 83.9015 27.168L82.0406 28.1477C81.689 28.3492 81.1218 28.3492 80.775 28.1477L70.5796 22.6773C70.4062 22.5789 70.3218 22.4477 70.3171 22.3164V24.5055C70.3171 24.5055 70.3171 24.5102 70.3171 24.5148C70.3171 24.6461 70.4062 24.7727 70.5796 24.8758L80.775 30.3461C81.1265 30.5477 81.6937 30.5477 82.0406 30.3461L83.9015 29.3664C84.0093 29.3055 84.0843 29.2305 84.1218 29.1508V29.568V30.8617C84.1218 30.9836 84.2531 30.9836 84.3609 30.8617L88.8046 25.7289C88.9125 25.607 88.9125 25.4523 88.8046 25.4523H88.8093Z" fill="#214975"/>
</g>
<path d="M84.7402 27.0962C84.7402 26.8384 84.923 26.5243 85.1434 26.3977C85.3637 26.2712 85.5465 26.3743 85.5465 26.6321C85.5465 26.8899 85.3637 27.204 85.1434 27.3306C84.9184 27.4571 84.7402 27.354 84.7402 27.0962Z" fill="#09C65E"/>
<path d="M86.9062 25.8501C86.9062 25.5923 87.0891 25.2782 87.3094 25.1516C87.5344 25.0251 87.7125 25.1282 87.7125 25.386C87.7125 25.6438 87.5297 25.9579 87.3094 26.0845C87.0844 26.211 86.9062 26.1079 86.9062 25.8501Z" fill="#E52525"/>
<path d="M89.0664 24.5962C89.0664 24.3384 89.2492 24.0243 89.4695 23.8977C89.6945 23.7712 89.8727 23.8743 89.8727 24.1321C89.8727 24.3899 89.6898 24.704 89.4695 24.8306C89.2492 24.9571 89.0664 24.854 89.0664 24.5962Z" fill="#09C65E"/>
<path opacity="0.5" d="M91.2324 23.3501C91.2324 23.0923 91.4152 22.7782 91.6355 22.6516C91.8605 22.5251 92.0387 22.6282 92.0387 22.886C92.0387 23.1438 91.8559 23.4579 91.6355 23.5845C91.4105 23.711 91.2324 23.6079 91.2324 23.3501Z" fill="#3776AF"/>
<path d="M84.7402 29.2173C84.7402 28.9595 84.923 28.6454 85.1434 28.5188C85.3637 28.3923 85.5465 28.4954 85.5465 28.7532C85.5465 29.011 85.3637 29.3251 85.1434 29.4516C84.9184 29.5782 84.7402 29.4751 84.7402 29.2173Z" fill="#09C65E"/>
<path d="M86.9062 27.9673C86.9062 27.7095 87.0891 27.3954 87.3094 27.2688C87.5344 27.1423 87.7125 27.2454 87.7125 27.5032C87.7125 27.761 87.5297 28.0751 87.3094 28.2016C87.0844 28.3282 86.9062 28.2251 86.9062 27.9673Z" fill="#E52525"/>
<path opacity="0.5" d="M89.0664 26.7212C89.0664 26.4634 89.2492 26.1493 89.4695 26.0227C89.6945 25.8962 89.8727 25.9993 89.8727 26.2571C89.8727 26.5149 89.6898 26.829 89.4695 26.9556C89.2492 27.0821 89.0664 26.979 89.0664 26.7212Z" fill="#3776AF"/>
<path opacity="0.5" d="M91.2324 25.4673C91.2324 25.2095 91.4152 24.8954 91.6355 24.7688C91.8605 24.6423 92.0387 24.7454 92.0387 25.0032C92.0387 25.261 91.8559 25.5751 91.6355 25.7016C91.4105 25.8282 91.2324 25.7251 91.2324 25.4673Z" fill="#3776AF"/>
<path d="M84.7402 31.6899C84.7402 31.4321 84.923 31.1181 85.1434 30.9915C85.3637 30.8649 85.5465 30.9681 85.5465 31.2259C85.5465 31.4837 85.3637 31.7977 85.1434 31.9243C84.9184 32.0509 84.7402 31.9477 84.7402 31.6899Z" fill="#09C65E"/>
<path opacity="0.5" d="M86.9062 30.4438C86.9062 30.186 87.0891 29.872 87.3094 29.7454C87.5344 29.6188 87.7125 29.722 87.7125 29.9798C87.7125 30.2376 87.5297 30.5516 87.3094 30.6782C87.0844 30.8048 86.9062 30.7016 86.9062 30.4438Z" fill="#3776AF"/>
<path d="M89.0664 29.1938C89.0664 28.936 89.2492 28.622 89.4695 28.4954C89.6945 28.3688 89.8727 28.472 89.8727 28.7298C89.8727 28.9876 89.6898 29.3016 89.4695 29.4282C89.2492 29.5548 89.0664 29.4516 89.0664 29.1938Z" fill="#09C65E"/>
<path d="M91.2324 27.9438C91.2324 27.686 91.4152 27.372 91.6355 27.2454C91.8605 27.1188 92.0387 27.222 92.0387 27.4798C92.0387 27.7376 91.8559 28.0516 91.6355 28.1782C91.4105 28.3048 91.2324 28.2016 91.2324 27.9438Z" fill="#DDA62A"/>
<path d="M84.7402 33.811C84.7402 33.5532 84.923 33.2391 85.1434 33.1126C85.3637 32.986 85.5465 33.0891 85.5465 33.347C85.5465 33.6048 85.3637 33.9188 85.1434 34.0454C84.9184 34.172 84.7402 34.0688 84.7402 33.811Z" fill="#09C65E"/>
<path opacity="0.5" d="M86.9062 32.561C86.9062 32.3032 87.0891 31.9891 87.3094 31.8626C87.5344 31.736 87.7125 31.8391 87.7125 32.097C87.7125 32.3548 87.5297 32.6688 87.3094 32.7954C87.0844 32.922 86.9062 32.8188 86.9062 32.561Z" fill="#3776AF"/>
<path d="M89.0664 31.3149C89.0664 31.0571 89.2492 30.7431 89.4695 30.6165C89.6945 30.4899 89.8727 30.5931 89.8727 30.8509C89.8727 31.1087 89.6898 31.4227 89.4695 31.5493C89.2492 31.6759 89.0664 31.5727 89.0664 31.3149Z" fill="#09C65E"/>
<path d="M91.2324 30.0688C91.2324 29.811 91.4152 29.497 91.6355 29.3704C91.8605 29.2438 92.0387 29.347 92.0387 29.6048C92.0387 29.8626 91.8559 30.1766 91.6355 30.3032C91.4105 30.4298 91.2324 30.3266 91.2324 30.0688Z" fill="#286FE0"/>
<path d="M84.7402 35.9321C84.7402 35.6743 84.923 35.3602 85.1434 35.2337C85.3637 35.1071 85.5465 35.2102 85.5465 35.4681C85.5465 35.7259 85.3637 36.0399 85.1434 36.1665C84.9184 36.2931 84.7402 36.1899 84.7402 35.9321Z" fill="#DDA62A"/>
<path opacity="0.5" d="M86.9062 34.686C86.9062 34.4282 87.0891 34.1141 87.3094 33.9876C87.5344 33.861 87.7125 33.9641 87.7125 34.222C87.7125 34.4798 87.5297 34.7938 87.3094 34.9204C87.0844 35.047 86.9062 34.9438 86.9062 34.686Z" fill="#3776AF"/>
<path opacity="0.5" d="M89.0664 33.4321C89.0664 33.1743 89.2492 32.8602 89.4695 32.7337C89.6945 32.6071 89.8727 32.7102 89.8727 32.9681C89.8727 33.2259 89.6898 33.5399 89.4695 33.6665C89.2492 33.7931 89.0664 33.6899 89.0664 33.4321Z" fill="#3776AF"/>
<path opacity="0.5" d="M91.2324 32.186C91.2324 31.9282 91.4152 31.6141 91.6355 31.4876C91.8605 31.361 92.0387 31.4641 92.0387 31.722C92.0387 31.9798 91.8559 32.2938 91.6355 32.4204C91.4105 32.547 91.2324 32.4438 91.2324 32.186Z" fill="#3776AF"/>
<path d="M55.0121 54.775L55.0027 57.6391L52.5137 56.2L52.523 53.3359L55.0121 54.775Z" fill="white"/>
<path d="M53.259 73.4078L53.2543 75.475L47.7559 72.3016L47.7605 70.2344L53.259 73.4078Z" fill="#C5D5E7"/>
<path d="M53.2172 87.8844L53.2125 89.9516L48.8157 87.4109L48.8204 85.3438L53.2172 87.8844Z" fill="#C5D5E7"/>
<g filter="url(#filter0_d_885_1132)">
<path d="M13.9313 50.7008L13.9266 52.768L7.94067 49.3133L7.94536 47.2461L13.9313 50.7008Z" fill="#C5D5E7"/>
<path d="M18.314 58.0648L18.3093 60.132L7.92651 54.1414L7.9312 52.0742L18.314 58.0648Z" fill="#C5D5E7"/>
<path d="M27.3371 68.1109L27.3324 70.1781L7.91211 58.9656L7.9168 56.8984L27.3371 68.1109Z" fill="#C5D5E7"/>
<path d="M16.5234 42.5297L16.5188 44.5969L7.96875 39.6609L7.97344 37.5938L16.5234 42.5297Z" fill="#C5D5E7"/>
<path d="M30.6656 60.3594L30.6562 62.4266L16.125 54.0359L16.1297 51.9688L30.6656 60.3594Z" fill="#C5D5E7"/>
<path d="M37.6125 69.2078L37.6078 71.275L20.5078 61.4031L20.5125 59.3359L37.6125 69.2078Z" fill="#C5D5E7"/>
<path d="M46.6215 84.0734L46.6168 86.1406L35.9902 80.0094L35.9949 77.9375L46.6215 84.0734Z" fill="#C5D5E7"/>
<path d="M43.4625 77.4141L43.4531 79.4859L29.5312 71.4469L29.5359 69.375L43.4625 77.4141Z" fill="#09C65E"/>
<path d="M35.5645 58.3547L35.5551 60.4219L23.5879 53.5125L23.5926 51.4453L35.5645 58.3547Z" fill="#C5D5E7"/>
<path d="M33.7969 76.6719L33.7922 78.7391L19.9922 70.7703L19.9969 68.7031L33.7969 76.6719Z" fill="#C5D5E7"/>
<path d="M45.5625 68.9609L45.5579 71.0281L32.8547 63.6969L32.8594 61.625L45.5625 68.9609Z" fill="#C5D5E7"/>
<path d="M53.2457 78.2344L53.241 80.3016L39.8066 72.5437L39.8113 70.4766L53.2457 78.2344Z" fill="#C5D5E7"/>
<path d="M41.3152 56.8461L41.3105 58.9133L18.7168 45.868L18.7215 43.8008L41.3152 56.8461Z" fill="#C5D5E7"/>
<path d="M53.2879 63.7562L53.2785 65.8234L43.5098 60.1844L43.5145 58.1172L53.2879 63.7562Z" fill="#C5D5E7"/>
<path d="M5.28281 30.1562L5.17969 66.6719L56.1422 96.0953L56.2453 59.5797L5.28281 30.1562ZM7.91719 56.8984L27.3375 68.1109V70.1781L7.9125 58.9656V56.8984H7.91719ZM20.5125 61.4031V59.3359L37.6172 69.2078V71.275L20.5125 61.4031ZM29.5406 69.3766L43.4625 77.4156V79.4828L29.5313 71.4438V69.3766H29.5406ZM23.5969 53.5141V51.4469L35.5734 58.3563V60.4234L23.5969 53.5141ZM30.675 60.3625V62.4297L16.1344 54.0391V51.9719L30.675 60.3625ZM45.5719 68.9641V71.0312L32.8641 63.7V61.6328L45.5719 68.9641ZM7.93125 52.075L18.3141 58.0703V60.1375L7.92656 54.1422V52.075H7.93125ZM7.95 47.2469L13.9359 50.7016V52.7688L7.94531 49.3141V47.2469H7.95ZM7.96875 42.4234L21.4031 50.1813V52.2484L7.96406 44.4906V42.4234H7.96875ZM16.5375 42.5313V44.5984L7.98281 39.6625V37.5953L16.5375 42.5313ZM41.3297 56.8469V58.9141L18.7313 45.8687V43.8016L41.3297 56.8469ZM53.2922 65.8234L43.5234 60.1844V58.1172L53.3016 63.7562V65.8234H53.2922ZM53.2734 70.6516L37.7625 61.6938V59.6266L53.2781 68.5844V70.6516H53.2734ZM53.2547 75.475L47.7562 72.3016V70.2344L53.2594 73.4078V75.475H53.2547ZM53.2359 80.3031L39.8016 72.5453V70.4781L53.2406 78.2359V80.3031H53.2359ZM53.2172 85.1266L45.6469 80.7531V78.6859L53.2266 83.0594V85.1266H53.2172ZM48.8016 87.4141V85.3469L53.2031 87.8875V89.9547L48.8016 87.4141ZM35.9766 80.0125V77.9453L46.6078 84.0812V86.1484L35.9766 80.0125ZM19.9781 70.7734V68.7063L33.7875 76.675V78.7422H33.7828L19.9828 70.7734H19.9781ZM7.88906 63.7938V61.7266L17.7891 67.4406V69.5078L7.88906 63.7938Z" fill="white"/>
<path d="M17.7984 67.4328L17.7937 69.5L7.89844 63.7906L7.90313 61.7188L17.7984 67.4328Z" fill="#09C65E"/>
<path d="M21.3941 50.175L21.3895 52.2469L7.95508 44.4891L7.95977 42.4219L21.3941 50.175Z" fill="#09C65E"/>
<path d="M53.2313 83.057L53.2266 85.1242L45.6516 80.7508L45.661 78.6836L53.2313 83.057Z" fill="#C5D5E7"/>
<path d="M53.2735 68.5828L53.2641 70.65L37.7532 61.6922L37.7625 59.625L53.2735 68.5828Z" fill="#09C65E"/>
<path d="M5.29727 24.8438L5.2832 30.1547L56.2457 59.5781L56.2598 54.2672L5.29727 24.8438ZM52.5145 56.1984L52.5238 53.3344L55.0129 54.7734L55.0035 57.6375L52.5145 56.1984Z" fill="#09C65E"/>
</g>
<defs>
<filter id="filter0_d_885_1132" x="5.17969" y="13.1438" width="98.7801" height="102.65" filterUnits="userSpaceOnUse" color-interpolation-filters="sRGB">
<feFlood flood-opacity="0" result="BackgroundImageFix"/>
<feColorMatrix in="SourceAlpha" type="matrix" values="0 0 0 0 0 0 0 0 0 0 0 0 0 0 0 0 0 0 127 0" result="hardAlpha"/>
<feOffset dx="32" dy="4"/>
<feGaussianBlur stdDeviation="7.85"/>
<feComposite in2="hardAlpha" operator="out"/>
<feColorMatrix type="matrix" values="0 0 0 0 0.135753 0 0 0 0 0.25468 0 0 0 0 0.412028 0 0 0 0.35 0"/>
<feBlend mode="normal" in2="BackgroundImageFix" result="effect1_dropShadow_885_1132"/>
<feBlend mode="normal" in="SourceGraphic" in2="effect1_dropShadow_885_1132" result="shape"/>
</filter>
<linearGradient id="paint0_linear_885_1132" x1="117.927" y1="97.1727" x2="24.5049" y2="97.173" gradientUnits="userSpaceOnUse">
<stop offset="0.32" stop-color="#BBC0E6"/>
<stop offset="0.33" stop-color="#BBC0E6"/>
<stop offset="0.46" stop-color="#CED3F8"/>
</linearGradient>
<linearGradient id="paint1_linear_885_1132" x1="80.6387" y1="85.6445" x2="117.932" y2="85.6445" gradientUnits="userSpaceOnUse">
<stop stop-color="#C4C9E4"/>
<stop offset="0.32" stop-color="#CCD1EA"/>
<stop offset="1" stop-color="#DAE0F5"/>
</linearGradient>
<linearGradient id="paint2_linear_885_1132" x1="26.6629" y1="67.2414" x2="115.782" y2="67.2414" gradientUnits="userSpaceOnUse">
<stop offset="0.01" stop-color="#42B4DD"/>
<stop offset="0.02" stop-color="#4AB0DD"/>
<stop offset="0.57" stop-color="#52B6E0"/>
<stop offset="0.6" stop-color="#4DA3DE"/>
<stop offset="0.65" stop-color="#4688DD"/>
</linearGradient>
<linearGradient id="paint3_linear_885_1132" x1="117.928" y1="41.1298" x2="24.5102" y2="41.1277" gradientUnits="userSpaceOnUse">
<stop offset="0.32" stop-color="#BBC0E6"/>
<stop offset="0.33" stop-color="#BBC0E6"/>
<stop offset="0.46" stop-color="#CED3F8"/>
</linearGradient>
<linearGradient id="paint4_linear_885_1132" x1="94.8277" y1="38.6178" x2="59.6071" y2="38.6171" gradientUnits="userSpaceOnUse">
<stop offset="0.32" stop-color="#BBC0E6"/>
<stop offset="0.33" stop-color="#BBC0E6"/>
<stop offset="0.46" stop-color="#CED3F8"/>
</linearGradient>
<linearGradient id="paint5_linear_885_1132" x1="80.7703" y1="34.2781" x2="94.8281" y2="34.2781" gradientUnits="userSpaceOnUse">
<stop stop-color="#C4C9E4"/>
<stop offset="0.32" stop-color="#CCD1EA"/>
<stop offset="1" stop-color="#DAE0F5"/>
</linearGradient>
<linearGradient id="paint6_linear_885_1132" x1="60.4219" y1="27.3375" x2="94.0172" y2="27.3375" gradientUnits="userSpaceOnUse">
<stop offset="0.01" stop-color="#42B4DD"/>
<stop offset="0.02" stop-color="#4AB0DD"/>
<stop offset="0.57" stop-color="#52B6E0"/>
<stop offset="0.6" stop-color="#4DA3DE"/>
<stop offset="0.65" stop-color="#4688DD"/>
</linearGradient>
<linearGradient id="paint7_linear_885_1132" x1="94.8278" y1="17.4875" x2="59.6095" y2="17.4908" gradientUnits="userSpaceOnUse">
<stop offset="0.32" stop-color="#BBC0E6"/>
<stop offset="0.33" stop-color="#BBC0E6"/>
<stop offset="0.46" stop-color="#CED3F8"/>
</linearGradient>
</defs>
</svg>
