<svg width="16" height="16" viewBox="0 0 16 16" fill="none" xmlns="http://www.w3.org/2000/svg">
<path d="M8.39416 0.797032L7.99995 1.33459C7.82548 1.09668 7.72825 0.964029 7.67405 0.890087C7.60579 0.796961 7.60568 0.797032 7.60568 0.797032C7.84034 0.624948 8.1595 0.624948 8.39416 0.797032Z" fill="#C0ED5F"/>
<path fill-rule="evenodd" clip-rule="evenodd" d="M13.6666 9.66797C13.6666 7.1036 12.3 4.87006 11.0121 3.32451C10.3608 2.543 9.71105 1.91506 9.22408 1.4822C8.98016 1.26538 8.77593 1.09649 8.63123 0.980723C8.55884 0.922817 8.50126 0.87813 8.46095 0.847314C8.44079 0.831904 8.42494 0.819956 8.41371 0.81155L8.40036 0.801606L8.39635 0.798644L8.39503 0.797669C8.39503 0.797669 8.39416 0.797032 7.99995 1.33459L7.60568 0.797032L7.60481 0.797669L7.60348 0.798644L7.59948 0.801606L7.58613 0.81155C7.57489 0.819956 7.55905 0.831904 7.53889 0.847314C7.49858 0.87813 7.44099 0.922817 7.36861 0.980723C7.22391 1.09649 7.01968 1.26538 6.77576 1.4822C6.28878 1.91506 5.63903 2.543 4.98777 3.32451C3.69982 4.87006 2.33325 7.1036 2.33325 9.66797C2.33325 12.7976 4.8703 15.3346 7.99992 15.3346C10.7383 15.3346 13.0231 13.3922 13.5515 10.81C13.6269 10.4411 13.6666 10.0592 13.6666 9.66797ZM12.3122 9.16831C12.1519 7.26034 11.1031 5.51654 9.98777 4.17809C9.38903 3.4596 8.78878 2.87921 8.33826 2.47874C8.21229 2.36677 8.09838 2.26918 7.99992 2.18689C7.90146 2.26918 7.78755 2.36677 7.66158 2.47874C7.21105 2.87921 6.61081 3.4596 6.01207 4.17809C4.97089 5.4275 3.98772 7.03014 3.73121 8.7898C4.00242 8.73216 4.32037 8.67481 4.66723 8.63145C5.70683 8.5015 7.11883 8.48207 8.29806 9.07168C9.11883 9.48207 10.2068 9.5015 11.1672 9.38145C11.6208 9.32475 12.0209 9.24027 12.3122 9.16831Z" fill="#C0ED5F"/>
</svg>
