<svg width="36" height="36" viewBox="0 0 36 36" fill="none" xmlns="http://www.w3.org/2000/svg">
<path d="M18.887 1.79039L18.0001 2.9999C17.6075 2.46459 17.3887 2.16614 17.2668 1.99977C17.1132 1.79023 17.113 1.79039 17.113 1.79039C17.6409 1.4032 18.3591 1.4032 18.887 1.79039Z" fill="white"/>
<path fill-rule="evenodd" clip-rule="evenodd" d="M30.75 21.75C30.75 15.9802 27.6752 10.9547 24.7773 7.47722C23.312 5.71883 21.8501 4.30596 20.7544 3.33201C20.2055 2.84417 19.746 2.46417 19.4204 2.2037C19.2576 2.07341 19.128 1.97286 19.0373 1.90353C18.992 1.86885 18.9563 1.84197 18.931 1.82306L18.901 1.80068L18.892 1.79402L18.889 1.79183C18.889 1.79183 18.887 1.79039 18.0001 2.9999L17.113 1.79039L17.111 1.79183L17.108 1.79402L17.099 1.80068L17.069 1.82306C17.0437 1.84197 17.008 1.86885 16.9627 1.90353C16.872 1.97286 16.7424 2.07341 16.5796 2.2037C16.254 2.46417 15.7945 2.84417 15.2456 3.33201C14.1499 4.30596 12.688 5.71883 11.2227 7.47722C8.32477 10.9547 5.25 15.9802 5.25 21.75C5.25 28.7917 10.9583 34.5 18 34.5C24.1614 34.5 29.3021 30.1295 30.491 24.3196C30.6608 23.4896 30.75 22.6302 30.75 21.75ZM27.7025 20.6258C27.3421 16.3328 24.9823 12.4093 22.4727 9.39778C21.1255 7.78117 19.7749 6.47529 18.7613 5.57424C18.4778 5.32229 18.2215 5.10271 18 4.91757C17.7785 5.10271 17.5222 5.32229 17.2387 5.57424C16.2251 6.47529 14.8745 7.78117 13.5273 9.39778C11.1847 12.209 8.97256 15.8149 8.3954 19.7741C9.00562 19.6444 9.72101 19.5154 10.5014 19.4178C12.8405 19.1255 16.0175 19.0817 18.6708 20.4084C20.5175 21.3317 22.9655 21.3755 25.1264 21.1053C26.147 20.9778 27.0472 20.7877 27.7025 20.6258Z" fill="white"/>
</svg>
