<svg width="16" height="16" viewBox="0 0 16 16" fill="none" xmlns="http://www.w3.org/2000/svg">
<path d="M7.69959 2.33203C6.39352 2.33203 5.26901 3.25391 5.01287 4.53462C4.94066 4.89566 5.1748 5.24688 5.53584 5.31908C5.89688 5.39129 6.2481 5.15715 6.32031 4.79611C6.4518 4.13863 7.02912 3.66536 7.69959 3.66536H7.83325C8.66165 3.66536 9.33325 4.33694 9.33325 5.16537C9.33325 5.9938 8.66165 6.66536 7.83325 6.66536H1.99992C1.63173 6.66536 1.33325 6.96383 1.33325 7.33203C1.33325 7.70023 1.63173 7.9987 1.99992 7.9987H7.83325C9.39805 7.9987 10.6666 6.73016 10.6666 5.16537C10.6666 3.60056 9.39805 2.33203 7.83325 2.33203H7.69959ZM12.547 6.33203C11.631 6.33203 10.8214 6.92603 10.5341 7.7879C10.4177 8.13716 10.6065 8.5147 10.9558 8.63116C11.3051 8.74756 11.6826 8.55883 11.7991 8.2095C11.9073 7.88496 12.2124 7.66536 12.547 7.66536C12.9811 7.66536 13.3331 8.0173 13.3331 8.45143V8.4987C13.3331 8.9589 12.96 9.33203 12.4997 9.33203H1.99992C1.63173 9.33203 1.33325 9.6305 1.33325 9.9987C1.33325 10.3669 1.63173 10.6654 1.99992 10.6654H5.99576H5.99992H9.83305C10.2933 10.6654 10.6664 11.0385 10.6664 11.4987V11.546C10.6664 11.9801 10.3145 12.332 9.88032 12.332C9.54572 12.332 9.24059 12.1124 9.13239 11.7879C9.01592 11.4386 8.63839 11.2498 8.28912 11.3662C7.93979 11.4827 7.75105 11.8602 7.86745 12.2095C8.15472 13.0714 8.96432 13.6654 9.88032 13.6654C11.0509 13.6654 11.9997 12.7165 11.9997 11.546V11.4987C11.9997 11.2034 11.9407 10.9219 11.8337 10.6654H12.4997C13.6963 10.6654 14.6664 9.6953 14.6664 8.4987V8.45143C14.6664 7.2809 13.7175 6.33203 12.547 6.33203ZM2.66659 4.16536C3.12683 4.16536 3.49992 3.79227 3.49992 3.33203C3.49992 2.87179 3.12683 2.4987 2.66659 2.4987C2.20635 2.4987 1.83325 2.87179 1.83325 3.33203C1.83325 3.79227 2.20635 4.16536 2.66659 4.16536ZM6.83325 13.332C6.83325 13.7923 6.46016 14.1654 5.99992 14.1654C5.53968 14.1654 5.16659 13.7923 5.16659 13.332C5.16659 12.8718 5.53968 12.4987 5.99992 12.4987C6.46016 12.4987 6.83325 12.8718 6.83325 13.332ZM12.6666 4.83203C13.1269 4.83203 13.4999 4.45894 13.4999 3.9987C13.4999 3.53846 13.1269 3.16536 12.6666 3.16536C12.2063 3.16536 11.8333 3.53846 11.8333 3.9987C11.8333 4.45894 12.2063 4.83203 12.6666 4.83203Z" fill="#C0ED5F"/>
</svg>
