<?xml version="1.0" encoding="UTF-8"?>
<svg id="Layer_1" data-name="Layer 1" xmlns="http://www.w3.org/2000/svg" viewBox="0 0 60 60">
  <defs>
    <style>
      .cls-1 {
        fill: #df5a49;
      }

      .cls-1, .cls-2 {
        fill-rule: evenodd;
      }

      .cls-2 {
        fill: #fbfbfb;
      }
    </style>
  </defs>
  <path class="cls-1" d="M30,60c-8.01,0-15.55-3.12-21.21-8.79C3.12,45.55,0,38.01,0,30S3.12,14.45,8.79,8.79C14.45,3.12,21.99,0,30,0s15.55,3.12,21.21,8.79c5.67,5.67,8.79,13.2,8.79,21.21s-3.12,15.55-8.79,21.21c-5.67,5.67-13.2,8.79-21.21,8.79Z"/>
  <path class="cls-2" d="M44.34,43.47c.34,0,.66-.12,.92-.33,.52-.43,.68-1.16,.38-1.76L30.97,11.87c-.24-.49-.74-.8-1.31-.8-.55,0-1.05,.33-1.29,.82l-14.02,29.51c-.28,.6-.12,1.32,.39,1.74,.52,.42,1.25,.43,1.78,.03l13.58-10.27,13.35,10.27c.25,.19,.56,.3,.88,.3Z"/>
</svg>