<svg xmlns="http://www.w3.org/2000/svg" xmlns:xlink="http://www.w3.org/1999/xlink" viewBox="0 0 69.18 67.04">
  <defs>
    <linearGradient id="未命名漸層_9" data-name="未命名漸層 9" x1="31.67" y1="9.2" x2="41.19" y2="9.2" gradientUnits="userSpaceOnUse">
      <stop offset="0.41" stop-color="#ffffc3"/>
      <stop offset="0.56" stop-color="#f8eda3"/>
      <stop offset="0.74" stop-color="#f2db85"/>
      <stop offset="0.84" stop-color="#f0d57a"/>
      <stop offset="0.88" stop-color="#eed278"/>
      <stop offset="0.92" stop-color="#e8c774"/>
      <stop offset="0.96" stop-color="#dfb66c"/>
      <stop offset="0.99" stop-color="#d29e61"/>
      <stop offset="1" stop-color="#cc945c"/>
    </linearGradient>
    <linearGradient id="未命名漸層_9-2" x1="32.35" y1="8.96" x2="40.51" y2="8.96" xlink:href="#未命名漸層_9"/>
    <linearGradient id="未命名漸層_9-3" x1="35.64" y1="17.27" x2="37.22" y2="17.27" xlink:href="#未命名漸層_9"/>
    <linearGradient id="未命名漸層_9-4" x1="35.5" y1="0.82" x2="37.36" y2="0.82" xlink:href="#未命名漸層_9"/>
    <linearGradient id="未命名漸層_9-5" x1="37.45" y1="58.08" x2="46.72" y2="58.08" xlink:href="#未命名漸層_9"/>
    <linearGradient id="未命名漸層_9-6" x1="38.11" y1="57.84" x2="46.06" y2="57.84" xlink:href="#未命名漸層_9"/>
    <linearGradient id="未命名漸層_9-7" x1="41.32" y1="65.94" x2="42.85" y2="65.94" xlink:href="#未命名漸層_9"/>
    <linearGradient id="未命名漸層_9-8" x1="41.18" y1="49.92" x2="42.99" y2="49.92" xlink:href="#未命名漸層_9"/>
    <linearGradient id="未命名漸層_9-9" x1="4.1" y1="53.13" x2="18.62" y2="53.13" xlink:href="#未命名漸層_9"/>
    <linearGradient id="未命名漸層_9-10" x1="5.13" y1="52.88" x2="17.59" y2="52.88" xlink:href="#未命名漸層_9"/>
    <linearGradient id="未命名漸層_9-11" x1="10.16" y1="61.65" x2="12.56" y2="61.65" xlink:href="#未命名漸層_9"/>
    <linearGradient id="未命名漸層_9-12" x1="9.94" y1="44.28" x2="12.78" y2="44.28" xlink:href="#未命名漸層_9"/>
    <linearGradient id="未命名漸層_9-13" x1="53.16" y1="34.7" x2="69.18" y2="34.7" xlink:href="#未命名漸層_9"/>
    <linearGradient id="未命名漸層_9-14" x1="0" y1="24.4" x2="16.33" y2="24.4" xlink:href="#未命名漸層_9"/>
    <linearGradient id="未命名漸層_9-15" x1="29.62" y1="34.57" x2="32.67" y2="34.57" xlink:href="#未命名漸層_9"/>
    <linearGradient id="未命名漸層_9-16" x1="27.98" y1="34.57" x2="34.32" y2="34.57" xlink:href="#未命名漸層_9"/>
    <linearGradient id="未命名漸層_9-17" x1="31.15" y1="34.57" x2="51.21" y2="34.57" xlink:href="#未命名漸層_9"/>
    <linearGradient id="未命名漸層_9-18" x1="21.04" y1="39.3" x2="31.15" y2="39.3" xlink:href="#未命名漸層_9"/>
    <linearGradient id="未命名漸層_9-19" x1="30.79" y1="27.65" x2="36.76" y2="27.65" xlink:href="#未命名漸層_9"/>
    <linearGradient id="未命名漸層_9-20" x1="18.25" y1="30.66" x2="31.34" y2="30.66" xlink:href="#未命名漸層_9"/>
    <linearGradient id="未命名漸層_9-21" x1="31.15" y1="41.38" x2="38.64" y2="41.38" xlink:href="#未命名漸層_9"/>
  </defs>
  <title>形象網站_首頁v5</title>
  <g id="圖層_5" data-name="圖層 5">
    <g>
      <g>
        <path d="M39.66,18.4H33.2a1.53,1.53,0,0,1-1.53-1.53V1.53A1.54,1.54,0,0,1,33.2,0h6.46a1.54,1.54,0,0,1,1.53,1.53V16.87A1.53,1.53,0,0,1,39.66,18.4ZM33.2.27a1.27,1.27,0,0,0-1.26,1.26V16.87a1.26,1.26,0,0,0,1.26,1.26h6.46a1.26,1.26,0,0,0,1.26-1.26V1.53A1.27,1.27,0,0,0,39.66.27Z" style="fill: url(#未命名漸層_9)"/>
        <rect x="32.35" y="1.78" width="8.16" height="14.37" rx="0.87" style="fill: url(#未命名漸層_9-2)"/>
        <rect x="35.64" y="16.74" width="1.58" height="1.05" rx="0.25" style="fill: url(#未命名漸層_9-3)"/>
        <rect x="35.5" y="0.7" width="1.86" height="0.24" rx="0.06" style="fill: url(#未命名漸層_9-4)"/>
      </g>
      <g>
        <path d="M45.23,67H38.94a1.49,1.49,0,0,1-1.49-1.49V50.61a1.49,1.49,0,0,1,1.49-1.49h6.29a1.49,1.49,0,0,1,1.49,1.49V65.55A1.49,1.49,0,0,1,45.23,67ZM38.94,49.38a1.23,1.23,0,0,0-1.22,1.23V65.55a1.23,1.23,0,0,0,1.22,1.23h6.29a1.23,1.23,0,0,0,1.23-1.23V50.61a1.23,1.23,0,0,0-1.23-1.23Z" style="fill: url(#未命名漸層_9-5)"/>
        <rect x="38.11" y="50.85" width="7.95" height="14" rx="0.87" style="fill: url(#未命名漸層_9-6)"/>
        <rect x="41.32" y="65.43" width="1.54" height="1.02" rx="0.25" style="fill: url(#未命名漸層_9-7)"/>
        <rect x="41.18" y="49.8" width="1.81" height="0.23" rx="0.06" style="fill: url(#未命名漸層_9-8)"/>
      </g>
      <g>
        <path d="M16.29,62.85H6.44c-1.29,0-2.34-.73-2.34-1.62V45c0-.89,1.05-1.61,2.34-1.61h9.85c1.28,0,2.33.72,2.33,1.61v16.2C18.62,62.12,17.57,62.85,16.29,62.85ZM6.44,43.7c-1.06,0-1.93.6-1.93,1.33v16.2c0,.74.87,1.33,1.93,1.33h9.85c1.06,0,1.92-.59,1.92-1.33V45c0-.73-.86-1.33-1.92-1.33Z" style="fill: url(#未命名漸層_9-9)"/>
        <rect x="5.13" y="45.29" width="12.45" height="15.17" rx="0.87" style="fill: url(#未命名漸層_9-10)"/>
        <rect x="10.16" y="61.1" width="2.41" height="1.11" rx="0.24" style="fill: url(#未命名漸層_9-11)"/>
        <rect x="9.94" y="44.16" width="2.84" height="0.25" rx="0.05" style="fill: url(#未命名漸層_9-12)"/>
      </g>
      <path d="M67.55,28H54.8a1.64,1.64,0,0,0-1.64,1.63V37.4A1.64,1.64,0,0,0,54.8,39h4.63v1.61H58a.39.39,0,1,0,0,.77h6.31a.39.39,0,1,0,0-.77H62.92V39h4.63a1.63,1.63,0,0,0,1.63-1.64V29.61A1.63,1.63,0,0,0,67.55,28ZM67.18,38.6a.3.3,0,0,1-.3-.3.31.31,0,0,1,.3-.3.3.3,0,0,1,.3.3A.29.29,0,0,1,67.18,38.6Zm1-1.6a.68.68,0,0,1-.68.68H54.8a.69.69,0,0,1-.69-.68V29.61a.69.69,0,0,1,.69-.68H67.55a.68.68,0,0,1,.68.68Z" style="fill: url(#未命名漸層_9-13)"/>
      <path d="M14.66,17.55h-13A1.67,1.67,0,0,0,0,19.22v7.94a1.66,1.66,0,0,0,1.67,1.66H6.38v1.64H5a.4.4,0,0,0-.4.4.39.39,0,0,0,.4.39h6.43a.39.39,0,0,0,.4-.39.4.4,0,0,0-.4-.4H10V28.82h4.71a1.66,1.66,0,0,0,1.67-1.66V19.22A1.67,1.67,0,0,0,14.66,17.55Zm-.37,10.83a.31.31,0,0,1,0-.61.31.31,0,1,1,0,.61Zm1.07-1.64a.7.7,0,0,1-.7.7h-13a.7.7,0,0,1-.7-.7V19.22a.7.7,0,0,1,.7-.7h13a.7.7,0,0,1,.7.7Z" style="fill: url(#未命名漸層_9-14)"/>
      <path d="M32.67,34.57a1.53,1.53,0,0,1-3.05,0,1.53,1.53,0,1,1,3.05,0Z" style="fill: url(#未命名漸層_9-15)"/>
      <path d="M31.15,37.74a3.17,3.17,0,1,1,3.16-3.44h0a3.18,3.18,0,0,1-2.9,3.42Zm0-5.88h-.23a2.7,2.7,0,1,0,2.93,2.47h0A2.72,2.72,0,0,0,31.15,31.86Z" style="fill: url(#未命名漸層_9-16)"/>
      <path d="M50.34,33.69a.87.87,0,0,0-.85.65H31.15v.46H49.49a.87.87,0,0,0,1.72-.23A.87.87,0,0,0,50.34,33.69Z" style="fill: url(#未命名漸層_9-17)"/>
      <path d="M22.54,43.78a.87.87,0,0,0,.14-1.05l8.47-7.84-.33-.32L22.36,42.4a.88.88,0,0,0-1.06,1.38A.86.86,0,0,0,22.54,43.78Z" style="fill: url(#未命名漸層_9-18)"/>
      <path d="M35.05,21.2a.87.87,0,0,0,.32,1L30.79,34.5l.43.16L35.8,22.38a.87.87,0,0,0,.9-.56.88.88,0,0,0-.51-1.13A.89.89,0,0,0,35.05,21.2Z" style="fill: url(#未命名漸層_9-19)"/>
      <path d="M18.69,28.29a.89.89,0,0,0,1.06-.14l11.37,6.51.22-.4L20,27.75a.87.87,0,0,0-.41-1,.88.88,0,0,0-.87,1.53Z" style="fill: url(#未命名漸層_9-20)"/>
      <path d="M38.54,46.9a.88.88,0,0,0-1-.44l-6-11.89-.41.21,6,11.89a.88.88,0,1,0,1.38.23Z" style="fill: url(#未命名漸層_9-21)"/>
    </g>
  </g>
</svg>
