<svg xmlns="http://www.w3.org/2000/svg" viewBox="0 0 23.1 28.6"><defs><style>.a{fill:#ffb344;}</style></defs><title>IBO_現金入口login</title><path class="a" d="M23.1,13.7a2.5,2.5,0,0,0-1.7-2.3l-1.2-.3v-.3a32,32,0,0,0-.1-4.4c-.4-2.9-3-5.4-6.3-6.1L12.2,0H10.7A9,9,0,0,0,5.6,2.1,6.8,6.8,0,0,0,2.9,7v4.2H2.2A2.5,2.5,0,0,0,0,13.7V26a2.7,2.7,0,0,0,3,2.6H20.1a3.2,3.2,0,0,0,1.4-.2,2.5,2.5,0,0,0,1.6-2.4V13.7ZM5.8,8.3a7.1,7.1,0,0,1,.1-1.4V6.7A.9.9,0,0,1,6,6.2a.4.4,0,0,1,.1-.3c0-.1.1-.2.1-.3L6.5,5l.3-.4L7,4.4A5.9,5.9,0,0,1,8.7,3.1l.5-.2h.5l.5-.2h1.5a6.5,6.5,0,0,1,3.8,1.4,2.4,2.4,0,0,1,.9.8l.3.4.2.5c.1.1.1.3.2.4a.4.4,0,0,0,.1.3.6.6,0,0,0,.1.4h0v4.4H5.8v-.5h0V8.3ZM20.2,26.1H3.3c-.3,0-.4-.1-.4-.4v-12H20.2Z"/><path class="a" d="M10.1,21.7h0a1,1,0,0,0-.5-1.2,2.1,2.1,0,0,1-.7-2.8,3,3,0,0,1,2.9-1.4,2.8,2.8,0,0,1,2.6,1.9,2.2,2.2,0,0,1-1.2,2.5c-.2.1-.2.2-.2.4v1.3a1.3,1.3,0,0,1-1.4,1.3,1.4,1.4,0,0,1-1.5-1.3Z"/></svg>