<svg xmlns="http://www.w3.org/2000/svg" viewBox="0 0 39.4 37.6"><defs><style>.a{fill:#a5b0c7;}</style></defs><title>IBO_現金入口login</title><path class="a" d="M25.9,20H1.6A1.3,1.3,0,0,1,.3,18.8a1.3,1.3,0,0,1,1.3-1.3H25.9a1.3,1.3,0,0,1,1.3,1.3A1.3,1.3,0,0,1,25.9,20Z"/><path class="a" d="M19.2,26.7a1.4,1.4,0,0,1-.9-.3,1.3,1.3,0,0,1,0-1.8l5.8-5.9-5.8-5.8a1.3,1.3,0,0,1,0-1.8,1.5,1.5,0,0,1,1.8,0l6.7,6.8a1.1,1.1,0,0,1,0,1.7l-6.7,6.8A1.6,1.6,0,0,1,19.2,26.7Z"/><path class="a" d="M20.5,37.2A18.3,18.3,0,0,1,3.3,25.5,1.1,1.1,0,0,1,4,23.9a1.1,1.1,0,0,1,1.6.7,16,16,0,1,0,0-11.7,1.1,1.1,0,0,1-1.6.7A1.1,1.1,0,0,1,3.3,12,18.4,18.4,0,1,1,20.5,37.2Z"/></svg>