<?xml version="1.0" encoding="utf-8"?>
<!-- Generator: Adobe Illustrator 26.2.1, SVG Export Plug-In . SVG Version: 6.00 Build 0)  -->
<svg version="1.1" id="圖層_1" xmlns="http://www.w3.org/2000/svg" xmlns:xlink="http://www.w3.org/1999/xlink" x="0px" y="0px"
	 viewBox="0 0 32 32" enable-background="new 0 0 32 32" xml:space="preserve">
<g>
	<g>
		<g>
			<path fill="#FFB344" d="M14.6,20.4c-0.8-0.2-1.5-0.6-2-1.1c-0.2-0.2-0.5-0.3-0.8-0.3c-0.3,0-0.6,0.1-0.8,0.3L11,19.4
				c-0.2,0.2-0.3,0.5-0.3,0.8c0,0.3,0.1,0.6,0.3,0.8c0.9,0.9,2.3,1.6,3.7,1.8l0.1,0v1.1c0,0.6,0.5,1.1,1.1,1.1h0.1
				c0.6,0,1.1-0.5,1.1-1.1v-1.1l0.1,0c2.3-0.4,3.7-1.9,3.7-3.9c0-2.7-2-3.7-3.7-4.2l-0.1,0V11l0.2,0c0.5,0.1,1,0.3,1.3,0.5
				c0.2,0.1,0.4,0.2,0.6,0.2c0.4,0,0.7-0.2,0.9-0.5l0.1-0.1c0.2-0.3,0.2-0.6,0.1-0.8c-0.1-0.3-0.3-0.5-0.5-0.7
				c-0.7-0.4-1.6-0.7-2.6-0.9l-0.1,0V7.8c0-0.6-0.5-1.1-1.1-1.1h-0.1c-0.6,0-1.1,0.5-1.1,1.1v0.9l-0.1,0c-2.1,0.4-3.4,1.8-3.4,3.6
				c0,1.9,1.1,3.3,3.4,4l0.1,0v4L14.6,20.4z M17.2,17.1l0.2,0.1c0.9,0.4,1.2,0.8,1.2,1.6c0,0.7-0.4,1.1-1.2,1.4l-0.2,0.1L17.2,17.1
				L17.2,17.1z M14.6,13.7c-0.7-0.4-0.9-0.8-0.9-1.4c0-0.5,0.3-0.9,1-1.1l0.2-0.1v2.7L14.6,13.7z"/>
			<path fill="#FFB344" d="M31.6,6.2c-0.3-0.3-0.8-0.3-1.2-0.1l-2.2,1.2c-2.7-4.2-7.4-6.7-12.4-6.7C7.6,0.5,1,7.2,1,15.4
				C1,16.2,1.7,17,2.6,17c0.9,0,1.6-0.7,1.6-1.6C4.2,9,9.4,3.8,15.8,3.8c3.9,0,7.4,1.9,9.6,5.1L23.4,10c-0.4,0.2-0.6,0.6-0.5,1
				c0,0.4,0.3,0.8,0.7,0.9l5.5,1.6c0.1,0,0.2,0,0.3,0c0.2,0,0.3,0,0.5-0.1c0.2-0.1,0.4-0.4,0.5-0.6L32,7.3
				C32.1,6.8,31.9,6.4,31.6,6.2z"/>
			<path fill="#FFB344" d="M29.4,15c-0.9,0-1.6,0.7-1.6,1.6c0,6.4-5.2,11.6-11.6,11.6c-3.9,0-7.4-1.9-9.6-5.1L8.6,22
				c0.4-0.2,0.6-0.6,0.5-1c0-0.4-0.3-0.8-0.7-0.9l-5.5-1.6c-0.1,0-0.2,0-0.3,0c-0.2,0-0.3,0-0.5,0.1c-0.2,0.1-0.4,0.4-0.5,0.6
				L0,24.7c-0.1,0.4,0,0.8,0.3,1.1c0.3,0.3,0.8,0.3,1.2,0.1l2.2-1.2c2.7,4.2,7.4,6.7,12.4,6.7c8.2,0,14.8-6.7,14.8-14.8
				C31,15.8,30.3,15,29.4,15z"/>
		</g>
	</g>
</g>
<g>
</g>
<g>
</g>
<g>
</g>
<g>
</g>
<g>
</g>
<g>
</g>
<g>
</g>
<g>
</g>
<g>
</g>
<g>
</g>
<g>
</g>
<g>
</g>
<g>
</g>
<g>
</g>
<g>
</g>
</svg>
