<svg width="68" height="68" viewBox="0 0 68 68" fill="none" xmlns="http://www.w3.org/2000/svg">
<path d="M34 6C28.4621 6 23.0486 7.64217 18.444 10.7188C13.8395 13.7955 10.2506 18.1685 8.13139 23.2849C6.01213 28.4012 5.45764 34.0311 6.53802 39.4625C7.61841 44.894 10.2852 49.8831 14.201 53.799C18.1169 57.7148 23.106 60.3816 28.5375 61.462C33.9689 62.5424 39.5988 61.9879 44.7151 59.8686C49.8315 57.7494 54.2045 54.1605 57.2811 49.556C60.3578 44.9514 62 39.5379 62 34C62 30.323 61.2758 26.682 59.8686 23.2849C58.4615 19.8877 56.399 16.801 53.799 14.201C51.199 11.601 48.1123 9.5385 44.7151 8.13137C41.318 6.72424 37.677 6 34 6ZM42.4 36.8H36.8V42.4C36.8 43.1426 36.505 43.8548 35.9799 44.3799C35.4548 44.905 34.7426 45.2 34 45.2C33.2574 45.2 32.5452 44.905 32.0201 44.3799C31.495 43.8548 31.2 43.1426 31.2 42.4V36.8H25.6C24.8574 36.8 24.1452 36.505 23.6201 35.9799C23.095 35.4548 22.8 34.7426 22.8 34C22.8 33.2574 23.095 32.5452 23.6201 32.0201C24.1452 31.495 24.8574 31.2 25.6 31.2H31.2V25.6C31.2 24.8574 31.495 24.1452 32.0201 23.6201C32.5452 23.095 33.2574 22.8 34 22.8C34.7426 22.8 35.4548 23.095 35.9799 23.6201C36.505 24.1452 36.8 24.8574 36.8 25.6V31.2H42.4C43.1426 31.2 43.8548 31.495 44.3799 32.0201C44.905 32.5452 45.2 33.2574 45.2 34C45.2 34.7426 44.905 35.4548 44.3799 35.9799C43.8548 36.505 43.1426 36.8 42.4 36.8Z" fill="#FDAAA2"/>
</svg>
