<svg width="7" height="7" viewBox="0 0 7 7" fill="none" xmlns="http://www.w3.org/2000/svg">
<path d="M4.43901 3.49951L6.59051 1.35301C6.68473 1.25879 6.73766 1.131 6.73766 0.997758C6.73766 0.864514 6.68473 0.736728 6.59051 0.64251C6.49629 0.548292 6.36851 0.495361 6.23526 0.495361C6.10202 0.495361 5.97423 0.548292 5.88002 0.64251L3.73352 2.79401L1.58702 0.64251C1.4928 0.548292 1.36501 0.495361 1.23177 0.495361C1.09852 0.495361 0.970736 0.548292 0.876518 0.64251C0.782301 0.736728 0.72937 0.864514 0.72937 0.997758C0.72937 1.131 0.782301 1.25879 0.876518 1.35301L3.02802 3.49951L0.876518 5.64601C0.829621 5.69252 0.792398 5.74786 0.766996 5.80883C0.741594 5.8698 0.728516 5.9352 0.728516 6.00126C0.728516 6.06731 0.741594 6.13271 0.766996 6.19368C0.792398 6.25465 0.829621 6.30999 0.876518 6.3565C0.923032 6.4034 0.978371 6.44062 1.03934 6.46603C1.10032 6.49143 1.16571 6.50451 1.23177 6.50451C1.29782 6.50451 1.36322 6.49143 1.42419 6.46603C1.48516 6.44062 1.5405 6.4034 1.58702 6.3565L3.73352 4.205L5.88002 6.3565C5.92653 6.4034 5.98187 6.44062 6.04284 6.46603C6.10381 6.49143 6.16921 6.50451 6.23526 6.50451C6.30132 6.50451 6.36672 6.49143 6.42769 6.46603C6.48866 6.44062 6.544 6.4034 6.59051 6.3565C6.63741 6.30999 6.67463 6.25465 6.70004 6.19368C6.72544 6.13271 6.73852 6.06731 6.73852 6.00126C6.73852 5.9352 6.72544 5.8698 6.70004 5.80883C6.67463 5.74786 6.63741 5.69252 6.59051 5.64601L4.43901 3.49951Z" fill="#262626"/>
</svg>
