<svg width="32" height="32" viewBox="0 0 32 32" fill="none" xmlns="http://www.w3.org/2000/svg">
<path d="M15.8447 25.531C15.7 25.5318 15.5565 25.5041 15.4225 25.4493C15.2885 25.3946 15.1666 25.3139 15.0638 25.212L6.51797 16.6552C5.44601 15.572 4.84473 14.1096 4.84473 12.5857C4.84473 11.0618 5.44601 9.5994 6.51797 8.51624C7.59832 7.43895 9.06175 6.83398 10.5874 6.83398C12.1131 6.83398 13.5765 7.43895 14.6569 8.51624L15.8447 9.70408L17.0326 8.51624C18.1129 7.43895 19.5763 6.83398 21.102 6.83398C22.6277 6.83398 24.0911 7.43895 25.1715 8.51624C26.2434 9.5994 26.8447 11.0618 26.8447 12.5857C26.8447 14.1096 26.2434 15.572 25.1715 16.6552L16.6256 25.212C16.5229 25.3139 16.401 25.3946 16.267 25.4493C16.133 25.5041 15.9895 25.5318 15.8447 25.531Z" fill="#FDAAA2"/>
</svg>
