<svg width="25" height="25" viewBox="0 0 25 25" fill="none" xmlns="http://www.w3.org/2000/svg">
<path d="M14.0568 12.1817L19.0722 7.17798C19.2918 6.95835 19.4152 6.66046 19.4152 6.34986C19.4152 6.03925 19.2918 5.74136 19.0722 5.52173C18.8526 5.3021 18.5547 5.17871 18.2441 5.17871C17.9335 5.17871 17.6356 5.3021 17.416 5.52173L12.4122 10.5371L7.40849 5.52173C7.18885 5.3021 6.89097 5.17871 6.58036 5.17871C6.26976 5.17871 5.97187 5.3021 5.75224 5.52173C5.53261 5.74136 5.40922 6.03925 5.40922 6.34986C5.40922 6.66046 5.53261 6.95835 5.75224 7.17798L10.7676 12.1817L5.75224 17.1855C5.64292 17.2939 5.55614 17.4229 5.49693 17.565C5.43771 17.7072 5.40723 17.8596 5.40723 18.0136C5.40723 18.1676 5.43771 18.32 5.49693 18.4621C5.55614 18.6043 5.64292 18.7333 5.75224 18.8417C5.86067 18.951 5.98967 19.0378 6.1318 19.097C6.27394 19.1562 6.42639 19.1867 6.58036 19.1867C6.73434 19.1867 6.88679 19.1562 7.02892 19.097C7.17106 19.0378 7.30006 18.951 7.40849 18.8417L12.4122 13.8263L17.416 18.8417C17.5244 18.951 17.6534 19.0378 17.7955 19.097C17.9377 19.1562 18.0901 19.1867 18.2441 19.1867C18.3981 19.1867 18.5505 19.1562 18.6927 19.097C18.8348 19.0378 18.9638 18.951 19.0722 18.8417C19.1815 18.7333 19.2683 18.6043 19.3275 18.4621C19.3867 18.32 19.4172 18.1676 19.4172 18.0136C19.4172 17.8596 19.3867 17.7072 19.3275 17.565C19.2683 17.4229 19.1815 17.2939 19.0722 17.1855L14.0568 12.1817Z" fill="#262626"/>
</svg>
