<?xml version="1.0" encoding="utf-8"?>
<!-- Generator: Adobe Illustrator 22.1.0, SVG Export Plug-In . SVG Version: 6.00 Build 0)  -->
<svg version="1.1" id="圖層_1" xmlns="http://www.w3.org/2000/svg" xmlns:xlink="http://www.w3.org/1999/xlink" x="0px" y="0px"
	 width="22px" height="22px" viewBox="0 0 22 22" style="enable-background:new 0 0 22 22;" xml:space="preserve">
<style type="text/css">
	.st0{fill:#FFFFFF;}
</style>
<g>
	<path class="st0" d="M19.1,17.5L15.6,14c-0.4-0.4-1.2-0.4-1.6,0c-0.4,0.4-0.4,1.2,0,1.6l3.5,3.5c-0.8,0.8-1.6,1.6-2.2,2.2
		C15,21.6,15.2,22,15.6,22c2,0,4,0,5.9,0.1c0.2,0,0.4-0.2,0.4-0.4v-6c0-0.4-0.4-0.5-0.7-0.3C20.8,15.8,20,16.6,19.1,17.5z"/>
	<path class="st0" d="M2.9,17.5L6.4,14c0.4-0.4,1.2-0.4,1.6,0s0.4,1.2,0,1.6l-3.5,3.5c0.8,0.8,1.6,1.6,2.2,2.2C7,21.6,6.8,22,6.4,22
		c-2,0-4,0-5.9,0.1C0.2,22,0,21.8,0,21.6v-6c0-0.4,0.4-0.5,0.7-0.3C1.2,15.8,2,16.6,2.9,17.5z"/>
	<path class="st0" d="M2.9,4.5L6.4,8C6.8,8.4,7.5,8.4,8,8c0.4-0.4,0.4-1.2,0-1.6L4.5,2.9c0.8-0.8,1.6-1.6,2.2-2.2C7,0.4,6.8,0,6.4,0
		c-2,0-4,0-5.9-0.1C0.2,0,0,0.2,0,0.4v6C0,6.8,0.4,7,0.7,6.7C1.2,6.2,2,5.4,2.9,4.5z"/>
	<path class="st0" d="M19.1,4.5L15.6,8c-0.4,0.4-1.2,0.4-1.6,0c-0.4-0.4-0.4-1.2,0-1.6l3.5-3.5c-0.8-0.8-1.6-1.6-2.2-2.2
		C15,0.4,15.2,0,15.6,0c2,0,4,0,5.9-0.1C21.8,0,22,0.2,22,0.4v6c0,0.4-0.4,0.5-0.7,0.3C20.8,6.2,20,5.4,19.1,4.5z"/>
</g>
</svg>
