<svg id="bold" xmlns="http://www.w3.org/2000/svg" viewBox="0 0 512 512"><defs><style>.cls-1{fill:#fff;}</style></defs><path class="cls-1" d="M256,341.33a16,16,0,0,1-11.56-4.95l-112-117.33C122.73,208.9,129.94,192,144,192h58.67V69.33a26.69,26.69,0,0,1,26.66-26.66h53.34a26.69,26.69,0,0,1,26.66,26.66V192H368c14.06,0,21.27,16.9,11.56,27.05l-112,117.33A16,16,0,0,1,256,341.33Z"/><path class="cls-1" d="M474.67,469.33H37.33A37.37,37.37,0,0,1,0,432V421.33A37.38,37.38,0,0,1,37.33,384H474.67A37.38,37.38,0,0,1,512,421.33V432A37.37,37.37,0,0,1,474.67,469.33Z"/></svg>