<svg id="圖層_1" data-name="圖層 1" xmlns="http://www.w3.org/2000/svg" viewBox="0 0 19 19"><defs><style>.cls-1{fill:blue;}.cls-2{isolation:isolate;}.cls-3{fill:#fff;}</style></defs><title>play</title><circle class="cls-1" cx="9.5" cy="9.5" r="9.5"/><g class="cls-2"><path class="cls-3" d="M8.6,4.2a.27.27,0,0,1,.3.3V7.7a.27.27,0,0,1-.3.3H5.3v7h-1V4.5a.27.27,0,0,1,.3-.3ZM5.3,5.7H7.9V5.3c0-.2,0-.3-.2-.3H5.6a.27.27,0,0,0-.3.3Zm2.6.8H5.3v.7H7.6c.2,0,.3-.1.3-.2Zm-.2,6.2a6.63,6.63,0,0,1-.9,1.9l-1-.4a5.94,5.94,0,0,0,1-2.9V8.8a.27.27,0,0,1,.3-.3h4.5a.27.27,0,0,1,.3.3v4.5c0,1-.6,1.2-1.5,1.2a2.77,2.77,0,0,1-.9-.1l-.1-1.1a5,5,0,0,0,1.2.2c.3,0,.4-.2.4-.5v-.4H7.7Zm.2-2.5H11V9.5c0-.1,0-.1-.1-.1H8c-.1,0-.1,0-.1.1Zm0,1.6H11v-.7H7.9ZM13.6,8H10.3a.27.27,0,0,1-.3-.3V4.5a.27.27,0,0,1,.3-.3h3.9a.27.27,0,0,1,.3.3v9.4c0,.5-.3,1.1-1.3,1.1a2.34,2.34,0,0,1-1.1-.2l.1-1.1a2.4,2.4,0,0,0,1,.2c.3,0,.3-.4.3-.4V8ZM11,5.7h2.6c0-.5,0-.6-.3-.6H11.2c-.1-.1-.2,0-.2.2Zm2.6.8H11v.4a.27.27,0,0,0,.3.3h2.3Z" transform="translate(0 0)"/></g></svg>