<?xml version="1.0" encoding="utf-8"?>
<!-- Generator: Adobe Illustrator 25.2.3, SVG Export Plug-In . SVG Version: 6.00 Build 0)  -->
<svg version="1.1" id="圖層_1" xmlns="http://www.w3.org/2000/svg" xmlns:xlink="http://www.w3.org/1999/xlink" x="0px" y="0px"
	 viewBox="0 0 22.88 22.88" style="enable-background:new 0 0 22.88 22.88;" xml:space="preserve">
<style type="text/css">
	.st0{fill:#FFFFFF;}
</style>
<path class="st0" d="M11.44,0C5.12,0,0,5.12,0,11.44c0,6.32,5.12,11.44,11.44,11.44c6.32,0,11.44-5.12,11.44-11.44
	C22.88,5.12,17.76,0,11.44,0z M17.87,8.51l-7.28,7.28c-0.19,0.19-0.44,0.29-0.71,0.29s-0.52-0.11-0.71-0.29l-4.16-4.16
	c-0.39-0.39-0.39-1.02,0-1.41s1.02-0.39,1.41,0l3.45,3.45l6.57-6.57c0.39-0.39,1.02-0.39,1.41,0S18.26,8.12,17.87,8.51z"/>
</svg>
