<?xml version="1.0" encoding="utf-8"?>
<!-- Generator: Adobe Illustrator 25.4.1, SVG Export Plug-In . SVG Version: 6.00 Build 0)  -->
<svg version="1.1" xmlns="http://www.w3.org/2000/svg" xmlns:xlink="http://www.w3.org/1999/xlink" x="0px" y="0px"
	 viewBox="0 0 70 70" style="enable-background:new 0 0 70 70;" xml:space="preserve">
<style type="text/css">
	.st0{fill:url(#SVGID_1_);}
	.st1{fill:none;stroke:#7FFFFF;stroke-width:1.035;stroke-linecap:round;stroke-miterlimit:10;}
	.st2{fill:#7FFFFF;}
	.st3{fill:url(#SVGID_00000058590339604491684000000016097191619976912792_);}
	.st4{display:none;}
	.st5{display:inline;}
	.st6{fill:url(#SVGID_00000147942236927688404780000011369091853906154639_);}
	.st7{fill:none;stroke:#F2BD79;stroke-width:1.035;stroke-linecap:round;stroke-miterlimit:10;}
	.st8{fill:#F2BD79;}
	.st9{fill:url(#SVGID_00000007396449363098436880000014691137350577639348_);}
</style>
<g id="圖層_1">
	<g>
		<g>
			<g>
				<linearGradient id="SVGID_1_" gradientUnits="userSpaceOnUse" x1="35" y1="14.125" x2="35" y2="55.875">
					<stop  offset="0" style="stop-color:#00BAFF"/>
					<stop  offset="0.291" style="stop-color:#0688C4;stop-opacity:0.709"/>
					<stop  offset="1" style="stop-color:#141136;stop-opacity:0"/>
				</linearGradient>
				<path class="st0" d="M35,14.1c0,0-5.9,6-15.8,6c0,0,0,17.6,0,20.1c0,4.2,2.8,8.6,15.9,15.6c12.4-6.6,15.8-11.4,15.8-15.6
					c0-3.2,0-20.1,0-20.1C40.9,20.2,35,14.1,35,14.1z"/>
			</g>
			<path class="st1" d="M35,14.1c0,0-5.9,6-15.8,6c0,0,0,17.6,0,20.1c0,4.2,2.8,8.6,15.9,15.6c12.4-6.6,15.8-11.4,15.8-15.6
				c0-3.2,0-20.1,0-20.1C40.9,20.2,35,14.1,35,14.1z"/>
			<path class="st2" d="M36.5,34l0.1,7.6h-3.3l0.1-7.6c-1-0.6-1.7-1.7-1.5-3c0.2-1.4,1.3-2.5,2.7-2.7c1.8-0.2,3.4,1.2,3.4,3
				C38,32.5,37.4,33.5,36.5,34z"/>
		</g>
		
			<radialGradient id="SVGID_00000029047987871321789540000002224965983403072177_" cx="35" cy="35" r="35" gradientUnits="userSpaceOnUse">
			<stop  offset="0" style="stop-color:#141136;stop-opacity:0"/>
			<stop  offset="0.3911" style="stop-color:#131238;stop-opacity:0.3911"/>
			<stop  offset="0.5319" style="stop-color:#13183F;stop-opacity:0.5319"/>
			<stop  offset="0.6324" style="stop-color:#12224B;stop-opacity:0.6324"/>
			<stop  offset="0.7137" style="stop-color:#10305C;stop-opacity:0.7137"/>
			<stop  offset="0.7833" style="stop-color:#0E4372;stop-opacity:0.7833"/>
			<stop  offset="0.8448" style="stop-color:#0B5A8D;stop-opacity:0.8448"/>
			<stop  offset="0.9006" style="stop-color:#0875AE;stop-opacity:0.9006"/>
			<stop  offset="0.9504" style="stop-color:#0494D2;stop-opacity:0.9504"/>
			<stop  offset="0.996" style="stop-color:#00B7FB;stop-opacity:0.996"/>
			<stop  offset="1" style="stop-color:#00BAFF"/>
		</radialGradient>
		<circle style="fill:url(#SVGID_00000029047987871321789540000002224965983403072177_);" cx="35" cy="35" r="35"/>
	</g>
</g>
<g id="圖層_2" class="st4">
	<g class="st5">
		<g>
			<g>
				
					<linearGradient id="SVGID_00000133508511029888212740000009578348887141908128_" gradientUnits="userSpaceOnUse" x1="35" y1="14.125" x2="35" y2="55.875">
					<stop  offset="0" style="stop-color:#F2BD79"/>
					<stop  offset="1" style="stop-color:#000000;stop-opacity:0"/>
				</linearGradient>
				<path style="fill:url(#SVGID_00000133508511029888212740000009578348887141908128_);" d="M35,14.1c0,0-5.9,6-15.8,6
					c0,0,0,17.6,0,20.1c0,4.2,2.8,8.6,15.9,15.6c12.4-6.6,15.8-11.4,15.8-15.6c0-3.2,0-20.1,0-20.1C40.9,20.2,35,14.1,35,14.1z"/>
			</g>
			<path class="st7" d="M35,14.1c0,0-5.9,6-15.8,6c0,0,0,17.6,0,20.1c0,4.2,2.8,8.6,15.9,15.6c12.4-6.6,15.8-11.4,15.8-15.6
				c0-3.2,0-20.1,0-20.1C40.9,20.2,35,14.1,35,14.1z"/>
			<path class="st8" d="M36.5,34l0.1,7.6h-3.3l0.1-7.6c-1-0.6-1.7-1.7-1.5-3c0.2-1.4,1.3-2.5,2.7-2.7c1.8-0.2,3.4,1.2,3.4,3
				C38,32.5,37.4,33.5,36.5,34z"/>
		</g>
		
			<radialGradient id="SVGID_00000049193479229687957490000000896688107437616551_" cx="35" cy="35" r="35" gradientUnits="userSpaceOnUse">
			<stop  offset="0" style="stop-color:#000000;stop-opacity:0"/>
			<stop  offset="0.3766" style="stop-color:#020101;stop-opacity:0.3766"/>
			<stop  offset="0.5122" style="stop-color:#090704;stop-opacity:0.5122"/>
			<stop  offset="0.6089" style="stop-color:#14100A;stop-opacity:0.6089"/>
			<stop  offset="0.6872" style="stop-color:#251D13;stop-opacity:0.6872"/>
			<stop  offset="0.7542" style="stop-color:#3B2E1E;stop-opacity:0.7542"/>
			<stop  offset="0.8135" style="stop-color:#57442B;stop-opacity:0.8135"/>
			<stop  offset="0.8672" style="stop-color:#775D3C;stop-opacity:0.8672"/>
			<stop  offset="0.9165" style="stop-color:#9D7A4E;stop-opacity:0.9165"/>
			<stop  offset="0.9604" style="stop-color:#C69B63;stop-opacity:0.9604"/>
			<stop  offset="1" style="stop-color:#F2BD79"/>
		</radialGradient>
		<circle style="fill:url(#SVGID_00000049193479229687957490000000896688107437616551_);" cx="35" cy="35" r="35"/>
	</g>
</g>
</svg>
