<?xml version="1.0" encoding="utf-8"?>
<!-- Generator: Adobe Illustrator 23.0.3, SVG Export Plug-In . SVG Version: 6.00 Build 0)  -->
<svg version="1.1" id="圖層_1" xmlns="http://www.w3.org/2000/svg" xmlns:xlink="http://www.w3.org/1999/xlink" x="0px" y="0px"
	 width="24.4px" height="17.2px" viewBox="0 0 24.4 17.2" style="enable-background:new 0 0 24.4 17.2;" xml:space="preserve">
<style type="text/css">
	.st0{fill:url(#SVGID_1_);}
	.st1{fill:#FFFFFF;}
	.st2{fill-rule:evenodd;clip-rule:evenodd;fill:#FFFFFF;}
	.st3{fill-rule:evenodd;clip-rule:evenodd;fill:url(#SVGID_2_);}
	.st4{fill-rule:evenodd;clip-rule:evenodd;fill:url(#SVGID_3_);}
	.st5{fill:none;stroke:#FFFFFF;stroke-width:1.4286;}
	.st6{fill:none;stroke:#FFFFFF;stroke-width:1.2;stroke-miterlimit:10;}
	.st7{fill:#BCBCBC;stroke:#FFFFFF;stroke-width:1.2;stroke-linecap:round;stroke-linejoin:round;stroke-miterlimit:10;}
	.st8{fill:none;stroke:#FFFFFF;stroke-width:1.2;stroke-linecap:round;stroke-linejoin:round;stroke-miterlimit:10;}
	.st9{fill:url(#SVGID_4_);}
	.st10{fill:url(#SVGID_5_);}
	.st11{fill:url(#SVGID_6_);}
	.st12{fill:url(#SVGID_7_);}
	.st13{fill:url(#SVGID_8_);}
	.st14{fill:url(#SVGID_9_);}
	.st15{fill:url(#SVGID_10_);}
	.st16{fill:url(#SVGID_11_);}
	.st17{fill:url(#SVGID_12_);stroke:url(#SVGID_13_);stroke-width:0.9455;stroke-miterlimit:10;}
	.st18{fill:url(#SVGID_14_);}
	.st19{fill:url(#SVGID_15_);}
	.st20{fill:url(#SVGID_16_);}
	.st21{fill:url(#SVGID_17_);}
	.st22{fill:#808080;}
	.st23{fill:#0F1418;}
	.st24{fill:url(#SVGID_18_);}
	.st25{fill-rule:evenodd;clip-rule:evenodd;}
	.st26{fill-rule:evenodd;clip-rule:evenodd;fill:url(#SVGID_19_);}
	.st27{fill-rule:evenodd;clip-rule:evenodd;fill:url(#SVGID_20_);}
	.st28{fill:none;stroke:#000000;stroke-width:1.4286;}
	.st29{fill:url(#SVGID_21_);}
	.st30{fill:url(#SVGID_22_);}
	.st31{fill:url(#SVGID_23_);}
	.st32{fill:url(#SVGID_24_);}
	.st33{fill:url(#SVGID_25_);}
	.st34{fill:url(#SVGID_26_);}
	.st35{fill:url(#SVGID_27_);}
	.st36{fill:url(#SVGID_28_);}
	.st37{fill:url(#SVGID_29_);}
	.st38{fill:url(#SVGID_30_);}
	.st39{fill:url(#SVGID_31_);}
	.st40{fill:url(#SVGID_32_);}
	.st41{fill:url(#SVGID_33_);}
</style>
<path d="M16.5,0.6c-0.2,0-0.4,0.1-0.5,0.3L16,1l-5.7,12.9C10.1,14.3,10,14.6,10,15c0,1.2,1,2.2,2.2,2.2c1.1,0,2-0.8,2.2-1.8l0,0
	l2.7-14.3C17.1,0.8,16.8,0.6,16.5,0.6L16.5,0.6z M0,5l2.2,2.2c3.2-3.2,7.5-4.5,11.7-4l1.3-3C9.9-0.7,4.1,0.9,0,5z M22.2,7.3L24.4,5
	c-1.8-1.8-3.9-3.1-6.2-4l-0.6,3.1C19.3,4.9,20.8,5.9,22.2,7.3z M17.7,11.7L20,9.5c-0.9-0.9-1.9-1.6-3-2.1l-0.6,3.2
	C16.9,10.9,17.3,11.3,17.7,11.7z M4.4,9.5l2.2,2.2c1.2-1.2,2.8-2,4.5-2.2l1.4-3.2C9.6,6.2,6.7,7.2,4.4,9.5L4.4,9.5z"/>
</svg>
