<?xml version="1.0" encoding="utf-8"?>
<!-- Generator: Adobe Illustrator 23.0.3, SVG Export Plug-In . SVG Version: 6.00 Build 0)  -->
<svg version="1.1" id="圖層_1" xmlns="http://www.w3.org/2000/svg" xmlns:xlink="http://www.w3.org/1999/xlink" x="0px" y="0px"
	 width="16.7px" height="16.7px" viewBox="0 0 16.7 16.7" style="enable-background:new 0 0 16.7 16.7;" xml:space="preserve">
<style type="text/css">
	.st0{fill:url(#SVGID_1_);}
	.st1{fill:url(#SVGID_2_);}
	.st2{fill:url(#SVGID_3_);}
	.st3{fill:url(#SVGID_4_);}
	.st4{fill:url(#SVGID_5_);}
	.st5{fill:url(#SVGID_6_);}
	.st6{fill:#FFFFFF;}
	.st7{fill:url(#SVGID_7_);}
	.st8{clip-path:url(#SVGID_9_);fill:url(#SVGID_10_);}
	.st9{clip-path:url(#SVGID_9_);fill:url(#SVGID_11_);}
	.st10{clip-path:url(#SVGID_9_);fill:url(#SVGID_12_);}
	.st11{clip-path:url(#SVGID_9_);fill:url(#SVGID_13_);}
	.st12{clip-path:url(#SVGID_15_);fill:url(#SVGID_16_);}
	.st13{clip-path:url(#SVGID_15_);fill:url(#SVGID_17_);}
	.st14{clip-path:url(#SVGID_15_);fill:url(#SVGID_18_);}
	.st15{clip-path:url(#SVGID_15_);fill:url(#SVGID_19_);}
	.st16{clip-path:url(#SVGID_15_);fill:url(#SVGID_20_);}
	.st17{clip-path:url(#SVGID_22_);fill:url(#SVGID_23_);}
	.st18{clip-path:url(#SVGID_22_);fill:url(#SVGID_24_);}
	.st19{clip-path:url(#SVGID_22_);}
	.st20{fill:url(#SVGID_25_);}
	.st21{fill:url(#SVGID_26_);}
	.st22{clip-path:url(#SVGID_22_);fill:url(#SVGID_27_);}
	.st23{clip-path:url(#SVGID_22_);fill:url(#SVGID_28_);}
</style>
<g>
	<g>
		<radialGradient id="SVGID_1_" cx="8.3333" cy="8.3333" r="7.5" gradientUnits="userSpaceOnUse">
			<stop  offset="0" style="stop-color:#001940"/>
			<stop  offset="0.2662" style="stop-color:#001B43"/>
			<stop  offset="0.4873" style="stop-color:#00224E"/>
			<stop  offset="0.6921" style="stop-color:#002D5F"/>
			<stop  offset="0.8861" style="stop-color:#003C77"/>
			<stop  offset="1" style="stop-color:#004889"/>
		</radialGradient>
		<circle class="st0" cx="8.3" cy="8.3" r="7.5"/>
		<linearGradient id="SVGID_2_" gradientUnits="userSpaceOnUse" x1="0" y1="8.3333" x2="16.6666" y2="8.3333">
			<stop  offset="0.4071" style="stop-color:#FFFFAD"/>
			<stop  offset="0.5336" style="stop-color:#F2E89B"/>
			<stop  offset="0.7272" style="stop-color:#E0CA83"/>
			<stop  offset="0.837" style="stop-color:#DABF7A"/>
			<stop  offset="0.8832" style="stop-color:#D8BC78"/>
			<stop  offset="0.9216" style="stop-color:#D2B174"/>
			<stop  offset="0.9571" style="stop-color:#C8A06B"/>
			<stop  offset="0.9908" style="stop-color:#BB8860"/>
			<stop  offset="1" style="stop-color:#B6805C"/>
		</linearGradient>
		<path class="st1" d="M8.3,0.8c4.1,0,7.5,3.4,7.5,7.5c0,4.1-3.4,7.5-7.5,7.5c-4.1,0-7.5-3.4-7.5-7.5C0.8,4.2,4.2,0.8,8.3,0.8
			 M8.3,0C3.7,0,0,3.7,0,8.3c0,4.6,3.7,8.3,8.3,8.3c4.6,0,8.3-3.7,8.3-8.3C16.7,3.7,12.9,0,8.3,0L8.3,0z"/>
	</g>
	<g>
		<linearGradient id="SVGID_3_" gradientUnits="userSpaceOnUse" x1="4.0998" y1="8.9451" x2="12.0863" y2="8.9451">
			<stop  offset="0" style="stop-color:#AE7515"/>
			<stop  offset="3.048043e-02" style="stop-color:#B98727"/>
			<stop  offset="9.508213e-02" style="stop-color:#CEA846"/>
			<stop  offset="0.1616" style="stop-color:#DEC25F"/>
			<stop  offset="0.23" style="stop-color:#EAD471"/>
			<stop  offset="0.3014" style="stop-color:#F1DF7C"/>
			<stop  offset="0.3807" style="stop-color:#F3E37F"/>
			<stop  offset="0.4768" style="stop-color:#EEDB77"/>
			<stop  offset="0.6246" style="stop-color:#E1C663"/>
			<stop  offset="0.8055" style="stop-color:#CBA341"/>
			<stop  offset="1" style="stop-color:#AE7515"/>
		</linearGradient>
		<polygon class="st2" points="7.2,3.7 12.1,3.7 9.6,8 12.1,8 7.2,14.2 8.4,9.9 4.1,9.9 		"/>
		<linearGradient id="SVGID_4_" gradientUnits="userSpaceOnUse" x1="3.6799" y1="8.9451" x2="12.5088" y2="8.9451">
			<stop  offset="0" style="stop-color:#0071B9"/>
			<stop  offset="0.1616" style="stop-color:#006FB5"/>
			<stop  offset="0.3094" style="stop-color:#0068AA"/>
			<stop  offset="0.4519" style="stop-color:#005D98"/>
			<stop  offset="0.591" style="stop-color:#004D7E"/>
			<stop  offset="0.7277" style="stop-color:#00385C"/>
			<stop  offset="0.8626" style="stop-color:#001F33"/>
			<stop  offset="0.9938" style="stop-color:#000202"/>
			<stop  offset="1" style="stop-color:#000000"/>
		</linearGradient>
		<path class="st3" d="M12.1,3.7L9.6,8h2.5l-4.9,6.1l1.2-4.3H4.1l3.1-6.1H12.1 M12.1,8L12.1,8 M12.1,3.3H7.2C7,3.3,6.9,3.4,6.8,3.5
			L3.7,9.7c-0.1,0.1-0.1,0.3,0,0.4c0.1,0.1,0.2,0.2,0.4,0.2h3.7l-1.1,3.8c-0.1,0.2,0,0.4,0.2,0.5c0.1,0,0.1,0,0.2,0
			c0.1,0,0.2-0.1,0.3-0.2l4.9-6.1c0.1-0.1,0.1-0.2,0.1-0.3c0-0.2-0.2-0.4-0.4-0.4h0h-1.7l2.1-3.7c0.1-0.1,0.1-0.3,0-0.4
			C12.4,3.4,12.2,3.3,12.1,3.3L12.1,3.3z M12.1,4.1L12.1,4.1L12.1,4.1L12.1,4.1z"/>
	</g>
</g>
</svg>
