<?xml version="1.0" encoding="utf-8"?>
<!-- Generator: Adobe Illustrator 25.2.3, SVG Export Plug-In . SVG Version: 6.00 Build 0)  -->
<svg version="1.1" id="圖層_1" xmlns="http://www.w3.org/2000/svg" xmlns:xlink="http://www.w3.org/1999/xlink" x="0px" y="0px"
	 viewBox="0 0 17.6 17.6" enable-background="new 0 0 17.6 17.6" xml:space="preserve">
<g>
	<linearGradient id="SVGID_1_" gradientUnits="userSpaceOnUse" x1="8.7797" y1="13.921" x2="8.7797" y2="3.6395">
		<stop  offset="0" style="stop-color:#563D29"/>
		<stop  offset="1" style="stop-color:#F2BD79"/>
	</linearGradient>
	<path fill="url(#SVGID_1_)" d="M8.9,13.9c0.4,0,0.9-0.4,0.9-0.9v-0.7c1-0.1,1.9-0.9,1.9-1.9C11.5,8.9,10.2,8.3,8.9,8
		C7.7,7.7,7.3,7.3,7.3,6.8c0-0.6,0.6-1,1.4-1c0.7,0,1.2,0.3,1.3,0.7C10,6.8,10.3,7,10.4,7h0.1C11,7,11.2,6.7,11,6.2
		c-0.3-0.6-0.7-1.2-1.6-1.4V4.5c0.1-0.6-0.3-0.9-0.7-0.9c-0.4,0-0.9,0.3-0.9,0.9v0.4C6.8,5.2,6,5.8,6,7c0,1.3,1,1.9,2.6,2.3
		c1.3,0.3,1.6,0.9,1.6,1.3c0,0.4-0.3,1-1.4,1c-0.9,0-1.3-0.3-1.6-0.7c-0.1-0.1-0.3-0.4-0.4-0.4H6.5c-0.4,0-0.6,0.4-0.4,0.7
		c0.3,0.7,1,1.2,1.9,1.4v0.4C8,13.5,8.4,13.9,8.9,13.9z"/>
	<linearGradient id="SVGID_2_" gradientUnits="userSpaceOnUse" x1="0" y1="8.78" x2="17.56" y2="8.78">
		<stop  offset="0" style="stop-color:#563D29"/>
		<stop  offset="1" style="stop-color:#F2BD79"/>
	</linearGradient>
	<path fill="url(#SVGID_2_)" d="M8.8,17.6C3.9,17.6,0,13.6,0,8.8S3.9,0,8.8,0c4.8,0,8.8,3.9,8.8,8.8S13.6,17.6,8.8,17.6z M8.8,1.4
		c-4,0-7.3,3.3-7.3,7.3s3.3,7.3,7.3,7.3c4,0,7.3-3.3,7.3-7.3S12.8,1.4,8.8,1.4z"/>
</g>
</svg>
