<?xml version="1.0" encoding="utf-8"?>
<!-- Generator: Adobe Illustrator 22.1.0, SVG Export Plug-In . SVG Version: 6.00 Build 0)  -->
<svg version="1.1" id="圖層_1" xmlns="http://www.w3.org/2000/svg" xmlns:xlink="http://www.w3.org/1999/xlink" x="0px" y="0px"
	 width="14px" height="14px" viewBox="0 0 14 14" style="enable-background:new 0 0 14 14;" xml:space="preserve">
<style type="text/css">
	.st0{fill:#FFFFFF;enable-background:new    ;}
</style>
<path class="st0" d="M8.7,7l5-5c0.5-0.5,0.5-1.2,0-1.6c-0.5-0.5-1.2-0.5-1.7,0l-5,5l-5-5c-0.5-0.5-1.2-0.5-1.6,0
	C0.1,0.6,0,0.9,0,1.2S0.1,1.8,0.3,2l5,5l-5,5C0.1,12.2,0,12.5,0,12.8C0,13.5,0.5,14,1.2,14l0,0c0.3,0,0.6-0.1,0.8-0.3l5-5l5,5
	c0.5,0.5,1.2,0.5,1.7,0s0.5-1.2,0-1.6L8.7,7z"/>
</svg>
