<svg width="22.1" height="23" xmlns="http://www.w3.org/2000/svg">

 <g>
  <title>background</title>
  <rect fill="none" id="canvas_background" height="402" width="582" y="-1" x="-1"/>
 </g>
 <g>
  <title>Layer 1</title>
  <path fill="#000000" id="svg_1" d="m11.1,19.6c-4.3,0 -7.7,-3.5 -7.7,-7.7s3.5,-7.7 7.7,-7.7s7.7,3.5 7.7,7.7c0,4.2 -3.5,7.7 -7.7,7.7zm-2,-4.6c0.3,2.4 1,3.6 2,3.6s1.7,-1.3 2,-3.6c-0.1,0 -4,0 -4,0zm-4,0c0.8,1.6 2.3,2.8 4,3.3c-0.5,-0.8 -0.8,-1.9 -1,-3.3l-3,0zm8.9,0c-0.2,1.5 -0.5,2.6 -0.9,3.3c1.7,-0.5 3.2,-1.8 4,-3.3l-3.1,0zm0.1,-1l3.4,0c0.2,-0.7 0.4,-1.4 0.4,-2.2s-0.1,-1.5 -0.4,-2.1l-3.4,0c0.1,0.7 0.1,1.4 0.1,2.1c0,0.8 0,1.6 -0.1,2.2zm-5.1,0l4.1,0c0.1,-0.6 0.1,-1.4 0.1,-2.2c0,-0.8 0,-1.5 -0.1,-2.1l-4.1,0c-0.1,0.6 -0.1,1.4 -0.1,2.1c0,0.9 0,1.6 0.1,2.2zm-4.3,0l3.3,0c0,-0.6 0,-1.4 0,-2.1s0,-1.5 0,-2.2l-3.3,0c-0.2,0.7 -0.3,1.4 -0.3,2.1s0,1.6 0.3,2.2zm9.3,-5.2l3,0c-0.8,-1.6 -2.3,-2.8 -4,-3.3c0.5,0.7 0.8,1.8 1,3.3zm-4.9,0l3.9,0c-0.3,-2.3 -1,-3.6 -2,-3.6s-1.6,1.2 -1.9,3.6zm-4,0l3,0c0.2,-1.5 0.5,-2.6 0.9,-3.3c-1.7,0.5 -3.1,1.7 -3.9,3.3z" class="st0"/>
  <path fill="#000000" id="svg_3" d="m11.1,23c-2.9,0 -5.7,-1.1 -7.8,-3.2c-2.2,-2.1 -3.3,-4.9 -3.3,-7.8s1.1,-5.7 3.2,-7.8s4.9,-3.2 7.8,-3.2c0.2,0 0.4,0.2 0.4,0.4s-0.2,0.4 -0.4,0.4c-2.8,0 -5.3,1.1 -7.3,3s-3,4.5 -3,7.3s1.1,5.4 3,7.3s4.5,3 7.3,3s5.3,-1.1 7.3,-3s3,-4.5 3,-7.3c0,-4.9 -3.5,-9.2 -8.3,-10.1c-0.2,0 -0.3,-0.2 -0.3,-0.4c0,-0.2 0.2,-0.3 0.4,-0.3c5.2,1 8.9,5.6 8.9,10.8c0,2.9 -1.1,5.7 -3.2,7.8c-2,2 -4.8,3.1 -7.7,3.1z" class="st0"/>
  <path fill="#000000" id="svg_4" d="m10.1,2.6c-0.1,0 -0.2,0 -0.3,-0.1c-0.1,-0.2 -0.1,-0.4 0,-0.5l0.7,-0.7l-0.6,-0.7c-0.1,-0.1 -0.1,-0.4 0,-0.5s0.4,-0.1 0.5,0l0.9,0.9c0.1,0.1 0.1,0.4 0,0.5l-0.9,0.9c-0.1,0.2 -0.2,0.2 -0.3,0.2z" class="st0"/>
 </g>
</svg>