<?xml version="1.0" encoding="utf-8"?>
<!-- Generator: Adobe Illustrator 25.2.3, SVG Export Plug-In . SVG Version: 6.00 Build 0)  -->
<svg version="1.1" id="圖層_1" xmlns="http://www.w3.org/2000/svg" xmlns:xlink="http://www.w3.org/1999/xlink" x="0px" y="0px"
	 viewBox="0 0 30 30" style="enable-background:new 0 0 30 30;" xml:space="preserve">
<style type="text/css">
	.st0{fill:url(#SVGID_1_);}
	.st1{fill:url(#SVGID_2_);}
	.st2{fill:url(#SVGID_3_);}
	.st3{fill:url(#SVGID_4_);}
	.st4{fill:url(#SVGID_5_);}
	.st5{fill:url(#SVGID_6_);}
	.st6{opacity:0.4;fill:url(#SVGID_7_);}
</style>
<g>
	<linearGradient id="SVGID_1_" gradientUnits="userSpaceOnUse" x1="22.1909" y1="15" x2="7.8104" y2="15">
		<stop  offset="0" style="stop-color:#563D29"/>
		<stop  offset="1" style="stop-color:#F2BD79"/>
	</linearGradient>
	<path class="st0" d="M21.34,14.14H10.72l4.4-4.44c0.33-0.33,0.33-0.88,0-1.21c-0.34-0.33-0.88-0.33-1.21,0L8.06,14.4
		c-0.33,0.33-0.33,0.87,0,1.2l5.85,5.89c0.17,0.17,0.39,0.25,0.61,0.25c0.22,0,0.44-0.08,0.6-0.25c0.33-0.33,0.34-0.87,0-1.21
		l-4.4-4.44h10.62c0.47,0,0.85-0.38,0.85-0.85C22.19,14.53,21.81,14.14,21.34,14.14z"/>
	<linearGradient id="SVGID_2_" gradientUnits="userSpaceOnUse" x1="30" y1="15" x2="0" y2="15">
		<stop  offset="0" style="stop-color:#563D29"/>
		<stop  offset="1" style="stop-color:#F2BD79"/>
	</linearGradient>
	<path class="st1" d="M15,0C6.73,0,0,6.73,0,15s6.73,15,15,15s15-6.73,15-15S23.27,0,15,0z M15,28.29C7.67,28.29,1.71,22.33,1.71,15
		S7.67,1.71,15,1.71S28.29,7.67,28.29,15S22.33,28.29,15,28.29z"/>
</g>
</svg>
