<svg id="圖層_1" data-name="圖層 1" xmlns="http://www.w3.org/2000/svg" viewBox="0 0 19 19"><defs><style>.cls-1{fill:red;}.cls-2{isolation:isolate;}.cls-3{fill:#fff;}</style></defs><title>bank_tw</title><g id="圖層_2" data-name="圖層 2"><circle class="cls-1" cx="9.5" cy="9.5" r="9.5"/></g><g class="cls-2"><path class="cls-3" d="M8.7,15H7.5V12.1H6.2A3.7,3.7,0,0,1,4.8,15L4,14.1a2.2,2.2,0,0,0,1.2-2H4.1v-1H7.6v-1H4.7V7.6H5.8V9H7.6V7.3H8.7ZM6.8,6.9V6.2H4.1v-1H6.9V3.9H8V5.1H9.3v1H7.9v.7H6.8ZM9.1,9.5h2.4V7.4h1.1V9.5H15v1H12.7v2.8h2.1v1H9.4v-1h2.1V10.5H9.1ZM11,7.1V6.2H9.8v-1H11V3.9h1.1V5.1H15v1H12.2V7H11Z" transform="translate(0 0)"/></g></svg>