<?xml version="1.0" encoding="utf-8"?>
<!-- Generator: Adobe Illustrator 25.2.3, SVG Export Plug-In . SVG Version: 6.00 Build 0)  -->
<svg version="1.1" id="圖層_1" xmlns="http://www.w3.org/2000/svg" xmlns:xlink="http://www.w3.org/1999/xlink" x="0px" y="0px"
	 viewBox="0 0 16.8 23.9" enable-background="new 0 0 16.8 23.9" xml:space="preserve">
<linearGradient id="SVGID_1_" gradientUnits="userSpaceOnUse" x1="-9.094947e-13" y1="11.9728" x2="16.8454" y2="11.9728">
	<stop  offset="0" style="stop-color:#563D29"/>
	<stop  offset="1" style="stop-color:#F2BD79"/>
</linearGradient>
<path fill-rule="evenodd" clip-rule="evenodd" fill="url(#SVGID_1_)" d="M0.1,20.4c-0.3-3.8,0.7-7.1,3.2-9.9c1-1.1,2.1-2.1,2.9-3.5
	c0.2-0.2,0.4-0.2,0.6-0.2c1.1,0,2.2,0,3.4,0c0.3,0,0.4,0.1,0.6,0.3C11.4,8.1,12.2,9,13,9.9c2.9,2.9,4,6.4,3.8,10.4
	C16.5,25.1,0.5,25.1,0.1,20.4L0.1,20.4z M8.4,5L8.4,5c0.7,0,1.4,0,2,0c0.4,0,0.7,0.1,0.7,0.6c0,0.3-0.3,0.5-0.6,0.5
	C9.1,6,7.7,6,6.3,6C5.9,6,5.7,5.8,5.7,5.5C5.7,5.1,5.9,5,6.3,5C7,5,7.7,5,8.4,5L8.4,5z M11.5,1.1L11.5,1.1c0.4,0.2,0.4,0.6,0.2,0.9
	c-0.3,0.7-0.7,1.3-1,2c-0.1,0.2-0.2,0.3-0.5,0.3c-1.2,0-2.5,0-3.7,0c-0.2,0-0.4-0.1-0.5-0.3c-0.4-1-0.9-2-1.3-2.9
	c-0.2-0.5-0.1-0.8,0.4-1c0.8-0.4,1.5-0.3,2.1,0.2c0.5,0.4,0.9,0.8,1.6,0.9C11,1.6,10.9,0.8,11.5,1.1L11.5,1.1z M9.3,17.4L9.3,17.4
	c0-0.3-0.1-0.5-0.3-0.7v0l0,0v0h0v0h0v0c-0.2-0.1-0.4-0.3-0.7-0.4c-0.8-0.3-1.4-0.6-1.7-1c-0.4-0.4-0.6-0.8-0.6-1.5
	c0-0.6,0.2-1.1,0.6-1.5c0.4-0.4,0.9-0.6,1.5-0.7v-1.1h0.9v1.2c0.6,0.1,1.1,0.3,1.5,0.8c0.4,0.4,0.5,1,0.5,1.7v0H9.3
	c0-0.4-0.1-0.7-0.3-1c-0.1-0.2-0.4-0.3-0.7-0.3c-0.1,0-0.2,0-0.3,0h0h0v0h0h0l0,0v0h0H7.8v0h0l0,0v0h0v0h0h0v0h0v0h0v0h0v0v0h0l0,0
	h0v0v0h0v0.1v0h0l0,0v0h0v0v0v0.1h0l0,0v0v0c0,0.1,0,0.2,0,0.3c0,0.3,0.1,0.5,0.2,0.7c0.1,0.1,0.4,0.3,0.9,0.5
	c0.8,0.3,1.3,0.6,1.7,1c0.4,0.3,0.6,0.8,0.6,1.4c0,0.6-0.2,1.1-0.6,1.4c-0.4,0.4-0.9,0.6-1.6,0.7v1H7.9v-1c-0.7-0.1-1.3-0.3-1.7-0.7
	c-0.4-0.4-0.6-1-0.6-1.8l0,0h1.5c0,0.5,0.1,0.8,0.3,1c0.2,0.2,0.5,0.3,0.8,0.3c0.3,0,0.5,0,0.7-0.1h0v0h0v0l0,0v0
	C9.2,17.9,9.3,17.6,9.3,17.4L9.3,17.4z"/>
</svg>
