<?xml version="1.0" encoding="utf-8"?>
<!-- Generator: Adobe Illustrator 23.0.3, SVG Export Plug-In . SVG Version: 6.00 Build 0)  -->
<svg version="1.1" id="圖層_1" xmlns="http://www.w3.org/2000/svg" xmlns:xlink="http://www.w3.org/1999/xlink" x="0px" y="0px"
	 width="48px" height="48px" viewBox="0 0 48 48" style="enable-background:new 0 0 48 48;" xml:space="preserve">
<style type="text/css">
	.st0{fill:url(#SVGID_1_);}
	.st1{fill:#FFFFFF;}
	.st2{fill-rule:evenodd;clip-rule:evenodd;fill:#FFFFFF;}
	.st3{fill-rule:evenodd;clip-rule:evenodd;fill:url(#SVGID_2_);}
	.st4{fill-rule:evenodd;clip-rule:evenodd;fill:url(#SVGID_3_);}
	.st5{fill:none;stroke:#FFFFFF;stroke-width:1.4286;}
	.st6{fill:none;stroke:#FFFFFF;stroke-width:1.2;stroke-miterlimit:10;}
	.st7{fill:#BCBCBC;stroke:#FFFFFF;stroke-width:1.2;stroke-linecap:round;stroke-linejoin:round;stroke-miterlimit:10;}
	.st8{fill:none;stroke:#FFFFFF;stroke-width:1.2;stroke-linecap:round;stroke-linejoin:round;stroke-miterlimit:10;}
	.st9{fill:url(#SVGID_4_);}
	.st10{fill:url(#SVGID_5_);}
	.st11{fill:url(#SVGID_6_);}
	.st12{fill:url(#SVGID_7_);}
	.st13{fill:url(#SVGID_8_);}
	.st14{fill:url(#SVGID_9_);}
	.st15{fill:url(#SVGID_10_);}
	.st16{fill:url(#SVGID_11_);}
	.st17{fill:url(#SVGID_12_);stroke:url(#SVGID_13_);stroke-width:0.9455;stroke-miterlimit:10;}
	.st18{fill:url(#SVGID_14_);}
	.st19{fill:url(#SVGID_15_);}
	.st20{fill:url(#SVGID_16_);}
	.st21{fill:url(#SVGID_17_);}
	.st22{fill:#808080;}
	.st23{fill:#0F1418;}
	.st24{fill:url(#SVGID_18_);}
	.st25{fill-rule:evenodd;clip-rule:evenodd;}
	.st26{fill-rule:evenodd;clip-rule:evenodd;fill:url(#SVGID_19_);}
	.st27{fill-rule:evenodd;clip-rule:evenodd;fill:url(#SVGID_20_);}
	.st28{fill:none;stroke:#000000;stroke-width:1.4286;}
	.st29{fill:url(#SVGID_21_);}
	.st30{fill:url(#SVGID_22_);}
	.st31{fill:url(#SVGID_23_);}
	.st32{fill:url(#SVGID_24_);}
	.st33{fill:url(#SVGID_25_);}
	.st34{fill:url(#SVGID_26_);}
	.st35{fill:url(#SVGID_27_);}
	.st36{fill:url(#SVGID_28_);}
	.st37{fill:url(#SVGID_29_);}
	.st38{fill:url(#SVGID_30_);}
	.st39{fill:url(#SVGID_31_);}
	.st40{fill:url(#SVGID_32_);}
	.st41{fill:url(#SVGID_33_);}
</style>
<g>
	<path d="M24,0C10.7,0,0,10.7,0,24s10.7,24,24,24s24-10.7,24-24S37.3,0,24,0z M29.7,32.7H16.1l3.2,3.2c0.3,0.3,0.4,0.7,0.4,1.1
		s-0.2,0.8-0.4,1.1c-0.3,0.3-0.7,0.4-1.1,0.4s-0.8-0.2-1.1-0.4c0,0-5.8-5.8-5.8-5.8c-0.1-0.1-0.2-0.3-0.3-0.5
		c-0.1-0.2-0.1-0.3-0.1-0.5c0-0.2,0-0.4,0.1-0.6c0,0,0-0.1,0-0.1c0,0,0,0,0,0c0.1-0.1,0.2-0.3,0.3-0.4c0,0,5.8-5.8,5.8-5.8
		c0.3-0.3,0.7-0.4,1.1-0.4s0.8,0.2,1.1,0.4c0.6,0.6,0.6,1.5,0,2.1l-3.2,3.2h13.6c0.8,0,1.5,0.7,1.5,1.5S30.6,32.7,29.7,32.7z
		 M36.8,17.4c-0.1,0.2-0.2,0.3-0.3,0.5c0,0-5.8,5.8-5.8,5.8c-0.3,0.3-0.7,0.4-1.1,0.4c-0.4,0-0.8-0.2-1.1-0.4
		c-0.3-0.3-0.4-0.7-0.4-1.1s0.2-0.8,0.4-1.1l3.2-3.2H18.3c-0.8,0-1.5-0.7-1.5-1.5s0.7-1.5,1.5-1.5h13.6l-3.2-3.2
		c-0.3-0.3-0.4-0.7-0.4-1.1s0.2-0.8,0.4-1.1c0.3-0.3,0.7-0.4,1.1-0.4s0.8,0.2,1.1,0.4c0,0,5.8,5.8,5.8,5.8c0,0,0,0,0,0.1
		c0,0,0,0,0,0c0.1,0.1,0.2,0.3,0.2,0.4c0.1,0.2,0.1,0.3,0.1,0.5c0,0,0,0,0,0C37,17.1,36.9,17.2,36.8,17.4z"/>
</g>
</svg>
