<?xml version="1.0" encoding="utf-8"?>
<!-- Generator: Adobe Illustrator 25.2.3, SVG Export Plug-In . SVG Version: 6.00 Build 0)  -->
<svg version="1.1" id="圖層_1" xmlns="http://www.w3.org/2000/svg" xmlns:xlink="http://www.w3.org/1999/xlink" x="0px" y="0px"
	 viewBox="0 0 28.32 30" style="enable-background:new 0 0 28.32 30;" xml:space="preserve">
<style type="text/css">
	.st0{fill:url(#SVGID_1_);}
	.st1{fill:url(#SVGID_2_);}
	.st2{fill:url(#SVGID_3_);}
	.st3{fill:url(#SVGID_4_);}
	.st4{fill:url(#SVGID_5_);}
	.st5{fill:url(#SVGID_6_);}
	.st6{opacity:0.4;fill:url(#SVGID_7_);}
</style>
<g>
	<g>
		
			<linearGradient id="SVGID_1_" gradientUnits="userSpaceOnUse" x1="14.1539" y1="13.9616" x2="14.1539" y2="33.1512" gradientTransform="matrix(1 0 0 -1 0 34.3849)">
			<stop  offset="0.034" style="stop-color:#5F9045"/>
			<stop  offset="0.1215" style="stop-color:#54763C"/>
			<stop  offset="0.1815" style="stop-color:#4B6135"/>
			<stop  offset="0.3011" style="stop-color:#3F522C"/>
			<stop  offset="0.5817" style="stop-color:#28351B"/>
			<stop  offset="0.8244" style="stop-color:#192311"/>
			<stop  offset="1" style="stop-color:#141D0D"/>
		</linearGradient>
		<path class="st0" d="M13.24,1.13h12.82c0.7,0,1.27,0.56,1.27,1.27v18.03H0.99V2.39c0-0.7,0.56-1.27,1.27-1.27H13.24z"/>
		
			<linearGradient id="SVGID_2_" gradientUnits="userSpaceOnUse" x1="-0.0608" y1="19.3849" x2="28.383" y2="19.3849" gradientTransform="matrix(1 0 0 -1 0 34.3849)">
			<stop  offset="0" style="stop-color:#B47C24"/>
			<stop  offset="0.041" style="stop-color:#BE8D39"/>
			<stop  offset="0.1671" style="stop-color:#DABE75"/>
			<stop  offset="0.2746" style="stop-color:#EEE1A0"/>
			<stop  offset="0.358" style="stop-color:#FAF7BB"/>
			<stop  offset="0.4071" style="stop-color:#FFFFC5"/>
			<stop  offset="1" style="stop-color:#FFCA66"/>
		</linearGradient>
		<path class="st1" d="M26.05,0H2.25C0.99,0,0,1.13,0,2.39v20.14c0,1.27,0.99,2.39,2.39,2.39h6.9l-0.56,3.94H7.46
			c-0.28,0-0.56,0.28-0.56,0.56S7.18,30,7.46,30h13.38c0.28,0,0.56-0.28,0.56-0.56s-0.28-0.56-0.56-0.56h-1.27l-0.56-3.94h6.9
			c1.27,0,2.39-0.99,2.39-2.39V2.39C28.45,1.13,27.32,0,26.05,0z M9.86,28.73l0.56-3.94h7.61l0.56,3.94H9.86z M13.66,22.54
			L13.66,22.54c0-0.14,0-0.14,0-0.28c0,0,0,0,0-0.14c0,0,0,0,0-0.14c0,0,0,0,0.14,0c0,0,0,0,0.14,0c0,0,0,0,0.14,0s0.14,0,0.28,0
			h0.14c0,0,0,0,0.14,0c0,0,0,0,0.14,0c0,0,0,0,0,0.14c0,0,0,0,0,0.14c0,0,0,0,0,0.14v0.14v0.14v0.14c0,0,0,0,0,0.14c0,0,0,0,0,0.14
			c0,0,0,0-0.14,0c0,0,0,0-0.14,0c0,0,0,0-0.14,0h-0.14h-0.14h-0.14c0,0,0,0-0.14,0c0,0,0,0-0.14,0c0,0,0,0,0-0.14c0,0,0,0,0-0.14
			C13.66,22.68,13.66,22.68,13.66,22.54C13.66,22.68,13.66,22.54,13.66,22.54z M13.24,1.13h12.82c0.7,0,1.27,0.56,1.27,1.27v18.03
			H0.99V2.39c0-0.7,0.56-1.27,1.27-1.27H13.24z"/>
		<g>
			<g>
				<linearGradient id="SVGID_3_" gradientUnits="userSpaceOnUse" x1="6.021" y1="9.0145" x2="17.6284" y2="9.0145">
					<stop  offset="0.4071" style="stop-color:#FFFFAD"/>
					<stop  offset="0.5336" style="stop-color:#F2E89B"/>
					<stop  offset="0.7272" style="stop-color:#E0CA83"/>
					<stop  offset="0.837" style="stop-color:#DABF7A"/>
					<stop  offset="0.8832" style="stop-color:#D8BC78"/>
					<stop  offset="0.9216" style="stop-color:#D2B174"/>
					<stop  offset="0.9571" style="stop-color:#C8A06B"/>
					<stop  offset="0.9908" style="stop-color:#BB8860"/>
					<stop  offset="1" style="stop-color:#B6805C"/>
				</linearGradient>
				<path class="st2" d="M11.03,14.1c0.34,1,1.78,0.94,2.04-0.09l0.06-0.25c0.04-0.15,0.11-0.3,0.21-0.42
					c0.1-0.12,0.23-0.22,0.37-0.29c0.14-0.07,0.3-0.1,0.46-0.1c0.16,0,0.31,0.04,0.46,0.11l0.23,0.11c0.95,0.47,1.93-0.6,1.38-1.5
					l-0.13-0.22c-0.35-0.58-0.08-1.33,0.57-1.55l0.24-0.08c1-0.34,0.94-1.78-0.09-2.04l-0.25-0.06c-0.15-0.04-0.3-0.11-0.42-0.21
					c-0.12-0.1-0.22-0.23-0.29-0.37c-0.07-0.14-0.1-0.3-0.1-0.46c0-0.16,0.04-0.31,0.11-0.46l0.11-0.23c0.47-0.95-0.6-1.93-1.5-1.38
					l-0.22,0.13c-0.14,0.08-0.29,0.13-0.45,0.15c-0.16,0.02-0.32,0-0.47-0.06c-0.15-0.05-0.28-0.14-0.4-0.25
					c-0.11-0.11-0.2-0.25-0.25-0.4l-0.08-0.24c-0.34-1-1.78-0.94-2.04,0.09l-0.06,0.25c-0.04,0.15-0.11,0.3-0.21,0.42
					c-0.1,0.12-0.23,0.22-0.37,0.29c-0.14,0.07-0.3,0.1-0.46,0.1c-0.16,0-0.31-0.04-0.46-0.11L8.79,4.85
					c-0.95-0.47-1.93,0.6-1.38,1.5l0.13,0.22C7.63,6.71,7.68,6.87,7.7,7.03c0.02,0.16,0,0.32-0.06,0.47
					C7.58,7.64,7.5,7.78,7.38,7.89C7.27,8,7.13,8.08,6.98,8.13L6.74,8.22c-1,0.34-0.94,1.78,0.09,2.04l0.25,0.06
					c0.15,0.04,0.3,0.11,0.42,0.21c0.12,0.1,0.22,0.23,0.29,0.37c0.07,0.14,0.1,0.3,0.1,0.46c0,0.16-0.04,0.31-0.11,0.46l-0.11,0.23
					c-0.47,0.95,0.6,1.93,1.5,1.38l0.22-0.13c0.14-0.08,0.29-0.13,0.45-0.15c0.16-0.02,0.32,0,0.47,0.06
					c0.15,0.05,0.28,0.14,0.4,0.25c0.11,0.11,0.2,0.25,0.25,0.4L11.03,14.1L11.03,14.1z M11.73,6.89c0.56-0.02,1.11,0.18,1.53,0.56
					c0.42,0.38,0.66,0.91,0.69,1.48c0.02,0.56-0.18,1.11-0.56,1.53c-0.38,0.42-0.91,0.66-1.48,0.69c-0.56,0.02-1.11-0.18-1.53-0.56
					C9.97,10.2,9.72,9.67,9.7,9.11c-0.02-0.56,0.18-1.11,0.56-1.53C10.64,7.16,11.17,6.92,11.73,6.89L11.73,6.89z"/>
			</g>
			<g>
				<linearGradient id="SVGID_4_" gradientUnits="userSpaceOnUse" x1="15.9375" y1="15.1362" x2="23.4796" y2="15.1362">
					<stop  offset="0.4071" style="stop-color:#FFFFAD"/>
					<stop  offset="0.5336" style="stop-color:#F2E89B"/>
					<stop  offset="0.7272" style="stop-color:#E0CA83"/>
					<stop  offset="0.837" style="stop-color:#DABF7A"/>
					<stop  offset="0.8832" style="stop-color:#D8BC78"/>
					<stop  offset="0.9216" style="stop-color:#D2B174"/>
					<stop  offset="0.9571" style="stop-color:#C8A06B"/>
					<stop  offset="0.9908" style="stop-color:#BB8860"/>
					<stop  offset="1" style="stop-color:#B6805C"/>
				</linearGradient>
				<path class="st3" d="M18.47,18.29c0.08,0.69,1.01,0.86,1.32,0.23l0.08-0.15c0.05-0.09,0.11-0.18,0.2-0.24
					c0.08-0.06,0.18-0.11,0.28-0.13c0.1-0.02,0.21-0.02,0.31,0c0.1,0.02,0.2,0.07,0.28,0.13l0.13,0.11c0.55,0.43,1.32-0.11,1.1-0.77
					l-0.05-0.16c-0.14-0.42,0.14-0.87,0.58-0.92l0.17-0.02c0.69-0.08,0.86-1.01,0.23-1.32l-0.15-0.08c-0.09-0.05-0.18-0.11-0.24-0.2
					c-0.06-0.08-0.11-0.18-0.13-0.28c-0.02-0.1-0.02-0.21,0-0.31c0.02-0.1,0.07-0.2,0.13-0.28l0.11-0.13
					c0.43-0.55-0.11-1.32-0.77-1.1l-0.16,0.05c-0.1,0.03-0.2,0.04-0.31,0.03c-0.1-0.01-0.2-0.05-0.29-0.1
					c-0.09-0.06-0.16-0.13-0.22-0.22c-0.06-0.09-0.09-0.19-0.1-0.29l-0.02-0.17c-0.08-0.69-1.01-0.86-1.32-0.23l-0.08,0.15
					c-0.05,0.09-0.11,0.18-0.2,0.24c-0.08,0.06-0.18,0.11-0.28,0.13c-0.1,0.02-0.21,0.02-0.31,0c-0.1-0.02-0.2-0.07-0.28-0.13
					l-0.13-0.11c-0.55-0.43-1.32,0.11-1.1,0.77l0.05,0.16c0.03,0.1,0.04,0.2,0.03,0.31c-0.01,0.1-0.05,0.2-0.1,0.29
					c-0.06,0.09-0.13,0.16-0.22,0.22c-0.09,0.06-0.19,0.09-0.29,0.1l-0.17,0.02c-0.69,0.08-0.86,1.01-0.23,1.32l0.15,0.08
					c0.09,0.05,0.18,0.11,0.24,0.2c0.06,0.08,0.11,0.18,0.13,0.28c0.02,0.1,0.02,0.21,0,0.31c-0.02,0.1-0.07,0.2-0.13,0.28
					l-0.11,0.13c-0.43,0.55,0.11,1.32,0.77,1.1l0.16-0.05c0.1-0.03,0.2-0.04,0.31-0.03c0.1,0.01,0.2,0.05,0.29,0.1
					c0.09,0.06,0.16,0.13,0.22,0.22c0.06,0.09,0.09,0.19,0.1,0.29L18.47,18.29L18.47,18.29z M19.95,13.76
					c0.37,0.06,0.69,0.27,0.9,0.58c0.21,0.3,0.3,0.68,0.23,1.04c-0.06,0.37-0.27,0.69-0.58,0.9c-0.3,0.21-0.68,0.3-1.04,0.23
					c-0.37-0.06-0.69-0.27-0.9-0.57c-0.21-0.3-0.3-0.68-0.23-1.04c0.06-0.37,0.27-0.69,0.57-0.9C19.21,13.78,19.59,13.7,19.95,13.76
					L19.95,13.76z"/>
			</g>
		</g>
		<linearGradient id="SVGID_5_" gradientUnits="userSpaceOnUse" x1="14.1539" y1="1.1266" x2="14.1539" y2="20.4233">
			<stop  offset="0" style="stop-color:#FFFFFF"/>
			<stop  offset="1" style="stop-color:#FFFFFF;stop-opacity:0"/>
		</linearGradient>
		<path style="opacity:0.4;fill:url(#SVGID_5_);" d="M26.05,1.13H13.24H2.25c-0.7,0-1.27,0.56-1.27,1.27v18.03h9.19l17.15-17.9V2.39
			C27.32,1.69,26.76,1.13,26.05,1.13z"/>
	</g>
</g>
</svg>
