<svg id="圖層_1" data-name="圖層 1" xmlns="http://www.w3.org/2000/svg" xmlns:xlink="http://www.w3.org/1999/xlink" viewBox="0 0 17 17"><defs><style>.cls-1{fill:url(#未命名漸層);}.cls-2,.cls-3{fill-rule:evenodd;}.cls-2{fill:url(#未命名漸層_2);}.cls-3{fill:url(#未命名漸層_3);}</style><linearGradient id="未命名漸層" y1="9.5" x2="17" y2="9.5" gradientTransform="matrix(1, 0, 0, -1, 0, 18)" gradientUnits="userSpaceOnUse"><stop offset="0.41" stop-color="#ffffc2"/><stop offset="0.56" stop-color="#f8eda3"/><stop offset="0.74" stop-color="#f1db85"/><stop offset="0.84" stop-color="#efd47a"/><stop offset="0.88" stop-color="#edd178"/><stop offset="0.92" stop-color="#e7c674"/><stop offset="0.96" stop-color="#deb56c"/><stop offset="0.99" stop-color="#d19d61"/><stop offset="1" stop-color="#cb935c"/></linearGradient><linearGradient id="未命名漸層_2" x1="3.7" y1="4.6" x2="13.32" y2="4.6" gradientTransform="matrix(1, 0, 0, -1, 0, 18)" gradientUnits="userSpaceOnUse"><stop offset="0.41" stop-color="#ffffc6"/><stop offset="0.57" stop-color="#f9eda3"/><stop offset="0.74" stop-color="#f5de85"/><stop offset="0.84" stop-color="#f3d87a"/><stop offset="0.88" stop-color="#f1d577"/><stop offset="0.91" stop-color="#eaca6d"/><stop offset="0.94" stop-color="#deb95d"/><stop offset="0.97" stop-color="#cea146"/><stop offset="1" stop-color="#b98229"/><stop offset="1" stop-color="#b57c24"/></linearGradient><linearGradient id="未命名漸層_3" x1="5.61" y1="11.4" x2="11.38" y2="11.4" xlink:href="#未命名漸層_2"/></defs><g id="mb"><path class="cls-1" d="M8.5,17A8.5,8.5,0,1,1,17,8.5,8.49,8.49,0,0,1,8.5,17Zm0-16A7.55,7.55,0,0,0,1,8.5,7.55,7.55,0,0,0,8.5,16,7.55,7.55,0,0,0,16,8.5,7.55,7.55,0,0,0,8.5,1Z"/><path class="cls-2" d="M4.7,15.2a1,1,0,0,1-1-1c0-1,1-3.8,4.8-3.8s4.8,2.9,4.8,3.8-1,1-1,1L8.8,16.4Z"/><path class="cls-3" d="M8.5,9.5a2.79,2.79,0,0,0,2-.8,2.9,2.9,0,0,0,0-4,2.33,2.33,0,0,0-2-1,2.79,2.79,0,0,0-2,.8,2.9,2.9,0,0,0,0,4,2.33,2.33,0,0,0,2,1Z"/></g></svg>