<svg id="Capa_1" enable-background="new 0 0 512 512" height="512" viewBox="0 0 512 512" width="512" xmlns="http://www.w3.org/2000/svg"><path d="m484.948 146.174-133.331-133.331c-17.128-17.128-44.887-17.121-62.007 0l-98.21 98.21c-17.128 17.128-17.135 44.886-.007 62.015l40.886 40.886-212.693 212.691c-7.174 7.174-7.166 18.798 0 25.965l25.594 25.594c7.166 7.166 18.784 7.166 25.957-.007l19.931-19.931 49.824 49.824c5.213 5.213 13.665 5.213 18.878 0l56.395-56.395c5.213-5.213 5.213-13.665 0-18.878l-49.824-49.824 117.489-117.487 40.893 40.893c17.128 17.128 44.886 17.121 62.015-.007l98.21-98.21c17.121-17.122 17.128-44.88 0-62.008zm-164.24 31.076c-13.048-13.048-13.048-34.206 0-47.253 13.048-13.048 34.206-13.048 47.253 0 13.048 13.048 13.048 34.206 0 47.253-13.047 13.048-34.206 13.048-47.253 0z"/></svg>