<?xml version="1.0" encoding="utf-8"?>
<!-- Generator: Adobe Illustrator 25.2.3, SVG Export Plug-In . SVG Version: 6.00 Build 0)  -->
<svg version="1.1" id="圖層_1" xmlns="http://www.w3.org/2000/svg" xmlns:xlink="http://www.w3.org/1999/xlink" x="0px" y="0px"
	 viewBox="0 0 20 18.93" style="enable-background:new 0 0 20 18.93;" xml:space="preserve">
<style type="text/css">
	.st0{fill:#FBE2B0;}
	.st1{fill:#FFFFFF;}
</style>
<path class="st1" d="M0,3.12C0,2.3,0.32,1.5,0.88,0.92C1.44,0.33,2.2,0,3,0h14c0.8,0,1.56,0.33,2.12,0.92C19.68,1.5,20,2.3,20,3.12
	v9.38c0,0.83-0.32,1.62-0.88,2.21c-0.56,0.59-1.33,0.92-2.12,0.92h-2.17c-0.27,0-0.52,0.11-0.71,0.31l-2,2.08
	c-0.56,0.59-1.33,0.91-2.12,0.91s-1.56-0.33-2.12-0.91l-2-2.08c-0.19-0.2-0.44-0.31-0.71-0.31H3c-0.8,0-1.56-0.33-2.12-0.92
	C0.32,14.12,0,13.33,0,12.5V3.12z M3,2.08c-0.27,0-0.52,0.11-0.71,0.31C2.11,2.58,2,2.85,2,3.12v9.38c0,0.28,0.11,0.54,0.29,0.74
	c0.19,0.2,0.44,0.31,0.71,0.31h2.17c0.8,0,1.56,0.33,2.12,0.92l2,2.08c0.09,0.1,0.2,0.17,0.32,0.23c0.12,0.05,0.25,0.08,0.38,0.08
	c0.13,0,0.26-0.03,0.38-0.08c0.12-0.05,0.23-0.13,0.32-0.23l2-2.08c0.56-0.59,1.33-0.92,2.12-0.92H17c0.27,0,0.52-0.11,0.71-0.31
	c0.19-0.2,0.29-0.46,0.29-0.74V3.12c0-0.28-0.11-0.54-0.29-0.74c-0.19-0.2-0.44-0.31-0.71-0.31H3z M4,5.21
	c0-0.28,0.11-0.54,0.29-0.74C4.48,4.28,4.73,4.17,5,4.17h10c0.27,0,0.52,0.11,0.71,0.31C15.89,4.67,16,4.93,16,5.21
	s-0.11,0.54-0.29,0.74c-0.19,0.2-0.44,0.31-0.71,0.31H5c-0.27,0-0.52-0.11-0.71-0.31C4.11,5.75,4,5.48,4,5.21L4,5.21z M4,9.38
	C4,9.1,4.11,8.83,4.29,8.64C4.48,8.44,4.73,8.33,5,8.33h5c0.27,0,0.52,0.11,0.71,0.31C10.89,8.83,11,9.1,11,9.38
	c0,0.28-0.11,0.54-0.29,0.74c-0.19,0.2-0.44,0.31-0.71,0.31H5c-0.27,0-0.52-0.11-0.71-0.31C4.11,9.92,4,9.65,4,9.38z"/>
</svg>
