<?xml version="1.0" encoding="utf-8"?>
<!-- Generator: Adobe Illustrator 22.1.0, SVG Export Plug-In . SVG Version: 6.00 Build 0)  -->
<svg version="1.1" id="圖層_1" xmlns="http://www.w3.org/2000/svg" xmlns:xlink="http://www.w3.org/1999/xlink" x="0px" y="0px"
	 width="19.1px" height="20px" viewBox="0 0 19.1 20" style="enable-background:new 0 0 19.1 20;" xml:space="preserve">
<path d="M8.2,2.1c0.3-0.3,0.8-0.5,1.3-0.5c0.4,0,0.9,0.2,1.3,0.5l6.1,5.1c0.3,0.2,0.4,0.4,0.5,0.7c0.1,0.3,0.2,0.6,0.2,0.8v8.4
	c0,0.3-0.2,0.7-0.4,0.9c-0.3,0.3-0.6,0.4-0.9,0.4h-3.7c-0.3,0-0.7-0.2-0.9-0.4c-0.3-0.3-0.4-0.6-0.4-0.9v-4.7H7.7v4.7
	c0,0.3-0.2,0.7-0.4,0.9c-0.1,0.3-0.4,0.4-0.8,0.4H2.8c-0.3,0-0.7-0.2-0.9-0.4c-0.3-0.3-0.4-0.6-0.4-0.9V8.7c0-0.3,0.1-0.6,0.2-0.8
	S2,7.3,2.2,7.1L8.2,2.1L8.2,2.1z"/>
</svg>
