<svg id="圖層_1" data-name="圖層 1" xmlns="http://www.w3.org/2000/svg" xmlns:xlink="http://www.w3.org/1999/xlink" viewBox="0 0 34.1 15.7"><defs><style>.cls-1{fill:none;}.cls-2{fill:#221b17;}.cls-3{clip-path:url(#clip-path);}.cls-4{fill:url(#未命名漸層);}.cls-5{fill:url(#未命名漸層_2);}.cls-6{fill:url(#未命名漸層_3);}.cls-7{fill:url(#未命名漸層_4);}.cls-8{clip-path:url(#clip-path-5);}.cls-9{fill:url(#未命名漸層_5);}.cls-10{fill:url(#未命名漸層_6);}.cls-11{fill:url(#未命名漸層_7);}.cls-12{fill:url(#未命名漸層_8);}.cls-13{fill:url(#未命名漸層_9);}.cls-14{clip-path:url(#clip-path-10);}.cls-15{fill:url(#未命名漸層_10);}.cls-16{fill:url(#未命名漸層_11);}.cls-17{fill:url(#未命名漸層_12);}.cls-18{fill:url(#未命名漸層_13);}.cls-19{fill:url(#未命名漸層_14);}.cls-20{fill:url(#未命名漸層_15);}</style><clipPath id="clip-path"><polygon class="cls-1" points="13.8 2.3 15.5 2.3 15.5 13.1 13.8 13.1 13.8 14 20.1 14 20.1 13.1 18.3 13.1 18.3 2.3 20.1 2.3 20.1 1.5 13.8 1.5 13.8 2.3"/></clipPath><linearGradient id="未命名漸層" x1="16.95" y1="18" x2="16.95" y2="2" gradientTransform="matrix(1, 0, 0, -1, 0, 18)" gradientUnits="userSpaceOnUse"><stop offset="0" stop-color="#c39434"/><stop offset="0.19" stop-color="#7f4b0c"/><stop offset="0.32" stop-color="#c39434"/><stop offset="0.36" stop-color="#c99e41"/><stop offset="0.41" stop-color="#dab863"/><stop offset="0.49" stop-color="#f4e399"/><stop offset="0.52" stop-color="#fff4af"/><stop offset="0.55" stop-color="#fdf0aa"/><stop offset="0.59" stop-color="#f6e69d"/><stop offset="0.63" stop-color="#ebd487"/><stop offset="0.67" stop-color="#dcbc67"/><stop offset="0.71" stop-color="#c99d3f"/><stop offset="0.73" stop-color="#c39434"/><stop offset="0.83" stop-color="#8f4f18"/><stop offset="0.93" stop-color="#ffd452"/><stop offset="1" stop-color="#c39434"/></linearGradient><linearGradient id="未命名漸層_2" x1="16.95" y1="24.32" x2="16.95" y2="3.13" gradientTransform="matrix(1, 0, 0, -1, 0, 18)" gradientUnits="userSpaceOnUse"><stop offset="0.41" stop-color="#ffffad"/><stop offset="0.53" stop-color="#f2e89b"/><stop offset="0.73" stop-color="#e0ca83"/><stop offset="0.84" stop-color="#dabf7a"/><stop offset="0.88" stop-color="#d8bc78"/><stop offset="0.92" stop-color="#d2b174"/><stop offset="0.96" stop-color="#c8a06b"/><stop offset="0.99" stop-color="#bb8860"/><stop offset="1" stop-color="#b6805c"/></linearGradient><linearGradient id="未命名漸層_3" x1="16.9" y1="7.98" x2="16.9" y2="13.83" gradientTransform="matrix(1, 0, 0, -1, 0, 18)" gradientUnits="userSpaceOnUse"><stop offset="0.01" stop-color="#fff6b1"/><stop offset="1" stop-color="#fff6b1" stop-opacity="0"/></linearGradient><radialGradient id="未命名漸層_4" cx="2012.25" cy="-1370.16" r="3.5" gradientTransform="matrix(0.46, 0, 0, -1.72, -900.39, -2347.98)" gradientUnits="userSpaceOnUse"><stop offset="0" stop-color="#fff6b1"/><stop offset="0.12" stop-color="#fff6b1" stop-opacity="0.88"/><stop offset="1" stop-color="#fff6b1" stop-opacity="0"/></radialGradient><clipPath id="clip-path-5"><path class="cls-1" d="M30.9,2.3a7.53,7.53,0,0,0-3.7-.8H21v.8h1.8V13.1H21V14h6.4v-.8H25.5V8.5h1.8a6.4,6.4,0,0,0,3.6-.9A3,3,0,0,0,32.3,5,3.07,3.07,0,0,0,30.9,2.3ZM28.8,7a1.56,1.56,0,0,1-1.4.6H25.5V2.3h2a1.68,1.68,0,0,1,1.4.6,3.52,3.52,0,0,1,.4,2A3.58,3.58,0,0,1,28.8,7Z"/></clipPath><linearGradient id="未命名漸層_5" x1="26.65" y1="18" x2="26.65" y2="2" xlink:href="#未命名漸層"/><linearGradient id="未命名漸層_6" x1="26.6" y1="24.32" x2="26.6" y2="3.13" xlink:href="#未命名漸層_2"/><linearGradient id="未命名漸層_7" x1="26.6" y1="7.98" x2="26.6" y2="13.83" xlink:href="#未命名漸層_3"/><radialGradient id="未命名漸層_8" cx="1538.17" cy="-1426.02" r="3.5" gradientTransform="matrix(0.35, 0.08, 0.35, -1.5, -10.97, -2262.98)" gradientUnits="userSpaceOnUse"><stop offset="0" stop-color="#fff"/><stop offset="0.12" stop-color="#fff" stop-opacity="0.88"/><stop offset="1" stop-color="#fff" stop-opacity="0"/></radialGradient><radialGradient id="未命名漸層_9" cx="1379.9" cy="-1322.34" r="3.5" gradientTransform="matrix(0.28, 0, -0.01, -1.32, -376.9, -1740.41)" xlink:href="#未命名漸層_4"/><clipPath id="clip-path-10"><polygon class="cls-1" points="9.3 2.3 11.1 2.3 8.3 9.9 5.5 2.3 7.3 2.3 7.3 1.5 1.2 1.5 1.2 2.3 2.7 2.3 7 14.2 7.9 14.2 12 2.3 13.6 2.3 13.6 1.5 9.3 1.5 9.3 2.3"/></clipPath><linearGradient id="未命名漸層_10" x1="7.4" y1="18" x2="7.4" y2="2" xlink:href="#未命名漸層"/><linearGradient id="未命名漸層_11" x1="7.4" y1="24.32" x2="7.4" y2="3.13" xlink:href="#未命名漸層_2"/><linearGradient id="未命名漸層_12" x1="11.35" y1="7.98" x2="11.35" y2="13.83" xlink:href="#未命名漸層_3"/><linearGradient id="未命名漸層_13" x1="4.35" y1="7.98" x2="4.35" y2="13.83" xlink:href="#未命名漸層_3"/><radialGradient id="未命名漸層_14" cx="2237.67" cy="-1293.97" r="3.5" gradientTransform="matrix(0.44, -0.13, -0.43, -1.48, -1535.35, -1619.05)" xlink:href="#未命名漸層_4"/><radialGradient id="未命名漸層_15" cx="2243.18" cy="-1292.31" r="3.5" gradientTransform="matrix(0.44, -0.13, -0.43, -1.48, -1535.35, -1619.05)" xlink:href="#未命名漸層_8"/></defs><path class="cls-2" d="M31.7,1.1h0A8.31,8.31,0,0,0,27.2,0H21a.9.9,0,0,0-.5.1.6.6,0,0,0-.4-.1H9.3a1.28,1.28,0,0,0-1,.4,1.28,1.28,0,0,0-1-.4H1.2A1.47,1.47,0,0,0-.3,1.5v.8A1.54,1.54,0,0,0,1.2,3.8h.5L5.6,14.7a1.5,1.5,0,0,0,1.4,1h.8a1.5,1.5,0,0,0,1.4-1L13,3.8h1v7.8h-.3a1.54,1.54,0,0,0-1.5,1.5V14a1.54,1.54,0,0,0,1.5,1.5H20a.9.9,0,0,0,.5-.1,4.33,4.33,0,0,0,.5.1h6.4A1.54,1.54,0,0,0,28.9,14v-.8a1.54,1.54,0,0,0-1.5-1.5H27V10h.3a7.39,7.39,0,0,0,4.4-1.2,4.49,4.49,0,0,0,2-3.9A4.12,4.12,0,0,0,31.7,1.1ZM20.1,11.6h-.3V3.8h.3a.9.9,0,0,0,.5-.1,4.33,4.33,0,0,0,.5.1h.3v7.8H21a.9.9,0,0,0-.5.1C20.4,11.7,20.2,11.6,20.1,11.6Zm7.5-5.5H27V3.8h.7c.1.1.1.4.1,1.1C27.8,5.9,27.6,6.1,27.6,6.1ZM8.3,3.5a.86.86,0,0,0,.6.3L8.3,5.5,7.7,3.8Z"/><g class="cls-3"><polygon class="cls-4" points="13.8 14 13.8 13.1 15.5 13.1 15.5 2.3 13.8 2.3 13.8 1.5 20.1 1.5 20.1 2.3 18.3 2.3 18.3 13.1 20.1 13.1 20.1 14 13.8 14"/></g><g class="cls-3"><path class="cls-5" d="M14,13.8v-.4h1.8V2.1H14V1.7h5.9v.4H18.1V13.3h1.8v.4H14Z"/></g><g class="cls-3"><polygon class="cls-6" points="15.9 7.9 18 7.9 18 2 19.7 2 19.7 1.8 14.1 1.8 14.1 2 15.9 2 15.9 7.9"/></g><g class="cls-3"><path class="cls-7" d="M17.3,7.5c0,3.3-.7,6-1.6,6s-1.6-2.7-1.6-6,.7-6,1.6-6S17.3,4.2,17.3,7.5Z"/></g><g class="cls-8"><path class="cls-9" d="M21,14v-.8h1.8V2.3H21V1.5h6.2a7.53,7.53,0,0,1,3.7.8,3,3,0,0,1,1.4,2.6,3,3,0,0,1-1.4,2.6,6.4,6.4,0,0,1-3.6.9H25.5V13h1.9v1Zm6.4-6.3a1.56,1.56,0,0,0,1.4-.6A4.06,4.06,0,0,0,29.3,5a3.52,3.52,0,0,0-.4-2,1.56,1.56,0,0,0-1.4-.6h-2V7.7Z"/></g><g class="cls-8"><path class="cls-10" d="M30.8,7.4a6.05,6.05,0,0,1-3.5.9h-2v5.1h1.9v.4h-6v-.4H23V2.1H21.2V1.7h6a7.38,7.38,0,0,1,3.6.8A2.79,2.79,0,0,1,32,5,2.73,2.73,0,0,1,30.8,7.4ZM29,2.8a1.58,1.58,0,0,0-1.5-.7H25.3V7.9h2.1A1.75,1.75,0,0,0,29,7.2,4.2,4.2,0,0,0,29.5,5,4.2,4.2,0,0,0,29,2.8Z"/></g><g class="cls-8"><path class="cls-11" d="M23.1,7.9h2.1V2h2.3a1.65,1.65,0,0,1,1.6.7,4.2,4.2,0,0,1,.5,2.2,4.62,4.62,0,0,1-.5,2.3,1.45,1.45,0,0,1-1,.7h1.4a2.28,2.28,0,0,0,1.2-.6A2.56,2.56,0,0,0,31.9,5a2.62,2.62,0,0,0-1.2-2.4,6.71,6.71,0,0,0-3.5-.8H21.3V2h1.8Z"/></g><g class="cls-8"><path class="cls-12" d="M33.1,6.6c-.7,2.9-1.8,5.1-2.5,5s-.7-2.6,0-5.5,1.8-5.1,2.5-5S33.8,3.7,33.1,6.6Z"/></g><g class="cls-8"><path class="cls-13" d="M26.3,6.3c0,2.6-.4,4.6-1,4.6s-1-2.1-1-4.6.4-4.6,1-4.6S26.3,3.7,26.3,6.3Z"/></g><g class="cls-14"><polygon class="cls-15" points="7 14.2 2.7 2.3 1.2 2.3 1.2 1.5 7.3 1.5 7.3 2.3 5.5 2.3 8.3 9.9 11.1 2.3 9.3 2.3 9.3 1.5 13.6 1.5 13.6 2.3 12 2.3 7.9 14.2 7 14.2"/></g><g class="cls-14"><path class="cls-16" d="M11.9,2.1,7.7,14H7.2L2.9,2.1H1.4V1.7H7.1v.4H5.2l3.1,8.4,3-8.4H9.5V1.7h3.9v.4Z"/></g><g class="cls-14"><polygon class="cls-17" points="9.4 7.9 9.8 7.9 11.8 2 13.3 2 13.3 1.8 9.6 1.8 9.6 2 11.5 2 9.4 7.9"/><polygon class="cls-18" points="5.1 7.9 7.2 7.9 5.1 2 7 2 7 1.8 1.5 1.8 1.5 2 3 2 5.1 7.9"/></g><g class="cls-14"><path class="cls-19" d="M6.6,8.3c.8,2.9.8,5.4,0,5.6S4.3,12,3.5,9.1s-.8-5.4,0-5.6S5.7,5.4,6.6,8.3Z"/></g><g class="cls-14"><path class="cls-20" d="M8.2,5.1c.8,2.9.8,5.4,0,5.6S6,8.9,5.2,6,4.4.6,5.2.4,7.4,2.2,8.2,5.1Z"/></g></svg>