<?xml version="1.0" encoding="utf-8"?>
<!-- Generator: Adobe Illustrator 22.1.0, SVG Export Plug-In . SVG Version: 6.00 Build 0)  -->
<svg version="1.1" id="圖層_1" xmlns="http://www.w3.org/2000/svg" xmlns:xlink="http://www.w3.org/1999/xlink" x="0px" y="0px"
	 width="20.6px" height="24.7px" viewBox="0 0 20.6 24.7" style="enable-background:new 0 0 20.6 24.7;" xml:space="preserve">
<style type="text/css">
	.st0{display:none;}
	.st1{fill:url(#SVGID_1_);}
	.st2{fill:url(#SVGID_2_);}
</style>
<g id="ba3">
</g>
<g id="ba2">
</g>
<g id="好路投注">
</g>
<g id="有卡限紅" class="st0">
</g>
<g id="無卡限紅" class="st0">
</g>
<g id="ba3開始按鈕">
</g>
<g id="ba3_1_">
</g>
<g id="kit">
	<g>
		
			<linearGradient id="SVGID_1_" gradientUnits="userSpaceOnUse" x1="10.3" y1="23.8898" x2="10.3" y2="-0.7884" gradientTransform="matrix(1 0 0 -1 0 23.8898)">
			<stop  offset="0.4071" style="stop-color:#FFFFAD"/>
			<stop  offset="0.5336" style="stop-color:#F2E89B"/>
			<stop  offset="0.7272" style="stop-color:#E0CA83"/>
			<stop  offset="0.837" style="stop-color:#DABF7A"/>
			<stop  offset="0.8832" style="stop-color:#D8BC78"/>
			<stop  offset="0.9216" style="stop-color:#D2B174"/>
			<stop  offset="0.9571" style="stop-color:#C8A06B"/>
			<stop  offset="0.9908" style="stop-color:#BB8860"/>
			<stop  offset="1" style="stop-color:#B6805C"/>
		</linearGradient>
		<path class="st1" d="M18.3,8l1.6-1.6c0.4-0.4,0.4-1.1,0-1.5s-1.1-0.4-1.5,0l-1.6,1.6c-1.5-1.3-3.5-2.1-5.6-2.3c0,0,0,0,0-0.1v-2
			h0.5c0.6,0,1-0.5,1-1c0-0.6-0.5-1-1-1h-3c-0.6,0-1,0.5-1,1c0,0.6,0.5,1,1,1h0.5v2.1c0,0,0,0,0,0.1C4.1,4.7,0,9.1,0,14.4
			c0,5.7,4.6,10.3,10.3,10.3s10.3-4.6,10.3-10.3C20.6,12,19.7,9.7,18.3,8z M10.3,22.6c-4.5,0-8.2-3.7-8.2-8.2s3.7-8.2,8.2-8.2
			s8.2,3.7,8.2,8.2S14.8,22.6,10.3,22.6z"/>
		
			<linearGradient id="SVGID_2_" gradientUnits="userSpaceOnUse" x1="10.4" y1="16.1779" x2="10.4" y2="6.9235" gradientTransform="matrix(1 0 0 -1 0 23.8898)">
			<stop  offset="0.4071" style="stop-color:#FFFFAD"/>
			<stop  offset="0.5336" style="stop-color:#F2E89B"/>
			<stop  offset="0.7272" style="stop-color:#E0CA83"/>
			<stop  offset="0.837" style="stop-color:#DABF7A"/>
			<stop  offset="0.8832" style="stop-color:#D8BC78"/>
			<stop  offset="0.9216" style="stop-color:#D2B174"/>
			<stop  offset="0.9571" style="stop-color:#C8A06B"/>
			<stop  offset="0.9908" style="stop-color:#BB8860"/>
			<stop  offset="1" style="stop-color:#B6805C"/>
		</linearGradient>
		<path class="st2" d="M11.3,12V8.7c0-0.6-0.5-1-1-1c-0.6,0-1,0.5-1,1V12c-0.9,0.4-1.5,1.3-1.5,2.4c0,1.4,1.2,2.6,2.6,2.6
			s2.6-1.2,2.6-2.6C12.9,13.3,12.2,12.4,11.3,12z"/>
	</g>
</g>
<g id="tip">
</g>
<g id="圖層_2_1_" class="st0">
</g>
</svg>
