<?xml version="1.0" encoding="utf-8"?>
<!-- Generator: Adobe Illustrator 25.2.3, SVG Export Plug-In . SVG Version: 6.00 Build 0)  -->
<svg version="1.1" id="圖層_1" xmlns="http://www.w3.org/2000/svg" xmlns:xlink="http://www.w3.org/1999/xlink" x="0px" y="0px"
	 viewBox="0 0 18.3 18.1" enable-background="new 0 0 18.3 18.1" xml:space="preserve">
<g>
	<linearGradient id="SVGID_1_" gradientUnits="userSpaceOnUse" x1="7.9645" y1="18.1011" x2="7.9645" y2="0">
		<stop  offset="0" style="stop-color:#563D29"/>
		<stop  offset="1" style="stop-color:#F2BD79"/>
	</linearGradient>
	<path fill="url(#SVGID_1_)" d="M2.9,18.1h9.8v-1.4H2.9c-0.8,0-1.4-0.6-1.4-1.4V2.9c0-0.8,0.6-1.4,1.4-1.4H13c0.8,0,1.4,0.6,1.4,1.4
		V9h1.4V2.9C15.9,1.3,14.6,0,13,0H2.9C1.3,0,0,1.3,0,2.9v12.3C0,16.8,1.3,18.1,2.9,18.1z"/>
	<linearGradient id="SVGID_2_" gradientUnits="userSpaceOnUse" x1="15.0414" y1="17.7574" x2="15.0414" y2="10.8443">
		<stop  offset="0" style="stop-color:#563D29"/>
		<stop  offset="1" style="stop-color:#F2BD79"/>
	</linearGradient>
	<polygon fill="url(#SVGID_2_)" points="14.5,17.8 15.5,17.8 15.5,16.6 15.5,14.8 15.9,14.8 18.3,14.8 18.3,13.8 15.9,13.8 
		15.5,13.8 15.5,10.8 14.5,10.8 14.5,13.8 14.5,13.8 11.8,13.8 11.8,14.8 14.5,14.8 14.5,14.8 14.5,17.7 	"/>
</g>
</svg>
