<?xml version="1.0" encoding="utf-8"?>
<!-- Generator: Adobe Illustrator 22.1.0, SVG Export Plug-In . SVG Version: 6.00 Build 0)  -->
<svg version="1.1" id="圖層_1" xmlns="http://www.w3.org/2000/svg" xmlns:xlink="http://www.w3.org/1999/xlink" x="0px" y="0px"
	 viewBox="0 0 19 19" style="enable-background:new 0 0 19 19;" xml:space="preserve">
<style type="text/css">
	.st0{fill:#FF0000;}
	.st1{enable-background:new    ;}
	.st2{fill:#F2F2F2;}
</style>
<title>未命名-4</title>
<g id="圖層_2_1_">
	<circle class="st0" cx="9.5" cy="9.5" r="9.5"/>
</g>
<g class="st1">
	<path class="st2" d="M14.8,11.8c0,0.7-0.2,1.3-0.5,1.9c-0.4,0.6-0.8,1-1.4,1.2c-0.6,0.3-1.7,0.4-3.3,0.4H5.2V3.1h4.7
		c1.3,0,2.3,0.2,2.9,0.5c1,0.6,1.5,1.4,1.5,2.6c0,1.2-0.6,2-1.9,2.6C14,9.3,14.8,10.3,14.8,11.8z M12.4,6.4c0-0.5-0.2-0.9-0.5-1.3
		c-0.2-0.2-0.6-0.3-1-0.4c-0.3,0-0.9,0-1.7,0h-2v3.4h2.3c1,0,1.6-0.1,2-0.2C12.1,7.7,12.4,7.2,12.4,6.4z M12.9,11.7
		c0-0.9-0.4-1.4-1.2-1.7c-0.4-0.2-1.2-0.2-2.1-0.2H7.1v3.9h2.8c0.9,0,1.5-0.1,2-0.2C12.5,13.1,12.9,12.6,12.9,11.7z"/>
</g>
</svg>
