<svg id="圖層_1" data-name="圖層 1" xmlns="http://www.w3.org/2000/svg" xmlns:xlink="http://www.w3.org/1999/xlink" viewBox="0 0 16 16"><defs><style>.cls-1{fill:url(#未命名漸層);}</style><linearGradient id="未命名漸層" y1="10" x2="16" y2="10" gradientTransform="matrix(1, 0, 0, -1, 0, 18)" gradientUnits="userSpaceOnUse"><stop offset="0.41" stop-color="#ffffc6"/><stop offset="0.57" stop-color="#f9eda3"/><stop offset="0.74" stop-color="#f5de85"/><stop offset="0.84" stop-color="#f3d87a"/><stop offset="0.88" stop-color="#f1d577"/><stop offset="0.91" stop-color="#eaca6d"/><stop offset="0.94" stop-color="#deb95d"/><stop offset="0.97" stop-color="#cea146"/><stop offset="1" stop-color="#b98229"/><stop offset="1" stop-color="#b57c24"/></linearGradient></defs><g id="圖層_6" data-name="圖層 6"><path class="cls-1" d="M8.6,7a2.38,2.38,0,0,1-1.1-.6.62.62,0,0,1-.4-.6.71.71,0,0,1,.3-.6c.3-.2.6-.4.9-.3a1.75,1.75,0,0,1,1.4.7l.9-1.2a5.5,5.5,0,0,0-.9-.7,2,2,0,0,0-1.1-.3V2H7.4V3.4A2.85,2.85,0,0,0,6,4.2a2.24,2.24,0,0,0-.6,1.7A2.27,2.27,0,0,0,6,7.5,6.7,6.7,0,0,0,7.8,8.6a4.67,4.67,0,0,1,1,.5,1.14,1.14,0,0,1,.3.8,1.61,1.61,0,0,1-.3.9,1.43,1.43,0,0,1-1,.4,1.75,1.75,0,0,1-1.2-.4,3,3,0,0,1-.8-.8l-1,1.1a4.74,4.74,0,0,0,1,1,3.49,3.49,0,0,0,1.7.6V14H8.6V12.5a2.75,2.75,0,0,0,1.5-.8,3,3,0,0,0,.8-2A2.19,2.19,0,0,0,10.2,8,3.91,3.91,0,0,0,8.6,7ZM8,0a8,8,0,1,0,8,8A8,8,0,0,0,8,0ZM8,14.9A6.9,6.9,0,1,1,14.9,8,6.91,6.91,0,0,1,8,14.9Z"/></g></svg>