<?xml version="1.0" encoding="utf-8"?>
<!-- Generator: Adobe Illustrator 23.0.3, SVG Export Plug-In . SVG Version: 6.00 Build 0)  -->
<svg version="1.1" id="圖層_1" xmlns="http://www.w3.org/2000/svg" xmlns:xlink="http://www.w3.org/1999/xlink" x="0px" y="0px"
	 width="16.9px" height="20.2px" viewBox="0 0 16.9 20.2" style="enable-background:new 0 0 16.9 20.2;" xml:space="preserve">
<style type="text/css">
	.st0{fill:url(#SVGID_1_);}
	.st1{fill:#FFFFFF;}
	.st2{fill-rule:evenodd;clip-rule:evenodd;fill:#FFFFFF;}
	.st3{fill-rule:evenodd;clip-rule:evenodd;fill:url(#SVGID_2_);}
	.st4{fill-rule:evenodd;clip-rule:evenodd;fill:url(#SVGID_3_);}
	.st5{fill:none;stroke:#FFFFFF;stroke-width:1.4286;}
	.st6{fill:none;stroke:#FFFFFF;stroke-width:1.2;stroke-miterlimit:10;}
	.st7{fill:#BCBCBC;stroke:#FFFFFF;stroke-width:1.2;stroke-linecap:round;stroke-linejoin:round;stroke-miterlimit:10;}
	.st8{fill:none;stroke:#FFFFFF;stroke-width:1.2;stroke-linecap:round;stroke-linejoin:round;stroke-miterlimit:10;}
	.st9{fill:url(#SVGID_4_);}
	.st10{fill:url(#SVGID_5_);}
	.st11{fill:url(#SVGID_6_);}
	.st12{fill:url(#SVGID_7_);}
	.st13{fill:url(#SVGID_8_);}
	.st14{fill:url(#SVGID_9_);}
	.st15{fill:url(#SVGID_10_);}
	.st16{fill:url(#SVGID_11_);}
	.st17{fill:url(#SVGID_12_);stroke:url(#SVGID_13_);stroke-width:0.9455;stroke-miterlimit:10;}
	.st18{fill:url(#SVGID_14_);}
	.st19{fill:url(#SVGID_15_);}
	.st20{fill:url(#SVGID_16_);}
	.st21{fill:url(#SVGID_17_);}
	.st22{fill:#808080;}
	.st23{fill:#0F1418;}
	.st24{fill:url(#SVGID_18_);}
	.st25{fill-rule:evenodd;clip-rule:evenodd;}
	.st26{fill-rule:evenodd;clip-rule:evenodd;fill:url(#SVGID_19_);}
	.st27{fill-rule:evenodd;clip-rule:evenodd;fill:url(#SVGID_20_);}
	.st28{fill:none;stroke:#000000;stroke-width:1.4286;}
	.st29{fill:url(#SVGID_21_);}
	.st30{fill:url(#SVGID_22_);}
	.st31{fill:url(#SVGID_23_);}
	.st32{fill:url(#SVGID_24_);}
	.st33{fill:url(#SVGID_25_);}
	.st34{fill:url(#SVGID_26_);}
	.st35{fill:url(#SVGID_27_);}
	.st36{fill:url(#SVGID_28_);}
	.st37{fill:url(#SVGID_29_);}
	.st38{fill:url(#SVGID_30_);}
	.st39{fill:url(#SVGID_31_);}
	.st40{fill:url(#SVGID_32_);}
	.st41{fill:url(#SVGID_33_);}
</style>
<g>
	<path class="st25" d="M8.4,10.1c1.3,0,2.6-0.5,3.6-1.5c0.9-0.9,1.5-2.2,1.5-3.6S13,2.4,12,1.5C11.1,0.5,9.8,0,8.4,0
		S5.8,0.5,4.9,1.5C3.9,2.4,3.4,3.7,3.4,5.1s0.5,2.6,1.5,3.6C5.8,9.6,7.1,10.1,8.4,10.1L8.4,10.1z"/>
	<path d="M10.5,11.4c-0.1,0-0.1,0-0.2,0L8.4,12l-1.9-0.6c-0.1,0-0.1,0-0.2,0c-0.1,0-0.1,0.1-0.1,0.2v2c0,0.1,0,0.1,0.1,0.2
		c0.1,0,0.1,0,0.2,0l1.9-0.6l1.9,0.6c0,0,0,0,0.1,0c0,0,0.1,0,0.1,0c0.1,0,0.1-0.1,0.1-0.2v-2C10.6,11.5,10.6,11.4,10.5,11.4z"/>
	<g>
		<path d="M8.4,15.7c-0.1,0-0.2,0-0.3-0.1c-0.1-0.1-0.2-0.2-0.2-0.3s0.1-0.2,0.2-0.3c0.1-0.1,0.2-0.1,0.3-0.1s0.2,0,0.3,0.1
			c0.1,0.1,0.2,0.2,0.2,0.3s-0.1,0.2-0.2,0.3C8.7,15.6,8.6,15.7,8.4,15.7z"/>
		<path d="M8.4,17.6c-0.1,0-0.2,0-0.3-0.1c-0.1-0.1-0.2-0.2-0.2-0.3c0-0.1,0.1-0.2,0.2-0.3c0.1-0.1,0.2-0.1,0.3-0.1s0.2,0,0.3,0.1
			c0.1,0.1,0.2,0.2,0.2,0.3c0,0.1-0.1,0.2-0.2,0.3C8.7,17.6,8.6,17.6,8.4,17.6z"/>
	</g>
	<path class="st25" d="M13,12.8c-0.4,3.5-2.2,6.1-4.5,6.1s-4.2-2.6-4.5-6.1c-3,1.6-3.9,4.5-3.9,5.7c0,1.7,1.7,1.7,1.7,1.7h13.5
		c0,0,1.7,0,1.7-1.7C16.9,17.3,16,14.4,13,12.8z"/>
</g>
</svg>
