<?xml version="1.0" encoding="utf-8"?>
<!-- Generator: Adobe Illustrator 22.1.0, SVG Export Plug-In . SVG Version: 6.00 Build 0)  -->
<svg version="1.1" id="圖層_1" xmlns="http://www.w3.org/2000/svg" xmlns:xlink="http://www.w3.org/1999/xlink" x="0px" y="0px"
	 width="20px" height="20px" viewBox="0 0 20 20" style="enable-background:new 0 0 20 20;" xml:space="preserve">
<style type="text/css">
	.st0{fill:url(#SVGID_1_);}
</style>
<g>
	
		<linearGradient id="SVGID_1_" gradientUnits="userSpaceOnUse" x1="0" y1="9.8898" x2="20" y2="9.8898" gradientTransform="matrix(1 0 0 -1 0 19.8898)">
		<stop  offset="0" style="stop-color:#ECECEC"/>
		<stop  offset="0.3379" style="stop-color:#E0E0E0"/>
		<stop  offset="0.9538" style="stop-color:#BFBFBF"/>
		<stop  offset="1" style="stop-color:#BCBCBC"/>
	</linearGradient>
	<path class="st0" d="M11.8,1.3c-0.5-1.8-3-1.8-3.5,0L8.1,1.7C8,2,7.9,2.2,7.7,2.4C7.5,2.6,7.3,2.8,7.1,2.9C6.8,3,6.5,3.1,6.3,3
		C6,3,5.7,3,5.5,2.8L5.1,2.6C3.5,1.7,1.7,3.5,2.6,5.1l0.2,0.4c0.6,1,0,2.3-1.1,2.6L1.3,8.2c-1.8,0.5-1.8,3,0,3.5l0.4,0.1
		C2,12,2.2,12.1,2.4,12.3s0.4,0.4,0.5,0.7C3,13.2,3.1,13.5,3,13.7c0,0.3,0,0.6-0.2,0.8l-0.2,0.4c-0.9,1.6,0.9,3.4,2.5,2.5l0.4-0.2
		C5.7,17,6,17,6.3,17s0.5,0,0.8,0.1s0.5,0.3,0.7,0.5C7.9,17.8,8,18,8.1,18.3l0.1,0.4c0.5,1.8,3,1.8,3.5,0l0.1-0.4
		c0.1-0.3,0.2-0.5,0.4-0.7s0.4-0.4,0.7-0.5s0.5-0.2,0.8-0.1c0.3,0,0.5,0.1,0.8,0.2l0.4,0.2c1.6,0.9,3.4-0.9,2.5-2.5l-0.2-0.4
		C17,14.3,17,14,17,13.7s0-0.5,0.1-0.8s0.3-0.5,0.5-0.7s0.4-0.3,0.7-0.4l0.4-0.1c1.8-0.5,1.8-3,0-3.5l-0.4-0.1
		C18,8,17.8,7.9,17.6,7.7c-0.2-0.2-0.4-0.4-0.5-0.7C17,6.8,16.9,6.5,17,6.3c0-0.3,0-0.6,0.2-0.8l0.2-0.4c0.9-1.6-0.9-3.4-2.5-2.5
		l-0.4,0.2C14.3,3,14,3,13.7,3s-0.5,0-0.8-0.1s-0.5-0.3-0.7-0.5C12.1,2.2,12,2,11.9,1.7L11.8,1.3L11.8,1.3z M10,13.7
		c-1,0-1.9-0.4-2.6-1.1C6.7,11.9,6.3,11,6.3,10s0.4-1.9,1.1-2.6S9,6.3,10,6.3s1.9,0.4,2.6,1.1c0.7,0.7,1.1,1.6,1.1,2.6
		s-0.4,1.9-1.1,2.6C11.9,13.3,11,13.7,10,13.7L10,13.7z"/>
</g>
</svg>
