<?xml version="1.0" encoding="utf-8"?>
<!-- Generator: Adobe Illustrator 23.0.3, SVG Export Plug-In . SVG Version: 6.00 Build 0)  -->
<svg version="1.1" id="圖層_1" xmlns="http://www.w3.org/2000/svg" xmlns:xlink="http://www.w3.org/1999/xlink" x="0px" y="0px"
	 width="14.3px" height="15.9px" viewBox="0 0 14.3 15.9" style="enable-background:new 0 0 14.3 15.9;" xml:space="preserve">
<style type="text/css">
	.st0{fill:url(#SVGID_1_);}
	.st1{fill:url(#SVGID_2_);}
	.st2{fill:url(#SVGID_3_);}
	.st3{fill:url(#SVGID_4_);}
	.st4{fill:url(#SVGID_5_);}
	.st5{fill:url(#SVGID_6_);}
	.st6{fill:#FFFFFF;}
	.st7{fill:url(#SVGID_7_);}
	.st8{clip-path:url(#SVGID_9_);fill:url(#SVGID_10_);}
	.st9{clip-path:url(#SVGID_9_);fill:url(#SVGID_11_);}
	.st10{clip-path:url(#SVGID_9_);fill:url(#SVGID_12_);}
	.st11{clip-path:url(#SVGID_9_);fill:url(#SVGID_13_);}
	.st12{clip-path:url(#SVGID_15_);fill:url(#SVGID_16_);}
	.st13{clip-path:url(#SVGID_15_);fill:url(#SVGID_17_);}
	.st14{clip-path:url(#SVGID_15_);fill:url(#SVGID_18_);}
	.st15{clip-path:url(#SVGID_15_);fill:url(#SVGID_19_);}
	.st16{clip-path:url(#SVGID_15_);fill:url(#SVGID_20_);}
	.st17{clip-path:url(#SVGID_22_);fill:url(#SVGID_23_);}
	.st18{clip-path:url(#SVGID_22_);fill:url(#SVGID_24_);}
	.st19{clip-path:url(#SVGID_22_);}
	.st20{fill:url(#SVGID_25_);}
	.st21{fill:url(#SVGID_26_);}
	.st22{clip-path:url(#SVGID_22_);fill:url(#SVGID_27_);}
	.st23{clip-path:url(#SVGID_22_);fill:url(#SVGID_28_);}
</style>
<g>
	<g>
		<g>
			<radialGradient id="SVGID_1_" cx="7.1522" cy="7.9179" r="7.1292" gradientUnits="userSpaceOnUse">
				<stop  offset="0" style="stop-color:#44160D"/>
				<stop  offset="0.1856" style="stop-color:#5E190B"/>
				<stop  offset="0.5823" style="stop-color:#9F2206"/>
				<stop  offset="1" style="stop-color:#EB2C00"/>
			</radialGradient>
			<path class="st0" d="M13.9,6.3V1.3c-2.8-1-6.7-0.8-6.7-0.8S3.2,0.3,0.4,1.3v5.1c0,0-0.5,6.1,6.7,9.1C14.4,12.4,13.9,6.3,13.9,6.3
				z"/>
			<linearGradient id="SVGID_2_" gradientUnits="userSpaceOnUse" x1="0" y1="7.9343" x2="14.3043" y2="7.9343">
				<stop  offset="0.4071" style="stop-color:#FFFFAD"/>
				<stop  offset="0.5336" style="stop-color:#F2E89B"/>
				<stop  offset="0.7272" style="stop-color:#E0CA83"/>
				<stop  offset="0.837" style="stop-color:#DABF7A"/>
				<stop  offset="0.8832" style="stop-color:#D8BC78"/>
				<stop  offset="0.9216" style="stop-color:#D2B174"/>
				<stop  offset="0.9571" style="stop-color:#C8A06B"/>
				<stop  offset="0.9908" style="stop-color:#BB8860"/>
				<stop  offset="1" style="stop-color:#B6805C"/>
			</linearGradient>
			<path class="st1" d="M7.2,15.9L7,15.8c-7.4-3.1-7-9.4-7-9.5L0,1l0.3-0.1C3.1-0.1,7,0,7.2,0c0.1,0,4-0.2,6.9,0.9L14.3,1v5.4
				c0,0.4,0.2,6.5-7,9.5L7.2,15.9z M0.8,1.6v4.8c0,0.3-0.4,5.8,6.3,8.6c6.7-2.8,6.3-8.4,6.3-8.6l0,0V1.6c-2.7-0.9-6.3-0.7-6.3-0.7
				C7.1,0.8,3.5,0.7,0.8,1.6z"/>
		</g>
	</g>
	<g>
		<path class="st6" d="M10.4,9.6c-0.1,0.6-0.3,0.7-1,0.7H6.2c-1,0-1.2-0.1-1.2-0.7v-1h3V5.5H4.3C4.5,5.2,4.7,5,4.9,4.7h4.7
			C9.5,7,9.4,7.8,9.2,8C9.2,8.1,9.1,8.2,8.9,8.2c-0.1,0-0.3,0-0.5,0v1.1c0.4,0,0.8,0,1.1,0c0.3,0,0.5-0.1,0.7-0.4
			c0.3-0.4,0.4-1.5,0.5-4.6c0-0.1,0-0.5,0-0.5H5.6c0.1-0.1,0.2-0.3,0.2-0.4L4.9,2.3l0,0C4.3,3.6,3.4,4.8,2.3,5.6l0.9,0.9
			c0.2-0.2,0.4-0.4,0.6-0.6v3.7c0,1.4,0.5,1.7,2.4,1.7h3.2c1.5,0,1.9-0.4,2.1-1.8H10.4z M5,6.5h1.9v1.1H5V6.5z"/>
		<linearGradient id="SVGID_3_" gradientUnits="userSpaceOnUse" x1="1.8171" y1="6.8413" x2="12.0833" y2="6.8413">
			<stop  offset="0" style="stop-color:#311113"/>
			<stop  offset="0.663" style="stop-color:#751113"/>
			<stop  offset="1" style="stop-color:#311113"/>
		</linearGradient>
		<path class="st2" d="M4.9,2.3L4.9,2.3l0.9,0.9C5.7,3.4,5.6,3.5,5.6,3.6h5.2c0,0,0,0.3,0,0.5c-0.1,3.1-0.2,4.3-0.5,4.6
			c-0.2,0.3-0.4,0.4-0.7,0.4c-0.2,0-0.4,0-0.7,0c-0.1,0-0.3,0-0.4,0V8.2c0.1,0,0.2,0,0.3,0c0.1,0,0.1,0,0.1,0c0,0,0,0,0,0
			c0.1,0,0.2,0,0.3-0.1c0.2-0.2,0.2-1,0.3-3.3H4.9C4.7,5,4.5,5.2,4.3,5.5h3.8v3.2H5v1c0,0.6,0.2,0.7,1.2,0.7h3.1
			c0.7,0,0.9-0.1,1-0.7h1.2c-0.2,1.4-0.6,1.8-2.1,1.8H6.2c-1.8,0-2.4-0.4-2.4-1.7V5.9C3.7,6.1,3.5,6.3,3.3,6.5L2.3,5.6
			C3.4,4.8,4.3,3.6,4.9,2.3 M5,7.6h1.9V6.5H5V7.6 M11.6,9.6L11.6,9.6 M4.9,1.8c-0.2,0-0.4,0.1-0.5,0.3C3.9,3.3,3,4.4,2,5.2
			C1.9,5.2,1.8,5.4,1.8,5.5S1.9,5.8,2,6l0.9,0.9C3,7,3.1,7,3.3,7c0,0,0.1,0,0.1,0v2.6c0,1.9,1.1,2.3,2.9,2.3h3.2
			c1.7,0,2.4-0.6,2.6-2.2c0,0,0-0.1,0-0.1c0-0.3-0.2-0.5-0.5-0.5h0h-0.8c0,0,0,0,0,0c0.3-0.5,0.4-1.4,0.5-4.9c0-0.1,0-0.5,0-0.5
			c0-0.1,0-0.3-0.1-0.4c-0.1-0.1-0.2-0.2-0.4-0.2H6.3c0-0.1-0.1-0.2-0.1-0.3L5.2,1.9C5.2,1.9,5.1,1.8,5,1.8C5,1.8,4.9,1.8,4.9,1.8
			L4.9,1.8z M8.6,5.3H9c0,0.8-0.1,2-0.2,2.4c0,0,0,0,0,0c-0.1,0-0.1,0-0.2,0V5.5C8.6,5.4,8.6,5.3,8.6,5.3L8.6,5.3z M5.6,7h0.8v0
			L5.6,7L5.6,7L5.6,7z M5.6,9.2H8v0.1c0,0.2,0.1,0.4,0.4,0.5H6.2c-0.4,0-0.6,0-0.7,0c0,0,0-0.1,0-0.1V9.2L5.6,9.2z M9.6,9.7
			C9.6,9.7,9.7,9.7,9.6,9.7c0.1,0,0.1,0,0.2,0C9.8,9.7,9.7,9.7,9.6,9.7L9.6,9.7z"/>
	</g>
</g>
</svg>
