<?xml version="1.0" encoding="utf-8"?>
<!-- Generator: Adobe Illustrator 22.1.0, SVG Export Plug-In . SVG Version: 6.00 Build 0)  -->
<svg version="1.1" id="圖層_1" xmlns="http://www.w3.org/2000/svg" xmlns:xlink="http://www.w3.org/1999/xlink" x="0px" y="0px"
	 width="22px" height="22px" viewBox="0 0 22 22" style="enable-background:new 0 0 22 22;" xml:space="preserve">
<style type="text/css">
	.st0{fill:#FFFFFF;}
</style>
<path class="st0" d="M16.6,18.2l3.5,3.5c0.4,0.4,1.2,0.4,1.6,0s0.4-1.2,0-1.6l-3.5-3.5c0.8-0.8,1.6-1.6,2.2-2.2
	c0.3-0.3,0.1-0.7-0.3-0.7c-2,0-4,0-5.9-0.1c-0.2,0-0.4,0.2-0.4,0.4v6c0,0.4,0.4,0.5,0.7,0.3C14.9,19.8,15.7,19,16.6,18.2z"/>
<path class="st0" d="M5.4,18.2l-3.5,3.5c-0.4,0.4-1.2,0.4-1.6,0s-0.4-1.2,0-1.6l3.5-3.5C3,15.8,2.2,15,1.6,14.4
	c-0.3-0.3-0.1-0.7,0.3-0.7c2,0,4,0,5.9-0.1c0.2,0,0.4,0.2,0.4,0.4v6c0,0.4-0.4,0.5-0.7,0.3C7.1,19.8,6.3,19,5.4,18.2z"/>
<path class="st0" d="M5.4,3.8L1.9,0.3c-0.4-0.4-1.2-0.4-1.6,0s-0.4,1.2,0,1.6l3.5,3.5C3,6.3,2.2,7.1,1.7,7.6C1.4,7.9,1.6,8.3,2,8.3
	c2,0,4,0,5.9,0.1c0.2,0,0.4-0.2,0.4-0.4V2c0-0.4-0.4-0.5-0.7-0.3C7.1,2.2,6.3,3,5.4,3.8z"/>
<path class="st0" d="M16.6,3.8L20,0.3c0.4-0.4,1.2-0.4,1.6,0s0.4,1.2,0,1.6l-3.5,3.5c0.8,0.8,1.6,1.6,2.2,2.2
	c0.3,0.3,0.1,0.7-0.3,0.7c-2,0-4,0-5.9,0.1c-0.2,0-0.4-0.2-0.4-0.4V2c0-0.4,0.4-0.5,0.7-0.3C14.9,2.2,15.7,3,16.6,3.8z"/>
</svg>
