<svg id="圖層_1" data-name="圖層 1" xmlns="http://www.w3.org/2000/svg" xmlns:xlink="http://www.w3.org/1999/xlink" viewBox="0 0 17.56 17.56"><defs><style>.cls-1{fill:url(#未命名漸層);}.cls-2{fill:url(#未命名漸層_2);}</style><linearGradient id="未命名漸層" x1="8.78" y1="6.08" x2="8.78" y2="16.36" gradientTransform="matrix(1, 0, 0, -1, 0, 20)" gradientUnits="userSpaceOnUse"><stop offset="0" stop-color="#563d29"/><stop offset="1" stop-color="#f2bd79"/></linearGradient><linearGradient id="未命名漸層_2" x1="0" y1="11.22" x2="17.56" y2="11.22" xlink:href="#未命名漸層"/></defs><g id="kit"><path class="cls-1" d="M8.85,13.92a.94.94,0,0,0,.87-.87v-.72a2,2,0,0,0,1.88-1.88C11.46,8.86,10.15,8.28,8.85,8S7.26,7.26,7.26,6.83c0-.58.58-1,1.45-1,.72,0,1.16.29,1.3.72a.46.46,0,0,0,.43.43h.14c.43,0,.58-.29.43-.72A2.6,2.6,0,0,0,9.43,4.8V4.51a.68.68,0,0,0-.72-.87.84.84,0,0,0-.87.87v.43C6.82,5.23,6,5.81,6,7S7,8.85,8.57,9.29c1.3.29,1.59.87,1.59,1.3s-.29,1-1.45,1a1.7,1.7,0,0,1-1.59-.72c-.14-.14-.29-.43-.43-.43H6.54a.48.48,0,0,0-.43.72A2.83,2.83,0,0,0,8,12.62v.43A.92.92,0,0,0,8.85,13.92Z"/><path class="cls-2" d="M8.78,17.56a8.78,8.78,0,1,1,8.78-8.78A8.79,8.79,0,0,1,8.78,17.56Zm0-16.11a7.33,7.33,0,1,0,7.33,7.33A7.34,7.34,0,0,0,8.78,1.45Z"/></g></svg>