<?xml version="1.0" encoding="utf-8"?>
<!-- Generator: Adobe Illustrator 23.0.3, SVG Export Plug-In . SVG Version: 6.00 Build 0)  -->
<svg version="1.1" id="圖層_1" xmlns="http://www.w3.org/2000/svg" xmlns:xlink="http://www.w3.org/1999/xlink" x="0px" y="0px"
	 viewBox="0 0 19 19" style="enable-background:new 0 0 19 19;" xml:space="preserve">
<style type="text/css">
	.st0{fill:#0000FF;}
	.st1{fill:none;}
	.st2{fill:#FFFFFF;}
</style>
<title>未命名-1</title>
<circle class="st0" cx="9.5" cy="9.5" r="9.5"/>
<path class="st1" d="M12.1,15.7c-0.1-0.3-0.2-0.6-0.4-1l0.7-1.2c0.2,0,0.4,0,0.6,0c0.1,0,0.1,0,0.2,0v-0.2c0,0-0.1,0-0.1,0.1
	l-1.2-0.2c-0.2-0.4-0.5-0.8-0.9-1.2v0.2c0,0.7,0,1.4,0.1,2.1l-0.8,0.8H9.1l-0.8-0.8c0-0.5,0-1.1,0-1.6c-0.4,0.5-0.8,1-1.2,1.4L6,14
	v1.2L5.2,16H4l-0.8-0.8c0.1-0.7,0.1-1.4,0.1-2V7.6c0-0.5,0-1-0.1-1.5L4,5.3H5C4.8,5.1,4.6,4.8,4.4,4.6l0.3-1.2
	C5.1,3.2,5.3,3.1,5.4,3L6.6,3c0.3,0.4,0.7,0.8,1,1.3l0.8-0.7c0.7,0,1.5,0,2.5,0h4.2l0.8,0.8c0,0.7-0.1,1.3-0.1,2v7.4
	c0.1,1.4-0.6,1.9-1.1,2.1c-0.5,0.2-1.1,0.3-1.7,0.4L12.1,15.7z M6,11.4c0.2-0.2,0.5-0.5,0.7-0.8C7,10.3,7.2,10,7.5,9.5
	c-0.4,0-0.9,0-1.3,0L6,9.4V11.4z M12.3,9.5c0.3,0.3,0.6,0.6,0.9,0.9V9.5l-0.1,0C12.8,9.6,12.6,9.5,12.3,9.5z M6,6.4
	c0,0.3,0,0.6,0,0.8L6.2,7c0.8,0,1.5,0.1,2,0.1h0.2c0-0.3,0-0.7,0-0.9L7.8,5.7L7.6,6.1C7.2,6.2,6.9,6.4,6.7,6.6L6,6.4z M11.4,7.1
	c0.5,0,1.1,0,1.7,0l0.1,0V6.1h-2.1c0,0.3,0,0.6,0,0.9C11,7.1,11.4,7.1,11.4,7.1z"/>
<path class="st2" d="M5.2,7.6v7.6H4c0.1-0.8,0.1-1.4,0.1-2V7.6c0-0.6,0-1.1-0.1-1.6h1.2C5.2,6.6,5.2,7.1,5.2,7.6z M7.3,5.4
	C6.9,5.6,6.5,5.7,6.2,5.9C6,5.3,5.6,4.7,5.1,4.1C5.5,3.9,5.8,3.7,6,3.5C6.5,4.1,6.9,4.7,7.3,5.4z M9.2,7.8c0-0.7,0-1.3-0.1-1.7h1.2
	c0,0.6-0.1,1.2-0.1,1.7h1.2c0.5,0,1.1,0,1.7-0.1v1c-0.6,0-1.1-0.1-1.7-0.1h-1.2v3.5c0,0.7,0,1.4,0.1,2.1H9.1c0-0.7,0.1-1.4,0.1-2.1
	v-2c-0.8,1.3-1.7,2.5-2.6,3.4C6.3,13.2,6,13,5.6,12.8c0.6-0.4,1.1-1,1.7-1.7c0.5-0.7,1-1.5,1.5-2.4c-0.9,0-1.8,0-2.6,0.1v-1
	c0.8,0,1.5,0.1,2,0.1H9.2z M15.1,4.4c0,0.7-0.1,1.3-0.1,2v7.4c0,0.8-0.2,1.2-0.6,1.4c-0.4,0.2-0.9,0.3-1.5,0.3
	c-0.1-0.4-0.2-0.8-0.5-1.2c0.7,0,1.2,0,1.4-0.1c0.2-0.1,0.3-0.3,0.2-0.7V5.4h-3c-1.1,0-2,0-2.7,0.1V4.4c0.7,0,1.5,0.1,2.6,0.1
	L15.1,4.4L15.1,4.4z M13.5,12.1c-0.1,0.1-0.4,0.4-0.9,0.8c-0.4-0.7-1.1-1.6-2-2.6c0.2-0.2,0.5-0.4,0.7-0.6
	C12.2,10.6,12.9,11.4,13.5,12.1z"/>
</svg>
