<?xml version="1.0" encoding="utf-8"?>
<!-- Generator: Adobe Illustrator 23.0.3, SVG Export Plug-In . SVG Version: 6.00 Build 0)  -->
<svg version="1.1" id="圖層_1" xmlns="http://www.w3.org/2000/svg" xmlns:xlink="http://www.w3.org/1999/xlink" x="0px" y="0px"
	 width="34.1px" height="34.1px" viewBox="0 0 34.1 34.1" style="enable-background:new 0 0 34.1 34.1;" xml:space="preserve">
<style type="text/css">
	.st0{fill:#C3982E;}
	.st1{fill:url(#SVGID_1_);}
</style>
<g>
	<g>
		<path class="st0" d="M15.6,18.4l-0.4-6.4C15.1,10.7,15,9.8,15,9.2c0-0.7,0.2-1.3,0.6-1.7c0.4-0.4,0.9-0.6,1.5-0.6
			c0.8,0,1.3,0.3,1.5,0.8c0.3,0.5,0.4,1.3,0.4,2.3c0,0.6,0,1.2-0.1,1.8l-0.6,6.6c-0.1,0.8-0.2,1.4-0.4,1.8c-0.2,0.4-0.5,0.6-1,0.6
			c-0.5,0-0.8-0.2-1-0.6C15.8,19.8,15.6,19.2,15.6,18.4z M17.1,27.2c-0.5,0-1-0.2-1.4-0.5c-0.4-0.4-0.6-0.8-0.6-1.5
			c0-0.6,0.2-1,0.6-1.4c0.4-0.4,0.9-0.6,1.4-0.6s1,0.2,1.4,0.6c0.4,0.4,0.6,0.9,0.6,1.4c0,0.6-0.2,1.1-0.6,1.5
			C18.1,27,17.6,27.2,17.1,27.2z"/>
	</g>
	<linearGradient id="SVGID_1_" gradientUnits="userSpaceOnUse" x1="0" y1="17.0437" x2="34.0874" y2="17.0437">
		<stop  offset="0" style="stop-color:#563D29"/>
		<stop  offset="8.327883e-02" style="stop-color:#725437"/>
		<stop  offset="0.219" style="stop-color:#99744B"/>
		<stop  offset="0.3598" style="stop-color:#B98E5C"/>
		<stop  offset="0.5045" style="stop-color:#D2A369"/>
		<stop  offset="0.655" style="stop-color:#E4B272"/>
		<stop  offset="0.8148" style="stop-color:#EFBA77"/>
		<stop  offset="1" style="stop-color:#F2BD79"/>
	</linearGradient>
	<path class="st1" d="M17,34.1c-9.4,0-17-7.6-17-17S7.6,0,17,0c9.4,0,17,7.6,17,17S26.4,34.1,17,34.1z M17,2C8.7,2,2,8.7,2,17
		C2,25.3,8.7,32.1,17,32.1c8.3,0,15.1-6.8,15.1-15.1C32.1,8.7,25.3,2,17,2z"/>
</g>
</svg>
