<?xml version="1.0" encoding="utf-8"?>
<!-- Generator: Adobe Illustrator 25.2.3, SVG Export Plug-In . SVG Version: 6.00 Build 0)  -->
<svg version="1.1" id="圖層_1" xmlns="http://www.w3.org/2000/svg" xmlns:xlink="http://www.w3.org/1999/xlink" x="0px" y="0px"
	 viewBox="0 0 27 27" style="enable-background:new 0 0 27 27;" xml:space="preserve">
<style type="text/css">
	.st0{fill:url(#SVGID_1_);stroke:url(#SVGID_2_);stroke-width:2;stroke-miterlimit:10;}
	.st1{fill:#FFFFFF;}
</style>
<g>
	<linearGradient id="SVGID_1_" gradientUnits="userSpaceOnUse" x1="13.5" y1="26" x2="13.5" y2="1">
		<stop  offset="0" style="stop-color:#563D29"/>
		<stop  offset="1" style="stop-color:#F2BD79"/>
	</linearGradient>
	<linearGradient id="SVGID_2_" gradientUnits="userSpaceOnUse" x1="13.5" y1="0" x2="13.5" y2="27">
		<stop  offset="0" style="stop-color:#42210B"/>
		<stop  offset="0.5131" style="stop-color:#14100B"/>
		<stop  offset="1" style="stop-color:#000000"/>
	</linearGradient>
	<circle class="st0" cx="13.5" cy="13.5" r="12.5"/>
	<g>
		<g>
			<path class="st1" d="M15.97,20.56h-5.01V20c0.7,0,1.05-0.27,1.05-0.81v-6.67c0-0.34-0.08-0.55-0.23-0.64
				c-0.14-0.09-0.4-0.13-0.79-0.13V11.2c1.61,0,2.91-0.22,3.9-0.66v8.55c0,0.6,0.36,0.9,1.07,0.9V20.56z M15.08,8.01
				c0,0.45-0.16,0.84-0.49,1.15c-0.33,0.33-0.73,0.49-1.21,0.49c-0.48,0-0.88-0.16-1.21-0.49c-0.34-0.31-0.51-0.7-0.51-1.15
				s0.17-0.83,0.51-1.13c0.33-0.31,0.73-0.47,1.21-0.47c0.48,0,0.89,0.16,1.22,0.47C14.93,7.18,15.08,7.56,15.08,8.01z"/>
		</g>
		<g>
			<path d="M15.97,20.56h-5.01V20c0.7,0,1.05-0.27,1.05-0.81v-6.67c0-0.34-0.08-0.55-0.23-0.64c-0.14-0.09-0.4-0.13-0.79-0.13V11.2
				c1.61,0,2.91-0.22,3.9-0.66v8.55c0,0.6,0.36,0.9,1.07,0.9V20.56z M15.08,8.01c0,0.45-0.16,0.84-0.49,1.15
				c-0.33,0.33-0.73,0.49-1.21,0.49c-0.48,0-0.88-0.16-1.21-0.49c-0.34-0.31-0.51-0.7-0.51-1.15s0.17-0.83,0.51-1.13
				c0.33-0.31,0.73-0.47,1.21-0.47c0.48,0,0.89,0.16,1.22,0.47C14.93,7.18,15.08,7.56,15.08,8.01z"/>
		</g>
	</g>
</g>
</svg>
