<?xml version="1.0" encoding="utf-8"?>
<!-- Generator: Adobe Illustrator 25.2.3, SVG Export Plug-In . SVG Version: 6.00 Build 0)  -->
<svg version="1.1" id="圖層_1" xmlns="http://www.w3.org/2000/svg" xmlns:xlink="http://www.w3.org/1999/xlink" x="0px" y="0px"
	 viewBox="0 0 17.3 19.2" enable-background="new 0 0 17.3 19.2" xml:space="preserve">
<g>
	<linearGradient id="SVGID_1_" gradientUnits="userSpaceOnUse" x1="7.2404" y1="8.8183" x2="7.2404" y2="0">
		<stop  offset="0" style="stop-color:#563D29"/>
		<stop  offset="1" style="stop-color:#F2BD79"/>
	</linearGradient>
	<path fill="url(#SVGID_1_)" d="M7.2,8.8c2.4,0,4.4-2,4.4-4.4S9.7,0,7.2,0C4.8,0,2.8,2,2.8,4.4S4.8,8.8,7.2,8.8z"/>
	<linearGradient id="SVGID_2_" gradientUnits="userSpaceOnUse" x1="5.8423" y1="16.1925" x2="5.8423" y2="10.3935">
		<stop  offset="0" style="stop-color:#563D29"/>
		<stop  offset="1" style="stop-color:#F2BD79"/>
	</linearGradient>
	<path fill="url(#SVGID_2_)" d="M8.9,13.4h2.8v-2.1c-1.2-0.7-2.8-1-4.4-1c-4,0-7.2,1.8-7.2,5.8h8.9V13.4z"/>
	<linearGradient id="SVGID_3_" gradientUnits="userSpaceOnUse" x1="13.9937" y1="19.1714" x2="13.9937" y2="12.2583">
		<stop  offset="0" style="stop-color:#563D29"/>
		<stop  offset="1" style="stop-color:#F2BD79"/>
	</linearGradient>
	<polygon fill="url(#SVGID_3_)" points="10.7,16.2 13.5,16.2 13.5,16.2 13.5,19.2 14.5,19.2 14.5,16.2 17.3,16.2 17.3,15.3 
		14.5,15.3 14.5,12.3 13.5,12.3 13.5,12.9 13.5,15.3 10.7,15.3 	"/>
</g>
</svg>
