<?xml version="1.0" encoding="utf-8"?>
<!-- Generator: Adobe Illustrator 23.0.3, SVG Export Plug-In . SVG Version: 6.00 Build 0)  -->
<svg version="1.1" id="圖層_1" xmlns="http://www.w3.org/2000/svg" xmlns:xlink="http://www.w3.org/1999/xlink" x="0px" y="0px"
	 width="24.4px" height="21.4px" viewBox="0 0 24.4 21.4" style="enable-background:new 0 0 24.4 21.4;" xml:space="preserve">
<style type="text/css">
	.st0{fill:url(#SVGID_1_);}
	.st1{fill:#FFFFFF;}
	.st2{fill-rule:evenodd;clip-rule:evenodd;fill:#FFFFFF;}
	.st3{fill-rule:evenodd;clip-rule:evenodd;fill:url(#SVGID_2_);}
	.st4{fill-rule:evenodd;clip-rule:evenodd;fill:url(#SVGID_3_);}
	.st5{fill:none;stroke:#FFFFFF;stroke-width:1.4286;}
	.st6{fill:none;stroke:#FFFFFF;stroke-width:1.2;stroke-miterlimit:10;}
	.st7{fill:#BCBCBC;stroke:#FFFFFF;stroke-width:1.2;stroke-linecap:round;stroke-linejoin:round;stroke-miterlimit:10;}
	.st8{fill:none;stroke:#FFFFFF;stroke-width:1.2;stroke-linecap:round;stroke-linejoin:round;stroke-miterlimit:10;}
	.st9{fill:url(#SVGID_4_);}
	.st10{fill:url(#SVGID_5_);}
	.st11{fill:url(#SVGID_6_);}
	.st12{fill:url(#SVGID_7_);}
	.st13{fill:url(#SVGID_8_);}
	.st14{fill:url(#SVGID_9_);}
	.st15{fill:url(#SVGID_10_);}
	.st16{fill:url(#SVGID_11_);}
	.st17{fill:url(#SVGID_12_);stroke:url(#SVGID_13_);stroke-width:0.9455;stroke-miterlimit:10;}
	.st18{fill:url(#SVGID_14_);}
	.st19{fill:url(#SVGID_15_);}
	.st20{fill:url(#SVGID_16_);}
	.st21{fill:url(#SVGID_17_);}
	.st22{fill:#808080;}
	.st23{fill:#0F1418;}
	.st24{fill:url(#SVGID_18_);}
	.st25{fill-rule:evenodd;clip-rule:evenodd;}
	.st26{fill-rule:evenodd;clip-rule:evenodd;fill:url(#SVGID_19_);}
	.st27{fill-rule:evenodd;clip-rule:evenodd;fill:url(#SVGID_20_);}
	.st28{fill:none;stroke:#000000;stroke-width:1.4286;}
	.st29{fill:url(#SVGID_21_);}
	.st30{fill:url(#SVGID_22_);}
	.st31{fill:url(#SVGID_23_);}
	.st32{fill:url(#SVGID_24_);}
	.st33{fill:url(#SVGID_25_);}
	.st34{fill:url(#SVGID_26_);}
	.st35{fill:url(#SVGID_27_);}
	.st36{fill:url(#SVGID_28_);}
	.st37{fill:url(#SVGID_29_);}
	.st38{fill:url(#SVGID_30_);}
	.st39{fill:url(#SVGID_31_);}
	.st40{fill:url(#SVGID_32_);}
	.st41{fill:url(#SVGID_33_);}
</style>
<g>
	<path d="M13.8,0C9.9,0.7,6.4,2.8,1.7,0.7c0.1,0.2,0.1,0.4,0.2,0.6H0.7L0.6,1H0l5.8,20.4h0.6l-2.6-9.1H5c0.1,0.3,0.1,0.5,0.2,0.8
		c4.7,2.1,8.3,0,12.2-0.7C16.2,8.2,15,4.1,13.8,0z M6.3,2.3c1.3,0,2.6-0.3,3.8-0.6c0.3,1.2,0.7,2.4,1,3.5C9.9,5.5,8.6,5.8,7.3,5.8
		C7,4.6,6.6,3.4,6.3,2.3z M3.7,11.8l-2.8-10H2c0.9,3.3,1.9,6.7,2.8,10H3.7z M4.6,8.8C4.3,7.6,4,6.5,3.6,5.3C4.9,5.8,6.2,6,7.3,5.9
		c0.3,1.2,0.7,2.3,1,3.5C7.1,9.4,5.9,9.3,4.6,8.8z M13.3,12.7c-1.2,0.3-2.5,0.6-3.8,0.6c-0.3-1.2-0.7-2.4-1-3.5
		c1.3,0,2.6-0.3,3.8-0.6C12.6,10.3,12.9,11.5,13.3,12.7z M15.4,7.9c-1.1,0.2-2.2,0.6-3.3,0.9c-0.3-1.2-0.7-2.3-1-3.5
		c1.1-0.3,2.2-0.6,3.3-0.9C14.8,5.6,15.1,6.8,15.4,7.9z M14.9,2C15,2.2,15,2.4,15.1,2.6c0.5-0.1,1-0.1,1.5-0.1
		c0.3,1.2,0.7,2.4,1,3.5c-0.5,0-1,0.1-1.5,0.1c0.4,1.3,0.8,2.7,1.1,4c0.5-0.1,1-0.1,1.5-0.1c0.3,1.2,0.7,2.4,1,3.5
		c-1.3,0-2.6,0.3-3.8,0.6c-0.1-0.3-0.2-0.6-0.2-0.8c-1.3,0.3-2.6,0.7-3.9,1c0.1,0.5,0.3,1,0.4,1.5c3.9-0.7,7.5-2.8,12.2-0.7
		c-1.2-4.1-2.3-8.2-3.5-12.4C18.7,1.8,16.8,1.7,14.9,2z M22.4,10.3c-1.3-0.5-2.5-0.6-3.7-0.6c-0.3-1.2-0.7-2.3-1-3.5
		c1.2,0,2.4,0.1,3.7,0.6C21.7,8,22.1,9.1,22.4,10.3z"/>
</g>
</svg>
