<svg id="圖層_1" data-name="圖層 1" xmlns="http://www.w3.org/2000/svg" xmlns:xlink="http://www.w3.org/1999/xlink" viewBox="0 0 351 106"><defs><style>.cls-1,.cls-2{fill:#fff;}.cls-1{stroke:#b2b2b2;}.cls-1,.cls-10,.cls-7,.cls-8,.cls-9{stroke-miterlimit:10;}.cls-3{fill:#005dff;}.cls-4{fill:red;}.cls-5{fill:#ff302a;}.cls-10,.cls-6,.cls-7,.cls-8,.cls-9{fill:none;}.cls-6{stroke:#14b045;stroke-linejoin:round;stroke-width:2.7px;}.cls-6,.cls-8,.cls-9{stroke-linecap:round;}.cls-7{stroke:#000;}.cls-8{stroke:#005dff;}.cls-8,.cls-9{stroke-width:1.66px;}.cls-9{stroke:#ff302a;}.cls-10{stroke-width:0.8px;stroke:url(#未命名漸層);}</style><linearGradient id="未命名漸層" x1="0.5" y1="107.58" x2="350.5" y2="107.58" gradientTransform="matrix(1, 0, 0, -1, 0, 108)" gradientUnits="userSpaceOnUse"><stop offset="0" stop-color="#b47c24" stop-opacity="0"/><stop offset="0.5" stop-color="#f2d77a"/><stop offset="1" stop-color="#b47c24" stop-opacity="0"/></linearGradient></defs><g id="圖層_1-2" data-name="圖層 1"><rect class="cls-1" x="0.5" y="0.5" width="17.5" height="17.5"/><rect class="cls-1" x="0.5" y="18" width="17.5" height="17.5"/><rect class="cls-1" x="0.5" y="35.5" width="17.5" height="17.5"/><rect class="cls-1" x="0.5" y="53" width="17.5" height="17.5"/><rect class="cls-1" x="0.5" y="70.5" width="17.5" height="17.5"/><rect class="cls-1" x="0.5" y="88" width="17.5" height="17.5"/><rect class="cls-1" x="18" y="0.5" width="17.5" height="17.5"/><rect class="cls-1" x="18" y="18" width="17.5" height="17.5"/><path class="cls-2" d="M26.75,34.38a7.63,7.63,0,1,1,7.61-7.64A7.64,7.64,0,0,1,26.75,34.38Z"/><path class="cls-3" d="M26.75,20.25a6.5,6.5,0,1,1-6.5,6.5,6.51,6.51,0,0,1,6.5-6.5m0-2.25A8.75,8.75,0,0,0,18,26.75h0a8.75,8.75,0,0,0,17.5,0h0A8.75,8.75,0,0,0,26.75,18Z"/><rect class="cls-1" x="18" y="35.5" width="17.5" height="17.5"/><rect class="cls-1" x="18" y="53" width="17.5" height="17.5"/><rect class="cls-1" x="18" y="70.5" width="17.5" height="17.5"/><rect class="cls-1" x="18" y="88" width="17.5" height="17.5"/><rect class="cls-1" x="35.5" y="0.5" width="17.5" height="17.5"/><rect class="cls-1" x="35.5" y="18" width="17.5" height="17.5"/><rect class="cls-1" x="35.5" y="35.5" width="17.5" height="17.5"/><rect class="cls-1" x="35.5" y="53" width="17.5" height="17.5"/><rect class="cls-1" x="35.5" y="70.5" width="17.5" height="17.5"/><rect class="cls-1" x="35.5" y="88" width="17.5" height="17.5"/><rect class="cls-1" x="53" y="0.5" width="17.5" height="17.5"/><rect class="cls-1" x="53" y="18" width="17.5" height="17.5"/><rect class="cls-1" x="53" y="35.5" width="17.5" height="17.5"/><rect class="cls-1" x="53" y="53" width="17.5" height="17.5"/><rect class="cls-1" x="53" y="70.5" width="17.5" height="17.5"/><rect class="cls-1" x="53" y="88" width="17.5" height="17.5"/><rect class="cls-1" x="70.5" y="0.5" width="17.5" height="17.5"/><rect class="cls-1" x="70.5" y="18" width="17.5" height="17.5"/><rect class="cls-1" x="70.5" y="35.5" width="17.5" height="17.5"/><path class="cls-2" d="M79.25,34.38a7.63,7.63,0,1,1,7.62-7.64A7.63,7.63,0,0,1,79.25,34.38Z"/><path class="cls-4" d="M79.25,20.25a6.5,6.5,0,1,1-6.5,6.5,6.51,6.51,0,0,1,6.5-6.5m0-2.25h0a8.75,8.75,0,0,0-8.75,8.75h0a8.75,8.75,0,0,0,8.75,8.75h0A8.75,8.75,0,0,0,88,26.75h0A8.75,8.75,0,0,0,79.25,18Z"/><circle class="cls-2" cx="79.25" cy="44.25" r="7.62"/><path class="cls-4" d="M79.25,37.75a6.5,6.5,0,1,1-6.5,6.5,6.51,6.51,0,0,1,6.5-6.5m0-2.25h0a8.75,8.75,0,0,0-8.75,8.75h0A8.75,8.75,0,0,0,79.25,53h0A8.75,8.75,0,0,0,88,44.25h0a8.75,8.75,0,0,0-8.75-8.75Z"/><rect class="cls-1" x="70.5" y="53" width="17.5" height="17.5"/><rect class="cls-1" x="70.5" y="70.5" width="17.5" height="17.5"/><rect class="cls-1" x="70.5" y="88" width="17.5" height="17.5"/><rect class="cls-2" x="88" y="0.5" width="17.5" height="17.5"/><rect class="cls-1" x="88" y="18" width="17.5" height="17.5"/><rect class="cls-1" x="88" y="35.5" width="17.5" height="17.5"/><rect class="cls-1" x="88" y="53" width="17.5" height="17.5"/><rect class="cls-1" x="88" y="70.5" width="17.5" height="17.5"/><rect class="cls-1" x="88" y="88" width="17.5" height="17.5"/><rect class="cls-1" x="105.5" y="0.5" width="17.5" height="17.5"/><rect class="cls-1" x="105.5" y="18" width="17.5" height="17.5"/><rect class="cls-1" x="105.5" y="35.5" width="17.5" height="17.5"/><rect class="cls-1" x="105.5" y="53" width="17.5" height="17.5"/><rect class="cls-1" x="105.5" y="70.5" width="17.5" height="17.5"/><rect class="cls-1" x="105.5" y="88" width="17.5" height="17.5"/><rect class="cls-1" x="123" y="0.5" width="17.5" height="17.5"/><rect class="cls-1" x="123" y="18" width="17.5" height="17.5"/><rect class="cls-1" x="123" y="35.5" width="17.5" height="17.5"/><rect class="cls-1" x="123" y="53" width="17.5" height="17.5"/><rect class="cls-1" x="123" y="70.5" width="17.5" height="17.5"/><circle class="cls-2" cx="131.75" cy="9.25" r="7.62"/><path class="cls-3" d="M131.75,2.75a6.5,6.5,0,1,1-6.5,6.5,6.51,6.51,0,0,1,6.5-6.5m0-2.25A8.75,8.75,0,0,0,123,9.25h0a8.75,8.75,0,0,0,17.5,0h0A8.75,8.75,0,0,0,131.75.5Z"/><path class="cls-2" d="M131.75,34.38a7.63,7.63,0,1,1,7.62-7.64A7.63,7.63,0,0,1,131.75,34.38Z"/><path class="cls-3" d="M131.75,20.25a6.5,6.5,0,1,1-6.5,6.5,6.51,6.51,0,0,1,6.5-6.5m0-2.25A8.75,8.75,0,0,0,123,26.75h0a8.75,8.75,0,0,0,17.5,0h0A8.75,8.75,0,0,0,131.75,18Z"/><circle class="cls-2" cx="131.75" cy="44.25" r="7.62"/><path class="cls-3" d="M131.75,37.75a6.5,6.5,0,1,1-6.5,6.5,6.51,6.51,0,0,1,6.5-6.5m0-2.25A8.75,8.75,0,0,0,123,44.25h0a8.75,8.75,0,0,0,17.5,0h0a8.75,8.75,0,0,0-8.75-8.75Z"/><circle class="cls-2" cx="131.75" cy="61.75" r="7.62"/><path class="cls-3" d="M131.75,55.25a6.5,6.5,0,1,1-6.5,6.5,6.51,6.51,0,0,1,6.5-6.5m0-2.25A8.75,8.75,0,0,0,123,61.75h0a8.75,8.75,0,0,0,17.5,0h0A8.75,8.75,0,0,0,131.75,53Z"/><circle class="cls-2" cx="131.75" cy="79.25" r="7.62"/><path class="cls-3" d="M131.75,72.75a6.5,6.5,0,1,1-6.5,6.5,6.51,6.51,0,0,1,6.5-6.5m0-2.25A8.75,8.75,0,0,0,123,79.25h0a8.75,8.75,0,0,0,17.5,0h0a8.75,8.75,0,0,0-8.75-8.75Z"/><rect class="cls-1" x="123" y="88" width="17.5" height="17.5"/><rect class="cls-1" x="140.5" y="0.5" width="17.5" height="17.5"/><rect class="cls-1" x="140.5" y="18" width="17.5" height="17.5"/><rect class="cls-1" x="140.5" y="35.5" width="17.5" height="17.5"/><rect class="cls-1" x="140.5" y="53" width="17.5" height="17.5"/><rect class="cls-1" x="140.5" y="70.5" width="17.5" height="17.5"/><rect class="cls-1" x="140.5" y="88" width="17.5" height="17.5"/><rect class="cls-1" x="158" y="0.5" width="17.5" height="17.5"/><rect class="cls-1" x="158" y="18" width="17.5" height="17.5"/><rect class="cls-1" x="158" y="35.5" width="17.5" height="17.5"/><rect class="cls-1" x="158" y="53" width="17.5" height="17.5"/><rect class="cls-1" x="158" y="70.5" width="17.5" height="17.5"/><rect class="cls-1" x="158" y="88" width="17.5" height="17.5"/><rect class="cls-1" x="175.5" y="0.5" width="17.5" height="17.5"/><rect class="cls-1" x="175.5" y="18" width="17.5" height="17.5"/><rect class="cls-1" x="175.5" y="35.5" width="17.5" height="17.5"/><rect class="cls-1" x="175.5" y="53" width="17.5" height="17.5"/><rect class="cls-1" x="175.5" y="70.5" width="17.5" height="17.5"/><rect class="cls-1" x="175.5" y="88" width="17.5" height="17.5"/><rect class="cls-1" x="193" y="0.5" width="17.5" height="17.5"/><rect class="cls-1" x="193" y="18" width="17.5" height="17.5"/><rect class="cls-1" x="193" y="35.5" width="17.5" height="17.5"/><rect class="cls-1" x="193" y="53" width="17.5" height="17.5"/><rect class="cls-1" x="193" y="70.5" width="17.5" height="17.5"/><rect class="cls-1" x="193" y="88" width="17.5" height="17.5"/><rect class="cls-1" x="210.5" y="0.5" width="17.5" height="17.5"/><rect class="cls-1" x="210.5" y="18" width="17.5" height="17.5"/><rect class="cls-1" x="210.5" y="35.5" width="17.5" height="17.5"/><rect class="cls-1" x="210.5" y="53" width="17.5" height="17.5"/><rect class="cls-1" x="210.5" y="70.5" width="17.5" height="17.5"/><rect class="cls-1" x="210.5" y="88" width="17.5" height="17.5"/><rect class="cls-1" x="228" y="0.5" width="17.5" height="17.5"/><rect class="cls-1" x="228" y="18" width="17.5" height="17.5"/><rect class="cls-1" x="228" y="35.5" width="17.5" height="17.5"/><rect class="cls-1" x="228" y="53" width="17.5" height="17.5"/><rect class="cls-1" x="228" y="70.5" width="17.5" height="17.5"/><rect class="cls-1" x="228" y="88" width="17.5" height="17.5"/><rect class="cls-1" x="245.5" y="0.5" width="17.5" height="17.5"/><rect class="cls-1" x="245.5" y="18" width="17.5" height="17.5"/><rect class="cls-1" x="245.5" y="35.5" width="17.5" height="17.5"/><rect class="cls-1" x="245.5" y="53" width="17.5" height="17.5"/><rect class="cls-1" x="245.5" y="70.5" width="17.5" height="17.5"/><rect class="cls-1" x="245.5" y="88" width="17.5" height="17.5"/><rect class="cls-1" x="263" y="0.5" width="17.5" height="17.5"/><rect class="cls-1" x="263" y="18" width="17.5" height="17.5"/><rect class="cls-1" x="263" y="35.5" width="17.5" height="17.5"/><rect class="cls-1" x="263" y="53" width="17.5" height="17.5"/><rect class="cls-1" x="263" y="70.5" width="17.5" height="17.5"/><rect class="cls-1" x="263" y="88" width="17.5" height="17.5"/><rect class="cls-1" x="280.5" y="0.5" width="17.5" height="17.5"/><rect class="cls-1" x="280.5" y="18" width="17.5" height="17.5"/><rect class="cls-1" x="280.5" y="35.5" width="17.5" height="17.5"/><rect class="cls-1" x="280.5" y="53" width="17.5" height="17.5"/><rect class="cls-1" x="280.5" y="70.5" width="17.5" height="17.5"/><rect class="cls-1" x="280.5" y="88" width="17.5" height="17.5"/><rect class="cls-1" x="298" y="0.5" width="17.5" height="17.5"/><rect class="cls-1" x="298" y="18" width="17.5" height="17.5"/><rect class="cls-1" x="298" y="35.5" width="17.5" height="17.5"/><rect class="cls-1" x="298" y="53" width="17.5" height="17.5"/><rect class="cls-1" x="298" y="70.5" width="17.5" height="17.5"/><rect class="cls-1" x="298" y="88" width="17.5" height="17.5"/><rect class="cls-1" x="315.5" y="0.5" width="17.5" height="17.5"/><rect class="cls-1" x="315.5" y="18" width="17.5" height="17.5"/><rect class="cls-1" x="315.5" y="35.5" width="17.5" height="17.5"/><rect class="cls-1" x="315.5" y="53" width="17.5" height="17.5"/><rect class="cls-1" x="315.5" y="70.5" width="17.5" height="17.5"/><rect class="cls-1" x="315.5" y="88" width="17.5" height="17.5"/><rect class="cls-1" x="333" y="0.5" width="17.5" height="17.5"/><rect class="cls-1" x="333" y="18" width="17.5" height="17.5"/><rect class="cls-1" x="333" y="35.5" width="17.5" height="17.5"/><rect class="cls-1" x="333" y="53" width="17.5" height="17.5"/><rect class="cls-1" x="333" y="70.5" width="17.5" height="17.5"/><rect class="cls-1" x="333" y="88" width="17.5" height="17.5"/><circle class="cls-2" cx="9.25" cy="9.25" r="7.62"/><path class="cls-4" d="M9.25,2.75a6.5,6.5,0,1,1-6.5,6.5,6.51,6.51,0,0,1,6.5-6.5M9.25.5h0a8.75,8.75,0,0,0,0,17.5h0A8.75,8.75,0,0,0,9.25.5Z"/><circle class="cls-2" cx="26.75" cy="9.25" r="7.62"/><path class="cls-3" d="M26.75,2.75a6.5,6.5,0,1,1-6.5,6.5,6.51,6.51,0,0,1,6.5-6.5m0-2.25A8.75,8.75,0,1,0,35.5,9.25,8.75,8.75,0,0,0,26.75.5Z"/><path class="cls-2" d="M44.25,16.87a7.62,7.62,0,1,1,7.63-7.62A7.63,7.63,0,0,1,44.25,16.87Z"/><path class="cls-4" d="M44.25,2.75a6.5,6.5,0,1,1-6.5,6.5,6.51,6.51,0,0,1,6.5-6.5m0-2.25A8.75,8.75,0,1,0,53,9.25,8.75,8.75,0,0,0,44.25.5Z"/><circle class="cls-2" cx="61.75" cy="9.25" r="7.62"/><path class="cls-3" d="M61.75,2.75a6.5,6.5,0,1,1-6.5,6.5,6.51,6.51,0,0,1,6.5-6.5m0-2.25A8.75,8.75,0,1,0,70.5,9.25,8.75,8.75,0,0,0,61.75.5Z"/><circle class="cls-2" cx="79.25" cy="9.25" r="7.62"/><path class="cls-4" d="M79.25,2.75a6.5,6.5,0,1,1-6.5,6.5,6.51,6.51,0,0,1,6.5-6.5m0-2.25h0a8.75,8.75,0,0,0,0,17.5h0a8.75,8.75,0,0,0,0-17.5Z"/><circle class="cls-2" cx="96.75" cy="9.25" r="7.62"/><path class="cls-3" d="M96.75,2.75a6.5,6.5,0,1,1-6.5,6.5,6.51,6.51,0,0,1,6.5-6.5m0-2.25a8.75,8.75,0,1,0,8.75,8.75A8.75,8.75,0,0,0,96.75.5Z"/><circle class="cls-2" cx="114.25" cy="9.25" r="7.62"/><path class="cls-4" d="M114.25,2.75a6.5,6.5,0,1,1-6.5,6.5,6.51,6.51,0,0,1,6.5-6.5m0-2.25A8.75,8.75,0,1,0,123,9.25,8.75,8.75,0,0,0,114.25.5Z"/><path class="cls-2" d="M96.75,34.38a7.63,7.63,0,1,1,7.62-7.63A7.63,7.63,0,0,1,96.75,34.38Z"/><path class="cls-3" d="M96.75,20.25a6.5,6.5,0,1,1-6.5,6.5,6.51,6.51,0,0,1,6.5-6.5m0-2.25a8.75,8.75,0,1,0,8.75,8.75A8.75,8.75,0,0,0,96.75,18Z"/><path class="cls-2" d="M179.88,8.69a3.81,3.81,0,1,1,3.81-3.81A3.82,3.82,0,0,1,179.88,8.69Z"/><path class="cls-3" d="M179.88,1.62a3.25,3.25,0,1,1-3.25,3.25,3.26,3.26,0,0,1,3.25-3.25m0-1.12a4.38,4.38,0,1,0,4.38,4.38A4.38,4.38,0,0,0,179.88.5Z"/><path class="cls-2" d="M188.63,8.69a3.81,3.81,0,1,1,3.81-3.81A3.82,3.82,0,0,1,188.63,8.69Z"/><path class="cls-5" d="M188.63,1.62a3.25,3.25,0,1,1-3.25,3.25,3.26,3.26,0,0,1,3.25-3.25m0-1.12A4.38,4.38,0,1,0,193,4.88,4.38,4.38,0,0,0,188.63.5Z"/><path class="cls-2" d="M179.88,17.44a3.81,3.81,0,1,1,3.81-3.81A3.82,3.82,0,0,1,179.88,17.44Z"/><path class="cls-3" d="M179.88,10.38a3.25,3.25,0,1,1-3.25,3.25,3.26,3.26,0,0,1,3.25-3.25m0-1.13a4.38,4.38,0,1,0,4.38,4.38,4.38,4.38,0,0,0-4.38-4.38Z"/><path class="cls-2" d="M179.88,26.19a3.81,3.81,0,1,1,3.81-3.81A3.82,3.82,0,0,1,179.88,26.19Z"/><path class="cls-3" d="M179.88,19.13a3.25,3.25,0,1,1-3.25,3.25,3.26,3.26,0,0,1,3.25-3.25m0-1.13a4.38,4.38,0,1,0,4.38,4.38A4.38,4.38,0,0,0,179.88,18Z"/><path class="cls-2" d="M197.38,8.69a3.81,3.81,0,1,1,3.81-3.81A3.82,3.82,0,0,1,197.38,8.69Z"/><path class="cls-3" d="M197.38,1.62a3.25,3.25,0,1,1-3.25,3.25,3.26,3.26,0,0,1,3.25-3.25m0-1.12a4.38,4.38,0,1,0,4.38,4.38A4.38,4.38,0,0,0,197.38.5Z"/><path class="cls-2" d="M206.13,8.69a3.81,3.81,0,1,1,3.81-3.81A3.82,3.82,0,0,1,206.13,8.69Z"/><path class="cls-5" d="M206.13,1.62a3.25,3.25,0,1,1-3.25,3.25,3.26,3.26,0,0,1,3.25-3.25m0-1.12a4.38,4.38,0,1,0,4.38,4.38A4.38,4.38,0,0,0,206.13.5Z"/><path class="cls-2" d="M232.38,8.69a3.81,3.81,0,1,1,3.81-3.81A3.82,3.82,0,0,1,232.38,8.69Z"/><path class="cls-3" d="M232.38,1.62a3.25,3.25,0,1,1-3.25,3.25,3.26,3.26,0,0,1,3.25-3.25m0-1.12a4.38,4.38,0,1,0,4.38,4.38A4.38,4.38,0,0,0,232.38.5Z"/><path class="cls-2" d="M241.13,8.69a3.81,3.81,0,1,1,3.81-3.81A3.82,3.82,0,0,1,241.13,8.69Z"/><path class="cls-5" d="M241.13,1.62a3.25,3.25,0,1,1-3.25,3.25,3.26,3.26,0,0,1,3.25-3.25m0-1.12a4.38,4.38,0,1,0,4.38,4.38A4.38,4.38,0,0,0,241.13.5Z"/><path class="cls-2" d="M214.88,8.69a3.81,3.81,0,1,1,3.81-3.81A3.82,3.82,0,0,1,214.88,8.69Z"/><path class="cls-3" d="M214.88,1.62a3.25,3.25,0,1,1-3.25,3.25,3.26,3.26,0,0,1,3.25-3.25m0-1.12a4.38,4.38,0,1,0,4.38,4.38A4.38,4.38,0,0,0,214.88.5Z"/><path class="cls-2" d="M223.63,8.69a3.81,3.81,0,1,1,3.81-3.81A3.82,3.82,0,0,1,223.63,8.69Z"/><path class="cls-5" d="M223.63,1.62a3.25,3.25,0,1,1-3.25,3.25,3.26,3.26,0,0,1,3.25-3.25m0-1.12A4.38,4.38,0,1,0,228,4.88,4.38,4.38,0,0,0,223.63.5Z"/><circle class="cls-2" cx="241.13" cy="13.63" r="3.81"/><path class="cls-5" d="M241.13,10.38a3.25,3.25,0,1,1-3.25,3.25,3.26,3.26,0,0,1,3.25-3.25m0-1.13a4.38,4.38,0,1,0,4.38,4.38,4.38,4.38,0,0,0-4.38-4.38Z"/><circle class="cls-2" cx="241.13" cy="22.38" r="3.81"/><path class="cls-5" d="M241.13,19.13a3.25,3.25,0,1,1-3.25,3.25,3.26,3.26,0,0,1,3.25-3.25m0-1.13a4.38,4.38,0,1,0,4.38,4.38A4.38,4.38,0,0,0,241.13,18Z"/><circle class="cls-2" cx="232.38" cy="13.63" r="3.81"/><path class="cls-3" d="M232.38,10.38a3.25,3.25,0,1,1-3.25,3.25,3.26,3.26,0,0,1,3.25-3.25m0-1.13a4.38,4.38,0,1,0,4.38,4.38,4.38,4.38,0,0,0-4.38-4.38Z"/><circle class="cls-2" cx="232.38" cy="22.38" r="3.81"/><path class="cls-3" d="M232.38,19.13a3.25,3.25,0,1,1-3.25,3.25,3.26,3.26,0,0,1,3.25-3.25m0-1.13a4.38,4.38,0,1,0,4.38,4.38A4.38,4.38,0,0,0,232.38,18Z"/><path class="cls-5" d="M179.88,61.75h0a4.38,4.38,0,0,1-4.38-4.38h0A4.38,4.38,0,0,1,179.88,53h0a4.38,4.38,0,0,1,4.38,4.38h0A4.39,4.39,0,0,1,179.88,61.75Z"/><path class="cls-3" d="M188.63,61.75h0a4.38,4.38,0,0,1-4.38-4.38h0A4.38,4.38,0,0,1,188.63,53h0A4.38,4.38,0,0,1,193,57.37h0A4.39,4.39,0,0,1,188.63,61.75Z"/><path class="cls-3" d="M188.63,70.5h0a4.38,4.38,0,0,1-4.38-4.38h0a4.38,4.38,0,0,1,4.38-4.38h0A4.38,4.38,0,0,1,193,66.12h0A4.39,4.39,0,0,1,188.63,70.5Z"/><path class="cls-5" d="M197.38,61.75h0A4.38,4.38,0,0,1,193,57.37h0A4.38,4.38,0,0,1,197.38,53h0a4.38,4.38,0,0,1,4.38,4.38h0A4.39,4.39,0,0,1,197.38,61.75Z"/><path class="cls-3" d="M206.13,61.75h0a4.38,4.38,0,0,1-4.38-4.38h0A4.38,4.38,0,0,1,206.13,53h0a4.38,4.38,0,0,1,4.38,4.38h0A4.39,4.39,0,0,1,206.13,61.75Z"/><path class="cls-5" d="M214.88,61.75h0a4.38,4.38,0,0,1-4.38-4.38h0A4.38,4.38,0,0,1,214.88,53h0a4.38,4.38,0,0,1,4.38,4.38h0A4.39,4.39,0,0,1,214.88,61.75Z"/><path class="cls-3" d="M223.63,61.75h0a4.38,4.38,0,0,1-4.38-4.38h0A4.38,4.38,0,0,1,223.63,53h0A4.38,4.38,0,0,1,228,57.37h0A4.39,4.39,0,0,1,223.63,61.75Z"/><path class="cls-5" d="M232.38,61.75h0A4.38,4.38,0,0,1,228,57.37h0A4.38,4.38,0,0,1,232.38,53h0a4.38,4.38,0,0,1,4.38,4.38h0A4.39,4.39,0,0,1,232.38,61.75Z"/><path class="cls-5" d="M232.38,70.5h0A4.38,4.38,0,0,1,228,66.12h0a4.38,4.38,0,0,1,4.38-4.38h0a4.38,4.38,0,0,1,4.38,4.38h0A4.39,4.39,0,0,1,232.38,70.5Z"/><path class="cls-3" d="M206.13,70.5h0a4.38,4.38,0,0,1-4.38-4.38h0a4.38,4.38,0,0,1,4.38-4.38h0a4.38,4.38,0,0,1,4.38,4.38h0A4.39,4.39,0,0,1,206.13,70.5Z"/><path class="cls-3" d="M206.13,79.25h0a4.38,4.38,0,0,1-4.38-4.38h0a4.38,4.38,0,0,1,4.38-4.38h0a4.38,4.38,0,0,1,4.38,4.38h0A4.39,4.39,0,0,1,206.13,79.25Z"/><path class="cls-3" d="M206.13,88h0a4.38,4.38,0,0,1-4.38-4.38h0a4.38,4.38,0,0,1,4.38-4.38h0a4.38,4.38,0,0,1,4.38,4.38h0A4.39,4.39,0,0,1,206.13,88Z"/><line class="cls-6" x1="33.82" y1="2.13" x2="19.68" y2="16.26"/><line class="cls-6" x1="68.82" y1="2.13" x2="54.68" y2="16.26"/><line class="cls-6" x1="86.32" y1="2.13" x2="72.18" y2="16.26"/><line class="cls-6" x1="86.32" y1="37.19" x2="72.18" y2="51.32"/><line class="cls-6" x1="138.82" y1="37.19" x2="124.68" y2="51.32"/><line class="cls-7" x1="175.5" y1="0.5" x2="175.5" y2="105.5"/><line class="cls-7" x1="263" y1="53" x2="263" y2="105.5"/><line class="cls-7" x1="350.5" y1="53" x2="175.5" y2="53"/><line class="cls-8" x1="278.25" y1="55.25" x2="274" y2="59.5"/><line class="cls-9" x1="269.5" y1="55.25" x2="265.25" y2="59.5"/><line class="cls-9" x1="269.5" y1="64" x2="265.25" y2="68.25"/><line class="cls-8" x1="295.75" y1="55.25" x2="291.5" y2="59.5"/><line class="cls-9" x1="287" y1="55.25" x2="282.75" y2="59.5"/><line class="cls-9" x1="287" y1="64" x2="282.75" y2="68.25"/><line class="cls-8" x1="278.25" y1="64" x2="274" y2="68.25"/><line class="cls-8" x1="278.25" y1="72.75" x2="274" y2="77"/><line class="cls-9" x1="287" y1="72.75" x2="282.75" y2="77"/><line class="cls-8" x1="278.25" y1="81.5" x2="274" y2="85.75"/><line class="cls-9" x1="304.5" y1="55.25" x2="300.25" y2="59.5"/><line class="cls-10" x1="0.5" y1="0.42" x2="350.5" y2="0.42"/></g></svg>