<?xml version="1.0" encoding="utf-8"?>
<!-- Generator: Adobe Illustrator 25.2.3, SVG Export Plug-In . SVG Version: 6.00 Build 0)  -->
<svg version="1.1" xmlns="http://www.w3.org/2000/svg" xmlns:xlink="http://www.w3.org/1999/xlink" x="0px" y="0px"
	 viewBox="0 0 140.73 105.73" style="enable-background:new 0 0 140.73 105.73;" xml:space="preserve">
<style type="text/css">
	.st0{fill:#FFFFFF;stroke:#000000;stroke-miterlimit:10;}
	.st1{fill:#FF0000;}
	.st2{fill:#FFFFFF;stroke:#B2B2B2;stroke-miterlimit:10;}
	.st3{fill:#FFFFFF;}
	.st4{fill:#005DFF;}
	.st5{fill:#FF302A;}
	.st6{fill:#008ED6;}
	.st7{fill:none;stroke:#FF0000;stroke-width:2;stroke-miterlimit:10;}
	.st8{fill:none;stroke:#14B045;stroke-width:2.7;stroke-linecap:round;stroke-linejoin:round;stroke-miterlimit:10;}
	.st9{fill:none;stroke:#000000;stroke-miterlimit:10;}
	.st10{fill:none;stroke:#FF302A;stroke-width:1.6561;stroke-linecap:round;stroke-miterlimit:10;}
	.st11{fill:none;stroke:#005DFF;stroke-width:1.6561;stroke-linecap:round;stroke-linejoin:round;stroke-miterlimit:10;}
	.st12{fill:none;stroke:#005DFF;stroke-width:1.6561;stroke-linecap:round;stroke-miterlimit:10;}
	.st13{fill:none;stroke:url(#SVGID_1_);stroke-width:0.803;stroke-miterlimit:10;}
	.st14{fill:none;stroke:url(#SVGID_2_);stroke-width:0.803;stroke-miterlimit:10;}
	.st15{fill:none;stroke:url(#SVGID_3_);stroke-width:0.803;stroke-miterlimit:10;}
	.st16{fill:none;stroke:url(#SVGID_4_);stroke-width:0.803;stroke-miterlimit:10;}
	.st17{fill:none;stroke:url(#SVGID_5_);stroke-width:0.803;stroke-miterlimit:10;}
	.st18{fill:none;stroke:url(#SVGID_6_);stroke-width:0.803;stroke-miterlimit:10;}
	.st19{fill:none;stroke:url(#SVGID_7_);stroke-width:0.803;stroke-miterlimit:10;}
	.st20{fill:none;stroke:url(#SVGID_8_);stroke-width:0.803;stroke-miterlimit:10;}
	.st21{display:none;}
	.st22{display:inline;}
</style>
<g id="圖層_1">
	<g>
		<rect x="0.36" y="0.36" class="st0" width="17.5" height="17.5"/>
		<rect x="17.86" y="0.36" class="st0" width="17.5" height="17.5"/>
		<rect x="35.36" y="0.36" class="st0" width="17.5" height="17.5"/>
		<rect x="52.86" y="0.36" class="st0" width="17.5" height="17.5"/>
		<g>
			<path class="st4" d="M26.61,17.86L26.61,17.86c-4.83,0-8.75-3.92-8.75-8.75l0,0c0-4.83,3.92-8.75,8.75-8.75l0,0
				c4.83,0,8.75,3.92,8.75,8.75l0,0C35.36,13.95,31.45,17.86,26.61,17.86z"/>
		</g>
		<g>
			<path class="st1" d="M44.11,17.86L44.11,17.86c-4.83,0-8.75-3.92-8.75-8.75l0,0c0-4.83,3.92-8.75,8.75-8.75l0,0
				c4.83,0,8.75,3.92,8.75,8.75l0,0C52.86,13.95,48.95,17.86,44.11,17.86z"/>
		</g>
		<g>
			<path class="st4" d="M61.61,17.86L61.61,17.86c-4.83,0-8.75-3.92-8.75-8.75l0,0c0-4.83,3.92-8.75,8.75-8.75l0,0
				c4.83,0,8.75,3.92,8.75,8.75l0,0C70.36,13.95,66.45,17.86,61.61,17.86z"/>
		</g>
		<rect x="70.36" y="0.36" class="st0" width="17.5" height="17.5"/>
		<rect x="87.86" y="0.36" class="st0" width="17.5" height="17.5"/>
		<rect x="105.36" y="0.36" class="st0" width="17.5" height="17.5"/>
		<rect x="122.86" y="0.36" class="st0" width="17.5" height="17.5"/>
		<rect x="0.36" y="17.86" class="st0" width="17.5" height="17.5"/>
		<rect x="17.86" y="17.86" class="st0" width="17.5" height="17.5"/>
		<rect x="35.36" y="17.86" class="st0" width="17.5" height="17.5"/>
		<g>
			<path class="st1" d="M44.11,35.36L44.11,35.36c-4.83,0-8.75-3.92-8.75-8.75v0c0-4.83,3.92-8.75,8.75-8.75h0
				c4.83,0,8.75,3.92,8.75,8.75v0C52.86,31.45,48.95,35.36,44.11,35.36z"/>
		</g>
		<rect x="52.86" y="17.86" class="st0" width="17.5" height="17.5"/>
		<rect x="70.36" y="17.86" class="st0" width="17.5" height="17.5"/>
		<rect x="87.86" y="17.86" class="st0" width="17.5" height="17.5"/>
		<rect x="105.36" y="17.86" class="st0" width="17.5" height="17.5"/>
		<rect x="122.86" y="17.86" class="st0" width="17.5" height="17.5"/>
		<rect x="0.36" y="35.36" class="st0" width="17.5" height="17.5"/>
		<rect x="17.86" y="35.36" class="st0" width="17.5" height="17.5"/>
		<rect x="35.36" y="35.36" class="st0" width="17.5" height="17.5"/>
		<rect x="52.86" y="35.36" class="st0" width="17.5" height="17.5"/>
		<rect x="70.36" y="35.36" class="st0" width="17.5" height="17.5"/>
		<rect x="87.86" y="35.36" class="st0" width="17.5" height="17.5"/>
		<rect x="105.36" y="35.36" class="st0" width="17.5" height="17.5"/>
		<rect x="122.86" y="35.36" class="st0" width="17.5" height="17.5"/>
		<rect x="0.36" y="52.86" class="st0" width="17.5" height="17.5"/>
		<g>
			<path class="st1" d="M9.11,35.36L9.11,35.36c-4.83,0-8.75-3.92-8.75-8.75v0c0-4.83,3.92-8.75,8.75-8.75h0
				c4.83,0,8.75,3.92,8.75,8.75v0C17.86,31.45,13.95,35.36,9.11,35.36z"/>
		</g>
		<g>
			<path class="st1" d="M9.11,52.86L9.11,52.86c-4.83,0-8.75-3.92-8.75-8.75v0c0-4.83,3.92-8.75,8.75-8.75h0
				c4.83,0,8.75,3.92,8.75,8.75v0C17.86,48.95,13.95,52.86,9.11,52.86z"/>
		</g>
		<g>
			<path class="st1" d="M9.11,70.36L9.11,70.36c-4.83,0-8.75-3.92-8.75-8.75v0c0-4.83,3.92-8.75,8.75-8.75h0
				c4.83,0,8.75,3.92,8.75,8.75v0C17.86,66.45,13.95,70.36,9.11,70.36z"/>
		</g>
		<rect x="17.86" y="52.86" class="st0" width="17.5" height="17.5"/>
		<rect x="35.36" y="52.86" class="st0" width="17.5" height="17.5"/>
		<rect x="52.86" y="52.86" class="st0" width="17.5" height="17.5"/>
		<rect x="70.36" y="52.86" class="st0" width="17.5" height="17.5"/>
		<rect x="87.86" y="52.86" class="st0" width="17.5" height="17.5"/>
		<rect x="105.36" y="52.86" class="st0" width="17.5" height="17.5"/>
		<rect x="122.86" y="52.86" class="st0" width="17.5" height="17.5"/>
		<rect x="0.36" y="70.36" class="st0" width="17.5" height="17.5"/>
		<rect x="17.86" y="70.36" class="st0" width="17.5" height="17.5"/>
		<rect x="35.36" y="70.36" class="st0" width="17.5" height="17.5"/>
		<rect x="52.86" y="70.36" class="st0" width="17.5" height="17.5"/>
		<rect x="70.36" y="70.36" class="st0" width="17.5" height="17.5"/>
		<rect x="87.86" y="70.36" class="st0" width="17.5" height="17.5"/>
		<rect x="105.36" y="70.36" class="st0" width="17.5" height="17.5"/>
		<rect x="122.86" y="70.36" class="st0" width="17.5" height="17.5"/>
		<rect x="0.36" y="87.86" class="st0" width="17.5" height="17.5"/>
		<rect x="17.86" y="87.86" class="st0" width="17.5" height="17.5"/>
		<rect x="35.36" y="87.86" class="st0" width="17.5" height="17.5"/>
		<rect x="52.86" y="87.86" class="st0" width="17.5" height="17.5"/>
		<rect x="70.36" y="87.86" class="st0" width="17.5" height="17.5"/>
		<rect x="87.86" y="87.86" class="st0" width="17.5" height="17.5"/>
		<rect x="105.36" y="87.86" class="st0" width="17.5" height="17.5"/>
		<rect x="122.86" y="87.86" class="st0" width="17.5" height="17.5"/>
		<g>
			<g>
				<circle class="st1" cx="9.11" cy="9.11" r="8.75"/>
			</g>
		</g>
	</g>
</g>
<g id="圖層_2" class="st21">
</g>
</svg>
