<svg id="圖層_1" data-name="圖層 1" xmlns="http://www.w3.org/2000/svg" xmlns:xlink="http://www.w3.org/1999/xlink" viewBox="0 0 350.19 107"><defs><style>.cls-1,.cls-2{fill:#fff;}.cls-1{stroke:#b2b2b2;}.cls-1,.cls-10,.cls-11,.cls-6,.cls-8,.cls-9{stroke-miterlimit:10;}.cls-3{fill:red;}.cls-4{fill:#005dff;}.cls-5{fill:#ff302a;}.cls-10,.cls-11,.cls-6,.cls-7,.cls-8,.cls-9{fill:none;}.cls-6{stroke:red;stroke-width:2px;}.cls-7{stroke:#14b045;stroke-linejoin:round;stroke-width:2.7px;}.cls-10,.cls-7,.cls-9{stroke-linecap:round;}.cls-8{stroke:#000;}.cls-9{stroke:#ff302a;}.cls-10,.cls-9{stroke-width:1.66px;}.cls-10{stroke:#005dff;}.cls-11{stroke-width:0.8px;stroke:url(#未命名漸層);}</style><linearGradient id="未命名漸層" x1="-24.23" y1="107.08" x2="325.77" y2="107.08" gradientTransform="matrix(1, 0, 0, -1, 0, 108)" gradientUnits="userSpaceOnUse"><stop offset="0" stop-color="#b47c24" stop-opacity="0"/><stop offset="0.5" stop-color="#f2d77a"/><stop offset="1" stop-color="#b47c24" stop-opacity="0"/></linearGradient></defs><g id="圖層_1-2" data-name="圖層 1"><rect class="cls-1" x="0.1" y="1" width="17.5" height="17.5"/><rect class="cls-1" x="0.1" y="18.5" width="17.5" height="17.5"/><rect class="cls-1" x="0.1" y="36" width="17.5" height="17.5"/><rect class="cls-1" x="0.1" y="53.5" width="17.5" height="17.5"/><rect class="cls-1" x="0.1" y="71" width="17.5" height="17.5"/><rect class="cls-1" x="0.1" y="88.5" width="17.5" height="17.5"/><rect class="cls-1" x="17.6" y="1" width="17.5" height="17.5"/><rect class="cls-1" x="17.6" y="18.5" width="17.5" height="17.5"/><rect class="cls-1" x="17.6" y="36" width="17.5" height="17.5"/><rect class="cls-1" x="17.6" y="53.5" width="17.5" height="17.5"/><rect class="cls-1" x="17.6" y="71" width="17.5" height="17.5"/><rect class="cls-1" x="17.6" y="88.5" width="17.5" height="17.5"/><rect class="cls-1" x="35.1" y="1" width="17.5" height="17.5"/><rect class="cls-1" x="35.1" y="18.5" width="17.5" height="17.5"/><rect class="cls-1" x="35.1" y="36" width="17.5" height="17.5"/><rect class="cls-1" x="35.1" y="53.5" width="17.5" height="17.5"/><rect class="cls-1" x="35.1" y="71" width="17.5" height="17.5"/><rect class="cls-1" x="35.1" y="88.5" width="17.5" height="17.5"/><rect class="cls-1" x="52.6" y="1" width="17.5" height="17.5"/><rect class="cls-1" x="52.6" y="18.5" width="17.5" height="17.5"/><rect class="cls-1" x="52.6" y="36" width="17.5" height="17.5"/><rect class="cls-1" x="52.6" y="53.5" width="17.5" height="17.5"/><rect class="cls-1" x="52.6" y="71" width="17.5" height="17.5"/><rect class="cls-1" x="52.6" y="88.5" width="17.5" height="17.5"/><rect class="cls-1" x="70.1" y="1" width="17.5" height="17.5"/><rect class="cls-1" x="70.1" y="18.5" width="17.5" height="17.5"/><rect class="cls-1" x="70.1" y="36" width="17.5" height="17.5"/><rect class="cls-1" x="70.1" y="53.5" width="17.5" height="17.5"/><rect class="cls-1" x="70.1" y="71" width="17.5" height="17.5"/><rect class="cls-1" x="70.1" y="88.5" width="17.5" height="17.5"/><rect class="cls-2" x="87.6" y="1" width="17.5" height="17.5"/><rect class="cls-1" x="87.6" y="18.5" width="17.5" height="17.5"/><rect class="cls-1" x="87.6" y="36" width="17.5" height="17.5"/><rect class="cls-1" x="87.6" y="53.5" width="17.5" height="17.5"/><rect class="cls-1" x="87.6" y="71" width="17.5" height="17.5"/><rect class="cls-1" x="87.6" y="88.5" width="17.5" height="17.5"/><rect class="cls-1" x="105.1" y="1" width="17.5" height="17.5"/><rect class="cls-1" x="105.1" y="18.5" width="17.5" height="17.5"/><rect class="cls-1" x="105.1" y="36" width="17.5" height="17.5"/><rect class="cls-1" x="105.1" y="53.5" width="17.5" height="17.5"/><rect class="cls-1" x="105.1" y="71" width="17.5" height="17.5"/><rect class="cls-1" x="105.1" y="88.5" width="17.5" height="17.5"/><path class="cls-2" d="M113.85,34.87a7.62,7.62,0,1,1,7.62-7.62A7.64,7.64,0,0,1,113.85,34.87Z"/><path class="cls-3" d="M113.85,20.75a6.5,6.5,0,1,1-6.5,6.5,6.51,6.51,0,0,1,6.5-6.5m0-2.25h0a8.75,8.75,0,0,0,0,17.5h0a8.75,8.75,0,0,0,0-17.5Z"/><path class="cls-2" d="M113.85,52.37a7.62,7.62,0,1,1,7.62-7.62A7.64,7.64,0,0,1,113.85,52.37Z"/><path class="cls-3" d="M113.85,38.25a6.5,6.5,0,1,1-6.5,6.5,6.51,6.51,0,0,1,6.5-6.5m0-2.25h0a8.75,8.75,0,0,0-8.75,8.75h0a8.75,8.75,0,0,0,8.75,8.75h0a8.75,8.75,0,0,0,8.75-8.75h0A8.75,8.75,0,0,0,113.85,36Z"/><path class="cls-2" d="M113.85,69.87a7.63,7.63,0,1,1,7.62-7.63A7.64,7.64,0,0,1,113.85,69.87Z"/><path class="cls-3" d="M113.85,55.75a6.5,6.5,0,1,1-6.5,6.5,6.51,6.51,0,0,1,6.5-6.5m0-2.25h0a8.75,8.75,0,0,0-8.75,8.75h0A8.75,8.75,0,0,0,113.85,71h0a8.75,8.75,0,0,0,8.75-8.75h0a8.75,8.75,0,0,0-8.75-8.75Z"/><path class="cls-2" d="M113.85,87.37a7.63,7.63,0,1,1,7.62-7.63A7.64,7.64,0,0,1,113.85,87.37Z"/><path class="cls-3" d="M113.85,73.25a6.5,6.5,0,1,1-6.5,6.5,6.51,6.51,0,0,1,6.5-6.5m0-2.25h0a8.75,8.75,0,0,0,0,17.5h0a8.75,8.75,0,0,0,0-17.5Z"/><path class="cls-2" d="M113.85,104.88a7.63,7.63,0,1,1,7.62-7.63A7.64,7.64,0,0,1,113.85,104.88Z"/><path class="cls-3" d="M113.85,90.75a6.5,6.5,0,1,1-6.5,6.5,6.51,6.51,0,0,1,6.5-6.5m0-2.25h0a8.75,8.75,0,0,0-8.75,8.75h0a8.75,8.75,0,0,0,8.75,8.75h0a8.75,8.75,0,0,0,8.75-8.75h0a8.75,8.75,0,0,0-8.75-8.75Z"/><rect class="cls-1" x="122.6" y="1" width="17.5" height="17.5"/><rect class="cls-1" x="122.6" y="18.5" width="17.5" height="17.5"/><rect class="cls-1" x="122.6" y="36" width="17.5" height="17.5"/><rect class="cls-1" x="122.6" y="53.5" width="17.5" height="17.5"/><rect class="cls-1" x="122.6" y="71" width="17.5" height="17.5"/><rect class="cls-1" x="122.6" y="88.5" width="17.5" height="17.5"/><path class="cls-2" d="M131.35,104.88A7.63,7.63,0,1,1,139,97.25,7.63,7.63,0,0,1,131.35,104.88Z"/><path class="cls-3" d="M131.35,90.75a6.5,6.5,0,1,1-6.5,6.5,6.51,6.51,0,0,1,6.5-6.5m0-2.25a8.75,8.75,0,0,0-8.75,8.75h0a8.75,8.75,0,0,0,17.5,0h0a8.75,8.75,0,0,0-8.75-8.75Z"/><rect class="cls-1" x="140.1" y="1" width="17.5" height="17.5"/><rect class="cls-1" x="140.1" y="18.5" width="17.5" height="17.5"/><rect class="cls-1" x="140.1" y="36" width="17.5" height="17.5"/><rect class="cls-1" x="140.1" y="53.5" width="17.5" height="17.5"/><rect class="cls-1" x="140.1" y="71" width="17.5" height="17.5"/><rect class="cls-1" x="140.1" y="88.5" width="17.5" height="17.5"/><rect class="cls-1" x="157.6" y="1" width="17.5" height="17.5"/><rect class="cls-1" x="157.6" y="18.5" width="17.5" height="17.5"/><rect class="cls-1" x="157.6" y="36" width="17.5" height="17.5"/><rect class="cls-1" x="157.6" y="53.5" width="17.5" height="17.5"/><rect class="cls-1" x="157.6" y="71" width="17.5" height="17.5"/><rect class="cls-1" x="157.6" y="88.5" width="17.5" height="17.5"/><rect class="cls-1" x="175.1" y="1" width="17.5" height="17.5"/><rect class="cls-1" x="175.1" y="18.5" width="17.5" height="17.5"/><rect class="cls-1" x="175.1" y="36" width="17.5" height="17.5"/><rect class="cls-1" x="175.1" y="53.5" width="17.5" height="17.5"/><rect class="cls-1" x="175.1" y="71" width="17.5" height="17.5"/><rect class="cls-1" x="175.1" y="88.5" width="17.5" height="17.5"/><rect class="cls-1" x="192.6" y="1" width="17.5" height="17.5"/><rect class="cls-1" x="192.6" y="18.5" width="17.5" height="17.5"/><rect class="cls-1" x="192.6" y="36" width="17.5" height="17.5"/><rect class="cls-1" x="192.6" y="53.5" width="17.5" height="17.5"/><rect class="cls-1" x="192.6" y="71" width="17.5" height="17.5"/><rect class="cls-1" x="192.6" y="88.5" width="17.5" height="17.5"/><rect class="cls-1" x="210.1" y="1" width="17.5" height="17.5"/><rect class="cls-1" x="210.1" y="18.5" width="17.5" height="17.5"/><rect class="cls-1" x="210.1" y="36" width="17.5" height="17.5"/><rect class="cls-1" x="210.1" y="53.5" width="17.5" height="17.5"/><rect class="cls-1" x="210.1" y="71" width="17.5" height="17.5"/><rect class="cls-1" x="210.1" y="88.5" width="17.5" height="17.5"/><rect class="cls-1" x="227.6" y="1" width="17.5" height="17.5"/><rect class="cls-1" x="227.6" y="18.5" width="17.5" height="17.5"/><rect class="cls-1" x="227.6" y="36" width="17.5" height="17.5"/><rect class="cls-1" x="227.6" y="53.5" width="17.5" height="17.5"/><rect class="cls-1" x="227.6" y="71" width="17.5" height="17.5"/><rect class="cls-1" x="227.6" y="88.5" width="17.5" height="17.5"/><rect class="cls-1" x="245.1" y="1" width="17.5" height="17.5"/><rect class="cls-1" x="245.1" y="18.5" width="17.5" height="17.5"/><rect class="cls-1" x="245.1" y="36" width="17.5" height="17.5"/><rect class="cls-1" x="245.1" y="53.5" width="17.5" height="17.5"/><rect class="cls-1" x="245.1" y="71" width="17.5" height="17.5"/><rect class="cls-1" x="245.1" y="88.5" width="17.5" height="17.5"/><rect class="cls-1" x="262.6" y="1" width="17.5" height="17.5"/><rect class="cls-1" x="262.6" y="18.5" width="17.5" height="17.5"/><rect class="cls-1" x="262.6" y="36" width="17.5" height="17.5"/><rect class="cls-1" x="262.6" y="53.5" width="17.5" height="17.5"/><rect class="cls-1" x="262.6" y="71" width="17.5" height="17.5"/><rect class="cls-1" x="262.6" y="88.5" width="17.5" height="17.5"/><rect class="cls-1" x="280.1" y="1" width="17.5" height="17.5"/><rect class="cls-1" x="280.1" y="18.5" width="17.5" height="17.5"/><rect class="cls-1" x="280.1" y="36" width="17.5" height="17.5"/><rect class="cls-1" x="280.1" y="53.5" width="17.5" height="17.5"/><rect class="cls-1" x="280.1" y="71" width="17.5" height="17.5"/><rect class="cls-1" x="280.1" y="88.5" width="17.5" height="17.5"/><rect class="cls-1" x="297.6" y="1" width="17.5" height="17.5"/><rect class="cls-1" x="297.6" y="18.5" width="17.5" height="17.5"/><rect class="cls-1" x="297.6" y="36" width="17.5" height="17.5"/><rect class="cls-1" x="297.6" y="53.5" width="17.5" height="17.5"/><rect class="cls-1" x="297.6" y="71" width="17.5" height="17.5"/><rect class="cls-1" x="297.6" y="88.5" width="17.5" height="17.5"/><rect class="cls-1" x="315.1" y="1" width="17.5" height="17.5"/><rect class="cls-1" x="315.1" y="18.5" width="17.5" height="17.5"/><rect class="cls-1" x="315.1" y="36" width="17.5" height="17.5"/><rect class="cls-1" x="315.1" y="53.5" width="17.5" height="17.5"/><rect class="cls-1" x="315.1" y="71" width="17.5" height="17.5"/><rect class="cls-1" x="315.1" y="88.5" width="17.5" height="17.5"/><rect class="cls-1" x="332.6" y="1" width="17.5" height="17.5"/><rect class="cls-1" x="332.6" y="18.5" width="17.5" height="17.5"/><rect class="cls-1" x="332.6" y="36" width="17.5" height="17.5"/><rect class="cls-1" x="332.6" y="53.5" width="17.5" height="17.5"/><rect class="cls-1" x="332.6" y="71" width="17.5" height="17.5"/><rect class="cls-1" x="332.6" y="88.5" width="17.5" height="17.5"/><circle class="cls-2" cx="8.85" cy="9.75" r="7.62"/><path class="cls-3" d="M8.85,3.25a6.5,6.5,0,1,1-6.5,6.5,6.51,6.51,0,0,1,6.5-6.5M8.85,1h0a8.75,8.75,0,0,0,0,17.5h0A8.75,8.75,0,1,0,8.85,1Z"/><circle class="cls-2" cx="26.35" cy="9.75" r="7.62"/><path class="cls-4" d="M26.35,3.25a6.5,6.5,0,1,1-6.5,6.5,6.51,6.51,0,0,1,6.5-6.5m0-2.25A8.75,8.75,0,1,0,35.1,9.75,8.75,8.75,0,0,0,26.35,1Z"/><circle class="cls-2" cx="43.85" cy="9.75" r="7.62"/><path class="cls-3" d="M43.85,3.25a6.5,6.5,0,1,1-6.5,6.5,6.51,6.51,0,0,1,6.5-6.5m0-2.25A8.75,8.75,0,1,0,52.6,9.75,8.75,8.75,0,0,0,43.85,1Z"/><circle class="cls-2" cx="61.35" cy="9.75" r="7.62"/><path class="cls-4" d="M61.35,3.25a6.5,6.5,0,1,1-6.5,6.5,6.51,6.51,0,0,1,6.5-6.5m0-2.25A8.75,8.75,0,1,0,70.1,9.75,8.75,8.75,0,0,0,61.35,1Z"/><circle class="cls-2" cx="78.85" cy="9.75" r="7.62"/><path class="cls-3" d="M78.85,3.25a6.5,6.5,0,1,1-6.5,6.5,6.51,6.51,0,0,1,6.5-6.5m0-2.25h0a8.75,8.75,0,0,0,0,17.5h0a8.75,8.75,0,0,0,0-17.5Z"/><circle class="cls-2" cx="96.35" cy="9.75" r="7.62"/><path class="cls-4" d="M96.35,3.25a6.5,6.5,0,1,1-6.5,6.5,6.51,6.51,0,0,1,6.5-6.5m0-2.25a8.75,8.75,0,1,0,8.75,8.75A8.75,8.75,0,0,0,96.35,1Z"/><path class="cls-2" d="M113.85,17.37a7.62,7.62,0,1,1,7.62-7.62A7.64,7.64,0,0,1,113.85,17.37Z"/><path class="cls-3" d="M113.85,3.25a6.5,6.5,0,1,1-6.5,6.5,6.51,6.51,0,0,1,6.5-6.5m0-2.25a8.75,8.75,0,1,0,8.75,8.75A8.75,8.75,0,0,0,113.85,1Z"/><circle class="cls-2" cx="61.35" cy="27.25" r="7.62"/><path class="cls-4" d="M61.35,20.75a6.5,6.5,0,1,1-6.5,6.5,6.51,6.51,0,0,1,6.5-6.5m0-2.25a8.75,8.75,0,1,0,8.75,8.75,8.75,8.75,0,0,0-8.75-8.75Z"/><circle class="cls-2" cx="96.35" cy="27.25" r="7.62"/><path class="cls-4" d="M96.35,20.75a6.5,6.5,0,1,1-6.5,6.5,6.51,6.51,0,0,1,6.5-6.5m0-2.25a8.75,8.75,0,1,0,8.75,8.75,8.75,8.75,0,0,0-8.75-8.75Z"/><circle class="cls-2" cx="179.47" cy="5.37" r="3.81"/><path class="cls-5" d="M179.47,2.12a3.25,3.25,0,1,1-3.25,3.25,3.26,3.26,0,0,1,3.25-3.25m0-1.12a4.38,4.38,0,1,0,4.38,4.38A4.38,4.38,0,0,0,179.47,1Z"/><circle class="cls-2" cx="188.22" cy="5.37" r="3.81"/><path class="cls-4" d="M188.22,2.12A3.25,3.25,0,1,1,185,5.37a3.26,3.26,0,0,1,3.25-3.25m0-1.12a4.38,4.38,0,1,0,4.38,4.38A4.38,4.38,0,0,0,188.22,1Z"/><circle class="cls-2" cx="179.47" cy="14.12" r="3.81"/><path class="cls-5" d="M179.47,10.87a3.25,3.25,0,1,1-3.25,3.25,3.26,3.26,0,0,1,3.25-3.25m0-1.12a4.38,4.38,0,1,0,4.38,4.38,4.38,4.38,0,0,0-4.38-4.38Z"/><circle class="cls-2" cx="188.22" cy="14.12" r="3.81"/><path class="cls-4" d="M188.22,10.87A3.25,3.25,0,1,1,185,14.12a3.26,3.26,0,0,1,3.25-3.25m0-1.12a4.38,4.38,0,1,0,4.38,4.38,4.38,4.38,0,0,0-4.38-4.38Z"/><circle class="cls-2" cx="188.22" cy="22.87" r="3.81"/><path class="cls-4" d="M188.22,19.62A3.25,3.25,0,1,1,185,22.87a3.26,3.26,0,0,1,3.25-3.25m0-1.12a4.38,4.38,0,1,0,4.38,4.38,4.38,4.38,0,0,0-4.38-4.38Z"/><circle class="cls-2" cx="188.22" cy="31.62" r="3.81"/><path class="cls-4" d="M188.22,28.37A3.25,3.25,0,1,1,185,31.62a3.26,3.26,0,0,1,3.25-3.25m0-1.12a4.38,4.38,0,1,0,4.38,4.38,4.38,4.38,0,0,0-4.38-4.38Z"/><circle class="cls-2" cx="214.47" cy="22.87" r="3.81"/><path class="cls-5" d="M214.47,19.62a3.25,3.25,0,1,1-3.25,3.25,3.26,3.26,0,0,1,3.25-3.25m0-1.12a4.38,4.38,0,1,0,4.38,4.38,4.38,4.38,0,0,0-4.38-4.38Z"/><circle class="cls-2" cx="214.47" cy="31.62" r="3.81"/><path class="cls-5" d="M214.47,28.37a3.25,3.25,0,1,1-3.25,3.25,3.26,3.26,0,0,1,3.25-3.25m0-1.12a4.38,4.38,0,1,0,4.38,4.38,4.38,4.38,0,0,0-4.38-4.38Z"/><circle class="cls-2" cx="188.22" cy="40.37" r="3.81"/><path class="cls-4" d="M188.22,37.13A3.25,3.25,0,1,1,185,40.38a3.26,3.26,0,0,1,3.25-3.25m0-1.13a4.38,4.38,0,1,0,4.38,4.38A4.38,4.38,0,0,0,188.22,36Z"/><circle class="cls-2" cx="196.97" cy="5.37" r="3.81"/><path class="cls-5" d="M197,2.12a3.25,3.25,0,1,1-3.25,3.25A3.26,3.26,0,0,1,197,2.12M197,1a4.38,4.38,0,1,0,4.38,4.38A4.38,4.38,0,0,0,197,1Z"/><path class="cls-2" d="M205.72,9.19a3.81,3.81,0,1,1,3.81-3.81A3.82,3.82,0,0,1,205.72,9.19Z"/><path class="cls-4" d="M205.72,2.12a3.25,3.25,0,1,1-3.25,3.25,3.26,3.26,0,0,1,3.25-3.25m0-1.12a4.38,4.38,0,1,0,4.38,4.38A4.38,4.38,0,0,0,205.72,1Z"/><circle class="cls-2" cx="214.47" cy="5.37" r="3.81"/><path class="cls-5" d="M214.47,2.12a3.25,3.25,0,1,1-3.25,3.25,3.26,3.26,0,0,1,3.25-3.25m0-1.12a4.38,4.38,0,1,0,4.38,4.38A4.38,4.38,0,0,0,214.47,1Z"/><circle class="cls-2" cx="214.47" cy="14.12" r="3.81"/><path class="cls-5" d="M214.47,10.87a3.25,3.25,0,1,1-3.25,3.25,3.26,3.26,0,0,1,3.25-3.25m0-1.12a4.38,4.38,0,1,0,4.38,4.38,4.38,4.38,0,0,0-4.38-4.38Z"/><path class="cls-5" d="M179.47,62.25h0a4.38,4.38,0,0,1-4.38-4.38h0a4.38,4.38,0,0,1,4.38-4.38h0a4.38,4.38,0,0,1,4.38,4.38h0A4.38,4.38,0,0,1,179.47,62.25Z"/><path class="cls-4" d="M188.22,62.25h0a4.38,4.38,0,0,1-4.38-4.38h0a4.38,4.38,0,0,1,4.38-4.38h0a4.38,4.38,0,0,1,4.38,4.38h0A4.38,4.38,0,0,1,188.22,62.25Z"/><path class="cls-5" d="M197,62.25h0a4.38,4.38,0,0,1-4.38-4.38h0A4.38,4.38,0,0,1,197,53.49h0a4.38,4.38,0,0,1,4.38,4.38h0A4.38,4.38,0,0,1,197,62.25Z"/><path class="cls-4" d="M205.72,62.25h0a4.38,4.38,0,0,1-4.38-4.38h0a4.38,4.38,0,0,1,4.38-4.38h0a4.38,4.38,0,0,1,4.38,4.38h0A4.38,4.38,0,0,1,205.72,62.25Z"/><path class="cls-4" d="M188.22,71h0a4.38,4.38,0,0,1-4.38-4.38h0a4.38,4.38,0,0,1,4.38-4.38h0a4.38,4.38,0,0,1,4.38,4.38h0A4.38,4.38,0,0,1,188.22,71Z"/><path class="cls-5" d="M214.47,62.25h0a4.38,4.38,0,0,1-4.38-4.38h0a4.38,4.38,0,0,1,4.38-4.38h0a4.38,4.38,0,0,1,4.38,4.38h0A4.38,4.38,0,0,1,214.47,62.25Z"/><path class="cls-5" d="M214.47,71h0a4.38,4.38,0,0,1-4.38-4.38h0a4.38,4.38,0,0,1,4.38-4.38h0a4.38,4.38,0,0,1,4.38,4.38h0A4.38,4.38,0,0,1,214.47,71Z"/><path class="cls-5" d="M214.47,79.75h0a4.38,4.38,0,0,1-4.38-4.37h0A4.38,4.38,0,0,1,214.47,71h0a4.38,4.38,0,0,1,4.38,4.38h0A4.38,4.38,0,0,1,214.47,79.75Z"/><path class="cls-5" d="M214.47,88.5h0a4.38,4.38,0,0,1-4.38-4.38h0a4.38,4.38,0,0,1,4.38-4.38h0a4.38,4.38,0,0,1,4.38,4.38h0A4.38,4.38,0,0,1,214.47,88.5Z"/><path class="cls-5" d="M214.47,97.25h0a4.38,4.38,0,0,1-4.38-4.38h0a4.38,4.38,0,0,1,4.38-4.38h0a4.38,4.38,0,0,1,4.38,4.38h0A4.38,4.38,0,0,1,214.47,97.25Z"/><path class="cls-5" d="M197,71h0a4.38,4.38,0,0,1-4.38-4.38h0A4.38,4.38,0,0,1,197,62.24h0a4.38,4.38,0,0,1,4.38,4.38h0A4.38,4.38,0,0,1,197,71Z"/><path class="cls-5" d="M197,79.75h0a4.38,4.38,0,0,1-4.38-4.37h0A4.38,4.38,0,0,1,197,71h0a4.38,4.38,0,0,1,4.38,4.38h0A4.38,4.38,0,0,1,197,79.75Z"/><rect class="cls-6" x="105.1" y="1" width="35" height="105"/><line class="cls-7" x1="15.91" y1="2.63" x2="1.78" y2="16.76"/><line class="cls-7" x1="68.41" y1="2.63" x2="54.28" y2="16.76"/><line class="cls-7" x1="85.91" y1="2.63" x2="71.78" y2="16.76"/><line class="cls-7" x1="121.08" y1="20.18" x2="106.95" y2="34.32"/><line class="cls-8" x1="175.1" y1="1" x2="175.1" y2="106"/><line class="cls-8" x1="262.6" y1="53.5" x2="262.6" y2="106"/><line class="cls-8" x1="350.1" y1="53.5" x2="175.1" y2="53.5"/><line class="cls-9" x1="277.84" y1="55.75" x2="273.6" y2="60"/><line class="cls-10" x1="269.09" y1="55.75" x2="264.85" y2="60"/><line class="cls-9" x1="295.34" y1="55.75" x2="291.1" y2="60"/><line class="cls-10" x1="269.09" y1="64.5" x2="264.85" y2="68.75"/><line class="cls-9" x1="312.88" y1="55.75" x2="308.63" y2="60"/><line class="cls-9" x1="312.88" y1="64.5" x2="308.63" y2="68.75"/><line class="cls-9" x1="312.88" y1="73.25" x2="308.63" y2="77.5"/><line class="cls-9" x1="312.88" y1="82" x2="308.63" y2="86.25"/><line class="cls-10" x1="286.59" y1="55.75" x2="282.35" y2="60"/><line class="cls-10" x1="286.59" y1="64.5" x2="282.35" y2="68.75"/><line class="cls-10" x1="304.09" y1="55.75" x2="299.85" y2="60"/><line class="cls-11" x1="-24.23" y1="0.92" x2="325.77" y2="0.92"/></g></svg>