<svg id="圖層_1" data-name="圖層 1" xmlns="http://www.w3.org/2000/svg" xmlns:xlink="http://www.w3.org/1999/xlink" viewBox="0 0 351 107"><defs><style>.cls-1,.cls-2{fill:#fff;}.cls-1{stroke:#b2b2b2;}.cls-1,.cls-11,.cls-13,.cls-14,.cls-7,.cls-9{stroke-miterlimit:10;}.cls-3{fill:red;}.cls-4{fill:#005dff;}.cls-5{fill:#ff302a;}.cls-6{fill:#008ed6;}.cls-10,.cls-11,.cls-12,.cls-13,.cls-14,.cls-7,.cls-8,.cls-9{fill:none;}.cls-7{stroke:red;stroke-width:2px;}.cls-8{stroke:#14b045;stroke-width:2.7px;}.cls-11,.cls-12,.cls-13,.cls-8{stroke-linecap:round;}.cls-12,.cls-8{stroke-linejoin:round;}.cls-9{stroke:#000;}.cls-11{stroke:#ff302a;}.cls-11,.cls-12,.cls-13{stroke-width:1.66px;}.cls-12,.cls-13{stroke:#005dff;}.cls-14{stroke-width:0.8px;stroke:url(#未命名漸層);}</style><linearGradient id="未命名漸層" x1="0.5" y1="107.08" x2="350.5" y2="107.08" gradientTransform="matrix(1, 0, 0, -1, 0, 108)" gradientUnits="userSpaceOnUse"><stop offset="0" stop-color="#b47c24" stop-opacity="0"/><stop offset="0.5" stop-color="#f2d77a"/><stop offset="1" stop-color="#b47c24" stop-opacity="0"/></linearGradient></defs><g id="圖層_1-2" data-name="圖層 1"><rect class="cls-1" x="0.5" y="1" width="17.5" height="17.5"/><rect class="cls-1" x="0.5" y="18.5" width="17.5" height="17.5"/><rect class="cls-1" x="0.5" y="36" width="17.5" height="17.5"/><rect class="cls-1" x="0.5" y="53.5" width="17.5" height="17.5"/><rect class="cls-1" x="0.5" y="71" width="17.5" height="17.5"/><rect class="cls-1" x="0.5" y="88.5" width="17.5" height="17.5"/><rect class="cls-1" x="18" y="1" width="17.5" height="17.5"/><rect class="cls-1" x="18" y="18.5" width="17.5" height="17.5"/><rect class="cls-1" x="18" y="36" width="17.5" height="17.5"/><rect class="cls-1" x="18" y="53.5" width="17.5" height="17.5"/><rect class="cls-1" x="18" y="71" width="17.5" height="17.5"/><rect class="cls-1" x="18" y="88.5" width="17.5" height="17.5"/><rect class="cls-1" x="35.5" y="1" width="17.5" height="17.5"/><rect class="cls-1" x="35.5" y="18.5" width="17.5" height="17.5"/><rect class="cls-1" x="35.5" y="36" width="17.5" height="17.5"/><rect class="cls-1" x="35.5" y="53.5" width="17.5" height="17.5"/><rect class="cls-1" x="35.5" y="71" width="17.5" height="17.5"/><rect class="cls-1" x="35.5" y="88.5" width="17.5" height="17.5"/><rect class="cls-1" x="53" y="1" width="17.5" height="17.5"/><rect class="cls-1" x="53" y="18.5" width="17.5" height="17.5"/><rect class="cls-1" x="53" y="36" width="17.5" height="17.5"/><rect class="cls-1" x="53" y="53.5" width="17.5" height="17.5"/><rect class="cls-1" x="53" y="71" width="17.5" height="17.5"/><rect class="cls-1" x="53" y="88.5" width="17.5" height="17.5"/><rect class="cls-1" x="70.5" y="1" width="17.5" height="17.5"/><rect class="cls-1" x="70.5" y="18.5" width="17.5" height="17.5"/><rect class="cls-1" x="70.5" y="36" width="17.5" height="17.5"/><rect class="cls-1" x="70.5" y="53.5" width="17.5" height="17.5"/><rect class="cls-1" x="70.5" y="71" width="17.5" height="17.5"/><rect class="cls-1" x="70.5" y="88.5" width="17.5" height="17.5"/><rect class="cls-2" x="88" y="1" width="17.5" height="17.5"/><rect class="cls-1" x="88" y="18.5" width="17.5" height="17.5"/><rect class="cls-1" x="88" y="36" width="17.5" height="17.5"/><rect class="cls-1" x="88" y="53.5" width="17.5" height="17.5"/><rect class="cls-1" x="88" y="71" width="17.5" height="17.5"/><rect class="cls-1" x="88" y="88.5" width="17.5" height="17.5"/><rect class="cls-1" x="105.5" y="1" width="17.5" height="17.5"/><rect class="cls-1" x="105.5" y="18.5" width="17.5" height="17.5"/><rect class="cls-1" x="105.5" y="36" width="17.5" height="17.5"/><rect class="cls-1" x="105.5" y="53.5" width="17.5" height="17.5"/><rect class="cls-1" x="105.5" y="71" width="17.5" height="17.5"/><rect class="cls-1" x="105.5" y="88.5" width="17.5" height="17.5"/><rect class="cls-1" x="123" y="1" width="17.5" height="17.5"/><rect class="cls-1" x="123" y="18.5" width="17.5" height="17.5"/><rect class="cls-1" x="123" y="36" width="17.5" height="17.5"/><rect class="cls-1" x="123" y="53.5" width="17.5" height="17.5"/><rect class="cls-1" x="123" y="71" width="17.5" height="17.5"/><rect class="cls-1" x="123" y="88.5" width="17.5" height="17.5"/><rect class="cls-1" x="140.5" y="1" width="17.5" height="17.5"/><rect class="cls-1" x="140.5" y="18.5" width="17.5" height="17.5"/><rect class="cls-1" x="140.5" y="36" width="17.5" height="17.5"/><rect class="cls-1" x="140.5" y="53.5" width="17.5" height="17.5"/><rect class="cls-1" x="140.5" y="71" width="17.5" height="17.5"/><rect class="cls-1" x="140.5" y="88.5" width="17.5" height="17.5"/><rect class="cls-1" x="158" y="1" width="17.5" height="17.5"/><rect class="cls-1" x="158" y="18.5" width="17.5" height="17.5"/><rect class="cls-1" x="158" y="36" width="17.5" height="17.5"/><rect class="cls-1" x="158" y="53.5" width="17.5" height="17.5"/><rect class="cls-1" x="158" y="71" width="17.5" height="17.5"/><rect class="cls-1" x="158" y="88.5" width="17.5" height="17.5"/><rect class="cls-1" x="175.5" y="1" width="17.5" height="17.5"/><rect class="cls-1" x="175.5" y="18.5" width="17.5" height="17.5"/><rect class="cls-1" x="175.5" y="36" width="17.5" height="17.5"/><rect class="cls-1" x="175.5" y="53.5" width="17.5" height="17.5"/><rect class="cls-1" x="175.5" y="71" width="17.5" height="17.5"/><rect class="cls-1" x="175.5" y="88.5" width="17.5" height="17.5"/><rect class="cls-1" x="193" y="1" width="17.5" height="17.5"/><rect class="cls-1" x="193" y="18.5" width="17.5" height="17.5"/><rect class="cls-1" x="193" y="36" width="17.5" height="17.5"/><rect class="cls-1" x="193" y="53.5" width="17.5" height="17.5"/><rect class="cls-1" x="193" y="71" width="17.5" height="17.5"/><rect class="cls-1" x="193" y="88.5" width="17.5" height="17.5"/><rect class="cls-1" x="210.5" y="1" width="17.5" height="17.5"/><rect class="cls-1" x="210.5" y="18.5" width="17.5" height="17.5"/><rect class="cls-1" x="210.5" y="36" width="17.5" height="17.5"/><rect class="cls-1" x="210.5" y="53.5" width="17.5" height="17.5"/><rect class="cls-1" x="210.5" y="71" width="17.5" height="17.5"/><rect class="cls-1" x="210.5" y="88.5" width="17.5" height="17.5"/><rect class="cls-1" x="228" y="1" width="17.5" height="17.5"/><rect class="cls-1" x="228" y="18.5" width="17.5" height="17.5"/><rect class="cls-1" x="228" y="36" width="17.5" height="17.5"/><rect class="cls-1" x="228" y="53.5" width="17.5" height="17.5"/><rect class="cls-1" x="228" y="71" width="17.5" height="17.5"/><rect class="cls-1" x="228" y="88.5" width="17.5" height="17.5"/><rect class="cls-1" x="245.5" y="1" width="17.5" height="17.5"/><rect class="cls-1" x="245.5" y="18.5" width="17.5" height="17.5"/><rect class="cls-1" x="245.5" y="36" width="17.5" height="17.5"/><rect class="cls-1" x="245.5" y="53.5" width="17.5" height="17.5"/><rect class="cls-1" x="245.5" y="71" width="17.5" height="17.5"/><rect class="cls-1" x="245.5" y="88.5" width="17.5" height="17.5"/><rect class="cls-1" x="263" y="1" width="17.5" height="17.5"/><rect class="cls-1" x="263" y="18.5" width="17.5" height="17.5"/><rect class="cls-1" x="263" y="36" width="17.5" height="17.5"/><rect class="cls-1" x="263" y="53.5" width="17.5" height="17.5"/><rect class="cls-1" x="263" y="71" width="17.5" height="17.5"/><rect class="cls-1" x="263" y="88.5" width="17.5" height="17.5"/><rect class="cls-1" x="280.5" y="1" width="17.5" height="17.5"/><rect class="cls-1" x="280.5" y="18.5" width="17.5" height="17.5"/><rect class="cls-1" x="280.5" y="36" width="17.5" height="17.5"/><rect class="cls-1" x="280.5" y="53.5" width="17.5" height="17.5"/><rect class="cls-1" x="280.5" y="71" width="17.5" height="17.5"/><rect class="cls-1" x="280.5" y="88.5" width="17.5" height="17.5"/><rect class="cls-1" x="298" y="1" width="17.5" height="17.5"/><rect class="cls-1" x="298" y="18.5" width="17.5" height="17.5"/><rect class="cls-1" x="298" y="36" width="17.5" height="17.5"/><rect class="cls-1" x="298" y="53.5" width="17.5" height="17.5"/><rect class="cls-1" x="298" y="71" width="17.5" height="17.5"/><rect class="cls-1" x="298" y="88.5" width="17.5" height="17.5"/><rect class="cls-1" x="315.5" y="1" width="17.5" height="17.5"/><rect class="cls-1" x="315.5" y="18.5" width="17.5" height="17.5"/><rect class="cls-1" x="315.5" y="36" width="17.5" height="17.5"/><rect class="cls-1" x="315.5" y="53.5" width="17.5" height="17.5"/><rect class="cls-1" x="315.5" y="71" width="17.5" height="17.5"/><rect class="cls-1" x="315.5" y="88.5" width="17.5" height="17.5"/><rect class="cls-1" x="333" y="1" width="17.5" height="17.5"/><rect class="cls-1" x="333" y="18.5" width="17.5" height="17.5"/><rect class="cls-1" x="333" y="36" width="17.5" height="17.5"/><rect class="cls-1" x="333" y="53.5" width="17.5" height="17.5"/><rect class="cls-1" x="333" y="71" width="17.5" height="17.5"/><rect class="cls-1" x="333" y="88.5" width="17.5" height="17.5"/><circle class="cls-2" cx="9.25" cy="9.75" r="7.62"/><path class="cls-3" d="M9.25,3.25a6.5,6.5,0,1,1-6.5,6.5,6.51,6.51,0,0,1,6.5-6.5M9.25,1h0a8.75,8.75,0,0,0,0,17.5h0A8.75,8.75,0,0,0,9.25,1Z"/><circle class="cls-2" cx="26.75" cy="9.75" r="7.62"/><path class="cls-4" d="M26.75,3.25a6.5,6.5,0,1,1-6.5,6.5,6.51,6.51,0,0,1,6.5-6.5m0-2.25A8.75,8.75,0,1,0,35.5,9.75,8.75,8.75,0,0,0,26.75,1Z"/><circle class="cls-2" cx="44.25" cy="9.75" r="7.62"/><path class="cls-3" d="M44.25,3.25a6.5,6.5,0,1,1-6.5,6.5,6.51,6.51,0,0,1,6.5-6.5m0-2.25A8.75,8.75,0,1,0,53,9.75,8.75,8.75,0,0,0,44.25,1Z"/><circle class="cls-2" cx="61.75" cy="9.75" r="7.62"/><path class="cls-4" d="M61.75,3.25a6.5,6.5,0,1,1-6.5,6.5,6.51,6.51,0,0,1,6.5-6.5m0-2.25A8.75,8.75,0,1,0,70.5,9.75,8.75,8.75,0,0,0,61.75,1Z"/><circle class="cls-2" cx="79.25" cy="9.75" r="7.62"/><path class="cls-3" d="M79.25,3.25a6.5,6.5,0,1,1-6.5,6.5,6.51,6.51,0,0,1,6.5-6.5m0-2.25h0a8.75,8.75,0,0,0,0,17.5h0a8.75,8.75,0,0,0,0-17.5Z"/><circle class="cls-2" cx="96.75" cy="9.75" r="7.62"/><path class="cls-4" d="M96.75,3.25a6.5,6.5,0,1,1-6.5,6.5,6.51,6.51,0,0,1,6.5-6.5m0-2.25a8.75,8.75,0,1,0,8.75,8.75A8.75,8.75,0,0,0,96.75,1Z"/><path class="cls-2" d="M114.25,17.37a7.62,7.62,0,1,1,7.62-7.62A7.64,7.64,0,0,1,114.25,17.37Z"/><path class="cls-3" d="M114.25,3.25a6.5,6.5,0,1,1-6.5,6.5,6.51,6.51,0,0,1,6.5-6.5m0-2.25A8.75,8.75,0,1,0,123,9.75,8.75,8.75,0,0,0,114.25,1Z"/><path class="cls-2" d="M61.75,34.88a7.63,7.63,0,1,1,7.62-7.63A7.63,7.63,0,0,1,61.75,34.88Z"/><path class="cls-4" d="M61.75,20.75a6.5,6.5,0,1,1-6.5,6.5,6.51,6.51,0,0,1,6.5-6.5m0-2.25a8.75,8.75,0,1,0,8.75,8.75,8.75,8.75,0,0,0-8.75-8.75Z"/><path class="cls-2" d="M96.75,34.88a7.63,7.63,0,1,1,7.62-7.63A7.63,7.63,0,0,1,96.75,34.88Z"/><path class="cls-4" d="M96.75,20.75a6.5,6.5,0,1,1-6.5,6.5,6.51,6.51,0,0,1,6.5-6.5m0-2.25a8.75,8.75,0,1,0,8.75,8.75,8.75,8.75,0,0,0-8.75-8.75Z"/><path class="cls-2" d="M114.25,34.88a7.63,7.63,0,1,1,7.62-7.63A7.64,7.64,0,0,1,114.25,34.88Z"/><path class="cls-3" d="M114.25,20.75a6.5,6.5,0,1,1-6.5,6.5,6.51,6.51,0,0,1,6.5-6.5m0-2.25A8.75,8.75,0,1,0,123,27.25a8.75,8.75,0,0,0-8.75-8.75Z"/><path class="cls-2" d="M114.25,52.38a7.62,7.62,0,1,1,7.62-7.62A7.64,7.64,0,0,1,114.25,52.38Z"/><path class="cls-3" d="M114.25,38.25a6.5,6.5,0,1,1-6.5,6.5,6.51,6.51,0,0,1,6.5-6.5m0-2.25A8.75,8.75,0,1,0,123,44.75,8.75,8.75,0,0,0,114.25,36Z"/><path class="cls-2" d="M114.25,69.88a7.62,7.62,0,1,1,7.62-7.62A7.64,7.64,0,0,1,114.25,69.88Z"/><path class="cls-3" d="M114.25,55.75a6.5,6.5,0,1,1-6.5,6.5,6.51,6.51,0,0,1,6.5-6.5m0-2.25a8.75,8.75,0,0,0-8.75,8.75h0a8.75,8.75,0,0,0,17.5,0h0a8.75,8.75,0,0,0-8.75-8.75Z"/><path class="cls-2" d="M114.25,87.38a7.62,7.62,0,1,1,7.62-7.62A7.64,7.64,0,0,1,114.25,87.38Z"/><path class="cls-3" d="M114.25,73.25a6.5,6.5,0,1,1-6.5,6.5,6.51,6.51,0,0,1,6.5-6.5m0-2.25A8.75,8.75,0,1,0,123,79.75,8.75,8.75,0,0,0,114.25,71Z"/><path class="cls-2" d="M114.25,104.88a7.62,7.62,0,1,1,7.62-7.62A7.64,7.64,0,0,1,114.25,104.88Z"/><path class="cls-3" d="M114.25,90.75a6.5,6.5,0,1,1-6.5,6.5,6.51,6.51,0,0,1,6.5-6.5m0-2.25A8.75,8.75,0,1,0,123,97.25a8.75,8.75,0,0,0-8.75-8.75Z"/><circle class="cls-2" cx="131.75" cy="97.25" r="7.62"/><path class="cls-3" d="M131.75,90.75a6.5,6.5,0,1,1-6.5,6.5,6.51,6.51,0,0,1,6.5-6.5m0-2.25a8.75,8.75,0,1,0,8.75,8.75,8.75,8.75,0,0,0-8.75-8.75Z"/><path class="cls-2" d="M179.88,9.19a3.81,3.81,0,1,1,3.81-3.81A3.82,3.82,0,0,1,179.88,9.19Z"/><path class="cls-5" d="M179.88,2.12a3.25,3.25,0,1,1-3.25,3.25,3.26,3.26,0,0,1,3.25-3.25m0-1.12a4.38,4.38,0,1,0,4.38,4.38A4.38,4.38,0,0,0,179.88,1Z"/><path class="cls-2" d="M188.63,9.19a3.81,3.81,0,1,1,3.81-3.81A3.82,3.82,0,0,1,188.63,9.19Z"/><path class="cls-4" d="M188.63,2.12a3.25,3.25,0,1,1-3.25,3.25,3.26,3.26,0,0,1,3.25-3.25m0-1.12A4.38,4.38,0,1,0,193,5.38,4.38,4.38,0,0,0,188.63,1Z"/><circle class="cls-2" cx="179.88" cy="14.13" r="3.81"/><path class="cls-5" d="M179.88,10.88a3.25,3.25,0,1,1-3.25,3.25,3.26,3.26,0,0,1,3.25-3.25m0-1.13a4.38,4.38,0,1,0,4.38,4.38,4.38,4.38,0,0,0-4.38-4.38Z"/><circle class="cls-2" cx="188.63" cy="14.13" r="3.81"/><path class="cls-4" d="M188.63,10.88a3.25,3.25,0,1,1-3.25,3.25,3.26,3.26,0,0,1,3.25-3.25m0-1.13A4.38,4.38,0,1,0,193,14.13a4.38,4.38,0,0,0-4.38-4.38Z"/><circle class="cls-2" cx="188.63" cy="22.88" r="3.81"/><path class="cls-4" d="M188.63,19.63a3.25,3.25,0,1,1-3.25,3.25,3.26,3.26,0,0,1,3.25-3.25m0-1.13A4.38,4.38,0,1,0,193,22.88a4.38,4.38,0,0,0-4.38-4.38Z"/><circle class="cls-2" cx="188.63" cy="31.63" r="3.81"/><path class="cls-4" d="M188.63,28.38a3.25,3.25,0,1,1-3.25,3.25,3.26,3.26,0,0,1,3.25-3.25m0-1.13A4.38,4.38,0,1,0,193,31.63a4.38,4.38,0,0,0-4.38-4.38Z"/><circle class="cls-2" cx="188.63" cy="40.38" r="3.81"/><path class="cls-4" d="M188.63,37.13a3.25,3.25,0,1,1-3.25,3.25,3.26,3.26,0,0,1,3.25-3.25m0-1.13A4.38,4.38,0,1,0,193,40.38,4.38,4.38,0,0,0,188.63,36Z"/><path class="cls-2" d="M197.38,9.19a3.81,3.81,0,1,1,3.81-3.81A3.82,3.82,0,0,1,197.38,9.19Z"/><path class="cls-5" d="M197.38,2.12a3.25,3.25,0,1,1-3.25,3.25,3.26,3.26,0,0,1,3.25-3.25m0-1.12a4.38,4.38,0,1,0,4.38,4.38A4.38,4.38,0,0,0,197.38,1Z"/><path class="cls-2" d="M206.13,9.19a3.81,3.81,0,1,1,3.81-3.81A3.82,3.82,0,0,1,206.13,9.19Z"/><path class="cls-4" d="M206.13,2.12a3.25,3.25,0,1,1-3.25,3.25,3.26,3.26,0,0,1,3.25-3.25m0-1.12a4.38,4.38,0,1,0,4.38,4.38A4.38,4.38,0,0,0,206.13,1Z"/><path class="cls-2" d="M214.88,9.19a3.81,3.81,0,1,1,3.81-3.81A3.82,3.82,0,0,1,214.88,9.19Z"/><path class="cls-5" d="M214.88,2.12a3.25,3.25,0,1,1-3.25,3.25,3.26,3.26,0,0,1,3.25-3.25m0-1.12a4.38,4.38,0,1,0,4.38,4.38A4.38,4.38,0,0,0,214.88,1Z"/><circle class="cls-2" cx="214.88" cy="14.13" r="3.81"/><path class="cls-5" d="M214.88,10.88a3.25,3.25,0,1,1-3.25,3.25,3.26,3.26,0,0,1,3.25-3.25m0-1.13a4.38,4.38,0,1,0,4.38,4.38,4.38,4.38,0,0,0-4.38-4.38Z"/><circle class="cls-2" cx="214.88" cy="22.88" r="3.81"/><path class="cls-5" d="M214.88,19.63a3.25,3.25,0,1,1-3.25,3.25,3.26,3.26,0,0,1,3.25-3.25m0-1.13a4.38,4.38,0,1,0,4.38,4.38,4.38,4.38,0,0,0-4.38-4.38Z"/><circle class="cls-2" cx="214.88" cy="31.63" r="3.81"/><path class="cls-5" d="M214.88,28.38a3.25,3.25,0,1,1-3.25,3.25,3.26,3.26,0,0,1,3.25-3.25m0-1.13a4.38,4.38,0,1,0,4.38,4.38,4.38,4.38,0,0,0-4.38-4.38Z"/><path class="cls-5" d="M179.88,62.25h0a4.38,4.38,0,0,1-4.38-4.38h0a4.38,4.38,0,0,1,4.38-4.38h0a4.38,4.38,0,0,1,4.38,4.38h0A4.39,4.39,0,0,1,179.88,62.25Z"/><path class="cls-6" d="M188.63,62.25h0a4.38,4.38,0,0,1-4.38-4.38h0a4.38,4.38,0,0,1,4.38-4.38h0A4.38,4.38,0,0,1,193,57.87h0A4.39,4.39,0,0,1,188.63,62.25Z"/><path class="cls-6" d="M188.63,71h0a4.38,4.38,0,0,1-4.38-4.38h0a4.38,4.38,0,0,1,4.38-4.38h0A4.38,4.38,0,0,1,193,66.62h0A4.39,4.39,0,0,1,188.63,71Z"/><path class="cls-5" d="M197.38,62.25h0A4.38,4.38,0,0,1,193,57.87h0a4.38,4.38,0,0,1,4.38-4.38h0a4.38,4.38,0,0,1,4.38,4.38h0A4.39,4.39,0,0,1,197.38,62.25Z"/><path class="cls-6" d="M206.13,62.25h0a4.38,4.38,0,0,1-4.38-4.38h0a4.38,4.38,0,0,1,4.38-4.38h0a4.38,4.38,0,0,1,4.38,4.38h0A4.39,4.39,0,0,1,206.13,62.25Z"/><path class="cls-5" d="M197.38,71h0A4.38,4.38,0,0,1,193,66.62h0a4.38,4.38,0,0,1,4.38-4.38h0a4.38,4.38,0,0,1,4.38,4.38h0A4.39,4.39,0,0,1,197.38,71Z"/><path class="cls-5" d="M197.38,79.75h0A4.38,4.38,0,0,1,193,75.37h0A4.38,4.38,0,0,1,197.38,71h0a4.38,4.38,0,0,1,4.38,4.38h0A4.39,4.39,0,0,1,197.38,79.75Z"/><path class="cls-5" d="M214.88,62.25h0a4.38,4.38,0,0,1-4.38-4.38h0a4.38,4.38,0,0,1,4.38-4.38h0a4.38,4.38,0,0,1,4.38,4.38h0A4.39,4.39,0,0,1,214.88,62.25Z"/><path class="cls-5" d="M214.88,71h0a4.38,4.38,0,0,1-4.38-4.38h0a4.38,4.38,0,0,1,4.38-4.38h0a4.38,4.38,0,0,1,4.38,4.38h0A4.39,4.39,0,0,1,214.88,71Z"/><path class="cls-5" d="M214.88,79.75h0a4.38,4.38,0,0,1-4.38-4.38h0A4.38,4.38,0,0,1,214.88,71h0a4.38,4.38,0,0,1,4.38,4.38h0A4.39,4.39,0,0,1,214.88,79.75Z"/><path class="cls-5" d="M214.88,88.5h0a4.38,4.38,0,0,1-4.38-4.38h0a4.38,4.38,0,0,1,4.38-4.38h0a4.38,4.38,0,0,1,4.38,4.38h0A4.39,4.39,0,0,1,214.88,88.5Z"/><path class="cls-5" d="M214.88,97.25h0a4.38,4.38,0,0,1-4.38-4.38h0a4.38,4.38,0,0,1,4.38-4.38h0a4.38,4.38,0,0,1,4.38,4.38h0A4.39,4.39,0,0,1,214.88,97.25Z"/><rect class="cls-7" x="105.5" y="1" width="35" height="105"/><line class="cls-8" x1="16.37" y1="2.63" x2="2.24" y2="16.76"/><line class="cls-8" x1="68.82" y1="2.63" x2="54.68" y2="16.76"/><line class="cls-8" x1="86.32" y1="2.63" x2="72.18" y2="16.76"/><line class="cls-8" x1="121.32" y1="20.75" x2="107.18" y2="34.88"/><line class="cls-9" x1="175.5" y1="1" x2="175.5" y2="106"/><line class="cls-9" x1="263" y1="53.5" x2="263" y2="106"/><line class="cls-9" x1="350.5" y1="53.5" x2="175.5" y2="53.5"/><line class="cls-10" x1="270.79" y1="55.15" x2="264.68" y2="61.27"/><line class="cls-11" x1="278.25" y1="55.75" x2="274" y2="60"/><line class="cls-12" x1="269.5" y1="55.75" x2="265.25" y2="60"/><line class="cls-13" x1="269.5" y1="64.5" x2="265.25" y2="68.75"/><line class="cls-11" x1="295.75" y1="55.75" x2="291.5" y2="60"/><line class="cls-13" x1="287" y1="55.75" x2="282.75" y2="60"/><line class="cls-13" x1="287" y1="64.5" x2="282.75" y2="68.75"/><line class="cls-11" x1="313.25" y1="55.75" x2="309" y2="60"/><line class="cls-11" x1="313.25" y1="64.5" x2="309" y2="68.75"/><line class="cls-11" x1="313.25" y1="73.25" x2="309" y2="77.5"/><line class="cls-11" x1="313.25" y1="82" x2="309" y2="86.25"/><line class="cls-13" x1="304.5" y1="55.75" x2="300.25" y2="60"/><line class="cls-14" x1="0.5" y1="0.92" x2="350.5" y2="0.92"/></g></svg>