<svg id="圖層_1" data-name="圖層 1" xmlns="http://www.w3.org/2000/svg" xmlns:xlink="http://www.w3.org/1999/xlink" viewBox="0 0 351 106.5"><defs><style>.cls-1,.cls-2{fill:#fff;}.cls-1{stroke:#b2b2b2;}.cls-1,.cls-10,.cls-11,.cls-6,.cls-8,.cls-9{stroke-miterlimit:10;}.cls-3{fill:red;}.cls-4{fill:#005dff;}.cls-5{fill:#ff302a;}.cls-10,.cls-11,.cls-6,.cls-7,.cls-8,.cls-9{fill:none;}.cls-6{stroke:red;stroke-width:2px;}.cls-7{stroke:#14b045;stroke-linejoin:round;stroke-width:2.7px;}.cls-10,.cls-7,.cls-9{stroke-linecap:round;}.cls-8{stroke:#000;}.cls-9{stroke:#005dff;}.cls-10,.cls-9{stroke-width:1.66px;}.cls-10{stroke:#ff302a;}.cls-11{stroke-width:0.8px;stroke:url(#未命名漸層);}</style><linearGradient id="未命名漸層" x1="0.5" y1="107.08" x2="350.5" y2="107.08" gradientTransform="matrix(1, 0, 0, -1, 0, 108)" gradientUnits="userSpaceOnUse"><stop offset="0" stop-color="#b47c24" stop-opacity="0"/><stop offset="0.5" stop-color="#f2d77a"/><stop offset="1" stop-color="#b47c24" stop-opacity="0"/></linearGradient></defs><g id="圖層_1-2" data-name="圖層 1"><rect class="cls-1" x="0.5" y="1" width="17.5" height="17.5"/><rect class="cls-1" x="0.5" y="18.5" width="17.5" height="17.5"/><rect class="cls-1" x="0.5" y="36" width="17.5" height="17.5"/><rect class="cls-1" x="0.5" y="53.5" width="17.5" height="17.5"/><rect class="cls-1" x="0.5" y="71" width="17.5" height="17.5"/><rect class="cls-1" x="0.5" y="88.5" width="17.5" height="17.5"/><rect class="cls-1" x="18" y="1" width="17.5" height="17.5"/><rect class="cls-1" x="18" y="18.5" width="17.5" height="17.5"/><rect class="cls-1" x="18" y="36" width="17.5" height="17.5"/><rect class="cls-1" x="18" y="53.5" width="17.5" height="17.5"/><rect class="cls-1" x="18" y="71" width="17.5" height="17.5"/><rect class="cls-1" x="18" y="88.5" width="17.5" height="17.5"/><rect class="cls-1" x="35.5" y="1" width="17.5" height="17.5"/><rect class="cls-1" x="35.5" y="18.5" width="17.5" height="17.5"/><rect class="cls-1" x="35.5" y="36" width="17.5" height="17.5"/><rect class="cls-1" x="35.5" y="53.5" width="17.5" height="17.5"/><rect class="cls-1" x="35.5" y="71" width="17.5" height="17.5"/><rect class="cls-1" x="35.5" y="88.5" width="17.5" height="17.5"/><rect class="cls-1" x="53" y="1" width="17.5" height="17.5"/><rect class="cls-1" x="53" y="18.5" width="17.5" height="17.5"/><rect class="cls-1" x="53" y="36" width="17.5" height="17.5"/><rect class="cls-1" x="53" y="53.5" width="17.5" height="17.5"/><rect class="cls-1" x="53" y="71" width="17.5" height="17.5"/><rect class="cls-1" x="53" y="88.5" width="17.5" height="17.5"/><rect class="cls-1" x="70.5" y="1" width="17.5" height="17.5"/><rect class="cls-1" x="70.5" y="18.5" width="17.5" height="17.5"/><rect class="cls-1" x="70.5" y="36" width="17.5" height="17.5"/><rect class="cls-1" x="70.5" y="53.5" width="17.5" height="17.5"/><rect class="cls-1" x="70.5" y="71" width="17.5" height="17.5"/><rect class="cls-1" x="70.5" y="88.5" width="17.5" height="17.5"/><rect class="cls-2" x="88" y="1" width="17.5" height="17.5"/><rect class="cls-1" x="88" y="18.5" width="17.5" height="17.5"/><rect class="cls-1" x="88" y="36" width="17.5" height="17.5"/><rect class="cls-1" x="88" y="53.5" width="17.5" height="17.5"/><rect class="cls-1" x="88" y="71" width="17.5" height="17.5"/><rect class="cls-1" x="88" y="88.5" width="17.5" height="17.5"/><rect class="cls-1" x="105.5" y="1" width="17.5" height="17.5"/><rect class="cls-1" x="105.5" y="18.5" width="17.5" height="17.5"/><rect class="cls-1" x="105.5" y="36" width="17.5" height="17.5"/><rect class="cls-1" x="105.5" y="53.5" width="17.5" height="17.5"/><rect class="cls-1" x="105.5" y="71" width="17.5" height="17.5"/><rect class="cls-1" x="105.5" y="88.5" width="17.5" height="17.5"/><rect class="cls-1" x="123" y="1" width="17.5" height="17.5"/><rect class="cls-1" x="123" y="18.5" width="17.5" height="17.5"/><rect class="cls-1" x="123" y="36" width="17.5" height="17.5"/><rect class="cls-1" x="123" y="53.5" width="17.5" height="17.5"/><rect class="cls-1" x="123" y="71" width="17.5" height="17.5"/><rect class="cls-1" x="123" y="88.5" width="17.5" height="17.5"/><rect class="cls-1" x="140.5" y="1" width="17.5" height="17.5"/><rect class="cls-1" x="140.5" y="18.5" width="17.5" height="17.5"/><rect class="cls-1" x="140.5" y="36" width="17.5" height="17.5"/><rect class="cls-1" x="140.5" y="53.5" width="17.5" height="17.5"/><rect class="cls-1" x="140.5" y="71" width="17.5" height="17.5"/><rect class="cls-1" x="140.5" y="88.5" width="17.5" height="17.5"/><rect class="cls-1" x="158" y="1" width="17.5" height="17.5"/><circle class="cls-2" cx="131.75" cy="9.75" r="7.62"/><path class="cls-3" d="M131.75,3.25a6.5,6.5,0,1,1-6.5,6.5,6.51,6.51,0,0,1,6.5-6.5m0-2.25A8.75,8.75,0,0,0,123,9.75h0a8.75,8.75,0,0,0,17.5,0h0A8.75,8.75,0,0,0,131.75,1Z"/><circle class="cls-2" cx="149.25" cy="9.75" r="7.62"/><path class="cls-4" d="M149.25,3.25a6.5,6.5,0,1,1-6.5,6.5,6.51,6.51,0,0,1,6.5-6.5m0-2.25h0a8.75,8.75,0,0,0-8.75,8.75h0a8.75,8.75,0,0,0,8.75,8.75h0A8.75,8.75,0,0,0,158,9.75h0A8.75,8.75,0,0,0,149.25,1Z"/><circle class="cls-2" cx="166.75" cy="9.75" r="7.62"/><path class="cls-3" d="M166.75,3.25a6.5,6.5,0,1,1-6.5,6.5,6.51,6.51,0,0,1,6.5-6.5m0-2.25h0A8.75,8.75,0,0,0,158,9.75h0a8.75,8.75,0,0,0,8.75,8.75h0a8.75,8.75,0,0,0,8.75-8.75h0A8.75,8.75,0,0,0,166.75,1Z"/><rect class="cls-1" x="158" y="18.5" width="17.5" height="17.5"/><rect class="cls-1" x="158" y="36" width="17.5" height="17.5"/><rect class="cls-1" x="158" y="53.5" width="17.5" height="17.5"/><rect class="cls-1" x="158" y="71" width="17.5" height="17.5"/><rect class="cls-1" x="158" y="88.5" width="17.5" height="17.5"/><rect class="cls-1" x="175.5" y="1" width="17.5" height="17.5"/><rect class="cls-1" x="175.5" y="18.5" width="17.5" height="17.5"/><rect class="cls-1" x="175.5" y="36" width="17.5" height="17.5"/><rect class="cls-1" x="175.5" y="53.5" width="17.5" height="17.5"/><rect class="cls-1" x="175.5" y="71" width="17.5" height="17.5"/><rect class="cls-1" x="175.5" y="88.5" width="17.5" height="17.5"/><rect class="cls-1" x="193" y="1" width="17.5" height="17.5"/><rect class="cls-1" x="193" y="18.5" width="17.5" height="17.5"/><rect class="cls-1" x="193" y="36" width="17.5" height="17.5"/><rect class="cls-1" x="193" y="53.5" width="17.5" height="17.5"/><rect class="cls-1" x="193" y="71" width="17.5" height="17.5"/><rect class="cls-1" x="193" y="88.5" width="17.5" height="17.5"/><rect class="cls-1" x="210.5" y="1" width="17.5" height="17.5"/><rect class="cls-1" x="210.5" y="18.5" width="17.5" height="17.5"/><rect class="cls-1" x="210.5" y="36" width="17.5" height="17.5"/><rect class="cls-1" x="210.5" y="53.5" width="17.5" height="17.5"/><rect class="cls-1" x="210.5" y="71" width="17.5" height="17.5"/><rect class="cls-1" x="210.5" y="88.5" width="17.5" height="17.5"/><rect class="cls-1" x="228" y="1" width="17.5" height="17.5"/><rect class="cls-1" x="228" y="18.5" width="17.5" height="17.5"/><rect class="cls-1" x="228" y="36" width="17.5" height="17.5"/><rect class="cls-1" x="228" y="53.5" width="17.5" height="17.5"/><rect class="cls-1" x="228" y="71" width="17.5" height="17.5"/><rect class="cls-1" x="228" y="88.5" width="17.5" height="17.5"/><rect class="cls-1" x="245.5" y="1" width="17.5" height="17.5"/><rect class="cls-1" x="245.5" y="18.5" width="17.5" height="17.5"/><rect class="cls-1" x="245.5" y="36" width="17.5" height="17.5"/><rect class="cls-1" x="245.5" y="53.5" width="17.5" height="17.5"/><rect class="cls-1" x="245.5" y="71" width="17.5" height="17.5"/><rect class="cls-1" x="245.5" y="88.5" width="17.5" height="17.5"/><rect class="cls-1" x="263" y="1" width="17.5" height="17.5"/><rect class="cls-1" x="263" y="18.5" width="17.5" height="17.5"/><rect class="cls-1" x="263" y="36" width="17.5" height="17.5"/><rect class="cls-1" x="263" y="53.5" width="17.5" height="17.5"/><rect class="cls-1" x="263" y="71" width="17.5" height="17.5"/><rect class="cls-1" x="263" y="88.5" width="17.5" height="17.5"/><rect class="cls-1" x="280.5" y="1" width="17.5" height="17.5"/><rect class="cls-1" x="280.5" y="18.5" width="17.5" height="17.5"/><rect class="cls-1" x="280.5" y="36" width="17.5" height="17.5"/><rect class="cls-1" x="280.5" y="53.5" width="17.5" height="17.5"/><rect class="cls-1" x="280.5" y="71" width="17.5" height="17.5"/><rect class="cls-1" x="280.5" y="88.5" width="17.5" height="17.5"/><rect class="cls-1" x="298" y="1" width="17.5" height="17.5"/><rect class="cls-1" x="298" y="18.5" width="17.5" height="17.5"/><rect class="cls-1" x="298" y="36" width="17.5" height="17.5"/><rect class="cls-1" x="298" y="53.5" width="17.5" height="17.5"/><rect class="cls-1" x="298" y="71" width="17.5" height="17.5"/><rect class="cls-1" x="298" y="88.5" width="17.5" height="17.5"/><rect class="cls-1" x="315.5" y="1" width="17.5" height="17.5"/><rect class="cls-1" x="315.5" y="18.5" width="17.5" height="17.5"/><rect class="cls-1" x="315.5" y="36" width="17.5" height="17.5"/><rect class="cls-1" x="315.5" y="53.5" width="17.5" height="17.5"/><rect class="cls-1" x="315.5" y="71" width="17.5" height="17.5"/><rect class="cls-1" x="315.5" y="88.5" width="17.5" height="17.5"/><rect class="cls-1" x="333" y="1" width="17.5" height="17.5"/><rect class="cls-1" x="333" y="18.5" width="17.5" height="17.5"/><rect class="cls-1" x="333" y="36" width="17.5" height="17.5"/><rect class="cls-1" x="333" y="53.5" width="17.5" height="17.5"/><rect class="cls-1" x="333" y="71" width="17.5" height="17.5"/><rect class="cls-1" x="333" y="88.5" width="17.5" height="17.5"/><circle class="cls-2" cx="9.25" cy="9.75" r="7.62"/><path class="cls-4" d="M9.25,3.25a6.5,6.5,0,1,1-6.5,6.5,6.51,6.51,0,0,1,6.5-6.5M9.25,1h0a8.75,8.75,0,0,0,0,17.5h0A8.75,8.75,0,0,0,9.25,1Z"/><circle class="cls-2" cx="26.75" cy="9.75" r="7.62"/><path class="cls-3" d="M26.75,3.25a6.5,6.5,0,1,1-6.5,6.5,6.51,6.51,0,0,1,6.5-6.5m0-2.25A8.75,8.75,0,1,0,35.5,9.75,8.75,8.75,0,0,0,26.75,1Z"/><circle class="cls-2" cx="44.25" cy="9.75" r="7.62"/><path class="cls-4" d="M44.25,3.25a6.5,6.5,0,1,1-6.5,6.5,6.51,6.51,0,0,1,6.5-6.5m0-2.25A8.75,8.75,0,1,0,53,9.75,8.75,8.75,0,0,0,44.25,1Z"/><circle class="cls-2" cx="61.75" cy="9.75" r="7.62"/><path class="cls-3" d="M61.75,3.25a6.5,6.5,0,1,1-6.5,6.5,6.51,6.51,0,0,1,6.5-6.5m0-2.25A8.75,8.75,0,1,0,70.5,9.75,8.75,8.75,0,0,0,61.75,1Z"/><circle class="cls-2" cx="79.25" cy="9.75" r="7.62"/><path class="cls-4" d="M79.25,3.25a6.5,6.5,0,1,1-6.5,6.5,6.51,6.51,0,0,1,6.5-6.5m0-2.25h0a8.75,8.75,0,0,0,0,17.5h0a8.75,8.75,0,0,0,0-17.5Z"/><circle class="cls-2" cx="96.75" cy="9.75" r="7.62"/><path class="cls-3" d="M96.75,3.25a6.5,6.5,0,1,1-6.5,6.5,6.51,6.51,0,0,1,6.5-6.5m0-2.25a8.75,8.75,0,1,0,8.75,8.75A8.75,8.75,0,0,0,96.75,1Z"/><path class="cls-2" d="M114.25,17.38a7.63,7.63,0,1,1,7.62-7.62A7.64,7.64,0,0,1,114.25,17.38Z"/><path class="cls-4" d="M114.25,3.25a6.5,6.5,0,1,1-6.5,6.5,6.51,6.51,0,0,1,6.5-6.5m0-2.25A8.75,8.75,0,1,0,123,9.75,8.75,8.75,0,0,0,114.25,1Z"/><circle class="cls-2" cx="61.75" cy="27.25" r="7.62"/><path class="cls-3" d="M61.75,20.75a6.5,6.5,0,1,1-6.5,6.5,6.51,6.51,0,0,1,6.5-6.5m0-2.25a8.75,8.75,0,1,0,8.75,8.75,8.75,8.75,0,0,0-8.75-8.75Z"/><circle class="cls-2" cx="44.25" cy="27.25" r="7.62"/><path class="cls-4" d="M44.25,20.75a6.5,6.5,0,1,1-6.5,6.5,6.51,6.51,0,0,1,6.5-6.5m0-2.25A8.75,8.75,0,1,0,53,27.25a8.75,8.75,0,0,0-8.75-8.75Z"/><circle class="cls-2" cx="9.25" cy="27.25" r="7.62"/><path class="cls-4" d="M9.25,20.75a6.5,6.5,0,1,1-6.5,6.5,6.51,6.51,0,0,1,6.5-6.5m0-2.25A8.75,8.75,0,1,0,18,27.25,8.75,8.75,0,0,0,9.25,18.5Z"/><circle class="cls-2" cx="79.25" cy="27.25" r="7.62"/><path class="cls-4" d="M79.25,20.75a6.5,6.5,0,1,1-6.5,6.5,6.51,6.51,0,0,1,6.5-6.5m0-2.25A8.75,8.75,0,1,0,88,27.25a8.75,8.75,0,0,0-8.75-8.75Z"/><circle class="cls-2" cx="44.25" cy="44.75" r="7.62"/><path class="cls-4" d="M44.25,38.25a6.5,6.5,0,1,1-6.5,6.5,6.51,6.51,0,0,1,6.5-6.5m0-2.25a8.75,8.75,0,0,0-8.75,8.75h0a8.75,8.75,0,0,0,17.5,0h0A8.75,8.75,0,0,0,44.25,36Z"/><circle class="cls-2" cx="44.25" cy="62.25" r="7.62"/><path class="cls-4" d="M44.25,55.75a6.5,6.5,0,1,1-6.5,6.5,6.51,6.51,0,0,1,6.5-6.5m0-2.25A8.75,8.75,0,1,0,53,62.25a8.75,8.75,0,0,0-8.75-8.75Z"/><circle class="cls-2" cx="61.75" cy="44.75" r="7.62"/><path class="cls-3" d="M61.75,38.25a6.5,6.5,0,1,1-6.5,6.5,6.51,6.51,0,0,1,6.5-6.5m0-2.25A8.75,8.75,0,0,0,53,44.75h0a8.75,8.75,0,0,0,17.5,0h0A8.75,8.75,0,0,0,61.75,36Z"/><circle class="cls-2" cx="61.75" cy="62.25" r="7.62"/><path class="cls-3" d="M61.75,55.75a6.5,6.5,0,1,1-6.5,6.5,6.51,6.51,0,0,1,6.5-6.5m0-2.25a8.75,8.75,0,1,0,8.75,8.75,8.75,8.75,0,0,0-8.75-8.75Z"/><circle class="cls-2" cx="61.75" cy="79.75" r="7.62"/><path class="cls-3" d="M61.75,73.25a6.5,6.5,0,1,1-6.5,6.5,6.51,6.51,0,0,1,6.5-6.5m0-2.25a8.75,8.75,0,1,0,8.75,8.75A8.75,8.75,0,0,0,61.75,71Z"/><circle class="cls-2" cx="179.88" cy="5.38" r="3.81"/><path class="cls-4" d="M179.88,2.12a3.25,3.25,0,1,1-3.25,3.25,3.26,3.26,0,0,1,3.25-3.25m0-1.12a4.38,4.38,0,1,0,4.38,4.38A4.38,4.38,0,0,0,179.88,1Z"/><circle class="cls-2" cx="188.63" cy="5.38" r="3.81"/><path class="cls-5" d="M188.63,2.12a3.25,3.25,0,1,1-3.25,3.25,3.26,3.26,0,0,1,3.25-3.25m0-1.12A4.38,4.38,0,1,0,193,5.38,4.38,4.38,0,0,0,188.63,1Z"/><circle class="cls-2" cx="179.88" cy="14.13" r="3.81"/><path class="cls-4" d="M179.88,10.88a3.25,3.25,0,1,1-3.25,3.25,3.26,3.26,0,0,1,3.25-3.25m0-1.13a4.38,4.38,0,1,0,4.38,4.38,4.38,4.38,0,0,0-4.38-4.38Z"/><circle class="cls-2" cx="188.63" cy="14.13" r="3.81"/><path class="cls-5" d="M188.63,10.88a3.25,3.25,0,1,1-3.25,3.25,3.26,3.26,0,0,1,3.25-3.25m0-1.13A4.38,4.38,0,1,0,193,14.13a4.38,4.38,0,0,0-4.38-4.38Z"/><circle class="cls-2" cx="197.38" cy="5.38" r="3.81"/><path class="cls-4" d="M197.38,2.12a3.25,3.25,0,1,1-3.25,3.25,3.26,3.26,0,0,1,3.25-3.25m0-1.12a4.38,4.38,0,1,0,4.38,4.38A4.38,4.38,0,0,0,197.38,1Z"/><path class="cls-2" d="M206.13,9.19a3.81,3.81,0,1,1,3.81-3.81A3.82,3.82,0,0,1,206.13,9.19Z"/><path class="cls-5" d="M206.13,2.12a3.25,3.25,0,1,1-3.25,3.25,3.26,3.26,0,0,1,3.25-3.25m0-1.12a4.38,4.38,0,1,0,4.38,4.38A4.38,4.38,0,0,0,206.13,1Z"/><circle class="cls-2" cx="214.88" cy="5.38" r="3.81"/><path class="cls-4" d="M214.88,2.12a3.25,3.25,0,1,1-3.25,3.25,3.26,3.26,0,0,1,3.25-3.25m0-1.12a4.38,4.38,0,1,0,4.38,4.38A4.38,4.38,0,0,0,214.88,1Z"/><path class="cls-2" d="M206.13,17.94a3.81,3.81,0,1,1,3.81-3.81A3.82,3.82,0,0,1,206.13,17.94Z"/><path class="cls-5" d="M206.13,10.88a3.25,3.25,0,1,1-3.25,3.25,3.26,3.26,0,0,1,3.25-3.25m0-1.13a4.38,4.38,0,1,0,4.38,4.38,4.38,4.38,0,0,0-4.38-4.38Z"/><circle class="cls-2" cx="214.88" cy="14.13" r="3.81"/><path class="cls-4" d="M214.88,10.88a3.25,3.25,0,1,1-3.25,3.25,3.26,3.26,0,0,1,3.25-3.25m0-1.13a4.38,4.38,0,1,0,4.38,4.38,4.38,4.38,0,0,0-4.38-4.38Z"/><circle class="cls-2" cx="223.63" cy="5.38" r="3.81"/><path class="cls-5" d="M223.63,2.12a3.25,3.25,0,1,1-3.25,3.25,3.26,3.26,0,0,1,3.25-3.25m0-1.12A4.38,4.38,0,1,0,228,5.38,4.38,4.38,0,0,0,223.63,1Z"/><circle class="cls-2" cx="232.38" cy="5.38" r="3.81"/><path class="cls-4" d="M232.38,2.12a3.25,3.25,0,1,1-3.25,3.25,3.26,3.26,0,0,1,3.25-3.25m0-1.12a4.38,4.38,0,1,0,4.38,4.38A4.38,4.38,0,0,0,232.38,1Z"/><circle class="cls-2" cx="241.13" cy="5.38" r="3.81"/><path class="cls-5" d="M241.13,2.12a3.25,3.25,0,1,1-3.25,3.25,3.26,3.26,0,0,1,3.25-3.25m0-1.12a4.38,4.38,0,1,0,4.38,4.38A4.38,4.38,0,0,0,241.13,1Z"/><circle class="cls-2" cx="232.38" cy="14.13" r="3.81"/><path class="cls-4" d="M232.38,10.88a3.25,3.25,0,1,1-3.25,3.25,3.26,3.26,0,0,1,3.25-3.25m0-1.13a4.38,4.38,0,1,0,4.38,4.38,4.38,4.38,0,0,0-4.38-4.38Z"/><circle class="cls-2" cx="241.13" cy="14.13" r="3.81"/><path class="cls-5" d="M241.13,10.88a3.25,3.25,0,1,1-3.25,3.25,3.26,3.26,0,0,1,3.25-3.25m0-1.13a4.38,4.38,0,1,0,4.38,4.38,4.38,4.38,0,0,0-4.38-4.38Z"/><path class="cls-2" d="M206.13,26.69a3.81,3.81,0,1,1,3.81-3.81A3.82,3.82,0,0,1,206.13,26.69Z"/><path class="cls-5" d="M206.13,19.63a3.25,3.25,0,1,1-3.25,3.25,3.26,3.26,0,0,1,3.25-3.25m0-1.13a4.38,4.38,0,1,0,4.38,4.38,4.38,4.38,0,0,0-4.38-4.38Z"/><circle class="cls-2" cx="241.13" cy="22.88" r="3.81"/><path class="cls-5" d="M241.13,19.63a3.25,3.25,0,1,1-3.25,3.25,3.26,3.26,0,0,1,3.25-3.25m0-1.13a4.38,4.38,0,1,0,4.38,4.38,4.38,4.38,0,0,0-4.38-4.38Z"/><path class="cls-5" d="M179.88,62.25h0a4.38,4.38,0,0,1-4.38-4.38h0a4.38,4.38,0,0,1,4.38-4.38h0a4.38,4.38,0,0,1,4.38,4.38h0A4.39,4.39,0,0,1,179.88,62.25Z"/><path class="cls-4" d="M188.63,62.25h0a4.38,4.38,0,0,1-4.38-4.38h0a4.38,4.38,0,0,1,4.38-4.38h0A4.38,4.38,0,0,1,193,57.87h0A4.39,4.39,0,0,1,188.63,62.25Z"/><path class="cls-5" d="M197.38,62.25h0A4.38,4.38,0,0,1,193,57.87h0a4.38,4.38,0,0,1,4.38-4.38h0a4.38,4.38,0,0,1,4.38,4.38h0A4.39,4.39,0,0,1,197.38,62.25Z"/><path class="cls-4" d="M206.13,62.25h0a4.38,4.38,0,0,1-4.38-4.38h0a4.38,4.38,0,0,1,4.38-4.38h0a4.38,4.38,0,0,1,4.38,4.38h0A4.39,4.39,0,0,1,206.13,62.25Z"/><path class="cls-4" d="M206.13,71h0a4.38,4.38,0,0,1-4.38-4.38h0a4.38,4.38,0,0,1,4.38-4.38h0a4.38,4.38,0,0,1,4.38,4.38h0A4.39,4.39,0,0,1,206.13,71Z"/><path class="cls-5" d="M214.88,62.25h0a4.38,4.38,0,0,1-4.38-4.38h0a4.38,4.38,0,0,1,4.38-4.38h0a4.38,4.38,0,0,1,4.38,4.38h0A4.39,4.39,0,0,1,214.88,62.25Z"/><path class="cls-5" d="M214.88,71h0a4.38,4.38,0,0,1-4.38-4.38h0a4.38,4.38,0,0,1,4.38-4.38h0a4.38,4.38,0,0,1,4.38,4.38h0A4.39,4.39,0,0,1,214.88,71Z"/><path class="cls-4" d="M223.63,62.25h0a4.38,4.38,0,0,1-4.38-4.38h0a4.38,4.38,0,0,1,4.38-4.38h0A4.38,4.38,0,0,1,228,57.87h0A4.39,4.39,0,0,1,223.63,62.25Z"/><path class="cls-5" d="M232.38,62.25h0A4.38,4.38,0,0,1,228,57.87h0a4.38,4.38,0,0,1,4.38-4.38h0a4.38,4.38,0,0,1,4.38,4.38h0A4.39,4.39,0,0,1,232.38,62.25Z"/><path class="cls-4" d="M241.13,62.25h0a4.38,4.38,0,0,1-4.38-4.38h0a4.38,4.38,0,0,1,4.38-4.38h0a4.38,4.38,0,0,1,4.38,4.38h0A4.39,4.39,0,0,1,241.13,62.25Z"/><path class="cls-4" d="M241.13,71h0a4.38,4.38,0,0,1-4.38-4.38h0a4.38,4.38,0,0,1,4.38-4.38h0a4.38,4.38,0,0,1,4.38,4.38h0A4.39,4.39,0,0,1,241.13,71Z"/><path class="cls-5" d="M249.88,62.25h0a4.38,4.38,0,0,1-4.38-4.38h0a4.38,4.38,0,0,1,4.38-4.38h0a4.38,4.38,0,0,1,4.38,4.38h0A4.39,4.39,0,0,1,249.88,62.25Z"/><path class="cls-5" d="M249.88,71h0a4.38,4.38,0,0,1-4.38-4.38h0a4.38,4.38,0,0,1,4.38-4.38h0a4.38,4.38,0,0,1,4.38,4.38h0A4.39,4.39,0,0,1,249.88,71Z"/><path class="cls-5" d="M214.88,79.75h0a4.38,4.38,0,0,1-4.38-4.38h0A4.38,4.38,0,0,1,214.88,71h0a4.38,4.38,0,0,1,4.38,4.38h0A4.39,4.39,0,0,1,214.88,79.75Z"/><path class="cls-4" d="M241.13,79.75h0a4.38,4.38,0,0,1-4.38-4.38h0A4.38,4.38,0,0,1,241.13,71h0a4.38,4.38,0,0,1,4.38,4.38h0A4.39,4.39,0,0,1,241.13,79.75Z"/><rect class="cls-6" x="88" y="1" width="87.1" height="17.5"/><line class="cls-7" x1="156.32" y1="2.63" x2="142.19" y2="16.76"/><line class="cls-8" x1="175.5" y1="1" x2="175.5" y2="106"/><line class="cls-8" x1="263" y1="53.5" x2="263" y2="106"/><line class="cls-8" x1="350.5" y1="53.5" x2="175.5" y2="53.5"/><line class="cls-9" x1="278.25" y1="55.75" x2="274" y2="60"/><line class="cls-10" x1="269.5" y1="55.75" x2="265.25" y2="60"/><line class="cls-9" x1="295.75" y1="55.75" x2="291.5" y2="60"/><line class="cls-9" x1="295.75" y1="64.5" x2="291.5" y2="68.75"/><line class="cls-9" x1="295.75" y1="73.25" x2="291.5" y2="77.5"/><line class="cls-9" x1="295.75" y1="82" x2="291.5" y2="86.25"/><line class="cls-9" x1="295.75" y1="90.75" x2="291.5" y2="95"/><line class="cls-9" x1="295.75" y1="99.5" x2="291.5" y2="103.75"/><line class="cls-10" x1="287" y1="55.75" x2="282.75" y2="60"/><line class="cls-10" x1="287" y1="64.5" x2="282.75" y2="68.75"/><line class="cls-10" x1="304.5" y1="55.75" x2="300.25" y2="60"/><line class="cls-11" x1="0.5" y1="0.92" x2="350.5" y2="0.92"/></g></svg>