<?xml version="1.0" encoding="utf-8"?>
<!-- Generator: Adobe Illustrator 25.4.1, SVG Export Plug-In . SVG Version: 6.00 Build 0)  -->
<svg version="1.1" id="圖層_1" xmlns="http://www.w3.org/2000/svg" xmlns:xlink="http://www.w3.org/1999/xlink" x="0px" y="0px"
	 viewBox="0 0 81.3 110.4" style="enable-background:new 0 0 81.3 110.4;" xml:space="preserve">
<style type="text/css">
	.st0{fill-rule:evenodd;clip-rule:evenodd;}
	.st1{fill-rule:evenodd;clip-rule:evenodd;fill:url(#SVGID_1_);}
	.st2{fill-rule:evenodd;clip-rule:evenodd;fill:url(#SVGID_00000037677253545034859700000007545554828487961499_);}
	.st3{fill-rule:evenodd;clip-rule:evenodd;fill:url(#SVGID_00000124140882447230157090000015104168802097310610_);}
	.st4{fill-rule:evenodd;clip-rule:evenodd;fill:url(#SVGID_00000102517563064209273040000000821821198403894686_);}
	.st5{fill-rule:evenodd;clip-rule:evenodd;fill:url(#SVGID_00000042698517614443496520000011560083409545345956_);}
	.st6{fill-rule:evenodd;clip-rule:evenodd;fill:url(#SVGID_00000020371698440680747030000016748075439513670574_);}
	.st7{fill:url(#SVGID_00000070085033473660609940000014529195716286589109_);}
	.st8{fill:url(#SVGID_00000120521563397596109540000007512047574112822694_);}
	.st9{fill:url(#SVGID_00000091718325497079041350000011082475908594451329_);}
	.st10{fill:url(#SVGID_00000162318579517372599120000007917953207299499196_);}
	.st11{fill:url(#SVGID_00000031180761645838801470000011602903644937021343_);}
	.st12{fill:url(#SVGID_00000031177484117925224630000013600869230909971892_);}
	.st13{fill:url(#SVGID_00000176039414737228402180000001977741250780135074_);}
	.st14{fill:url(#SVGID_00000033350496059330594970000017746411350875312293_);}
	.st15{fill:url(#SVGID_00000038410549420523218640000015977101257787555498_);}
	.st16{fill:url(#SVGID_00000085250395333029447150000018066150058674504067_);}
</style>
<g>
	<ellipse class="st0" cx="41.1" cy="44.6" rx="27.3" ry="33"/>
	<g>
		<linearGradient id="SVGID_1_" gradientUnits="userSpaceOnUse" x1="41.7355" y1="49.2322" x2="2.5723" y2="49.2322">
			<stop  offset="3.454230e-03" style="stop-color:#A55723"/>
			<stop  offset="0.1259" style="stop-color:#B06B2F"/>
			<stop  offset="0.1675" style="stop-color:#B57334"/>
			<stop  offset="0.1918" style="stop-color:#BA7B3B"/>
			<stop  offset="0.2298" style="stop-color:#C8924D"/>
			<stop  offset="0.2766" style="stop-color:#DEB66B"/>
			<stop  offset="0.3057" style="stop-color:#EED080"/>
			<stop  offset="0.4824" style="stop-color:#F2E4A2"/>
			<stop  offset="0.534" style="stop-color:#EEDD9C"/>
			<stop  offset="0.6068" style="stop-color:#E4CB8A"/>
			<stop  offset="0.6923" style="stop-color:#D4AD6C"/>
			<stop  offset="0.7868" style="stop-color:#BE8343"/>
			<stop  offset="0.8187" style="stop-color:#B57334"/>
			<stop  offset="0.8726" style="stop-color:#A15B2A"/>
			<stop  offset="0.9041" style="stop-color:#934B23"/>
			<stop  offset="1" style="stop-color:#6E2C1A"/>
		</linearGradient>
		<path class="st1" d="M4.2,37.9C5.7,61.5,27.9,71,37.9,56.1c-0.8,0.9-1.7,1.6-2.8,2.2c-12.9,7-28.5-9-31.1-23
			C4,36.1,4.1,37,4.2,37.9L4.2,37.9z"/>
		
			<linearGradient id="SVGID_00000114041437918211700690000002303256906250820486_" gradientUnits="userSpaceOnUse" x1="-11.2605" y1="30.1391" x2="48.551" y2="30.1391">
			<stop  offset="3.454230e-03" style="stop-color:#A55723"/>
			<stop  offset="0.1259" style="stop-color:#B06B2F"/>
			<stop  offset="0.1675" style="stop-color:#B57334"/>
			<stop  offset="0.1918" style="stop-color:#BA7B3B"/>
			<stop  offset="0.2298" style="stop-color:#C8924D"/>
			<stop  offset="0.2766" style="stop-color:#DEB66B"/>
			<stop  offset="0.3057" style="stop-color:#EED080"/>
			<stop  offset="0.4824" style="stop-color:#F2E4A2"/>
			<stop  offset="0.534" style="stop-color:#EEDD9C"/>
			<stop  offset="0.6068" style="stop-color:#E4CB8A"/>
			<stop  offset="0.6923" style="stop-color:#D4AD6C"/>
			<stop  offset="0.7868" style="stop-color:#BE8343"/>
			<stop  offset="0.8187" style="stop-color:#B57334"/>
			<stop  offset="0.8726" style="stop-color:#A15B2A"/>
			<stop  offset="0.9041" style="stop-color:#934B23"/>
			<stop  offset="1" style="stop-color:#6E2C1A"/>
		</linearGradient>
		<path style="fill-rule:evenodd;clip-rule:evenodd;fill:url(#SVGID_00000114041437918211700690000002303256906250820486_);" d="
			M17.6,42.6c-3.7,9.5,1.1,18.7,12.5,17.4c1.7-0.3,3.4-0.8,5-1.8c-11.1,6-20.9-6.1-12.1-19.9c5.5-8.6,16.7-17.7,17.9-25.9
			c2.3-2.6,3.5-5.1,0-12.3c-0.9,7.7-2.3,15-7.9,21.4C28.8,26.4,20.7,34.7,17.6,42.6L17.6,42.6z"/>
		
			<linearGradient id="SVGID_00000069364413777417261380000002953245328339203508_" gradientUnits="userSpaceOnUse" x1="31.1798" y1="41.8658" x2="73.9808" y2="41.8658">
			<stop  offset="3.454230e-03" style="stop-color:#A55723"/>
			<stop  offset="0.1259" style="stop-color:#B06B2F"/>
			<stop  offset="0.1675" style="stop-color:#B57334"/>
			<stop  offset="0.1918" style="stop-color:#BA7B3B"/>
			<stop  offset="0.2298" style="stop-color:#C8924D"/>
			<stop  offset="0.2766" style="stop-color:#DEB66B"/>
			<stop  offset="0.3057" style="stop-color:#EED080"/>
			<stop  offset="0.4824" style="stop-color:#F2E4A2"/>
			<stop  offset="0.534" style="stop-color:#EEDD9C"/>
			<stop  offset="0.6068" style="stop-color:#E4CB8A"/>
			<stop  offset="0.6923" style="stop-color:#D4AD6C"/>
			<stop  offset="0.7868" style="stop-color:#BE8343"/>
			<stop  offset="0.8187" style="stop-color:#B57334"/>
			<stop  offset="0.8726" style="stop-color:#A15B2A"/>
			<stop  offset="0.9041" style="stop-color:#934B23"/>
			<stop  offset="1" style="stop-color:#6E2C1A"/>
		</linearGradient>
		<path style="fill-rule:evenodd;clip-rule:evenodd;fill:url(#SVGID_00000069364413777417261380000002953245328339203508_);" d="
			M65.4,71.3c9.5-11.5,6-27.4-11.6-45.3C51,23.2,40.9,12.5,40.9,12.5c0.8,7.4,9.9,15.2,15.8,22.9C67.6,49.7,69.5,62,65.4,71.3
			C65.3,71.3,65.3,71.3,65.4,71.3L65.4,71.3z"/>
		
			<linearGradient id="SVGID_00000136382734639659103020000009498057598173012360_" gradientUnits="userSpaceOnUse" x1="66.4538" y1="30.0695" x2="3.4882" y2="30.0695">
			<stop  offset="3.454230e-03" style="stop-color:#A55723"/>
			<stop  offset="0.1259" style="stop-color:#B06B2F"/>
			<stop  offset="0.1675" style="stop-color:#B57334"/>
			<stop  offset="0.1918" style="stop-color:#BA7B3B"/>
			<stop  offset="0.2298" style="stop-color:#C8924D"/>
			<stop  offset="0.2766" style="stop-color:#DEB66B"/>
			<stop  offset="0.3057" style="stop-color:#EED080"/>
			<stop  offset="0.4824" style="stop-color:#F2E4A2"/>
			<stop  offset="0.534" style="stop-color:#EEDD9C"/>
			<stop  offset="0.6068" style="stop-color:#E4CB8A"/>
			<stop  offset="0.6923" style="stop-color:#D4AD6C"/>
			<stop  offset="0.7868" style="stop-color:#BE8343"/>
			<stop  offset="0.8187" style="stop-color:#B57334"/>
			<stop  offset="0.8726" style="stop-color:#A15B2A"/>
			<stop  offset="0.9041" style="stop-color:#934B23"/>
			<stop  offset="1" style="stop-color:#6E2C1A"/>
		</linearGradient>
		<path style="fill-rule:evenodd;clip-rule:evenodd;fill:url(#SVGID_00000136382734639659103020000009498057598173012360_);" d="
			M4,35.1c0.8,13.7,13.3,27.1,26.1,24.8c-9.5,1.1-15.2-7.2-11.5-16.8c3.1-8,10.9-16.4,15.1-21.2c5.6-6.5,8-13.8,7.2-21.9
			c-10.4,6.9-22.5,11-35,11.9c-1.4,7.7-2.1,14.9-2,21.5C4,34,4,34.5,4,35.1L4,35.1L4,35.1z"/>
		
			<linearGradient id="SVGID_00000058590123057289057790000011047969221024968853_" gradientUnits="userSpaceOnUse" x1="40.945" y1="35.6992" x2="94.0703" y2="35.6992">
			<stop  offset="3.454230e-03" style="stop-color:#A55723"/>
			<stop  offset="0.1259" style="stop-color:#B06B2F"/>
			<stop  offset="0.1675" style="stop-color:#B57334"/>
			<stop  offset="0.1918" style="stop-color:#BA7B3B"/>
			<stop  offset="0.2298" style="stop-color:#C8924D"/>
			<stop  offset="0.2766" style="stop-color:#DEB66B"/>
			<stop  offset="0.3057" style="stop-color:#EED080"/>
			<stop  offset="0.4824" style="stop-color:#F2E4A2"/>
			<stop  offset="0.534" style="stop-color:#EEDD9C"/>
			<stop  offset="0.6068" style="stop-color:#E4CB8A"/>
			<stop  offset="0.6923" style="stop-color:#D4AD6C"/>
			<stop  offset="0.7868" style="stop-color:#BE8343"/>
			<stop  offset="0.8187" style="stop-color:#B57334"/>
			<stop  offset="0.8726" style="stop-color:#A15B2A"/>
			<stop  offset="0.9041" style="stop-color:#934B23"/>
			<stop  offset="1" style="stop-color:#6E2C1A"/>
		</linearGradient>
		<path style="fill-rule:evenodd;clip-rule:evenodd;fill:url(#SVGID_00000058590123057289057790000011047969221024968853_);" d="
			M52.8,27.9c17.3,18,21.5,32.4,12.6,43.4C77.1,57,80.6,37.4,76,12c-12.5-0.9-24.6-5-35-11.9c0.7,4.1,0.6,8.2,0,12.3
			C42.6,17.4,47.7,22.6,52.8,27.9L52.8,27.9z"/>
		
			<linearGradient id="SVGID_00000023261153003509262810000015069960423479969426_" gradientUnits="userSpaceOnUse" x1="3.997" y1="62.2561" x2="63.5041" y2="62.2561">
			<stop  offset="3.454230e-03" style="stop-color:#A55723"/>
			<stop  offset="0.1259" style="stop-color:#B06B2F"/>
			<stop  offset="0.1675" style="stop-color:#B57334"/>
			<stop  offset="0.1918" style="stop-color:#BA7B3B"/>
			<stop  offset="0.2298" style="stop-color:#C8924D"/>
			<stop  offset="0.2766" style="stop-color:#DEB66B"/>
			<stop  offset="0.3057" style="stop-color:#EED080"/>
			<stop  offset="0.4824" style="stop-color:#F2E4A2"/>
			<stop  offset="0.534" style="stop-color:#EEDD9C"/>
			<stop  offset="0.6068" style="stop-color:#E4CB8A"/>
			<stop  offset="0.6923" style="stop-color:#D4AD6C"/>
			<stop  offset="0.7868" style="stop-color:#BE8343"/>
			<stop  offset="0.8187" style="stop-color:#B57334"/>
			<stop  offset="0.8726" style="stop-color:#A15B2A"/>
			<stop  offset="0.9041" style="stop-color:#934B23"/>
			<stop  offset="1" style="stop-color:#6E2C1A"/>
		</linearGradient>
		<path style="fill-rule:evenodd;clip-rule:evenodd;fill:url(#SVGID_00000023261153003509262810000015069960423479969426_);" d="
			M37.9,56.1C28.7,68.8,6.4,59.6,4.2,37.9C5.8,62,18,78.8,40.9,89.1c10.3-4.6,18.4-10.5,24.4-17.8c6-9.5,3.3-21.7-8.6-35.9
			c0.8,1,1.5,2,2.1,3C70.4,56.5,52,64.7,44,56.1c-0.5,9.3-1.2,11.2,4.5,17h-2.8h-1.1h-3.7h-3.7h-1.1h-2.8
			C38.7,67.7,38.3,63.8,37.9,56.1L37.9,56.1z"/>
	</g>
	<g>
		<g>
			
				<linearGradient id="SVGID_00000150790972243974893170000016771523876156317586_" gradientUnits="userSpaceOnUse" x1="-53.0664" y1="110.4066" x2="-53.0664" y2="96.374" gradientTransform="matrix(1 0 -0.1507 1 75.5115 0)">
				<stop  offset="0" style="stop-color:#F3E5BF"/>
				<stop  offset="6.850611e-02" style="stop-color:#DAC8A2"/>
				<stop  offset="0.212" style="stop-color:#AA906A"/>
				<stop  offset="0.3355" style="stop-color:#866841"/>
				<stop  offset="0.4327" style="stop-color:#714F28"/>
				<stop  offset="0.4917" style="stop-color:#69461F"/>
				<stop  offset="0.5304" style="stop-color:#6E4B23"/>
				<stop  offset="0.5785" style="stop-color:#7C5B2F"/>
				<stop  offset="0.6315" style="stop-color:#937443"/>
				<stop  offset="0.6878" style="stop-color:#B3975F"/>
				<stop  offset="0.741" style="stop-color:#D8BF7F"/>
				<stop  offset="0.7801" style="stop-color:#E2CC98"/>
				<stop  offset="0.8384" style="stop-color:#EEDCB6"/>
				<stop  offset="0.8955" style="stop-color:#F6E8CC"/>
				<stop  offset="0.9502" style="stop-color:#FBEFDA"/>
				<stop  offset="1" style="stop-color:#FDF1DE"/>
			</linearGradient>
			<polygon style="fill:url(#SVGID_00000150790972243974893170000016771523876156317586_);" points="10.2,98.5 13.7,96.4 10.5,96.4 
				10.5,96.4 5.4,96.4 5.4,96.4 2.2,96.4 5,98.5 3.5,108.3 0,110.4 3.2,110.4 3.2,110.4 8.3,110.4 8.3,110.4 11.6,110.4 8.7,108.3 
							"/>
			
				<linearGradient id="SVGID_00000046318017418423283520000013156657033263868332_" gradientUnits="userSpaceOnUse" x1="-53.0644" y1="110.0439" x2="-53.0644" y2="96.7406" gradientTransform="matrix(1 0 -0.1507 1 75.5115 0)">
				<stop  offset="0" style="stop-color:#D9A659"/>
				<stop  offset="1.052004e-02" style="stop-color:#D09D54"/>
				<stop  offset="5.485997e-02" style="stop-color:#AF7B41"/>
				<stop  offset="0.1003" style="stop-color:#966132"/>
				<stop  offset="0.1466" style="stop-color:#834E27"/>
				<stop  offset="0.1943" style="stop-color:#794321"/>
				<stop  offset="0.2458" style="stop-color:#753F1F"/>
				<stop  offset="0.29" style="stop-color:#7C4522"/>
				<stop  offset="0.3529" style="stop-color:#8E562C"/>
				<stop  offset="0.4269" style="stop-color:#AD723B"/>
				<stop  offset="0.5088" style="stop-color:#D79851"/>
				<stop  offset="0.5104" style="stop-color:#D89951"/>
				<stop  offset="0.5394" style="stop-color:#DCA55C"/>
				<stop  offset="0.6225" style="stop-color:#E7C176"/>
				<stop  offset="0.6948" style="stop-color:#EED385"/>
				<stop  offset="0.7478" style="stop-color:#F0D98B"/>
				<stop  offset="0.7864" style="stop-color:#EDD386"/>
				<stop  offset="0.8378" style="stop-color:#E4C278"/>
				<stop  offset="0.8964" style="stop-color:#D4A660"/>
				<stop  offset="0.9599" style="stop-color:#BF803F"/>
				<stop  offset="1" style="stop-color:#B06427"/>
			</linearGradient>
			<polygon style="fill:url(#SVGID_00000046318017418423283520000013156657033263868332_);" points="1.3,110 3.8,108.5 5.4,98.3 
				3.3,96.7 12.5,96.7 9.9,98.3 8.3,108.5 10.4,110 			"/>
		</g>
		<g>
			
				<linearGradient id="SVGID_00000165915277403254560330000008299803447422886838_" gradientUnits="userSpaceOnUse" x1="11.6302" y1="110.4066" x2="11.6302" y2="98.0562" gradientTransform="matrix(1 0 -0.1507 1 75.5115 0)">
				<stop  offset="0" style="stop-color:#F3E5BF"/>
				<stop  offset="6.850611e-02" style="stop-color:#DAC8A2"/>
				<stop  offset="0.212" style="stop-color:#AA906A"/>
				<stop  offset="0.3355" style="stop-color:#866841"/>
				<stop  offset="0.4327" style="stop-color:#714F28"/>
				<stop  offset="0.4917" style="stop-color:#69461F"/>
				<stop  offset="0.5304" style="stop-color:#6E4B23"/>
				<stop  offset="0.5785" style="stop-color:#7C5B2F"/>
				<stop  offset="0.6315" style="stop-color:#937443"/>
				<stop  offset="0.6878" style="stop-color:#B3975F"/>
				<stop  offset="0.741" style="stop-color:#D8BF7F"/>
				<stop  offset="0.7801" style="stop-color:#E2CC98"/>
				<stop  offset="0.8384" style="stop-color:#EEDCB6"/>
				<stop  offset="0.8955" style="stop-color:#F6E8CC"/>
				<stop  offset="0.9502" style="stop-color:#FBEFDA"/>
				<stop  offset="1" style="stop-color:#FDF1DE"/>
			</linearGradient>
			<polygon style="fill:url(#SVGID_00000165915277403254560330000008299803447422886838_);" points="79.3,99.3 81.3,98.1 79.5,98.1 
				79.5,98.1 76.5,98.1 75.8,102.7 67.6,102.7 67.6,102.7 68.3,98.1 65.3,98.1 65.3,98.1 63.4,98.1 65.1,99.3 64.6,102.7 64.5,103 
				63.6,109.2 61.5,110.4 63.4,110.4 63.4,110.4 66.4,110.4 67.2,105.4 75.4,105.4 74.6,110.4 77.6,110.4 77.6,110.4 79.5,110.4 
				77.8,109.2 			"/>
			
				<linearGradient id="SVGID_00000169553498791362290780000002553952240393352107_" gradientUnits="userSpaceOnUse" x1="11.6317" y1="110.1937" x2="11.6317" y2="98.2704" gradientTransform="matrix(1 0 -0.1507 1 75.5115 0)">
				<stop  offset="0" style="stop-color:#D9A659"/>
				<stop  offset="1.052004e-02" style="stop-color:#D09D54"/>
				<stop  offset="5.485997e-02" style="stop-color:#AF7B41"/>
				<stop  offset="0.1003" style="stop-color:#966132"/>
				<stop  offset="0.1466" style="stop-color:#834E27"/>
				<stop  offset="0.1943" style="stop-color:#794321"/>
				<stop  offset="0.2458" style="stop-color:#753F1F"/>
				<stop  offset="0.29" style="stop-color:#7C4522"/>
				<stop  offset="0.3529" style="stop-color:#8E562C"/>
				<stop  offset="0.4269" style="stop-color:#AD723B"/>
				<stop  offset="0.5088" style="stop-color:#D79851"/>
				<stop  offset="0.5104" style="stop-color:#D89951"/>
				<stop  offset="0.5394" style="stop-color:#DCA55C"/>
				<stop  offset="0.6225" style="stop-color:#E7C176"/>
				<stop  offset="0.6948" style="stop-color:#EED385"/>
				<stop  offset="0.7478" style="stop-color:#F0D98B"/>
				<stop  offset="0.7864" style="stop-color:#EDD386"/>
				<stop  offset="0.8378" style="stop-color:#E4C278"/>
				<stop  offset="0.8964" style="stop-color:#D4A660"/>
				<stop  offset="0.9599" style="stop-color:#BF803F"/>
				<stop  offset="1" style="stop-color:#B06427"/>
			</linearGradient>
			<polygon style="fill:url(#SVGID_00000169553498791362290780000002553952240393352107_);" points="74.8,110.2 75.6,105.2 
				67,105.2 66.2,110.2 62.3,110.2 63.8,109.3 65.3,99.2 64.1,98.3 68.1,98.3 67.4,102.9 76,102.9 76.7,98.3 80.6,98.3 79.1,99.1 
				77.6,109.3 78.8,110.2 			"/>
		</g>
		<g>
			
				<linearGradient id="SVGID_00000106147016535387308190000002458619984529684366_" gradientUnits="userSpaceOnUse" x1="-37.1048" y1="110.4066" x2="-37.1048" y2="98.0571" gradientTransform="matrix(1 0 -0.1507 1 75.5115 0)">
				<stop  offset="0" style="stop-color:#F3E5BF"/>
				<stop  offset="6.850611e-02" style="stop-color:#DAC8A2"/>
				<stop  offset="0.212" style="stop-color:#AA906A"/>
				<stop  offset="0.3355" style="stop-color:#866841"/>
				<stop  offset="0.4327" style="stop-color:#714F28"/>
				<stop  offset="0.4917" style="stop-color:#69461F"/>
				<stop  offset="0.5304" style="stop-color:#6E4B23"/>
				<stop  offset="0.5785" style="stop-color:#7C5B2F"/>
				<stop  offset="0.6315" style="stop-color:#937443"/>
				<stop  offset="0.6878" style="stop-color:#B3975F"/>
				<stop  offset="0.741" style="stop-color:#D8BF7F"/>
				<stop  offset="0.7801" style="stop-color:#E2CC98"/>
				<stop  offset="0.8384" style="stop-color:#EEDCB6"/>
				<stop  offset="0.8955" style="stop-color:#F6E8CC"/>
				<stop  offset="0.9502" style="stop-color:#FBEFDA"/>
				<stop  offset="1" style="stop-color:#FDF1DE"/>
			</linearGradient>
			<path style="fill:url(#SVGID_00000106147016535387308190000002458619984529684366_);" d="M29.3,106.2l-1.9,1.4l-7.1,0
				c-0.5,0-1-0.2-1.3-0.5c-0.3-0.3-0.4-0.8-0.3-1.3l0.8-5l9.2,0l1.2-2.7l-10,0c-1.9,0-3.3,1.2-3.5,2.7l-0.8,5.5
				c-0.2,1.1,0.1,2,0.7,2.9c0.6,0.8,1.6,1.2,2.8,1.2l8.4,0l1.2-2.8h0L29.3,106.2z"/>
			
				<linearGradient id="SVGID_00000103236322738717495900000013982582614067345806_" gradientUnits="userSpaceOnUse" x1="-37.201" y1="110.1941" x2="-37.1947" y2="98.2682" gradientTransform="matrix(1 0 -0.1507 1 75.5115 0)">
				<stop  offset="0" style="stop-color:#D9A659"/>
				<stop  offset="1.052004e-02" style="stop-color:#D09D54"/>
				<stop  offset="5.485997e-02" style="stop-color:#AF7B41"/>
				<stop  offset="0.1003" style="stop-color:#966132"/>
				<stop  offset="0.1466" style="stop-color:#834E27"/>
				<stop  offset="0.1943" style="stop-color:#794321"/>
				<stop  offset="0.2458" style="stop-color:#753F1F"/>
				<stop  offset="0.29" style="stop-color:#7C4522"/>
				<stop  offset="0.3529" style="stop-color:#8E562C"/>
				<stop  offset="0.4269" style="stop-color:#AD723B"/>
				<stop  offset="0.5088" style="stop-color:#D79851"/>
				<stop  offset="0.5104" style="stop-color:#D89951"/>
				<stop  offset="0.5394" style="stop-color:#DCA55C"/>
				<stop  offset="0.6225" style="stop-color:#E7C176"/>
				<stop  offset="0.6948" style="stop-color:#EED385"/>
				<stop  offset="0.7478" style="stop-color:#F0D98B"/>
				<stop  offset="0.7864" style="stop-color:#EDD386"/>
				<stop  offset="0.8378" style="stop-color:#E4C278"/>
				<stop  offset="0.8964" style="stop-color:#D4A660"/>
				<stop  offset="0.9599" style="stop-color:#BF803F"/>
				<stop  offset="1" style="stop-color:#B06427"/>
			</linearGradient>
			<path style="fill:url(#SVGID_00000103236322738717495900000013982582614067345806_);" d="M19,110.2c-1.2,0-2.1-0.4-2.7-1.2
				c-0.6-0.8-0.8-1.7-0.6-2.7l0.8-5.5c0.2-1.5,1.6-2.5,3.2-2.5h9.8l-1,2.3l-9.3,0l-0.8,5.2c-0.1,0.6,0,1.1,0.4,1.5
				c0.3,0.4,0.8,0.6,1.4,0.6h7.1l1.5-1.1l-1.5,3.4H19z"/>
		</g>
		<g>
			
				<linearGradient id="SVGID_00000052783026771263883680000015259209733904022155_" gradientUnits="userSpaceOnUse" x1="-6.3669" y1="110.4066" x2="-6.3669" y2="98.0562" gradientTransform="matrix(1 0 -0.1507 1 75.5115 0)">
				<stop  offset="0" style="stop-color:#F3E5BF"/>
				<stop  offset="6.850611e-02" style="stop-color:#DAC8A2"/>
				<stop  offset="0.212" style="stop-color:#AA906A"/>
				<stop  offset="0.3355" style="stop-color:#866841"/>
				<stop  offset="0.4327" style="stop-color:#714F28"/>
				<stop  offset="0.4917" style="stop-color:#69461F"/>
				<stop  offset="0.5304" style="stop-color:#6E4B23"/>
				<stop  offset="0.5785" style="stop-color:#7C5B2F"/>
				<stop  offset="0.6315" style="stop-color:#937443"/>
				<stop  offset="0.6878" style="stop-color:#B3975F"/>
				<stop  offset="0.741" style="stop-color:#D8BF7F"/>
				<stop  offset="0.7801" style="stop-color:#E2CC98"/>
				<stop  offset="0.8384" style="stop-color:#EEDCB6"/>
				<stop  offset="0.8955" style="stop-color:#F6E8CC"/>
				<stop  offset="0.9502" style="stop-color:#FBEFDA"/>
				<stop  offset="1" style="stop-color:#FDF1DE"/>
			</linearGradient>
			<path style="fill:url(#SVGID_00000052783026771263883680000015259209733904022155_);" d="M59.4,103.7c-0.6-0.8-1.4-1.1-2.5-1.1
				l-6.1,0c0,0,0,0,0,0h-0.3c-1.2,0-1-1.9,0.3-1.9l7.7,0l0.2,1.5l0.7-1.5h0l1.2-2.7l-9.4,0c-1.1,0-2,0.3-2.8,1.1
				c-0.5,0.5-0.9,1-1.1,1.6c0,0-0.5,1.1-0.3,1.9c0,0.7,0.2,1.3,0.6,1.8c0.6,0.8,1.4,1.1,2.4,1.1l6.4,0c0.3,0,0.5,0.1,0.6,0.3
				c0.2,0.2,0.2,0.5,0.2,0.8c0,0.3-0.2,0.5-0.4,0.8c-0.2,0.2-0.5,0.3-0.8,0.3l-7.9,0l-0.6-1l-0.5,1h0l-0.2,0.4l-0.4,0.8l0,0
				l-0.7,1.5l10,0c1.1,0,2-0.4,2.9-1.2c0.8-0.8,1.3-1.7,1.5-2.8C60.2,105.4,60,104.5,59.4,103.7z"/>
			
				<linearGradient id="SVGID_00000049916452553804765810000007390944646851095979_" gradientUnits="userSpaceOnUse" x1="-6.3658" y1="110.1926" x2="-6.3658" y2="98.2695" gradientTransform="matrix(1 0 -0.1507 1 75.5115 0)">
				<stop  offset="0" style="stop-color:#D9A659"/>
				<stop  offset="1.052004e-02" style="stop-color:#D09D54"/>
				<stop  offset="5.485997e-02" style="stop-color:#AF7B41"/>
				<stop  offset="0.1003" style="stop-color:#966132"/>
				<stop  offset="0.1466" style="stop-color:#834E27"/>
				<stop  offset="0.1943" style="stop-color:#794321"/>
				<stop  offset="0.2458" style="stop-color:#753F1F"/>
				<stop  offset="0.29" style="stop-color:#7C4522"/>
				<stop  offset="0.3529" style="stop-color:#8E562C"/>
				<stop  offset="0.4269" style="stop-color:#AD723B"/>
				<stop  offset="0.5088" style="stop-color:#D79851"/>
				<stop  offset="0.5104" style="stop-color:#D89951"/>
				<stop  offset="0.5394" style="stop-color:#DCA55C"/>
				<stop  offset="0.6225" style="stop-color:#E7C176"/>
				<stop  offset="0.6948" style="stop-color:#EED385"/>
				<stop  offset="0.7478" style="stop-color:#F0D98B"/>
				<stop  offset="0.7864" style="stop-color:#EDD386"/>
				<stop  offset="0.8378" style="stop-color:#E4C278"/>
				<stop  offset="0.8964" style="stop-color:#D4A660"/>
				<stop  offset="0.9599" style="stop-color:#BF803F"/>
				<stop  offset="1" style="stop-color:#B06427"/>
			</linearGradient>
			<path style="fill:url(#SVGID_00000049916452553804765810000007390944646851095979_);" d="M46,110.2l0.9-1.8l0.6-1.2l0.4,0.7
				l8.1,0.1c0.3,0,0.7-0.1,0.9-0.4c0.3-0.3,0.4-0.6,0.5-0.9c0.1-0.3,0-0.7-0.2-0.9c-0.2-0.3-0.4-0.4-0.8-0.4H50
				c-1,0-1.8-0.3-2.3-1.1c-0.4-0.5-0.6-1.1-0.6-1.7c-0.1-0.8,0.3-1.8,0.3-1.8c0.2-0.6,0.6-1.1,1.1-1.5c0.7-0.7,1.6-1,2.6-1h9.2
				l-1.5,3.2l-0.1-1h-7.9c-0.5,0-0.8,0.2-0.9,0.3c-0.2,0.2-0.4,0.5-0.4,0.8c-0.1,0.6,0.2,1.2,1,1.2l6.5,0c1.1,0,1.8,0.3,2.4,1.1
				c0.5,0.7,0.7,1.6,0.6,2.6c-0.2,1-0.6,1.9-1.4,2.6c-0.8,0.7-1.7,1.1-2.7,1.1H46z"/>
		</g>
		<g>
			
				<linearGradient id="SVGID_00000173867660698291256500000013673515972194002874_" gradientUnits="userSpaceOnUse" x1="-21.0725" y1="110.4066" x2="-21.0725" y2="98.0571" gradientTransform="matrix(1 0 -0.1507 1 75.5115 0)">
				<stop  offset="0" style="stop-color:#F3E5BF"/>
				<stop  offset="6.850611e-02" style="stop-color:#DAC8A2"/>
				<stop  offset="0.212" style="stop-color:#AA906A"/>
				<stop  offset="0.3355" style="stop-color:#866841"/>
				<stop  offset="0.4327" style="stop-color:#714F28"/>
				<stop  offset="0.4917" style="stop-color:#69461F"/>
				<stop  offset="0.5304" style="stop-color:#6E4B23"/>
				<stop  offset="0.5785" style="stop-color:#7C5B2F"/>
				<stop  offset="0.6315" style="stop-color:#937443"/>
				<stop  offset="0.6878" style="stop-color:#B3975F"/>
				<stop  offset="0.741" style="stop-color:#D8BF7F"/>
				<stop  offset="0.7801" style="stop-color:#E2CC98"/>
				<stop  offset="0.8384" style="stop-color:#EEDCB6"/>
				<stop  offset="0.8955" style="stop-color:#F6E8CC"/>
				<stop  offset="0.9502" style="stop-color:#FBEFDA"/>
				<stop  offset="1" style="stop-color:#FDF1DE"/>
			</linearGradient>
			<polygon style="fill:url(#SVGID_00000173867660698291256500000013673515972194002874_);" points="44.7,110.4 39.7,98.1 
				30.9,110.4 34.3,110.4 34.3,110.4 36.2,110.4 34.9,109.5 38.8,103.8 41,109.5 39.5,110.4 41.3,110.4 41.3,110.4 			"/>
			
				<linearGradient id="SVGID_00000119098669815557699000000002592547238180778422_" gradientUnits="userSpaceOnUse" x1="-21.072" y1="110.2015" x2="-21.0657" y2="98.4939" gradientTransform="matrix(1 0 -0.1507 1 75.5115 0)">
				<stop  offset="0" style="stop-color:#D9A659"/>
				<stop  offset="1.052004e-02" style="stop-color:#D09D54"/>
				<stop  offset="5.485997e-02" style="stop-color:#AF7B41"/>
				<stop  offset="0.1003" style="stop-color:#966132"/>
				<stop  offset="0.1466" style="stop-color:#834E27"/>
				<stop  offset="0.1943" style="stop-color:#794321"/>
				<stop  offset="0.2458" style="stop-color:#753F1F"/>
				<stop  offset="0.29" style="stop-color:#7C4522"/>
				<stop  offset="0.3529" style="stop-color:#8E562C"/>
				<stop  offset="0.4269" style="stop-color:#AD723B"/>
				<stop  offset="0.5088" style="stop-color:#D79851"/>
				<stop  offset="0.5104" style="stop-color:#D89951"/>
				<stop  offset="0.5394" style="stop-color:#DCA55C"/>
				<stop  offset="0.6225" style="stop-color:#E7C176"/>
				<stop  offset="0.6948" style="stop-color:#EED385"/>
				<stop  offset="0.7478" style="stop-color:#F0D98B"/>
				<stop  offset="0.7864" style="stop-color:#EDD386"/>
				<stop  offset="0.8378" style="stop-color:#E4C278"/>
				<stop  offset="0.8964" style="stop-color:#D4A660"/>
				<stop  offset="0.9599" style="stop-color:#BF803F"/>
				<stop  offset="1" style="stop-color:#B06427"/>
			</linearGradient>
			<polygon style="fill:url(#SVGID_00000119098669815557699000000002592547238180778422_);" points="40.2,110.2 41.3,109.6 
				38.9,103.3 34.6,109.6 35.5,110.2 31.3,110.2 39.6,98.5 44.4,110.2 			"/>
		</g>
	</g>
</g>
</svg>
