<svg xmlns="http://www.w3.org/2000/svg" xmlns:xlink="http://www.w3.org/1999/xlink" viewBox="0 0 47.5 47.51"><defs><style>.cls-1{fill:url(#未命名漸層_39);}</style><linearGradient id="未命名漸層_39" y1="23.75" x2="47.5" y2="23.75" gradientUnits="userSpaceOnUse"><stop offset="0" stop-color="#2d3c68"/><stop offset="1" stop-color="#1c232f"/></linearGradient></defs><g id="圖層_5" data-name="圖層 5"><path class="cls-1" d="M45.71,14.7a5.52,5.52,0,0,0,.08-7.11,5.52,5.52,0,0,0-3.74-2l-.56,0h0a5.47,5.47,0,0,0-2,.39A23.76,23.76,0,0,0,2,33.26,5.54,5.54,0,0,0,5.44,42.6a5.06,5.06,0,0,0,.55,0A5.52,5.52,0,0,0,8.55,42a23.72,23.72,0,0,0,39-18.23A23.49,23.49,0,0,0,45.71,14.7ZM41.49,8.88h.22a2.22,2.22,0,0,1-.21,4.43h-.23a2.22,2.22,0,0,1,.22-4.43ZM23.75,3.33A20.33,20.33,0,0,1,36.84,8.1a5.49,5.49,0,0,0,.41,6.57L31.53,25a5,5,0,0,0-.56-.09l-.56,0h0a5.54,5.54,0,0,0-3.24,1.07l-5.34-5.34a5.53,5.53,0,0,0-4.21-8.35,5.07,5.07,0,0,0-.55,0h0a5.56,5.56,0,0,0-4.3,9.07l.06.06L7.11,31.64a5.62,5.62,0,0,0-.57-.09,5.07,5.07,0,0,0-.55,0H6a5.49,5.49,0,0,0-1.08.11,20.13,20.13,0,0,1-1.58-7.88A20.44,20.44,0,0,1,23.75,3.33Zm6.66,24.86h.22a2.22,2.22,0,0,1-.21,4.43h-.23a2.22,2.22,0,0,1,.22-4.43ZM14.86,17.54a2.23,2.23,0,0,1,2.21-2l.22,0A2.22,2.22,0,0,1,17.07,20h-.22A2.22,2.22,0,0,1,14.86,17.54ZM5.77,39.28A2.22,2.22,0,0,1,6,34.85h.22a2.24,2.24,0,0,1,2,2.44,2.21,2.21,0,0,1-2.21,2Zm18,4.9a20.37,20.37,0,0,1-12.82-4.56,5.59,5.59,0,0,0,.58-2,5.5,5.5,0,0,0-1.22-4.07l-.27-.3,5.63-10.14a5,5,0,0,0,.87.17,5.15,5.15,0,0,0,.55,0,5.43,5.43,0,0,0,2.28-.5l5.82,5.82a5.64,5.64,0,0,0-.28,1.23,5.56,5.56,0,0,0,5,6.08,5.24,5.24,0,0,0,.56,0,5.54,5.54,0,0,0,4-9.36l5.63-10.14a5,5,0,0,0,.87.17,5.24,5.24,0,0,0,.56,0,5.48,5.48,0,0,0,1.34-.18A20.45,20.45,0,0,1,23.75,44.18Z"/></g></svg>