<svg width="24" height="24" viewBox="0 0 24 24" fill="none" xmlns="http://www.w3.org/2000/svg">
<path fill-rule="evenodd" clip-rule="evenodd" d="M15.9999 11.5046C15.9999 9.2955 14.209 7.50462 11.9999 7.50462C9.79073 7.50462 7.99987 9.2955 7.99987 11.5046C7.99987 13.7138 9.79073 15.5046 11.9999 15.5046C14.209 15.5046 15.9999 13.7138 15.9999 11.5046ZM9.49987 11.5046C9.49987 10.1239 10.6192 9.0046 11.9999 9.0046C13.3806 9.0046 14.4999 10.1239 14.4999 11.5046C14.4999 12.8853 13.3806 14.0046 11.9999 14.0046C10.6192 14.0046 9.49987 12.8853 9.49987 11.5046Z" fill="#8C95A6"/>
<path fill-rule="evenodd" clip-rule="evenodd" d="M21.701 11.5644C20.596 7.15001 16.6134 4 11.9999 4C7.39759 4 3.42336 7.13467 2.30698 11.5318C2.28582 11.6016 2.2747 11.6751 2.27491 11.75C2.2747 11.8249 2.28582 11.8984 2.30698 11.9682C3.42336 16.3653 7.39759 19.5 11.9999 19.5C16.6134 19.5 20.596 16.35 21.701 11.9356C21.7165 11.8735 21.7239 11.8112 21.7236 11.75C21.7239 11.6888 21.7165 11.6265 21.701 11.5644ZM20.1991 11.75C19.1989 8.09323 15.8587 5.5 11.9999 5.5C8.14094 5.5 4.80085 8.09334 3.80065 11.75C4.80085 15.4067 8.14094 18 11.9999 18C15.8587 18 19.1989 15.4068 20.1991 11.75Z" fill="#8C95A6"/>
</svg>
