<svg width="25" height="25" viewBox="0 0 25 25" fill="none" xmlns="http://www.w3.org/2000/svg">
<rect x="0.666992" y="0.5" width="23.6658" height="24" rx="11.8329" fill="#FA2E2E"/>
<path d="M6.61961 6.67037L6.6194 6.6702L6.7512 7.49122L6.67999 7.56144L6.67999 7.56144L11.5495 12.5L6.67999 17.4386C6.418 17.7043 6.418 18.1344 6.67999 18.4001C6.94275 18.6666 7.36937 18.6666 7.63212 18.4001L12.5 13.4638L17.3678 18.4001L17.3676 18.4003L17.3731 18.4052L17.4374 18.4614L17.4372 18.4616L17.4431 18.466C17.7068 18.6645 18.0811 18.6424 18.3199 18.4001L18.3201 18.4003L18.3248 18.3947L18.3803 18.3296L18.3805 18.3298L18.3848 18.3239C18.5796 18.0577 18.5582 17.6802 18.3199 17.4386C18.3199 17.4386 18.3199 17.4386 18.3199 17.4386L13.4504 12.5L18.3199 7.56144C18.5819 7.29575 18.5819 6.86554 18.3199 6.59985C18.0571 6.33339 17.6306 6.33339 17.3678 6.59985L12.5 11.5362L7.63212 6.59985L7.63231 6.59966L7.62679 6.59483L7.56257 6.53861L7.56275 6.5384L7.55683 6.53394C7.29312 6.33552 6.91885 6.35763 6.67999 6.59985L6.6798 6.59967L6.67505 6.60525L6.61961 6.67037Z" fill="white" stroke="white" stroke-width="0.2"/>
</svg>
