<svg width="120" height="120" viewBox="0 0 120 120" fill="none" xmlns="http://www.w3.org/2000/svg">
<path d="M6.19053 18.5952C6.17056 18.817 6.15903 19.0467 6.15838 19.2854C6.15514 20.4577 6.39078 21.7044 6.81144 22.9352L5.4972 22.1776C5.14761 20.9634 4.95481 19.748 4.95805 18.5924C4.9587 18.396 4.96681 18.2062 4.97834 18.0195L6.19053 18.5952Z" fill="#868EB7"/>
<path d="M76.347 67.3357L95.4295 56.2463L31.6731 19.3359L12.5907 30.4254L76.347 67.3357Z" fill="#313859"/>
<path d="M6.81143 22.9373C7.85754 25.9992 10.0522 28.9619 12.5906 30.4273L76.347 67.3376C77.3403 67.9111 78.2822 68.1943 79.1251 68.2171L80.9356 69.6096C79.6543 69.9741 78.0645 69.7107 76.3431 68.7169L12.5868 31.8067C9.36494 29.9465 6.61718 26.0691 5.49719 22.1797L6.81143 22.9373Z" fill="#868EB7"/>
<path d="M12.591 30.4265L31.6733 19.337C31.192 19.0591 30.7231 18.7276 30.272 18.3516L11.1896 29.4411C11.6407 29.817 12.1098 30.1486 12.591 30.4265Z" fill="#79160D"/>
<path d="M11.1889 29.4421L30.2713 18.3526C29.5138 17.7212 28.8063 16.965 28.1754 16.1289L9.0929 27.2184C9.72407 28.0543 10.4314 28.8107 11.1889 29.4421Z" fill="#8D190F"/>
<path d="M9.09322 27.2173L28.1757 16.1278C26.9691 14.5295 26.0417 12.6397 25.5747 10.7734L6.49231 21.8628C6.95923 23.729 7.8867 25.6188 9.09322 27.2173Z" fill="#A11D11"/>
<path d="M6.49234 21.8624L25.5747 10.773C25.3561 9.8983 25.2384 9.02881 25.2407 8.19687C25.2408 8.12656 25.2421 8.05705 25.2438 7.98828L6.16145 19.0776C6.15967 19.1465 6.15854 19.2161 6.15836 19.2862C6.15611 20.1182 6.27358 20.9877 6.49234 21.8624Z" fill="#8D190F"/>
<path d="M6.1615 19.0809L25.2439 7.99158C25.2648 7.23277 25.3882 6.56213 25.5987 5.98828L6.5163 17.0776C6.30578 17.6514 6.18245 18.3223 6.1615 19.0809Z" fill="#313131"/>
<path d="M6.51579 17.0758L25.5982 5.98648C25.9207 5.10767 26.4478 4.45583 27.1247 4.0625L8.04228 15.152C7.36536 15.5455 6.83829 16.1971 6.51579 17.0758Z" fill="#313131"/>
<path d="M80.9367 67.7805L100.019 56.691C98.968 57.3021 97.5551 57.2903 95.9858 56.5391L76.9033 67.6287C78.4728 68.3798 79.8855 68.3915 80.9367 67.7805Z" fill="#313131"/>
<path d="M76.9033 67.6296L95.9858 56.5399C95.8021 56.4522 95.6165 56.3543 95.4292 56.2461L76.3467 67.3355C76.5342 67.4436 76.7198 67.5417 76.9033 67.6296Z" fill="#79160D"/>
<path d="M81.7891 69.2506L100.871 58.1611C101.673 57.6955 102.297 56.924 102.678 55.8828L83.596 66.9722C83.214 68.0133 82.5903 68.7849 81.7891 69.2506Z" fill="#313131"/>
<path d="M83.1893 45.077C84.2413 44.4656 85.6556 44.4785 87.2291 45.2314C87.4138 45.3199 87.6007 45.4184 87.7894 45.5274C88.2732 45.8068 88.7446 46.1401 89.1976 46.5178C89.9569 47.1504 90.6651 47.9075 91.2968 48.7442C92.5026 50.3418 93.4291 52.2299 93.8963 54.0967C94.1159 54.9752 94.2339 55.8491 94.2317 56.6856C94.2313 56.7564 94.2303 56.8263 94.2284 56.8955C94.2074 57.6581 94.0836 58.3317 93.8723 58.9076C93.5495 59.7872 93.0227 60.4389 92.3457 60.8323L80.3029 67.8309C80.9799 67.4374 81.5068 66.7856 81.8295 65.9061C82.0409 65.3301 82.1646 64.6566 82.1857 63.894C82.1876 63.8247 82.1887 63.7548 82.1888 63.6842C82.1912 62.8476 82.073 61.9738 81.8532 61.0953C81.3862 59.2284 80.4598 57.3403 79.254 55.7428C78.6224 54.9058 77.9141 54.1488 77.1549 53.5161C76.7019 53.1387 76.2305 52.8053 75.7467 52.5259C75.5578 52.417 75.3711 52.3184 75.1864 52.2299C73.6129 51.4768 72.1985 51.464 71.1465 52.0755L83.1893 45.077Z" fill="#083B50"/>
<path d="M75.7472 52.5274C72.1772 50.4664 69.2734 52.12 69.2618 56.2219C69.2499 60.3241 72.1353 65.3213 75.705 67.3822C79.2748 69.4434 82.1776 67.7876 82.1893 63.6857C82.2009 59.5837 79.3169 54.5884 75.7472 52.5274Z" fill="#0070A6"/>
<path d="M20.116 8.75264C21.1681 8.14125 22.5825 8.15433 24.1558 8.90738C24.3405 8.99569 24.5275 9.09427 24.7163 9.2032C25.2001 9.48258 25.6712 9.81581 26.1245 10.1934C26.8836 10.8261 27.5918 11.5832 28.2235 12.42C29.4294 14.0176 30.3556 15.9056 30.8228 17.7726C31.0427 18.651 31.1607 19.5249 31.1584 20.3615C31.1581 20.4321 31.1572 20.5021 31.1551 20.5713C31.1341 21.3339 31.0104 22.0075 30.799 22.5834C30.4762 23.4629 29.9494 24.1149 29.2724 24.5082L17.2297 31.5067C17.9066 31.1134 18.4336 30.4614 18.7562 29.582C18.9676 29.006 19.0914 28.3324 19.1124 27.5699C19.1141 27.5006 19.1154 27.4306 19.1155 27.3599C19.118 26.5233 18.9998 25.6494 18.7801 24.7711C18.313 22.9042 17.3866 21.016 16.1808 19.4186C15.549 18.5817 14.8407 17.8246 14.0817 17.192C13.6284 16.8144 13.1573 16.4812 12.6734 16.2018C12.4846 16.0928 12.2978 15.9941 12.1132 15.9058C10.5397 15.1529 9.12521 15.1399 8.07324 15.7512L20.116 8.75264Z" fill="url(#paint0_linear_885_1656)"/>
<path d="M12.6729 16.2032C9.10311 14.1422 6.19907 15.7958 6.18754 19.8978C6.17586 23.9996 9.06107 28.9969 12.6308 31.0581C16.2006 33.1189 19.1036 31.4635 19.1151 27.3615C19.1267 23.2594 16.2428 18.2642 12.6729 16.2032Z" fill="#E8ECF7"/>
<path d="M76.3929 51.1286L95.4752 40.0391L31.719 3.12891L12.6366 14.2186L76.3929 51.1286Z" fill="url(#paint1_linear_885_1656)"/>
<path d="M83.6239 61.2759L102.706 50.1864C102.153 47.9754 101.056 45.7395 99.6282 43.8477L80.5459 54.9372C81.9737 56.8288 83.071 59.0648 83.6239 61.2759Z" fill="#454545"/>
<path d="M80.5461 54.9371L99.6284 43.8476C98.8803 42.8564 98.0416 41.96 97.1426 41.2109L78.0603 52.3003C78.9591 53.0495 79.798 53.9461 80.5461 54.9371Z" fill="#464746"/>
<path d="M78.06 52.301L97.1423 41.2117C96.6057 40.7645 96.0479 40.3698 95.4749 40.0391L76.3926 51.1286C76.9654 51.4593 77.5234 51.8539 78.06 52.301Z" fill="#464746"/>
<path d="M83.5967 66.9708L102.679 55.8814C102.929 55.1997 103.076 54.4026 103.101 53.5L84.0183 64.5897C83.9934 65.4919 83.8469 66.289 83.5967 66.9708Z" fill="#3F403F"/>
<path d="M84.0179 64.5909L103.1 53.5012C103.103 53.4194 103.104 53.3367 103.104 53.253C103.107 52.2623 102.967 51.2276 102.707 50.1875L83.6243 61.277C83.8846 62.3171 84.0244 63.3517 84.0216 64.3425C84.0212 64.426 84.02 64.5089 84.0179 64.5909Z" fill="#3F403F"/>
<path d="M82.1828 66.4766L83.4908 67.2307C82.9639 68.4696 82.071 69.286 80.9355 69.6092L79.125 68.2167C80.4576 68.253 81.5411 67.637 82.1828 66.4766Z" fill="#707070"/>
<path d="M26.2729 2.59443C27.5182 1.87087 29.1925 1.8862 31.0553 2.77771C31.2742 2.88234 31.4954 2.9992 31.719 3.1282L12.6366 14.2177C12.4131 14.0887 12.1918 13.972 11.973 13.8672C10.11 12.9757 8.43585 12.9603 7.19043 13.6841L26.2729 2.59443Z" fill="#A1A6C6"/>
<path d="M12.6366 14.2178L76.393 51.1279C80.6195 53.568 84.0355 59.4834 84.0217 64.3414C84.0184 65.467 83.8294 66.4346 83.491 67.2302L82.1829 66.476C82.5888 65.7416 82.818 64.7901 82.8213 63.6484C82.8329 59.559 79.9468 54.5614 76.3891 52.5072L12.6328 15.597C9.28175 13.6622 6.51224 15.0173 6.19058 18.5962L4.97839 18.0206C5.25317 13.5862 8.58003 11.8756 12.6366 14.2178Z" fill="#868EB7"/>
<path d="M115.751 56.1618C115.771 56.3836 115.782 56.6133 115.783 56.852C115.786 58.0242 115.55 59.271 115.13 60.5018L116.444 59.7442C116.794 58.53 116.987 57.3145 116.983 56.159C116.983 55.9626 116.975 55.7727 116.963 55.5859L115.751 56.1618Z" fill="#868EB7"/>
<path d="M28.646 114.587L9.56348 103.498L90.2688 56.9023L109.351 67.9918L28.646 114.587Z" fill="#313859"/>
<path d="M115.13 60.5037C114.084 63.5657 111.889 66.5281 109.351 67.9938L28.6454 114.589C27.652 115.163 26.7101 115.446 25.8673 115.469L24.0566 116.861C25.3381 117.225 26.928 116.962 28.6493 115.968L109.355 69.3731C112.576 67.5129 115.324 63.6355 116.444 59.7461L115.13 60.5037Z" fill="#868EB7"/>
<path d="M109.351 67.9929L90.2686 56.9034C90.7499 56.6255 91.2188 56.2939 91.6699 55.918L110.752 67.0073C110.301 67.3834 109.832 67.7149 109.351 67.9929Z" fill="#79160D"/>
<path d="M110.752 67.0083L91.6699 55.919C92.4275 55.2876 93.1348 54.5314 93.766 53.6953L112.848 64.7847C112.217 65.6208 111.51 66.377 110.752 67.0083Z" fill="#8D190F"/>
<path d="M112.848 64.7837L93.7656 53.6944C94.972 52.096 95.8996 50.2062 96.3664 48.3398L115.449 59.4293C114.982 61.2956 114.054 63.1854 112.848 64.7837Z" fill="#A11D11"/>
<path d="M115.449 59.4289L96.3672 48.3394C96.586 47.4647 96.7035 46.5952 96.7012 45.7634C96.7011 45.6931 96.7 45.6234 96.6979 45.5547L115.78 56.6442C115.782 56.713 115.783 56.7825 115.784 56.8528C115.786 57.6847 115.668 58.5542 115.449 59.4289Z" fill="#8D190F"/>
<path d="M115.78 56.6473L96.6976 45.5578C96.6768 44.7991 96.5534 44.1283 96.3428 43.5547L115.425 54.644C115.636 55.2178 115.759 55.8885 115.78 56.6473Z" fill="#313131"/>
<path d="M115.425 54.6423L96.3428 43.5529C96.0205 42.6741 95.4933 42.0222 94.8164 41.6289L113.899 52.7184C114.576 53.1117 115.103 53.7635 115.425 54.6423Z" fill="#313131"/>
<path d="M24.0551 115.034L4.97266 103.945C6.02397 104.556 7.43687 104.544 9.00625 103.793L28.0885 114.882C26.5192 115.633 25.1065 115.645 24.0551 115.034Z" fill="#313131"/>
<path d="M28.0881 114.884L9.00586 103.794C9.18923 103.706 9.37491 103.608 9.56236 103.5L28.6448 114.59C28.4573 114.698 28.2717 114.796 28.0881 114.884Z" fill="#79160D"/>
<path d="M21.8032 92.3269C20.751 91.7155 19.3366 91.7286 17.7632 92.4815C17.5785 92.5698 17.3916 92.6685 17.2028 92.7773C16.719 93.0567 16.2477 93.39 15.7946 93.7677C15.0356 94.4003 14.3272 95.1574 13.6955 95.9941C12.4897 97.5917 11.5633 99.4798 11.0963 101.347C10.8765 102.225 10.7584 103.099 10.7608 103.936C10.761 104.006 10.7619 104.076 10.7639 104.145C10.785 104.908 10.9086 105.582 11.1201 106.158C11.4428 107.037 11.9697 107.689 12.6467 108.082L24.6893 115.081C24.0124 114.688 23.4855 114.036 23.1628 113.156C22.9514 112.58 22.8277 111.907 22.8066 111.144C22.8047 111.075 22.8037 111.005 22.8035 110.934C22.801 110.098 22.9193 109.224 23.1389 108.345C23.6061 106.478 24.5326 104.59 25.7382 102.993C26.3701 102.156 27.0782 101.399 27.8372 100.766C28.2906 100.389 28.7617 100.055 29.2456 99.7758C29.4345 99.667 29.6212 99.5683 29.8059 99.48C31.3793 98.7269 32.7938 98.7141 33.8458 99.3254L21.8032 92.3269Z" fill="url(#paint2_linear_885_1656)"/>
<path d="M29.2459 99.7774C32.8157 97.7165 35.7198 99.3699 35.7313 103.472C35.7429 107.574 32.8577 112.571 29.2879 114.632C25.7181 116.693 22.8154 115.038 22.8037 110.936C22.7921 106.834 25.6762 101.839 29.2459 99.7774Z" fill="#E8ECF7"/>
<path d="M101.827 46.3191C100.775 45.7077 99.3601 45.7207 97.7866 46.4737C97.6021 46.562 97.4152 46.6607 97.2265 46.7696C96.7427 47.0489 96.2713 47.3822 95.8183 47.7599C95.059 48.3925 94.3507 49.1496 93.7191 49.9863C92.5132 51.5839 91.5868 53.472 91.1198 55.3388C90.9 56.2173 90.7819 57.0912 90.7842 57.9277C90.7845 57.9985 90.7856 58.0685 90.7875 58.1376C90.8084 58.9003 90.9323 59.5739 91.1436 60.1499C91.4664 61.0293 91.9932 61.6814 92.6702 62.0746L104.713 69.073C104.036 68.6798 103.509 68.0279 103.186 67.1483C102.975 66.5723 102.851 65.8988 102.83 65.1362C102.828 65.0671 102.827 64.9971 102.827 64.9263C102.825 64.0898 102.943 63.2159 103.163 62.3374C103.63 60.4706 104.556 58.5825 105.762 56.9849C106.393 56.1482 107.102 55.3911 107.861 54.7584C108.314 54.3808 108.785 54.0474 109.269 53.7682C109.458 53.6593 109.645 53.5605 109.83 53.4722C111.403 52.7193 112.817 52.7063 113.869 53.3176L101.827 46.3191Z" fill="url(#paint3_linear_885_1656)"/>
<path d="M109.269 53.7696C112.839 51.7086 115.743 53.3621 115.755 57.4639C115.766 61.5661 112.881 66.5633 109.311 68.6245C105.742 70.6854 102.839 69.0296 102.827 64.9278C102.815 60.8259 105.699 55.8307 109.269 53.7696Z" fill="#E8ECF7"/>
<path d="M28.6 98.3799L9.51758 87.2906L90.2229 40.6953L109.305 51.7847L28.6 98.3799Z" fill="url(#paint4_linear_885_1656)"/>
<path d="M9.5172 87.2891C8.94434 87.6198 8.38639 88.0144 7.84981 88.4615C6.95094 89.2107 6.1122 90.1073 5.36417 91.0982C3.93622 92.99 2.83911 95.226 2.28584 97.4369C2.02564 98.4771 1.88581 99.5118 1.88872 100.502C1.8889 100.586 1.89012 100.669 1.89242 100.751C1.91722 101.653 2.0637 102.45 2.31392 103.132C2.69572 104.173 3.31943 104.945 4.12086 105.411L23.2032 116.5C22.4018 116.034 21.7782 115.263 21.3961 114.222C21.146 113.54 20.9996 112.743 20.9747 111.84C20.9725 111.758 20.9713 111.676 20.971 111.592C20.9682 110.601 21.108 109.567 21.3682 108.526C21.9215 106.316 23.0185 104.08 24.4465 102.188C25.1945 101.197 26.0333 100.3 26.9322 99.551C27.4687 99.1039 28.0267 98.7092 28.5996 98.3785L9.5172 87.2891Z" fill="url(#paint5_linear_885_1656)"/>
<path d="M22.8098 113.727L21.5017 114.481C22.0285 115.72 22.9216 116.536 24.0569 116.859L25.8676 115.467C24.5351 115.503 23.4512 114.887 22.8098 113.727Z" fill="#868EB7"/>
<path d="M95.6688 40.1609C94.4236 39.4373 92.7491 39.4525 90.8863 40.3442C90.6675 40.4488 90.4463 40.5655 90.2227 40.6947L109.305 51.784C109.529 51.655 109.75 51.5382 109.969 51.4335C111.831 50.542 113.506 50.5266 114.751 51.2502L95.6688 40.1609Z" fill="#A1A6C6"/>
<path d="M109.305 51.784L28.5994 98.3793C24.3728 100.82 20.9571 106.735 20.9707 111.593C20.974 112.718 21.1632 113.686 21.5014 114.482L22.8095 113.727C22.4038 112.993 22.1743 112.042 22.171 110.9C22.1595 106.81 25.0456 101.813 28.6033 99.7586L109.309 53.1634C112.66 51.2287 115.429 52.5838 115.751 56.1628L116.963 55.5869C116.688 51.1526 113.361 49.4421 109.305 51.784Z" fill="#868EB7"/>
<path d="M72.2363 32.944L64.5126 28.4845C64.0881 28.2395 63.876 27.9183 63.876 27.5971C63.876 27.2759 64.0881 26.9547 64.5126 26.7096L72.2363 22.2503C72.6606 22.0053 73.2167 21.8828 73.7731 21.8828C74.3294 21.8828 74.8858 22.0053 75.3103 22.2503L83.034 26.7096C83.4585 26.9547 83.6706 27.2758 83.6706 27.5971C83.6706 27.9184 83.4585 28.2395 83.034 28.4845L75.3103 32.944C74.8858 33.1885 74.3297 33.3114 73.7731 33.3114C73.2165 33.3114 72.6608 33.1885 72.2363 32.944Z" fill="#1CD169"/>
<g style="mix-blend-mode:multiply">
<path d="M73.281 29.3106L70.8083 27.8829C70.6724 27.8045 70.6045 27.7017 70.6045 27.5989C70.6045 27.496 70.6724 27.3932 70.8083 27.3148L73.281 25.8872C73.4168 25.8087 73.5948 25.7695 73.7729 25.7695C73.951 25.7695 74.1291 25.8088 74.2651 25.8872L76.7377 27.3148C76.8736 27.3932 76.9415 27.496 76.9415 27.5989C76.9415 27.7018 76.8736 27.8045 76.7377 27.8829L74.2651 29.3106C74.1292 29.3888 73.9511 29.4282 73.7729 29.4282C73.5947 29.4282 73.4168 29.3889 73.281 29.3106Z" fill="#F1F1F6"/>
</g>
<path d="M83.034 28.485L75.3103 32.9445C74.8858 33.189 74.3297 33.3119 73.7731 33.3119C73.2165 33.3119 72.6608 33.189 72.2363 32.944L64.5126 28.485C64.0881 28.24 63.876 27.9189 63.876 27.5977V40.7044C63.876 41.0257 64.0881 41.3467 64.5126 41.5918L72.2363 46.0513C72.6608 46.2958 73.2167 46.4187 73.7731 46.4187C74.3294 46.4187 74.8858 46.2958 75.3103 46.0513L83.034 41.5918C83.4585 41.3468 83.6706 41.0257 83.6706 40.7044V27.5977C83.6706 27.9189 83.4585 28.24 83.034 28.485Z" fill="url(#paint6_linear_885_1656)"/>
<path d="M86.533 40.3381C87.2547 39.9159 87.8597 40.2541 87.8651 41.0918L88.0185 68.3912C88.0204 69.2263 87.4211 70.257 86.701 70.6808L43.7461 95.6384C43.0115 96.0625 42.414 95.7262 42.4103 94.8883L42.2569 67.5909C42.2513 66.7567 42.8452 65.716 43.5744 65.2922L86.533 40.3381Z" fill="#7FD8F7"/>
<path d="M61.7463 61.3321L53.8633 65.884V62.5929L61.7463 58.043V61.3321Z" fill="#1CD169"/>
<path d="M61.7463 68.2583L53.8633 72.8119V69.5291L61.7463 64.9727V68.2583Z" fill="#1CD169"/>
<path d="M77.4226 55.8163L70.4148 59.8638V56.3316L77.428 52.2812L77.4226 55.8163Z" fill="#1CD169"/>
<path d="M53.9286 62.662L77.3787 49.1369L77.3752 73.3143L53.9213 86.8384L53.9286 62.662ZM53.6199 62.4782L53.6143 87.3775L77.6839 73.4952L77.6876 48.6016L53.6199 62.4782Z" fill="#FCFCFC"/>
<path d="M77.4227 52.4605L53.863 66.065C53.7734 66.1153 53.7058 66.0732 53.7058 65.9791C53.7058 65.8723 53.7734 65.7572 53.863 65.705L77.4281 52.0988C77.5104 52.0494 77.5799 52.0915 77.5799 52.192C77.5799 52.2888 77.5104 52.4104 77.4227 52.4605Z" fill="#FCFCFC"/>
<path d="M77.4284 55.9975L53.8632 69.6057C53.7736 69.6587 53.7061 69.6121 53.7061 69.5125C53.7061 69.4092 53.7736 69.2942 53.8632 69.2412L77.4284 55.633C77.5107 55.5864 77.5802 55.6238 77.5802 55.7299C77.5802 55.8295 77.5107 55.9483 77.4284 55.9975Z" fill="#FCFCFC"/>
<path d="M77.4284 59.5326L53.8632 73.1379C53.7736 73.1873 53.7061 73.1471 53.7061 73.0476C53.7061 72.9452 53.7736 72.8264 53.8632 72.7761L77.4284 59.1699C77.5124 59.1186 77.5802 59.1626 77.5802 59.2648C77.5802 59.3617 77.5107 59.4831 77.4284 59.5326Z" fill="#FCFCFC"/>
<path d="M77.4227 63.0686L53.863 76.674C53.7734 76.7234 53.7058 76.6795 53.7058 76.5836C53.7058 76.4803 53.7734 76.3589 53.863 76.3058L77.4281 62.7041C77.5104 62.6547 77.5799 62.6978 77.5799 62.7973C77.5799 62.8943 77.5104 63.0157 77.4227 63.0686Z" fill="#FCFCFC"/>
<path d="M77.4284 66.6041L53.8632 80.2086C53.7736 80.2589 53.7061 80.2187 53.7061 80.1218C53.7061 80.0222 53.7736 79.9008 53.8632 79.8505L77.4284 66.2424C77.5107 66.1959 77.5802 66.2333 77.5802 66.3364C77.5802 66.4343 77.5107 66.5575 77.4284 66.6041Z" fill="#FCFCFC"/>
<path d="M77.4284 70.1392L53.8632 83.7445C53.7736 83.7949 53.7061 83.7537 53.7061 83.6513C53.7061 83.5518 53.7736 83.433 53.8632 83.3838L77.4284 69.781C77.5107 69.7281 77.5802 69.7693 77.5802 69.8688C77.5802 69.9683 77.5107 70.0899 77.4284 70.1392Z" fill="#FCFCFC"/>
<path d="M61.7461 82.476C61.6658 82.5264 61.5999 82.4826 61.5999 82.3892V58.1315C61.5945 58.0336 61.6658 57.9122 61.7461 57.8611C61.8338 57.8191 61.9015 57.8546 61.9015 57.9543V82.2084C61.9015 82.308 61.8338 82.4268 61.7461 82.476Z" fill="#FCFCFC"/>
<path d="M70.4144 77.4742C70.3321 77.5246 70.2627 77.4806 70.2627 77.381V53.1288C70.2627 53.03 70.3321 52.9086 70.4144 52.8592C70.5003 52.8126 70.566 52.8528 70.566 52.9524V77.2065C70.566 77.3034 70.5003 77.4248 70.4144 77.4742Z" fill="#FCFCFC"/>
<path d="M118.693 88.4773C118.693 88.5119 118.691 88.5366 118.681 88.5741C118.681 88.6052 118.68 88.6336 118.676 88.6673C118.672 88.6892 118.66 88.7203 118.658 88.7515C118.647 88.7797 118.64 88.8108 118.628 88.8418C118.619 88.8665 118.608 88.8948 118.599 88.9167C118.583 88.9478 118.572 88.9854 118.554 89.0127C118.546 89.041 118.528 89.0565 118.513 89.0812C118.495 89.1223 118.471 89.1534 118.446 89.1936C118.428 89.2092 118.409 89.2348 118.391 89.2558C118.354 89.2995 118.32 89.3435 118.278 89.3873C118.252 89.412 118.234 89.4301 118.208 89.4522C118.186 89.4767 118.155 89.4988 118.128 89.5243C118.1 89.5518 118.069 89.5765 118.033 89.5955C118.007 89.6203 117.969 89.645 117.936 89.6668C117.887 89.7016 117.832 89.7353 117.777 89.7702L100.911 99.5628L100.907 98.5505L97.1666 96.3887L102.548 93.2495V92.8473L102.897 93.0438L110.214 88.7734L110.196 86.2196L106.76 84.2443L105.974 84.7056L105.971 83.7928L104.823 83.1361L102.541 81.8212L98.5646 79.538L97.5741 80.1145L97.5704 78.9624L94.1351 76.9935L93.3694 77.4393L93.3639 76.5512L89.9303 74.5859L86.3834 76.6482L86.3926 77.4358L85.7074 77.0465L82.166 79.115V79.8962L81.4862 79.507L77.9412 81.5756L77.9448 82.3632L77.2668 81.974L73.7256 84.0452L73.7329 84.83L73.0458 84.4381L69.5007 86.5058L69.5044 87.2906L68.8265 86.9049L65.2815 88.97L65.2888 89.7574L64.6053 89.3682L61.0603 91.4367V92.2215L60.3859 91.8323L56.8374 93.9037L56.8464 94.6885L56.1703 94.2956L52.6199 96.367L52.6345 98.9243L54.6189 100.064L53.7747 100.563L53.773 99.6717L50.3412 97.7L46.7998 99.7684L46.8109 102.326L50.2443 104.3L51.01 103.845L51.0119 104.74L54.4472 106.71L55.2148 106.262L55.2202 107.15L58.6539 109.124L59.4104 108.68L59.4194 109.564L62.8512 111.536L63.6388 111.081L63.6425 111.993L67.0724 113.965L74.5863 109.579V109.066L75.0268 109.325L80.5726 106.085L80.5672 105.503L81.0733 105.789L83.0963 104.605L83.1036 105.587L86.8386 107.745L73.0422 115.759C72.9034 115.837 72.7589 115.906 72.6074 115.965C72.5599 115.98 72.5196 115.999 72.4721 116.014C72.3716 116.049 72.2749 116.083 72.1669 116.105C72.0775 116.129 71.9805 116.158 71.8873 116.179C71.7577 116.204 71.6261 116.23 71.489 116.248C71.4598 116.252 71.436 116.252 71.4087 116.254C71.2296 116.276 71.0614 116.285 70.8823 116.288C70.855 116.288 70.8256 116.294 70.7965 116.294C70.6266 116.292 70.4494 116.279 70.283 116.261C70.2592 116.257 70.2263 116.254 70.1971 116.252C70.0308 116.239 69.8646 116.204 69.7037 116.168C69.6726 116.16 69.6361 116.151 69.6088 116.149C69.4552 116.108 69.3018 116.061 69.1573 116.014C69.1427 116.005 69.1245 116.001 69.11 115.999C68.9417 115.93 68.781 115.855 68.6257 115.771L42.8183 100.865C42.2134 100.516 41.9119 100.058 41.9082 99.5966C41.9157 100.447 41.9193 101.301 41.923 102.151C41.923 102.609 42.2299 103.07 42.8275 103.416L68.6439 118.322C68.7919 118.41 68.9491 118.478 69.11 118.543C69.1136 118.551 69.119 118.551 69.1209 118.551C69.1373 118.556 69.1573 118.562 69.1738 118.565C69.278 118.602 69.384 118.64 69.4882 118.668C69.5303 118.686 69.5759 118.69 69.6235 118.699C69.6562 118.708 69.6837 118.715 69.7202 118.728C69.7532 118.733 69.7823 118.743 69.8134 118.746C69.9158 118.768 70.0181 118.786 70.124 118.796C70.1534 118.803 70.1844 118.805 70.2155 118.808C70.2447 118.808 70.2666 118.808 70.2904 118.817C70.3379 118.825 70.38 118.83 70.4238 118.83C70.5297 118.839 70.632 118.843 70.7344 118.848C70.76 118.845 70.7856 118.845 70.8148 118.845C70.8386 118.845 70.8696 118.845 70.8934 118.843C70.9518 118.843 70.9974 118.845 71.056 118.839C71.1711 118.839 71.2826 118.83 71.3977 118.817C71.405 118.812 71.4141 118.808 71.4288 118.808C71.4507 118.808 71.4744 118.805 71.5038 118.803C71.597 118.79 71.6937 118.777 71.7907 118.759C71.829 118.752 71.862 118.739 71.9039 118.733C71.999 118.711 72.083 118.69 72.178 118.666C72.231 118.646 72.2931 118.64 72.3461 118.627C72.3955 118.602 72.4411 118.587 72.4941 118.565C72.5362 118.551 72.5764 118.54 72.6202 118.518C72.7682 118.459 72.9218 118.392 73.0588 118.313L117.794 92.3212C117.828 92.2992 117.859 92.2865 117.896 92.2591C117.914 92.2462 117.929 92.2335 117.951 92.2215C117.984 92.1996 118.017 92.1749 118.053 92.153C118.081 92.1248 118.112 92.1029 118.144 92.0719C118.172 92.0535 118.198 92.0316 118.221 92.0098C118.238 91.9942 118.251 91.9877 118.256 91.9787C118.269 91.9658 118.282 91.954 118.291 91.9347C118.334 91.8945 118.375 91.8479 118.409 91.8104C118.42 91.8003 118.433 91.7822 118.442 91.7758C118.45 91.7667 118.45 91.7538 118.457 91.7483C118.484 91.7109 118.506 91.6761 118.528 91.6387C118.539 91.6205 118.554 91.605 118.565 91.5857C118.565 91.5829 118.565 91.5739 118.572 91.5674C118.587 91.5363 118.599 91.4989 118.614 91.4615C118.627 91.446 118.636 91.4267 118.64 91.4085C118.643 91.4057 118.643 91.4022 118.643 91.3993C118.658 91.3619 118.665 91.3271 118.673 91.2998C118.68 91.2741 118.682 91.2558 118.685 91.2311V91.2184C118.693 91.1845 118.696 91.1527 118.702 91.1217C118.702 91.097 118.707 91.0751 118.707 91.0504V91.0311C118.702 90.1814 118.696 89.328 118.693 88.4773Z" fill="#A1A6C6"/>
<path d="M117.788 87.2102L91.9732 72.3029C90.7635 71.6021 88.7753 71.6085 87.5583 72.3157L42.8235 98.3076C41.6103 99.0175 41.603 100.16 42.8181 100.865L68.6255 115.771C69.8406 116.473 71.825 116.466 73.042 115.759L117.777 89.7704C118.994 89.0567 118.998 87.911 117.788 87.2102Z" fill="#B1BBE5"/>
<path d="M88.1505 80.4883L91.5842 82.4573L88.0428 84.5276L84.6074 82.5569L88.1505 80.4883Z" fill="#F8F9FC"/>
<path d="M93.623 82.1562L97.0567 84.128L93.5117 86.1993L90.0762 84.2248L93.623 82.1562Z" fill="#F8F9FC"/>
<path d="M98.5646 79.5391L102.541 81.8223L104.823 83.1372L105.971 83.794L99.9917 87.2916L96.5581 85.3171L98.3964 84.2389L94.4182 81.9566L98.5646 79.5391Z" fill="#F8F9FC"/>
<path d="M89.6325 84.4844L93.0696 86.4615L89.5211 88.5273L86.0911 86.5556L89.6325 84.4844Z" fill="#F8F9FC"/>
<path d="M106.76 84.2461L110.196 86.2213L102.886 90.491L99.4473 88.5165L106.76 84.2461Z" fill="#F8F9FC"/>
<path d="M99.1037 88.7188L102.535 90.6906L96.9967 93.9202L93.5596 91.955L99.1037 88.7188Z" fill="#F8F9FC"/>
<path d="M88.165 90.2188L91.5932 92.1868L88.0517 94.2581L84.6238 92.2864L88.165 90.2188Z" fill="#F8F9FC"/>
<path d="M89.9306 74.5859L93.3642 76.5512L89.821 78.6226L86.3838 76.6482L89.9306 74.5859Z" fill="#F8F9FC"/>
<path d="M85.7074 77.0469L89.1465 79.0122L85.6013 81.0871L82.166 79.1153L85.7074 77.0469Z" fill="#F8F9FC"/>
<path d="M94.135 76.9922L97.5703 78.961L92.0775 82.1653L88.6384 80.1999L94.135 76.9922Z" fill="#F8F9FC"/>
<path d="M81.4861 79.5078L84.9198 81.4795L81.3784 83.5509L77.9412 81.5764L81.4861 79.5078Z" fill="#F8F9FC"/>
<path d="M77.2668 81.9727L80.6985 83.9444L77.159 86.013L73.7256 84.0439L77.2668 81.9727Z" fill="#F8F9FC"/>
<path d="M84.1137 82.8398L87.5508 84.8141L84.0022 86.8792L80.5723 84.911L84.1137 82.8398Z" fill="#F8F9FC"/>
<path d="M73.0461 84.4375L76.4814 86.412L72.9365 88.4794L69.501 86.5052L73.0461 84.4375Z" fill="#F8F9FC"/>
<path d="M80.0828 85.1992L83.5146 87.1671L79.9659 89.2385L76.5342 87.2641L80.0828 85.1992Z" fill="#F8F9FC"/>
<path d="M96.0975 85.582L99.5293 87.5537L95.986 89.6251L92.5544 87.6532L96.0975 85.582Z" fill="#F8F9FC"/>
<path d="M68.8262 86.9062L72.2616 88.8743L68.7093 90.9456L65.2812 88.9713L68.8262 86.9062Z" fill="#F8F9FC"/>
<path d="M85.6474 86.8203L89.0775 88.7911L85.5342 90.8597L82.1006 88.888L85.6474 86.8203Z" fill="#F8F9FC"/>
<path d="M76.0478 87.5547L79.4812 89.5264L75.9398 91.5976L72.501 89.6233L76.0478 87.5547Z" fill="#F8F9FC"/>
<path d="M92.1103 87.9102L95.544 89.8846L92.0026 91.9532L88.5635 89.9842L92.1103 87.9102Z" fill="#F8F9FC"/>
<path d="M81.662 89.1484L85.09 91.1229L81.5486 93.1887L78.1133 91.2133L81.662 89.1484Z" fill="#F8F9FC"/>
<path d="M64.6053 89.3672L68.0407 91.339L64.4993 93.4039L61.0603 91.4358L64.6053 89.3672Z" fill="#F8F9FC"/>
<path d="M72.0117 89.9062L75.4472 91.8779L71.904 93.9519L68.4668 91.9803L72.0117 89.9062Z" fill="#F8F9FC"/>
<path d="M77.6706 91.4727L81.1061 93.4436L77.5612 95.5183L74.1238 93.5441L77.6706 91.4727Z" fill="#F8F9FC"/>
<path d="M60.3864 91.832L63.82 93.8065L60.2732 95.8742L56.8379 93.9034L60.3864 91.832Z" fill="#F8F9FC"/>
<path d="M67.9749 92.2656L71.4086 94.241L67.8672 96.3085L64.4373 94.3405L67.9749 92.2656Z" fill="#F8F9FC"/>
<path d="M84.0465 92.6211L87.4763 94.5993L83.9349 96.6642L80.5032 94.6925L84.0465 92.6211Z" fill="#F8F9FC"/>
<path d="M73.6817 93.8047L77.1153 95.7763L73.572 97.8476L70.1367 95.8794L73.6817 93.8047Z" fill="#F8F9FC"/>
<path d="M56.1705 94.2969L59.6022 96.2713L56.0517 98.3399L52.6201 96.3683L56.1705 94.2969Z" fill="#F8F9FC"/>
<path d="M63.9424 94.6211L67.3779 96.5982L63.8346 98.6668L60.3975 96.6951L63.9424 94.6211Z" fill="#F8F9FC"/>
<path d="M80.0977 94.9258L83.5332 96.8937L79.988 98.9687L76.5527 96.9932L80.0977 94.9258Z" fill="#F8F9FC"/>
<path d="M69.6942 96.1328L73.1258 98.108L69.5789 100.176L66.1455 98.204L69.6942 96.1328Z" fill="#F8F9FC"/>
<path d="M76.1107 97.25L79.5497 99.2254L76.001 101.293L72.5674 99.3214L76.1107 97.25Z" fill="#F8F9FC"/>
<path d="M50.3412 97.6992L53.773 99.6709L50.2316 101.742L46.7998 99.7676L50.3412 97.6992Z" fill="#F8F9FC"/>
<path d="M65.7051 98.4648L69.1423 100.433L65.5955 102.504L62.1602 100.532L65.7051 98.4648Z" fill="#F8F9FC"/>
<path d="M93.2009 92.168L96.6308 94.1361L81.0619 103.232L77.6211 101.263L93.2009 92.168Z" fill="#F8F9FC"/>
<path d="M72.1671 99.5586L75.6026 101.528L72.0593 103.599L68.624 101.63L72.1671 99.5586Z" fill="#F8F9FC"/>
<path d="M59.7319 97.082L63.1636 99.0601L54.4291 104.158L51.001 102.181L59.7319 97.082Z" fill="#F8F9FC"/>
<path d="M95.8457 95.625L100.907 98.5497L88.1546 105.956L83.0947 103.031L95.8457 95.625Z" fill="#F8F9FC"/>
<path d="M61.7021 100.805L65.1374 102.777L58.6339 106.567L55.2041 104.598L61.7021 100.805Z" fill="#F8F9FC"/>
<path d="M77.1207 101.555L80.5544 103.532L75.0157 106.762L71.582 104.787L77.1207 101.555Z" fill="#F8F9FC"/>
<path d="M68.1343 101.91L71.5677 103.884L62.8386 108.981L59.4033 107.009L68.1343 101.91Z" fill="#F8F9FC"/>
<path d="M71.1417 105.055L74.5716 107.023L67.0631 111.412L63.624 109.44L71.1417 105.055Z" fill="#F8F9FC"/>
<path d="M88.7495 37.2557C88.7259 37.2428 88.6892 37.2237 88.6655 37.2091C88.4518 37.0894 88.249 36.9705 88.0351 36.8463C87.8214 36.723 87.6129 36.5997 87.4009 36.4828C86.9953 36.2479 86.4416 36.279 85.8258 36.6362L41.0929 62.628C39.8777 63.3306 38.8909 65.0503 38.8965 66.4544L39.0591 96.2618C39.0627 96.9562 39.313 97.4487 39.7114 97.6725C40.2359 97.9787 40.764 98.2838 41.292 98.5918C40.8938 98.3615 40.6451 97.8664 40.6378 97.172L40.4717 67.3637C40.4698 65.9657 41.4564 64.2435 42.6735 63.5326L87.4084 37.5499C88.0205 37.1927 88.576 37.1579 88.9834 37.3927C88.9013 37.348 88.8245 37.2995 88.7495 37.2557Z" fill="#BBC0E6"/>
<path d="M87.4085 37.5513C88.6217 36.8442 89.6249 37.4078 89.6322 38.8085L89.7967 68.614C89.8058 70.0165 88.8192 71.7387 87.5984 72.4458L42.8636 98.4341C41.6429 99.1412 40.6507 98.5748 40.6379 97.1733L40.4717 67.365C40.4698 65.967 41.4565 64.2448 42.6735 63.534L87.4085 37.5513ZM88.0186 68.3929L87.8652 41.0934C87.8598 40.2557 87.2549 39.9176 86.5331 40.3397L43.5745 65.2938C42.8452 65.7177 42.2513 66.7584 42.257 67.5926L42.4104 94.89C42.4141 95.7279 43.0116 96.0641 43.7462 95.6401L86.7011 70.6824C87.4212 70.2586 88.0205 69.228 88.0186 68.3929Z" fill="url(#paint7_linear_885_1656)"/>
<path d="M48.4043 19.4049L40.6806 14.9454C40.2561 14.7004 40.0439 14.3793 40.0439 14.058C40.0439 13.7368 40.2561 13.4157 40.6806 13.1706L48.4043 8.71125C48.8286 8.46623 49.3847 8.34375 49.941 8.34375C50.4974 8.34375 51.0538 8.46623 51.4783 8.71125L59.2019 13.1706C59.6264 13.4157 59.8386 13.7367 59.8386 14.058C59.8386 14.3794 59.6264 14.7004 59.2019 14.9454L51.4783 19.4049C51.0538 19.6494 50.4976 19.7723 49.941 19.7723C49.3844 19.7723 48.8288 19.6494 48.4043 19.4049Z" fill="#7FD8F7"/>
<g style="mix-blend-mode:multiply">
<path d="M49.4489 15.7715L46.9763 14.3439C46.8404 14.2654 46.7725 14.1627 46.7725 14.0598C46.7725 13.957 46.8404 13.8542 46.9763 13.7757L49.4489 12.3481C49.5847 12.2697 49.7628 12.2305 49.9409 12.2305C50.119 12.2305 50.2971 12.2697 50.433 12.3481L52.9057 13.7757C53.0416 13.8542 53.1095 13.9569 53.1095 14.0598C53.1095 14.1627 53.0416 14.2655 52.9057 14.3439L50.433 15.7715C50.2971 15.8498 50.1191 15.8892 49.9409 15.8892C49.7627 15.8892 49.5848 15.8498 49.4489 15.7715Z" fill="#F1F1F6"/>
</g>
<path d="M59.2019 14.946L51.4783 19.4054C51.0538 19.6499 50.4976 19.7728 49.941 19.7728C49.3844 19.7728 48.8288 19.6499 48.4043 19.4049L40.6806 14.946C40.2561 14.701 40.0439 14.3798 40.0439 14.0586V27.1653C40.0439 27.4866 40.2561 27.8077 40.6806 28.0527L48.4043 32.5122C48.8288 32.7568 49.3847 32.8797 49.941 32.8797C50.4974 32.8797 51.0538 32.7568 51.4783 32.5122L59.2019 28.0527C59.6264 27.8077 59.8386 27.4866 59.8386 27.1653V14.0586C59.8386 14.3799 59.6264 14.701 59.2019 14.946Z" fill="url(#paint8_linear_885_1656)"/>
<defs>
<linearGradient id="paint0_linear_885_1656" x1="8.0732" y1="19.9116" x2="31.1584" y2="19.9116" gradientUnits="userSpaceOnUse">
<stop stop-color="#8C93BA"/>
<stop offset="0.1783" stop-color="#8F97BE"/>
<stop offset="1" stop-color="#9FA7D1"/>
</linearGradient>
<linearGradient id="paint1_linear_885_1656" x1="23.7208" y1="8.79192" x2="81.8122" y2="43.907" gradientUnits="userSpaceOnUse">
<stop stop-color="#A1A6C6"/>
<stop offset="0.0719" stop-color="#ACB1D2"/>
<stop offset="0.2207" stop-color="#BFC4E7"/>
<stop offset="0.3677" stop-color="#CACFF3"/>
<stop offset="0.5096" stop-color="#CED3F8"/>
<stop offset="0.6695" stop-color="#CBD0F4"/>
<stop offset="0.7935" stop-color="#C2C7EB"/>
<stop offset="0.905" stop-color="#B3B8DA"/>
<stop offset="1" stop-color="#A1A6C6"/>
</linearGradient>
<linearGradient id="paint2_linear_885_1656" x1="10.7607" y1="103.486" x2="33.8458" y2="103.486" gradientUnits="userSpaceOnUse">
<stop stop-color="#8C93BA"/>
<stop offset="0.1783" stop-color="#8F97BE"/>
<stop offset="1" stop-color="#9FA7D1"/>
</linearGradient>
<linearGradient id="paint3_linear_885_1656" x1="94.536" y1="52.8818" x2="104.835" y2="58.5581" gradientUnits="userSpaceOnUse">
<stop stop-color="#8C93BA"/>
<stop offset="0.1783" stop-color="#8F97BE"/>
<stop offset="1" stop-color="#9FA7D1"/>
</linearGradient>
<linearGradient id="paint4_linear_885_1656" x1="21.2692" y1="91.8279" x2="97.7872" y2="47.111" gradientUnits="userSpaceOnUse">
<stop stop-color="#A1A6C6"/>
<stop offset="0.0719" stop-color="#ACB1D2"/>
<stop offset="0.2207" stop-color="#BFC4E7"/>
<stop offset="0.3677" stop-color="#CACFF3"/>
<stop offset="0.5096" stop-color="#CED3F8"/>
<stop offset="0.6444" stop-color="#CACFF3"/>
<stop offset="0.7885" stop-color="#BEC3E6"/>
<stop offset="0.9363" stop-color="#ABB0D1"/>
<stop offset="1" stop-color="#A1A6C6"/>
</linearGradient>
<linearGradient id="paint5_linear_885_1656" x1="11.9252" y1="108.132" x2="24.0027" y2="84.3076" gradientUnits="userSpaceOnUse">
<stop stop-color="#A1A6C6"/>
<stop offset="0.0776" stop-color="#AAAFD0"/>
<stop offset="0.2132" stop-color="#C4C9ED"/>
<stop offset="0.2545" stop-color="#CED3F8"/>
<stop offset="0.3415" stop-color="#CACFF3"/>
<stop offset="0.4344" stop-color="#BEC3E6"/>
<stop offset="0.5299" stop-color="#ABB0D1"/>
<stop offset="0.571" stop-color="#A1A6C6"/>
</linearGradient>
<linearGradient id="paint6_linear_885_1656" x1="63.8759" y1="37.0081" x2="83.6706" y2="37.0081" gradientUnits="userSpaceOnUse">
<stop offset="0.396" stop-color="#23C966"/>
<stop offset="0.545" stop-color="#1BB85A"/>
<stop offset="0.5736" stop-color="#1AB558"/>
</linearGradient>
<linearGradient id="paint7_linear_885_1656" x1="45.9257" y1="101.266" x2="84.347" y2="34.7188" gradientUnits="userSpaceOnUse">
<stop offset="0.3219" stop-color="#BBC0E6"/>
<stop offset="0.3261" stop-color="#BBC0E6"/>
<stop offset="0.4582" stop-color="#CED3F8"/>
</linearGradient>
<linearGradient id="paint8_linear_885_1656" x1="40.0439" y1="23.4691" x2="59.8386" y2="23.4691" gradientUnits="userSpaceOnUse">
<stop offset="0.396" stop-color="#44CFF1"/>
<stop offset="0.4888" stop-color="#49BEE8"/>
<stop offset="0.5736" stop-color="#4FACDF"/>
</linearGradient>
</defs>
</svg>
