<svg width="16" height="17" viewBox="0 0 16 17" fill="none" xmlns="http://www.w3.org/2000/svg">
<path fill-rule="evenodd" clip-rule="evenodd" d="M7.33061 9.55508V2.50065C7.33061 2.13246 7.62908 1.83398 7.99727 1.83398C8.36546 1.83398 8.66394 2.13246 8.66394 2.50065V9.56061L10.5286 7.69591C10.789 7.43556 11.2111 7.43556 11.4714 7.69591C11.7318 7.95626 11.7318 8.37837 11.4714 8.63872L8.47145 11.6387C8.34092 11.7692 8.16973 11.8343 7.99866 11.834L7.99727 11.834C7.79475 11.834 7.61332 11.7437 7.49105 11.6011L4.52864 8.63872C4.26829 8.37837 4.26829 7.95626 4.52864 7.69591C4.78899 7.43556 5.2111 7.43556 5.47145 7.69591L7.33061 9.55508ZM14 7.83398C14.3682 7.83398 14.6667 8.13246 14.6667 8.50065V14.5007C14.6667 14.8688 14.3682 15.1673 14 15.1673H2.00004C1.63185 15.1673 1.33337 14.8688 1.33337 14.5007V8.50342C1.33337 8.13523 1.63185 7.83675 2.00004 7.83675C2.36823 7.83675 2.66671 8.13523 2.66671 8.50342V13.834H13.3334V8.50065C13.3334 8.13246 13.6319 7.83398 14 7.83398Z" fill="#2E7FDF"/>
</svg>
