<svg width="76" height="76" viewBox="0 0 76 76" fill="none" xmlns="http://www.w3.org/2000/svg">
<rect width="76" height="76" rx="38" fill="#85C600"/>
<path d="M37.3243 25.25C34.3856 25.25 31.8554 27.3242 31.2791 30.2058C31.1167 31.0182 31.6435 31.8084 32.4558 31.9709C33.2682 32.1333 34.0584 31.6065 34.2209 30.7942C34.5167 29.3148 35.8157 28.25 37.3243 28.25H37.625C39.4889 28.25 41 29.761 41 31.625C41 33.489 39.4889 35 37.625 35H24.5C23.6716 35 23 35.6715 23 36.5C23 37.3285 23.6716 38 24.5 38H37.625C41.1458 38 44 35.1458 44 31.625C44 28.1042 41.1458 25.25 37.625 25.25H37.3243ZM48.2309 34.25C46.1699 34.25 44.3483 35.5865 43.702 37.5257C43.4401 38.3115 43.8647 39.161 44.6507 39.423C45.4366 39.6849 46.286 39.2603 46.548 38.4743C46.7915 37.7441 47.4781 37.25 48.2309 37.25C49.2077 37.25 49.9995 38.0419 49.9995 39.0187V39.125C49.9995 40.1604 49.1602 41 48.1245 41H24.5C23.6716 41 23 41.6716 23 42.5C23 43.3284 23.6716 44 24.5 44H33.4906H33.5H42.1245C43.1601 44 43.9995 44.8396 43.9995 45.875V45.9813C43.9995 46.9582 43.2077 47.75 42.2309 47.75C41.4781 47.75 40.7915 47.2559 40.548 46.5257C40.286 45.7397 39.4366 45.3151 38.6507 45.577C37.8647 45.839 37.4401 46.6884 37.702 47.4743C38.3483 49.4135 40.1699 50.75 42.2309 50.75C44.8646 50.75 46.9995 48.615 46.9995 45.9813V45.875C46.9995 45.2105 46.8667 44.5772 46.6259 44H48.1245C50.8169 44 52.9995 41.8174 52.9995 39.125V39.0187C52.9995 36.3849 50.8646 34.25 48.2309 34.25ZM26 29.375C27.0355 29.375 27.875 28.5355 27.875 27.5C27.875 26.4645 27.0355 25.625 26 25.625C24.9645 25.625 24.125 26.4645 24.125 27.5C24.125 28.5355 24.9645 29.375 26 29.375ZM35.375 50C35.375 51.0356 34.5355 51.875 33.5 51.875C32.4645 51.875 31.625 51.0356 31.625 50C31.625 48.9644 32.4645 48.125 33.5 48.125C34.5355 48.125 35.375 48.9644 35.375 50ZM48.5 30.875C49.5356 30.875 50.375 30.0355 50.375 29C50.375 27.9645 49.5356 27.125 48.5 27.125C47.4644 27.125 46.625 27.9645 46.625 29C46.625 30.0355 47.4644 30.875 48.5 30.875Z" fill="white"/>
</svg>
