<?xml version="1.0" encoding="utf-8"?>
<!-- Generator: Adobe Illustrator 27.0.0, SVG Export Plug-In . SVG Version: 6.00 Build 0)  -->
<svg version="1.1" id="圖層_1" xmlns="http://www.w3.org/2000/svg" xmlns:xlink="http://www.w3.org/1999/xlink" x="0px" y="0px"
	 viewBox="0 0 24 24" style="enable-background:new 0 0 24 24;" xml:space="preserve">
<style type="text/css">
	.st0{fill:#FA2E2E;}
	.st1{fill:#FFFFFF;}
</style>
<path class="st0" d="M56.7,3.5c4.7,4.7,4.7,12.3,0,17s-12.3,4.7-17,0c-4.7-4.7-4.7-12.3,0-17C44.5-1.2,52-1.2,56.7,3.5z"/>
<path class="st1" d="M16.2,9c0.4-0.4,0.4-0.9,0-1.3c-0.4-0.4-0.9-0.4-1.3,0l-3,3l-3-3c-0.4-0.4-0.9-0.4-1.3,0C7.4,8.1,7.4,8.7,7.8,9
	l3,3l-3,3c-0.4,0.4-0.4,0.9,0,1.3c0.4,0.4,0.9,0.4,1.3,0l3-3l3,3c0.4,0.4,0.9,0.4,1.3,0c0.4-0.4,0.4-0.9,0-1.3l-3-3L16.2,9z"/>
</svg>
