<svg width="120" height="120" viewBox="0 0 120 120" fill="none" xmlns="http://www.w3.org/2000/svg">
<g clip-path="url(#clip0_885_1230)">
<path d="M39.9473 23.0469L51.0819 29.4714V42.8635L39.9473 36.4342V23.0469Z" fill="#CED2F4"/>
<path d="M62.2118 23.0469L51.0819 29.4714V42.8635L62.2118 36.4342V23.0469Z" fill="#BBBFE2"/>
<path d="M51.0819 16.6172L39.9473 23.0465L51.0819 29.4711L62.2118 23.0465L51.0819 16.6172Z" fill="#F5F5FA"/>
<path d="M56.9209 6.30078L68.0508 12.7254V52.8301L56.9209 46.4056V6.30078Z" fill="#51B4E0"/>
<path d="M79.1864 6.36328L68.0518 12.7926V52.8307L79.1864 46.4061V6.36328Z" fill="#4BA9C6"/>
<path d="M68.0508 0L56.9209 6.42934L68.0508 12.8539L79.1854 6.42934L68.0508 0Z" fill="#7FD8F7"/>
<path d="M73.0757 32.6484L84.2103 39.073V64.3903L73.0757 57.9657V32.6484Z" fill="#CED2F4"/>
<path d="M95.3406 32.6484L84.2107 39.073V64.3903L95.3406 57.9657V32.6484Z" fill="#BBBFE2"/>
<path d="M84.2106 26.2188L73.0759 32.6481L84.2106 39.0727L95.3405 32.6481L84.2106 26.2188Z" fill="#F5F5FA"/>
<path d="M73.0757 32.6484L84.2103 39.073V46.0357L73.0757 39.6112V32.6484Z" fill="#1BC15E"/>
<path d="M95.3406 32.6484L84.2107 39.073V46.0357L95.3406 39.6112V32.6484Z" fill="#1AB558"/>
<path d="M84.2106 26.2188L73.0759 32.6481L84.2106 39.0727L95.3405 32.6481L84.2106 26.2188Z" fill="#1CD169"/>
<path d="M91.3057 40.6367L102.44 47.0613V78.0078L91.3057 71.5833V40.6367Z" fill="#CED2F4"/>
<path d="M113.57 40.6367L102.44 47.0613V78.0078L113.57 71.5833V40.6367Z" fill="#BBBFE2"/>
<path d="M102.44 34.207L91.3057 40.6364L102.44 47.0609L113.57 40.6364L102.44 34.207Z" fill="#F5F5FA"/>
<path d="M91.3057 40.6367L102.44 47.0613V59.5675L91.3057 53.1382V40.6367Z" fill="#1BC15E"/>
<path d="M113.57 40.6367L102.44 47.0613V59.5675L113.57 53.1382V40.6367Z" fill="#1AB558"/>
<path d="M102.44 34.207L91.3057 40.6364L102.44 47.0609L113.57 40.6364L102.44 34.207Z" fill="#1CD169"/>
<path d="M102.369 108.364L20.8925 61.3208C18.9589 60.2016 17.3778 57.1822 17.3778 54.6009V26.4642C17.3778 23.883 18.9589 22.6876 20.8925 23.8068L102.369 70.8457C104.302 71.9649 105.884 74.9843 105.884 77.5656V105.702C105.884 108.284 104.302 109.479 102.369 108.36V108.364Z" fill="url(#paint0_linear_885_1230)"/>
<path d="M97.0494 110.727L15.5731 63.688C13.6395 62.5688 12.0583 59.5494 12.0583 56.9681V28.8314C12.0583 26.2502 13.6395 25.0548 15.5731 26.174L97.0494 73.2129C98.983 74.3321 100.564 77.3515 100.564 79.9327V108.069C100.564 110.651 98.983 111.846 97.0494 110.727Z" fill="url(#paint1_linear_885_1230)"/>
<path d="M93.344 80.572L43.9 52.0258C42.8284 51.4066 41.9521 49.7302 41.9521 48.3015C41.9521 46.8728 42.8284 46.2108 43.9 46.8299L93.344 75.3762C94.4155 75.9953 95.2918 77.6717 95.2918 79.1004C95.2918 80.5291 94.4155 81.1911 93.344 80.572Z" fill="#BCC3FD"/>
<path d="M93.344 102.455L43.9 73.9086C42.8284 73.2895 41.9521 71.6131 41.9521 70.1843C41.9521 68.7556 42.8284 68.0936 43.9 68.7127L93.344 97.259C94.4155 97.8781 95.2918 99.5545 95.2918 100.983C95.2918 102.412 94.4155 103.074 93.344 102.455Z" fill="#BCC3FD"/>
<path d="M64.3262 75.0325L43.9 63.2406C42.8284 62.6215 41.9521 60.9451 41.9521 59.5164C41.9521 58.0876 42.8284 57.4256 43.9 58.0447L64.3262 69.8366C65.3978 70.4557 66.2741 72.1321 66.2741 73.5609C66.2741 74.9896 65.3978 75.6516 64.3262 75.0325Z" fill="#BCC3FD"/>
<path d="M93.3437 91.7825L72.9175 79.9906C71.8459 79.3715 70.9696 77.6951 70.9696 76.2663C70.9696 74.8376 71.8459 74.1756 72.9175 74.7947L93.3437 86.5866C94.4153 87.2057 95.2916 88.8821 95.2916 90.3109C95.2916 91.7396 94.4153 92.4016 93.3437 91.7825Z" fill="#BCC3FD"/>
<path d="M102.369 70.851L20.9693 23.855C20.4835 23.574 20.074 23.393 19.512 23.393C19.512 23.393 19.2691 23.3501 18.9072 23.4883C17.588 23.9931 13.3875 25.7552 13.3875 25.7552L97.9213 73.8704C99.2881 74.9468 100.007 77.2709 100.336 78.7091C100.493 79.3997 100.569 80.1045 100.569 80.8141V108.075C100.569 108.075 100.693 110.422 98.7976 111.118L104.665 108.546C104.665 108.546 105.837 108.07 105.86 106.26L105.889 77.5709C105.889 77.5709 105.889 72.537 102.374 70.851H102.369Z" fill="url(#paint2_linear_885_1230)"/>
<path d="M58.1025 88.3633C58.3264 88.5871 58.5502 88.8157 58.7693 89.0538C58.7693 89.0538 58.7693 89.0538 58.774 89.0586C58.555 88.8205 58.3264 88.5871 58.1025 88.3633Z" fill="url(#paint3_linear_885_1230)"/>
<g filter="url(#filter0_d_885_1230)">
<path d="M61.8789 113.051L61.8646 118.737C61.8932 118.751 61.9218 118.771 61.9504 118.785C62.1313 118.88 62.3075 118.966 62.4837 119.051C62.5266 119.071 62.5695 119.094 62.6171 119.113C62.6695 119.137 62.7266 119.161 62.779 119.185C62.9171 119.247 63.0552 119.304 63.1934 119.361C63.2172 119.371 63.241 119.38 63.2648 119.39C63.341 119.418 63.4172 119.447 63.4934 119.471C63.6267 119.518 63.7601 119.566 63.8934 119.609C63.9839 119.637 64.0744 119.661 64.1649 119.69C64.2935 119.723 64.4173 119.761 64.5411 119.79C64.6316 119.809 64.7221 119.828 64.8126 119.847C64.9364 119.871 65.0555 119.894 65.1745 119.913C65.265 119.928 65.3508 119.937 65.4412 119.952C65.5603 119.966 65.6746 119.975 65.7937 119.985C65.8794 119.99 65.9651 119.999 66.0508 119.999C66.1699 119.999 66.2842 119.999 66.3985 119.999C66.4795 119.999 66.5604 119.999 66.6366 119.994C66.7557 119.99 66.8747 119.975 66.989 119.961C67.0605 119.952 67.1319 119.947 67.1986 119.937C67.3319 119.918 67.4605 119.89 67.5891 119.861C67.6367 119.852 67.6796 119.842 67.7272 119.833C67.7558 119.823 67.7844 119.813 67.813 119.809C67.9558 119.771 68.0987 119.728 68.2368 119.68C68.2892 119.661 68.3368 119.642 68.3844 119.618C68.5035 119.571 68.6178 119.523 68.7321 119.471C68.7797 119.447 68.8274 119.418 68.875 119.394C68.8893 119.385 68.9036 119.38 68.9178 119.371C69.0131 119.318 69.1083 119.266 69.1988 119.209C69.2084 119.204 69.2131 119.199 69.2226 119.19L65.7413 113.156C64.7697 113.813 63.4029 113.822 61.8789 113.056V113.051Z" fill="#00F85F"/>
<path d="M72.1891 112.233C72.1891 112.2 72.1891 112.171 72.1891 112.138C72.1891 112.119 72.1891 112.095 72.1891 112.076C72.1891 112.043 72.1891 112.014 72.1891 111.981C72.1891 111.957 72.1891 111.933 72.1891 111.914C72.1891 111.886 72.1891 111.857 72.1891 111.824C72.1891 111.795 72.1891 111.762 72.1891 111.733C72.1891 111.709 72.1891 111.69 72.1891 111.667C72.1891 111.633 72.1891 111.6 72.1843 111.567C72.1843 111.548 72.1843 111.528 72.1843 111.509C72.1843 111.476 72.1843 111.448 72.1796 111.414C72.1796 111.39 72.1796 111.371 72.1796 111.348C72.1796 111.314 72.1748 111.281 72.1701 111.247C72.1701 111.228 72.1701 111.205 72.1701 111.186C72.1701 111.152 72.1653 111.119 72.1605 111.086C72.1605 111.067 72.1605 111.047 72.1558 111.028C72.1558 110.995 72.151 110.957 72.1462 110.924C72.1367 110.833 72.132 110.795 72.1272 110.757C72.1177 110.671 72.1129 110.633 72.1081 110.59C72.0986 110.509 72.0939 110.471 72.0891 110.433C72.0796 110.347 72.0748 110.309 72.0653 110.266C72.0558 110.185 72.0462 110.147 72.0415 110.105C72.0319 110.024 72.0224 109.981 72.0177 109.938C72.0177 109.919 72.0129 109.904 72.0081 109.89C72.0034 109.852 71.9938 109.814 71.9891 109.776C71.9796 109.709 71.97 109.657 71.9605 109.609C71.951 109.547 71.9415 109.495 71.9319 109.447C71.8272 108.876 71.6891 108.3 71.5319 107.728C71.4319 107.371 71.3271 107.014 71.208 106.661C71.1652 106.533 71.1176 106.404 71.0747 106.275C70.9794 106.009 70.8842 105.742 70.7794 105.475C70.7223 105.328 70.6651 105.185 70.6032 105.037C70.4937 104.775 70.3794 104.518 70.2651 104.261C70.2032 104.128 70.146 103.994 70.0841 103.861C69.9222 103.523 69.7555 103.185 69.5793 102.856C69.5316 102.766 69.484 102.675 69.4364 102.585C69.4174 102.551 69.3983 102.513 69.3793 102.48C69.2221 102.189 69.0602 101.904 68.8887 101.623C68.8078 101.484 68.722 101.351 68.6363 101.218C68.4887 100.984 68.341 100.746 68.1839 100.518C68.0934 100.384 68.0029 100.246 67.9076 100.118C67.741 99.8795 67.5743 99.6509 67.4028 99.4223C67.3647 99.3699 67.3266 99.3223 67.2885 99.2699C67.2314 99.1937 67.1742 99.1175 67.1123 99.0413C66.9028 98.7698 66.6885 98.5079 66.4646 98.2507C66.3503 98.1174 66.236 97.984 66.117 97.8507C66.0312 97.7554 65.9455 97.6649 65.8598 97.5697C65.8598 97.5697 65.8598 97.5697 65.855 97.5649C65.574 97.2601 65.2883 96.9744 64.9978 96.6886C64.9359 96.6267 64.8787 96.56 64.812 96.5029C64.7978 96.4886 64.7882 96.4791 64.7787 96.4695C64.7501 96.441 64.7216 96.4172 64.693 96.3886C64.6406 96.341 64.6073 96.3076 64.5739 96.279C64.5215 96.2314 64.4882 96.1981 64.4549 96.1695C64.3977 96.1171 64.3644 96.0885 64.331 96.06C64.2691 96.0076 64.2405 95.979 64.2072 95.9504C64.1834 95.9266 64.1643 95.9123 64.1501 95.898C64.1262 95.879 64.1072 95.8599 64.0834 95.8409C64.0119 95.7837 63.9834 95.7599 63.9596 95.7361C63.8881 95.679 63.8595 95.6552 63.8357 95.6313C63.7643 95.5694 63.7357 95.5504 63.7071 95.5266C63.6929 95.5123 63.6738 95.5028 63.6595 95.4885C63.6309 95.4647 63.6071 95.4456 63.5786 95.4266C63.5595 95.4123 63.5452 95.398 63.5262 95.3837C63.5024 95.3646 63.4738 95.3456 63.45 95.3218C63.4309 95.3075 63.4166 95.2932 63.3976 95.2837C63.3738 95.2646 63.3452 95.2456 63.3214 95.2218C63.3023 95.2075 63.2833 95.1932 63.269 95.1789C63.2452 95.1599 63.2166 95.1408 63.1928 95.1218C63.1738 95.1075 63.1547 95.0932 63.1357 95.0789C63.1118 95.0598 63.088 95.0408 63.0594 95.0218C63.0404 95.0075 63.0214 94.9932 63.0023 94.9789C62.9785 94.9598 62.9547 94.9455 62.9309 94.9265C62.9118 94.9122 62.8928 94.8979 62.8737 94.8836C62.8499 94.8646 62.8261 94.8503 62.8023 94.8312C62.7785 94.817 62.7594 94.8027 62.7356 94.7836C62.7118 94.7693 62.6927 94.7503 62.6689 94.736C62.6499 94.7217 62.6261 94.7074 62.607 94.6931C62.5832 94.6789 62.5594 94.6598 62.5403 94.6455C62.5165 94.6312 62.4927 94.6169 62.4737 94.5979C62.4546 94.5836 62.4308 94.5693 62.4118 94.555C62.3879 94.5407 62.3641 94.5265 62.3403 94.5074C62.3213 94.4931 62.2975 94.4788 62.2736 94.4645C62.2498 94.4503 62.226 94.4312 62.2022 94.4169C62.1832 94.4026 62.1593 94.3931 62.1403 94.3788C62.1165 94.3645 62.0927 94.3502 62.0689 94.3312C62.0498 94.3169 62.026 94.3074 62.0069 94.2931C61.9831 94.2788 61.9593 94.2645 61.9355 94.2502C61.9117 94.2359 61.8926 94.2217 61.8688 94.2121C61.845 94.1978 61.8212 94.1836 61.8022 94.1693C61.7783 94.155 61.7593 94.1407 61.7355 94.1312C61.6926 94.1026 61.645 94.0788 61.6021 94.0502C61.5545 94.0216 61.5116 93.9978 61.4688 93.974C61.3926 93.9311 61.364 93.9169 61.3354 93.8978C61.2592 93.8549 61.2307 93.8407 61.1973 93.8264C61.183 93.8168 61.164 93.8073 61.1497 93.8026C61.1211 93.7883 61.0926 93.774 61.064 93.7597C61.0449 93.7502 61.0259 93.7406 61.0068 93.7311C60.983 93.7168 60.9592 93.7073 60.9354 93.693C60.9116 93.6835 60.8925 93.674 60.8735 93.6597C60.8497 93.6502 60.8259 93.6359 60.802 93.6263C60.783 93.6168 60.7592 93.6073 60.7401 93.5978C60.7163 93.5882 60.6925 93.574 60.6687 93.5644C60.6496 93.5549 60.6258 93.5454 60.6068 93.5359C60.583 93.5263 60.5592 93.512 60.5353 93.5025C60.5163 93.493 60.4925 93.4835 60.4734 93.4739C60.4496 93.4644 60.4258 93.4549 60.402 93.4406C60.3782 93.4311 60.3591 93.4216 60.3401 93.412C60.3163 93.4025 60.2925 93.393 60.2734 93.3835C60.2544 93.3739 60.2305 93.3644 60.2115 93.3549C60.1877 93.3454 60.1639 93.3358 60.1401 93.3263C60.121 93.3168 60.0972 93.3073 60.0781 93.2977C60.0543 93.2882 60.0353 93.2787 60.0115 93.2692C59.9877 93.2596 59.9686 93.2501 59.9448 93.2453C59.921 93.2358 59.9019 93.2263 59.8781 93.2215C59.8543 93.212 59.8353 93.2025 59.8114 93.1977C59.7924 93.1882 59.7686 93.1834 59.7495 93.1739C59.7305 93.1644 59.7067 93.1596 59.6876 93.1501C59.6638 93.1406 59.6448 93.1358 59.6209 93.1263C59.6019 93.1168 59.5781 93.112 59.559 93.1025C59.5352 93.093 59.5162 93.0882 59.4924 93.0787C59.4733 93.0691 59.4495 93.0644 59.4304 93.0596C59.4066 93.0501 59.3876 93.0453 59.3638 93.0358C59.34 93.031 59.3209 93.0215 59.2971 93.0167C59.278 93.012 59.2542 93.0025 59.2352 92.9977C59.2114 92.9929 59.1923 92.9834 59.1685 92.9786C59.1495 92.9739 59.1304 92.9644 59.1066 92.9596C59.0828 92.9548 59.0637 92.9453 59.0399 92.9405C59.0209 92.9358 59.0018 92.931 58.9828 92.9215C58.959 92.9167 58.9399 92.9072 58.9161 92.9024C58.8971 92.8977 58.878 92.8929 58.859 92.8882C58.8351 92.8834 58.8113 92.8739 58.7875 92.8691C58.7685 92.8644 58.7494 92.8596 58.7304 92.8548C58.7066 92.8501 58.6827 92.8453 58.6637 92.8358C58.6446 92.8358 58.6256 92.8262 58.6065 92.8215C58.5827 92.8167 58.5589 92.812 58.5399 92.8072C58.5208 92.8072 58.5018 92.7977 58.4827 92.7929C58.4589 92.7881 58.4351 92.7834 58.416 92.7786C58.397 92.7786 58.3827 92.7691 58.3637 92.7691C58.3398 92.7643 58.316 92.7596 58.2922 92.7548C58.2779 92.7548 58.2589 92.7501 58.2446 92.7453C58.2208 92.7405 58.197 92.7358 58.1684 92.731C58.1541 92.731 58.1351 92.7262 58.1208 92.7215C58.097 92.7215 58.0684 92.712 58.0446 92.7072C57.9779 92.6977 57.9493 92.6929 57.9255 92.6881C57.8588 92.6786 57.8303 92.6739 57.8017 92.6691C57.7445 92.6596 57.7112 92.6596 57.6826 92.6548C57.6302 92.65 57.5969 92.6453 57.5636 92.6405C57.1683 92.5977 56.7873 92.5977 56.4158 92.6215C56.3301 92.6262 56.2396 92.631 56.1539 92.6405C56.0205 92.6548 55.8919 92.6786 55.7633 92.7024C55.6871 92.7167 55.6109 92.7262 55.5347 92.7405C55.3966 92.7691 55.2633 92.812 55.1299 92.8501C55.068 92.8691 55.0109 92.8834 54.949 92.9024C54.7966 92.9548 54.6489 93.0167 54.5061 93.0834C54.4727 93.0977 54.4394 93.1072 54.406 93.1263C54.3727 93.1406 54.3394 93.1644 54.306 93.1787C54.1679 93.2501 54.0346 93.3215 53.9012 93.4025C53.8441 93.4358 53.7917 93.4787 53.7393 93.5168C53.6298 93.5882 53.525 93.6644 53.425 93.7454C53.3678 93.793 53.3107 93.8454 53.2535 93.893C53.163 93.974 53.0678 94.055 52.9821 94.1407C52.9249 94.1978 52.8678 94.2598 52.8106 94.3217C52.7297 94.4074 52.6487 94.4979 52.5725 94.5931C52.5201 94.6598 52.4677 94.7312 52.4153 94.8027C52.3439 94.8979 52.2772 94.9979 52.2105 95.1027C52.1629 95.1789 52.1105 95.2599 52.0677 95.3408C52.0058 95.4456 51.9438 95.5551 51.8867 95.6694C51.8438 95.7552 51.801 95.8409 51.7581 95.9266C51.7057 96.0457 51.6533 96.1647 51.6057 96.2886C51.5676 96.3791 51.5343 96.4743 51.4962 96.5648C51.4485 96.6934 51.4104 96.8267 51.3676 96.9648C51.339 97.0601 51.3104 97.1506 51.2819 97.2458C51.2819 97.2554 51.2819 97.2601 51.2771 97.2696C51.239 97.4078 51.2104 97.5554 51.1771 97.703C51.158 97.7935 51.139 97.8792 51.1199 97.9697C51.1199 97.9935 51.1104 98.0126 51.1104 98.0364C51.0818 98.1936 51.058 98.3602 51.039 98.5222C51.0294 98.5936 51.0152 98.665 51.0104 98.7412C51.0104 98.7793 51.0009 98.8174 51.0009 98.8555C50.9771 99.0841 50.958 99.3223 50.9485 99.5604C50.9485 99.5794 50.9485 99.6032 50.9485 99.6271L55.8919 102.48C56.111 99.6842 57.9874 98.3745 60.4306 99.1937C61.2497 99.4556 61.7974 99.8652 61.7974 99.8652C64.2929 101.689 66.6408 105.218 67.1838 108.309C66.9933 107.023 66.5456 105.69 65.8836 104.442C66.6742 105.933 67.1838 107.547 67.279 109.057C67.2647 108.814 67.2219 108.571 67.1838 108.323C67.26 108.761 67.3028 109.19 67.2981 109.604C67.2981 109.633 67.2981 109.657 67.2981 109.685C67.2981 109.719 67.2981 109.738 67.2981 109.752V109.766C67.2933 109.943 67.2885 109.962 67.2885 109.981V109.99V110C67.2885 110 67.2885 109.985 67.2885 109.981C67.2885 110.024 67.2885 110.043 67.2838 110.066C67.2838 110.1 67.2838 110.124 67.279 110.147C67.1647 111.571 66.6218 112.6 65.7884 113.162L69.2697 119.196C69.2935 119.182 69.3173 119.163 69.3412 119.148C69.4459 119.082 69.5507 119.01 69.6507 118.929C69.665 118.92 69.6745 118.91 69.6888 118.901C69.7222 118.877 69.7507 118.848 69.7793 118.825C69.7983 118.81 69.8174 118.791 69.8365 118.772C69.9031 118.72 69.965 118.663 70.0317 118.606C70.0555 118.586 70.0746 118.567 70.0984 118.548C70.127 118.52 70.1555 118.491 70.1793 118.467C70.2032 118.444 70.2317 118.415 70.2555 118.386C70.3032 118.339 70.3508 118.286 70.3984 118.234C70.4318 118.196 70.4651 118.163 70.4984 118.125C70.5413 118.072 70.5842 118.015 70.627 117.963C70.6651 117.91 70.708 117.858 70.7461 117.81C70.7794 117.767 70.8128 117.724 70.8413 117.677C70.8794 117.62 70.9175 117.558 70.9556 117.501C71.0128 117.41 71.0699 117.32 71.1271 117.224C71.1699 117.148 71.2128 117.072 71.2509 116.996C71.3033 116.901 71.3509 116.801 71.3985 116.701C71.4366 116.62 71.4747 116.534 71.5081 116.448C71.5509 116.343 71.5938 116.239 71.6367 116.129C71.67 116.039 71.7033 115.948 71.7319 115.858C71.7843 115.696 71.8367 115.534 71.8843 115.367C71.8938 115.324 71.9081 115.286 71.9177 115.243C71.9319 115.196 71.9367 115.157 71.9462 115.119C71.9462 115.11 71.9462 115.105 71.9462 115.1C71.9557 115.067 71.9653 115.029 71.97 114.996C71.97 114.986 71.97 114.977 71.9748 114.967C71.9748 114.967 71.9748 114.962 71.9748 114.957C71.9796 114.929 71.9891 114.896 71.9939 114.867C71.9939 114.853 71.9938 114.848 71.9986 114.834C72.0034 114.8 72.0129 114.767 72.0177 114.738C72.0177 114.724 72.0177 114.715 72.0224 114.705C72.0272 114.672 72.0367 114.638 72.0415 114.61C72.0415 114.591 72.0462 114.576 72.051 114.562C72.0558 114.534 72.0605 114.505 72.0653 114.476C72.0653 114.457 72.0653 114.448 72.0701 114.434C72.0701 114.405 72.0796 114.381 72.0843 114.353C72.0843 114.353 72.0843 114.343 72.0843 114.338C72.0843 114.315 72.0891 114.305 72.0939 114.286C72.0939 114.257 72.1034 114.229 72.1081 114.205C72.1081 114.186 72.1129 114.172 72.1177 114.153C72.1177 114.124 72.1272 114.095 72.1272 114.067C72.1272 114.048 72.1272 114.029 72.1367 114.01C72.1367 113.981 72.1415 113.953 72.1462 113.929C72.1462 113.91 72.1463 113.891 72.151 113.872C72.151 113.848 72.1558 113.819 72.1605 113.791C72.1605 113.767 72.1605 113.748 72.1653 113.724C72.1653 113.695 72.1701 113.672 72.1748 113.648C72.1748 113.629 72.1748 113.605 72.1796 113.586C72.1796 113.557 72.1843 113.533 72.1843 113.505C72.1843 113.481 72.1844 113.462 72.1891 113.438C72.1891 113.41 72.1891 113.386 72.1939 113.362C72.1939 113.338 72.1939 113.314 72.1986 113.286C72.1986 113.286 72.1986 113.281 72.1986 113.276C72.1986 113.257 72.1986 113.238 72.1986 113.219C72.1986 113.195 72.1986 113.167 72.1986 113.143V113.133C72.1986 113.11 72.1986 113.091 72.1986 113.076C72.1986 113.052 72.1986 113.029 72.1986 113.005C72.1986 112.976 72.1986 112.952 72.1986 112.924C72.1986 112.9 72.1986 112.876 72.1986 112.852C72.1986 112.824 72.1986 112.8 72.1986 112.776C72.1986 112.752 72.1986 112.724 72.1986 112.7C72.1986 112.676 72.1986 112.648 72.1986 112.624C72.1986 112.571 72.1986 112.524 72.1986 112.471C72.1986 112.419 72.1986 112.367 72.1986 112.314C72.1986 112.295 72.1986 112.271 72.1986 112.252L72.1891 112.233ZM67.2409 109.904C67.2409 109.904 67.2409 109.895 67.2409 109.89V109.904ZM67.2409 109.833C67.2409 109.833 67.2409 109.819 67.2409 109.809C67.2409 109.819 67.2409 109.824 67.2409 109.833Z" fill="#7FD8F7"/>
<path d="M55.8207 102.998C55.8207 102.817 55.8302 102.645 55.8397 102.474L50.8963 99.6211C50.8868 99.7925 50.8773 99.964 50.8773 100.145C50.8582 106.893 55.6254 115.147 61.5023 118.542C61.6214 118.614 61.7452 118.671 61.8643 118.738L61.8786 113.061C61.7595 112.999 61.6404 112.937 61.5166 112.866C58.3639 111.046 55.8112 106.622 55.8207 103.002V102.998Z" fill="#FFAF6D"/>
</g>
<g filter="url(#filter1_d_885_1230)">
<path fill-rule="evenodd" clip-rule="evenodd" d="M31.2084 99.4368C39.5665 97.827 42.4288 85.2351 37.6044 71.3048C32.78 57.3794 22.093 47.3925 13.7397 48.9974C5.38152 50.6071 2.51927 63.1991 7.34366 77.1293C12.168 91.0548 22.855 101.042 31.2084 99.4368ZM30.1559 96.3935C37.5044 94.9791 40.0237 83.9063 35.7804 71.6573C31.537 59.4129 22.1407 50.6309 14.7922 52.0454C7.44367 53.4599 4.92432 64.5326 9.16768 76.7817C13.411 89.0308 22.8074 97.808 30.1559 96.3983V96.3935Z" fill="#CED2F4"/>
<path d="M37.6037 71.3057C36.456 67.9958 34.9272 64.7906 33.108 61.876C31.2887 58.9614 29.2122 56.3992 26.9929 54.3275C24.7784 52.2558 22.4638 50.7175 20.1921 49.8079C17.9157 48.8935 15.7249 48.622 13.739 49.003C13.2342 49.0983 13.0627 49.8603 13.3532 50.6985C13.6437 51.5367 14.2914 52.1415 14.7915 52.0463C22.14 50.6318 31.5363 59.4138 35.7749 71.6581C36.0654 72.4963 36.7131 73.1011 37.2132 73.0059C37.718 72.9106 37.8895 72.1486 37.599 71.3105L37.6037 71.3057Z" fill="#FFC904"/>
<path fill-rule="evenodd" clip-rule="evenodd" d="M29.1038 93.3514C35.4427 92.1322 37.6144 82.5787 33.9568 72.0108C30.2944 61.4429 22.1887 53.8706 15.8499 55.0897C9.51101 56.3089 7.33933 65.8625 10.9969 76.4304C14.6592 86.9983 22.765 94.5706 29.1038 93.3514ZM28.0513 90.3082C33.3805 89.2843 35.2093 81.25 32.1328 72.3632C29.0562 63.4765 22.2363 57.109 16.9071 58.133C11.5779 59.1569 9.74914 67.1912 12.8257 76.078C15.9023 84.9647 22.7221 91.3322 28.0513 90.3082Z" fill="#CED2F4"/>
<path fill-rule="evenodd" clip-rule="evenodd" d="M26.994 87.2621C31.3183 86.4286 32.7994 79.9136 30.3039 72.7127C27.8084 65.5071 22.2791 60.3446 17.9596 61.1733C13.6352 62.0067 12.1541 68.5217 14.6496 75.7226C17.1452 82.9282 22.6744 88.0907 26.994 87.2621ZM25.9415 84.2189C29.2561 83.5807 30.3896 78.5849 28.4751 73.0651C26.5606 67.5407 22.3267 63.5831 19.0121 64.2212C15.6974 64.8594 14.5639 69.8552 16.4737 75.3749C18.3882 80.8994 22.622 84.857 25.9367 84.2189H25.9415Z" fill="#CED2F4"/>
<path d="M31.0377 75.3114C30.6091 73.3635 29.8995 71.4062 28.966 69.5821C28.0326 67.7533 26.8943 66.1055 25.6323 64.753C24.375 63.4004 23.0272 62.3765 21.689 61.7621C20.3936 61.1668 19.1363 60.9668 18.0076 61.1716C17.9885 61.1716 17.9742 61.1716 17.9552 61.1764C17.9457 61.1764 17.9409 61.1764 17.9361 61.1811C17.9218 61.1811 17.9076 61.1811 17.8933 61.1859C17.4361 61.3335 17.2884 62.0669 17.5694 62.8718C17.8504 63.6862 18.4648 64.272 18.9601 64.2243C18.9601 64.2243 18.9934 64.2243 19.0077 64.2196C22.3224 63.5814 26.561 67.5438 28.4707 73.0635C30.3852 78.588 29.247 83.579 25.9371 84.2172C25.1798 84.3648 24.3702 84.2648 23.5511 83.9648C23.3701 83.86 23.1939 83.8172 23.0272 83.8505C22.5224 83.9457 22.3509 84.7077 22.6415 85.5459C22.8367 86.1031 23.1844 86.5556 23.5463 86.7699V86.7985C24.8846 87.3557 26.1657 87.489 27.2991 87.189C28.4374 86.8889 29.3946 86.1603 30.1138 85.0602C30.8329 83.96 31.2853 82.5122 31.4473 80.8263C31.6044 79.1404 31.4663 77.2545 31.0377 75.3066V75.3114Z" fill="#7FD8F7"/>
<path d="M35.0282 75.7867C34.1852 71.991 32.6279 68.1858 30.5467 64.8569C28.4655 61.5279 25.9605 58.8228 23.3459 57.0845C20.8075 55.3986 18.2834 54.6985 16.0593 55.0557C16.0355 55.0557 16.0069 55.0557 15.9831 55.0652C15.9736 55.0652 15.9593 55.07 15.9497 55.0747C15.9164 55.0795 15.8831 55.0843 15.8545 55.089V55.1081C15.4544 55.2986 15.3354 55.9987 15.5973 56.7654C15.864 57.5322 16.4212 58.0989 16.9022 58.118V58.137C22.241 57.1131 29.0561 63.4805 32.1326 72.3673C35.2092 81.2541 33.3851 89.2883 28.0512 90.3123C22.722 91.3362 15.9021 84.9688 12.8256 76.082C12.5351 75.2438 11.8874 74.639 11.3873 74.7342C10.8825 74.8295 10.711 75.5915 11.0015 76.4297C12.3112 80.2111 14.2638 83.7782 16.6165 86.6833C18.9691 89.5884 21.6076 91.6934 24.2079 92.7364C26.8082 93.7794 29.2466 93.7174 31.2182 92.5506C33.1899 91.3838 34.6043 89.1693 35.2806 86.1832C35.9569 83.1971 35.8712 79.5777 35.0282 75.782V75.7867Z" fill="#00F85F"/>
</g>
</g>
<defs>
<filter id="filter0_d_885_1230" x="50.8772" y="63.6055" width="54.3214" height="57.3945" filterUnits="userSpaceOnUse" color-interpolation-filters="sRGB">
<feFlood flood-opacity="0" result="BackgroundImageFix"/>
<feColorMatrix in="SourceAlpha" type="matrix" values="0 0 0 0 0 0 0 0 0 0 0 0 0 0 0 0 0 0 127 0" result="hardAlpha"/>
<feOffset dx="18" dy="-14"/>
<feGaussianBlur stdDeviation="7.5"/>
<feComposite in2="hardAlpha" operator="out"/>
<feColorMatrix type="matrix" values="0 0 0 0 0.20179 0 0 0 0 0.221692 0 0 0 0 0.400814 0 0 0 0.25 0"/>
<feBlend mode="normal" in2="BackgroundImageFix" result="effect1_dropShadow_885_1230"/>
<feBlend mode="normal" in="SourceGraphic" in2="effect1_dropShadow_885_1230" result="shape"/>
</filter>
<filter id="filter1_d_885_1230" x="5" y="26.8281" width="67.9481" height="80.7773" filterUnits="userSpaceOnUse" color-interpolation-filters="sRGB">
<feFlood flood-opacity="0" result="BackgroundImageFix"/>
<feColorMatrix in="SourceAlpha" type="matrix" values="0 0 0 0 0 0 0 0 0 0 0 0 0 0 0 0 0 0 127 0" result="hardAlpha"/>
<feOffset dx="18" dy="-7"/>
<feGaussianBlur stdDeviation="7.5"/>
<feComposite in2="hardAlpha" operator="out"/>
<feColorMatrix type="matrix" values="0 0 0 0 0.20179 0 0 0 0 0.221692 0 0 0 0 0.400814 0 0 0 0.25 0"/>
<feBlend mode="normal" in2="BackgroundImageFix" result="effect1_dropShadow_885_1230"/>
<feBlend mode="normal" in="SourceGraphic" in2="effect1_dropShadow_885_1230" result="shape"/>
</filter>
<linearGradient id="paint0_linear_885_1230" x1="17.373" y1="66.0832" x2="105.888" y2="66.0832" gradientUnits="userSpaceOnUse">
<stop offset="0.18" stop-color="#BBC0E6"/>
<stop offset="0.19" stop-color="#BBC0E6"/>
<stop offset="0.46" stop-color="#CED3F8"/>
</linearGradient>
<linearGradient id="paint1_linear_885_1230" x1="121.671" y1="111.217" x2="6.8959" y2="25.9692" gradientUnits="userSpaceOnUse">
<stop stop-color="#C2C7E3"/>
<stop offset="1" stop-color="#E7E7FF"/>
</linearGradient>
<linearGradient id="paint2_linear_885_1230" x1="91.111" y1="85.0813" x2="12.5302" y2="36.285" gradientUnits="userSpaceOnUse">
<stop offset="0.18" stop-color="#BBC0E6"/>
<stop offset="0.19" stop-color="#BBC0E6"/>
<stop offset="0.46" stop-color="#CED3F8"/>
</linearGradient>
<linearGradient id="paint3_linear_885_1230" x1="58.1025" y1="88.7109" x2="58.774" y2="88.7109" gradientUnits="userSpaceOnUse">
<stop offset="0.01" stop-color="#4AB0DD"/>
<stop offset="0.02" stop-color="#4AB0DD"/>
<stop offset="0.57" stop-color="#52B6E0"/>
<stop offset="0.6" stop-color="#4DA3DE"/>
<stop offset="0.65" stop-color="#4688DD"/>
</linearGradient>
<clipPath id="clip0_885_1230">
<rect width="120" height="120" fill="white"/>
</clipPath>
</defs>
</svg>
