<svg width="76" height="76" viewBox="0 0 76 76" fill="none" xmlns="http://www.w3.org/2000/svg">
<rect width="76" height="76" rx="38" fill="#85C600"/>
<path fill-rule="evenodd" clip-rule="evenodd" d="M30.5486 22.6214C30.7209 21.9609 31.3174 21.5 32 21.5H43.25C43.7119 21.5 44.1481 21.7128 44.4323 22.0769C44.7166 22.441 44.8173 22.9157 44.7052 23.3638L42.9212 30.5H50C50.5966 30.5 51.1365 30.8536 51.375 31.4004C51.6134 31.9473 51.5052 32.5835 51.0992 33.0207L31.5992 54.0207C31.136 54.5195 30.3951 54.6439 29.7944 54.3237C29.1938 54.0035 28.884 53.319 29.0399 52.6564L31.6061 41.75H27.5C27.0354 41.75 26.5971 41.5347 26.313 41.1671C26.029 40.7994 25.9313 40.3209 26.0486 39.8714L30.5486 22.6214ZM37.2052 28.6142C37.4061 27.8105 36.9175 26.9961 36.1138 26.7951C35.3101 26.5942 34.4957 27.0829 34.2948 27.8866L32.7948 33.8866C32.5939 34.6902 33.0825 35.5046 33.8862 35.7056C34.6899 35.9065 35.5043 35.4178 35.7052 34.6142L37.2052 28.6142Z" fill="white"/>
</svg>
