<svg width="16" height="16" viewBox="0 0 16 16" fill="none" xmlns="http://www.w3.org/2000/svg">
<path d="M8.39428 0.797032L8.00007 1.33459C7.8256 1.09668 7.72837 0.964029 7.67417 0.890087C7.60592 0.796961 7.6058 0.797032 7.6058 0.797032C7.84046 0.624948 8.15962 0.624948 8.39428 0.797032Z" fill="#C0ED5F"/>
<path fill-rule="evenodd" clip-rule="evenodd" d="M13.6667 9.66797C13.6667 7.1036 12.3001 4.87006 11.0122 3.32451C10.3609 2.543 9.71118 1.91506 9.2242 1.4822C8.98028 1.26538 8.77605 1.09649 8.63135 0.980723C8.55897 0.922817 8.50138 0.87813 8.46107 0.847314C8.44091 0.831904 8.42507 0.819956 8.41383 0.81155L8.40048 0.801606L8.39647 0.798644L8.39515 0.797669C8.39515 0.797669 8.39428 0.797032 8.00007 1.33459L7.6058 0.797032L7.60493 0.797669L7.60361 0.798644L7.5996 0.801606L7.58625 0.81155C7.57502 0.819956 7.55917 0.831904 7.53901 0.847314C7.4987 0.87813 7.44112 0.922817 7.36873 0.980723C7.22403 1.09649 7.0198 1.26538 6.77588 1.4822C6.28891 1.91506 5.63915 2.543 4.98789 3.32451C3.69994 4.87006 2.33337 7.1036 2.33337 9.66797C2.33337 12.7976 4.87042 15.3346 8.00004 15.3346C10.7385 15.3346 13.0232 13.3922 13.5516 10.81C13.6271 10.4411 13.6667 10.0592 13.6667 9.66797ZM12.3123 9.16831C12.1521 7.26034 11.1033 5.51654 9.98789 4.17809C9.38915 3.4596 8.78891 2.87921 8.33838 2.47874C8.21241 2.36677 8.0985 2.26918 8.00004 2.18689C7.90158 2.26918 7.78767 2.36677 7.6617 2.47874C7.21118 2.87921 6.61093 3.4596 6.01219 4.17809C4.97101 5.4275 3.98784 7.03014 3.73133 8.7898C4.00254 8.73216 4.32049 8.67481 4.66735 8.63145C5.70695 8.5015 7.11895 8.48207 8.29818 9.07168C9.11895 9.48207 10.2069 9.5015 11.1674 9.38145C11.6209 9.32475 12.021 9.24027 12.3123 9.16831Z" fill="#C0ED5F"/>
</svg>
