<svg width="24" height="24" viewBox="0 0 24 24" fill="none" xmlns="http://www.w3.org/2000/svg">
<path fill-rule="evenodd" clip-rule="evenodd" d="M5.5 10.5C5.5 8.84317 6.84317 7.5 8.5 7.5C10.1568 7.5 11.5 8.84317 11.5 10.5C11.5 11.1753 11.2769 11.7985 10.9003 12.2999C11.8717 13.0297 12.5 14.1915 12.5 15.5C12.5 16.0523 12.0523 16.5 11.5 16.5C10.9477 16.5 10.5 16.0523 10.5 15.5C10.5 14.3954 9.60456 13.5 8.5 13.5C7.39543 13.5 6.5 14.3954 6.5 15.5C6.5 16.0523 6.05228 16.5 5.5 16.5C4.94772 16.5 4.5 16.0523 4.5 15.5C4.5 14.1915 5.12833 13.0297 6.09973 12.2999C5.72315 11.7985 5.5 11.1753 5.5 10.5ZM8.5 11.5C9.05227 11.5 9.5 11.0523 9.5 10.5C9.5 9.94773 9.05227 9.5 8.5 9.5C7.94773 9.5 7.5 9.94773 7.5 10.5C7.5 11.0523 7.94773 11.5 8.5 11.5Z" fill="#8DD1FF"/>
<path d="M13 10C13 9.44772 13.4477 9 14 9H18C18.5523 9 19 9.44772 19 10C19 10.5523 18.5523 11 18 11H14C13.4477 11 13 10.5523 13 10Z" fill="#8DD1FF"/>
<path d="M15 13C14.4477 13 14 13.4477 14 14C14 14.5523 14.4477 15 15 15H18C18.5523 15 19 14.5523 19 14C19 13.4477 18.5523 13 18 13H15Z" fill="#8DD1FF"/>
<path fill-rule="evenodd" clip-rule="evenodd" d="M1 4C1 3.44772 1.44772 3 2 3H22C22.5523 3 23 3.44772 23 4V20C23 20.5523 22.5523 21 22 21H2C1.44772 21 1 20.5523 1 20V4ZM3 5V19H21V5H3Z" fill="#8DD1FF"/>
</svg>
