<svg width="120" height="120" viewBox="0 0 120 120" fill="none" xmlns="http://www.w3.org/2000/svg">
<path opacity="0.3" d="M112.952 76.64L71.1484 52.5803C69.2986 51.5053 66.2938 51.5053 64.4399 52.5756L6.17904 86.2125C4.31702 87.2876 4.30732 89.0281 6.15714 90.103L47.9611 114.163C49.8109 115.238 52.8158 115.238 54.6778 114.163L112.939 80.5259C114.793 79.4555 114.802 77.715 112.952 76.64Z" fill="url(#paint0_linear_885_1963)"/>
<path d="M25.3837 77.1502C25.3798 75.8273 23.0496 74.1623 21.8831 73.4844L21.9121 83.4217C23.0774 84.0996 25.4089 85.7647 25.4114 87.0876L25.3837 77.1502Z" fill="#F5F5FA"/>
<path d="M62.7284 83.4217L62.6994 73.4844C61.5203 74.1648 59.1534 75.8438 59.1585 77.1692L59.1851 87.1066C59.1824 85.7811 61.5493 84.1033 62.7284 83.4217Z" fill="#BBBFE2"/>
<path d="M34.921 88.5678C39.0072 86.2073 45.6019 86.2073 49.6602 88.5666C51.6763 89.7381 52.686 91.2706 52.6924 92.8069L52.6621 82.8683C52.6571 81.3344 51.6471 79.8007 49.6324 78.628C45.5726 76.2698 38.9793 76.2698 34.8918 78.628C32.838 79.8146 31.8142 81.3711 31.8179 82.925L31.8445 92.8624C31.8418 91.3085 32.8682 89.752 34.921 88.5678Z" fill="url(#paint1_linear_885_1963)"/>
<path d="M25.9228 94.7172L21.7786 92.3086L21.8063 102.246L25.9519 104.656L25.9228 94.7172Z" fill="#CED2F4"/>
<path d="M62.6235 102.246L62.5945 92.3086L58.4211 94.7172L58.4501 104.656L62.6235 102.246Z" fill="#BBBFE2"/>
<path d="M33.642 102.814C34.4347 103.042 35.2504 103.238 36.0835 103.4C38.6765 103.79 39.2356 106.616 39.2394 107.804L39.2117 97.8668C39.2066 96.6777 38.6474 93.8537 36.0558 93.4638C35.2238 93.3009 34.407 93.1052 33.6142 92.8768C31.2776 92.0813 27.3454 93.8966 25.9226 94.7185L25.9517 104.657C27.3731 103.834 31.3067 102.018 33.642 102.814Z" fill="url(#paint2_linear_885_1963)"/>
<path d="M47.1508 103.802C47.4841 103.609 47.8754 103.468 48.3324 103.4C49.1668 103.237 49.976 103.042 50.775 102.815C53.1242 102.016 57.0364 103.833 58.4502 104.656L58.4213 94.7171C57.0087 93.8952 53.0965 92.08 50.7472 92.8778C49.9482 93.1038 49.1378 93.2995 48.3046 93.4624C47.8477 93.5305 47.4575 93.672 47.1219 93.8651C45.5198 94.7891 45.1802 96.9023 45.0894 97.9109L45.1185 107.847C45.2093 106.841 45.5476 104.726 47.1508 103.802Z" fill="url(#paint3_linear_885_1963)"/>
<path d="M24.9838 87.8611C26.3522 89.2155 23.2 91.4879 21.7786 92.3097L25.9229 94.7183C27.3456 93.8964 31.2779 92.0811 33.6145 92.8766C34.4073 93.1049 35.2241 93.3007 36.056 93.4636C38.6805 93.8561 39.2208 96.7506 39.2106 97.9121H45.0895C45.1804 96.9035 45.5199 94.7902 47.122 93.8662C47.4576 93.6732 47.8478 93.5317 48.3047 93.4636C49.1379 93.3007 49.9484 93.105 50.7474 92.879C53.0967 92.0811 57.0088 93.8964 58.4215 94.7183L62.5947 92.3097C61.1808 91.4891 58.0554 89.2155 59.4376 87.8611C59.8328 87.3991 60.1773 86.9257 60.46 86.4447C60.5787 86.1822 60.8288 85.9536 61.1683 85.7579C62.7893 84.82 66.4929 84.6004 68.1466 84.6004L68.1643 81.1946C66.017 81.2791 61.1708 80.8725 60.4992 79.3489C60.2227 78.8667 59.8844 78.3958 59.4944 77.9351C58.1272 76.5781 61.277 74.307 62.6996 73.4852L58.5539 71.0766C57.1312 71.8972 53.1989 73.715 50.8637 72.9184C50.0684 72.6912 49.2541 72.4942 48.4235 72.3327C45.7965 71.9363 45.2562 69.0441 45.2626 67.8853L39.3785 67.8828C39.3773 68.8422 38.9874 70.9883 37.3627 71.9249C37.0231 72.1194 36.6292 72.2633 36.1735 72.3314C35.3403 72.4942 34.521 72.6887 33.727 72.9184C31.018 73.503 27.4695 71.8972 26.0556 71.0766L21.8834 73.4853C23.2974 74.307 26.4217 76.5781 25.0382 77.9326C24.6406 78.3934 24.301 78.8667 24.0195 79.3502C23.8995 79.6128 23.6507 79.84 23.3112 80.0382C21.6879 80.9737 17.9852 81.1946 16.3227 81.1946L16.3127 84.6004C18.3134 84.6004 23.3061 84.9211 23.9778 86.4447C24.2581 86.9257 24.5861 87.3978 24.9838 87.8611ZM34.892 78.6294C38.9795 76.2713 45.5729 76.2713 49.6327 78.6294C53.6886 80.9875 53.671 84.8099 49.5849 87.1692C45.5048 89.5262 38.9038 89.5236 34.8491 87.1668C30.7894 84.8075 30.8108 80.9875 34.892 78.6294Z" fill="#F1F1F6"/>
<path d="M21.7785 92.3108C23.1998 91.489 26.352 89.2167 24.9836 87.8622C24.586 87.399 24.2578 86.9269 23.9775 86.4459C23.3059 84.9222 18.3132 84.6016 16.3125 84.6016L16.3402 94.5389C17.5861 94.5389 19.9859 94.6639 21.7848 95.1247L21.7785 92.3108Z" fill="#CED2F4"/>
<path d="M45.1185 107.846L45.0894 97.9102H39.2104L39.2396 107.848L45.1185 107.846Z" fill="#BBBFE2"/>
<path d="M68.1742 94.5389L68.1464 84.6016C66.4926 84.6016 62.7891 84.8211 61.1681 85.7591C60.8286 85.9548 60.5785 86.1834 60.4598 86.4459C60.1771 86.9268 59.8326 87.4002 59.4374 87.8622C58.0551 89.2167 61.1807 91.4903 62.5945 92.3108L62.6034 95.165C64.4213 94.6765 66.9004 94.5389 68.1742 94.5389Z" fill="url(#paint4_linear_885_1963)"/>
<path d="M81.7365 66.6896C81.734 65.8628 80.2776 64.8221 79.5486 64.3984L79.5668 70.6093C80.2951 71.0329 81.7523 72.0737 81.7538 72.9004L81.7365 66.6896Z" fill="#F5F5FA"/>
<path d="M105.077 70.6093L105.059 64.3984C104.322 64.8237 102.843 65.8731 102.846 66.7015L102.862 72.9123C102.861 72.084 104.34 71.0353 105.077 70.6093Z" fill="#BBBFE2"/>
<path d="M87.6972 73.8256C90.2511 72.3502 94.3728 72.3502 96.9093 73.8248C98.1693 74.557 98.8004 75.5149 98.8043 76.475L98.7855 70.2634C98.7823 69.3047 98.1511 68.3461 96.8919 67.6132C94.3546 66.1394 90.2337 66.1394 87.679 67.6132C86.3954 68.3549 85.7555 69.3276 85.7578 70.2989L85.7744 76.5097C85.7728 75.5385 86.4143 74.5657 87.6972 73.8256Z" fill="url(#paint5_linear_885_1963)"/>
<path d="M82.0733 77.6695L79.4832 76.1641L79.5005 82.3749L82.0915 83.8811L82.0733 77.6695Z" fill="#CED2F4"/>
<path d="M105.011 82.3749L104.993 76.1641L102.385 77.6695L102.403 83.8811L105.011 82.3749Z" fill="#BBBFE2"/>
<path d="M86.8979 82.7286C87.3933 82.8713 87.9031 82.9937 88.4238 83.0946C90.0444 83.3384 90.3939 85.105 90.3963 85.8473L90.3789 79.6365C90.3757 78.8933 90.0262 77.1283 88.4065 76.8846C87.8865 76.7828 87.376 76.6605 86.8805 76.5177C85.4201 76.0206 82.9625 77.1551 82.0732 77.6688L82.0914 83.8805C82.9798 83.366 85.4383 82.2308 86.8979 82.7286Z" fill="url(#paint6_linear_885_1963)"/>
<path d="M95.3409 83.3502C95.5492 83.2295 95.7938 83.1411 96.0794 83.0985C96.6009 82.9967 97.1067 82.8752 97.606 82.7331C99.0743 82.2338 101.519 83.3691 102.403 83.8836L102.385 77.6719C101.502 77.1582 99.057 76.0236 97.5886 76.5223C97.0893 76.6635 96.5828 76.7858 96.062 76.8876C95.7765 76.9302 95.5326 77.0186 95.3228 77.1393C94.3215 77.7168 94.1093 79.0376 94.0525 79.668L94.0707 85.878C94.1274 85.2492 94.3389 83.9277 95.3409 83.3502Z" fill="url(#paint7_linear_885_1963)"/>
<path d="M81.4864 73.3849C82.3417 74.2314 80.3716 75.6516 79.4831 76.1652L82.0733 77.6706C82.9625 77.1569 85.4202 76.0224 86.8806 76.5196C87.3761 76.6623 87.8866 76.7847 88.4066 76.8865C90.0468 77.1318 90.3845 78.9409 90.3781 79.6668H94.0525C94.1093 79.0364 94.3215 77.7156 95.3228 77.1381C95.5325 77.0174 95.7764 76.929 96.062 76.8864C96.5827 76.7846 97.0893 76.6623 97.5886 76.521C99.057 76.0224 101.502 77.1569 102.385 77.6706L104.993 76.1652C104.11 75.6524 102.156 74.2314 103.02 73.3849C103.267 73.0961 103.482 72.8003 103.659 72.4996C103.733 72.3356 103.889 72.1927 104.102 72.0704C105.115 71.4842 107.43 71.3469 108.463 71.3469L108.474 69.2183C107.132 69.2712 104.103 69.017 103.684 68.0647C103.511 67.7634 103.299 67.469 103.056 67.1811C102.201 66.333 104.17 64.9135 105.059 64.4L102.468 62.8946C101.578 63.4075 99.1208 64.5435 97.6613 64.0457C97.1642 63.9037 96.6553 63.7806 96.1361 63.6796C94.4943 63.4319 94.1566 61.6243 94.1605 60.9L90.483 60.8984C90.4822 61.4981 90.2385 62.8394 89.2231 63.4248C89.0109 63.5463 88.7647 63.6362 88.4799 63.6788C87.9591 63.7806 87.4471 63.9021 86.9508 64.0457C85.2577 64.4111 83.0399 63.4075 82.1562 62.8946L79.5485 64.4C80.4322 64.9136 82.385 66.333 81.5203 67.1795C81.2718 67.4675 81.0595 67.7634 80.8836 68.0656C80.8086 68.2297 80.6531 68.3717 80.4409 68.4956C79.4263 69.0802 77.1122 69.2183 76.0731 69.2183L76.0669 71.347C77.3173 71.347 80.4378 71.5474 80.8576 72.4997C81.0327 72.8003 81.2379 73.0953 81.4864 73.3849ZM87.679 67.6151C90.2337 66.1412 94.3546 66.1412 96.892 67.6151C99.4269 69.0889 99.4159 71.4779 96.8621 72.9524C94.312 74.4255 90.1864 74.4239 87.6522 72.9509C85.1149 71.4763 85.1283 69.0889 87.679 67.6151Z" fill="#F1F1F6"/>
<path d="M79.4831 76.166C80.3715 75.6524 82.3416 74.2322 81.4864 73.3856C81.2379 73.096 81.0328 72.801 80.8576 72.5004C80.4378 71.5481 77.3173 71.3477 76.0669 71.3477L76.0842 77.5585C76.8629 77.5585 78.3628 77.6366 79.4871 77.9246L79.4831 76.166Z" fill="#CED2F4"/>
<path d="M94.0708 85.878L94.0525 79.668H90.3782L90.3964 85.8789L94.0708 85.878Z" fill="#BBBFE2"/>
<path d="M108.481 77.5585L108.463 71.3477C107.43 71.3477 105.115 71.4849 104.102 72.0711C103.889 72.1935 103.733 72.3363 103.659 72.5004C103.482 72.801 103.267 73.0968 103.02 73.3856C102.156 74.2321 104.11 75.6531 104.993 76.166L104.999 77.9499C106.135 77.6445 107.684 77.5585 108.481 77.5585Z" fill="url(#paint8_linear_885_1963)"/>
<path d="M112.212 48.5066L70.257 33.669C68.562 32.684 65.8086 32.684 64.1099 33.6648L7.94348 60.5562C6.23728 61.5413 6.22837 63.136 7.92342 64.1211L50.6801 89.3071C52.3752 90.2922 55.1286 90.2922 60.9227 85.2176L112.788 53.8238C113.779 53.224 114.72 51.9537 114.173 50.9326C113.62 49.8999 113.397 49.1952 112.212 48.5066Z" fill="#F6F6FB"/>
<path d="M112.638 53.7187L55.1645 88.6306C53.4583 89.6157 50.7049 89.6157 49.0099 88.6306L7.92344 63.7622C7.08133 63.2728 6.65988 62.633 6.65796 61.9922L6.67666 65.1224C6.67844 65.7632 7.09999 66.4031 7.94201 66.8924L49.0285 91.7608C50.7236 92.746 53.477 92.746 55.1832 91.7608L112.657 56.849C113.511 56.356 113.938 55.7078 113.936 55.0599L113.917 51.9297C113.919 52.5776 113.492 53.2257 112.638 53.7187Z" fill="url(#paint9_linear_885_1963)"/>
<path d="M25.626 62.148L56.7268 80.2218L102.233 53.949L71.1318 35.875L25.626 62.148Z" fill="white"/>
<path d="M26.5332 71.0147L52.1402 85.8958L89.6076 64.2641L64.0005 49.3828L26.5332 71.0147Z" fill="#F1F5F9"/>
<path d="M87.1187 48.1484L88.3573 50.7916L96.6435 57.0428L95.4048 54.3997L87.1187 48.1484Z" fill="#7A81A5"/>
<path d="M97.531 32.1126L105.817 38.3637L109.213 37.7943L100.927 31.543L97.531 32.1126Z" fill="#7A81A5"/>
<path d="M92.5608 31.3359C93.583 32.107 94.0731 33.5835 93.7907 35.5424L102.077 41.7937C102.359 39.8347 101.869 38.3583 100.847 37.5872L92.5608 31.3359Z" fill="#7A81A5"/>
<path d="M86.7806 44.5327C86.7148 44.5606 86.6491 44.5875 86.5828 44.6139C84.9766 45.2287 83.6124 45.1068 82.6897 44.4105L90.9756 50.6618C91.8986 51.3582 93.2628 51.4802 94.8689 50.8652C94.9351 50.8388 95.0009 50.8119 95.0666 50.784C98.3895 49.3644 101.496 45.4382 102.077 41.7943L93.7906 35.543C93.2096 39.1869 90.1035 43.1132 86.7806 44.5327Z" fill="#7A81A5"/>
<path d="M95.4583 27.4288L103.744 33.68L107.211 30.8333L98.9251 24.582L95.4583 27.4288Z" fill="#7A81A5"/>
<path d="M93.8416 26.6055L102.128 32.8568C102.779 32.9855 103.183 33.2577 103.632 33.5968L95.3463 27.3455C94.8968 27.0066 94.4931 26.7341 93.8416 26.6055Z" fill="#09425E"/>
<path d="M75.1497 49.5972L83.4358 55.8483L86.3183 52.1146L78.0323 45.8633L75.1497 49.5972Z" fill="#7A81A5"/>
<path d="M77.6857 43.6484C77.6757 44.4986 77.8756 45.1712 78.0322 45.862L86.3182 52.1133C86.1616 51.4223 85.962 50.7499 85.9718 49.8995L77.6857 43.6484Z" fill="#7A81A5"/>
<path d="M92.6997 22.722L100.986 28.9733C101.626 28.8935 102.462 28.8274 103.174 28.9112L94.8876 22.6599C94.1759 22.5763 93.3403 22.6422 92.6997 22.722Z" fill="#BCC1E4"/>
<path d="M90.4724 26.7406L98.7586 32.9919L100.986 28.974L92.6996 22.7227L90.4724 26.7406Z" fill="#7A81A5"/>
<path d="M89.292 27.0837L97.5781 33.335C97.8909 33.2545 98.3172 33.1164 98.7584 32.9896L90.4723 26.7383C90.0311 26.8651 89.6049 27.0032 89.292 27.0837Z" fill="#7A81A5"/>
<path d="M88.4001 27.4857C88.2923 27.5318 88.1907 27.5725 88.0996 27.6044L96.3858 33.8555C96.4769 33.8238 96.5785 33.7831 96.6861 33.737C96.9733 33.6144 97.3019 33.4552 97.5783 33.3372L89.2922 27.0859C89.0159 27.2041 88.6872 27.3631 88.4001 27.4857Z" fill="#7A81A5"/>
<path d="M78.2317 39.5664L86.5177 45.8175C86.8058 44.9013 87.2417 43.9133 87.7587 43.0052L79.4725 36.7539C78.9555 37.662 78.5196 38.6502 78.2317 39.5664Z" fill="#7A81A5"/>
<path d="M82.1775 32.573L90.4635 38.8243C91.0889 38.037 91.802 37.2745 92.5695 36.6029L84.2833 30.3516C83.5158 31.0232 82.8029 31.7859 82.1775 32.573Z" fill="#7A81A5"/>
<path d="M74.5169 42.9828C74.4981 43.352 74.4157 43.8455 74.2942 44.2496L82.5804 50.5007C82.7019 50.0966 82.7841 49.6033 82.8031 49.2339C82.8535 48.7365 82.9209 48.3023 83.0054 47.8608L74.7194 41.6094C74.6349 42.0512 74.5673 42.4851 74.5169 42.9828Z" fill="#BCC1E4"/>
<path d="M74.7195 41.6129L83.0055 47.864L86.5178 45.8176L78.2317 39.5664L74.7195 41.6129Z" fill="#7A81A5"/>
<path d="M84.2834 30.354L92.5696 36.6052L92.7644 32.9269L84.4782 26.6758L84.2834 30.354Z" fill="#7A81A5"/>
<path d="M84.4783 26.6766L92.7645 32.9277C93.6078 32.2414 94.3149 31.7366 95.1481 31.2044L86.862 24.9531C86.0287 25.4855 85.3218 25.9901 84.4783 26.6766Z" fill="#BCC1E4"/>
<path d="M77.4851 34.8945L79.4725 36.7508L87.7587 43.0021L85.7713 41.1458L77.4851 34.8945Z" fill="#7A81A5"/>
<path d="M88.7922 59.3117L85.4478 56.7115L87.4917 53.5703L89.9865 54.9857L88.7922 59.3117Z" fill="#7A81A5"/>
<path d="M77.4851 34.8963L85.7713 41.1476C86.2181 40.2076 86.9247 39.2891 87.4918 38.4388L79.2058 32.1875C78.6385 33.0378 77.9321 33.9563 77.4851 34.8963Z" fill="#BCC1E4"/>
<path d="M79.2058 32.1875L87.4918 38.4388L90.4636 38.826L82.1776 32.5747L79.2058 32.1875Z" fill="#7A81A5"/>
<path d="M105.472 36.1407L108.354 32.407C108.067 31.7804 107.686 31.256 107.211 30.8334L103.744 33.6801C103.248 33.3019 102.833 32.9943 102.128 32.8551L103.174 28.9099C102.462 28.8262 101.626 28.8923 100.986 28.9722L98.7585 32.9901C98.3171 33.117 97.891 33.2551 97.5781 33.3355C97.3017 33.4535 96.9731 33.6127 96.6859 33.7353C96.5783 33.7813 96.4767 33.8221 96.3856 33.8537L95.1479 31.2015C94.3147 31.7337 93.6077 32.2385 92.7642 32.9247L92.5695 36.603C91.8019 37.2747 91.0889 38.0373 90.4634 38.8245L87.4917 38.4372C86.9245 39.2875 86.2179 40.2061 85.7711 41.146L87.7586 43.0022C87.2416 43.9103 86.8057 44.8984 86.5176 45.8145L83.0054 47.861C82.9209 48.3026 82.8535 48.7369 82.8031 49.2342C82.7841 49.6036 82.7017 50.097 82.5803 50.5012L85.9719 49.8983C85.9621 50.7486 86.1616 51.421 86.3182 52.112L83.4358 55.8457C83.7401 56.4649 84.1039 56.9967 84.5788 57.4193L88.0338 54.6043C88.5683 54.9398 89.1244 55.231 89.6711 55.3941L88.7922 59.3116C89.3128 59.4859 90.1628 59.3697 90.8715 59.2694L93.1084 55.2388C93.5463 55.1398 93.8743 55.0699 94.2097 54.9355C94.676 54.7365 95.1011 54.5375 95.4046 54.3989L96.6433 57.042C97.5499 56.5136 98.2623 56.0332 99.0559 55.3504L99.2066 51.6996C99.9882 50.9781 100.699 50.2338 101.302 49.5006L104.286 49.8468C104.992 48.9377 105.575 48.0892 106.007 47.1382L104.142 45.2211C104.546 44.3606 104.968 43.4229 105.263 42.4511L108.785 40.3916C108.866 39.978 108.937 39.5157 109.021 39.0834C109.157 38.6201 109.256 38.1284 109.213 37.7941L105.817 38.3635C105.909 37.5137 105.729 36.8151 105.472 36.1407ZM102.077 41.7942C101.495 45.4381 98.3894 49.3643 95.0664 50.7839C95.0007 50.8119 94.9349 50.8388 94.8688 50.8652C91.4862 52.1603 89.1765 50.1863 89.8029 46.4643C90.401 42.8127 93.4785 38.8732 96.8089 37.4502C96.8744 37.4222 96.9398 37.3953 97.0053 37.3694C100.376 36.1056 102.611 38.0853 102.077 41.7942Z" fill="#BCC1E4"/>
<path d="M75.1497 49.5977L75.639 50.9545L84.5789 57.4224L83.4358 55.8488L75.1497 49.5977Z" fill="#7A81A5"/>
<mask id="mask0_885_1963" style="mask-type:luminance" maskUnits="userSpaceOnUse" x="24" y="3" width="62" height="74">
<path d="M24.0137 57.4868L37.1821 65.1395L36.5804 69.6867L40.2133 71.5366L44.1051 67.935L46.2664 69.798L43.0985 75.1046L46.0582 76.2541H71.7106L85.7713 41.1458L80.6129 13.8848L45.5291 3.82422L30.1647 24.2552L24.0137 57.4868Z" fill="white"/>
</mask>
<g mask="url(#mask0_885_1963)">
<path d="M62.8081 32.5833L75.2826 39.833L80.613 39.5388L68.1385 32.2891L62.8081 32.5833Z" fill="#168E46"/>
<path d="M44.7104 61.0469L46.356 66.5607L58.8307 73.8099L57.1846 68.2964L44.7104 61.0469Z" fill="#168E46"/>
<path d="M60.0532 22.9511L72.5274 30.2005L78.219 25.562L65.7446 18.3125L60.0532 22.9511Z" fill="#168E46"/>
<path d="M33.584 69.0045L46.0584 76.254L48.0178 68.7492L35.5433 61.5L33.584 69.0045Z" fill="#168E46"/>
<path d="M46.512 53.0398C45.7613 53.4734 44.9998 53.8142 44.238 54.0479C42.2768 54.6518 40.5834 54.4947 39.2683 53.7305L51.7427 60.9799C53.0579 61.7442 54.7513 61.9013 56.7124 61.2974C57.4742 61.0634 58.2355 60.7229 58.9864 60.2892C63.5861 57.6336 67.7626 51.5162 68.8353 45.519L56.3609 38.2695C55.2881 44.267 51.1117 50.3845 46.512 53.0398Z" fill="#168E46"/>
<path d="M66.1161 36.1281L53.6416 28.8789C56.038 30.2716 57.1802 33.7186 56.3609 38.2707L68.8353 45.5201C69.6547 40.9681 68.5125 37.5208 66.1161 36.1281Z" fill="#168E46"/>
<path d="M57.4443 21.1133L69.9188 28.3625C70.1302 28.4572 70.3359 28.5641 70.5375 28.681L58.0631 21.4317C57.8617 21.3147 57.6556 21.208 57.4443 21.1133Z" fill="#DE6049"/>
<path d="M32.9915 59.6562C33.5004 60.2128 34.0946 60.7273 34.7743 61.122L47.2487 68.3715C46.569 67.9765 45.9748 67.462 45.4659 66.9057L32.9915 59.6562Z" fill="#DE6049"/>
<path d="M55.9392 13.2031L68.4137 20.4523C69.7041 20.4749 70.8135 20.5629 71.9236 20.8454L59.4492 13.5959C58.339 13.3137 57.2296 13.2255 55.9392 13.2031Z" fill="#1CD169"/>
<path d="M52.0093 20.4147L64.4837 27.6642L68.4137 20.4523L55.9392 13.2031L52.0093 20.4147Z" fill="#168E46"/>
<path d="M25.6377 60.9492C26.0376 62.2007 26.5954 63.3226 27.2432 64.3013L39.7177 71.5505C39.0698 70.5718 38.512 69.4502 38.1122 68.1984L25.6377 60.9492Z" fill="#168E46"/>
<path d="M25.6379 60.9502L38.1124 68.1995L42.9497 61.6477L30.4753 54.3984L25.6379 60.9502Z" fill="#168E46"/>
<path d="M50.188 20.893C49.5209 21.0964 48.831 21.3254 48.198 21.5868L60.6724 28.836C61.3055 28.5747 61.9954 28.3456 62.6627 28.1425C63.2848 27.9523 63.8838 27.7752 64.4836 27.6635L52.0092 20.4141C51.4096 20.526 50.8101 20.7029 50.188 20.893Z" fill="#168E46"/>
<path d="M30.1685 50.0234C30.1389 51.6272 30.2785 53.0296 30.475 54.3987L42.9495 61.6479C42.753 60.2788 42.6133 58.8764 42.643 57.2729L30.1685 50.0234Z" fill="#168E46"/>
<path d="M38.3845 29.6338L50.859 36.883C51.9305 35.5625 53.1383 34.2536 54.4139 33.1401L41.9394 25.8906C40.6639 27.0044 39.4563 28.3128 38.3845 29.6338Z" fill="#168E46"/>
<path d="M31.5725 42.2274L44.047 49.4769C44.6196 47.7157 45.3163 46.0514 46.0474 44.3937L33.5729 37.1445C32.8417 38.8022 32.145 40.4663 31.5725 42.2274Z" fill="#168E46"/>
<path d="M42.5986 18.7965L55.0731 26.0457C56.3606 25.0162 57.7054 24.175 59.0274 23.3469L46.5529 16.0977C45.2309 16.9258 43.8864 17.767 42.5986 18.7965Z" fill="#1CD169"/>
<path d="M41.9395 25.8887L54.4139 33.1382L55.0729 26.0461L42.5985 18.7969L41.9395 25.8887Z" fill="#168E46"/>
<path d="M25.2273 47.8683C25.0711 48.6998 24.9715 49.4988 24.8384 50.3432L37.3128 57.5926C37.4459 56.7482 37.5455 55.949 37.7017 55.1177C37.8465 54.293 38.0365 53.4676 38.2041 52.6164L25.7296 45.3672C25.5622 46.2184 25.3721 47.0436 25.2273 47.8683Z" fill="#1CD169"/>
<path d="M25.7297 45.3695L38.2042 52.6187L44.0469 49.4799L31.5725 42.2305L25.7297 45.3695Z" fill="#168E46"/>
<path d="M33.7285 28.1875L46.203 35.437L50.859 36.8843L38.3846 29.635L33.7285 28.1875Z" fill="#168E46"/>
<path d="M30.6633 32.9727L33.5728 37.1458L46.0472 44.395L43.1378 40.2222L30.6633 32.9727Z" fill="#168E46"/>
<path d="M30.6633 32.9745L43.1378 40.2239C44.05 38.5917 45.1094 36.9654 46.203 35.437L33.7285 28.1875C32.6348 29.7162 31.5757 31.3423 30.6633 32.9745Z" fill="#1CD169"/>
<path d="M74.9533 35.485L79.734 28.9398C79.3344 27.7138 78.8215 26.5665 78.2189 25.5617L72.5273 30.2003C71.7101 29.4623 70.8706 28.7894 69.9188 28.3633L71.9236 20.8462C70.8135 20.5637 69.704 20.4757 68.4137 20.4531L64.4837 27.6649C63.8839 27.7767 63.2849 27.9538 62.6627 28.144C61.9954 28.347 61.3055 28.5761 60.6725 28.8375L59.0272 23.3494C57.7052 24.1775 56.3604 25.0187 55.0729 26.0482L54.4138 33.1403C53.1383 34.2538 51.9304 35.5627 50.8589 36.8832L46.2029 35.4359C45.1092 36.9643 44.0499 38.5907 43.1377 40.2228L46.0472 44.3958C45.3159 46.0534 44.6192 47.7177 44.0467 49.4789L38.204 52.6177C38.0364 53.4689 37.8464 54.2943 37.7016 55.119C37.5454 55.9503 37.4458 56.7495 37.3127 57.5939L42.6429 57.2737C42.6133 58.8772 42.7529 60.2796 42.9494 61.6487L38.1121 68.2005C38.512 69.4523 39.0698 70.5738 39.7177 71.5526L45.4659 66.9072C46.1587 67.6649 47.0094 68.3443 48.0177 68.7503L46.0584 76.2551C47.1007 76.5764 48.2889 76.6187 49.4442 76.7066L53.3737 69.4693C53.9734 69.3831 54.6633 69.18 55.3307 68.9638C55.9525 68.7736 56.5632 68.5773 57.1846 68.2965L58.8307 73.8101C60.2882 72.9169 61.5423 72.1274 62.909 71.0525L63.5224 63.974C64.753 62.8734 65.938 61.5648 67.1339 60.2241L71.7336 61.6784C72.7823 60.1884 73.7845 58.5693 74.7081 56.9177L71.855 52.7248C72.6768 51.0409 73.374 49.3898 73.8783 47.642L79.7101 44.5219C79.9567 43.6384 80.1467 42.8135 80.2914 41.9883C80.4476 41.157 80.5474 40.3581 80.6128 39.5399L75.2824 39.8341C75.3798 38.2299 75.2285 36.8347 74.9533 35.485ZM68.8353 45.5203C67.7626 51.5176 63.5861 57.635 58.9864 60.2906C58.2355 60.7242 57.4742 61.0648 56.7124 61.2987C51.1595 63.0089 47.7513 58.6164 49.0106 51.6205C50.0804 45.6408 54.2604 39.5469 58.9224 36.8549C59.6993 36.406 60.4891 36.0525 61.2807 35.8089C66.7207 34.1378 70.0946 38.524 68.8353 45.5203Z" fill="#1CD169"/>
</g>
<defs>
<linearGradient id="paint0_linear_885_1963" x1="70.6476" y1="119.075" x2="51.8928" y2="58.7086" gradientUnits="userSpaceOnUse">
<stop stop-color="#A1A6C6"/>
<stop offset="0.0719" stop-color="#ACB1D2"/>
<stop offset="0.2207" stop-color="#BFC4E7"/>
<stop offset="0.3677" stop-color="#CACFF3"/>
<stop offset="0.5096" stop-color="#CED3F8"/>
<stop offset="0.6444" stop-color="#CACFF3"/>
<stop offset="0.7885" stop-color="#BEC3E6"/>
<stop offset="0.9363" stop-color="#ABB0D1"/>
<stop offset="1" stop-color="#A1A6C6"/>
</linearGradient>
<linearGradient id="paint1_linear_885_1963" x1="31.8179" y1="84.8609" x2="52.6924" y2="84.8609" gradientUnits="userSpaceOnUse">
<stop stop-color="#BBBFE2"/>
<stop offset="1" stop-color="#DCE0F7"/>
</linearGradient>
<linearGradient id="paint2_linear_885_1963" x1="25.9226" y1="100.242" x2="39.2394" y2="100.242" gradientUnits="userSpaceOnUse">
<stop stop-color="#BBBFE2"/>
<stop offset="1" stop-color="#CED2F4"/>
</linearGradient>
<linearGradient id="paint3_linear_885_1963" x1="57.811" y1="100.108" x2="45.0189" y2="100.303" gradientUnits="userSpaceOnUse">
<stop stop-color="#CED2F4"/>
<stop offset="1" stop-color="#BBBFE2"/>
</linearGradient>
<linearGradient id="paint4_linear_885_1963" x1="59.0925" y1="89.8833" x2="68.1742" y2="89.8833" gradientUnits="userSpaceOnUse">
<stop offset="0.4045" stop-color="#BBBFE2"/>
<stop offset="1" stop-color="#CED2F4"/>
</linearGradient>
<linearGradient id="paint5_linear_885_1963" x1="85.7578" y1="71.5087" x2="98.8044" y2="71.5087" gradientUnits="userSpaceOnUse">
<stop stop-color="#BBBFE2"/>
<stop offset="1" stop-color="#DCE0F7"/>
</linearGradient>
<linearGradient id="paint6_linear_885_1963" x1="82.0732" y1="81.121" x2="90.3962" y2="81.121" gradientUnits="userSpaceOnUse">
<stop stop-color="#BBBFE2"/>
<stop offset="1" stop-color="#CED2F4"/>
</linearGradient>
<linearGradient id="paint7_linear_885_1963" x1="102.006" y1="81.035" x2="94.0113" y2="81.1573" gradientUnits="userSpaceOnUse">
<stop stop-color="#CED2F4"/>
<stop offset="1" stop-color="#BBBFE2"/>
</linearGradient>
<linearGradient id="paint8_linear_885_1963" x1="102.804" y1="74.6487" x2="108.481" y2="74.6487" gradientUnits="userSpaceOnUse">
<stop offset="0.4045" stop-color="#BBBFE2"/>
<stop offset="1" stop-color="#CED2F4"/>
</linearGradient>
<linearGradient id="paint9_linear_885_1963" x1="6.65801" y1="72.2147" x2="113.936" y2="72.2147" gradientUnits="userSpaceOnUse">
<stop offset="0.3219" stop-color="#BBC0E6"/>
<stop offset="0.3261" stop-color="#BBC0E6"/>
<stop offset="0.4582" stop-color="#CED3F8"/>
</linearGradient>
</defs>
</svg>
