<svg width="24" height="20" viewBox="0 0 24 20" fill="none" xmlns="http://www.w3.org/2000/svg">
<path d="M10 0.75C14.0041 0.75 17.25 3.99594 17.25 8C17.25 9.7319 16.6427 11.3219 15.6295 12.5688L20.5303 17.4697C20.8232 17.7626 20.8232 18.2374 20.5303 18.5303C20.2641 18.7966 19.8474 18.8208 19.5538 18.6029L19.4697 18.5303L14.5688 13.6295C13.3219 14.6427 11.7319 15.25 10 15.25C5.99594 15.25 2.75 12.0041 2.75 8C2.75 3.99594 5.99594 0.75 10 0.75ZM10 2.25C6.82436 2.25 4.25 4.82436 4.25 8C4.25 11.1756 6.82436 13.75 10 13.75C13.1756 13.75 15.75 11.1756 15.75 8C15.75 4.82436 13.1756 2.25 10 2.25Z" fill="#555555"/>
</svg>
