<svg width="24" height="24" viewBox="0 0 24 24" fill="none" xmlns="http://www.w3.org/2000/svg">
<path d="M15.5078 13.0015C15.6036 13.002 15.6967 13.0027 15.7872 13.0036L16.3005 13.0117L16.7583 13.0257L17.1667 13.0468C18.1309 13.1093 18.689 13.2489 19.2699 13.5449C20.2108 14.0243 20.9757 14.7892 21.4551 15.7301L21.5039 15.8281L21.5928 16.0215L21.6705 16.2155C21.6825 16.2482 21.6942 16.2811 21.7054 16.3143L21.7678 16.5185C21.7774 16.5535 21.7866 16.589 21.7954 16.6251L21.8441 16.8507C21.8516 16.8899 21.8586 16.9299 21.8654 16.9709L21.902 17.229L21.9315 17.5151L21.9546 17.8342L21.9721 18.1911L21.9892 18.8085L21.999 19.8109L22 21C22 21.5523 21.5523 22 21 22H3C2.44759 22 2 21.5521 2 20.9997L2.00038 19.7877L2.0036 19.2128L2.01165 18.6995L2.02567 18.2417L2.04677 17.8333C2.10933 16.8691 2.24894 16.311 2.54497 15.7301C3.02433 14.7892 3.78925 14.0243 4.73008 13.5449C5.34979 13.2292 5.9434 13.0914 7.0317 13.0353L7.46401 13.0178L7.9488 13.007L8.49218 13.0015H15.5078ZM15.4733 15.0013H8.52843L7.83083 15.0096L7.2575 15.0276L6.93561 15.0458L6.6559 15.0698L6.41315 15.0999L6.20213 15.1368C6.07086 15.1637 5.95727 15.1956 5.85439 15.233L5.70723 15.2934L5.63804 15.327C5.07356 15.6146 4.61461 16.0735 4.32698 16.638C4.30387 16.6834 4.28228 16.7301 4.26215 16.7791L4.20598 16.9337C4.17998 17.0152 4.15702 17.1037 4.13679 17.2021L4.09991 17.413L4.06977 17.6557L4.04585 17.9353L4.02041 18.4353L4.00587 19.0476L4 20H19.999L19.996 19.3632L19.9901 18.9152L19.975 18.3464L19.96 18.0282L19.9406 17.7528L19.9161 17.5146L19.8862 17.3084L19.8502 17.1288C19.8437 17.1008 19.837 17.0737 19.8299 17.0473L19.7841 16.8977L19.7311 16.7614L19.673 16.638C19.3854 16.0736 18.9264 15.6146 18.362 15.327C18.3166 15.3039 18.2699 15.2823 18.2209 15.2621L18.0664 15.206C17.9849 15.18 17.8964 15.157 17.7979 15.1368L17.587 15.0999L17.3443 15.0698L17.0648 15.0458L16.5649 15.0204L15.9526 15.0059L15.4733 15.0013ZM12 2C14.4853 2 16.5 4.01472 16.5 6.5C16.5 8.98528 14.4853 11 12 11C9.51472 11 7.5 8.98528 7.5 6.5C7.5 4.01472 9.51472 2 12 2ZM12 4C10.6193 4 9.5 5.11929 9.5 6.5C9.5 7.88072 10.6193 9 12 9C13.3807 9 14.5 7.88072 14.5 6.5C14.5 5.11929 13.3807 4 12 4Z" fill="white" fill-opacity="0.85"/>
</svg>
