<svg width="16" height="17" viewBox="0 0 16 17" fill="none" xmlns="http://www.w3.org/2000/svg">
<path d="M5.44806 2.34007C6.235 2.01375 7.09737 1.83398 8.00004 1.83398C10.1808 1.83398 12.1171 2.88111 13.3334 4.5V3.16732C13.3334 2.79913 13.6319 2.50065 14 2.50065C14.3682 2.50065 14.6667 2.79913 14.6667 3.16732V8.50065C14.6667 8.86884 14.3682 9.16732 14 9.16732C13.6319 9.16732 13.3334 8.86884 13.3334 8.50065C13.3334 5.55513 10.9456 3.16732 8.00004 3.16732C7.27569 3.16732 6.58666 3.31135 5.95877 3.57171C5.63438 3.70623 5.32598 3.87193 5.03733 4.06517C4.74641 4.25993 4.4756 4.48261 4.2288 4.72941C3.982 4.97621 3.75932 5.24702 3.56456 5.53794C3.35973 5.8439 2.94566 5.92589 2.6397 5.72106C2.33374 5.51624 2.25176 5.10217 2.45658 4.79621C2.69991 4.43274 2.97797 4.09463 3.286 3.78661C3.59402 3.47858 3.93213 3.20052 4.2956 2.95719C4.65626 2.71575 5.04195 2.50847 5.44806 2.34007Z" fill="#2E7FDF"/>
<path d="M2.00004 7.83398C2.36823 7.83398 2.66671 8.13246 2.66671 8.50065C2.66671 11.4462 5.05452 13.834 8.00004 13.834C8.72439 13.834 9.41342 13.6899 10.0413 13.4296C10.3657 13.2951 10.6741 13.1294 10.9627 12.9361C11.2537 12.7414 11.5245 12.5187 11.7713 12.2719C12.0181 12.0251 12.2408 11.7543 12.4355 11.4634C12.6403 11.1574 13.0544 11.0754 13.3604 11.2802C13.6663 11.4851 13.7483 11.8991 13.5435 12.2051C13.3002 12.5686 13.0221 12.9067 12.7141 13.2147C12.4061 13.5227 12.068 13.8008 11.7045 14.0441C11.3438 14.2856 10.9581 14.4928 10.552 14.6612C9.76508 14.9875 8.90271 15.1673 8.00004 15.1673C5.81924 15.1673 3.88301 14.1202 2.66671 12.5013V13.834C2.66671 14.2022 2.36823 14.5007 2.00004 14.5007C1.63185 14.5007 1.33337 14.2022 1.33337 13.834V8.50065C1.33337 8.13246 1.63185 7.83398 2.00004 7.83398Z" fill="#2E7FDF"/>
</svg>
