<?xml version="1.0" encoding="utf-8"?>
<!-- Generator: Adobe Illustrator 27.0.0, SVG Export Plug-In . SVG Version: 6.00 Build 0)  -->
<svg version="1.1" id="圖層_1" xmlns="http://www.w3.org/2000/svg" xmlns:xlink="http://www.w3.org/1999/xlink" x="0px" y="0px"
	 viewBox="0 0 24 24" style="enable-background:new 0 0 24 24;" xml:space="preserve">
<style type="text/css">
	.st0{opacity:0.85;fill:#FFFFFF;fill-opacity:0.85;}
</style>
<path class="st0" d="M15.5,13c0.1,0,0.2,0,0.3,0h0.5h0.5h0.4c1,0.1,1.5,0.2,2.1,0.5c0.9,0.5,1.7,1.2,2.2,2.2v0.1l0.1,0.2l0.1,0.2
	v0.1l0.1,0.2v0.1v0.2v0.1v0.3v0.3v0.3v0.4v0.6v1V21c0,0.6-0.4,1-1,1H3c-0.6,0-1-0.4-1-1v-1.2v-0.6v-0.5v-0.5v-0.4
	c0.1-1,0.2-1.5,0.5-2.1C3,14.8,3.8,14,4.7,13.5C5.3,13.2,5.9,13.1,7,13h0.4h0.5h0.5H15.5z M15.5,15h-7H7.8H7.2H6.9H6.6H6.4H6.2
	c-0.1,0-0.2,0.1-0.3,0.1l-0.1,0.1H5.7c-0.6,0.3-1,0.7-1.3,1.3c0,0,0,0.1-0.1,0.1l-0.1,0.2c0,0.1,0,0.2-0.1,0.3v0.2v0.2v0.3v0.5L4,19
	v1h16v-0.6V19v-0.6v-0.3v-0.3v-0.2v-0.2v-0.2v-0.1V17l-0.1-0.1l-0.1-0.1c-0.3-0.6-0.7-1-1.3-1.3c0,0-0.1,0-0.1-0.1l-0.2-0.1
	c-0.1,0-0.2,0-0.3-0.1h-0.2h-0.2h-0.3h-0.5L16,15H15.5z M12,2c2.5,0,4.5,2,4.5,4.5S14.5,11,12,11S7.5,9,7.5,6.5S9.5,2,12,2z M12,4
	c-1.4,0-2.5,1.1-2.5,2.5S10.6,9,12,9s2.5-1.1,2.5-2.5S13.4,4,12,4z"/>
</svg>
