<svg width="76" height="76" viewBox="0 0 76 76" fill="none" xmlns="http://www.w3.org/2000/svg">
<rect width="76" height="76" rx="38" fill="#85C600"/>
<path d="M38.887 21.7904L38.0001 22.9999C37.6075 22.4646 37.3887 22.1661 37.2668 21.9998C37.1132 21.7902 37.113 21.7904 37.113 21.7904C37.6409 21.4032 38.3591 21.4032 38.887 21.7904Z" fill="white"/>
<path fill-rule="evenodd" clip-rule="evenodd" d="M50.75 41.75C50.75 35.9802 47.6752 30.9547 44.7773 27.4772C43.312 25.7188 41.8501 24.306 40.7544 23.332C40.2055 22.8442 39.746 22.4642 39.4204 22.2037C39.2576 22.0734 39.128 21.9729 39.0373 21.9035C38.992 21.8689 38.9563 21.842 38.931 21.8231L38.901 21.8007L38.892 21.794L38.889 21.7918C38.889 21.7918 38.887 21.7904 38.0001 22.9999L37.113 21.7904L37.111 21.7918L37.108 21.794L37.099 21.8007L37.069 21.8231C37.0437 21.842 37.008 21.8689 36.9627 21.9035C36.872 21.9729 36.7424 22.0734 36.5796 22.2037C36.254 22.4642 35.7945 22.8442 35.2456 23.332C34.1499 24.306 32.688 25.7188 31.2227 27.4772C28.3248 30.9547 25.25 35.9802 25.25 41.75C25.25 48.7917 30.9583 54.5 38 54.5C44.1614 54.5 49.3021 50.1295 50.491 44.3196C50.6608 43.4896 50.75 42.6302 50.75 41.75ZM47.7025 40.6258C47.3421 36.3328 44.9823 32.4093 42.4727 29.3978C41.1255 27.7812 39.7749 26.4753 38.7613 25.5742C38.4778 25.3223 38.2215 25.1027 38 24.9176C37.7785 25.1027 37.5222 25.3223 37.2387 25.5742C36.2251 26.4753 34.8745 27.7812 33.5273 29.3978C31.1847 32.209 28.9726 35.8149 28.3954 39.7741C29.0056 39.6444 29.721 39.5154 30.5014 39.4178C32.8405 39.1255 36.0175 39.0817 38.6708 40.4084C40.5175 41.3317 42.9655 41.3755 45.1264 41.1053C46.147 40.9778 47.0472 40.7877 47.7025 40.6258Z" fill="white"/>
</svg>
