<?xml version="1.0" encoding="utf-8"?>
<!-- Generator: Adobe Illustrator 27.0.0, SVG Export Plug-In . SVG Version: 6.00 Build 0)  -->
<svg version="1.1" id="圖層_1" xmlns="http://www.w3.org/2000/svg" xmlns:xlink="http://www.w3.org/1999/xlink" x="0px" y="0px"
	 viewBox="0 0 12 36" style="enable-background:new 0 0 12 36;" xml:space="preserve">
<style type="text/css">
	.st0{fill:#D6E0F1;}
	.st1{fill:none;stroke:#D6E0F1;stroke-width:0.5;}
</style>
<g>
	<path class="st0" d="M5.7,0.63c0.16-0.18,0.44-0.18,0.6,0l3.12,3.56c0.23,0.26,0.04,0.66-0.3,0.66H2.88c-0.34,0-0.53-0.4-0.3-0.66
		L5.7,0.63z"/>
	<path class="st0" d="M6.3,11.37c-0.16,0.18-0.44,0.18-0.6,0L2.58,7.81c-0.23-0.26-0.04-0.66,0.3-0.66h6.24
		c0.34,0,0.53,0.4,0.3,0.66L6.3,11.37z"/>
</g>
<g>
	<path class="st0" d="M5.7,12.75c0.16-0.18,0.44-0.18,0.6,0l3.12,3.56c0.23,0.26,0.04,0.66-0.3,0.66H2.88c-0.34,0-0.53-0.4-0.3-0.66
		L5.7,12.75z"/>
	<path class="st1" d="M6.11,23.33c-0.06,0.07-0.17,0.07-0.23,0l-3.12-3.56c-0.08-0.1-0.02-0.25,0.11-0.25h6.24
		c0.13,0,0.2,0.15,0.11,0.25L6.11,23.33z"/>
</g>
<g>
	<path class="st1" d="M5.89,24.67c0.06-0.07,0.17-0.07,0.23,0l3.12,3.56c0.08,0.1,0.02,0.25-0.11,0.25H2.88
		c-0.13,0-0.2-0.15-0.11-0.25L5.89,24.67z"/>
	<path class="st0" d="M6.3,35.25c-0.16,0.18-0.44,0.18-0.6,0l-3.12-3.56c-0.23-0.26-0.04-0.66,0.3-0.66h6.24
		c0.34,0,0.53,0.4,0.3,0.66L6.3,35.25z"/>
</g>
</svg>
