<svg width="16" height="16" viewBox="0 0 16 16" fill="none" xmlns="http://www.w3.org/2000/svg">
<path fill-rule="evenodd" clip-rule="evenodd" d="M4.68834 1.16635C4.76492 0.8728 5.03004 0.667969 5.33342 0.667969H10.3334C10.5387 0.667969 10.7326 0.76255 10.8589 0.924361C10.9852 1.08617 11.03 1.29717 10.9802 1.49633L10.1873 4.66797H13.3334C13.5986 4.66797 13.8385 4.8251 13.9445 5.06816C14.0505 5.31121 14.0024 5.59397 13.822 5.78827L5.15528 15.1216C4.94943 15.3433 4.62012 15.3986 4.35316 15.2563C4.0862 15.114 3.94852 14.8098 4.01781 14.5153L5.15835 9.66797H3.33342C3.12694 9.66797 2.93211 9.57229 2.80586 9.40889C2.67962 9.24549 2.63622 9.03282 2.68834 8.83302L4.68834 1.16635ZM7.64685 3.82982C7.73615 3.47262 7.51897 3.11066 7.16178 3.02136C6.80458 2.93207 6.44262 3.14924 6.35332 3.50644L5.68666 6.1731C5.59736 6.5303 5.81453 6.89226 6.17173 6.98155C6.52893 7.07085 6.89088 6.85368 6.98018 6.49648L7.64685 3.82982Z" fill="#C0ED5F"/>
</svg>
