<svg width="24" height="24" viewBox="0 0 24 24" fill="none" xmlns="http://www.w3.org/2000/svg">
<path d="M2 4.5C2 3.11929 3.11929 2 4.5 2H19.5C20.8807 2 22 3.1193 22 4.5V12.125C22 12.6773 21.5523 13.125 21 13.125C20.4477 13.125 20 12.6773 20 12.125V4.5C20 4.22385 19.7762 4 19.5 4H4.5C4.22386 4 4 4.22386 4 4.5V19.5C4 19.7762 4.22385 20 4.5 20H9.875C10.4273 20 10.875 20.4477 10.875 21C10.875 21.5523 10.4273 22 9.875 22H4.5C3.1193 22 2 20.8807 2 19.5V4.5Z" fill="#8DD1FF"/>
<path d="M18.5858 16.7929L17.2929 15.5C16.9024 15.1095 16.9024 14.4763 17.2929 14.0858C17.6834 13.6953 18.3166 13.6953 18.7071 14.0858L21.7064 17.0851C21.7088 17.0875 21.7112 17.0899 21.7136 17.0923C21.8901 17.2721 21.9992 17.5183 22 17.7899L22 17.7929L22 17.7959C21.9996 17.9304 21.9727 18.0586 21.9241 18.1757C21.8753 18.2936 21.803 18.4041 21.7071 18.5L18.7071 21.5C18.3166 21.8905 17.6834 21.8905 17.2929 21.5C16.9024 21.1095 16.9024 20.4763 17.2929 20.0858L18.5858 18.7929H12C11.4477 18.7929 11 18.3452 11 17.7929C11 17.2406 11.4477 16.7929 12 16.7929H18.5858Z" fill="#8DD1FF"/>
</svg>
