<?xml version="1.0" encoding="UTF-8"?>
<svg id="_圖層_1" data-name="圖層 1" xmlns="http://www.w3.org/2000/svg" viewBox="0 0 16 48">
  <defs>
    <style>
      .cls-1 {
        fill: #c3d1ea;
      }

      .cls-2, .cls-3 {
        fill: #d6e0f1;
      }

      .cls-3 {
        fill-rule: evenodd;
      }
    </style>
  </defs>
  <path class="cls-3" d="M1.39,2.22c.11-.24,.35-.39,.61-.39H14c.26,0,.5,.15,.61,.39,.11,.24,.07,.51-.1,.71l-4.64,5.42v5.15c0,.23-.12,.44-.31,.57-.2,.12-.44,.13-.65,.03l-2.4-1.19c-.23-.11-.37-.34-.37-.6v-3.96L1.49,2.93c-.17-.2-.21-.48-.1-.71Zm2.05,.95l3.86,4.51c.1,.12,.16,.27,.16,.43v3.79l1.07,.53v-4.32c0-.16,.06-.31,.16-.43l3.86-4.51H3.45Z"/>
  <path class="cls-2" d="M2,17.83c-.26,0-.5,.15-.61,.39-.11,.24-.07,.51,.1,.71l4.64,5.42v3.96c0,.25,.14,.49,.37,.6l2.4,1.19c.21,.1,.45,.09,.65-.03,.2-.12,.31-.34,.31-.57v-5.15l4.64-5.42c.17-.2,.21-.48,.1-.71-.11-.24-.35-.39-.61-.39H2Z"/>
  <path class="cls-1" d="M2,33.83c-.26,0-.5,.15-.61,.39-.11,.24-.07,.51,.1,.71l4.64,5.42v3.96c0,.25,.14,.49,.37,.6l2.4,1.19c.21,.1,.45,.09,.65-.03,.2-.12,.31-.34,.31-.57v-5.15l4.64-5.42c.17-.2,.21-.48,.1-.71-.11-.24-.35-.39-.61-.39H2Z"/>
</svg>