<svg width="16" height="17" viewBox="0 0 16 17" fill="none" xmlns="http://www.w3.org/2000/svg">
<path fill-rule="evenodd" clip-rule="evenodd" d="M7.33049 4.11289V11.1673C7.33049 11.5355 7.62896 11.834 7.99715 11.834C8.36534 11.834 8.66382 11.5355 8.66382 11.1673V4.10736L10.5285 5.97206C10.7889 6.23241 11.211 6.23241 11.4713 5.97206C11.7317 5.71171 11.7317 5.2896 11.4713 5.02925L8.47132 2.02925C8.3408 1.89872 8.16961 1.83363 7.99854 1.83399C7.99808 1.83398 7.99761 1.83398 7.99715 1.83398C7.79463 1.83398 7.6132 1.92429 7.49093 2.06683L4.52851 5.02925C4.26816 5.2896 4.26816 5.71171 4.52851 5.97206C4.78886 6.23241 5.21097 6.23241 5.47132 5.97206L7.33049 4.11289ZM13.9999 7.83398C14.3681 7.83398 14.6666 8.13246 14.6666 8.50065V14.5007C14.6666 14.8688 14.3681 15.1673 13.9999 15.1673H1.99992C1.63173 15.1673 1.33325 14.8688 1.33325 14.5007V8.50342C1.33325 8.13523 1.63173 7.83675 1.99992 7.83675C2.36811 7.83675 2.66659 8.13523 2.66659 8.50342V13.834H13.3333V8.50065C13.3333 8.13246 13.6317 7.83398 13.9999 7.83398Z" fill="#2E7FDF"/>
</svg>
