<svg width="24" height="24" viewBox="0 0 24 24" fill="none" xmlns="http://www.w3.org/2000/svg">
<path d="M2 4.5C2 3.11929 3.11929 2 4.5 2H19.5C20.8807 2 22 3.1193 22 4.5V12.125C22 12.6773 21.5523 13.125 21 13.125C20.4477 13.125 20 12.6773 20 12.125V4.5C20 4.22385 19.7762 4 19.5 4H4.5C4.22386 4 4 4.22386 4 4.5V19.5C4 19.7762 4.22385 20 4.5 20H9.875C10.4273 20 10.875 20.4477 10.875 21C10.875 21.5523 10.4273 22 9.875 22H4.5C3.1193 22 2 20.8807 2 19.5V4.5Z" fill="#8DD1FF"/>
<path d="M14.4142 16.7929L15.7071 15.5C16.0976 15.1095 16.0976 14.4763 15.7071 14.0858C15.3166 13.6953 14.6834 13.6953 14.2929 14.0858L11.2936 17.0851C11.2912 17.0875 11.2888 17.0899 11.2864 17.0923C11.1099 17.2721 11.0008 17.5183 11 17.7899L11 17.7929L11 17.7959C11.0004 17.9304 11.0273 18.0586 11.0759 18.1757C11.1247 18.2936 11.197 18.4041 11.2929 18.5L14.2929 21.5C14.6834 21.8905 15.3166 21.8905 15.7071 21.5C16.0976 21.1095 16.0976 20.4763 15.7071 20.0858L14.4142 18.7929H21C21.5523 18.7929 22 18.3452 22 17.7929C22 17.2406 21.5523 16.7929 21 16.7929H14.4142Z" fill="#8DD1FF"/>
</svg>
