<svg width="16" height="17" viewBox="0 0 16 17" fill="none" xmlns="http://www.w3.org/2000/svg">
<path fill-rule="evenodd" clip-rule="evenodd" d="M1.33337 3.16732C1.33337 2.43094 1.93033 1.83398 2.66671 1.83398H7.33337C7.70156 1.83398 8.00004 2.13246 8.00004 2.50065C8.00004 2.86884 7.70156 3.16732 7.33337 3.16732H2.66671V13.834H13.3334V9.16732C13.3334 8.79913 13.6319 8.50065 14 8.50065C14.3682 8.50065 14.6667 8.79913 14.6667 9.16732V13.834C14.6667 14.5704 14.0698 15.1673 13.3334 15.1673H2.66671C1.93033 15.1673 1.33337 14.5704 1.33337 13.834V3.16732ZM11.5649 1.83398C11.7419 1.83395 11.9115 1.90423 12.0366 2.02935L14.4715 4.46538C14.7318 4.72571 14.7318 5.14766 14.4715 5.40799L7.57728 12.3053C7.45225 12.4304 7.28264 12.5007 7.10577 12.5007H4.66671C4.29852 12.5007 4.00004 12.2022 4.00004 11.834V9.40728C4.00004 9.23061 4.07017 9.06116 4.19502 8.93616L11.0934 2.02953C11.2184 1.90436 11.388 1.83402 11.5649 1.83398ZM11.5653 3.44385L5.33337 9.68319V11.1673H6.82955L13.0574 4.93669L11.5653 3.44385Z" fill="#2E7FDF"/>
</svg>
