<svg width="14" height="14" viewBox="0 0 14 14" fill="none" xmlns="http://www.w3.org/2000/svg">
<path d="M5.66665 2.33333H8.33331C8.33331 1.59695 7.73638 1 6.99998 1C6.26358 1 5.66665 1.59695 5.66665 2.33333ZM4.66665 2.33333C4.66665 1.04467 5.71131 0 6.99998 0C8.28865 0 9.33331 1.04467 9.33331 2.33333H13.1666C13.4428 2.33333 13.6666 2.55719 13.6666 2.83333C13.6666 3.10947 13.4428 3.33333 13.1666 3.33333H12.2872L11.5059 11.4075C11.3819 12.6889 10.305 13.6667 9.01751 13.6667H4.98244C3.69501 13.6667 2.61808 12.6889 2.49407 11.4075L1.7127 3.33333H0.833313C0.557173 3.33333 0.333313 3.10947 0.333313 2.83333C0.333313 2.55719 0.557173 2.33333 0.833313 2.33333H4.66665ZM5.99998 5.5C5.99998 5.22386 5.77611 5 5.49998 5C5.22384 5 4.99998 5.22386 4.99998 5.5V10.5C4.99998 10.7761 5.22384 11 5.49998 11C5.77611 11 5.99998 10.7761 5.99998 10.5V5.5ZM8.49998 5C8.77611 5 8.99998 5.22386 8.99998 5.5V10.5C8.99998 10.7761 8.77611 11 8.49998 11C8.22385 11 7.99998 10.7761 7.99998 10.5V5.5C7.99998 5.22386 8.22385 5 8.49998 5ZM3.48942 11.3111C3.56383 12.08 4.20998 12.6667 4.98244 12.6667H9.01751C9.78998 12.6667 10.4361 12.08 10.5105 11.3111L11.2826 3.33333H2.71737L3.48942 11.3111Z" fill="white"/>
</svg>
