<svg width="16" height="17" viewBox="0 0 16 17" fill="none" xmlns="http://www.w3.org/2000/svg">
<path d="M5.66666 7.16675C5.66666 6.79856 5.96513 6.50008 6.33332 6.50008H7.66666C8.03485 6.50008 8.33332 6.79856 8.33332 7.16675C8.33332 7.53494 8.03485 7.83342 7.66666 7.83342H6.33332C5.96513 7.83342 5.66666 7.53494 5.66666 7.16675Z" fill="#2E7FDF"/>
<path d="M6.33332 9.16675C5.96513 9.16675 5.66666 9.46523 5.66666 9.83342C5.66666 10.2016 5.96513 10.5001 6.33332 10.5001H10.3333C10.7015 10.5001 11 10.2016 11 9.83342C11 9.46523 10.7015 9.16675 10.3333 9.16675H6.33332Z" fill="#2E7FDF"/>
<path fill-rule="evenodd" clip-rule="evenodd" d="M3.66666 1.83341C3.66666 1.46522 3.96513 1.16675 4.33332 1.16675H9.99999C10.1954 1.16675 10.3712 1.25083 10.4931 1.38479L14.1567 5.38137C14.2663 5.50018 14.3333 5.65897 14.3333 5.83342V13.1667C14.3333 13.5349 14.0348 13.8334 13.6667 13.8334H4.33332C3.96513 13.8334 3.66666 13.5349 3.66666 13.1667V1.83341ZM4.99999 2.50008H9.33332V5.83342C9.33332 6.2016 9.6318 6.50008 9.99999 6.50008H13V12.5001H4.99999V2.50008ZM10.6667 3.54728L12.1512 5.16675H10.6667V3.54728Z" fill="#2E7FDF"/>
<path d="M2.99999 7.16675C2.99999 6.79856 2.70151 6.50008 2.33332 6.50008C1.96513 6.50008 1.66666 6.79856 1.66666 7.16675V15.1667C1.66666 15.5349 1.96513 15.8334 2.33332 15.8334H9.33332C9.70151 15.8334 9.99999 15.5349 9.99999 15.1667C9.99999 14.7986 9.70151 14.5001 9.33332 14.5001H2.99999V7.16675Z" fill="#2E7FDF"/>
</svg>
