<svg width="16" height="16" viewBox="0 0 16 16" fill="none" xmlns="http://www.w3.org/2000/svg">
<path fill-rule="evenodd" clip-rule="evenodd" d="M1.33325 2.66732C1.33325 1.93094 1.93021 1.33398 2.66659 1.33398H7.33325C7.70144 1.33398 7.99992 1.63246 7.99992 2.00065C7.99992 2.36884 7.70144 2.66732 7.33325 2.66732H2.66659V13.334H13.3333V8.66732C13.3333 8.29913 13.6317 8.00065 13.9999 8.00065C14.3681 8.00065 14.6666 8.29913 14.6666 8.66732V13.334C14.6666 14.0704 14.0696 14.6673 13.3333 14.6673H2.66659C1.93021 14.6673 1.33325 14.0704 1.33325 13.334V2.66732ZM11.5648 1.33398C11.7417 1.33395 11.9114 1.40423 12.0365 1.52935L14.4714 3.96538C14.7316 4.22571 14.7316 4.64766 14.4714 4.90799L7.57716 11.8053C7.45213 11.9304 7.28251 12.0007 7.10565 12.0007H4.66659C4.2984 12.0007 3.99992 11.7022 3.99992 11.334V8.90728C3.99992 8.73061 4.07005 8.56116 4.1949 8.43616L11.0933 1.52953C11.2183 1.40436 11.3879 1.33402 11.5648 1.33398ZM11.5651 2.94385L5.33325 9.18319V10.6673H6.82942L13.0573 4.43669L11.5651 2.94385Z" fill="white"/>
</svg>
