<svg width="16" height="17" viewBox="0 0 16 17" fill="none" xmlns="http://www.w3.org/2000/svg">
<g clip-path="url(#clip0_2073_17991)">
<path d="M12.96 9.16065L12.9533 9.17398C12.98 8.95398 13.0067 8.72732 13.0067 8.50065C13.0067 8.27398 12.9867 8.06065 12.96 7.84065L12.9667 7.85398L14.5933 6.57398L12.9733 3.76065L11.06 4.53398L11.0667 4.54065C10.72 4.27398 10.34 4.04732 9.92666 3.87398H9.93333L9.62666 1.83398H6.38L6.08666 3.88065H6.09333C5.68 4.05398 5.3 4.28065 4.95333 4.54732L4.96 4.54065L3.04 3.76065L1.41333 6.57398L3.04 7.85398L3.04666 7.84065C3.02 8.06065 3 8.27398 3 8.50065C3 8.72732 3.02 8.95398 3.05333 9.17398L3.04666 9.16065L1.64666 10.2607L1.42666 10.434L3.04666 13.234L4.96666 12.4673L4.95333 12.4406C5.30666 12.714 5.68666 12.9406 6.10666 13.114H6.08666L6.38666 15.1673H9.62C9.62 15.1673 9.64 15.0473 9.66 14.8873L9.91333 13.1207H9.90666C10.32 12.9473 10.7067 12.7207 11.06 12.4473L11.0467 12.474L12.9667 13.2407L14.5867 10.4406C14.5867 10.4406 14.4933 10.3607 14.3667 10.2673L12.96 9.16065ZM8 10.834C6.71333 10.834 5.66666 9.78732 5.66666 8.50065C5.66666 7.21398 6.71333 6.16732 8 6.16732C9.28666 6.16732 10.3333 7.21398 10.3333 8.50065C10.3333 9.78732 9.28666 10.834 8 10.834Z" fill="white"/>
</g>
<defs>
<clipPath id="clip0_2073_17991">
<rect width="16" height="16" fill="white" transform="translate(0 0.5)"/>
</clipPath>
</defs>
</svg>
