<?xml version="1.0" encoding="utf-8"?>
<!-- Generator: Adobe Illustrator 27.0.0, SVG Export Plug-In . SVG Version: 6.00 Build 0)  -->
<svg version="1.1" id="圖層_1" xmlns="http://www.w3.org/2000/svg" xmlns:xlink="http://www.w3.org/1999/xlink" x="0px" y="0px"
	 viewBox="0 0 32 32" style="enable-background:new 0 0 32 32;" xml:space="preserve">
<style type="text/css">
	.st0{fill:#212121;stroke:#000000;stroke-width:0.2;}
</style>
<path class="st0" d="M22.6,10.5L10.5,22.6c-0.3,0.3-0.7,0.3-1,0l-0.1-0.1c-0.3-0.3-0.3-0.7,0-1L21.5,9.4c0.3-0.3,0.7-0.3,1,0
	l0.1,0.1C22.8,9.8,22.8,10.2,22.6,10.5z"/>
<path class="st0" d="M21.5,22.6L9.4,10.5c-0.3-0.3-0.3-0.7,0-1l0.1-0.1c0.3-0.3,0.7-0.3,1,0l12.1,12.1c0.3,0.3,0.3,0.7,0,1l-0.1,0.1
	C22.2,22.8,21.8,22.8,21.5,22.6z"/>
</svg>
