<?xml version="1.0" encoding="UTF-8"?>
<svg id="_圖層_1" data-name="圖層 1" xmlns="http://www.w3.org/2000/svg" viewBox="0 0 300 75">
  <defs>
    <style>
      .cls-1 {
        fill: #006c92;
      }

      .cls-2 {
        fill: #8ed300;
      }
    </style>
  </defs>
  <path class="cls-1" d="M156.38,19.65l-21.35,37.65h-12.79l-2.34-22.39h-.14l-12.44,22.39h-12.97l-5.7-37.65h12.94l1.38,23.77h.15l12.97-23.77h13.01l2.11,23.49h.14l10.29-23.49h14.73Z"/>
  <path class="cls-1" d="M217.51,25.47c3.96-4.45,8.79-6.67,14.5-6.67,3.39,0,5.93,.88,7.63,2.62,1.7,1.74,2.55,3.88,2.55,6.41,0,1.51-.48,4.49-1.41,8.94l-4.35,20.55h-14.42l3.71-17.5c.9-4.28,1.34-6.73,1.34-7.35,0-2.08-.94-3.12-2.83-3.12-2.12,0-3.96,1-5.54,3s-2.76,4.88-3.57,8.64l-3.54,16.33h-14.49l8.06-37.65h13.47l-1.24,5.68,.14,.14Z"/>
  <path class="cls-1" d="M261.94,25.47c3.97-4.45,8.79-6.67,14.5-6.67,3.38,0,5.93,.88,7.64,2.62,1.69,1.74,2.54,3.88,2.54,6.41,0,1.51-.47,4.49-1.41,8.94l-4.34,20.55h-14.43l3.71-17.5c.91-4.28,1.34-6.73,1.34-7.35,0-2.08-.93-3.12-2.83-3.12-2.11,0-3.96,1-5.54,3-1.57,2-2.77,4.88-3.56,8.64l-3.53,16.33h-14.51l8.07-37.65h13.47l-1.25,5.68,.14,.14Z"/>
  <path class="cls-1" d="M67.73,19.65l-21.35,37.65h-12.8l-2.33-22.39h-.14l-12.45,22.39H5.69L0,19.65H12.93l1.38,23.77h.14l12.97-23.77h13.01l2.12,23.49h.14l10.29-23.49h14.74Z"/>
  <path class="cls-1" d="M79.39,15.7c-4.7,0-7.6-3.53-6.84-7.85,.78-4.46,4.89-7.85,9.59-7.85,4.3,0,7.36,3.4,6.58,7.85-.76,4.31-5.03,7.85-9.33,7.85Z"/>
  <path class="cls-2" d="M187.79,19.54l-12.33,21.82-2.12-21.7h-14.17l7.1,37.97-9.82,17.37h14.75l31.33-55.46h-14.74Z"/>
  <path class="cls-2" d="M77.93,57.25h-15.55l8.03-37.6h15.56l-8.03,37.6Z"/>
  <path class="cls-1" d="M293.18,.21c1.17,0,2.29,.3,3.37,.88,1.07,.59,1.92,1.43,2.53,2.53,.61,1.1,.92,2.24,.92,3.44s-.3,2.33-.9,3.41c-.6,1.08-1.44,1.93-2.52,2.53-1.08,.6-2.21,.91-3.4,.91s-2.32-.3-3.39-.91c-1.08-.6-1.92-1.45-2.52-2.53-.6-1.08-.9-2.22-.9-3.41s.31-2.34,.92-3.44c.61-1.1,1.46-1.94,2.53-2.53,1.07-.59,2.2-.88,3.36-.88Zm.01,1.34c-.94,0-1.84,.24-2.7,.71-.86,.47-1.54,1.15-2.03,2.03-.5,.88-.74,1.81-.74,2.77s.24,1.88,.73,2.75c.48,.87,1.16,1.55,2.03,2.04,.86,.49,1.77,.73,2.72,.73s1.87-.24,2.73-.73c.86-.49,1.54-1.17,2.02-2.04,.49-.87,.73-1.79,.73-2.75s-.25-1.89-.74-2.77c-.5-.88-1.17-1.56-2.04-2.03-.86-.47-1.77-.71-2.7-.71Zm-3.09,9.17V3.46h1.47c1.38,0,2.15,0,2.32,.02,.48,.04,.86,.14,1.13,.29,.27,.15,.5,.38,.68,.7,.18,.31,.27,.66,.27,1.04,0,.53-.17,.97-.51,1.35-.34,.37-.82,.6-1.44,.69,.22,.08,.39,.17,.51,.27,.12,.1,.28,.28,.49,.56,.05,.07,.23,.37,.54,.89l.85,1.46h-1.82l-.6-1.18c-.41-.79-.75-1.29-1.02-1.5-.27-.2-.61-.31-1.01-.31h-.39v2.99h-1.47Zm1.47-4.13h.6c.85,0,1.38-.03,1.58-.1,.21-.07,.37-.18,.49-.35,.12-.16,.18-.35,.18-.56s-.06-.38-.17-.54c-.11-.16-.28-.27-.49-.34-.21-.07-.74-.1-1.58-.1h-.6v1.98Z"/>
</svg>