<svg id="圖層_1" data-name="圖層 1" xmlns="http://www.w3.org/2000/svg" xmlns:xlink="http://www.w3.org/1999/xlink" viewBox="0 0 80 60"><defs><style>.cls-1{fill:none;}.cls-2{clip-path:url(#clip-path);}.cls-3{opacity:0.3;}.cls-4{fill:#7a81a5;}.cls-5{fill:url(#未命名漸層);}.cls-6{fill:#9ca5d3;}.cls-7{fill:url(#未命名漸層_2);}.cls-8{fill:url(#未命名漸層_3);}.cls-9{fill:#2e7fdf;}.cls-10{fill:#fff;}</style><clipPath id="clip-path"><rect class="cls-1" width="80" height="60"/></clipPath><linearGradient id="未命名漸層" x1="40.14" y1="6.01" x2="40.14" y2="54.5" gradientTransform="matrix(1, 0, 0, -1, 0, 62)" gradientUnits="userSpaceOnUse"><stop offset="0" stop-color="#bbc0e6"/><stop offset="1" stop-color="#e8eafb"/></linearGradient><linearGradient id="未命名漸層_2" x1="3.98" y1="6" x2="3.98" y2="54.5" gradientTransform="matrix(1, 0, 0, -1, 0, 62)" gradientUnits="userSpaceOnUse"><stop offset="0" stop-color="#d2d8ff"/><stop offset="1" stop-color="#e8eafb"/></linearGradient><linearGradient id="未命名漸層_3" x1="76.3" y1="6" x2="76.3" y2="54.5" xlink:href="#未命名漸層_2"/></defs><g class="cls-2"><g class="cls-3"><path class="cls-4" d="M7.06,56.08H5.58v2.27H7.06Z"/><path class="cls-4" d="M8.35,57.73H4.28V60H8.35Z"/><path class="cls-4" d="M73.71,56.08H72.23v2.27h1.48Z"/><path class="cls-4" d="M75,57.73H70.93V60H75Z"/><path class="cls-5" d="M77.78,9.46H2.5A2.13,2.13,0,0,0,.65,11.78V53.67A2.13,2.13,0,0,0,2.5,56H77.78a2.13,2.13,0,0,0,1.85-2.32V11.79a2.13,2.13,0,0,0-1.85-2.32ZM73.15,35.94h-67V14.11h67Z"/><path class="cls-6" d="M77.78,56.45H2.5A2.56,2.56,0,0,1,.28,53.66V11.79A2.56,2.56,0,0,1,2.5,9H77.78A2.56,2.56,0,0,1,80,11.79V53.67a2.56,2.56,0,0,1-2.22,2.79ZM2.5,9.93A1.7,1.7,0,0,0,1,11.79V53.67A1.71,1.71,0,0,0,2.5,55.53H77.78a1.7,1.7,0,0,0,1.48-1.86V11.79a1.71,1.71,0,0,0-1.48-1.86Zm71,26.48H5.76V13.65H73.52Zm-67-.93H72.78V14.57H6.5v20.9Z"/><path class="cls-6" d="M73.34,50.45H6V41.38H73.34ZM6.69,49.71H72.6V42.12H6.69Z"/><path class="cls-7" d="M5.65,9.46H7.31V56H5.65c-2.76,0-5,.51-5-5V14.46C.65,9.46,1.5,9.46,5.65,9.46Z"/><path class="cls-6" d="M7.69,56.45H2.5A2.56,2.56,0,0,1,.28,53.66V11.79A2.56,2.56,0,0,1,2.5,9H7.69ZM2.5,9.93A1.7,1.7,0,0,0,1,11.79V53.67A1.71,1.71,0,0,0,2.5,55.53H7V9.93Z"/><path class="cls-8" d="M73,9.46h1.66c2.76,0,5-.22,5,2.54V53c0,3.31-2.69,3-6,3H73Z"/><path class="cls-6" d="M77.78,56.45H72.6V9h5.18A2.56,2.56,0,0,1,80,11.79V53.67a2.56,2.56,0,0,1-2.22,2.79Zm-4.44-.93h4.44a1.7,1.7,0,0,0,1.48-1.86V11.79a1.71,1.71,0,0,0-1.48-1.86H73.34Z"/><path class="cls-4" d="M10.84,3.7H9.36V9.62h1.48Z"/><path class="cls-4" d="M11.39,1.3a1.3,1.3,0,1,0-2.59,0V2.59a1.3,1.3,0,1,0,2.59,0Z"/><path class="cls-6" d="M4.46,51.05h-1a1,1,0,0,1-1-1V41.32a1,1,0,0,1,1-1h1a1,1,0,0,1,1,1v8.73A1,1,0,0,1,4.46,51.05Zm-1-10a.26.26,0,0,0-.26.26v8.73a.26.26,0,0,0,.26.26h1a.26.26,0,0,0,.26-.26V41.32a.26.26,0,0,0-.26-.26Z"/><path class="cls-4" d="M3.8,39a.74.74,0,1,0-.74.74A.74.74,0,0,0,3.8,39Z"/><path class="cls-4" d="M5.65,39a.74.74,0,1,0-.74.74A.74.74,0,0,0,5.65,39Z"/><path class="cls-4" d="M75.74,26.58a.74.74,0,1,0-.74.74A.74.74,0,0,0,75.74,26.58Z"/><path class="cls-4" d="M77.59,26.58a.74.74,0,1,0-.74.74A.74.74,0,0,0,77.59,26.58Z"/><path class="cls-6" d="M76.11,37.32a2.22,2.22,0,1,1,2.22-2.22A2.23,2.23,0,0,1,76.11,37.32Zm0-3.7a1.48,1.48,0,1,0,1.48,1.48A1.48,1.48,0,0,0,76.11,33.62Z"/><path class="cls-4" d="M71.41,5.29H66.73A1.72,1.72,0,0,0,65,7v.43a1.73,1.73,0,0,0,1.73,1.73h4.68a1.73,1.73,0,0,0,1.73-1.73V7A1.72,1.72,0,0,0,71.41,5.29Z"/></g></g><path class="cls-9" d="M52,30.5a12,12,0,1,1-12-12A12,12,0,0,1,52,30.5Z"/><path class="cls-10" d="M45.1,31.4a.9.9,0,0,0,0-1.8H40.9V25.4a.9.9,0,0,0-1.8,0v4.2H34.9a.9.9,0,0,0,0,1.8h4.2v4.2a.9.9,0,0,0,1.8,0V31.4Z"/></svg>