<svg width="80" height="60" viewBox="0 0 80 60" fill="none" xmlns="http://www.w3.org/2000/svg">
<g clip-path="url(#clip0_1199_42061)">
<path d="M7.06008 56.0801H5.58008V58.3501H7.06008V56.0801Z" fill="#7A81A5"/>
<path d="M8.35003 57.7305H4.28003V60.0005H8.35003V57.7305Z" fill="#7A81A5"/>
<path d="M73.71 56.0801H72.23V58.3501H73.71V56.0801Z" fill="#7A81A5"/>
<path d="M74.9999 57.7305H70.9299V60.0005H74.9999V57.7305Z" fill="#7A81A5"/>
<path d="M77.7801 9.46094H2.50015C1.48015 9.46094 0.650146 10.5009 0.650146 11.7809V53.6709C0.650146 54.9509 1.48015 55.9909 2.50015 55.9909H77.7801C78.8001 55.9909 79.6301 54.9509 79.6301 53.6709V11.7909C79.6301 10.5109 78.8001 9.47094 77.7801 9.47094V9.46094ZM73.1501 35.9409H6.13015V14.1109H73.1501V35.9409Z" fill="url(#paint0_linear_1199_42061)"/>
<path d="M77.78 56.45H2.50003C1.28003 56.45 0.280029 55.2 0.280029 53.66V11.79C0.280029 10.25 1.28003 9 2.50003 9H77.78C79 9 80 10.25 80 11.79V53.67C80 55.21 79 56.46 77.78 56.46V56.45ZM2.50003 9.93C1.68003 9.93 1.02003 10.76 1.02003 11.79V53.67C1.02003 54.69 1.68003 55.53 2.50003 55.53H77.78C78.6 55.53 79.26 54.7 79.26 53.67V11.79C79.26 10.77 78.6 9.93 77.78 9.93H2.50003ZM73.52 36.41H5.76003V13.65H73.52V36.41ZM6.50003 35.48H72.78V14.57H6.50003V35.47V35.48Z" fill="#9CA5D3"/>
<path d="M73.34 50.4509H5.94995V41.3809H73.34V50.4509ZM6.68995 49.7109H72.6V42.1209H6.68995V49.7109Z" fill="#9CA5D3"/>
<path d="M5.65015 9.46094H7.31015V55.9909H5.65015C2.89015 55.9909 0.650146 56.5009 0.650146 51.0009V14.4609C0.650146 9.46094 1.50015 9.46094 5.65015 9.46094Z" fill="url(#paint1_linear_1199_42061)"/>
<path d="M7.69003 56.45H2.50003C1.28003 56.45 0.280029 55.2 0.280029 53.66V11.79C0.280029 10.25 1.28003 9 2.50003 9H7.69003V56.45ZM2.50003 9.93C1.68003 9.93 1.02003 10.76 1.02003 11.79V53.67C1.02003 54.69 1.68003 55.53 2.50003 55.53H6.95003V9.93H2.50003Z" fill="#9CA5D3"/>
<path d="M72.9702 9.45924H74.6302C77.3902 9.45924 79.6302 9.23924 79.6302 11.9992V52.9992C79.6302 56.3092 76.9402 55.9892 73.6302 55.9892H72.9702V9.45924Z" fill="url(#paint2_linear_1199_42061)"/>
<path d="M77.7801 56.45H72.6001V9H77.7801C79.0001 9 80.0001 10.25 80.0001 11.79V53.67C80.0001 55.21 79.0001 56.46 77.7801 56.46V56.45ZM73.3401 55.52H77.7801C78.6001 55.52 79.2601 54.69 79.2601 53.66V11.79C79.2601 10.77 78.6001 9.93 77.7801 9.93H73.3401V55.52Z" fill="#9CA5D3"/>
<path d="M10.8401 3.69922H9.36011V9.61922H10.8401V3.69922Z" fill="#7A81A5"/>
<path d="M11.39 1.3C11.39 0.58203 10.8103 0 10.095 0C9.37984 0 8.80005 0.58203 8.80005 1.3V2.59C8.80005 3.30797 9.37984 3.89 10.095 3.89C10.8103 3.89 11.39 3.30797 11.39 2.59V1.3Z" fill="#7A81A5"/>
<path d="M4.46001 51.0503H3.51001C2.96001 51.0503 2.51001 50.6003 2.51001 50.0503V41.3203C2.51001 40.7703 2.96001 40.3203 3.51001 40.3203H4.46001C5.01001 40.3203 5.46001 40.7703 5.46001 41.3203V50.0503C5.46001 50.6003 5.01001 51.0503 4.46001 51.0503ZM3.51001 41.0603C3.36001 41.0603 3.25001 41.1803 3.25001 41.3203V50.0503C3.25001 50.2003 3.37001 50.3103 3.51001 50.3103H4.46001C4.61001 50.3103 4.72001 50.1903 4.72001 50.0503V41.3203C4.72001 41.1703 4.60001 41.0603 4.46001 41.0603H3.51001Z" fill="#9CA5D3"/>
<path d="M3.80007 39.0193C3.80007 38.6106 3.46876 38.2793 3.06007 38.2793C2.65138 38.2793 2.32007 38.6106 2.32007 39.0193C2.32007 39.428 2.65138 39.7593 3.06007 39.7593C3.46876 39.7593 3.80007 39.428 3.80007 39.0193Z" fill="#7A81A5"/>
<path d="M5.64992 39.0193C5.64992 38.6106 5.31861 38.2793 4.90992 38.2793C4.50123 38.2793 4.16992 38.6106 4.16992 39.0193C4.16992 39.428 4.50123 39.7593 4.90992 39.7593C5.31861 39.7593 5.64992 39.428 5.64992 39.0193Z" fill="#7A81A5"/>
<path d="M75.74 26.5798C75.74 26.1712 75.4087 25.8398 75 25.8398C74.5913 25.8398 74.26 26.1712 74.26 26.5798C74.26 26.9885 74.5913 27.3198 75 27.3198C75.4087 27.3198 75.74 26.9885 75.74 26.5798Z" fill="#7A81A5"/>
<path d="M77.5901 26.5798C77.5901 26.1712 77.2588 25.8398 76.8501 25.8398C76.4414 25.8398 76.1101 26.1712 76.1101 26.5798C76.1101 26.9885 76.4414 27.3198 76.8501 27.3198C77.2588 27.3198 77.5901 26.9885 77.5901 26.5798Z" fill="#7A81A5"/>
<path d="M76.1099 37.3209C74.8899 37.3209 73.8899 36.3209 73.8899 35.1009C73.8899 33.8809 74.8899 32.8809 76.1099 32.8809C77.3299 32.8809 78.3299 33.8809 78.3299 35.1009C78.3299 36.3209 77.3299 37.3209 76.1099 37.3209ZM76.1099 33.6209C75.2899 33.6209 74.6299 34.2809 74.6299 35.1009C74.6299 35.9209 75.2899 36.5809 76.1099 36.5809C76.9299 36.5809 77.5899 35.9209 77.5899 35.1009C77.5899 34.2809 76.9299 33.6209 76.1099 33.6209Z" fill="#9CA5D3"/>
<path d="M71.41 5.28906H66.73C65.7746 5.28906 65 6.06361 65 7.01906V7.44906C65 8.40452 65.7746 9.17906 66.73 9.17906H71.41C72.3655 9.17906 73.14 8.40452 73.14 7.44906V7.01906C73.14 6.06361 72.3655 5.28906 71.41 5.28906Z" fill="#7A81A5"/>
<rect x="28" y="21" width="24" height="24" rx="12" fill="#29D20D"/>
<path fill-rule="evenodd" clip-rule="evenodd" d="M45.8336 29.1571C46.0562 29.3659 46.0554 29.7036 45.8317 29.9114L38.3674 36.8447C38.1444 37.0518 37.7841 37.0518 37.5612 36.8447L34.1683 33.6932C33.9446 33.4854 33.9438 33.1477 34.1664 32.9389C34.389 32.7302 34.7508 32.7293 34.9745 32.9371L37.9643 35.7142L45.0255 29.1553C45.2492 28.9475 45.611 28.9483 45.8336 29.1571Z" fill="white" stroke="white" stroke-width="0.7" stroke-linecap="round" stroke-linejoin="round"/>
</g>
<defs>
<linearGradient id="paint0_linear_1199_42061" x1="36.5825" y1="55.9925" x2="36.5825" y2="7.50563" gradientUnits="userSpaceOnUse">
<stop stop-color="#BBC0E6"/>
<stop offset="1" stop-color="#E8EAFB"/>
</linearGradient>
<linearGradient id="paint1_linear_1199_42061" x1="3.68015" y1="56.005" x2="3.68015" y2="7.5051" gradientUnits="userSpaceOnUse">
<stop stop-color="#D2D8FF"/>
<stop offset="1" stop-color="#E8EAFB"/>
</linearGradient>
<linearGradient id="paint2_linear_1199_42061" x1="76.0002" y1="55.9992" x2="76.0002" y2="7.49924" gradientUnits="userSpaceOnUse">
<stop stop-color="#D2D8FF"/>
<stop offset="1" stop-color="#E8EAFB"/>
</linearGradient>
<clipPath id="clip0_1199_42061">
<rect width="80" height="60" fill="white"/>
</clipPath>
</defs>
</svg>
