<svg width="80" height="60" viewBox="0 0 80 60" fill="none" xmlns="http://www.w3.org/2000/svg">
<g clip-path="url(#clip0_1394_15716)">
<path d="M7.05999 56.0801H5.57999V58.3501H7.05999V56.0801Z" fill="#7A81A5"/>
<path d="M8.35 57.7305H4.28V60.0005H8.35V57.7305Z" fill="#7A81A5"/>
<path d="M73.71 56.0801H72.23V58.3501H73.71V56.0801Z" fill="#7A81A5"/>
<path d="M75 57.7305H70.93V60.0005H75V57.7305Z" fill="#7A81A5"/>
<path d="M77.78 9.46094H2.49999C1.47999 9.46094 0.649994 10.5009 0.649994 11.7809V53.6709C0.649994 54.9509 1.47999 55.9909 2.49999 55.9909H77.78C78.8 55.9909 79.63 54.9509 79.63 53.6709V11.7909C79.63 10.5109 78.8 9.47094 77.78 9.47094V9.46094ZM73.15 35.9409H6.12999V14.1109H73.15V35.9409Z" fill="url(#paint0_linear_1394_15716)"/>
<path d="M77.78 56.45H2.5C1.28 56.45 0.279999 55.2 0.279999 53.66V11.79C0.279999 10.25 1.28 9 2.5 9H77.78C79 9 80 10.25 80 11.79V53.67C80 55.21 79 56.46 77.78 56.46V56.45ZM2.5 9.93C1.68 9.93 1.02 10.76 1.02 11.79V53.67C1.02 54.69 1.68 55.53 2.5 55.53H77.78C78.6 55.53 79.26 54.7 79.26 53.67V11.79C79.26 10.77 78.6 9.93 77.78 9.93H2.5ZM73.52 36.41H5.76V13.65H73.52V36.41ZM6.5 35.48H72.78V14.57H6.5V35.47V35.48Z" fill="#9CA5D3"/>
<path d="M73.34 50.4509H5.95001V41.3809H73.34V50.4509ZM6.69001 49.7109H72.6V42.1209H6.69001V49.7109Z" fill="#9CA5D3"/>
<path d="M5.64999 9.46094H7.30999V55.9909H5.64999C2.88999 55.9909 0.649994 56.5009 0.649994 51.0009V14.4609C0.649994 9.46094 1.5 9.46094 5.64999 9.46094Z" fill="url(#paint1_linear_1394_15716)"/>
<path d="M7.69 56.45H2.5C1.28 56.45 0.279999 55.2 0.279999 53.66V11.79C0.279999 10.25 1.28 9 2.5 9H7.69V56.45ZM2.5 9.93C1.68 9.93 1.02 10.76 1.02 11.79V53.67C1.02 54.69 1.68 55.53 2.5 55.53H6.95V9.93H2.5Z" fill="#9CA5D3"/>
<path d="M72.97 9.45924H74.63C77.39 9.45924 79.63 9.23924 79.63 11.9992V52.9992C79.63 56.3092 76.94 55.9892 73.63 55.9892H72.97V9.45924Z" fill="url(#paint2_linear_1394_15716)"/>
<path d="M77.78 56.45H72.6V9H77.78C79 9 80 10.25 80 11.79V53.67C80 55.21 79 56.46 77.78 56.46V56.45ZM73.34 55.52H77.78C78.6 55.52 79.26 54.69 79.26 53.66V11.79C79.26 10.77 78.6 9.93 77.78 9.93H73.34V55.52Z" fill="#9CA5D3"/>
<path d="M10.84 3.69922H9.35999V9.61922H10.84V3.69922Z" fill="#7A81A5"/>
<path d="M11.39 1.3C11.39 0.58203 10.8102 0 10.095 0C9.37978 0 8.79999 0.58203 8.79999 1.3V2.59C8.79999 3.30797 9.37978 3.89 10.095 3.89C10.8102 3.89 11.39 3.30797 11.39 2.59V1.3Z" fill="#7A81A5"/>
<path d="M4.46001 51.0503H3.51001C2.96001 51.0503 2.51001 50.6003 2.51001 50.0503V41.3203C2.51001 40.7703 2.96001 40.3203 3.51001 40.3203H4.46001C5.01001 40.3203 5.46001 40.7703 5.46001 41.3203V50.0503C5.46001 50.6003 5.01001 51.0503 4.46001 51.0503ZM3.51001 41.0603C3.36001 41.0603 3.25001 41.1803 3.25001 41.3203V50.0503C3.25001 50.2003 3.37001 50.3103 3.51001 50.3103H4.46001C4.61001 50.3103 4.72001 50.1903 4.72001 50.0503V41.3203C4.72001 41.1703 4.60001 41.0603 4.46001 41.0603H3.51001Z" fill="#9CA5D3"/>
<path d="M3.80001 39.0193C3.80001 38.6106 3.4687 38.2793 3.06001 38.2793C2.65132 38.2793 2.32001 38.6106 2.32001 39.0193C2.32001 39.428 2.65132 39.7593 3.06001 39.7593C3.4687 39.7593 3.80001 39.428 3.80001 39.0193Z" fill="#7A81A5"/>
<path d="M5.65001 39.0193C5.65001 38.6106 5.3187 38.2793 4.91001 38.2793C4.50132 38.2793 4.17001 38.6106 4.17001 39.0193C4.17001 39.428 4.50132 39.7593 4.91001 39.7593C5.3187 39.7593 5.65001 39.428 5.65001 39.0193Z" fill="#7A81A5"/>
<path d="M75.74 26.5798C75.74 26.1712 75.4087 25.8398 75 25.8398C74.5913 25.8398 74.26 26.1712 74.26 26.5798C74.26 26.9885 74.5913 27.3198 75 27.3198C75.4087 27.3198 75.74 26.9885 75.74 26.5798Z" fill="#7A81A5"/>
<path d="M77.59 26.5798C77.59 26.1712 77.2587 25.8398 76.85 25.8398C76.4413 25.8398 76.11 26.1712 76.11 26.5798C76.11 26.9885 76.4413 27.3198 76.85 27.3198C77.2587 27.3198 77.59 26.9885 77.59 26.5798Z" fill="#7A81A5"/>
<path d="M76.11 37.3209C74.89 37.3209 73.89 36.3209 73.89 35.1009C73.89 33.8809 74.89 32.8809 76.11 32.8809C77.33 32.8809 78.33 33.8809 78.33 35.1009C78.33 36.3209 77.33 37.3209 76.11 37.3209ZM76.11 33.6209C75.29 33.6209 74.63 34.2809 74.63 35.1009C74.63 35.9209 75.29 36.5809 76.11 36.5809C76.93 36.5809 77.59 35.9209 77.59 35.1009C77.59 34.2809 76.93 33.6209 76.11 33.6209Z" fill="#9CA5D3"/>
<path d="M71.41 5.28906H66.73C65.7746 5.28906 65 6.06361 65 7.01906V7.44906C65 8.40452 65.7746 9.17906 66.73 9.17906H71.41C72.3655 9.17906 73.14 8.40452 73.14 7.44906V7.01906C73.14 6.06361 72.3655 5.28906 71.41 5.28906Z" fill="#7A81A5"/>
<path d="M48.4853 24.5147C53.1715 29.201 53.1716 36.799 48.4853 41.4853C43.799 46.1716 36.201 46.1716 31.5147 41.4853C26.8284 36.799 26.8285 29.201 31.5147 24.5147C36.201 19.8284 43.799 19.8284 48.4853 24.5147Z" fill="#FA2E2E"/>
<path d="M44.2426 30.0302C44.5941 29.6787 44.5941 29.1088 44.2426 28.7574C43.8912 28.4059 43.3213 28.4059 42.9699 28.7574L40 31.7272L37.0301 28.7574C36.6787 28.4059 36.1088 28.4059 35.7574 28.7574C35.4059 29.1088 35.4059 29.6787 35.7574 30.0302L38.7272 33L35.7574 35.9699C35.4059 36.3213 35.4059 36.8912 35.7574 37.2427C36.1088 37.5941 36.6787 37.5941 37.0301 37.2427L40 34.2728L42.9699 37.2427C43.3213 37.5941 43.8912 37.5941 44.2426 37.2427C44.5941 36.8912 44.5941 36.3213 44.2426 35.9699L41.2728 33L44.2426 30.0302Z" fill="white"/>
</g>
<defs>
<linearGradient id="paint0_linear_1394_15716" x1="36.5823" y1="55.9925" x2="36.5823" y2="7.50563" gradientUnits="userSpaceOnUse">
<stop stop-color="#BBC0E6"/>
<stop offset="1" stop-color="#E8EAFB"/>
</linearGradient>
<linearGradient id="paint1_linear_1394_15716" x1="3.67999" y1="56.005" x2="3.68" y2="7.5051" gradientUnits="userSpaceOnUse">
<stop stop-color="#D2D8FF"/>
<stop offset="1" stop-color="#E8EAFB"/>
</linearGradient>
<linearGradient id="paint2_linear_1394_15716" x1="76" y1="55.9992" x2="76" y2="7.49924" gradientUnits="userSpaceOnUse">
<stop stop-color="#D2D8FF"/>
<stop offset="1" stop-color="#E8EAFB"/>
</linearGradient>
<clipPath id="clip0_1394_15716">
<rect width="80" height="60" fill="white"/>
</clipPath>
</defs>
</svg>
