<?xml version="1.0" encoding="UTF-8"?>
<svg width="32px" height="32px" viewBox="0 0 32 32" version="1.1" xmlns="http://www.w3.org/2000/svg" xmlns:xlink="http://www.w3.org/1999/xlink">
    <title>icon_withdraw</title>
    <g id="页面-1" stroke="none" stroke-width="1" fill="none" fill-rule="evenodd">
        <g id="功能選單" transform="translate(-68.000000, -288.000000)">
            <g id="编组" transform="translate(36.000000, 259.000000)">
                <g id="icon_withdraw" transform="translate(32.000000, 29.000000)">
                    <rect id="矩形" fill="#D8D8D8" opacity="0" x="0" y="0" width="32" height="32"></rect>
                    <g id="编组-2" transform="translate(0.000000, 1.333333)">
                        <path d="M6.6991121,0 C6.87514013,0 7.0401396,0.033572459 7.20513998,0.111908197 C7.20513998,0.111908197 7.20513998,0.111908197 31.3291051,11.7394177 C31.6151325,11.8736984 31.8241397,12.1198964 31.9341363,12.4108944 C32.0331468,12.7130282 32.0221517,13.037562 31.8901286,13.31736 C31.8901286,13.31736 31.8901286,13.31736 31.7361243,13.6306938 C31.7361243,13.6530938 31.7361243,13.6642662 31.7361243,13.6754662 C31.7361243,13.6754662 31.7361243,13.6754662 31.714134,13.7761744 C31.714134,13.7761744 31.714134,13.7761744 31.714134,26.8137731 C31.714134,27.4740449 31.1860869,28 30.5480793,28 C30.5480793,28 30.5480793,28 3.8500041,28 C3.20099773,28 2.6839422,27.4740449 2.6839422,26.8137731 C2.6839422,26.8137731 2.6839422,26.8137731 2.6839422,20.8824854 C2.6839422,20.8824854 2.6839422,20.8824854 1.23188813,20.5020131 C0.934902619,20.42367 0.681889129,20.233416 0.516889473,19.9648189 C0.36288271,19.6962585 0.318875658,19.3717229 0.39586112,19.0583542 C0.39586112,19.0583542 0.39586112,19.0583542 1.52890886,14.5819318 C1.52890886,14.5819318 1.52890886,14.5819318 0.659867684,14.1566807 C0.384868317,14.0224 0.164868805,13.7873744 0.0658618705,13.4852131 C-0.0331450639,13.1942426 -0.0221522514,12.8697089 0.10986895,12.5787475 C0.10986895,12.5787475 0.10986895,12.5787475 5.65407901,0.68264 C5.85209282,0.246188852 6.27010534,0 6.6991121,0 Z" id="Fill-1" fill="#04127C"></path>
                        <path d="M21.3201058,22.1269082 C21.3201058,22.1269082 21.3201058,22.1269082 30.6984457,22.1269082 C30.6984457,22.1269082 30.6984457,22.1269082 30.6984457,23.8852797 C29.2751514,24.0744771 28.1607685,25.1984889 27.973201,26.6229508 C27.973201,26.6229508 27.973201,26.6229508 17.8667078,26.6229508 C19.4886008,26.2890797 20.8236269,24.508501 21.3201058,22.1269082 Z M3.91448641,22.1269082 C3.91448641,22.1269082 3.91448641,22.1269082 13.2928244,22.1269082 C13.7893033,24.508501 15.1243295,26.2890797 16.7462225,26.6229508 C16.7462225,26.6229508 16.7462225,26.6229508 6.67281491,26.6229508 C6.48525191,25.1873477 5.34881283,24.0521974 3.91448641,23.8852797 C3.91448641,23.8852797 3.91448641,23.8852797 3.91448641,22.1269082 Z M21.4785696,20.9486498 C21.4785696,20.9486498 21.4785696,20.9486498 30.6984457,20.9486498 C30.6984457,20.9486498 30.6984457,20.9486498 30.6984457,21.5377974 C30.6984457,21.5377974 30.6984457,21.5377974 21.4123279,21.5377974 C21.4343814,21.3488185 21.45648,21.1487332 21.4785696,20.9486498 Z M3.91448641,20.9486498 C3.91448641,20.9486498 3.91448641,20.9486498 13.1343607,20.9486498 C13.1564503,21.1487332 13.1785489,21.3488185 13.2006385,21.5377974 C13.2006385,21.5377974 13.2006385,21.5377974 3.91448641,21.5377974 C3.91448641,21.5377974 3.91448641,21.5377974 3.91448641,20.9486498 Z M21.5197427,19.7703924 C21.5197427,19.7703924 21.5197427,19.7703924 30.6984457,19.7703924 C30.6984457,19.7703924 30.6984457,19.7703924 30.6984457,20.3595032 C30.6984457,20.3595032 30.6984457,20.3595032 21.5197427,20.3595032 C21.5197427,20.2705642 21.5197427,20.1705225 21.5197427,20.081622 C21.5197427,19.9704749 21.5197427,19.8704341 21.5197427,19.7703924 Z M3.91448641,19.7703924 C3.91448641,19.7703924 3.91448641,19.7703924 13.0931875,19.7703924 C13.0931875,19.8704341 13.0821653,19.9704749 13.0821653,20.081622 C13.0821653,20.1705225 13.0931875,20.2705642 13.0931875,20.3595032 C13.0931875,20.3595032 13.0931875,20.3595032 3.91448641,20.3595032 C3.91448641,20.3595032 3.91448641,20.3595032 3.91448641,19.7703924 Z M21.3969545,18.592101 C21.3969545,18.592101 21.3969545,18.592101 30.6984457,18.592101 C30.6984457,18.592101 30.6984457,18.592101 30.6984457,19.1812439 C30.6984457,19.1812439 30.6984457,19.1812439 21.4632324,19.1812439 C21.4522011,18.9811605 21.4301115,18.781078 21.3969545,18.592101 Z M3.91448641,18.592101 C3.91448641,18.592101 3.91448641,18.592101 13.2006385,18.592101 C13.1675538,18.781078 13.1454642,18.9811605 13.1234377,19.1812439 C13.1234377,19.1812439 13.1234377,19.1812439 3.91448641,19.1812439 C3.91448641,19.1812439 3.91448641,19.1812439 3.91448641,18.592101 Z M2.70332364,14.840257 C2.70332364,14.840257 2.70332364,14.840257 2.74797767,14.8513928 L2.74797767,16.7937023 C2.59170571,16.7044052 2.43543374,16.6262348 2.25681671,16.5592918 C2.25681671,16.5592918 2.25681671,16.5592918 2.70332364,14.840257 Z M17.8667078,13.5379357 C17.8667078,13.5379357 17.8667078,13.5379357 28.0835317,13.5379357 C28.2711263,14.9297744 29.3302897,16.0432564 30.6984457,16.2659528 C30.6984457,16.2659528 30.6984457,16.2659528 30.6984457,18.0029443 C30.6984457,18.0029443 30.6984457,18.0029443 21.3090746,18.0029443 C20.8126047,15.6424066 19.4886008,13.8719895 17.8667078,13.5379357 Z M6.56248968,13.5379357 C6.56248968,13.5379357 6.56248968,13.5379357 16.7462225,13.5379357 C15.1243295,13.8719895 13.8003346,15.6424066 13.3038557,18.0029443 C13.3038557,18.0029443 13.3038557,18.0029443 3.91448641,18.0029443 C3.91448641,18.0029443 3.91448641,18.0029443 3.91448641,16.2659528 C5.30469772,16.0544013 6.38595613,14.9409102 6.56248968,13.5379357 Z M3.57683057,11.4294348 L7.12244706,12.3596682 L4.78939437,12.3596682 L3.42332545,12.0030859 L3.57683057,11.4294348 Z M18.1890246,9.98762754 C18.1890246,9.98762754 18.1890246,9.98762754 27.2295659,12.3596682 C27.2295659,12.3596682 27.2295659,12.3596682 20.13179,12.3596682 C19.7454612,11.240779 19.0721211,10.3792328 18.1890246,9.98762754 Z M2.87076859,9.47598951 L2.56936064,10.6387882 C2.50239764,10.5834125 2.44657062,10.5391082 2.37960672,10.4948039 C2.37960672,10.4948039 2.37960672,10.4948039 2.87076859,9.47598951 Z M7.38785808,7.19697311 C7.38785808,7.19697311 7.38785808,7.19697311 17.2373844,9.75608131 C15.8255817,9.68931279 14.3586319,10.7018203 13.2997935,12.3596682 L9.47245196,12.3596682 C9.47245196,12.3596682 9.47245196,12.3596682 3.71496144,10.8575921 C3.71496144,10.8575921 3.71496144,10.8575921 4.14512278,9.18863607 C5.53486648,9.32212721 6.85843707,8.52103344 7.38785808,7.19697311 Z M19.2481157,7.08844328 C19.2481157,7.08844328 19.2481157,7.08844328 28.2732838,11.398442 C28.2732838,11.398442 28.2732838,11.398442 20.6620759,9.4271777 C20.4522021,8.41373377 19.9771719,7.58959738 19.2481157,7.08844328 Z M9.17629605,2.28233049 C9.17629605,2.28233049 9.17629605,2.28233049 18.3732159,6.67397902 C17.2139226,6.38491803 15.8669625,6.85189377 14.6635261,7.86363016 L5.56601309,5.5065718 C5.56601309,5.5065718 5.56601309,5.5065718 4.88146928,5.17305967 C4.88146928,5.17305967 4.88146928,5.17305967 5.61016431,3.6053718 C6.9571217,4.01675148 8.4034471,3.47194492 9.17629605,2.28233049 Z" id="Fill-2" fill="#FFFFFF"></path>
                        <path d="M17.6978898,21.3507491 C17.6978898,22.0000278 17.6978898,22.6493056 17.6978898,23.2985843 C18.5364099,23.1771607 18.95567,22.8786614 18.95567,22.4030864 C18.95567,22.0050862 18.5364099,21.6543077 17.6978898,21.3507491 Z M16.787838,17.9306584 C16.4179026,17.9812511 16.1244187,18.0891843 15.9073864,18.2544485 C15.6903631,18.419722 15.5818469,18.6204039 15.5818469,18.8565082 C15.5818469,19.106102 15.6706296,19.3101605 15.848204,19.4686855 C16.0257693,19.6272105 16.3389867,19.7874219 16.787838,19.9493197 C16.787838,19.2764311 16.787838,18.6035397 16.787838,17.9306584 Z M16.787838,16.0840079 C17.0911886,16.0840079 17.3945392,16.0840079 17.6978898,16.0840079 C17.6978898,16.380817 17.6978898,16.6776354 17.6978898,16.9744446 C18.7337088,16.994678 19.4489262,17.0891252 19.8435239,17.2577679 C19.8435239,17.6186649 19.8435239,17.979562 19.8435239,18.340459 C19.3058809,18.0706308 18.5906725,17.9256 17.6978898,17.9053574 C17.6978898,18.6828026 17.6978898,19.4602534 17.6978898,20.2377014 C18.7830335,20.5817332 19.5253777,20.9156484 19.9249133,21.239445 C20.3244399,21.5632397 20.5242122,21.929197 20.5242122,22.337314 C20.5242122,22.833127 20.2751152,23.2479906 19.7769301,23.5819048 C19.2787541,23.9158199 18.5857347,24.1283106 17.6978898,24.2193785 C17.6978898,24.5853348 17.6978898,24.9512911 17.6978898,25.3172475 C17.3945392,25.3172475 17.0911886,25.3172475 16.787838,25.3172475 C16.787838,24.9647826 16.787838,24.6123176 16.787838,24.2598527 C15.6928275,24.2598527 14.8025092,24.1148182 14.116892,23.824752 C14.116892,23.4486771 14.116892,23.0726013 14.116892,22.6965255 C14.4177782,22.8752876 14.8259348,23.0253814 15.3413889,23.1468041 C15.856834,23.2682277 16.3389867,23.3289399 16.787838,23.3289399 C16.787838,22.5784757 16.787838,21.8280105 16.787838,21.0775462 C15.6237693,20.7099026 14.8703307,20.37093 14.5275221,20.0606248 C14.1847135,19.7503205 14.0133137,19.3826769 14.0133137,18.9576947 C14.0133137,18.4551397 14.2747329,18.0208826 14.7975803,17.654918 C15.3204187,17.2889626 15.9838469,17.0688826 16.787838,16.994678 C16.787838,16.6911213 16.787838,16.3875646 16.787838,16.0840079 Z" id="Fill-3" fill="#FFFFFF"></path>
                    </g>
                </g>
            </g>
        </g>
    </g>
</svg>