<?xml version="1.0" encoding="UTF-8"?>
<svg width="226px" height="290px" viewBox="0 0 226 290" version="1.1" xmlns="http://www.w3.org/2000/svg" xmlns:xlink="http://www.w3.org/1999/xlink">
    <title>icon_qrcode</title>
    <defs>
        <rect id="path-1" x="34" y="24" width="167.845304" height="112.644628" rx="2.4"></rect>
        <filter x="-0.6%" y="-0.9%" width="101.2%" height="101.8%" filterUnits="objectBoundingBox" id="filter-2">
            <feOffset dx="0" dy="2" in="SourceAlpha" result="shadowOffsetInner1"></feOffset>
            <feComposite in="shadowOffsetInner1" in2="SourceAlpha" operator="arithmetic" k2="-1" k3="1" result="shadowInnerInner1"></feComposite>
            <feColorMatrix values="0 0 0 0 0   0 0 0 0 0   0 0 0 0 0  0 0 0 0.5 0" type="matrix" in="shadowInnerInner1" result="shadowMatrixInner1"></feColorMatrix>
            <feOffset dx="0" dy="-2" in="SourceAlpha" result="shadowOffsetInner2"></feOffset>
            <feComposite in="shadowOffsetInner2" in2="SourceAlpha" operator="arithmetic" k2="-1" k3="1" result="shadowInnerInner2"></feComposite>
            <feColorMatrix values="0 0 0 0 0   0 0 0 0 0   0 0 0 0 0  0 0 0 0.5 0" type="matrix" in="shadowInnerInner2" result="shadowMatrixInner2"></feColorMatrix>
            <feOffset dx="2" dy="0" in="SourceAlpha" result="shadowOffsetInner3"></feOffset>
            <feComposite in="shadowOffsetInner3" in2="SourceAlpha" operator="arithmetic" k2="-1" k3="1" result="shadowInnerInner3"></feComposite>
            <feColorMatrix values="0 0 0 0 0   0 0 0 0 0   0 0 0 0 0  0 0 0 0.5 0" type="matrix" in="shadowInnerInner3" result="shadowMatrixInner3"></feColorMatrix>
            <feOffset dx="-2" dy="0" in="SourceAlpha" result="shadowOffsetInner4"></feOffset>
            <feComposite in="shadowOffsetInner4" in2="SourceAlpha" operator="arithmetic" k2="-1" k3="1" result="shadowInnerInner4"></feComposite>
            <feColorMatrix values="0 0 0 0 0   0 0 0 0 0   0 0 0 0 0  0 0 0 0.5 0" type="matrix" in="shadowInnerInner4" result="shadowMatrixInner4"></feColorMatrix>
            <feMerge>
                <feMergeNode in="shadowMatrixInner1"></feMergeNode>
                <feMergeNode in="shadowMatrixInner2"></feMergeNode>
                <feMergeNode in="shadowMatrixInner3"></feMergeNode>
                <feMergeNode in="shadowMatrixInner4"></feMergeNode>
            </feMerge>
        </filter>
        <rect id="path-3" x="73" y="199" width="91.1160221" height="26.3636364" rx="2.4"></rect>
        <filter x="-2.2%" y="-7.6%" width="104.4%" height="115.2%" filterUnits="objectBoundingBox" id="filter-4">
            <feOffset dx="0" dy="4" in="SourceAlpha" result="shadowOffsetInner1"></feOffset>
            <feComposite in="shadowOffsetInner1" in2="SourceAlpha" operator="arithmetic" k2="-1" k3="1" result="shadowInnerInner1"></feComposite>
            <feColorMatrix values="0 0 0 0 0.654685611   0 0 0 0 0.681788735   0 0 0 0 0.717926233  0 0 0 1 0" type="matrix" in="shadowInnerInner1"></feColorMatrix>
        </filter>
        <path d="M28.1823204,234 L207.81768,234 L223.788368,283.732382 C224.598912,286.256395 223.209869,288.959588 220.685855,289.770131 C220.211542,289.922448 219.716408,290 219.218237,290 L16.6051545,290 C13.9541876,290 11.8051543,287.850967 11.8051543,285.2 C11.8051543,284.696652 11.8843261,284.196436 12.0397673,283.71769 L28.1823204,234 L28.1823204,234 Z" id="path-5"></path>
        <filter x="-0.5%" y="-1.8%" width="100.9%" height="103.6%" filterUnits="objectBoundingBox" id="filter-6">
            <feOffset dx="0" dy="-2" in="SourceAlpha" result="shadowOffsetInner1"></feOffset>
            <feComposite in="shadowOffsetInner1" in2="SourceAlpha" operator="arithmetic" k2="-1" k3="1" result="shadowInnerInner1"></feComposite>
            <feColorMatrix values="0 0 0 0 0   0 0 0 0 0   0 0 0 0 0  0 0 0 1 0" type="matrix" in="shadowInnerInner1"></feColorMatrix>
        </filter>
        <path d="M17.9124274,18 L100.944126,18 C102.609626,18 104.057693,19.1424418 104.445285,20.7622142 L118.754715,80.5622142 C119.217412,82.495851 118.024979,84.4384628 116.091342,84.9011591 C115.816919,84.9668253 115.535727,85 115.253556,85 L3.60299717,85 C1.61477207,85 0.00299717405,83.3882251 0.00299717405,81.4 C0.00299717405,81.1178295 0.0361718584,80.8366375 0.101838091,80.5622142 L14.4112684,20.7622142 C14.7988607,19.1424418 16.2469274,18 17.9124274,18 Z" id="path-7"></path>
        <filter x="-9.3%" y="-16.4%" width="118.5%" height="165.7%" filterUnits="objectBoundingBox" id="filter-8">
            <feOffset dx="0" dy="22" in="SourceAlpha" result="shadowOffsetOuter1"></feOffset>
            <feColorMatrix values="0 0 0 0 0   0 0 0 0 0   0 0 0 0 0  0 0 0 0.1 0" type="matrix" in="shadowOffsetOuter1"></feColorMatrix>
        </filter>
        <filter x="-0.4%" y="-0.7%" width="100.8%" height="134.3%" filterUnits="objectBoundingBox" id="filter-9">
            <feOffset dx="0" dy="-1" in="SourceAlpha" result="shadowOffsetInner1"></feOffset>
            <feComposite in="shadowOffsetInner1" in2="SourceAlpha" operator="arithmetic" k2="-1" k3="1" result="shadowInnerInner1"></feComposite>
            <feColorMatrix values="0 0 0 0 0   0 0 0 0 0   0 0 0 0 0  0 0 0 0.5 0" type="matrix" in="shadowInnerInner1"></feColorMatrix>
        </filter>
        <linearGradient x1="50%" y1="100%" x2="50%" y2="2.07279624%" id="linearGradient-10">
            <stop stop-color="#FFFFFF" stop-opacity="0" offset="0%"></stop>
            <stop stop-color="#FF1F3B" stop-opacity="0.7" offset="96.5092124%"></stop>
        </linearGradient>
    </defs>
    <g id="页面-1" stroke="none" stroke-width="1" fill="none" fill-rule="evenodd">
        <g id="設定完成qrcode" transform="translate(-62.000000, -169.000000)">
            <g id="icon_qrcode" transform="translate(62.000000, 169.000000)">
                <rect id="Rectangle-6" fill="#1B7C18" x="33" y="27" width="170.243094" height="110.247934"></rect>
                <rect id="Rectangle-2" fill="#696F7A" x="10" y="0" width="215.801105" height="254" rx="6"></rect>
                <path d="M219.801105,0 C223.114813,1.49952819e-14 225.801105,2.6862915 225.801105,6 L225.801105,284 C225.801105,287.313708 223.114813,290 219.801105,290 L214.817,290 L214.81768,13.3752067 C214.81768,12.1049517 213.83084,11.0651854 212.581998,10.9807435 L212.417679,10.9752066 L23.3834255,10.9752066 C22.0579421,10.9752066 20.9834254,12.0497233 20.9834254,13.3752067 L20.983,290 L16,290 C12.6862915,290 10,287.313708 10,284 L10,6 C10,2.6862915 12.6862915,-4.72035214e-15 16,0 L219.801105,0 Z" id="Combined-Shape" fill="#A5A6A6"></path>
                <g id="Rectangle-2-Copy">
                    <use fill="#49505B" fill-rule="evenodd" xlink:href="#path-1"></use>
                    <use fill="black" fill-opacity="1" filter="url(#filter-2)" xlink:href="#path-1"></use>
                </g>
                <g id="Rectangle-2-Copy-2">
                    <use fill="#DDE2EA" fill-rule="evenodd" xlink:href="#path-3"></use>
                    <use fill="black" fill-opacity="1" filter="url(#filter-4)" xlink:href="#path-3"></use>
                </g>
                <rect id="Rectangle-2-Copy-3" fill="#27B323" x="158" y="141.578512" width="38.3646409" height="21" rx="1.20000005"></rect>
                <rect id="Rectangle-8-Copy" fill="#989898" x="35" y="142" width="48" height="12" rx="1.20000005"></rect>
                <rect id="Rectangle" fill="#494949" x="37" y="146" width="44" height="4.79338843" rx="1.2"></rect>
                <g id="Rectangle-15">
                    <use fill="#606060" fill-rule="evenodd" xlink:href="#path-5"></use>
                    <use fill="black" fill-opacity="1" filter="url(#filter-6)" xlink:href="#path-5"></use>
                </g>
                <rect id="Rectangle-8-Copy-2" fill="#49505B" x="164" y="149" width="26.3756906" height="4.79338843" rx="1.2"></rect>
                <path d="M39.9327777,240 L94.6115806,240 C96.9658412,240 98.9726142,241.70744 99.3496313,244.031316 L104.985533,278.770159 C105.410065,281.386912 103.632919,283.852361 101.016166,284.276894 C100.762014,284.318126 100.504957,284.338843 100.247482,284.338843 L29.5959628,284.338843 C26.944996,284.338843 24.7959628,282.18981 24.7959628,279.538843 C24.7959628,279.075291 24.863111,278.614184 24.9953158,278.169884 L35.3321308,243.431041 C35.9378096,241.395542 37.8090768,240 39.9327777,240 Z" id="Rectangle-5" fill="#FFFFFF"></path>
                <path d="M48.0684677,243 L55.2040564,243 C56.3269279,243 57.1844374,243.947809 57.1193575,245.116991 L56.9290382,248.536139 C56.8639583,249.705321 55.8593937,250.65313 54.6852804,250.65313 L47.2240615,250.65313 C46.0499482,250.65313 45.2142082,249.705321 45.3573839,248.536139 L45.7760863,245.116991 C45.9192621,243.947809 46.9455962,243 48.0684677,243 Z M63.0042891,243 L70.1398778,243 C71.2627493,243 72.2046711,243.947809 72.243719,245.116991 L72.3579106,248.536139 C72.3969585,249.705321 71.4768062,250.65313 70.3026928,250.65313 L62.841474,250.65313 C61.6673607,250.65313 60.7472084,249.705321 60.7862563,248.536139 L60.9004479,245.116991 C60.9394958,243.947809 61.8814176,243 63.0042891,243 Z M47.01296,252.566412 L54.5555864,252.566412 C55.7425102,252.566412 56.6519443,253.514221 56.5868644,254.683403 L56.3965452,258.102551 C56.3314653,259.271733 55.274976,260.219542 54.0368103,260.219542 L46.1685538,260.219542 C44.9303882,260.219542 44.0427235,259.271733 44.1858993,258.102551 L44.6046017,254.683403 C44.7477774,253.514221 45.8260362,252.566412 47.01296,252.566412 Z M62.8007703,252.566412 L70.3433966,252.566412 C71.5303204,252.566412 72.5241669,253.514221 72.5632148,254.683403 L72.6774064,258.102551 C72.7164543,259.271733 71.7443773,260.219542 70.5062117,260.219542 L62.6379552,260.219542 C61.3997895,260.219542 60.4277125,259.271733 60.4667605,258.102551 L60.580952,254.683403 C60.62,253.514221 61.6138464,252.566412 62.8007703,252.566412 Z M45.9574523,262.132824 L53.9071163,262.132824 C55.1580925,262.132824 56.1194513,263.080633 56.0543714,264.249815 L55.8640521,267.668963 C55.7989722,268.838145 54.6905583,269.785954 53.3883403,269.785954 L45.1130462,269.785954 C43.8108282,269.785954 42.8712388,268.838145 43.0144146,267.668963 L43.433117,264.249815 C43.5762928,263.080633 44.7064762,262.132824 45.9574523,262.132824 Z M45.2284158,272.132824 L53.751899,272.132824 C55.0931725,272.132824 56.1239238,273.080633 56.0541463,274.249815 L55.8500895,277.668963 C55.780312,278.838145 54.591891,279.785954 53.1956769,279.785954 L44.3230591,279.785954 C42.926845,279.785954 41.9194347,278.838145 42.0729451,277.668963 L42.5218701,274.249815 C42.6753805,273.080633 43.8871423,272.132824 45.2284158,272.132824 Z M87.8865642,272.132824 L79.363081,272.132824 C78.0218075,272.132824 76.9910563,273.080633 77.0608337,274.249815 L77.2648906,277.668963 C77.334668,278.838145 78.523089,279.785954 79.9193031,279.785954 L88.7919209,279.785954 C90.188135,279.785954 91.1955454,278.838145 91.042035,277.668963 L90.59311,274.249815 C90.4395996,273.080633 89.2278377,272.132824 87.8865642,272.132824 Z M62.5972514,262.132824 L70.5469154,262.132824 C71.7978916,262.132824 72.8436627,263.080633 72.8827106,264.249815 L72.9969022,267.668963 C73.0359502,268.838145 72.0119485,269.785954 70.7097305,269.785954 L62.4344364,269.785954 C61.1322184,269.785954 60.1082167,268.838145 60.1472647,267.668963 L60.2614562,264.249815 C60.3005042,263.080633 61.3462753,262.132824 62.5972514,262.132824 Z M62.3937326,271.699236 L70.7504343,271.699236 C72.0654627,271.699236 73.1631585,272.647046 73.2022065,273.816227 L73.316398,277.235375 C73.355446,278.404557 72.2795197,279.352366 70.9132494,279.352366 L62.2309175,279.352366 C60.8646472,279.352366 59.7887209,278.404557 59.8277688,277.235375 L59.9419604,273.816227 C59.9810083,272.647046 61.0787041,271.699236 62.3937326,271.699236 Z M77.9401105,243 L85.0756992,243 C86.1985707,243 87.2249048,243.947809 87.3680805,245.116991 L87.7867829,248.536139 C87.9299587,249.705321 87.0942187,250.65313 85.9201053,250.65313 L78.4588865,250.65313 C77.2847732,250.65313 76.2802086,249.705321 76.2151287,248.536139 L76.0248094,245.116991 C75.9597295,243.947809 76.817239,243 77.9401105,243 Z M78.5885805,252.566412 L86.1312069,252.566412 C87.3181307,252.566412 88.3963894,253.514221 88.5395652,254.683403 L88.9582676,258.102551 C89.1014434,259.271733 88.2137787,260.219542 86.975613,260.219542 L79.1073565,260.219542 C77.8691909,260.219542 76.8127016,259.271733 76.7476217,258.102551 L76.5573024,254.683403 C76.4922225,253.514221 77.4016567,252.566412 78.5885805,252.566412 Z M79.2370505,262.132824 L87.1867146,262.132824 C88.4376907,262.132824 89.5678741,263.080633 89.7110499,264.249815 L90.1297523,267.668963 C90.2729281,268.838145 89.3333387,269.785954 88.0311207,269.785954 L79.7558266,269.785954 C78.4536086,269.785954 77.3451946,268.838145 77.2801147,267.668963 L77.0897955,264.249815 C77.0247156,263.080633 77.9860744,262.132824 79.2370505,262.132824 Z" id="Combined-Shape" fill="#494949"></path>
                <path d="M149.874588,243 L208.57925,243 C209.904734,243 210.97925,244.074517 210.97925,245.4 C210.97925,245.546517 210.965833,245.692727 210.939167,245.836797 L205.501213,275.216844 C205.290637,276.354543 204.298319,277.180047 203.141296,277.180047 L141.677021,277.180047 C140.351537,277.180047 139.277021,276.105531 139.277021,274.780047 C139.277021,274.562032 139.306727,274.345034 139.365319,274.13504 L147.562886,244.754993 C147.852353,243.717546 148.797515,243 149.874588,243 Z" id="Rectangle-12" fill="#000000" transform="translate(174.989968, 260.090024) scale(-1, 1) translate(-174.989968, -260.090024) "></path>
                <rect id="矩形" fill="#494949" x="28" y="170" width="180" height="64"></rect>
                <rect id="Rectangle-8-Copy备份" fill="#6C6C6C" x="45" y="181" width="28" height="12" rx="1.20000005"></rect>
                <path d="M46.7705217,178 L70.8318911,178 C71.4946328,178 72.0318911,178.537258 72.0318911,179.2 C72.0318911,179.471037 71.9401361,179.734092 71.7715664,179.946331 L66.6936569,186.33972 C66.4660124,186.626338 66.1200034,186.793388 65.7539816,186.793388 L52.2205612,186.793388 C51.8691144,186.793388 51.5353328,186.639322 51.3073387,186.371864 L45.8572992,179.978476 C45.4273588,179.474117 45.4876869,178.716718 45.9920458,178.286778 C46.2091904,178.101673 46.4851876,178 46.7705217,178 Z" id="Rectangle备份" fill="#1D1D1D"></path>
                <g id="编组" transform="translate(0.000000, 178.000000)">
                    <g id="Rectangle-7">
                        <use fill="black" fill-opacity="1" filter="url(#filter-8)" xlink:href="#path-7"></use>
                        <use fill="#FFFFFF" fill-rule="evenodd" xlink:href="#path-7"></use>
                        <use fill="black" fill-opacity="1" filter="url(#filter-9)" xlink:href="#path-7"></use>
                    </g>
                    <path d="M54.6144432,27.5714286 L54.0879255,42.8258929 L36.0546725,42.8258929 L38.1607433,27.5714286 L54.6144432,27.5714286 Z M51.2140128,40.2834821 L51.7405305,30.1138393 L40.5958913,30.1138393 L39.36735,40.2834821 L51.2140128,40.2834821 Z M43.1187922,32.65625 L48.7788648,32.65625 L48.427853,37.7410714 L42.5922745,37.7410714 L43.1187922,32.65625 Z M32.5445545,68.25 L34.6506253,52.9955357 L53.7369137,52.9955357 L53.210396,68.25 L32.5445545,68.25 Z M37.524538,55.5379464 L36.2959967,65.7075893 L49.8977185,65.7075893 L50.4242362,55.5379464 L37.524538,55.5379464 Z M40.4862037,58.0803571 L47.0238058,58.0803571 L46.672794,63.1651786 L39.959686,63.1651786 L40.4862037,58.0803571 Z M65.5835766,27.5714286 L82.0372765,27.5714286 L84.1433473,42.8258929 L66.1100943,42.8258929 L65.5835766,27.5714286 Z M80.8306698,40.2834821 L79.6021285,30.1138393 L68.4574893,30.1138393 L68.984007,40.2834821 L80.8306698,40.2834821 Z M71.419155,32.65625 L77.0792276,32.65625 L77.6057453,37.7410714 L71.7701668,37.7410714 L71.419155,32.65625 Z M41.802498,45.3683036 L41.5392391,47.9107143 L44.6325343,47.9107143 L44.4131519,50.453125 L35.0016371,50.453125 L35.7036607,45.3683036 L41.802498,45.3683036 Z M56.9618383,50.453125 L63.2361815,50.453125 L63.3239345,55.5379464 L56.8740853,55.5379464 L56.9618383,50.453125 Z M44.8519166,45.3683036 L50.9507539,45.3683036 L50.8191245,47.9107143 L44.6325343,47.9107143 L44.8519166,45.3683036 Z M63.3678109,58.0803571 L63.4116874,60.6227679 L63.4555639,63.1651786 L60.0990099,63.1651786 L60.0990099,60.6227679 L56.7863324,60.6227679 L56.8302089,58.0803571 L63.3678109,58.0803571 Z M54.0001726,45.3683036 L57.0495912,45.3683036 L56.9618383,50.453125 L50.6874951,50.453125 L50.8191245,47.9107143 L53.9124196,47.9107143 L54.0001726,45.3683036 Z M60.0990099,37.7410714 L63.0167991,37.7410714 L63.1045521,42.8258929 L60.0990099,42.8258929 L60.0990099,37.7410714 Z M63.192305,47.9107143 L60.0990099,47.9107143 L60.0990099,45.3683036 L69.2472659,45.3683036 L69.5105247,50.453125 L63.2361815,50.453125 L63.192305,47.9107143 Z M57.0934677,42.8258929 L60.0990099,42.8258929 L60.0990099,45.3683036 L57.0495912,45.3683036 L57.0934677,42.8258929 Z M63.4555639,63.1651786 L70.1686718,63.1651786 L70.4319307,68.25 L63.5433168,68.25 L63.4555639,63.1651786 Z M56.7424559,63.1651786 L60.0990099,63.1651786 L60.0990099,68.25 L56.654703,68.25 L56.7424559,63.1651786 Z M63.3239345,55.5379464 L66.548859,55.5379464 L66.636612,58.0803571 L63.3678109,58.0803571 L63.3239345,55.5379464 Z M62.9729227,35.1986607 L60.0990099,35.1986607 L60.0990099,37.7410714 L57.1812207,37.7410714 L57.3567266,27.5714286 L60.0990099,27.5714286 L60.0990099,30.1138393 L62.8851697,30.1138393 L62.9729227,35.1986607 Z M73.5252258,63.1651786 L76.8817798,63.1651786 L77.3205446,68.25 L73.8762376,68.25 L73.5252258,63.1651786 Z M73.174214,58.0803571 L79.7118161,58.0803571 L79.9750749,60.6227679 L73.3497199,60.6227679 L73.174214,58.0803571 Z M70.0370424,60.6227679 L73.3497199,60.6227679 L73.5252258,63.1651786 L70.1686718,63.1651786 L70.0370424,60.6227679 Z M66.636612,58.0803571 L69.905413,58.0803571 L70.0370424,60.6227679 L66.7243649,60.6227679 L66.636612,58.0803571 Z M79.1852984,52.9955357 L82.3663465,52.9955357 L85.5473945,52.9955357 L86.2494181,58.0803571 L82.9806171,58.0803571 L82.6734818,55.5379464 L79.4485572,55.5379464 L79.1852984,52.9955357 Z M83.2877524,60.6227679 L83.5948878,63.1651786 L86.9514417,63.1651786 L87.6534653,68.25 L80.7648515,68.25 L79.9750749,60.6227679 L83.2877524,60.6227679 Z M66.4611061,52.9955357 L69.6421541,52.9955357 L69.5105247,50.453125 L75.7848679,50.453125 L76.2236327,55.5379464 L66.548859,55.5379464 L66.4611061,52.9955357 Z M72.2966845,45.3683036 L78.3955218,45.3683036 L84.4943591,45.3683036 L85.1963827,50.453125 L78.9220395,50.453125 L78.6587807,47.9107143 L72.4721904,47.9107143 L72.2966845,45.3683036 Z" id="Combined-Shape" fill="#000000" fill-rule="nonzero"></path>
                    <polygon id="Rectangle-3" fill="url(#linearGradient-10)" points="48.0534188 0 69.9465812 0 106 52 12 52"></polygon>
                </g>
            </g>
        </g>
    </g>
</svg>