<?xml version="1.0" encoding="UTF-8"?>
<svg width="34px" height="34px" viewBox="0 0 34 34" version="1.1" xmlns="http://www.w3.org/2000/svg" xmlns:xlink="http://www.w3.org/1999/xlink">
    <title>icon_cloud</title>
    <g id="页面-1" stroke="none" stroke-width="1" fill="none" fill-rule="evenodd">
        <g id="功能選單" transform="translate(-65.000000, -511.000000)">
            <g id="编组备份-2" transform="translate(36.000000, 483.000000)">
                <g id="icon_cloud" transform="translate(29.000000, 28.000000)">
                    <rect id="矩形" fill="#D8D8D8" opacity="0" x="0" y="0" width="34" height="34"></rect>
                    <g id="编组-4" transform="translate(1.000000, 2.000000)">
                        <g id="编组-3" transform="translate(9.752362, 11.663367)">
                            <rect id="矩形" fill="#D8D8D8" opacity="0" x="0" y="0" width="14.6285424" height="14.7326739"></rect>
                            <g id="编组-2" transform="translate(0.000000, 0.613861)">
                                <path d="M3.06244517,0 C3.14291496,0 3.21834314,0.0154566279 3.29377174,0.0515220929 C3.29377174,0.0515220929 3.29377174,0.0515220929 14.3218482,5.40478166 C14.4526033,5.46660394 14.5481492,5.57995255 14.5984333,5.7139269 C14.6436952,5.85302809 14.6386688,6.00244216 14.5783156,6.13126008 C14.5783156,6.13126008 14.5783156,6.13126008 14.5079137,6.27551771 C14.5079137,6.28583058 14.5079137,6.29097434 14.5079137,6.29613077 C14.5079137,6.29613077 14.5079137,6.29613077 14.497861,6.34249643 C14.497861,6.34249643 14.497861,6.34249643 14.497861,12.3449555 C14.497861,12.648942 14.2564686,12.8910897 13.9648085,12.8910897 C13.9648085,12.8910897 13.9648085,12.8910897 1.75999838,12.8910897 C1.46331034,12.8910897 1.22694257,12.648942 1.22694257,12.3449555 C1.22694257,12.3449555 1.22694257,12.3449555 1.22694257,9.61421399 C1.22694257,9.61421399 1.22694257,9.61421399 0.563147744,9.43904606 C0.427383206,9.40297722 0.311720126,9.31538501 0.236291861,9.19172396 C0.165888909,9.06807981 0.14577144,8.91866489 0.180964724,8.7743912 C0.180964724,8.7743912 0.180964724,8.7743912 0.698928375,6.71346395 C0.698928375,6.71346395 0.698928375,6.71346395 0.3016532,6.51768 C0.175939453,6.45585771 0.0753684469,6.34765287 0.0301082239,6.20853899 C-0.0151519991,6.07457732 -0.0101267234,5.92516325 0.0502257058,5.79120581 C0.0502257058,5.79120581 0.0502257058,5.79120581 2.5847167,0.314284767 C2.67523712,0.113344378 2.86632818,0 3.06244517,0 Z" id="Fill-1" fill="#04127C"></path>
                                <path d="M9.74631474,10.1871414 C9.74631474,10.1871414 9.74631474,10.1871414 14.0335473,10.1871414 C14.0335473,10.1871414 14.0335473,10.1871414 14.0335473,10.9966887 C13.3828998,11.0837944 12.8734686,11.601285 12.7877236,12.2571017 C12.7877236,12.2571017 12.7877236,12.2571017 8.16762162,12.2571017 C8.90905697,12.1033887 9.51935341,11.2836173 9.74631474,10.1871414 Z M1.78947595,10.1871414 C1.78947595,10.1871414 1.78947595,10.1871414 6.07670768,10.1871414 C6.30366901,11.2836173 6.91396545,12.1033887 7.6554008,12.2571017 C7.6554008,12.2571017 7.6554008,12.2571017 3.05042362,12.2571017 C2.9646807,11.5961556 2.44516672,11.0735369 1.78947595,10.9966887 C1.78947595,10.9966887 1.78947595,10.9966887 1.78947595,10.1871414 Z M9.81875518,9.64467585 C9.81875518,9.64467585 9.81875518,9.64467585 14.0335473,9.64467585 C14.0335473,9.64467585 14.0335473,9.64467585 14.0335473,9.91591706 C14.0335473,9.91591706 14.0335473,9.91591706 9.78847331,9.91591706 C9.79855488,9.82891192 9.80865709,9.73679346 9.81875518,9.64467585 Z M1.78947595,9.64467585 C1.78947595,9.64467585 1.78947595,9.64467585 6.00426724,9.64467585 C6.01436533,9.73679346 6.02446754,9.82891192 6.03456562,9.91591706 C6.03456562,9.91591706 6.03456562,9.91591706 1.78947595,9.91591706 C1.78947595,9.91591706 1.78947595,9.91591706 1.78947595,9.64467585 Z M9.83757715,9.10221077 C9.83757715,9.10221077 9.83757715,9.10221077 14.0335473,9.10221077 C14.0335473,9.10221077 14.0335473,9.10221077 14.0335473,9.37343507 C14.0335473,9.37343507 14.0335473,9.37343507 9.83757715,9.37343507 C9.83757715,9.33248789 9.83757715,9.28642909 9.83757715,9.24549967 C9.83757715,9.19432796 9.83757715,9.14826957 9.83757715,9.10221077 Z M1.78947595,9.10221077 C1.78947595,9.10221077 1.78947595,9.10221077 5.98544528,9.10221077 C5.98544528,9.14826957 5.98040655,9.19432796 5.98040655,9.24549967 C5.98040655,9.28642909 5.98544528,9.33248789 5.98544528,9.37343507 C5.98544528,9.37343507 5.98544528,9.37343507 1.78947595,9.37343507 C1.78947595,9.37343507 1.78947595,9.37343507 1.78947595,9.10221077 Z M9.7814455,8.55973004 C9.7814455,8.55973004 9.7814455,8.55973004 14.0335473,8.55973004 C14.0335473,8.55973004 14.0335473,8.55973004 14.0335473,8.83096914 C14.0335473,8.83096914 14.0335473,8.83096914 9.81174388,8.83096914 C9.80670103,8.73885152 9.79660295,8.64673433 9.7814455,8.55973004 Z M1.78947595,8.55973004 C1.78947595,8.55973004 1.78947595,8.55973004 6.03456562,8.55973004 C6.01944119,8.64673433 6.00934311,8.73885152 5.99927391,8.83096914 C5.99927391,8.83096914 5.99927391,8.83096914 1.78947595,8.83096914 C1.78947595,8.83096914 1.78947595,8.83096914 1.78947595,8.55973004 Z M1.23580264,6.83239588 C1.23580264,6.83239588 1.23580264,6.83239588 1.25621587,6.83752273 L1.25621587,7.73175437 C1.1847774,7.69064236 1.11333893,7.65465298 1.03168559,7.62383271 C1.03168559,7.62383271 1.03168559,7.62383271 1.23580264,6.83239588 Z M8.16762162,6.23281228 C8.16762162,6.23281228 8.16762162,6.23281228 12.8381604,6.23281228 C12.9239178,6.87360932 13.4081058,7.38625204 14.0335473,7.48878058 C14.0335473,7.48878058 14.0335473,7.48878058 14.0335473,8.28848461 C14.0335473,8.28848461 14.0335473,8.28848461 9.74127189,8.28848461 C9.51431469,7.20170235 8.90905697,6.38660932 8.16762162,6.23281228 Z M2.99998933,6.23281228 C2.99998933,6.23281228 2.99998933,6.23281228 7.6554008,6.23281228 C6.91396545,6.38660932 6.30871186,7.20170235 6.08175053,8.28848461 C6.08175053,8.28848461 6.08175053,8.28848461 1.78947595,8.28848461 C1.78947595,8.28848461 1.78947595,8.28848461 1.78947595,7.48878058 C2.42499986,7.39138311 2.91928843,6.87873617 2.99998933,6.23281228 Z M1.6351193,5.26206673 L3.25596933,5.69034254 L2.18943308,5.69034254 L1.56494567,5.52617346 L1.6351193,5.26206673 Z M8.31496615,4.59826437 C8.31496615,4.59826437 8.31496615,4.59826437 12.4477769,5.69034254 C12.4477769,5.69034254 12.4477769,5.69034254 9.20308574,5.69034254 C9.02647865,5.17521037 8.71866663,4.77855788 8.31496615,4.59826437 Z M1.31234875,4.36270824 L1.17456253,4.89805617 C1.14395094,4.8725614 1.11843006,4.85216389 1.08781806,4.83176638 C1.08781806,4.83176638 1.08781806,4.83176638 1.31234875,4.36270824 Z M3.37729985,3.31345807 C3.37729985,3.31345807 3.37729985,3.31345807 7.87993149,4.4916614 C7.23453729,4.46092143 6.56393297,4.92707592 6.07989351,5.69034254 L4.33025516,5.69034254 C4.33025516,5.69034254 4.33025516,5.69034254 1.69826471,4.99879264 C1.69826471,4.99879264 1.69826471,4.99879264 1.89490951,4.23041184 C2.53021965,4.29187064 3.13527929,3.92305023 3.37729985,3.31345807 Z M8.79912115,3.26349136 C8.79912115,3.26349136 8.79912115,3.26349136 12.9249041,5.24779777 C12.9249041,5.24779777 12.9249041,5.24779777 9.44550164,4.34023547 C9.34955953,3.87364988 9.13240329,3.49422073 8.79912115,3.26349136 Z M4.19486986,1.05077597 C4.19486986,1.05077597 4.19486986,1.05077597 8.39916774,3.07267364 C7.86920614,2.93959111 7.25345418,3.1545849 6.70331292,3.62038435 L2.54445807,2.53520396 C2.54445807,2.53520396 2.54445807,2.53520396 2.23152438,2.38165629 C2.23152438,2.38165629 2.23152438,2.38165629 2.56464145,1.65989897 C3.18039218,1.84929655 3.84156819,1.59846976 4.19486986,1.05077597 Z" id="Fill-2" fill="#FFFFFF"></path>
                                <path d="M8.09044784,9.82980077 C8.09044784,10.1287261 8.09044784,10.4276511 8.09044784,10.7265764 C8.47377058,10.6706735 8.66543194,10.5332456 8.66543194,10.3142927 C8.66543194,10.131055 8.47377058,9.96955794 8.09044784,9.82980077 Z M7.67442498,8.25520447 C7.505312,8.27849719 7.37114822,8.32818917 7.27193363,8.40427618 C7.17272316,8.48036742 7.12311586,8.57276061 7.12311586,8.68146208 C7.12311586,8.7963741 7.16370215,8.89032183 7.24487885,8.9633061 C7.32605143,9.03629038 7.46923622,9.11005108 7.67442498,9.18458821 C7.67442498,8.87479292 7.67442498,8.56499637 7.67442498,8.25520447 Z M7.67442498,7.40501385 C7.81309926,7.40501385 7.95177355,7.40501385 8.09044784,7.40501385 C8.09044784,7.54166363 8.09044784,7.67831764 8.09044784,7.81496741 C8.56396416,7.82428281 8.89092003,7.86776593 9.0713072,7.94540833 C9.0713072,8.11156391 9.0713072,8.27771949 9.0713072,8.44387507 C8.82552803,8.31964723 8.49857629,8.25287562 8.09044784,8.24355599 C8.09044784,8.60148872 8.09044784,8.95942398 8.09044784,9.31735798 C8.58651256,9.4757489 8.92586922,9.62948212 9.10851371,9.77855679 C9.29115407,9.92763062 9.38247837,10.0961159 9.38247837,10.2840113 C9.38247837,10.5122817 9.26860567,10.7032833 9.04086439,10.8570161 C8.81312724,11.0107493 8.49631897,11.1085791 8.09044784,11.1505064 C8.09044784,11.3189913 8.09044784,11.4874761 8.09044784,11.655961 C7.95177355,11.655961 7.81309926,11.655961 7.67442498,11.655961 C7.67442498,11.4936875 7.67442498,11.3314141 7.67442498,11.1691406 C7.17384975,11.1691406 6.7668479,11.1023673 6.45342354,10.968822 C6.45342354,10.7956786 6.45342354,10.6225347 6.45342354,10.4493909 C6.59097123,10.5316923 6.77755674,10.6007949 7.01319243,10.6566974 C7.248824,10.7126003 7.46923622,10.740552 7.67442498,10.740552 C7.67442498,10.3950412 7.67442498,10.04953 7.67442498,9.70401924 C7.14228035,9.53475754 6.79785194,9.3786959 6.64113976,9.23583262 C6.48442758,9.09296976 6.40607356,8.92370806 6.40607356,8.72804794 C6.40607356,8.49667359 6.52557923,8.29674336 6.76459471,8.1282547 C7.00360606,7.95977028 7.30688694,7.85844631 7.67442498,7.82428281 C7.67442498,7.68452649 7.67442498,7.54477017 7.67442498,7.40501385 Z" id="Fill-3" fill="#FFFFFF"></path>
                            </g>
                        </g>
                        <g id="编组" fill="#04127C">
                            <path d="M14.9232228,27.3763994 L19.287112,27.4481684 L17.0477625,31 L14.9232228,27.3763994 Z M20.7147358,0.00130000176 C22.8526546,0.0295805971 24.8631588,0.893081032 26.3497723,2.43608308 C27.8364345,3.97903602 28.6434424,6.00330542 28.6010074,8.14076472 C28.6010074,8.62208118 28.5443767,9.0892113 28.4594031,9.55634142 C30.6539527,10.8303494 32.0414943,13.208516 31.9990532,15.8272918 C31.9423737,19.7201246 28.7567648,22.8343664 24.8773059,22.8343664 C24.8490118,22.8343664 24.8065281,22.8343664 24.7640383,22.8343664 C24.8065281,19.9890696 24.8065281,19.9890696 24.8065281,19.9890696 C24.8348221,19.9890696 24.8631588,19.9890696 24.8773059,19.9890696 C27.2134658,19.9890696 29.1248555,18.1205062 29.1673392,15.7848187 C29.1956333,13.9304478 28.0346756,12.2883992 26.2931415,11.6797065 C24.9197957,11.1983839 24.9197957,11.1983839 24.9197957,11.1983839 C25.4294968,9.83947272 25.4294968,9.83947272 25.4294968,9.83947272 C25.6418788,9.27325309 25.7551464,8.69284098 25.7692934,8.09833462 C25.7834404,6.71104466 25.2737393,5.40874995 24.310974,4.4178303 C23.3482087,3.42695362 22.0455919,2.86073399 20.672246,2.84659062 C20.6439093,2.84659062 20.6156153,2.84659062 20.5872725,2.84659062 C18.2653083,2.84659062 16.2123143,4.38954356 15.6034926,6.64028485 C15.1362814,8.32480651 15.1362814,8.32480651 15.1362814,8.32480651 C13.5929884,7.53206588 13.5929884,7.53206588 13.5929884,7.53206588 C13.1399242,7.3197435 12.6585111,7.19236725 12.1630119,7.19236725 C12.1346691,7.19236725 12.120522,7.19236725 12.106375,7.19236725 C10.5488863,7.19236725 9.18968748,8.28233344 8.87817876,9.81114301 C8.63750267,10.9719181 8.63750267,10.9719181 8.63750267,10.9719181 C7.29245086,10.9435823 7.29245086,10.9435823 7.29245086,10.9435823 C4.87136188,10.9294389 2.87500165,12.8262891 2.84666068,15.2469288 C2.81836847,16.4077039 3.25728813,17.5118135 4.07844734,18.3611705 C4.88550829,19.1963351 5.975687,19.6634591 7.15084048,19.6917949 C9.07641989,19.7201246 9.07641989,19.7201246 9.07641989,19.7201246 C9.03393617,22.5512289 9.03393617,22.5512289 9.03393617,22.5512289 C7.10839942,22.5229483 7.10839942,22.5229483 7.10839942,22.5229483 C5.18282122,22.4946125 3.38470091,21.7160643 2.03964788,20.3288235 C0.694594858,18.9557199 -0.0274916752,17.1296356 0.000800922379,15.2044557 C0.0574342362,11.5239944 2.86085524,8.53713504 6.42875124,8.14076472 C7.37737565,5.84755036 9.61441501,4.30459742 12.2054468,4.34707049 C12.6018803,4.34707049 12.9983626,4.40368693 13.3947961,4.47449585 C14.7398479,1.74243196 17.5715131,-0.055322575 20.7147358,0.00130000176 Z" id="Fill-1"></path>
                        </g>
                    </g>
                </g>
            </g>
        </g>
    </g>
</svg>