<?xml version="1.0" encoding="UTF-8"?>
<svg width="22px" height="22px" viewBox="0 0 22 22" version="1.1" xmlns="http://www.w3.org/2000/svg" xmlns:xlink="http://www.w3.org/1999/xlink">
    <title>icon_check</title>
    <g id="页面-1" stroke="none" stroke-width="1" fill="none" fill-rule="evenodd">
        <g id="虹膜辨識" transform="translate(-153.000000, -200.000000)">
            <g id="icon_check" transform="translate(153.000000, 200.000000)">
                <circle id="椭圆形" fill="#319F46" cx="11" cy="11" r="11"></circle>
                <path d="M16.7515568,7.1924949 C16.4436741,6.91544405 15.9695001,6.94041741 15.6924223,7.24827643 L9.47132491,14.160147 L6.28032747,10.9691154 C5.98743485,10.6762196 5.51256209,10.6762197 5.21966947,10.9691154 C4.92677685,11.2620112 4.92677684,11.736889 5.21966945,12.0297848 L8.96964808,15.7798036 C9.11019962,15.9206354 9.30095145,15.9998457 9.49991849,16 L9.51960588,16 C9.72528734,15.9946087 9.91972159,15.9049536 10.0573763,15.75203 L16.8073378,8.2519924 C16.9404906,8.10412199 17.0094236,7.90939783 16.9989617,7.7106863 C16.9884998,7.51197477 16.8995008,7.32556567 16.7515568,7.1924949 Z" id="路径" fill="#FFFFFF" fill-rule="nonzero"></path>
            </g>
        </g>
    </g>
</svg>