<?xml version="1.0" encoding="UTF-8"?>
<svg width="34px" height="34px" viewBox="0 0 34 34" version="1.1" xmlns="http://www.w3.org/2000/svg" xmlns:xlink="http://www.w3.org/1999/xlink">
    <title>icon_eye</title>
    <g id="页面-1" stroke="none" stroke-width="1" fill="none" fill-rule="evenodd">
        <g id="虹膜辨識" transform="translate(-203.000000, -218.000000)" fill="#1E35BE" fill-rule="nonzero">
            <path d="M226.820896,219.582278 C226.367527,219.582278 226,219.228073 226,218.791139 C226,218.354205 226.367527,218 226.820896,218 L231.18806,218 C234.397906,218 237,220.507772 237,223.601266 L237,227.208861 C237,227.645795 236.632473,228 236.179104,228 C235.725736,228 235.358209,227.645795 235.358209,227.208861 L235.358209,223.601266 C235.358209,221.38164 233.49117,219.582278 231.18806,219.582278 L226.820896,219.582278 Z M235.358209,241.820896 C235.358209,241.367527 235.725736,241 236.179104,241 C236.632473,241 237,241.367527 237,241.820896 L237,246.18806 C237,249.397906 234.397906,252 231.18806,252 L226.820895,252 C226.367527,252 226,251.632473 226,251.179104 C226,250.725736 226.367527,250.358209 226.820895,250.358209 L231.18806,250.358209 C233.49117,250.358209 235.358209,248.49117 235.358209,246.18806 L235.358209,241.820896 L235.358209,241.820896 Z M212.208861,250.358209 C212.645795,250.358209 213,250.725736 213,251.179104 C213,251.632473 212.645795,252 212.208861,252 L208.601266,252 C205.507772,252 203,249.397906 203,246.18806 L203,241.820896 C203,241.367527 203.354205,241 203.791139,241 C204.228073,241 204.582278,241.367527 204.582278,241.820896 L204.582278,246.18806 C204.582278,248.49117 206.38164,250.358209 208.601266,250.358209 L212.208861,250.358209 L212.208861,250.358209 Z M204.582278,227.208861 C204.582278,227.645795 204.228073,228 203.791139,228 C203.354205,228 203,227.645795 203,227.208861 L203,223.601266 C203,220.507772 205.507772,218 208.601266,218 L212.208861,218 C212.645795,218 213,218.354205 213,218.791139 C213,219.228073 212.645795,219.582278 212.208861,219.582278 L208.601266,219.582278 C206.38164,219.582278 204.582278,221.38164 204.582278,223.601266 L204.582278,227.208861 L204.582278,227.208861 Z M219.65646,228 C227.13946,228 233.12585,234.24324 233.31293,234.43243 C233.5,234.81081 233.5,235.18919 233.31293,235.56757 C233.12585,235.75676 227.13946,242 219.65646,242 C212.36054,242 206.37415,235.75676 206.187075,235.56757 C206,235.37838 206,235.18919 206,235 C206,234.05405 212.54762,228 219.65646,228 Z M215.54082,230.27027 C211.79932,231.59459 208.80612,233.86486 207.683673,235 C208.80612,235.94595 211.79932,238.59459 215.35374,239.72973 C214.23129,238.59459 213.29592,236.89189 213.29592,235 C213.29592,233.10811 214.23129,231.40541 215.54082,230.27027 Z M223.95918,230.27027 C225.26871,231.40541 226.01701,233.10811 226.01701,235 C226.01701,236.89189 225.26871,238.59459 223.95918,239.72973 C227.70068,238.59459 230.5068,236.13514 231.62925,235 C230.5068,234.05405 227.70068,231.59459 223.95918,230.27027 Z M219.75,231 C219.19565,231 218.6413,231 218.08696,231.17778 C218.523251,232.688891 218.753515,233.486422 218.875044,233.907341 L218.929759,234.096847 C218.995662,234.325105 219.008018,234.367903 219.010335,234.375928 C216.567637,233.686421 216.024696,233.532786 215.904042,233.498645 L215.884113,233.493005 C215.874418,233.490262 215.871186,233.489347 215.870109,233.489042 C215.68478,234.02222 215.5,234.37778 215.5,234.91111 C215.5,235.97778 215.86957,237.04444 216.79348,237.75556 C217.53261,238.64444 218.6413,239 219.75,239 C221.04348,239 221.96739,238.64444 222.8913,237.75556 C223.63044,237.04444 224,235.97778 224,234.91111 C224,233.84444 223.63044,232.95556 222.8913,232.06667 C221.96739,231.35556 221.04348,231 219.75,231 Z" id="icon_eye"></path>
        </g>
    </g>
</svg>