<?xml version="1.0" encoding="UTF-8"?>
<svg width="256px" height="256px" viewBox="0 0 256 256" version="1.1" xmlns="http://www.w3.org/2000/svg" xmlns:xlink="http://www.w3.org/1999/xlink">
    <title>icon_opening</title>
    <defs>
        <linearGradient x1="8.5835089%" y1="79.1871489%" x2="93.1750351%" y2="23.9510183%" id="linearGradient-1">
            <stop stop-color="#87C0A7" offset="0%"></stop>
            <stop stop-color="#05097B" offset="100%"></stop>
        </linearGradient>
        <linearGradient x1="83.6137877%" y1="94.544991%" x2="15.8260316%" y2="1.70002901e-14%" id="linearGradient-2">
            <stop stop-color="#05097B" offset="0%"></stop>
            <stop stop-color="#87C0A7" offset="100%"></stop>
        </linearGradient>
        <linearGradient x1="25.0280906%" y1="16.3302565%" x2="85.2480626%" y2="85.4360702%" id="linearGradient-3">
            <stop stop-color="#65B3A5" offset="0%"></stop>
            <stop stop-color="#04127B" offset="100%"></stop>
        </linearGradient>
    </defs>
    <g id="页面-1" stroke="none" stroke-width="1" fill="none" fill-rule="evenodd">
        <g id="開啟" transform="translate(-52.000000, -272.000000)">
            <g id="icon_opening" transform="translate(52.000000, 272.000000)">
                <circle id="Oval-Copy-4" stroke="url(#linearGradient-1)" stroke-width="2" opacity="0.49640997" cx="128" cy="128" r="79"></circle>
                <circle id="Oval-Copy-5" stroke="url(#linearGradient-2)" stroke-width="2" opacity="0.255013021" cx="128" cy="128" r="127"></circle>
                <g id="编组-3备份" transform="translate(80.000000, 80.000000)" fill-rule="nonzero">
                    <rect id="矩形备份-2" fill="url(#linearGradient-3)" x="0" y="0" width="96" height="96" rx="48"></rect>
                    <path d="M58.833187,23.5130305 C58.1131318,23.5130305 57.5294118,22.9504695 57.5294118,22.2565153 C57.5294118,21.562561 58.1131318,21 58.833187,21 L65.7692713,21 C70.867262,21 75,24.9829322 75,29.8961281 L75,35.6258378 C75,36.319792 74.4162799,36.8823529 73.6962248,36.8823529 C72.9761696,36.8823529 72.3924496,36.319792 72.3924495,35.6258378 L72.3924495,29.8961281 C72.3924495,26.3708407 69.4271516,23.5130305 65.7692713,23.5130305 L58.833187,23.5130305 Z M72.3924495,58.833187 C72.3924495,58.1131318 72.9761696,57.5294118 73.6962248,57.5294118 C74.4162799,57.5294118 75,58.1131318 75,58.833187 L75,65.7692713 C75,70.867262 70.867262,75 65.7692712,75 L58.8331869,75 C58.1131318,75 57.5294118,74.4162799 57.5294118,73.6962248 C57.5294118,72.9761696 58.1131318,72.3924496 58.8331869,72.3924495 L65.7692712,72.3924495 C69.4271516,72.3924495 72.3924495,69.4271516 72.3924495,65.7692713 L72.3924495,58.833187 L72.3924495,58.833187 Z M35.6258377,72.3924495 C36.3197919,72.3924495 36.8823529,72.9761696 36.8823529,73.6962248 C36.8823529,74.4162799 36.3197919,75 35.6258377,75 L29.8961281,75 C24.9829322,75 21,70.867262 21,65.7692713 L21,58.833187 C21,58.1131318 21.562561,57.5294118 22.2565153,57.5294118 C22.9504695,57.5294118 23.5130305,58.1131318 23.5130305,58.833187 L23.5130305,65.7692713 C23.5130305,69.4271516 26.3708406,72.3924495 29.8961281,72.3924495 L35.6258377,72.3924495 L35.6258377,72.3924495 Z M23.5130305,35.6258377 C23.5130305,36.3197919 22.9504695,36.8823529 22.2565153,36.8823529 C21.562561,36.8823529 21,36.3197919 21,35.6258377 L21,29.8961281 C21,24.9829322 24.9829322,21 29.8961281,21 L35.6258377,21 C36.3197919,21 36.8823529,21.562561 36.8823529,22.2565153 C36.8823529,22.9504695 36.3197919,23.5130305 35.6258377,23.5130305 L29.8961281,23.5130305 C26.3708406,23.5130305 23.5130305,26.3708406 23.5130305,29.8961281 L23.5130305,35.6258377 L23.5130305,35.6258377 Z M47.4543776,36.8823529 C58.9196801,36.8823529 68.1728388,46.1105047 69.0784847,47.0316762 L69.1297651,47.0839995 L69.1440653,47.0985653 C69.4411765,47.6995218 69.4411765,48.3004782 69.1440653,48.9014347 C68.8469382,49.2019129 59.3391424,59.1176471 47.4543776,59.1176471 C36.6846909,59.1176471 27.7115844,50.5523742 26.2599184,49.1019257 L26.1642201,49.0056997 C26.1101865,48.9510083 26.0758071,48.9155749 26.061825,48.9014347 C25.7647059,48.6009565 25.7647059,48.3004782 25.7647059,48 C25.7647059,46.4976088 36.1638671,36.8823529 47.4543776,36.8823529 Z M40.9177729,40.4880759 C34.9753906,42.5914076 30.2214847,46.1971306 28.4387748,48 C30.2214847,49.5023912 34.9753906,53.7090547 40.6206459,55.5119241 C38.8379312,53.7090547 37.3523435,51.0047665 37.3523435,48 C37.3523435,44.9952335 38.8379312,42.2909453 40.9177729,40.4880759 Z M54.2881094,40.4880759 C56.3679512,42.2909453 57.5564276,44.9952335 57.5564276,48 C57.5564276,51.0047665 56.3679512,53.7090547 54.2881094,55.5119241 C60.2304918,53.7090547 64.6872706,49.8028694 66.4699853,48 C64.6872706,46.4976088 60.2304918,42.5914076 54.2881094,40.4880759 Z M47.6029412,41.6470588 C46.7225029,41.6470588 45.8420647,41.6470588 44.9616424,41.9294153 C46.2851674,46.5134983 46.4149248,46.9629182 46.4276461,47.006979 C42.0386001,45.7694137 41.5117487,45.6203312 41.4485265,45.6024413 C41.1464153,46.4470553 40.8529412,47.0117682 40.8529412,47.8588218 C40.8529412,49.5529447 41.4399053,51.2470518 42.9072918,52.3764776 C44.0812041,53.7882282 45.8420647,54.3529412 47.6029412,54.3529412 C49.6572918,54.3529412 51.1246782,53.7882282 52.5920647,52.3764776 C53.7659929,51.2470518 54.3529412,49.5529447 54.3529412,47.8588218 C54.3529412,46.1646988 53.7659929,44.7529482 52.5920647,43.3411818 C51.1246782,42.2117718 49.6572918,41.6470588 47.6029412,41.6470588 Z" id="icon_eye" fill="#FFFFFF"></path>
                </g>
            </g>
        </g>
    </g>
</svg>