<?xml version="1.0" encoding="UTF-8"?>
<svg width="22px" height="22px" viewBox="0 0 22 22" version="1.1" xmlns="http://www.w3.org/2000/svg" xmlns:xlink="http://www.w3.org/1999/xlink">
    <title>icon_error</title>
    <g id="页面-1" stroke="none" stroke-width="1" fill="none" fill-rule="evenodd">
        <g id="虹膜辨識_失敗" transform="translate(-193.000000, -305.000000)">
            <g id="编组-5" transform="translate(10.000000, 235.000000)">
                <g id="icon_error" transform="translate(183.000000, 70.000000)">
                    <circle id="椭圆形" fill="#D81E1E" cx="11" cy="11" r="11"></circle>
                    <path d="M12.28125,11.0157729 L15.65625,7.60883281 C16.03125,7.23028391 16.03125,6.66246057 15.65625,6.28391167 C15.28125,5.90536278 14.71875,5.90536278 14.34375,6.28391167 L10.96875,9.69085174 L7.59375,6.28391167 C7.21875,5.90536278 6.65625,5.90536278 6.28125,6.28391167 C5.90625,6.66246057 5.90625,7.23028391 6.28125,7.60883281 L9.65625,11.0157729 L6.28125,14.4227129 C5.90625,14.8012618 5.90625,15.3690852 6.28125,15.7476341 C6.46875,15.9369085 6.71875,16 6.96875,16 C7.21875,16 7.46875,15.9369085 7.65625,15.7476341 L10.96875,12.340694 L14.34375,15.7476341 C14.53125,15.9369085 14.78125,16 15.03125,16 C15.28125,16 15.53125,15.9369085 15.71875,15.7476341 C16.09375,15.3690852 16.09375,14.8012618 15.71875,14.4227129 L12.28125,11.0157729 Z" id="路径" fill="#FFFFFF" fill-rule="nonzero"></path>
                </g>
            </g>
        </g>
    </g>
</svg>