<?xml version="1.0" encoding="UTF-8"?>
<svg width="48px" height="48px" viewBox="0 0 48 48" version="1.1" xmlns="http://www.w3.org/2000/svg" xmlns:xlink="http://www.w3.org/1999/xlink">
    <title>icon_member</title>
    <g id="页面-1" stroke="none" stroke-width="1" fill="none" fill-rule="evenodd">
        <g id="功能選單" transform="translate(-156.000000, -98.000000)">
            <g id="icon_member" transform="translate(156.000000, 98.000000)">
                <rect id="矩形" fill="#D8D8D8" opacity="0" x="0" y="0" width="48" height="48"></rect>
                <path d="M17.7685854,24.8000028 C18.8885128,26.8666704 21.1942607,28.2666648 23.8293889,28.2666648 C26.3986496,28.2666648 28.7043889,26.8666704 29.8243248,24.8666676 C42.9341239,27.6666648 43,38.6000028 43,38.6000028 C43,38.6000028 43,38.6000028 43,46.866669 C43,47.466669 42.4729743,48 41.814188,48 C41.814188,48 41.814188,48 23.7635128,48 C23.7635128,48 23.7635128,48 23.5658761,48 C23.5658761,48 23.5658761,48 23.5,48 C23.5,48 23.5,48 23.4341239,48 C23.4341239,48 23.4341239,48 23.3682478,48 C23.3682478,48 23.3682478,48 23.2364872,48 C23.2364872,48 23.2364872,48 5.11993163,48 C4.52702769,48 4,47.466669 4,46.866669 C4,46.866669 4,46.866669 4,38.6000028 C4,38.6000028 4,27.3333324 17.7685854,24.8000028 Z M23.8292109,0 C29.1623591,0 32.5861013,4.33332956 32.5861013,9.93333239 C32.5861013,14.6000028 29.689088,22.5999972 23.8292109,22.5999972 C17.9034915,22.5999972 15.0723204,14.6000028 15.0723204,9.93333239 C15.0723204,4.33332956 18.4302204,0 23.8292109,0 Z" id="Fill-1" fill="#04127C"></path>
            </g>
        </g>
    </g>
</svg>