<?xml version="1.0" encoding="UTF-8"?>
<svg width="34px" height="34px" viewBox="0 0 34 34" version="1.1" xmlns="http://www.w3.org/2000/svg" xmlns:xlink="http://www.w3.org/1999/xlink">
    <title>icon_face</title>
    <g id="页面-1" stroke="none" stroke-width="1" fill="none" fill-rule="evenodd">
        <g id="虹膜辨識" transform="translate(-123.000000, -218.000000)">
            <g id="icon_face" transform="translate(123.000000, 218.000000)">
                <rect id="矩形" fill="#D8D8D8" opacity="0" x="0" y="0" width="34" height="34"></rect>
                <g id="编组备份">
                    <path d="M13.4012889,24.9521678 L13.4015778,26.3304493 L11.2758838,26.3305788 L11.3193828,26.5419378 C11.8732403,28.9991687 14.0053524,31.1372196 17.1767272,31.1372196 L17,31.134 L17.0925472,31.132026 C20.1151942,31.0147847 22.1425842,28.9289621 22.6806172,26.5419378 L22.7241162,26.3305788 L20.5984222,26.3304493 L20.5987111,24.9521678 L28.2820173,24.9521678 L28.3426443,24.9458835 C28.4580485,24.9211583 28.5388311,24.8259649 28.5388311,24.7047899 L28.5388311,17.0008729 L29.9681534,17 L29.9682876,24.7045313 L29.9619822,24.8430365 C29.8868623,25.6644184 29.1503783,26.3305788 28.2822707,26.3305788 C26.2655393,26.3305788 26.0679839,26.3305788 26.0486318,26.3305788 L26.1923445,26.3303265 C26.1861587,26.3456658 26.1800294,26.3610089 26.1739562,26.3763546 L26.2272657,26.3952206 C28.4035078,27.1734616 32.892128,28.7750129 33.8384282,29.1306698 L34,29.1933608 L34,34 L0,34 L0,29.1933608 L0.0351416006,29.1790488 L0.161571799,29.1306698 C1.10787203,28.7750129 5.5964922,27.1734616 7.7727343,26.3952206 L7.82604379,26.3763546 C7.81997057,26.3610089 7.81384128,26.3456658 7.80765552,26.3303265 L7.95136825,26.3305788 L5.71772925,26.3305788 C4.84962167,26.3305788 4.11313768,25.6644184 4.03801778,24.8430365 L4.03171238,24.7045313 L4.03184662,17 L5.46116889,17.0008729 L5.46116889,24.7047899 C5.46116889,24.8259649 5.54195147,24.9211583 5.65735571,24.9458835 L5.71798269,24.9521678 L13.4012889,24.9521678 Z" id="形状结合" fill="#1E35BE"></path>
                    <path d="M16.7520661,2.46501512 C21.8426773,2.46501512 25.0788092,6.76003169 25.0788092,12.2973768 C25.0788092,16.8408759 22.351723,24.65 16.7520661,24.65 C11.1524521,24.65 8.46168771,16.8408759 8.46168771,12.2973768 C8.46168771,6.76003169 11.6614978,2.46501512 16.7520661,2.46501512 Z M20.6373764,0 C20.6373764,0 20.6373764,0 28.0865897,0 C28.990604,0 29.75,0.742733961 29.75,1.66229654 C29.75,1.66229654 29.75,1.66229654 29.75,9.33712732 C29.75,9.33712732 29.75,9.33712732 28.339736,9.33712732 C28.339736,9.33712732 28.339736,9.33712732 28.339736,1.66229654 C28.339736,1.5208034 28.2312508,1.37936067 28.0865897,1.37936067 C28.0865897,1.37936067 28.0865897,1.37936067 20.6373764,1.37936067 C20.6373764,1.37936067 20.6373764,1.37936067 20.6373764,0 Z M5.91341117,0 C5.91341117,0 5.91341117,0 13.3626279,0 C13.3626279,0 13.3626279,0 13.3626279,1.37936067 C13.3626279,1.37936067 13.3626279,1.37936067 5.91341117,1.37936067 C5.76879633,1.37936067 5.66031033,1.5208034 5.66031033,1.66229654 L5.66031033,9.33712732 C5.66031033,9.33712732 5.66031033,9.33712732 4.25,9.33712732 C4.25,9.33712732 4.25,9.33712732 4.25,1.66229654 C4.25,0.742733961 5.00939774,0 5.91341117,0 Z" id="Fill-1" fill="#1E35BE"></path>
                    <path d="M13.9563507,8.5 C15.9429072,11.0917672 19.5909243,12.9734495 22.95,13.683526 C22.5165446,17.482413 20.3494236,22.95 16.5930729,22.95 C12.4032582,22.95 10.2,16.0977741 10.2,12.4053782 C11.7892296,11.9793628 13.4145618,10.2751911 13.9563507,8.5 Z" id="Fill-2" fill="#FFFFFF"></path>
                </g>
            </g>
        </g>
    </g>
</svg>