<?xml version="1.0" encoding="UTF-8"?>
<svg width="32px" height="32px" viewBox="0 0 32 32" version="1.1" xmlns="http://www.w3.org/2000/svg" xmlns:xlink="http://www.w3.org/1999/xlink">
    <title>icon_form</title>
    <g id="页面-1" stroke="none" stroke-width="1" fill="none" fill-rule="evenodd">
        <g id="功能選單" transform="translate(-66.000000, -400.000000)">
            <g id="编组备份" transform="translate(36.000000, 371.000000)">
                <g id="icon_form" transform="translate(30.000000, 29.000000)">
                    <rect id="矩形" fill="#D8D8D8" opacity="0" x="0" y="0" width="32" height="32"></rect>
                    <g id="编组" transform="translate(1.000000, 0.000000)">
                        <path d="M27.3859109,25.5183192 C27.3859109,25.5183192 27.3859109,25.5183192 28.0326978,25.5183192 C28.0326978,25.790047 28.0326978,27.1486759 28.0326978,27.1486759 C28.0326978,27.311713 27.8709978,27.4747475 27.7093043,27.4747475 C27.5476109,27.4747475 27.3859109,27.311713 27.3859109,27.1486759 C27.3859109,27.1486759 27.3859109,25.735702 27.3859109,25.5183192 Z M26.7391304,16.333983 C28.7064326,16.333983 28.7064326,16.333983 28.7064326,16.333983 C28.7064326,16.5520679 28.7064326,24.5118836 28.7064326,24.5118836 C28.7064326,24.6754521 28.5424957,24.8390012 28.3785457,24.8390012 C27.0670174,24.8390012 27.0670174,24.8390012 27.0670174,24.8390012 C26.9030674,24.8390012 26.7391304,24.6754521 26.7391304,24.5118836 C26.7391304,24.5118836 26.7391304,16.6611006 26.7391304,16.333983 Z M27.0652239,5.81818182 C27.0652239,5.81818182 27.0652239,5.81818182 28.3695652,5.81818182 C28.5326022,5.81818182 28.6956587,5.98212525 28.6956587,6.14606869 C28.6956587,6.14606869 28.6956587,6.52858828 28.6956587,7.12970343 C28.6956587,7.12970343 28.6956587,7.12970343 29.6739065,7.12970343 C29.836963,7.12970343 30,7.29364687 30,7.4575903 C30,7.4575903 30,7.4575903 30,14.0152501 C30,14.0152501 30,14.0152501 29.3478196,14.0152501 C29.3478196,14.0152501 29.3478196,14.0152501 29.3478196,7.78547717 C29.3478196,7.78547717 29.3478196,7.78547717 28.6956587,7.78547717 C28.6956587,10.463179 28.6956587,15.4907152 28.6956587,15.6546586 C28.6956587,15.6546586 28.6956587,15.6546586 26.7391304,15.6546586 C26.7391304,15.4360824 26.7391304,6.14606869 26.7391304,6.14606869 C26.7391304,5.98212525 26.9021674,5.81818182 27.0652239,5.81818182 Z" id="Fill-1" fill="#04127C"></path>
                        <path d="M22.5,3.91836444 C22.5,31.3469408 22.5,31.3469408 22.5,31.3469408 C22.5,31.7278904 22.1699283,32 21.8398565,32 C0.660146739,32 0.660146739,32 0.660146739,32 C0.33007337,32 0,31.7278904 0,31.3469408 C0,3.91836444 0,3.91836444 0,3.91836444 C0,3.53741576 0.33007337,3.26530586 0.660146739,3.26530586 C4.67603935,3.26530586 4.67603935,3.26530586 4.67603935,3.26530586 C4.67603935,2.93877657 4.67603935,2.72108606 4.67603935,2.61224727 C4.67603935,2.23129212 4.95110022,1.95918222 5.33618609,1.95918222 C9.02200435,1.74149818 8.41687174,0 11.2775087,0 C14.0831283,0 13.4779957,1.74149818 17.2188261,1.95918222 C17.5488978,1.95918222 17.8789696,2.23129212 17.8789696,2.61224727 C17.8789696,2.72108606 17.8789696,2.93877657 17.8789696,3.26530586 C21.8398565,3.26530586 21.8398565,3.26530586 21.8398565,3.26530586 C22.1699283,3.26530586 22.5,3.53741576 22.5,3.91836444 Z" id="Fill-2" fill="#04127C"></path>
                        <path d="M11.2002065,25.1262061 C10.9280348,25.1262061 10.7647304,25.3476331 10.7647304,25.5690356 C10.7647304,25.5690356 10.7647304,25.5690356 10.7647304,26.0118639 C10.7647304,26.2332858 10.9280348,26.4546903 11.2002065,26.4546903 C11.2002065,26.4546903 11.2002065,26.4546903 17.4603065,26.4546903 C17.7324783,26.4546903 17.9502196,26.2332858 17.9502196,26.0118639 L17.9502196,25.5690356 C17.9502196,25.3476331 17.7324783,25.1262061 17.4603065,25.1262061 C17.4603065,25.1262061 17.4603065,25.1262061 11.2002065,25.1262061 Z M8.09043913,24.2586182 L6.4696513,27.1596057 L5.09197304,25.8582251 L5.63223587,25.3159822 L6.4696513,26.0751218 L8.09043913,24.2586182 Z M4.98693261,23.8248275 C4.71491283,23.8248275 4.55171087,24.0432291 4.55171087,24.2616307 C4.55171087,24.2616307 4.55171087,24.2616307 4.55171087,27.3192721 C4.55171087,27.5376718 4.71491283,27.7560714 4.98693261,27.7560714 C4.98693261,27.7560714 4.98693261,27.7560714 7.97901522,27.7560714 C8.25101739,27.7560714 8.46862174,27.5376718 8.46862174,27.3192721 L8.46862174,24.2616307 C8.46862174,24.0432291 8.25101739,23.8248275 7.97901522,23.8248275 C7.97901522,23.8248275 7.97901522,23.8248275 4.98693261,23.8248275 Z M11.2002065,19.8935855 C10.9280348,19.8935855 10.7647304,20.1150061 10.7647304,20.3364137 C10.7647304,20.3364137 10.7647304,20.3364137 10.7647304,20.779242 C10.7647304,21.0006626 10.9280348,21.2220703 11.2002065,21.2220703 C11.2002065,21.2220703 11.2002065,21.2220703 17.4603065,21.2220703 C17.7324783,21.2220703 17.9502196,21.0006626 17.9502196,20.779242 L17.9502196,20.3364137 C17.9502196,20.1150061 17.7324783,19.8935855 17.4603065,19.8935855 C17.4603065,19.8935855 17.4603065,19.8935855 11.2002065,19.8935855 Z M8.09043913,19.0259976 L6.4696513,21.9269818 L5.09197304,20.6256032 L5.63223587,20.0562554 L6.4696513,20.8424986 L8.09043913,19.0259976 Z M4.98693261,18.5922069 C4.71491283,18.5922069 4.55171087,18.8106085 4.55171087,19.0290036 C4.55171087,19.0290036 4.55171087,19.0290036 4.55171087,22.0866521 C4.55171087,22.3050473 4.71491283,22.5234489 4.98693261,22.5234489 C4.98693261,22.5234489 4.98693261,22.5234489 7.97901522,22.5234489 C8.25101739,22.5234489 8.46862174,22.3050473 8.46862174,22.0866521 L8.46862174,19.0290036 C8.46862174,18.8106085 8.25101739,18.5922069 7.97901522,18.5922069 C7.97901522,18.5922069 7.97901522,18.5922069 4.98693261,18.5922069 Z M11.2002065,14.6609455 C10.9280348,14.6609455 10.7647304,14.8778408 10.7647304,15.0947362 C10.7647304,15.0947362 10.7647304,15.0947362 10.7647304,15.5285333 C10.7647304,15.7454287 10.9280348,15.962324 11.2002065,15.962324 C11.2002065,15.962324 11.2002065,15.962324 17.4603065,15.962324 C17.7324783,15.962324 17.9502196,15.7454287 17.9502196,15.5285333 L17.9502196,15.0947362 C17.9502196,14.8778408 17.7324783,14.6609455 17.4603065,14.6609455 C17.4603065,14.6609455 17.4603065,14.6609455 11.2002065,14.6609455 Z M8.09043913,13.7933576 L6.4696513,16.6943418 L5.09197304,15.365857 L5.63223587,14.8236154 L6.4696513,15.5827588 L8.09043913,13.7933576 Z M4.98693261,13.3595669 C4.71491283,13.3595669 4.55171087,13.577962 4.55171087,13.7963636 C4.55171087,13.7963636 4.55171087,13.7963636 4.55171087,16.8540121 C4.55171087,17.0724073 4.71491283,17.2908089 4.98693261,17.2908089 C4.98693261,17.2908089 4.98693261,17.2908089 7.97901522,17.2908089 C8.25101739,17.2908089 8.46862174,17.0724073 8.46862174,16.8540121 L8.46862174,13.7963636 C8.46862174,13.577962 8.25101739,13.3595669 7.97901522,13.3595669 C7.97901522,13.3595669 7.97901522,13.3595669 4.98693261,13.3595669 Z M11.2002065,9.42832485 C10.9280348,9.42832485 10.7647304,9.6452202 10.7647304,9.86211556 C10.7647304,9.86211556 10.7647304,9.86211556 10.7647304,10.2959063 C10.7647304,10.5128081 10.9280348,10.7297034 11.2002065,10.7297034 C11.2002065,10.7297034 11.2002065,10.7297034 17.4603065,10.7297034 C17.7324783,10.7297034 17.9502196,10.5128081 17.9502196,10.2959063 L17.9502196,9.86211556 C17.9502196,9.6452202 17.7324783,9.42832485 17.4603065,9.42832485 C17.4603065,9.42832485 17.4603065,9.42832485 11.2002065,9.42832485 Z M8.09043913,8.56073697 L6.4696513,11.4617212 L5.09197304,10.1332364 L5.63223587,9.59099475 L6.4696513,10.3501317 L8.09043913,8.56073697 Z M4.98693261,8.1269398 C4.71491283,8.1269398 4.55171087,8.34534141 4.55171087,8.56374303 C4.55171087,8.56374303 4.55171087,8.56374303 4.55171087,11.6213851 C4.55171087,11.8397867 4.71491283,12.0581883 4.98693261,12.0581883 C4.98693261,12.0581883 4.98693261,12.0581883 7.97901522,12.0581883 C8.25101739,12.0581883 8.46862174,11.8397867 8.46862174,11.6213851 L8.46862174,8.56374303 C8.46862174,8.34534141 8.25101739,8.1269398 7.97901522,8.1269398 C7.97901522,8.1269398 7.97901522,8.1269398 4.98693261,8.1269398 Z M2.60868913,5.17171717 C2.60868913,5.17171717 2.60868913,5.17171717 4.89130174,5.17171717 C4.89130174,5.49919677 4.89130174,5.71752727 4.89130174,5.82669576 C4.89130174,6.20875636 5.16304957,6.48165495 5.54347957,6.48165495 C5.70652826,6.48165495 17.0652261,6.48165495 17.2826087,6.48165495 C17.6087087,6.48165495 17.9347891,6.20875636 17.9347891,5.82669576 C17.9347891,5.71752727 17.9347891,5.49919677 17.9347891,5.17171717 C17.9347891,5.17171717 17.9347891,5.17171717 20.2173978,5.17171717 C20.3804283,5.17171717 20.5434783,5.33546667 20.5434783,5.49919677 C20.5434783,5.49919677 20.5434783,5.49919677 20.5434783,29.7331271 C20.5434783,29.8968747 20.3804283,30.0606061 20.2173978,30.0606061 C20.2173978,30.0606061 20.2173978,30.0606061 2.60868913,30.0606061 C2.39130783,30.0606061 2.2826087,29.8968747 2.2826087,29.7331271 C2.2826087,29.7331271 2.2826087,29.7331271 2.2826087,5.49919677 C2.2826087,5.33546667 2.39130783,5.17171717 2.60868913,5.17171717 Z" id="Fill-3" fill="#FFFFFF"></path>
                    </g>
                </g>
            </g>
        </g>
    </g>
</svg>