<?xml version="1.0" encoding="UTF-8"?>
<svg width="220px" height="345px" viewBox="0 0 220 345" version="1.1" xmlns="http://www.w3.org/2000/svg" xmlns:xlink="http://www.w3.org/1999/xlink">
    <title>icon_illustratio_atm</title>
    <defs>
        <linearGradient x1="50.37646%" y1="29.401207%" x2="49.5589069%" y2="114.966833%" id="linearGradient-1">
            <stop stop-color="#132651" offset="0%"></stop>
            <stop stop-color="#153783" offset="100%"></stop>
        </linearGradient>
        <linearGradient x1="0%" y1="49.9942163%" x2="99.996849%" y2="49.9942163%" id="linearGradient-2">
            <stop stop-color="#173578" offset="0%"></stop>
            <stop stop-color="#102862" offset="100%"></stop>
        </linearGradient>
        <linearGradient x1="-0.0150579732%" y1="50.0116944%" x2="100%" y2="50.0116944%" id="linearGradient-3">
            <stop stop-color="#0F275F" offset="0%"></stop>
            <stop stop-color="#1E408B" offset="100%"></stop>
        </linearGradient>
    </defs>
    <g id="页面-1" stroke="none" stroke-width="1" fill="none" fill-rule="evenodd">
        <g id="虹膜辨識" transform="translate(-70.000000, -295.000000)">
            <g id="icon_illustratio_atm" transform="translate(70.000000, 295.000000)">
                <g id="编组" transform="translate(69.646043, 0.000000)">
                    <polygon id="Fill-1" fill="#022891" points="127.100545 64.3383709 97.1387923 174.824611 97.1387923 341.905398 150.353957 310.954178 150.353957 51.6243299"></polygon>
                    <polygon id="Fill-2" fill="#5EB6D8" points="126.702773 65.2967854 97.1306536 174.337901 9.29153666 122.581923 38.8636556 13.5408078"></polygon>
                    <polygon id="Fill-3" fill="#0518AD" points="38.0108318 13.5573127 126.415123 65.1651377 150.353957 51.611809 61.9496655 0"></polygon>
                    <polygon id="Fill-4" fill="#5F91DC" points="8.11953601 125.637539 9.61885215 124.901258 8.11953601 124.021105"></polygon>
                    <polygon id="Fill-5" fill="#053EAD" points="9.29153666 290.227097 97.1387923 341.905398 97.1387923 206.596409 9.29153666 156.565591"></polygon>
                    <polygon id="Fill-6" fill="#042C9E" points="10.7008721 123.559872 9.29153666 124.255582 9.29153666 156.354209 97.1387923 206.49732 97.1387923 174.526639"></polygon>
                    <polygon id="Fill-7" fill="#04089A" points="84.468515 323.286787 19.4277585 284.785543 19.4277585 280.125462 84.468515 318.626706"></polygon>
                    <polygon id="Fill-8" fill="#04089A" points="84.468515 312.284881 19.4277585 273.783637 19.4277585 269.123556 84.468515 307.6248"></polygon>
                    <g>
                        <polygon id="Fill-17" fill="#042C9E" points="81.6487101 262.798479 18.1571289 225.803647 18.1571289 181.603837 81.6487101 218.598668"></polygon>
                        <g transform="translate(22.353957, 199.000000)" fill="#FFFFFF" id="Fill-1">
                            <path d="M15.5891313,27.7569637 L12.7133608,26.1009961 L11.133697,19.3524949 L4.38047093,15.4618382 L2.8768569,20.4351596 L0,18.779192 L6.36211254,0 L9.27156224,1.675475 L15.5891313,27.7569637 Z M10.4047049,16.0481461 L8.05150548,5.84032005 C7.96350494,5.4718456 7.87659084,4.85627652 7.78859031,3.99469655 L7.71362689,3.95026287 C7.64735488,4.57992068 7.55609507,5.08277993 7.44093388,5.46100812 L5.09859873,12.9930594 L10.4047049,16.0481461 Z M28.5740987,15.777209 L23.7264645,12.9854732 L23.7264645,32.4441754 L21.1016585,30.9323464 L21.1016585,11.4736442 L16.2648885,8.68732706 L16.2648885,5.70268401 L28.5740987,12.7914822 L28.5740987,15.777209 Z M46.4067004,45.5065947 L46.4067004,31.0179626 C46.4067004,29.7521444 46.4577624,28.2782466 46.5598865,26.5995204 L46.4947009,26.5605054 C46.2763292,27.682185 46.1057603,28.4007102 45.9829941,28.7149972 L40.8518026,42.3073695 L39.1417675,41.3222422 L33.9888475,21.9383186 C33.8573899,21.4473806 33.686821,20.489347 33.4771407,19.0642179 L33.4108687,19.0262867 C33.4847457,20.4199871 33.5205978,22.0737871 33.5205978,23.986603 L33.5205978,38.084002 L31.0913485,36.6848829 L31.0913485,14.2415375 L34.7406545,16.3440094 L39.3047315,33.7945259 C39.6599929,35.1589651 39.8968338,36.2557185 40.011995,37.084786 L40.0891313,37.1292197 C40.2271074,36.6003505 40.4813312,35.7723667 40.8518026,34.6420172 L45.4919294,22.5365477 L49,24.5566547 L49,47 L46.4067004,45.5065947 Z"></path>
                        </g>
                        <path d="M118.33032,53.3726261 L127.547062,48.1181504 L127.547062,165.767337 L84.7911768,190.292214 C84.7911768,190.292214 69.6618063,167.195661 66.0849828,137.029305 C71.7249023,95.4762571 118.33032,53.3726261 118.33032,53.3726261" id="Fill-25" fill="#86BFA6"></path>
                        <path d="M8.38034628,129.487118 L76.2372331,168.873742 C76.2372331,168.873742 74.7827899,154.255368 80.3752819,119.165684 C82.7664181,104.124398 87.4103602,90.9343474 91.9317812,80.7645231 L8.38034628,129.487118 Z" id="Fill-27" fill="#E8B106"></path>
                        <path d="M102.297455,61.2858586 L35.9740574,22.7929341 C35.9740574,22.7929341 17.3903844,40.79859 10.8177242,75.7167155 C4.53358131,109.082836 8.25663957,122.823469 8.25663957,122.823469 L91.9305955,80.7637252 C97.9538873,67.2066193 102.297455,61.2858586 102.297455,61.2858586" id="Fill-29" fill="#86BFA6"></path>
                        <polygon id="Fill-31" fill="#9DFFD4" points="35.3167914 5.32629085 118.330715 53.3706313 127.547458 48.1201453 44.6560554 0"></polygon>
                        <path d="M40.3694004,138.16598 L17.0508826,124.648771 L15.0352141,123.48377 L31.852213,113.677011 L42.3178799,119.813217 L57.0362122,128.443005 L40.3694004,138.16598 Z M33.0497572,106.683012 L28.6152865,109.292297 L6.83025769,122.115292 L12.5887459,125.502574 L81.0108103,165.786887 C80.8052912,155.948211 82.0739766,146.293062 84.3584009,136.602005 L33.0497572,106.683012 Z" id="Fill-33" fill="#606060"></path>
                        <polygon id="Fill-35" fill="#FFFFFF" points="42.3182752 119.814813 31.8526082 113.674617 15.0356094 123.481376 17.0473256 124.650367 40.3697956 138.167576 57.0366074 128.444601"></polygon>
                        <polygon id="Fill-37" fill="#494949" points="27.9410257 109.616263 27.9410257 91.2994078 81.6487101 122.822272 80.1745055 140.022002"></polygon>
                        <polygon id="Fill-39" fill="#989898" points="59.5554026 115.723743 36.2408371 101.995079 36.2408371 109.188564 59.5554026 122.821474"></polygon>
                        <polygon id="Fill-41" fill="#494949" points="57.4405316 116.532062 37.9201656 105.073555 37.9201656 107.906264 57.4405316 119.273008"></polygon>
                        <polygon id="Fill-43" fill="#3A3A3A" points="82.8446734 134.959433 82.8446734 128.009321 67.6441616 119.088283 67.6441616 126.038394 64.2135729 124.02358 64.2135729 126.856289 83.7378912 138.223033 83.7378912 135.482088"></polygon>
                        <polygon id="Fill-45" fill="#86BFA6" points="35.973267 22.7909392 50.1540876 42.0374015 103.213596 73.0416009 111.975826 57.3100916"></polygon>
                        <path d="M84.3576105,119.982382 L49.8462041,99.5390002 L32.5944533,89.3212992 L52.0594872,48.1193474 L89.7524879,69.4564286 L98.0167287,74.1363831 L84.3576105,119.982382 Z M50.1544828,42.0389974 L27.9426066,91.3002057 L46.3879494,102.144295 L83.6896733,124.079835 C83.6896733,124.079835 86.0254773,117.085837 88.3454722,111.196994 C90.6615149,105.308151 103.213992,73.0431968 103.213992,73.0431968 L50.1544828,42.0389974 Z" id="Fill-47" fill="#606060"></path>
                        <polygon id="Fill-49" fill="#6FC3FF" points="89.7536736 69.4580245 52.0606729 48.1169535 32.5956389 89.3228951 49.8434375 99.5405961 84.3587962 119.983978 98.0179144 74.1339892"></polygon>
                        <polygon id="Fill-51" fill="#3A3A3A" points="77.3948591 140.417784 61.5461716 131.121711 54.1277211 135.466528 77.3948591 148.947829"></polygon>
                        <polygon id="Fill-53" fill="#3A3A3A" points="78.9888182 151.346854 53.2238322 136.233753 49.4414895 138.408156 77.3960448 154.606464"></polygon>
                        <polygon id="Fill-55" fill="#494949" points="86.4574628 71.9400362 50.6971324 51.2213632 49.701155 53.212239 84.588029 73.3524009 94.591278 79.1255417 95.4765912 77.1665837"></polygon>
                        <polygon id="Fill-57" fill="#494949" points="48.4897778 55.6790896 47.4938004 57.6699654 80.2820078 76.5972491 92.3799711 83.5872578 93.2692366 81.6243102 82.1553938 75.1848844"></polygon>
                        <path d="M64.5653268,88.4423614 L39.8042228,74.0593813 L35.3183723,83.5669102 L55.3722976,95.3725241 L85.7377505,113.250509 C86.9431993,109.81934 88.3976425,106.487915 90.3737881,103.43577 L64.5653268,88.4423614 Z" id="Fill-59" fill="#FFFFFF"></path>
                        <path d="M81.4321246,110.625665 C76.6419477,129.596835 73.9741512,159.751222 73.9741512,159.751222 L14.3577914,125.028593 L8.08945765,121.37799 C8.08945765,121.37799 8.08945765,103.320467 13.0100601,80.6747542 C20.5470794,45.9561152 35.9728717,22.7917372 35.9728717,22.7917372 L100.316172,60.1356191 L100.391265,60.1795062 C100.391265,60.1795062 90.0560239,76.4576085 81.4321246,110.625665 M118.330715,53.3730251 L113.204593,50.4046653 L35.3167914,5.32469496 C35.3167914,5.32469496 13.5159534,34.6691663 5.22404657,76.6650746 C-0.241972094,104.329869 -0.245924385,126.057944 0.14930473,135.75698 C0.295539503,139.331779 0.49315406,141.286747 0.49315406,141.286747 L84.791572,190.292613 C84.791572,190.292613 81.7838785,168.125667 88.5185826,125.846488 C95.2532867,83.5673091 118.330715,53.3730251 118.330715,53.3730251" id="Fill-61" fill="#95E8C4"></path>
                        <polygon id="Fill-63" fill="#494949" points="64.5886454 25.4133894 60.4426919 32.2358294 84.8204238 46.4831587 88.9782341 39.760462"></polygon>
                        <polygon id="Fill-65" fill="#494949" points="30.611984 116.672501 32.6316048 115.49553 36.1135733 117.474437 34.113714 118.643428"></polygon>
                        <polygon id="Fill-67" fill="#494949" points="26.7833996 118.994524 28.8069726 117.817554 32.2889411 119.80045 30.2851295 120.965451"></polygon>
                        <polygon id="Fill-69" fill="#494949" points="22.502673 121.386767 24.5222938 120.209796 28.0042623 122.192693 26.004403 123.357694"></polygon>
                        <polygon id="Fill-71" fill="#494949" points="18.6740886 123.710785 20.6976617 122.533815 24.1756779 124.512721 22.1758185 125.681712"></polygon>
                        <polygon id="Fill-73" fill="#494949" points="36.2392562 119.906178 38.2588769 118.729207 41.7408454 120.712104 39.7409861 121.877105"></polygon>
                        <polygon id="Fill-75" fill="#494949" points="32.4106717 122.230595 34.4302925 121.053624 37.912261 123.036521 35.9124017 124.201522"></polygon>
                        <polygon id="Fill-77" fill="#494949" points="28.1303404 124.622838 30.1499612 123.445867 33.6319297 125.428763 31.6281181 126.593765"></polygon>
                        <polygon id="Fill-79" fill="#494949" points="24.3013607 126.944861 26.3209815 125.767891 29.80295 127.750787 27.8030907 128.915788"></polygon>
                        <polygon id="Fill-81" fill="#494949" points="42.1447696 123.383627 44.1643904 122.206657 47.6463589 124.185563 45.6464996 125.354554"></polygon>
                        <polygon id="Fill-83" fill="#494949" points="38.3157899 125.705651 40.3354107 124.52868 43.8173792 126.511576 41.8175199 127.676578"></polygon>
                        <polygon id="Fill-85" fill="#494949" points="34.0354586 128.098292 36.0550794 126.921322 39.5370479 128.904218 37.5371886 130.06922"></polygon>
                        <polygon id="Fill-87" fill="#494949" points="30.2068742 130.422311 32.2264949 129.24534 35.7084635 131.228236 33.7086041 132.393238"></polygon>
                        <polygon id="Fill-89" fill="#494949" points="47.7720417 126.617703 49.7916625 125.440733 53.273631 127.423629 51.2698194 128.58863"></polygon>
                        <polygon id="Fill-91" fill="#494949" points="43.9434573 128.941722 45.9630781 127.764751 49.4450466 129.747647 47.4451873 130.912649"></polygon>
                        <polygon id="Fill-93" fill="#494949" points="39.6627308 131.333964 41.6823515 130.156994 45.16432 132.13989 43.1605084 133.304891"></polygon>
                        <polygon id="Fill-95" fill="#494949" points="35.8341463 133.657983 37.8537671 132.481012 41.3357356 134.459919 39.331924 135.62891"></polygon>
                        <polygon id="Fill-97" fill="#494949" points="68.2322626 174.206017 11.0900371 140.903733 11.0900371 129.241749 68.2322626 162.548024"></polygon>
                        <polygon id="Fill-99" fill="#3A3A3A" points="62.1726098 162.799776 16.5908359 136.236147 16.5908359 140.904132 62.1726098 167.467761"></polygon>
                    </g>
                </g>
                <g id="编组-2" transform="translate(61.199192, 36.390921)">
                    <line x1="0.422342575" y1="46.9696772" x2="74.3322932" y2="4.23150245" id="直线-2" stroke="#FFFFFF" stroke-width="1.69096562" stroke-linecap="square" stroke-dasharray="3.381931165854136"></line>
                    <polygon id="直线" fill="#FFFFFF" fill-rule="nonzero" points="79.1500917 -4.58771964e-14 77.9488454 8.6088552 67.8001227 2.36222478"></polygon>
                </g>
                <g id="man_3" transform="translate(0.000000, 59.060913)">
                    <path d="M5.60201511,253.985639 C3.94316279,255.991104 2.43278626,258.115332 1.08294955,260.341355 C0.0812463216,261.893496 -0.243536674,263.788481 0.183977315,265.586514 C0.611491303,267.384548 1.75412995,268.929292 3.34670575,269.862236 C6.47204081,271.554837 9.44533254,272.401137 13.1366066,270.708536 C16.8278808,269.015935 19.944769,263.853502 25.3338602,262.600978 C30.7229515,261.348453 36.838472,254.831939 30.520227,250.405788 C26.254567,247.418347 5.60201511,253.985639 5.60201511,253.985639 Z" id="Path" fill="#4A2003"></path>
                    <path d="M52.7523402,264.090467 L50.4801372,274.000645 C50.4801372,274.000645 41.3406438,274.508426 39.1191219,270.175367 L42.0417325,256.482225 L52.7523402,188.642778 L43.14827,153.495918 L15.0624888,260.840673 C15.0624888,260.840673 11.3374273,263.007202 7.84043075,261.746214 C7.10555467,261.475398 7.47721614,259.401962 6.73389321,258.843403 C5.21345994,257.717824 4.53771182,259.173461 4.03934758,258.267919 L35.8586372,144.812875 L56.6378919,149.797585 L65.4226175,196.521835 L52.7523402,264.090467 Z" id="Path" fill="#EFAD81"></path>
                    <path d="M35.1913359,43.0452415 L36.6188538,34.3283465 C36.6188538,34.3283465 34.5747158,12.3245337 40.5212992,10.2003195 C46.4678827,8.07610526 59.5267151,9.88718831 59.6365242,20.5675005 C59.7463333,31.4086098 59.4844809,40.6163591 54.8218188,40.42171 C50.1591568,40.2270609 49.3144716,39.4484644 49.3144716,39.4484644 L49.4496213,47.9114693 L35.1913359,43.0452415 Z" id="Path" fill="#EFAD81"></path>
                    <path d="M56.1310808,23.131791 C56.1310808,23.131791 59.2564159,23.6311083 63.2433298,19.0356966 C70.5414095,10.6319327 59.6196305,-9.91624316 48.8836822,5.68953788 C47.3294615,7.94069719 42.185329,5.56259281 37.2523677,9.41326004 C28.8055162,16.0313299 35.9177652,31.5355548 34.0847984,33.8036402 C32.2518316,36.0717255 50.2436253,41.2933995 48.7992137,32.5257264 C47.9545286,27.4479235 49.9057512,22.0569894 50.7082021,27.3294414 C51.510653,32.6018935 53.8842183,31.4424618 54.6190944,28.6496702 C55.3539705,25.8568786 54.2051987,23.8003684 56.1310808,23.131791 Z" id="Path" fill="#000000"></path>
                    <path d="M17.1995422,124.222385 L19.1761055,183.590364 L4.03934758,249.441005 C4.03934758,249.441005 7.48566299,255.204311 22.842039,253.672507 C22.842039,253.672507 39.8455511,194.6769 41.4926871,192.171851 C43.1398232,189.666801 46.0877744,169.601017 46.0877744,169.601017 C46.0877744,169.601017 48.6218298,200.567152 47.8616132,203.833872 C47.1013965,207.100592 39.1022282,263.007202 39.1022282,263.007202 C39.1022282,263.007202 42.3289254,270.69161 56.7814884,268.457377 C56.7814884,268.457377 72.3490357,204.036984 72.3490357,198.002861 L72.3490357,133.430134 L17.1995422,124.222385 Z" id="Path" fill="url(#linearGradient-1)"></path>
                    <path d="M51.8316334,270.581591 C51.8316334,270.581591 44.4152978,270.97089 42.979333,270.01457 C41.5433683,269.05825 41.2054942,266.934036 40.0313818,266.840943 C38.8572695,266.74785 33.9412019,274.398406 33.8736271,279.907823 C33.8736271,283.411507 38.1899682,286.864413 47.8616132,285.713444 C58.9438824,284.393215 57.9049196,286.745931 67.5850114,284.723272 C77.2651033,282.700614 73.9708312,276.827289 68.3114407,276.260268 C62.6520502,275.693246 57.2207247,274.728464 55.1850334,273.188197 C53.1493422,271.64793 51.8316334,270.581591 51.8316334,270.581591 Z" id="Path" fill="#4A2003"></path>
                    <path d="M15.7044495,46.2019423 C15.7044495,46.2019423 5.91454861,82.4236033 5.91454861,86.9343849 C5.91454861,91.4451665 17.385373,119.36462 17.385373,119.36462 C17.385373,119.36462 26.5079726,58.8879867 15.7044495,46.2019423 Z" id="Path" fill="url(#linearGradient-2)"></path>
                    <path d="M96.5028729,148.354263 C96.5028729,148.354263 98.3527334,147.050961 97.634751,146.010011 C96.9167686,144.969061 95.0500144,145.578398 95.0500144,145.578398 C96.2325736,143.885797 96.4606386,142.193196 93.4704532,143.039496 C92.8115988,143.217219 91.7050612,143.55574 90.5309489,143.885797 C89.8906081,143.459547 89.2185113,143.083245 88.5205982,142.760217 C87.3042516,142.235511 85.1418576,145.002913 84.2971725,146.145419 L79.2290615,148.819729 L78.3336953,158.382924 C80.9675726,158.505846 83.6068421,158.440799 86.2315014,158.188275 C88.5797262,157.773588 96.1903394,154.303756 96.6718099,152.619618 C97.1532804,150.93548 95.5737192,151.477112 95.5737192,151.477112 C95.5737192,151.477112 97.5587293,150.495404 97.5840699,149.259805 C97.6157874,148.97748 97.5039971,148.698047 97.2864349,148.51583 C97.0688727,148.333614 96.7745705,148.27293 96.5028729,148.354263 L96.5028729,148.354263 Z" id="Path" fill="#EFAD81" transform="translate(88.066999, 150.568992) rotate(95.000000) translate(-88.066999, -150.568992) "></path>
                    <path d="M80.7360803,147.436407 C86.449929,146.162542 92.1487162,142.969544 92.1487162,142.969544 L80.7360803,109.812829 C80.7360803,109.812829 68.750677,57.3561828 65.4226175,53.6239976 C62.094558,49.8918125 50.0240072,43.6545779 50.0240072,43.6545779 C50.0240072,43.6545779 39.566805,47.0397798 34.9717178,38.4244408 C34.9717178,38.4244408 20.7472199,39.6177245 19.2690208,40.1932089 C17.7908218,40.7686932 10.6532323,50.6788719 15.8227054,73.8421163 C20.9921785,97.0053608 12.8240731,124.620146 12.8240731,124.620146 C12.8240731,124.620146 35.7826155,148.468894 74.8070695,136.654539 L64.2231645,90.3280499 C64.2231645,90.3280499 80.186695,147.558889 80.7360803,147.436407 Z" id="Path" fill="url(#linearGradient-3)"></path>
                </g>
            </g>
        </g>
    </g>
</svg>