<?xml version="1.0" encoding="UTF-8"?>
<svg width="216px" height="290px" viewBox="0 0 216 290" version="1.1" xmlns="http://www.w3.org/2000/svg" xmlns:xlink="http://www.w3.org/1999/xlink">
    <title>icon_completed</title>
    <defs>
        <rect id="path-1" x="24" y="24" width="167.845304" height="112.644628" rx="2.4"></rect>
        <filter x="-0.6%" y="-0.9%" width="101.2%" height="101.8%" filterUnits="objectBoundingBox" id="filter-2">
            <feOffset dx="0" dy="2" in="SourceAlpha" result="shadowOffsetInner1"></feOffset>
            <feComposite in="shadowOffsetInner1" in2="SourceAlpha" operator="arithmetic" k2="-1" k3="1" result="shadowInnerInner1"></feComposite>
            <feColorMatrix values="0 0 0 0 0   0 0 0 0 0   0 0 0 0 0  0 0 0 0.5 0" type="matrix" in="shadowInnerInner1" result="shadowMatrixInner1"></feColorMatrix>
            <feOffset dx="0" dy="-2" in="SourceAlpha" result="shadowOffsetInner2"></feOffset>
            <feComposite in="shadowOffsetInner2" in2="SourceAlpha" operator="arithmetic" k2="-1" k3="1" result="shadowInnerInner2"></feComposite>
            <feColorMatrix values="0 0 0 0 0   0 0 0 0 0   0 0 0 0 0  0 0 0 0.5 0" type="matrix" in="shadowInnerInner2" result="shadowMatrixInner2"></feColorMatrix>
            <feOffset dx="2" dy="0" in="SourceAlpha" result="shadowOffsetInner3"></feOffset>
            <feComposite in="shadowOffsetInner3" in2="SourceAlpha" operator="arithmetic" k2="-1" k3="1" result="shadowInnerInner3"></feComposite>
            <feColorMatrix values="0 0 0 0 0   0 0 0 0 0   0 0 0 0 0  0 0 0 0.5 0" type="matrix" in="shadowInnerInner3" result="shadowMatrixInner3"></feColorMatrix>
            <feOffset dx="-2" dy="0" in="SourceAlpha" result="shadowOffsetInner4"></feOffset>
            <feComposite in="shadowOffsetInner4" in2="SourceAlpha" operator="arithmetic" k2="-1" k3="1" result="shadowInnerInner4"></feComposite>
            <feColorMatrix values="0 0 0 0 0   0 0 0 0 0   0 0 0 0 0  0 0 0 0.5 0" type="matrix" in="shadowInnerInner4" result="shadowMatrixInner4"></feColorMatrix>
            <feMerge>
                <feMergeNode in="shadowMatrixInner1"></feMergeNode>
                <feMergeNode in="shadowMatrixInner2"></feMergeNode>
                <feMergeNode in="shadowMatrixInner3"></feMergeNode>
                <feMergeNode in="shadowMatrixInner4"></feMergeNode>
            </feMerge>
        </filter>
        <rect id="path-3" x="63" y="199" width="91.1160221" height="26.3636364" rx="2.4"></rect>
        <filter x="-2.2%" y="-7.6%" width="104.4%" height="115.2%" filterUnits="objectBoundingBox" id="filter-4">
            <feOffset dx="0" dy="4" in="SourceAlpha" result="shadowOffsetInner1"></feOffset>
            <feComposite in="shadowOffsetInner1" in2="SourceAlpha" operator="arithmetic" k2="-1" k3="1" result="shadowInnerInner1"></feComposite>
            <feColorMatrix values="0 0 0 0 0.654685611   0 0 0 0 0.681788735   0 0 0 0 0.717926233  0 0 0 1 0" type="matrix" in="shadowInnerInner1"></feColorMatrix>
        </filter>
        <path d="M18.1823204,234 L197.81768,234 L213.788368,283.732382 C214.598912,286.256395 213.209869,288.959588 210.685855,289.770131 C210.211542,289.922448 209.716408,290 209.218237,290 L6.60515449,290 C3.95418759,290 1.8051543,287.850967 1.8051543,285.2 C1.8051543,284.696652 1.8843261,284.196436 2.03976729,283.71769 L18.1823204,234 L18.1823204,234 Z" id="path-5"></path>
        <filter x="-0.5%" y="-1.8%" width="100.9%" height="103.6%" filterUnits="objectBoundingBox" id="filter-6">
            <feOffset dx="0" dy="-2" in="SourceAlpha" result="shadowOffsetInner1"></feOffset>
            <feComposite in="shadowOffsetInner1" in2="SourceAlpha" operator="arithmetic" k2="-1" k3="1" result="shadowInnerInner1"></feComposite>
            <feColorMatrix values="0 0 0 0 0   0 0 0 0 0   0 0 0 0 0  0 0 0 1 0" type="matrix" in="shadowInnerInner1"></feColorMatrix>
        </filter>
    </defs>
    <g id="页面-1" stroke="none" stroke-width="1" fill="none" fill-rule="evenodd">
        <g id="提款完成" transform="translate(-72.000000, -169.000000)">
            <g id="icon_completed" transform="translate(72.000000, 169.000000)">
                <rect id="Rectangle-6" fill="#1B7C18" x="23" y="27" width="170.243094" height="110.247934"></rect>
                <rect id="Rectangle-2" fill="#696F7A" x="0" y="0" width="215.801105" height="254" rx="6"></rect>
                <path d="M209.801105,0 C213.114813,1.49952819e-14 215.801105,2.6862915 215.801105,6 L215.801105,284 C215.801105,287.313708 213.114813,290 209.801105,290 L204.817,290 L204.81768,13.3752067 C204.81768,12.1049517 203.83084,11.0651854 202.581998,10.9807435 L202.417679,10.9752066 L13.3834255,10.9752066 C12.0579421,10.9752066 10.9834254,12.0497233 10.9834254,13.3752067 L10.983,290 L6,290 C2.6862915,290 -1.37054459e-15,287.313708 0,284 L0,6 C4.82366169e-16,2.6862915 2.6862915,-4.72035214e-15 6,0 L209.801105,0 Z" id="Combined-Shape" fill="#A5A6A6"></path>
                <g id="Rectangle-2-Copy">
                    <use fill="#49505B" fill-rule="evenodd" xlink:href="#path-1"></use>
                    <use fill="black" fill-opacity="1" filter="url(#filter-2)" xlink:href="#path-1"></use>
                </g>
                <g id="icon_checkbox_check备份" transform="translate(84.000000, 34.000000)" fill-rule="nonzero">
                    <rect id="矩形" fill="#000000" opacity="0" x="0" y="0" width="52" height="52"></rect>
                    <path d="M49.6785714,7.62489777 C47.7285714,6.32489777 44.8035714,6.97489777 43.1785714,8.59989777 L19.1285714,31.9998978 L18.8035714,31.9998978 L8.72857143,22.2498978 C7.10357143,20.6248978 4.17857143,19.9748978 2.22857143,21.2748978 C-0.371428571,22.8998978 -0.696428571,26.7998978 1.25357143,28.7498978 L11.6535714,39.1498978 L16.2035714,43.6998978 C17.5035714,44.9998978 19.4535714,44.9998978 20.7535714,43.6998978 L25.9535714,39.1498978 L50.3285714,15.0998978 C52.6035714,12.8248978 52.2785714,9.24989777 49.6785714,7.62489777 Z" id="路径" fill="#FFFFFF"></path>
                </g>
                <text id="Completed备份" font-family="MicrosoftJhengHeiBold, Microsoft JhengHei" font-size="16" font-weight="bold" line-spacing="26" fill="#FFFFFF">
                    <tspan x="65.1054688" y="106">Completed</tspan>
                </text>
                <g id="Rectangle-2-Copy-2">
                    <use fill="#DDE2EA" fill-rule="evenodd" xlink:href="#path-3"></use>
                    <use fill="black" fill-opacity="1" filter="url(#filter-4)" xlink:href="#path-3"></use>
                </g>
                <rect id="Rectangle-2-Copy-3" fill="#27B323" x="148" y="141.578512" width="38.3646409" height="21" rx="1.20000005"></rect>
                <rect id="Rectangle-8-Copy" fill="#989898" x="25" y="142" width="48" height="12" rx="1.20000005"></rect>
                <rect id="Rectangle" fill="#494949" x="27" y="146" width="44" height="4.79338843" rx="1.2"></rect>
                <g id="Rectangle-15">
                    <use fill="#606060" fill-rule="evenodd" xlink:href="#path-5"></use>
                    <use fill="black" fill-opacity="1" filter="url(#filter-6)" xlink:href="#path-5"></use>
                </g>
                <rect id="Rectangle-8-Copy-2" fill="#49505B" x="154" y="149" width="26.3756906" height="4.79338843" rx="1.2"></rect>
                <path d="M29.9327777,240 L84.6115806,240 C86.9658412,240 88.9726142,241.70744 89.3496313,244.031316 L94.9855329,278.770159 C95.4100653,281.386912 93.6329192,283.852361 91.016166,284.276894 C90.7620143,284.318126 90.5049569,284.338843 90.2474822,284.338843 L19.5959628,284.338843 C16.944996,284.338843 14.7959628,282.18981 14.7959628,279.538843 C14.7959628,279.075291 14.863111,278.614184 14.9953158,278.169884 L25.3321308,243.431041 C25.9378096,241.395542 27.8090768,240 29.9327777,240 Z" id="Rectangle-5" fill="#FFFFFF"></path>
                <path d="M38.0684677,243 L45.2040564,243 C46.3269279,243 47.1844374,243.947809 47.1193575,245.116991 L46.9290382,248.536139 C46.8639583,249.705321 45.8593937,250.65313 44.6852804,250.65313 L37.2240615,250.65313 C36.0499482,250.65313 35.2142082,249.705321 35.3573839,248.536139 L35.7760863,245.116991 C35.9192621,243.947809 36.9455962,243 38.0684677,243 Z M53.0042891,243 L60.1398778,243 C61.2627493,243 62.2046711,243.947809 62.243719,245.116991 L62.3579106,248.536139 C62.3969585,249.705321 61.4768062,250.65313 60.3026928,250.65313 L52.841474,250.65313 C51.6673607,250.65313 50.7472084,249.705321 50.7862563,248.536139 L50.9004479,245.116991 C50.9394958,243.947809 51.8814176,243 53.0042891,243 Z M37.01296,252.566412 L44.5555864,252.566412 C45.7425102,252.566412 46.6519443,253.514221 46.5868644,254.683403 L46.3965452,258.102551 C46.3314653,259.271733 45.274976,260.219542 44.0368103,260.219542 L36.1685538,260.219542 C34.9303882,260.219542 34.0427235,259.271733 34.1858993,258.102551 L34.6046017,254.683403 C34.7477774,253.514221 35.8260362,252.566412 37.01296,252.566412 Z M52.8007703,252.566412 L60.3433966,252.566412 C61.5303204,252.566412 62.5241669,253.514221 62.5632148,254.683403 L62.6774064,258.102551 C62.7164543,259.271733 61.7443773,260.219542 60.5062117,260.219542 L52.6379552,260.219542 C51.3997895,260.219542 50.4277125,259.271733 50.4667605,258.102551 L50.580952,254.683403 C50.62,253.514221 51.6138464,252.566412 52.8007703,252.566412 Z M35.9574523,262.132824 L43.9071163,262.132824 C45.1580925,262.132824 46.1194513,263.080633 46.0543714,264.249815 L45.8640521,267.668963 C45.7989722,268.838145 44.6905583,269.785954 43.3883403,269.785954 L35.1130462,269.785954 C33.8108282,269.785954 32.8712388,268.838145 33.0144146,267.668963 L33.433117,264.249815 C33.5762928,263.080633 34.7064762,262.132824 35.9574523,262.132824 Z M35.2284158,272.132824 L43.751899,272.132824 C45.0931725,272.132824 46.1239238,273.080633 46.0541463,274.249815 L45.8500895,277.668963 C45.780312,278.838145 44.591891,279.785954 43.1956769,279.785954 L34.3230591,279.785954 C32.926845,279.785954 31.9194347,278.838145 32.0729451,277.668963 L32.5218701,274.249815 C32.6753805,273.080633 33.8871423,272.132824 35.2284158,272.132824 Z M77.8865642,272.132824 L69.363081,272.132824 C68.0218075,272.132824 66.9910563,273.080633 67.0608337,274.249815 L67.2648906,277.668963 C67.334668,278.838145 68.523089,279.785954 69.9193031,279.785954 L78.7919209,279.785954 C80.188135,279.785954 81.1955454,278.838145 81.042035,277.668963 L80.59311,274.249815 C80.4395996,273.080633 79.2278377,272.132824 77.8865642,272.132824 Z M52.5972514,262.132824 L60.5469154,262.132824 C61.7978916,262.132824 62.8436627,263.080633 62.8827106,264.249815 L62.9969022,267.668963 C63.0359502,268.838145 62.0119485,269.785954 60.7097305,269.785954 L52.4344364,269.785954 C51.1322184,269.785954 50.1082167,268.838145 50.1472647,267.668963 L50.2614562,264.249815 C50.3005042,263.080633 51.3462753,262.132824 52.5972514,262.132824 Z M52.3937326,271.699236 L60.7504343,271.699236 C62.0654627,271.699236 63.1631585,272.647046 63.2022065,273.816227 L63.316398,277.235375 C63.355446,278.404557 62.2795197,279.352366 60.9132494,279.352366 L52.2309175,279.352366 C50.8646472,279.352366 49.7887209,278.404557 49.8277688,277.235375 L49.9419604,273.816227 C49.9810083,272.647046 51.0787041,271.699236 52.3937326,271.699236 Z M67.9401105,243 L75.0756992,243 C76.1985707,243 77.2249048,243.947809 77.3680805,245.116991 L77.7867829,248.536139 C77.9299587,249.705321 77.0942187,250.65313 75.9201053,250.65313 L68.4588865,250.65313 C67.2847732,250.65313 66.2802086,249.705321 66.2151287,248.536139 L66.0248094,245.116991 C65.9597295,243.947809 66.817239,243 67.9401105,243 Z M68.5885805,252.566412 L76.1312069,252.566412 C77.3181307,252.566412 78.3963894,253.514221 78.5395652,254.683403 L78.9582676,258.102551 C79.1014434,259.271733 78.2137787,260.219542 76.975613,260.219542 L69.1073565,260.219542 C67.8691909,260.219542 66.8127016,259.271733 66.7476217,258.102551 L66.5573024,254.683403 C66.4922225,253.514221 67.4016567,252.566412 68.5885805,252.566412 Z M69.2370505,262.132824 L77.1867146,262.132824 C78.4376907,262.132824 79.5678741,263.080633 79.7110499,264.249815 L80.1297523,267.668963 C80.2729281,268.838145 79.3333387,269.785954 78.0311207,269.785954 L69.7558266,269.785954 C68.4536086,269.785954 67.3451946,268.838145 67.2801147,267.668963 L67.0897955,264.249815 C67.0247156,263.080633 67.9860744,262.132824 69.2370505,262.132824 Z" id="Combined-Shape" fill="#494949"></path>
                <path d="M139.874588,243 L198.57925,243 C199.904734,243 200.97925,244.074517 200.97925,245.4 C200.97925,245.546517 200.965833,245.692727 200.939167,245.836797 L195.501213,275.216844 C195.290637,276.354543 194.298319,277.180047 193.141296,277.180047 L131.677021,277.180047 C130.351537,277.180047 129.277021,276.105531 129.277021,274.780047 C129.277021,274.562032 129.306727,274.345034 129.365319,274.13504 L137.562886,244.754993 C137.852353,243.717546 138.797515,243 139.874588,243 Z" id="Rectangle-12" fill="#000000" transform="translate(164.989968, 260.090024) scale(-1, 1) translate(-164.989968, -260.090024) "></path>
                <rect id="矩形" fill="#494949" x="18" y="170" width="180" height="64"></rect>
                <rect id="Rectangle-8-Copy备份" fill="#6C6C6C" x="35" y="181" width="28" height="12" rx="1.20000005"></rect>
                <path d="M36.7705217,178 L60.8318911,178 C61.4946328,178 62.0318911,178.537258 62.0318911,179.2 C62.0318911,179.471037 61.9401361,179.734092 61.7715664,179.946331 L56.6936569,186.33972 C56.4660124,186.626338 56.1200034,186.793388 55.7539816,186.793388 L42.2205612,186.793388 C41.8691144,186.793388 41.5353328,186.639322 41.3073387,186.371864 L35.8572992,179.978476 C35.4273588,179.474117 35.4876869,178.716718 35.9920458,178.286778 C36.2091904,178.101673 36.4851876,178 36.7705217,178 Z" id="Rectangle备份" fill="#1D1D1D"></path>
            </g>
        </g>
    </g>
</svg>