<?xml version="1.0" encoding="UTF-8"?><svg version="1.1" width="140px" height="37px" viewBox="0 0 140.0 37.0" xmlns="http://www.w3.org/2000/svg" xmlns:xlink="http://www.w3.org/1999/xlink"><defs><clipPath id="i0"><path d="M360,0 L360,780 L0,780 L0,0 L360,0 Z"></path></clipPath><clipPath id="i1"><path d="M139.525867,0.865924361 L139.525867,5.81378815 C128.5354,3.69671116 116.926133,4.22355204 112.9814,9.22877164 C110.516467,12.3426371 110.165533,15.4403135 110.165533,18.0481527 C110.165533,22.7485539 111.787667,29.8791763 121.423867,31.2649667 C127.710333,32.1794219 133.9338,31.4856016 139.999533,30.3902906 L139.999533,36.0583399 C131.957467,37.1462501 123.820667,37.2540235 115.667533,36.5745422 C110.894933,36.1568624 106.2194,35.1836638 101.934933,32.9662141 C96.5253333,30.1876951 94.8019333,23.9423874 94.8742667,18.2812763 C94.934,13.0558844 96.502,7.47710667 101.206,4.43863633 C104.289733,2.43257059 107.583,1.77482895 111.082533,1.14576521 C120.6352,-0.523103868 130.206533,-0.146590722 139.525867,0.865924361 Z M91.9716,1.13605173 L91.9716,6.07466458 L65.2446667,6.07466458 L65.2446667,14.9051467 L89.6042,14.9051467 L89.6042,19.7253476 L65.2446667,19.7253476 C65.2446667,22.3336494 65.3314667,25.291174 65.3566667,25.8235654 C65.4994667,29.1862811 67.0730667,30.423594 71.1746,30.6636558 L92.4728,30.6636558 L92.4728,35.8460309 C81.9994,36.2456714 71.9366667,36.419589 61.3564,35.9838698 C52.3786667,35.6166076 50.8321333,31.1419293 50.6585333,26.8434813 L50.6585333,1.13605173 L91.9716,1.13605173 Z M11.2672,1.13697682 C13.8446,1.13697682 16.8826,3.52279354 18.2373333,4.83503899 L38.0053333,26.5594775 L38.0053333,1.13697682 L44.7206667,1.13697682 L44.7206667,35.8219784 L32.9648667,35.8219784 C30.8704667,35.7521339 28.8143333,35.3252031 26.418,32.9916542 L6.68266667,11.2274366 L6.68266667,35.8219784 L0,35.8219784 L0,1.13697682 L11.2672,1.13697682 Z"></path></clipPath></defs><g transform="translate(-110.0 -160.0)"><g clip-path="url(#i0)"><g transform="translate(110.0 160.0)"><g clip-path="url(#i1)"><polygon points="0,0 140,0 140,37 0,37 0,0" stroke="none" fill="#FFFFFF"></polygon></g></g></g></g></svg>