<svg width="124" height="295" viewBox="0 0 124 295" fill="none" xmlns="http://www.w3.org/2000/svg">
<g filter="url(#filter0_d_51_71)">
<path d="M62.9288 85.5102C44.4233 96.6466 25.9178 107.794 7.41222 118.942C6.87745 118.453 7.03342 117.92 7.03342 117.465C7.03342 102.798 7.03342 88.1305 7 73.4633C7 72.2753 7.45679 71.7201 8.47064 71.2316C18.1301 66.4795 27.5667 61.3055 36.6579 55.543C48.2336 48.2149 59.2299 40.1319 69.4687 31.0051C77.379 23.9658 84.7099 16.3713 91.4614 8.24381C92.2302 7.32226 92.9878 6.98916 94.1465 7.00027C99.5722 7.04468 104.998 7.02247 110.424 7.02247C110.803 7.02247 111.17 7.02247 111.549 7.05578C111.984 7.08909 112.218 7.33336 112.218 7.77748C112.218 8.15499 112.217 8.52139 112.229 8.8989C112.273 23.7548 112.34 38.5996 112.362 53.4556C112.385 71.2982 112.173 89.1409 112.429 106.972C112.674 123.683 112.429 140.393 112.619 157.114C112.908 184.272 112.518 211.43 112.808 238.588C112.964 252.945 112.864 267.29 112.975 281.646C112.997 283.989 113.332 284 110.68 284C95.7842 284 80.8773 284 65.9815 284C65.4245 284 64.8563 284 64.2992 283.956C63.8758 283.922 63.6084 283.678 63.731 283.201C64.2435 281.158 63.6307 279.126 63.6419 277.083C63.6753 258.185 63.7756 239.288 63.6419 220.39C63.419 190.434 63.7644 160.478 63.4636 130.522C63.3188 116.044 63.4302 101.576 63.2854 87.0979C63.2854 86.6316 63.4525 86.1097 62.9511 85.5435L62.9288 85.5102Z" fill="#BAD59B"/>
<path d="M62.9288 85.5102C44.4233 96.6466 25.9178 107.794 7.41222 118.942C6.87745 118.453 7.03342 117.92 7.03342 117.465C7.03342 102.798 7.03342 88.1305 7 73.4633C7 72.2753 7.45679 71.7201 8.47064 71.2316C18.1301 66.4795 27.5667 61.3055 36.6579 55.543C48.2336 48.2149 59.2299 40.1319 69.4687 31.0051C77.379 23.9658 84.7099 16.3713 91.4614 8.24381C92.2302 7.32226 92.9878 6.98916 94.1465 7.00027C99.5722 7.04468 104.998 7.02247 110.424 7.02247C110.803 7.02247 111.17 7.02247 111.549 7.05578C111.984 7.08909 112.218 7.33336 112.218 7.77748C112.218 8.15499 112.217 8.52139 112.229 8.8989C112.273 23.7548 112.34 38.5996 112.362 53.4556C112.385 71.2982 112.173 89.1409 112.429 106.972C112.674 123.683 112.429 140.393 112.619 157.114C112.908 184.272 112.518 211.43 112.808 238.588C112.964 252.945 112.864 267.29 112.975 281.646C112.997 283.989 113.332 284 110.68 284C95.7842 284 80.8773 284 65.9815 284C65.4245 284 64.8563 284 64.2992 283.956C63.8758 283.922 63.6084 283.678 63.731 283.201C64.2435 281.158 63.6307 279.126 63.6419 277.083C63.6753 258.185 63.7756 239.288 63.6419 220.39C63.419 190.434 63.7644 160.478 63.4636 130.522C63.3188 116.044 63.4302 101.576 63.2854 87.0979C63.2854 86.6316 63.4525 86.1097 62.9511 85.5435L62.9288 85.5102Z" stroke="#20523B" stroke-miterlimit="10"/>
</g>
<defs>
<filter id="filter0_d_51_71" x="0.5" y="0.5" width="123" height="294" filterUnits="userSpaceOnUse" color-interpolation-filters="sRGB">
<feFlood flood-opacity="0" result="BackgroundImageFix"/>
<feColorMatrix in="SourceAlpha" type="matrix" values="0 0 0 0 0 0 0 0 0 0 0 0 0 0 0 0 0 0 127 0" result="hardAlpha"/>
<feOffset dx="2" dy="2"/>
<feGaussianBlur stdDeviation="4"/>
<feComposite in2="hardAlpha" operator="out"/>
<feColorMatrix type="matrix" values="0 0 0 0 0 0 0 0 0 0 0 0 0 0 0 0 0 0 0.12 0"/>
<feBlend mode="normal" in2="BackgroundImageFix" result="effect1_dropShadow_51_71"/>
<feBlend mode="normal" in="SourceGraphic" in2="effect1_dropShadow_51_71" result="shape"/>
</filter>
</defs>
</svg>
