<svg width="24" height="25" viewBox="0 0 24 25" fill="none" xmlns="http://www.w3.org/2000/svg">
<path d="M2.3999 2.7876C1.84762 2.7876 1.3999 3.23531 1.3999 3.7876C1.3999 4.33988 1.84762 4.7876 2.3999 4.7876V2.7876ZM4.69244 3.7876L5.65767 3.52618C5.53961 3.09028 5.14405 2.7876 4.69244 2.7876V3.7876ZM8.41781 17.5428L7.45259 17.8042C7.58285 18.2852 8.04737 18.5969 8.54185 18.5351L8.41781 17.5428ZM19.8805 16.11L20.0045 17.1023C20.4292 17.0492 20.773 16.7317 20.8598 16.3126L19.8805 16.11ZM21.5999 7.79954L22.5792 8.00214C22.6401 7.70763 22.5652 7.40133 22.3753 7.16811C22.1854 6.9349 21.9007 6.79954 21.5999 6.79954V7.79954ZM5.77901 7.79954L4.81378 8.06095L5.77901 7.79954ZM2.3999 4.7876H4.69244V2.7876H2.3999V4.7876ZM8.54185 18.5351L20.0045 17.1023L19.7565 15.1177L8.29378 16.5505L8.54185 18.5351ZM20.8598 16.3126L22.5792 8.00214L20.6206 7.59693L18.9012 15.9074L20.8598 16.3126ZM3.72721 4.04901L4.81378 8.06095L6.74423 7.53812L5.65767 3.52618L3.72721 4.04901ZM4.81378 8.06095L7.45259 17.8042L9.38304 17.2814L6.74423 7.53812L4.81378 8.06095ZM21.5999 6.79954H5.77901V8.79954H21.5999V6.79954ZM10.9999 21.2949C10.9999 21.571 10.776 21.7949 10.4999 21.7949V23.7949C11.8806 23.7949 12.9999 22.6756 12.9999 21.2949H10.9999ZM10.4999 21.7949C10.2238 21.7949 9.9999 21.571 9.9999 21.2949H7.9999C7.9999 22.6756 9.11919 23.7949 10.4999 23.7949V21.7949ZM9.9999 21.2949C9.9999 21.0187 10.2238 20.7949 10.4999 20.7949V18.7949C9.11919 18.7949 7.9999 19.9142 7.9999 21.2949H9.9999ZM10.4999 20.7949C10.776 20.7949 10.9999 21.0187 10.9999 21.2949H12.9999C12.9999 19.9142 11.8806 18.7949 10.4999 18.7949V20.7949ZM18.9999 21.2949C18.9999 21.571 18.776 21.7949 18.4999 21.7949V23.7949C19.8806 23.7949 20.9999 22.6756 20.9999 21.2949H18.9999ZM18.4999 21.7949C18.2238 21.7949 17.9999 21.571 17.9999 21.2949H15.9999C15.9999 22.6756 17.1192 23.7949 18.4999 23.7949V21.7949ZM17.9999 21.2949C17.9999 21.0187 18.2238 20.7949 18.4999 20.7949V18.7949C17.1192 18.7949 15.9999 19.9142 15.9999 21.2949H17.9999ZM18.4999 20.7949C18.776 20.7949 18.9999 21.0187 18.9999 21.2949H20.9999C20.9999 19.9142 19.8806 18.7949 18.4999 18.7949V20.7949Z" fill="white"/>
</svg>
