<?xml version="1.0" encoding="UTF-8"?>
<svg id="_图层_1" data-name="图层 1" xmlns="http://www.w3.org/2000/svg" xmlns:xlink="http://www.w3.org/1999/xlink" viewBox="0 0 47 72.02">
  <defs>
    <style>
      .cls-1 {
        fill: none;
      }

      .cls-2 {
        fill: #245f41;
      }

      .cls-3 {
        clip-path: url(#clippath);
      }
    </style>
    <clipPath id="clippath">
      <rect class="cls-1" x="0" y="0" width="47" height="72"/>
    </clipPath>
  </defs>
  <g class="cls-3">
    <g>
      <path class="cls-2" d="M23.02,19.93c.29.18.68.18.97,0,3.37-2.02,5.63-5.7,5.63-9.9S27.36,2.15,23.99.13c-.29-.18-.68-.18-.97,0-3.37,2.01-5.63,5.7-5.63,9.9s2.26,7.88,5.63,9.9h0Z"/>
      <path class="cls-2" d="M16.87,30.82c.31-.15.51-.48.51-.82.06-3.92-1.89-7.77-5.47-9.99-3.58-2.22-7.91-2.24-11.4-.45C.2,19.72,0,20.05,0,20.39c-.06,3.92,1.89,7.77,5.47,9.99,3.58,2.22,7.91,2.24,11.4.45Z"/>
      <path class="cls-2" d="M46.49,19.56c-3.5-1.8-7.82-1.77-11.4.45-3.58,2.22-5.53,6.07-5.47,9.99,0,.35.21.67.51.82,3.5,1.8,7.82,1.77,11.4-.45,3.58-2.22,5.53-6.06,5.47-9.99,0-.34-.21-.66-.51-.82Z"/>
      <path class="cls-2" d="M40.16,57.22c-6.48,0-11.03-1.52-13.52-4.51-1.01-1.21-1.54-2.52-1.81-3.68,0,0,0,0,0,.02,2.06,2.47,5.95,3.73,11.58,3.73.43,0,.78-.35.78-.78s-.35-.78-.78-.78c-5.04,0-8.63-1.09-10.36-3.14-.49-.58-.76-1.16-.93-1.68.2-.31.32-.69.3-1.15l-1.01-18.86c-.08-1.14-1.77-1.14-1.84,0,0,.31-1.03,18.74-1.01,19.07.04.45.18.81.41,1.09-.18.49-.44,1.01-.88,1.54-1.73,2.06-5.32,3.14-10.36,3.14-.43,0-.78.35-.78.78s.35.78.78.78c5.63,0,9.52-1.25,11.58-3.73,0,0,0,0,0-.02-.27,1.16-.8,2.46-1.81,3.68-2.49,2.99-7.05,4.51-13.52,4.51-.43,0-.78.35-.78.78s.35.78.78.78c6.79,0,11.67-1.63,14.5-4.83-1.31,3.74-4.28,8.75-10.85,9.5-.42.05-.73.43-.69.86.05.39.38.68.77.68h.09c6.05-.69,9.36-4.58,11.16-8.22-1.11,5.37-3.55,11.18-8.82,13.93-.35.18-.48.61-.29.94.12.24.37.38.62.38.11,0,.22-.02.32-.08,4.97-2.59,8.33-8.06,9.74-15.81,0-.05.02-.11.03-.16,0,.05.02.11.03.16,1.41,7.75,4.78,13.21,9.74,15.81.11.05.22.08.32.08.25,0,.5-.14.62-.38.18-.35.05-.77-.29-.94-5.27-2.76-7.71-8.56-8.82-13.93,1.79,3.65,5.11,7.53,11.16,8.22h.09c.38,0,.72-.29.77-.68.05-.42-.25-.81-.69-.86-4.41-.51-7.74-2.92-9.89-7.2-.4-.8-.72-1.59-.98-2.33,2.83,3.22,7.72,4.85,14.51,4.85.43,0,.78-.35.78-.78s-.35-.78-.78-.78Z"/>
    </g>
  </g>
</svg>