<?xml version="1.0" encoding="UTF-8"?>
<svg id="_图层_1" data-name="图层 1" xmlns="http://www.w3.org/2000/svg" xmlns:xlink="http://www.w3.org/1999/xlink" viewBox="0 0 72 72">
  <defs>
    <style>
      .cls-1 {
        fill: none;
      }

      .cls-2 {
        fill: #245f41;
      }

      .cls-3 {
        clip-path: url(#clippath);
      }
    </style>
    <clipPath id="clippath">
      <rect class="cls-1" width="72" height="72"/>
    </clipPath>
  </defs>
  <g class="cls-3">
    <g>
      <path class="cls-2" d="M36,0C16.11,0,0,16.11,0,36s16.11,36,36,36,36-16.11,36-36S55.89,0,36,0ZM36,67.72c-17.52,0-31.72-14.2-31.72-31.72S18.48,4.28,36,4.28s31.72,14.2,31.72,31.72-14.2,31.72-31.72,31.72Z"/>
      <path class="cls-2" d="M8.95,39.32l3.75-.36c.23,1.26.68,2.19,1.38,2.78.69.59,1.62.88,2.8.88,1.24,0,2.18-.26,2.81-.79.63-.53.95-1.14.95-1.84,0-.46-.14-.84-.4-1.16-.26-.32-.73-.59-1.38-.83-.46-.15-1.48-.44-3.09-.84-2.07-.51-3.52-1.14-4.35-1.89-1.18-1.05-1.76-2.33-1.76-3.84,0-.97.27-1.89.83-2.73.56-.85,1.35-1.49,2.39-1.93,1.04-.44,2.3-.66,3.76-.66,2.4,0,4.2.53,5.41,1.58,1.21,1.05,1.85,2.45,1.91,4.21l-3.85.17c-.16-.98-.52-1.69-1.07-2.11-.55-.43-1.36-.65-2.44-.65s-1.99.23-2.63.69c-.41.29-.61.69-.61,1.18,0,.46.19.84.57,1.16.48.41,1.67.84,3.54,1.28,1.88.44,3.26.9,4.16,1.38.9.47,1.6,1.12,2.11,1.94.51.82.77,1.83.77,3.04,0,1.09-.3,2.12-.91,3.08-.61.96-1.47,1.67-2.58,2.13-1.11.46-2.5.7-4.15.7-2.41,0-4.27-.56-5.57-1.68-1.29-1.12-2.07-2.74-2.32-4.88h-.02Z"/>
      <path class="cls-2" d="M36.62,38.52v-3.22h8.31v7.61c-.81.78-1.98,1.47-3.51,2.07-1.53.59-3.09.89-4.65.89-1.99,0-3.73-.42-5.23-1.26-1.48-.84-2.61-2.04-3.35-3.6-.75-1.56-1.12-3.25-1.12-5.09,0-1.99.42-3.75,1.25-5.3.84-1.55,2.05-2.73,3.66-3.55,1.22-.64,2.75-.95,4.57-.95,2.37,0,4.23.5,5.56,1.49,1.33.99,2.2,2.37,2.58,4.13l-3.83.72c-.27-.94-.77-1.68-1.52-2.22-.75-.55-1.67-.81-2.78-.81-1.69,0-3.02.54-4.02,1.6-.99,1.07-1.49,2.65-1.49,4.76,0,2.27.5,3.97,1.51,5.1,1.01,1.13,2.33,1.7,3.96,1.7.81,0,1.62-.15,2.43-.47.81-.32,1.51-.7,2.1-1.16v-2.42h-4.42v-.02Z"/>
      <path class="cls-2" d="M47.51,39.32l3.75-.36c.23,1.26.68,2.19,1.38,2.78s1.62.88,2.8.88c1.24,0,2.18-.26,2.81-.79.63-.53.95-1.14.95-1.84,0-.46-.14-.84-.4-1.16-.26-.32-.73-.59-1.38-.83-.46-.15-1.48-.44-3.09-.84-2.07-.51-3.52-1.14-4.35-1.89-1.18-1.05-1.76-2.33-1.76-3.84,0-.97.27-1.89.83-2.73.56-.85,1.35-1.49,2.39-1.93,1.04-.44,2.3-.66,3.76-.66,2.4,0,4.2.53,5.41,1.58,1.21,1.05,1.85,2.45,1.91,4.21l-3.85.17c-.16-.98-.52-1.69-1.07-2.11-.55-.43-1.36-.65-2.44-.65s-1.99.23-2.63.69c-.41.29-.61.69-.61,1.18,0,.46.19.84.57,1.16.48.41,1.67.84,3.54,1.28,1.88.44,3.26.9,4.16,1.38.9.47,1.6,1.12,2.11,1.94.51.82.77,1.83.77,3.04,0,1.09-.3,2.12-.91,3.08-.61.96-1.47,1.67-2.58,2.13-1.11.46-2.5.7-4.15.7-2.41,0-4.27-.56-5.57-1.68-1.29-1.12-2.07-2.74-2.32-4.88h-.02Z"/>
    </g>
  </g>
</svg>