<?xml version="1.0" encoding="UTF-8"?>
<svg id="_图层_1" data-name="图层 1" xmlns="http://www.w3.org/2000/svg" xmlns:xlink="http://www.w3.org/1999/xlink" viewBox="0 0 42 72">
  <defs>
    <style>
      .cls-1 {
        fill: none;
      }

      .cls-2 {
        fill: #245f41;
      }

      .cls-3 {
        clip-path: url(#clippath);
      }
    </style>
    <clipPath id="clippath">
      <rect class="cls-1" y="0" width="42" height="72"/>
    </clipPath>
  </defs>
  <g class="cls-3">
    <g>
      <path class="cls-2" d="M20.57,17.75c.26.16.61.16.87,0,3.01-1.8,5.03-5.07,5.03-8.81S24.45,1.92,21.43.12c-.26-.16-.61-.16-.87,0-3.01,1.79-5.03,5.07-5.03,8.81s2.02,7.02,5.03,8.81h0Z"/>
      <path class="cls-2" d="M17.51,68.98c0,.15,0,.3.02.44.28,3.44,5.55,3.44,5.83,0,.01-.15.02-.29.02-.44,0-2.11-1.62-4.58-2.93-5.88-1.27,1.26-2.93,3.77-2.93,5.88h0Z"/>
      <path class="cls-2" d="M15.54,26.72c.06-3.49-1.69-6.92-4.89-8.89-3.2-1.98-7.07-2-10.19-.4-.28.14-.45.42-.45.73-.06,3.49,1.69,6.92,4.89,8.89s7.07,2,10.19.4c.28-.14.45-.42.45-.73Z"/>
      <path class="cls-2" d="M41.54,17.42c-3.12-1.6-6.99-1.57-10.19.4-3.2,1.98-4.94,5.41-4.89,8.89,0,.31.19.59.45.73,3.12,1.6,6.99,1.57,10.19-.4,3.2-1.98,4.94-5.4,4.89-8.89,0-.3-.19-.59-.45-.73Z"/>
      <path class="cls-2" d="M29.97,34.6h-7.34l-.81-11.1c-.08-1-1.56-1-1.64,0,0,0-.57,7.89-.81,11.1h-7.34c-1.06,0-1.91.85-1.91,1.9s.86,1.9,1.91,1.9h2.81v13.5c0,2.84,2.15,5.18,4.91,5.52v3.3c0,.38.31.69.69.69s.69-.31.69-.69v-3.25h.41c3.09,0,5.6-2.5,5.6-5.57v-13.5h2.81c1.06,0,1.91-.85,1.91-1.9s-.86-1.9-1.91-1.9h0ZM25.77,51.9c0,2.31-1.89,4.19-4.22,4.19h-1.11c-2.33,0-4.22-1.88-4.22-4.19v-13.5h9.54v13.5Z"/>
    </g>
  </g>
</svg>