<?xml version="1.0" encoding="utf-8"?>
<!-- Generator: Adobe Illustrator 22.1.0, SVG Export Plug-In . SVG Version: 6.00 Build 0)  -->
<svg version="1.1" id="圖層_1" xmlns="http://www.w3.org/2000/svg" xmlns:xlink="http://www.w3.org/1999/xlink" x="0px" y="0px"
	 width="50px" height="40px" viewBox="0 0 50 40" style="enable-background:new 0 0 50 40;" xml:space="preserve">
<style type="text/css">
	.st0{fill:#FFFFFF;}
</style>
<title>Icon_skype</title>
<g id="圖層_5">
	<path class="st0" d="M41.2,22.6c0.1-0.8,0.2-1.7,0.2-2.5c0-9.1-7.3-16.5-16.3-16.5c-0.8,0-1.7,0.1-2.5,0.2C17.7,1,11.6,2.7,8.8,7.5
		c-1.7,3.1-1.8,6.8-0.1,9.9c-0.1,0.8-0.2,1.7-0.2,2.5c0,9.1,7.3,16.5,16.4,16.5c0.8,0,1.7-0.1,2.5-0.2c1.5,0.9,3.2,1.3,4.9,1.3
		c5.6,0,10.1-4.4,10.2-10C42.5,25.9,42.1,24.1,41.2,22.6L41.2,22.6z M21.3,16.4c0.2,0.5,0.6,0.9,1.1,1c0.6,0.3,1.2,0.5,1.8,0.6
		l0.6,0.2c0.9,0.3,1.8,0.6,2.6,0.9c0.5,0.2,1.1,0.4,1.6,0.6c1.3,0.6,2.2,1.6,2.7,2.9c0.4,1.4,0.1,2.8-0.7,4c-0.7,1-1.7,1.8-2.9,2.2
		c-3.4,1.4-7.3,0.5-9.7-2.3c-0.5-0.7-0.4-1.7,0.3-2.2c0.6-0.5,1.5-0.4,2.1,0.1c1.5,1.7,4,2.3,6.1,1.5c0.6-0.2,1.1-0.6,1.5-1.1
		c0.3-0.4,0.4-0.8,0.3-1.2c-0.2-0.5-0.6-0.9-1.1-1c-0.6-0.3-1.2-0.5-1.8-0.6l-0.6-0.2c-0.9-0.3-1.8-0.6-2.6-0.9
		c-0.5-0.2-1.1-0.4-1.6-0.6c-1.3-0.6-2.2-1.6-2.7-2.9c-0.4-1.4-0.1-2.8,0.7-4c0.7-1,1.7-1.8,2.9-2.2c3.4-1.4,7.3-0.5,9.7,2.3
		c0.6,0.7,0.5,1.7-0.2,2.2s-1.7,0.5-2.2-0.2c-1.5-1.7-4-2.2-6.1-1.4c-0.6,0.2-1.1,0.6-1.5,1.1C21.3,15.5,21.2,16,21.3,16.4z"/>
</g>
</svg>
