<?xml version="1.0" encoding="utf-8"?>
<!-- Generator: Adobe Illustrator 23.0.3, SVG Export Plug-In . SVG Version: 6.00 Build 0)  -->
<svg version="1.1" id="圖層_1" xmlns="http://www.w3.org/2000/svg" xmlns:xlink="http://www.w3.org/1999/xlink" x="0px" y="0px"
	 width="241px" height="341px" viewBox="0 0 241 341" style="enable-background:new 0 0 241 341;" xml:space="preserve">
<style type="text/css">
	.st0{fill:url(#SVGID_1_);stroke:#FFFFFF;stroke-miterlimit:10;}
	.st1{fill:#BA0000;}
</style>
<g>
	<linearGradient id="SVGID_1_" gradientUnits="userSpaceOnUse" x1="45.3122" y1="23.4588" x2="204.8946" y2="335.5465">
		<stop  offset="0" style="stop-color:#EDEDED"/>
		<stop  offset="1" style="stop-color:#EAE7DE"/>
	</linearGradient>
	<path class="st0" d="M230.5,340.5h-220c-5.5,0-10-4.5-10-10v-320c0-5.5,4.5-10,10-10h220c5.5,0,10,4.5,10,10v320
		C240.5,336,236,340.5,230.5,340.5z"/>
	<g>
		<g>
			<g id="XMLID_2244_">
				<path id="XMLID_2245_" class="st1" d="M19.6,27.6l-2.2,6.4l-3.1,0l7.2-20.2l3.5,0l8.3,20.2l-3,0l-2.5-6.4L19.6,27.6z M27,25.5
					l-2.4-5.8c-0.5-1.2-0.9-2.5-1.3-3.7c-0.4,1.2-0.7,2.4-1.1,3.7l-2.1,5.8L27,25.5z"/>
			</g>
			<path id="XMLID_2243_" class="st1" d="M32,48.7c-5.6-5-7.3-6.6-7.8-7c-0.1-0.1-0.1-0.1-0.1-0.1c-0.1-0.1-0.2-0.2-0.4-0.4l-7,6.1
				c-1.6,1-2.7,2.7-2.7,4.6c0,4.3,5.2,7.1,9.4,5c-0.4,2.4-2,4.5-4.2,6.1c1.3-0.4,2.8-0.6,4.3-0.6c1.5,0,2.9,0.2,4.2,0.6
				c-2.2-1.6-3.7-3.7-4.1-6.1C29.6,60,36,53.6,32,48.7z"/>
		</g>
		<g>
			<g id="XMLID_2251_">
				<path id="XMLID_2252_" class="st1" d="M213.4,27.6l-2.2,6.4l-3.1,0l7.2-20.2l3.5,0l8.3,20.2l-3,0l-2.5-6.4L213.4,27.6z
					 M220.7,25.5l-2.4-5.8c-0.5-1.2-0.9-2.5-1.3-3.7c-0.4,1.2-0.7,2.4-1.1,3.7l-2.1,5.8L220.7,25.5z"/>
			</g>
			<path id="XMLID_2250_" class="st1" d="M225.8,48.7c-5.6-5-7.3-6.6-7.8-7c-0.1-0.1-0.1-0.1-0.1-0.1c-0.1-0.1-0.2-0.2-0.4-0.4
				l-7,6.1c-1.6,1-2.7,2.7-2.7,4.6c0,4.3,5.2,7.1,9.4,5c-0.4,2.4-2,4.5-4.2,6.1c1.3-0.4,2.8-0.6,4.3-0.6c1.5,0,2.9,0.2,4.2,0.6
				c-2.2-1.6-3.7-3.7-4.1-6.1C223.4,60,229.7,53.6,225.8,48.7z"/>
		</g>
		<path id="XMLID_2249_" class="st1" d="M162.7,159.3c0.1-14.2-12.4-25.9-27.9-26c-5.1,0-9.9,1.2-14.1,3.4c-4.1-2.2-8.9-3.5-14-3.6
			c-15.5-0.1-28.2,11.4-28.3,25.6c-0.1,8.7,4.6,16.3,11.7,21.1l30.2,28.1L151,180c2.4-1.6,4.4-3.4,6.1-5.6
			C160.6,170.2,162.6,164.9,162.7,159.3z"/>
		<g>
			<g id="XMLID_2239_">
				<path id="XMLID_2240_" class="st1" d="M221.4,313.4l2.2-6.4l3.1,0l-7.2,20.2l-3.5,0l-8.3-20.2l3,0l2.5,6.4L221.4,313.4z
					 M214,315.5l2.4,5.8c0.5,1.2,0.9,2.5,1.3,3.7c0.4-1.2,0.7-2.4,1.1-3.7l2.1-5.8L214,315.5z"/>
			</g>
			<path id="XMLID_2238_" class="st1" d="M209,292.3c5.6,5,7.3,6.6,7.8,7c0.1,0.1,0.1,0.1,0.1,0.1c0.1,0.1,0.2,0.2,0.4,0.4l7-6.1
				c1.6-1,2.7-2.7,2.7-4.6c0-4.3-5.2-7.1-9.4-5c0.4-2.4,2-4.5,4.2-6.1c-1.3,0.4-2.8,0.6-4.3,0.6c-1.5,0-2.9-0.2-4.2-0.6
				c2.2,1.6,3.7,3.7,4.1,6.1C211.4,281,205,287.4,209,292.3z"/>
		</g>
		<g>
			<g id="XMLID_2256_">
				<path id="XMLID_2257_" class="st1" d="M27.6,313.4l2.2-6.4l3.1,0l-7.2,20.2l-3.5,0L14,307.1l3,0l2.5,6.4L27.6,313.4z
					 M20.3,315.5l2.4,5.8c0.5,1.2,0.9,2.5,1.3,3.7c0.4-1.2,0.7-2.4,1.1-3.7l2.1-5.8L20.3,315.5z"/>
			</g>
			<path id="XMLID_2255_" class="st1" d="M15.2,292.3c5.6,5,7.3,6.6,7.8,7c0.1,0.1,0.1,0.1,0.1,0.1c0.1,0.1,0.2,0.2,0.4,0.4l7-6.1
				c1.6-1,2.7-2.7,2.7-4.6c0-4.3-5.2-7.1-9.4-5c0.4-2.4,2-4.5,4.2-6.1c-1.3,0.4-2.8,0.6-4.3,0.6c-1.5,0-2.9-0.2-4.2-0.6
				c2.2,1.6,3.7,3.7,4.1,6.1C17.6,281,11.3,287.4,15.2,292.3z"/>
		</g>
	</g>
</g>
</svg>
