<svg xmlns="http://www.w3.org/2000/svg" xmlns:xlink="http://www.w3.org/1999/xlink" viewBox="0 0 63.57 48.67">
  <defs>
    <linearGradient id="未命名漸層_9" data-name="未命名漸層 9" y1="19.41" x2="16.74" y2="19.41" gradientUnits="userSpaceOnUse">
      <stop offset="0.41" stop-color="#ffffc3"/>
      <stop offset="0.56" stop-color="#f8eda3"/>
      <stop offset="0.74" stop-color="#f2db85"/>
      <stop offset="0.84" stop-color="#f0d57a"/>
      <stop offset="0.88" stop-color="#eed278"/>
      <stop offset="0.92" stop-color="#e8c774"/>
      <stop offset="0.96" stop-color="#dfb66c"/>
      <stop offset="0.99" stop-color="#d29e61"/>
      <stop offset="1" stop-color="#cc945c"/>
    </linearGradient>
    <linearGradient id="未命名漸層_9-2" y1="29.13" x2="16.74" y2="29.13" xlink:href="#未命名漸層_9"/>
    <linearGradient id="未命名漸層_9-3" y1="26.37" x2="9.18" y2="26.37" xlink:href="#未命名漸層_9"/>
    <linearGradient id="未命名漸層_9-4" x1="7.56" y1="26.37" x2="16.74" y2="26.37" xlink:href="#未命名漸層_9"/>
    <linearGradient id="未命名漸層_9-5" x1="46.84" y1="19.41" x2="63.57" y2="19.41" xlink:href="#未命名漸層_9"/>
    <linearGradient id="未命名漸層_9-6" x1="46.84" y1="29.13" x2="63.57" y2="29.13" xlink:href="#未命名漸層_9"/>
    <linearGradient id="未命名漸層_9-7" x1="54.4" y1="26.37" x2="63.57" y2="26.37" xlink:href="#未命名漸層_9"/>
    <linearGradient id="未命名漸層_9-8" x1="46.84" y1="26.37" x2="56.01" y2="26.37" xlink:href="#未命名漸層_9"/>
    <linearGradient id="未命名漸層_9-9" x1="23.42" y1="5" x2="40.15" y2="5" xlink:href="#未命名漸層_9"/>
    <linearGradient id="未命名漸層_9-10" x1="23.42" y1="14.72" x2="40.15" y2="14.72" xlink:href="#未命名漸層_9"/>
    <linearGradient id="未命名漸層_9-11" x1="23.42" y1="11.95" x2="32.6" y2="11.95" xlink:href="#未命名漸層_9"/>
    <linearGradient id="未命名漸層_9-12" x1="30.98" y1="11.95" x2="40.15" y2="11.95" xlink:href="#未命名漸層_9"/>
    <linearGradient id="未命名漸層_9-13" x1="23.42" y1="33.96" x2="40.15" y2="33.96" xlink:href="#未命名漸層_9"/>
    <linearGradient id="未命名漸層_9-14" x1="23.42" y1="43.68" x2="40.15" y2="43.68" xlink:href="#未命名漸層_9"/>
    <linearGradient id="未命名漸層_9-15" x1="23.42" y1="40.91" x2="32.6" y2="40.91" xlink:href="#未命名漸層_9"/>
    <linearGradient id="未命名漸層_9-16" x1="30.98" y1="40.91" x2="40.15" y2="40.91" xlink:href="#未命名漸層_9"/>
    <linearGradient id="未命名漸層_9-17" x1="15.12" y1="17.06" x2="25.04" y2="17.06" xlink:href="#未命名漸層_9"/>
    <linearGradient id="未命名漸層_9-18" x1="38.54" y1="17.06" x2="48.45" y2="17.06" xlink:href="#未命名漸層_9"/>
    <linearGradient id="未命名漸層_9-19" x1="15.12" y1="31.56" x2="25.04" y2="31.56" xlink:href="#未命名漸層_9"/>
    <linearGradient id="未命名漸層_9-20" x1="38.54" y1="31.56" x2="48.45" y2="31.56" xlink:href="#未命名漸層_9"/>
  </defs>
  <title>icon_b2_1</title>
  <g id="圖層_5" data-name="圖層 5">
    <g>
      <g>
        <path d="M8.37,24.41a.76.76,0,0,1-.39-.1L.42,20.12A.81.81,0,0,1,0,19.41a.82.82,0,0,1,.42-.71L8,14.51a.83.83,0,0,1,.78,0l7.56,4.19a.82.82,0,0,1,.42.71.81.81,0,0,1-.42.71L8.76,24.31A.78.78,0,0,1,8.37,24.41Zm-5.89-5,5.89,3.27,5.89-3.27L8.37,16.14Z" style="fill: url(#未命名漸層_9)"/>
        <path d="M8.37,34.13A.87.87,0,0,1,8,34L.42,29.84a.81.81,0,0,1,0-1.42L8,24.23a.83.83,0,0,1,.78,0l7.56,4.19a.81.81,0,0,1,0,1.42L8.76,34A.9.9,0,0,1,8.37,34.13Zm-5.89-5L8.37,32.4l5.89-3.27L8.37,25.86Z" style="fill: url(#未命名漸層_9-2)"/>
        <path d="M8.37,34.13A.76.76,0,0,1,8,34L.42,29.84A.82.82,0,0,1,0,29.13V19.41a.81.81,0,0,1,1.2-.71l7.56,4.19a.82.82,0,0,1,.42.71v9.72a.83.83,0,0,1-.4.7A.87.87,0,0,1,8.37,34.13ZM1.62,28.65,7.56,32V24.08l-5.94-3.3Z" style="fill: url(#未命名漸層_9-3)"/>
        <path d="M8.37,34.13A.84.84,0,0,1,8,34a.81.81,0,0,1-.4-.7V23.6A.82.82,0,0,1,8,22.89l7.56-4.19a.81.81,0,0,1,.8,0,.83.83,0,0,1,.4.7v9.72a.82.82,0,0,1-.42.71L8.76,34A.78.78,0,0,1,8.37,34.13Zm.81-10.05V32l5.94-3.3V20.78Z" style="fill: url(#未命名漸層_9-4)"/>
      </g>
      <g>
        <path d="M55.21,24.41a.82.82,0,0,1-.4-.1l-7.56-4.19a.82.82,0,0,1-.41-.71.84.84,0,0,1,.41-.71l7.56-4.19a.85.85,0,0,1,.79,0l7.56,4.19a.84.84,0,0,1,.41.71.82.82,0,0,1-.41.71L55.6,24.31A.78.78,0,0,1,55.21,24.41Zm-5.9-5,5.9,3.27,5.89-3.27-5.89-3.27Z" style="fill: url(#未命名漸層_9-5)"/>
        <path d="M55.21,34.13a1,1,0,0,1-.4-.1l-7.56-4.19a.82.82,0,0,1,0-1.42l7.56-4.19a.85.85,0,0,1,.79,0l7.56,4.19a.82.82,0,0,1,0,1.42L55.6,34A.9.9,0,0,1,55.21,34.13Zm-5.9-5,5.9,3.27,5.89-3.27-5.89-3.27Z" style="fill: url(#未命名漸層_9-6)"/>
        <path d="M55.21,34.13a.81.81,0,0,1-.81-.81V23.6a.84.84,0,0,1,.41-.71l7.56-4.19a.83.83,0,0,1,.81,0,.82.82,0,0,1,.39.7v9.72a.84.84,0,0,1-.41.71L55.6,34A.78.78,0,0,1,55.21,34.13ZM56,24.08V32l6-3.3V20.78Z" style="fill: url(#未命名漸層_9-7)"/>
        <path d="M55.21,34.13a.82.82,0,0,1-.4-.1l-7.56-4.19a.84.84,0,0,1-.41-.71V19.41A.81.81,0,0,1,48,18.7l7.56,4.19a.84.84,0,0,1,.41.71v9.72a.82.82,0,0,1-.39.7A.87.87,0,0,1,55.21,34.13Zm-6.76-5.48L54.4,32V24.08l-5.95-3.3Z" style="fill: url(#未命名漸層_9-8)"/>
      </g>
      <g>
        <path d="M31.79,10a1,1,0,0,1-.4-.1L23.84,5.71A.82.82,0,0,1,23.42,5a.8.8,0,0,1,.42-.71L31.39.1a.85.85,0,0,1,.79,0l7.56,4.19a.79.79,0,0,1,.41.71.81.81,0,0,1-.41.71L32.18,9.9A.9.9,0,0,1,31.79,10Zm-5.9-5,5.9,3.26L37.68,5,31.79,1.73Z" style="fill: url(#未命名漸層_9-9)"/>
        <path d="M31.79,19.72a1,1,0,0,1-.4-.1l-7.55-4.19a.82.82,0,0,1-.42-.71.8.8,0,0,1,.42-.71l7.55-4.19a.85.85,0,0,1,.79,0L39.74,14a.79.79,0,0,1,.41.71.81.81,0,0,1-.41.71l-7.56,4.19A.9.9,0,0,1,31.79,19.72Zm-5.9-5L31.79,18l5.89-3.26-5.89-3.27Z" style="fill: url(#未命名漸層_9-10)"/>
        <path d="M31.79,19.72a1,1,0,0,1-.4-.1l-7.55-4.19a.82.82,0,0,1-.42-.71V5a.81.81,0,0,1,1.2-.71l7.56,4.19a.8.8,0,0,1,.42.71v9.72a.82.82,0,0,1-.4.69A.78.78,0,0,1,31.79,19.72ZM25,14.24,31,17.54V9.66L25,6.37Z" style="fill: url(#未命名漸層_9-11)"/>
        <path d="M31.79,19.72a.73.73,0,0,1-.41-.12.79.79,0,0,1-.4-.69V9.19a.81.81,0,0,1,.41-.71L39,4.29a.83.83,0,0,1,.81,0,.82.82,0,0,1,.39.7v9.72a.81.81,0,0,1-.41.71l-7.56,4.19A.9.9,0,0,1,31.79,19.72ZM32.6,9.66v7.88l5.94-3.3V6.37Z" style="fill: url(#未命名漸層_9-12)"/>
      </g>
      <g>
        <path d="M31.79,39a.83.83,0,0,1-.4-.11l-7.55-4.19a.8.8,0,0,1,0-1.41l7.55-4.19a.8.8,0,0,1,.79,0l7.56,4.19a.81.81,0,0,1,0,1.41l-7.56,4.19A.79.79,0,0,1,31.79,39Zm-5.9-5,5.9,3.26L37.68,34l-5.89-3.27Z" style="fill: url(#未命名漸層_9-13)"/>
        <path d="M31.79,48.67a.82.82,0,0,1-.4-.1l-7.55-4.19a.8.8,0,0,1,0-1.41l7.55-4.19a.8.8,0,0,1,.79,0L39.74,43a.81.81,0,0,1,0,1.41l-7.56,4.19A.78.78,0,0,1,31.79,48.67Zm-5.9-5,5.9,3.26,5.89-3.26-5.89-3.27Z" style="fill: url(#未命名漸層_9-14)"/>
        <path d="M31.79,48.67a.82.82,0,0,1-.4-.1l-7.55-4.19a.8.8,0,0,1-.42-.7V34a.81.81,0,0,1,.4-.7.79.79,0,0,1,.8,0l7.56,4.19a.8.8,0,0,1,.42.71v9.72a.82.82,0,0,1-.4.69A.77.77,0,0,1,31.79,48.67ZM25,43.2,31,46.49V38.62L25,35.33Z" style="fill: url(#未命名漸層_9-15)"/>
        <path d="M31.79,48.67a.72.72,0,0,1-.41-.11.79.79,0,0,1-.4-.69V38.15a.81.81,0,0,1,.41-.71L39,33.25a.81.81,0,0,1,.81,0,.82.82,0,0,1,.39.7v9.72a.79.79,0,0,1-.41.7l-7.56,4.19A.78.78,0,0,1,31.79,48.67Zm.81-10.05v7.87l5.94-3.29V35.33Z" style="fill: url(#未命名漸層_9-16)"/>
      </g>
      <path d="M15.93,20.22a.83.83,0,0,1-.71-.41.81.81,0,0,1,.31-1.1l8.3-4.7a.81.81,0,0,1,.8,1.41l-8.3,4.69A.76.76,0,0,1,15.93,20.22Z" style="fill: url(#未命名漸層_9-17)"/>
      <path d="M47.64,20.22a.7.7,0,0,1-.39-.11L39,15.42A.81.81,0,1,1,39.74,14l8.3,4.7a.81.81,0,0,1,.31,1.1A.81.81,0,0,1,47.64,20.22Z" style="fill: url(#未命名漸層_9-18)"/>
      <path d="M24.23,34.71a.82.82,0,0,1-.4-.1l-8.3-4.69a.81.81,0,0,1-.31-1.1.82.82,0,0,1,1.11-.31l8.3,4.69a.81.81,0,0,1,.3,1.1A.79.79,0,0,1,24.23,34.71Z" style="fill: url(#未命名漸層_9-19)"/>
      <path d="M39.35,34.71a.79.79,0,0,1-.71-.41A.81.81,0,0,1,39,33.2l8.3-4.69A.81.81,0,1,1,48,29.92l-8.3,4.69A.78.78,0,0,1,39.35,34.71Z" style="fill: url(#未命名漸層_9-20)"/>
    </g>
  </g>
</svg>
