<svg xmlns="http://www.w3.org/2000/svg" xmlns:xlink="http://www.w3.org/1999/xlink" viewBox="0 0 47.5 47.51"><defs><style>.cls-1{fill:url(#未命名漸層_39);}.cls-2{fill:url(#未命名漸層_39-2);}.cls-3{fill:url(#未命名漸層_39-3);}.cls-4{fill:url(#未命名漸層_39-4);}.cls-5{fill:url(#未命名漸層_39-5);}.cls-6{fill:url(#未命名漸層_39-6);}</style><linearGradient id="未命名漸層_39" x1="6.18" y1="23.75" x2="41.33" y2="23.75" gradientUnits="userSpaceOnUse"><stop offset="0" stop-color="#2d3c68"/><stop offset="1" stop-color="#1c232f"/></linearGradient><linearGradient id="未命名漸層_39-2" x1="12" y1="13.64" x2="23.25" y2="13.64" xlink:href="#未命名漸層_39"/><linearGradient id="未命名漸層_39-3" x1="12.31" y1="19.16" x2="23.56" y2="19.16" xlink:href="#未命名漸層_39"/><linearGradient id="未命名漸層_39-4" x1="12.31" y1="24.06" x2="34.59" y2="24.06" xlink:href="#未命名漸層_39"/><linearGradient id="未命名漸層_39-5" x1="12.31" y1="28.96" x2="34.59" y2="28.96" xlink:href="#未命名漸層_39"/><linearGradient id="未命名漸層_39-6" x1="12.31" y1="33.86" x2="34.59" y2="33.86" xlink:href="#未命名漸層_39"/></defs><g id="圖層_5" data-name="圖層 5"><path class="cls-1" d="M41.32,15.75a1.46,1.46,0,0,0,0-.29h0a1.43,1.43,0,0,0-.09-.27l0-.08a1.74,1.74,0,0,0-.1-.19l0-.07a1.24,1.24,0,0,0-.18-.22l-11-11a1.3,1.3,0,0,0-.23-.18l-.07-.05-.19-.1-.08,0A.92.92,0,0,0,29,3.15h0l-.29,0h-19A3.48,3.48,0,0,0,6.18,6.59V40.91a3.48,3.48,0,0,0,3.48,3.48H37.85a3.48,3.48,0,0,0,3.48-3.48V15.79S41.32,15.76,41.32,15.75Zm-11-7L33,11.43l2.71,2.71H30.49A.19.19,0,0,1,30.3,14Zm7.55,32.39H9.66a.2.2,0,0,1-.2-.2V6.59a.19.19,0,0,1,.2-.19H27V14a3.48,3.48,0,0,0,3.48,3.48H38V40.91A.19.19,0,0,1,37.85,41.11Z"/><path class="cls-2" d="M13.64,15.28h8a1.64,1.64,0,1,0,0-3.28h-8a1.64,1.64,0,0,0,0,3.28Z"/><path class="cls-3" d="M21.91,17.51H14a1.65,1.65,0,0,0,0,3.29h8a1.65,1.65,0,1,0,0-3.29Z"/><path class="cls-4" d="M32.94,22.42H14a1.64,1.64,0,1,0,0,3.28h19a1.64,1.64,0,1,0,0-3.28Z"/><path class="cls-5" d="M32.94,27.32H14a1.64,1.64,0,1,0,0,3.28h19a1.64,1.64,0,1,0,0-3.28Z"/><path class="cls-6" d="M32.94,32.22H14a1.65,1.65,0,0,0,0,3.29h19a1.65,1.65,0,1,0,0-3.29Z"/></g></svg>