<svg width="24" height="25" viewBox="0 0 24 25" fill="none" xmlns="http://www.w3.org/2000/svg">
<path d="M15.3408 22.5025C15.1273 22.5032 14.9164 22.4561 14.7235 22.3646C14.5307 22.2731 14.3608 22.1396 14.2263 21.9738L7.32504 13.4008C7.11489 13.1452 7 12.8245 7 12.4935C7 12.1626 7.11489 11.8419 7.32504 11.5862L14.4692 3.01324C14.7117 2.72145 15.0602 2.53795 15.438 2.50312C15.8159 2.46828 16.192 2.58496 16.4838 2.82749C16.7756 3.07002 16.9591 3.41853 16.994 3.79634C17.0288 4.17416 16.9121 4.55035 16.6696 4.84214L10.2827 12.5007L16.4553 20.1592C16.63 20.3689 16.741 20.6243 16.7751 20.8951C16.8092 21.166 16.765 21.4409 16.6478 21.6874C16.5305 21.9339 16.3451 22.1417 16.1135 22.2861C15.8819 22.4306 15.6137 22.5056 15.3408 22.5025Z" fill="white"/>
</svg>
