<svg width="24" height="25" viewBox="0 0 24 25" fill="none" xmlns="http://www.w3.org/2000/svg">
<path d="M12 22.5405C11.8487 22.5414 11.6987 22.5124 11.5586 22.4551C11.4185 22.3979 11.2911 22.3136 11.1836 22.207L2.2493 13.2612C1.12862 12.1288 0.5 10.6 0.5 9.0068C0.5 7.41362 1.12862 5.88477 2.2493 4.75238C3.37875 3.62611 4.9087 2.99365 6.50374 2.99365C8.09877 2.99365 9.62872 3.62611 10.7582 4.75238L12 5.99421L13.2418 4.75238C14.3713 3.62611 15.9012 2.99365 17.4963 2.99365C19.0913 2.99365 20.6212 3.62611 21.7507 4.75238C22.8714 5.88477 23.5 7.41362 23.5 9.0068C23.5 10.6 22.8714 12.1288 21.7507 13.2612L12.8164 22.207C12.709 22.3136 12.5815 22.3979 12.4414 22.4551C12.3013 22.5124 12.1513 22.5414 12 22.5405ZM6.50374 5.2928C6.01698 5.2906 5.53462 5.385 5.0846 5.57053C4.63459 5.75606 4.22586 6.02904 3.88209 6.37366C3.18765 7.07175 2.79782 8.01638 2.79782 9.00106C2.79782 9.98573 3.18765 10.9304 3.88209 11.6285L12 19.7579L20.1179 11.6285C20.8124 10.9304 21.2022 9.98573 21.2022 9.00106C21.2022 8.01638 20.8124 7.07175 20.1179 6.37366C19.4092 5.70411 18.4712 5.33109 17.4963 5.33109C16.5213 5.33109 15.5833 5.70411 14.8746 6.37366L12.8164 8.44338C12.7095 8.55115 12.5823 8.6367 12.4422 8.69507C12.3021 8.75345 12.1518 8.7835 12 8.7835C11.8482 8.7835 11.6979 8.75345 11.5578 8.69507C11.4177 8.6367 11.2905 8.55115 11.1836 8.44338L9.12538 6.37366C8.78161 6.02904 8.37288 5.75606 7.92287 5.57053C7.47285 5.385 6.99049 5.2906 6.50374 5.2928Z" fill="#DEDEDE"/>
</svg>
