<svg width="24" height="24" viewBox="0 0 24 24" fill="none" xmlns="http://www.w3.org/2000/svg">
<path d="M19.8501 9.09548C19.8501 4.75743 16.3378 1.24512 11.9998 1.24512C7.66173 1.24512 4.14941 4.75743 4.14941 9.09548C4.14941 13.1602 7.24304 16.5039 11.2031 16.9051V18.8706H9.55163C9.27832 18.8706 9.05735 19.0916 9.05735 19.3649V20.1209C9.05735 20.3942 9.27832 20.6152 9.55163 20.6152H11.2031V22.2143C11.2031 22.5167 11.4241 22.7551 11.6974 22.7551H12.4534C12.7267 22.7551 12.9476 22.5109 12.9476 22.2143V20.6152H14.5991C14.8724 20.6152 15.0934 20.3942 15.0934 20.1209V19.3649C15.0934 19.0916 14.8724 18.8706 14.5991 18.8706H12.9476L12.9476 16.8819C16.8321 16.4167 19.8501 13.1079 19.8501 9.09548ZM6.47545 9.09548C6.47545 6.04838 8.95267 3.57115 11.9998 3.57115C15.0469 3.57115 17.5241 6.04838 17.5241 9.09548C17.5241 12.1426 15.0469 14.6198 11.9998 14.6198C8.95267 14.6198 6.47545 12.1426 6.47545 9.09548Z" fill="#FDAAA2"/>
</svg>
