<svg width="38" height="38" viewBox="0 0 38 38" fill="none" xmlns="http://www.w3.org/2000/svg">
<path fill-rule="evenodd" clip-rule="evenodd" d="M18.1025 15.3512H7.68649C6.90012 15.3512 6.2793 14.7166 6.2793 13.944C6.2793 13.1714 6.90012 12.5368 7.68649 12.5506H18.0887V11.2124C18.0887 10.426 18.7233 9.80518 19.4959 9.80518C20.2684 9.80518 20.9031 10.426 20.9031 11.2124V16.6756C20.9031 17.462 20.2684 18.0828 19.4959 18.0828C18.7233 18.0828 18.0887 17.462 18.1025 16.6894V15.3512ZM23.9383 12.5367H30.3121C31.0847 12.5367 31.7193 13.1713 31.7193 13.9439C31.7193 14.7303 31.0847 15.3511 30.3121 15.3511H23.9383C23.152 15.3511 22.5312 14.7165 22.5312 13.9439C22.5312 13.1575 23.1658 12.5367 23.9383 12.5367ZM30.312 22.6493H25.3041V21.3111C25.3041 20.5385 24.6833 19.9039 23.8969 19.9039C23.1243 19.9039 22.4897 20.5247 22.4897 21.3111V26.7881C22.4897 27.5607 23.1105 28.1953 23.8969 28.1953C24.6695 28.1953 25.3041 27.5745 25.3041 26.7881V25.4499H30.312C31.0846 25.4499 31.7192 24.8291 31.7192 24.0427C31.7192 23.2701 31.0846 22.6493 30.312 22.6493ZM7.68649 22.6493H19.5235C20.3098 22.6493 20.9307 23.2701 20.9307 24.0427C20.9307 24.829 20.296 25.4499 19.5235 25.4499H7.68649C6.90012 25.4499 6.2793 24.8152 6.2793 24.0427C6.2793 23.2701 6.90012 22.6493 7.68649 22.6493Z" fill="#262626"/>
</svg>
