<svg width="24" height="24" viewBox="0 0 24 24" fill="none" xmlns="http://www.w3.org/2000/svg">
<path d="M16.0545 9.18112L17.8585 7.37704L17.9121 8.69097C17.9203 8.91339 18.1057 9.08226 18.3281 9.07402L19.4649 9.0246C19.6873 9.01636 19.8562 8.83101 19.848 8.60859L19.6791 4.53501C19.6708 4.31259 19.4855 4.14372 19.2631 4.15195L15.1895 4.32083C14.9671 4.32907 14.7982 4.51442 14.8064 4.73684L14.8559 5.87365C14.8641 6.09607 15.0494 6.26494 15.2719 6.25671L16.5611 6.20316L14.8188 7.94545C11.7337 5.47 7.21532 5.66358 4.35269 8.52621C1.28 11.5989 1.28 16.5745 4.35269 19.6472C7.42538 22.7199 12.4051 22.7158 15.4737 19.6472C18.3363 16.7846 18.5299 12.2662 16.0545 9.18112ZM6.00025 17.9997C3.84195 15.8414 3.84195 12.3321 6.00025 10.1738C8.15855 8.01547 11.6678 8.01547 13.8261 10.1738C15.9844 12.3321 15.9844 15.8414 13.8261 17.9997C11.6678 20.158 8.15855 20.158 6.00025 17.9997Z" fill="#70D4F4"/>
</svg>
