<svg width="25" height="25" viewBox="0 0 25 25" fill="none" xmlns="http://www.w3.org/2000/svg">
<path fill-rule="evenodd" clip-rule="evenodd" d="M18.1338 4.98786V5.92686C18.8809 5.92686 19.5975 6.22365 20.1257 6.75194C20.654 7.28023 20.9508 7.99675 20.9508 8.74386V19.0729C20.9508 19.82 20.654 20.5365 20.1257 21.0648C19.5975 21.5931 18.8809 21.8899 18.1338 21.8899H6.86583C6.11871 21.8899 5.4022 21.5931 4.87391 21.0648C4.34562 20.5365 4.04883 19.82 4.04883 19.0729V8.74386C4.04883 7.99675 4.34562 7.28023 4.87391 6.75194C5.4022 6.22365 6.11871 5.92686 6.86583 5.92686V4.98786C6.86583 4.48979 7.06369 4.01211 7.41588 3.65992C7.76807 3.30772 8.24575 3.10986 8.74383 3.10986H16.2558C16.7539 3.10986 17.2316 3.30772 17.5838 3.65992C17.936 4.01211 18.1338 4.48979 18.1338 4.98786ZM16.2558 4.98786H8.74383V8.74386H16.2558V4.98786ZM18.7978 19.7368C18.9739 19.5607 19.0728 19.3219 19.0728 19.0729V8.74386C19.0728 8.49482 18.9739 8.25599 18.7978 8.07989C18.6217 7.90379 18.3829 7.80486 18.1338 7.80486V8.74386C18.1338 9.24194 17.936 9.71962 17.5838 10.0718C17.2316 10.424 16.7539 10.6219 16.2558 10.6219H8.74383C8.24575 10.6219 7.76807 10.424 7.41588 10.0718C7.06369 9.71962 6.86583 9.24194 6.86583 8.74386V7.80486C6.61679 7.80486 6.37795 7.90379 6.20185 8.07989C6.02576 8.25599 5.92683 8.49482 5.92683 8.74386V19.0729C5.92683 19.3219 6.02576 19.5607 6.20185 19.7368C6.37795 19.9129 6.61679 20.0119 6.86583 20.0119H18.1338C18.3829 20.0119 18.6217 19.9129 18.7978 19.7368ZM12.9772 14.1445C12.9772 14.5341 12.6613 14.85 12.2716 14.85C11.882 14.85 11.5661 14.5341 11.5661 14.1445C11.5661 13.7548 11.882 13.4389 12.2716 13.4389C12.6613 13.4389 12.9772 13.7548 12.9772 14.1445ZM15.0939 14.85C15.4836 14.85 15.7994 14.5341 15.7994 14.1445C15.7994 13.7548 15.4836 13.4389 15.0939 13.4389C14.7042 13.4389 14.3883 13.7548 14.3883 14.1445C14.3883 14.5341 14.7042 14.85 15.0939 14.85ZM10.155 14.1445C10.155 14.5341 9.83907 14.85 9.4494 14.85C9.05973 14.85 8.74384 14.5341 8.74384 14.1445C8.74384 13.7548 9.05973 13.4389 9.4494 13.4389C9.83907 13.4389 10.155 13.7548 10.155 14.1445Z" fill="#FDAAA2"/>
</svg>
