<svg width="46" height="46" viewBox="0 0 46 46" fill="none" xmlns="http://www.w3.org/2000/svg">
<path d="M24.3008 12.3926C22.7426 12.3926 21.2091 12.7142 19.787 13.3078V11.7372C19.787 10.4882 18.5008 9.70905 17.4744 10.3274L14.1106 12.3679L10.7469 14.4084C9.68333 15.0515 9.68333 16.585 10.7469 17.228L14.1106 19.2685L17.4744 21.309C18.5008 21.9397 19.787 21.1483 19.787 19.8992V17.4259C19.8983 17.4012 20.0096 17.3517 20.1085 17.2899C21.3699 16.5231 22.8168 16.115 24.3008 16.115C28.7281 16.115 32.3392 19.7261 32.3392 24.1534C32.3392 28.5807 28.7281 32.1918 24.3008 32.1918C21.914 32.1918 19.6633 31.1406 18.1298 29.3103C17.4744 28.5188 16.2995 28.4199 15.5204 29.0753C14.729 29.7308 14.63 30.9056 15.2855 31.6847C17.5238 34.3559 20.8134 35.8894 24.3008 35.8894C30.781 35.8894 36.0492 30.6212 36.0492 24.141C36.0492 17.6732 30.781 12.3926 24.3008 12.3926Z" fill="#262626"/>
</svg>
