<?xml version="1.0" encoding="utf-8"?>
<!-- Generator: Adobe Illustrator 23.0.3, SVG Export Plug-In . SVG Version: 6.00 Build 0)  -->
<svg version="1.1" id="圖層_1" xmlns="http://www.w3.org/2000/svg" xmlns:xlink="http://www.w3.org/1999/xlink" x="0px" y="0px"
	 viewBox="0 0 19 19" style="enable-background:new 0 0 19 19;" xml:space="preserve">
<style type="text/css">
	.st0{fill:#FF0000;}
	.st1{enable-background:new    ;}
	.st2{fill:#F2F2F2;}
</style>
<title>未命名-５</title>
<g id="圖層_2_1_">
	<circle class="st0" cx="9.5" cy="9.5" r="9.5"/>
</g>
<g class="st1">
	<path class="st2" d="M14.8,4.6v1.1H5.9v1.7c0,3.2-0.4,5.7-1.1,7.3l-1.1-0.9c0.7-1.3,1-3.5,1-6.6V4.6h4.6C9.2,4.3,9.1,4,8.9,3.8
		l1.3-0.2c0.1,0.2,0.3,0.5,0.5,1H14.8z M6.1,14.2v-1.1h3.7V9.8H6.7V8.7h3.1V6.2H11v2.5h3.2v1.1H11v3.3h3.6v1.1
		C14.6,14.2,6.1,14.2,6.1,14.2z"/>
</g>
</svg>
